<?xml version="1.0" encoding="UTF-8" standalone="no"?>
<!DOCTYPE svg PUBLIC "-//W3C//DTD SVG 1.1//EN"
 "http://www.w3.org/Graphics/SVG/1.1/DTD/svg11.dtd">
<!-- Generated by graphviz version 2.40.1 (20161225.0304)
 -->
<!-- Title: snakemake_dag Pages: 1 -->
<svg width="1867pt" height="548pt"
 viewBox="0.00 0.00 1866.54 548.00" xmlns="http://www.w3.org/2000/svg" xmlns:xlink="http://www.w3.org/1999/xlink">
<g id="graph0" class="graph" transform="scale(1 1) rotate(0) translate(4 544)">
<title>snakemake_dag</title>
<polygon fill="#ffffff" stroke="transparent" points="-4,4 -4,-544 1862.5435,-544 1862.5435,4 -4,4"/>
<!-- 0 -->
<g id="node1" class="node">
<title>0</title>
<path fill="none" stroke="#56b1d8" stroke-width="2" d="M1197.4197,-396C1197.4197,-396 1075.5483,-396 1075.5483,-396 1069.5483,-396 1063.5483,-390 1063.5483,-384 1063.5483,-384 1063.5483,-372 1063.5483,-372 1063.5483,-366 1069.5483,-360 1075.5483,-360 1075.5483,-360 1197.4197,-360 1197.4197,-360 1203.4197,-360 1209.4197,-366 1209.4197,-372 1209.4197,-372 1209.4197,-384 1209.4197,-384 1209.4197,-390 1203.4197,-396 1197.4197,-396"/>
<text text-anchor="middle" x="1136.484" y="-375" font-family="sans" font-size="10.00" fill="#000000">split_methylation_by_haplotype</text>
</g>
<!-- 5 -->
<g id="node6" class="node">
<title>5</title>
<path fill="none" stroke="#56c9d8" stroke-width="2" d="M1223.6076,-324C1223.6076,-324 1135.3604,-324 1135.3604,-324 1129.3604,-324 1123.3604,-318 1123.3604,-312 1123.3604,-312 1123.3604,-300 1123.3604,-300 1123.3604,-294 1129.3604,-288 1135.3604,-288 1135.3604,-288 1223.6076,-288 1223.6076,-288 1229.6076,-288 1235.6076,-294 1235.6076,-300 1235.6076,-300 1235.6076,-312 1235.6076,-312 1235.6076,-318 1229.6076,-324 1223.6076,-324"/>
<text text-anchor="middle" x="1179.484" y="-303" font-family="sans" font-size="10.00" fill="#000000">calculate_meth_alt_freq</text>
</g>
<!-- 0&#45;&gt;5 -->
<g id="edge9" class="edge">
<title>0&#45;&gt;5</title>
<path fill="none" stroke="#c0c0c0" stroke-width="2" d="M1147.3347,-359.8314C1152.1863,-351.7079 1158.0057,-341.9637 1163.352,-333.0118"/>
<polygon fill="#c0c0c0" stroke="#c0c0c0" stroke-width="2" points="1166.3646,-334.7933 1168.4872,-324.4133 1160.3548,-331.2041 1166.3646,-334.7933"/>
</g>
<!-- 31 -->
<g id="node32" class="node">
<title>31</title>
<path fill="none" stroke="#56d8b1" stroke-width="2" d="M1093.2073,-324C1093.2073,-324 1003.7607,-324 1003.7607,-324 997.7607,-324 991.7607,-318 991.7607,-312 991.7607,-312 991.7607,-300 991.7607,-300 991.7607,-294 997.7607,-288 1003.7607,-288 1003.7607,-288 1093.2073,-288 1093.2073,-288 1099.2073,-288 1105.2073,-294 1105.2073,-300 1105.2073,-300 1105.2073,-312 1105.2073,-312 1105.2073,-318 1099.2073,-324 1093.2073,-324"/>
<text text-anchor="middle" x="1048.484" y="-303" font-family="sans" font-size="10.00" fill="#000000">calculate_meth_ref_freq</text>
</g>
<!-- 0&#45;&gt;31 -->
<g id="edge44" class="edge">
<title>0&#45;&gt;31</title>
<path fill="none" stroke="#c0c0c0" stroke-width="2" d="M1114.2779,-359.8314C1103.439,-350.9632 1090.2396,-340.1637 1078.5162,-330.5718"/>
<polygon fill="#c0c0c0" stroke="#c0c0c0" stroke-width="2" points="1080.639,-327.7864 1070.683,-324.1628 1076.2063,-333.2041 1080.639,-327.7864"/>
</g>
<!-- 1 -->
<g id="node2" class="node">
<title>1</title>
<path fill="none" stroke="#56d863" stroke-width="2" d="M114.0911,-252C114.0911,-252 70.8769,-252 70.8769,-252 64.8769,-252 58.8769,-246 58.8769,-240 58.8769,-240 58.8769,-228 58.8769,-228 58.8769,-222 64.8769,-216 70.8769,-216 70.8769,-216 114.0911,-216 114.0911,-216 120.0911,-216 126.0911,-222 126.0911,-228 126.0911,-228 126.0911,-240 126.0911,-240 126.0911,-246 120.0911,-252 114.0911,-252"/>
<text text-anchor="middle" x="92.484" y="-231" font-family="sans" font-size="10.00" fill="#000000">suppdb_bam</text>
</g>
<!-- 15 -->
<g id="node16" class="node">
<title>15</title>
<path fill="none" stroke="#56c1d8" stroke-width="2" d="M304.484,-180C304.484,-180 274.484,-180 274.484,-180 268.484,-180 262.484,-174 262.484,-168 262.484,-168 262.484,-156 262.484,-156 262.484,-150 268.484,-144 274.484,-144 274.484,-144 304.484,-144 304.484,-144 310.484,-144 316.484,-150 316.484,-156 316.484,-156 316.484,-168 316.484,-168 316.484,-174 310.484,-180 304.484,-180"/>
<text text-anchor="middle" x="289.484" y="-159" font-family="sans" font-size="10.00" fill="#000000">fit_reads</text>
</g>
<!-- 1&#45;&gt;15 -->
<g id="edge24" class="edge">
<title>1&#45;&gt;15</title>
<path fill="none" stroke="#c0c0c0" stroke-width="2" d="M126.3495,-221.6228C161.5442,-208.7597 216.4495,-188.6928 252.6921,-175.4468"/>
<polygon fill="#c0c0c0" stroke="#c0c0c0" stroke-width="2" points="254.1966,-178.6234 262.3875,-171.9033 251.7937,-172.0488 254.1966,-178.6234"/>
</g>
<!-- 2 -->
<g id="node3" class="node">
<title>2</title>
<path fill="none" stroke="#56c1d8" stroke-width="2" d="M520.484,-180C520.484,-180 490.484,-180 490.484,-180 484.484,-180 478.484,-174 478.484,-168 478.484,-168 478.484,-156 478.484,-156 478.484,-150 484.484,-144 490.484,-144 490.484,-144 520.484,-144 520.484,-144 526.484,-144 532.484,-150 532.484,-156 532.484,-156 532.484,-168 532.484,-168 532.484,-174 526.484,-180 520.484,-180"/>
<text text-anchor="middle" x="505.484" y="-159" font-family="sans" font-size="10.00" fill="#000000">fit_reads</text>
</g>
<!-- 9 -->
<g id="node10" class="node">
<title>9</title>
<path fill="none" stroke="#d8a456" stroke-width="2" d="M571.1802,-108C571.1802,-108 481.7878,-108 481.7878,-108 475.7878,-108 469.7878,-102 469.7878,-96 469.7878,-96 469.7878,-84 469.7878,-84 469.7878,-78 475.7878,-72 481.7878,-72 481.7878,-72 571.1802,-72 571.1802,-72 577.1802,-72 583.1802,-78 583.1802,-84 583.1802,-84 583.1802,-96 583.1802,-96 583.1802,-102 577.1802,-108 571.1802,-108"/>
<text text-anchor="middle" x="526.484" y="-87" font-family="sans" font-size="10.00" fill="#000000">cast_haplotype_analysis</text>
</g>
<!-- 2&#45;&gt;9 -->
<g id="edge14" class="edge">
<title>2&#45;&gt;9</title>
<path fill="none" stroke="#c0c0c0" stroke-width="2" d="M510.7832,-143.8314C513.0538,-136.0463 515.7586,-126.7729 518.278,-118.1347"/>
<polygon fill="#c0c0c0" stroke="#c0c0c0" stroke-width="2" points="521.6734,-118.9933 521.1135,-108.4133 514.9534,-117.0332 521.6734,-118.9933"/>
</g>
<!-- 34 -->
<g id="node35" class="node">
<title>34</title>
<path fill="none" stroke="#56d88a" stroke-width="2" d="M314.7987,-108C314.7987,-108 264.1693,-108 264.1693,-108 258.1693,-108 252.1693,-102 252.1693,-96 252.1693,-96 252.1693,-84 252.1693,-84 252.1693,-78 258.1693,-72 264.1693,-72 264.1693,-72 314.7987,-72 314.7987,-72 320.7987,-72 326.7987,-78 326.7987,-84 326.7987,-84 326.7987,-96 326.7987,-96 326.7987,-102 320.7987,-108 314.7987,-108"/>
<text text-anchor="middle" x="289.484" y="-87" font-family="sans" font-size="10.00" fill="#000000">haplotype_auc</text>
</g>
<!-- 2&#45;&gt;34 -->
<g id="edge50" class="edge">
<title>2&#45;&gt;34</title>
<path fill="none" stroke="#c0c0c0" stroke-width="2" d="M478.2142,-153.9388C446.328,-144.3828 391.7877,-127.6351 336.426,-108.2356"/>
<polygon fill="#c0c0c0" stroke="#c0c0c0" stroke-width="2" points="337.4085,-104.8708 326.8137,-104.843 335.0787,-111.4717 337.4085,-104.8708"/>
</g>
<!-- 3 -->
<g id="node4" class="node">
<title>3</title>
<path fill="none" stroke="#d88d56" stroke-width="2" d="M1338.065,-108C1338.065,-108 1194.903,-108 1194.903,-108 1188.903,-108 1182.903,-102 1182.903,-96 1182.903,-96 1182.903,-84 1182.903,-84 1182.903,-78 1188.903,-72 1194.903,-72 1194.903,-72 1338.065,-72 1338.065,-72 1344.065,-72 1350.065,-78 1350.065,-84 1350.065,-84 1350.065,-96 1350.065,-96 1350.065,-102 1344.065,-108 1338.065,-108"/>
<text text-anchor="middle" x="1266.484" y="-87" font-family="sans" font-size="10.00" fill="#000000">genome_level_methylation_summary</text>
</g>
<!-- 42 -->
<g id="node43" class="node">
<title>42</title>
<path fill="none" stroke="#569ad8" stroke-width="2" d="M943.484,-36C943.484,-36 913.484,-36 913.484,-36 907.484,-36 901.484,-30 901.484,-24 901.484,-24 901.484,-12 901.484,-12 901.484,-6 907.484,0 913.484,0 913.484,0 943.484,0 943.484,0 949.484,0 955.484,-6 955.484,-12 955.484,-12 955.484,-24 955.484,-24 955.484,-30 949.484,-36 943.484,-36"/>
<text text-anchor="middle" x="928.484" y="-15" font-family="sans" font-size="10.00" fill="#000000">all</text>
</g>
<!-- 3&#45;&gt;42 -->
<g id="edge68" class="edge">
<title>3&#45;&gt;42</title>
<path fill="none" stroke="#c0c0c0" stroke-width="2" d="M1182.9334,-72.2022C1113.4348,-57.3978 1017.773,-37.0201 965.7878,-25.9464"/>
<polygon fill="#c0c0c0" stroke="#c0c0c0" stroke-width="2" points="966.198,-22.4553 955.6883,-23.795 964.7396,-29.3017 966.198,-22.4553"/>
</g>
<!-- 4 -->
<g id="node5" class="node">
<title>4</title>
<path fill="none" stroke="#56d863" stroke-width="2" d="M1785.0911,-468C1785.0911,-468 1741.8769,-468 1741.8769,-468 1735.8769,-468 1729.8769,-462 1729.8769,-456 1729.8769,-456 1729.8769,-444 1729.8769,-444 1729.8769,-438 1735.8769,-432 1741.8769,-432 1741.8769,-432 1785.0911,-432 1785.0911,-432 1791.0911,-432 1797.0911,-438 1797.0911,-444 1797.0911,-444 1797.0911,-456 1797.0911,-456 1797.0911,-462 1791.0911,-468 1785.0911,-468"/>
<text text-anchor="middle" x="1763.484" y="-447" font-family="sans" font-size="10.00" fill="#000000">suppdb_bam</text>
</g>
<!-- 12 -->
<g id="node13" class="node">
<title>12</title>
<path fill="none" stroke="#56c1d8" stroke-width="2" d="M1692.484,-396C1692.484,-396 1662.484,-396 1662.484,-396 1656.484,-396 1650.484,-390 1650.484,-384 1650.484,-384 1650.484,-372 1650.484,-372 1650.484,-366 1656.484,-360 1662.484,-360 1662.484,-360 1692.484,-360 1692.484,-360 1698.484,-360 1704.484,-366 1704.484,-372 1704.484,-372 1704.484,-384 1704.484,-384 1704.484,-390 1698.484,-396 1692.484,-396"/>
<text text-anchor="middle" x="1677.484" y="-375" font-family="sans" font-size="10.00" fill="#000000">fit_reads</text>
</g>
<!-- 4&#45;&gt;12 -->
<g id="edge17" class="edge">
<title>4&#45;&gt;12</title>
<path fill="none" stroke="#c0c0c0" stroke-width="2" d="M1741.7826,-431.8314C1731.2919,-423.0485 1718.5385,-412.3712 1707.1646,-402.8489"/>
<polygon fill="#c0c0c0" stroke="#c0c0c0" stroke-width="2" points="1709.0929,-399.8986 1699.1785,-396.1628 1704.5993,-405.2659 1709.0929,-399.8986"/>
</g>
<!-- 37 -->
<g id="node38" class="node">
<title>37</title>
<path fill="none" stroke="#56d8c1" stroke-width="2" d="M1075.7485,-252C1075.7485,-252 1041.2195,-252 1041.2195,-252 1035.2195,-252 1029.2195,-246 1029.2195,-240 1029.2195,-240 1029.2195,-228 1029.2195,-228 1029.2195,-222 1035.2195,-216 1041.2195,-216 1041.2195,-216 1075.7485,-216 1075.7485,-216 1081.7485,-216 1087.7485,-222 1087.7485,-228 1087.7485,-228 1087.7485,-240 1087.7485,-240 1087.7485,-246 1081.7485,-252 1075.7485,-252"/>
<text text-anchor="middle" x="1058.484" y="-231" font-family="sans" font-size="10.00" fill="#000000">paired_dss</text>
</g>
<!-- 5&#45;&gt;37 -->
<g id="edge53" class="edge">
<title>5&#45;&gt;37</title>
<path fill="none" stroke="#c0c0c0" stroke-width="2" d="M1148.9506,-287.8314C1133.1195,-278.4112 1113.6261,-266.8118 1096.7932,-256.7955"/>
<polygon fill="#c0c0c0" stroke="#c0c0c0" stroke-width="2" points="1098.1389,-253.5236 1087.7554,-251.4177 1094.5593,-259.5391 1098.1389,-253.5236"/>
</g>
<!-- 6 -->
<g id="node7" class="node">
<title>6</title>
<path fill="none" stroke="#56c1d8" stroke-width="2" d="M867.484,-396C867.484,-396 837.484,-396 837.484,-396 831.484,-396 825.484,-390 825.484,-384 825.484,-384 825.484,-372 825.484,-372 825.484,-366 831.484,-360 837.484,-360 837.484,-360 867.484,-360 867.484,-360 873.484,-360 879.484,-366 879.484,-372 879.484,-372 879.484,-384 879.484,-384 879.484,-390 873.484,-396 867.484,-396"/>
<text text-anchor="middle" x="852.484" y="-375" font-family="sans" font-size="10.00" fill="#000000">fit_reads</text>
</g>
<!-- 30 -->
<g id="node31" class="node">
<title>30</title>
<path fill="none" stroke="#56d873" stroke-width="2" d="M665.474,-108C665.474,-108 613.494,-108 613.494,-108 607.494,-108 601.494,-102 601.494,-96 601.494,-96 601.494,-84 601.494,-84 601.494,-78 607.494,-72 613.494,-72 613.494,-72 665.474,-72 665.474,-72 671.474,-72 677.474,-78 677.474,-84 677.474,-84 677.474,-96 677.474,-96 677.474,-102 671.474,-108 665.474,-108"/>
<text text-anchor="middle" x="639.484" y="-87" font-family="sans" font-size="10.00" fill="#000000">visualise_dmrs</text>
</g>
<!-- 6&#45;&gt;30 -->
<g id="edge43" class="edge">
<title>6&#45;&gt;30</title>
<path fill="none" stroke="#c0c0c0" stroke-width="2" d="M841.6527,-359.9213C817.1685,-319.5912 754.8209,-219.8533 692.484,-144 684.4044,-134.1685 674.8501,-124.045 666.0942,-115.2584"/>
<polygon fill="#c0c0c0" stroke="#c0c0c0" stroke-width="2" points="668.5509,-112.7655 658.977,-108.2278 663.6316,-117.7455 668.5509,-112.7655"/>
</g>
<!-- 39 -->
<g id="node40" class="node">
<title>39</title>
<path fill="none" stroke="#a7d856" stroke-width="2" d="M837.8251,-108C837.8251,-108 707.1429,-108 707.1429,-108 701.1429,-108 695.1429,-102 695.1429,-96 695.1429,-96 695.1429,-84 695.1429,-84 695.1429,-78 701.1429,-72 707.1429,-72 707.1429,-72 837.8251,-72 837.8251,-72 843.8251,-72 849.8251,-78 849.8251,-84 849.8251,-84 849.8251,-96 849.8251,-96 849.8251,-102 843.8251,-108 837.8251,-108"/>
<text text-anchor="middle" x="772.484" y="-87" font-family="sans" font-size="10.00" fill="#000000">forward_cross_haplotype_analysis</text>
</g>
<!-- 6&#45;&gt;39 -->
<g id="edge59" class="edge">
<title>6&#45;&gt;39</title>
<path fill="none" stroke="#c0c0c0" stroke-width="2" d="M860.2257,-359.7113C876.541,-318.0949 909.7013,-214.4753 868.484,-144 860.8755,-130.9907 848.853,-120.8734 835.8554,-113.1006"/>
<polygon fill="#c0c0c0" stroke="#c0c0c0" stroke-width="2" points="837.1922,-109.8413 826.7435,-108.0872 833.8177,-115.9743 837.1922,-109.8413"/>
</g>
<!-- 7 -->
<g id="node8" class="node">
<title>7</title>
<path fill="none" stroke="#56a2d8" stroke-width="2" d="M615.477,-324C615.477,-324 493.491,-324 493.491,-324 487.491,-324 481.491,-318 481.491,-312 481.491,-312 481.491,-300 481.491,-300 481.491,-294 487.491,-288 493.491,-288 493.491,-288 615.477,-288 615.477,-288 621.477,-288 627.477,-294 627.477,-300 627.477,-300 627.477,-312 627.477,-312 627.477,-318 621.477,-324 615.477,-324"/>
<text text-anchor="middle" x="554.484" y="-309" font-family="sans" font-size="10.00" fill="#000000">split_methylation_by_alignment</text>
<text text-anchor="middle" x="554.484" y="-297" font-family="sans" font-size="10.00" fill="#000000">sample: albacore_1.2.2.cast</text>
</g>
<!-- 33 -->
<g id="node34" class="node">
<title>33</title>
<path fill="none" stroke="#bed856" stroke-width="2" d="M527.6883,-252C527.6883,-252 483.2797,-252 483.2797,-252 477.2797,-252 471.2797,-246 471.2797,-240 471.2797,-240 471.2797,-228 471.2797,-228 471.2797,-222 477.2797,-216 483.2797,-216 483.2797,-216 527.6883,-216 527.6883,-216 533.6883,-216 539.6883,-222 539.6883,-228 539.6883,-228 539.6883,-240 539.6883,-240 539.6883,-246 533.6883,-252 527.6883,-252"/>
<text text-anchor="middle" x="505.484" y="-231" font-family="sans" font-size="10.00" fill="#000000">sort_by_read</text>
</g>
<!-- 7&#45;&gt;33 -->
<g id="edge48" class="edge">
<title>7&#45;&gt;33</title>
<path fill="none" stroke="#c0c0c0" stroke-width="2" d="M542.1192,-287.8314C536.5331,-279.6232 529.821,-269.7606 523.6768,-260.7323"/>
<polygon fill="#c0c0c0" stroke="#c0c0c0" stroke-width="2" points="526.535,-258.7112 518.0153,-252.4133 520.748,-262.6496 526.535,-258.7112"/>
</g>
<!-- 8 -->
<g id="node9" class="node">
<title>8</title>
<path fill="none" stroke="#d89556" stroke-width="2" d="M847.9007,-180C847.9007,-180 751.0673,-180 751.0673,-180 745.0673,-180 739.0673,-174 739.0673,-168 739.0673,-168 739.0673,-156 739.0673,-156 739.0673,-150 745.0673,-144 751.0673,-144 751.0673,-144 847.9007,-144 847.9007,-144 853.9007,-144 859.9007,-150 859.9007,-156 859.9007,-156 859.9007,-168 859.9007,-168 859.9007,-174 853.9007,-180 847.9007,-180"/>
<text text-anchor="middle" x="799.484" y="-159" font-family="sans" font-size="10.00" fill="#000000">merge_bisulfite_genome1</text>
</g>
<!-- 8&#45;&gt;30 -->
<g id="edge39" class="edge">
<title>8&#45;&gt;30</title>
<path fill="none" stroke="#c0c0c0" stroke-width="2" d="M759.1092,-143.8314C737.1406,-133.9455 709.8385,-121.6595 686.8662,-111.322"/>
<polygon fill="#c0c0c0" stroke="#c0c0c0" stroke-width="2" points="688.1983,-108.0834 677.6428,-107.1715 685.3257,-114.4669 688.1983,-108.0834"/>
</g>
<!-- 9&#45;&gt;42 -->
<g id="edge67" class="edge">
<title>9&#45;&gt;42</title>
<path fill="none" stroke="#c0c0c0" stroke-width="2" d="M583.2709,-74.0986C586.3797,-73.3576 589.4657,-72.6522 592.484,-72 700.0283,-48.7625 828.9114,-30.7574 891.1773,-22.6689"/>
<polygon fill="#c0c0c0" stroke="#c0c0c0" stroke-width="2" points="891.8268,-26.1143 901.2979,-21.3656 890.9327,-19.1716 891.8268,-26.1143"/>
</g>
<!-- 10 -->
<g id="node11" class="node">
<title>10</title>
<path fill="none" stroke="#56d863" stroke-width="2" d="M828.0911,-468C828.0911,-468 784.8769,-468 784.8769,-468 778.8769,-468 772.8769,-462 772.8769,-456 772.8769,-456 772.8769,-444 772.8769,-444 772.8769,-438 778.8769,-432 784.8769,-432 784.8769,-432 828.0911,-432 828.0911,-432 834.0911,-432 840.0911,-438 840.0911,-444 840.0911,-444 840.0911,-456 840.0911,-456 840.0911,-462 834.0911,-468 828.0911,-468"/>
<text text-anchor="middle" x="806.484" y="-447" font-family="sans" font-size="10.00" fill="#000000">suppdb_bam</text>
</g>
<!-- 10&#45;&gt;6 -->
<g id="edge10" class="edge">
<title>10&#45;&gt;6</title>
<path fill="none" stroke="#c0c0c0" stroke-width="2" d="M818.0917,-431.8314C823.2818,-423.7079 829.5072,-413.9637 835.2265,-405.0118"/>
<polygon fill="#c0c0c0" stroke="#c0c0c0" stroke-width="2" points="838.2855,-406.7246 840.72,-396.4133 832.3866,-402.9559 838.2855,-406.7246"/>
</g>
<!-- 11 -->
<g id="node12" class="node">
<title>11</title>
<path fill="none" stroke="#56c9d8" stroke-width="2" d="M1354.6076,-324C1354.6076,-324 1266.3604,-324 1266.3604,-324 1260.3604,-324 1254.3604,-318 1254.3604,-312 1254.3604,-312 1254.3604,-300 1254.3604,-300 1254.3604,-294 1260.3604,-288 1266.3604,-288 1266.3604,-288 1354.6076,-288 1354.6076,-288 1360.6076,-288 1366.6076,-294 1366.6076,-300 1366.6076,-300 1366.6076,-312 1366.6076,-312 1366.6076,-318 1360.6076,-324 1354.6076,-324"/>
<text text-anchor="middle" x="1310.484" y="-303" font-family="sans" font-size="10.00" fill="#000000">calculate_meth_alt_freq</text>
</g>
<!-- 11&#45;&gt;37 -->
<g id="edge54" class="edge">
<title>11&#45;&gt;37</title>
<path fill="none" stroke="#c0c0c0" stroke-width="2" d="M1254.3347,-290.606C1251.0034,-289.7178 1247.7008,-288.8435 1244.484,-288 1181.0885,-271.377 1163.6639,-272.7116 1101.484,-252 1100.0923,-251.5364 1098.6822,-251.0483 1097.2631,-250.5414"/>
<polygon fill="#c0c0c0" stroke="#c0c0c0" stroke-width="2" points="1098.4619,-247.2528 1087.8704,-246.9847 1095.983,-253.7992 1098.4619,-247.2528"/>
</g>
<!-- 18 -->
<g id="node19" class="node">
<title>18</title>
<path fill="none" stroke="#d6d856" stroke-width="2" d="M1783.544,-108C1783.544,-108 1655.424,-108 1655.424,-108 1649.424,-108 1643.424,-102 1643.424,-96 1643.424,-96 1643.424,-84 1643.424,-84 1643.424,-78 1649.424,-72 1655.424,-72 1655.424,-72 1783.544,-72 1783.544,-72 1789.544,-72 1795.544,-78 1795.544,-84 1795.544,-84 1795.544,-96 1795.544,-96 1795.544,-102 1789.544,-108 1783.544,-108"/>
<text text-anchor="middle" x="1719.484" y="-87" font-family="sans" font-size="10.00" fill="#000000">reverse_cross_haplotype_analysis</text>
</g>
<!-- 12&#45;&gt;18 -->
<g id="edge31" class="edge">
<title>12&#45;&gt;18</title>
<path fill="none" stroke="#c0c0c0" stroke-width="2" d="M1680.1113,-359.9843C1687.212,-311.2939 1706.8262,-176.7961 1715.3923,-118.0573"/>
<polygon fill="#c0c0c0" stroke="#c0c0c0" stroke-width="2" points="1718.8779,-118.4093 1716.8577,-108.0089 1711.9512,-117.3991 1718.8779,-118.4093"/>
</g>
<!-- 12&#45;&gt;30 -->
<g id="edge41" class="edge">
<title>12&#45;&gt;30</title>
<path fill="none" stroke="#c0c0c0" stroke-width="2" d="M1651.2279,-359.8784C1618.9838,-338.6521 1561.8592,-304.3186 1507.484,-288 1347.9647,-240.1266 1286.0576,-321.0196 1134.484,-252 1113.3113,-242.3589 1116.6028,-227.682 1096.484,-216 1048.6993,-188.2537 1030.1669,-196.6658 977.484,-180 928.8416,-164.6123 917.8249,-156.9747 868.484,-144 791.8539,-123.8494 767.6023,-130.2627 687.5632,-108.0448"/>
<polygon fill="#c0c0c0" stroke="#c0c0c0" stroke-width="2" points="688.0945,-104.5573 677.5185,-105.1897 686.1805,-111.2905 688.0945,-104.5573"/>
</g>
<!-- 13 -->
<g id="node14" class="node">
<title>13</title>
<path fill="none" stroke="#d8b456" stroke-width="2" d="M977.0129,-108C977.0129,-108 879.9551,-108 879.9551,-108 873.9551,-108 867.9551,-102 867.9551,-96 867.9551,-96 867.9551,-84 867.9551,-84 867.9551,-78 873.9551,-72 879.9551,-72 879.9551,-72 977.0129,-72 977.0129,-72 983.0129,-72 989.0129,-78 989.0129,-84 989.0129,-84 989.0129,-96 989.0129,-96 989.0129,-102 983.0129,-108 977.0129,-108"/>
<text text-anchor="middle" x="928.484" y="-87" font-family="sans" font-size="10.00" fill="#000000">rnaseq_analysis_notebook</text>
</g>
<!-- 13&#45;&gt;42 -->
<g id="edge66" class="edge">
<title>13&#45;&gt;42</title>
<path fill="none" stroke="#c0c0c0" stroke-width="2" d="M928.484,-71.8314C928.484,-64.131 928.484,-54.9743 928.484,-46.4166"/>
<polygon fill="#c0c0c0" stroke="#c0c0c0" stroke-width="2" points="931.9841,-46.4132 928.484,-36.4133 924.9841,-46.4133 931.9841,-46.4132"/>
</g>
<!-- 14 -->
<g id="node15" class="node">
<title>14</title>
<path fill="none" stroke="#56d863" stroke-width="2" d="M441.0911,-252C441.0911,-252 397.8769,-252 397.8769,-252 391.8769,-252 385.8769,-246 385.8769,-240 385.8769,-240 385.8769,-228 385.8769,-228 385.8769,-222 391.8769,-216 397.8769,-216 397.8769,-216 441.0911,-216 441.0911,-216 447.0911,-216 453.0911,-222 453.0911,-228 453.0911,-228 453.0911,-240 453.0911,-240 453.0911,-246 447.0911,-252 441.0911,-252"/>
<text text-anchor="middle" x="419.484" y="-231" font-family="sans" font-size="10.00" fill="#000000">suppdb_bam</text>
</g>
<!-- 14&#45;&gt;2 -->
<g id="edge4" class="edge">
<title>14&#45;&gt;2</title>
<path fill="none" stroke="#c0c0c0" stroke-width="2" d="M441.1854,-215.8314C451.6761,-207.0485 464.4295,-196.3712 475.8034,-186.8489"/>
<polygon fill="#c0c0c0" stroke="#c0c0c0" stroke-width="2" points="478.3687,-189.2659 483.7895,-180.1628 473.8751,-183.8986 478.3687,-189.2659"/>
</g>
<!-- 28 -->
<g id="node29" class="node">
<title>28</title>
<path fill="none" stroke="#70d856" stroke-width="2" d="M440.1346,-108C440.1346,-108 356.8334,-108 356.8334,-108 350.8334,-108 344.8334,-102 344.8334,-96 344.8334,-96 344.8334,-84 344.8334,-84 344.8334,-78 350.8334,-72 356.8334,-72 356.8334,-72 440.1346,-72 440.1346,-72 446.1346,-72 452.1346,-78 452.1346,-84 452.1346,-84 452.1346,-96 452.1346,-96 452.1346,-102 446.1346,-108 440.1346,-108"/>
<text text-anchor="middle" x="398.484" y="-87" font-family="sans" font-size="10.00" fill="#000000">b6_haplotype_analysis</text>
</g>
<!-- 15&#45;&gt;28 -->
<g id="edge37" class="edge">
<title>15&#45;&gt;28</title>
<path fill="none" stroke="#c0c0c0" stroke-width="2" d="M316.7081,-144.0171C330.624,-134.825 347.7364,-123.5213 362.7044,-113.6342"/>
<polygon fill="#c0c0c0" stroke="#c0c0c0" stroke-width="2" points="364.8142,-116.4353 371.2292,-108.0032 360.9561,-110.5945 364.8142,-116.4353"/>
</g>
<!-- 15&#45;&gt;34 -->
<g id="edge49" class="edge">
<title>15&#45;&gt;34</title>
<path fill="none" stroke="#c0c0c0" stroke-width="2" d="M289.484,-143.8314C289.484,-136.131 289.484,-126.9743 289.484,-118.4166"/>
<polygon fill="#c0c0c0" stroke="#c0c0c0" stroke-width="2" points="292.9841,-118.4132 289.484,-108.4133 285.9841,-118.4133 292.9841,-118.4132"/>
</g>
<!-- 16 -->
<g id="node17" class="node">
<title>16</title>
<path fill="none" stroke="#d8bc56" stroke-width="2" d="M1054.3097,-180C1054.3097,-180 998.6583,-180 998.6583,-180 992.6583,-180 986.6583,-174 986.6583,-168 986.6583,-168 986.6583,-156 986.6583,-156 986.6583,-150 992.6583,-144 998.6583,-144 998.6583,-144 1054.3097,-144 1054.3097,-144 1060.3097,-144 1066.3097,-150 1066.3097,-156 1066.3097,-156 1066.3097,-168 1066.3097,-168 1066.3097,-174 1060.3097,-180 1054.3097,-180"/>
<text text-anchor="middle" x="1026.484" y="-159" font-family="sans" font-size="10.00" fill="#000000">notebook_setup</text>
</g>
<!-- 16&#45;&gt;3 -->
<g id="edge7" class="edge">
<title>16&#45;&gt;3</title>
<path fill="none" stroke="#c0c0c0" stroke-width="2" d="M1066.2386,-148.5523C1071.0296,-146.9897 1075.8611,-145.4409 1080.484,-144 1117.1521,-132.5707 1158.1282,-120.59 1192.2679,-110.8255"/>
<polygon fill="#c0c0c0" stroke="#c0c0c0" stroke-width="2" points="1193.5112,-114.1105 1202.1673,-108.0013 1191.5908,-107.3791 1193.5112,-114.1105"/>
</g>
<!-- 16&#45;&gt;9 -->
<g id="edge13" class="edge">
<title>16&#45;&gt;9</title>
<path fill="none" stroke="#c0c0c0" stroke-width="2" d="M986.5843,-157.365C892.2825,-146.3659 659.1961,-118.9067 593.2488,-107.8405"/>
<polygon fill="#c0c0c0" stroke="#c0c0c0" stroke-width="2" points="593.7071,-104.3667 583.2439,-106.0316 592.4616,-111.255 593.7071,-104.3667"/>
</g>
<!-- 16&#45;&gt;13 -->
<g id="edge20" class="edge">
<title>16&#45;&gt;13</title>
<path fill="none" stroke="#c0c0c0" stroke-width="2" d="M1001.7545,-143.8314C989.5678,-134.8779 974.7017,-123.9558 961.5528,-114.2955"/>
<polygon fill="#c0c0c0" stroke="#c0c0c0" stroke-width="2" points="963.3367,-111.263 953.2056,-108.1628 959.1922,-116.9042 963.3367,-111.263"/>
</g>
<!-- 16&#45;&gt;18 -->
<g id="edge30" class="edge">
<title>16&#45;&gt;18</title>
<path fill="none" stroke="#c0c0c0" stroke-width="2" d="M1066.1574,-160.1293C1161.975,-155.2582 1413.6981,-140.3561 1633.0182,-108.1245"/>
<polygon fill="#c0c0c0" stroke="#c0c0c0" stroke-width="2" points="1633.7297,-111.5573 1643.107,-106.626 1632.7013,-104.6332 1633.7297,-111.5573"/>
</g>
<!-- 25 -->
<g id="node26" class="node">
<title>25</title>
<path fill="none" stroke="#88d856" stroke-width="2" d="M1153.1374,-108C1153.1374,-108 1019.8306,-108 1019.8306,-108 1013.8306,-108 1007.8306,-102 1007.8306,-96 1007.8306,-96 1007.8306,-84 1007.8306,-84 1007.8306,-78 1013.8306,-72 1019.8306,-72 1019.8306,-72 1153.1374,-72 1153.1374,-72 1159.1374,-72 1165.1374,-78 1165.1374,-84 1165.1374,-84 1165.1374,-96 1165.1374,-96 1165.1374,-102 1159.1374,-108 1153.1374,-108"/>
<text text-anchor="middle" x="1086.484" y="-87" font-family="sans" font-size="10.00" fill="#000000">nanopolish_methylation_validation</text>
</g>
<!-- 16&#45;&gt;25 -->
<g id="edge36" class="edge">
<title>16&#45;&gt;25</title>
<path fill="none" stroke="#c0c0c0" stroke-width="2" d="M1041.6245,-143.8314C1048.6057,-135.454 1057.0231,-125.3531 1064.6716,-116.1749"/>
<polygon fill="#c0c0c0" stroke="#c0c0c0" stroke-width="2" points="1067.4265,-118.3362 1071.1396,-108.4133 1062.0489,-113.8548 1067.4265,-118.3362"/>
</g>
<!-- 16&#45;&gt;28 -->
<g id="edge38" class="edge">
<title>16&#45;&gt;28</title>
<path fill="none" stroke="#c0c0c0" stroke-width="2" d="M986.5786,-157.1698C954.6518,-153.3739 908.7247,-148.0669 868.484,-144 690.6408,-126.0266 641.1827,-140.9744 462.4361,-108.1925"/>
<polygon fill="#c0c0c0" stroke="#c0c0c0" stroke-width="2" points="462.9083,-104.7204 452.437,-106.3341 461.6291,-111.6025 462.9083,-104.7204"/>
</g>
<!-- 16&#45;&gt;30 -->
<g id="edge40" class="edge">
<title>16&#45;&gt;30</title>
<path fill="none" stroke="#c0c0c0" stroke-width="2" d="M986.752,-156.1655C909.0027,-144.684 740.3392,-119.4405 687.2273,-107.6755"/>
<polygon fill="#c0c0c0" stroke="#c0c0c0" stroke-width="2" points="688.027,-104.268 677.484,-105.3141 686.3782,-111.0711 688.027,-104.268"/>
</g>
<!-- 16&#45;&gt;39 -->
<g id="edge58" class="edge">
<title>16&#45;&gt;39</title>
<path fill="none" stroke="#c0c0c0" stroke-width="2" d="M986.7965,-150.75C949.1511,-140.0789 891.6677,-123.7843 845.7083,-110.7565"/>
<polygon fill="#c0c0c0" stroke="#c0c0c0" stroke-width="2" points="846.6628,-107.3892 836.0873,-108.0293 844.7537,-114.1239 846.6628,-107.3892"/>
</g>
<!-- 40 -->
<g id="node41" class="node">
<title>40</title>
<path fill="none" stroke="#56d8d8" stroke-width="2" d="M1613.441,-108C1613.441,-108 1481.527,-108 1481.527,-108 1475.527,-108 1469.527,-102 1469.527,-96 1469.527,-96 1469.527,-84 1469.527,-84 1469.527,-78 1475.527,-72 1481.527,-72 1481.527,-72 1613.441,-72 1613.441,-72 1619.441,-72 1625.441,-78 1625.441,-84 1625.441,-84 1625.441,-96 1625.441,-96 1625.441,-102 1619.441,-108 1613.441,-108"/>
<text text-anchor="middle" x="1547.484" y="-87" font-family="sans" font-size="10.00" fill="#000000">differential_methylation_heatmaps</text>
</g>
<!-- 16&#45;&gt;40 -->
<g id="edge61" class="edge">
<title>16&#45;&gt;40</title>
<path fill="none" stroke="#c0c0c0" stroke-width="2" d="M1066.3091,-147.602C1071.0438,-146.2253 1075.8429,-144.98 1080.484,-144 1243.3081,-109.6181 1290.9194,-132.3204 1459.3543,-108.0634"/>
<polygon fill="#c0c0c0" stroke="#c0c0c0" stroke-width="2" points="1459.9194,-111.5181 1469.3019,-106.5969 1458.8984,-104.5929 1459.9194,-111.5181"/>
</g>
<!-- 52 -->
<g id="node53" class="node">
<title>52</title>
<path fill="none" stroke="#56d8c9" stroke-width="2" d="M1439.2463,-108C1439.2463,-108 1379.7217,-108 1379.7217,-108 1373.7217,-108 1367.7217,-102 1367.7217,-96 1367.7217,-96 1367.7217,-84 1367.7217,-84 1367.7217,-78 1373.7217,-72 1379.7217,-72 1379.7217,-72 1439.2463,-72 1439.2463,-72 1445.2463,-72 1451.2463,-78 1451.2463,-84 1451.2463,-84 1451.2463,-96 1451.2463,-96 1451.2463,-102 1445.2463,-108 1439.2463,-108"/>
<text text-anchor="middle" x="1409.484" y="-87" font-family="sans" font-size="10.00" fill="#000000">dmr_comparison</text>
</g>
<!-- 16&#45;&gt;52 -->
<g id="edge77" class="edge">
<title>16&#45;&gt;52</title>
<path fill="none" stroke="#c0c0c0" stroke-width="2" d="M1066.3433,-147.7574C1071.0719,-146.3528 1075.8602,-145.0585 1080.484,-144 1199.146,-116.8366 1236.0124,-136.2614 1357.6051,-108.1848"/>
<polygon fill="#c0c0c0" stroke="#c0c0c0" stroke-width="2" points="1358.7508,-111.5102 1367.6735,-105.7974 1357.1357,-104.6991 1358.7508,-111.5102"/>
</g>
<!-- 17 -->
<g id="node18" class="node">
<title>17</title>
<path fill="none" stroke="#56b1d8" stroke-width="2" d="M1448.4197,-396C1448.4197,-396 1326.5483,-396 1326.5483,-396 1320.5483,-396 1314.5483,-390 1314.5483,-384 1314.5483,-384 1314.5483,-372 1314.5483,-372 1314.5483,-366 1320.5483,-360 1326.5483,-360 1326.5483,-360 1448.4197,-360 1448.4197,-360 1454.4197,-360 1460.4197,-366 1460.4197,-372 1460.4197,-372 1460.4197,-384 1460.4197,-384 1460.4197,-390 1454.4197,-396 1448.4197,-396"/>
<text text-anchor="middle" x="1387.484" y="-375" font-family="sans" font-size="10.00" fill="#000000">split_methylation_by_haplotype</text>
</g>
<!-- 17&#45;&gt;11 -->
<g id="edge16" class="edge">
<title>17&#45;&gt;11</title>
<path fill="none" stroke="#c0c0c0" stroke-width="2" d="M1368.0536,-359.8314C1358.752,-351.1337 1347.4636,-340.5783 1337.3554,-331.1265"/>
<polygon fill="#c0c0c0" stroke="#c0c0c0" stroke-width="2" points="1339.6029,-328.4363 1329.9081,-324.1628 1334.8219,-333.5493 1339.6029,-328.4363"/>
</g>
<!-- 21 -->
<g id="node22" class="node">
<title>21</title>
<path fill="none" stroke="#56d8b1" stroke-width="2" d="M1486.2073,-324C1486.2073,-324 1396.7607,-324 1396.7607,-324 1390.7607,-324 1384.7607,-318 1384.7607,-312 1384.7607,-312 1384.7607,-300 1384.7607,-300 1384.7607,-294 1390.7607,-288 1396.7607,-288 1396.7607,-288 1486.2073,-288 1486.2073,-288 1492.2073,-288 1498.2073,-294 1498.2073,-300 1498.2073,-300 1498.2073,-312 1498.2073,-312 1498.2073,-318 1492.2073,-324 1486.2073,-324"/>
<text text-anchor="middle" x="1441.484" y="-303" font-family="sans" font-size="10.00" fill="#000000">calculate_meth_ref_freq</text>
</g>
<!-- 17&#45;&gt;21 -->
<g id="edge32" class="edge">
<title>17&#45;&gt;21</title>
<path fill="none" stroke="#c0c0c0" stroke-width="2" d="M1401.1105,-359.8314C1407.33,-351.5386 1414.8162,-341.557 1421.644,-332.4533"/>
<polygon fill="#c0c0c0" stroke="#c0c0c0" stroke-width="2" points="1424.474,-334.5133 1427.674,-324.4133 1418.874,-330.3133 1424.474,-334.5133"/>
</g>
<!-- 18&#45;&gt;42 -->
<g id="edge71" class="edge">
<title>18&#45;&gt;42</title>
<path fill="none" stroke="#c0c0c0" stroke-width="2" d="M1643.1135,-73.3294C1640.205,-72.8528 1637.3209,-72.4071 1634.484,-72 1380.3792,-35.5403 1071.0498,-22.6306 965.6803,-19.111"/>
<polygon fill="#c0c0c0" stroke="#c0c0c0" stroke-width="2" points="965.665,-15.6087 955.5563,-18.781 965.4369,-22.605 965.665,-15.6087"/>
</g>
<!-- 19 -->
<g id="node20" class="node">
<title>19</title>
<path fill="none" stroke="#56a2d8" stroke-width="2" d="M1113.477,-540C1113.477,-540 991.491,-540 991.491,-540 985.491,-540 979.491,-534 979.491,-528 979.491,-528 979.491,-516 979.491,-516 979.491,-510 985.491,-504 991.491,-504 991.491,-504 1113.477,-504 1113.477,-504 1119.477,-504 1125.477,-510 1125.477,-516 1125.477,-516 1125.477,-528 1125.477,-528 1125.477,-534 1119.477,-540 1113.477,-540"/>
<text text-anchor="middle" x="1052.484" y="-525" font-family="sans" font-size="10.00" fill="#000000">split_methylation_by_alignment</text>
<text text-anchor="middle" x="1052.484" y="-513" font-family="sans" font-size="10.00" fill="#000000">sample: albacore_1.2.2.b6xcast</text>
</g>
<!-- 35 -->
<g id="node36" class="node">
<title>35</title>
<path fill="none" stroke="#bed856" stroke-width="2" d="M914.6883,-468C914.6883,-468 870.2797,-468 870.2797,-468 864.2797,-468 858.2797,-462 858.2797,-456 858.2797,-456 858.2797,-444 858.2797,-444 858.2797,-438 864.2797,-432 870.2797,-432 870.2797,-432 914.6883,-432 914.6883,-432 920.6883,-432 926.6883,-438 926.6883,-444 926.6883,-444 926.6883,-456 926.6883,-456 926.6883,-462 920.6883,-468 914.6883,-468"/>
<text text-anchor="middle" x="892.484" y="-447" font-family="sans" font-size="10.00" fill="#000000">sort_by_read</text>
</g>
<!-- 19&#45;&gt;35 -->
<g id="edge51" class="edge">
<title>19&#45;&gt;35</title>
<path fill="none" stroke="#c0c0c0" stroke-width="2" d="M1012.1092,-503.8314C988.8171,-493.3499 959.5294,-480.1704 935.7634,-469.4757"/>
<polygon fill="#c0c0c0" stroke="#c0c0c0" stroke-width="2" points="937.1734,-466.2722 926.6179,-465.3603 934.3008,-472.6557 937.1734,-466.2722"/>
</g>
<!-- 48 -->
<g id="node49" class="node">
<title>48</title>
<path fill="none" stroke="#ced856" stroke-width="2" d="M1156.8671,-468C1156.8671,-468 1116.1009,-468 1116.1009,-468 1110.1009,-468 1104.1009,-462 1104.1009,-456 1104.1009,-456 1104.1009,-444 1104.1009,-444 1104.1009,-438 1110.1009,-432 1116.1009,-432 1116.1009,-432 1156.8671,-432 1156.8671,-432 1162.8671,-432 1168.8671,-438 1168.8671,-444 1168.8671,-444 1168.8671,-456 1168.8671,-456 1168.8671,-462 1162.8671,-468 1156.8671,-468"/>
<text text-anchor="middle" x="1136.484" y="-447" font-family="sans" font-size="10.00" fill="#000000">sort_by_site</text>
</g>
<!-- 19&#45;&gt;48 -->
<g id="edge74" class="edge">
<title>19&#45;&gt;48</title>
<path fill="none" stroke="#c0c0c0" stroke-width="2" d="M1073.6807,-503.8314C1083.9274,-495.0485 1096.3843,-484.3712 1107.4937,-474.8489"/>
<polygon fill="#c0c0c0" stroke="#c0c0c0" stroke-width="2" points="1109.9792,-477.3282 1115.294,-468.1628 1105.4237,-472.0134 1109.9792,-477.3282"/>
</g>
<!-- 20 -->
<g id="node21" class="node">
<title>20</title>
<path fill="none" stroke="#56d89a" stroke-width="2" d="M864.9988,-540C864.9988,-540 747.9692,-540 747.9692,-540 741.9692,-540 735.9692,-534 735.9692,-528 735.9692,-528 735.9692,-516 735.9692,-516 735.9692,-510 741.9692,-504 747.9692,-504 747.9692,-504 864.9988,-504 864.9988,-504 870.9988,-504 876.9988,-510 876.9988,-516 876.9988,-516 876.9988,-528 876.9988,-528 876.9988,-534 870.9988,-540 864.9988,-540"/>
<text text-anchor="middle" x="806.484" y="-525" font-family="sans" font-size="10.00" fill="#000000">samtools_index_bam</text>
<text text-anchor="middle" x="806.484" y="-513" font-family="sans" font-size="10.00" fill="#000000">sample: albacore_1.2.2.b6xcast</text>
</g>
<!-- 20&#45;&gt;10 -->
<g id="edge15" class="edge">
<title>20&#45;&gt;10</title>
<path fill="none" stroke="#c0c0c0" stroke-width="2" d="M806.484,-503.8314C806.484,-496.131 806.484,-486.9743 806.484,-478.4166"/>
<polygon fill="#c0c0c0" stroke="#c0c0c0" stroke-width="2" points="809.9841,-478.4132 806.484,-468.4133 802.9841,-478.4133 809.9841,-478.4132"/>
</g>
<!-- 21&#45;&gt;37 -->
<g id="edge55" class="edge">
<title>21&#45;&gt;37</title>
<path fill="none" stroke="#c0c0c0" stroke-width="2" d="M1384.7191,-289.9935C1381.6046,-289.2796 1378.5114,-288.6088 1375.484,-288 1255.0701,-263.7857 1220.0677,-283.9957 1101.484,-252 1100.2534,-251.668 1099.0114,-251.3086 1097.7641,-250.9267"/>
<polygon fill="#c0c0c0" stroke="#c0c0c0" stroke-width="2" points="1098.7941,-247.5797 1088.1994,-247.6311 1096.5138,-254.1978 1098.7941,-247.5797"/>
</g>
<!-- 22 -->
<g id="node23" class="node">
<title>22</title>
<path fill="none" stroke="#d86e56" stroke-width="2" d="M671.9007,-180C671.9007,-180 575.0673,-180 575.0673,-180 569.0673,-180 563.0673,-174 563.0673,-168 563.0673,-168 563.0673,-156 563.0673,-156 563.0673,-150 569.0673,-144 575.0673,-144 575.0673,-144 671.9007,-144 671.9007,-144 677.9007,-144 683.9007,-150 683.9007,-156 683.9007,-156 683.9007,-168 683.9007,-168 683.9007,-174 677.9007,-180 671.9007,-180"/>
<text text-anchor="middle" x="623.484" y="-159" font-family="sans" font-size="10.00" fill="#000000">merge_bisulfite_genome2</text>
</g>
<!-- 22&#45;&gt;30 -->
<g id="edge42" class="edge">
<title>22&#45;&gt;30</title>
<path fill="none" stroke="#c0c0c0" stroke-width="2" d="M627.5215,-143.8314C629.2327,-136.131 631.2675,-126.9743 633.1692,-118.4166"/>
<polygon fill="#c0c0c0" stroke="#c0c0c0" stroke-width="2" points="636.6394,-118.9344 635.3922,-108.4133 629.8061,-117.4159 636.6394,-118.9344"/>
</g>
<!-- 23 -->
<g id="node24" class="node">
<title>23</title>
<path fill="none" stroke="#56d8a2" stroke-width="2" d="M1033.1185,-396C1033.1185,-396 909.8495,-396 909.8495,-396 903.8495,-396 897.8495,-390 897.8495,-384 897.8495,-384 897.8495,-372 897.8495,-372 897.8495,-366 903.8495,-360 909.8495,-360 909.8495,-360 1033.1185,-360 1033.1185,-360 1039.1185,-360 1045.1185,-366 1045.1185,-372 1045.1185,-372 1045.1185,-384 1045.1185,-384 1045.1185,-390 1039.1185,-396 1033.1185,-396"/>
<text text-anchor="middle" x="971.484" y="-375" font-family="sans" font-size="10.00" fill="#000000">compare_haplotype_methylation</text>
</g>
<!-- 23&#45;&gt;40 -->
<g id="edge60" class="edge">
<title>23&#45;&gt;40</title>
<path fill="none" stroke="#c0c0c0" stroke-width="2" d="M970.7877,-359.9798C970.5561,-325.5743 975.565,-250.8567 1020.484,-216 1037.9542,-202.4433 1314.1358,-140.812 1459.5099,-109.0514"/>
<polygon fill="#c0c0c0" stroke="#c0c0c0" stroke-width="2" points="1460.2952,-112.4625 1469.3188,-106.9104 1458.8024,-105.6235 1460.2952,-112.4625"/>
</g>
<!-- 24 -->
<g id="node25" class="node">
<title>24</title>
<path fill="none" stroke="#97d856" stroke-width="2" d="M1403.8641,-252C1403.8641,-252 1333.1039,-252 1333.1039,-252 1327.1039,-252 1321.1039,-246 1321.1039,-240 1321.1039,-240 1321.1039,-228 1321.1039,-228 1321.1039,-222 1327.1039,-216 1333.1039,-216 1333.1039,-216 1403.8641,-216 1403.8641,-216 1409.8641,-216 1415.8641,-222 1415.8641,-228 1415.8641,-228 1415.8641,-240 1415.8641,-240 1415.8641,-246 1409.8641,-252 1403.8641,-252"/>
<text text-anchor="middle" x="1368.484" y="-231" font-family="sans" font-size="10.00" fill="#000000">ensembl_gtf_to_tsv</text>
</g>
<!-- 24&#45;&gt;16 -->
<g id="edge25" class="edge">
<title>24&#45;&gt;16</title>
<path fill="none" stroke="#c0c0c0" stroke-width="2" d="M1321.0034,-220.6055C1314.7915,-218.9841 1308.4977,-217.4064 1302.484,-216 1223.9359,-197.6307 1131.8167,-180.48 1076.3597,-170.626"/>
<polygon fill="#c0c0c0" stroke="#c0c0c0" stroke-width="2" points="1076.8995,-167.1673 1066.4428,-168.8723 1075.6805,-174.0603 1076.8995,-167.1673"/>
</g>
<!-- 24&#45;&gt;52 -->
<g id="edge76" class="edge">
<title>24&#45;&gt;52</title>
<path fill="none" stroke="#c0c0c0" stroke-width="2" d="M1373.6767,-215.7623C1380.7006,-191.0928 1393.2948,-146.8598 1401.5194,-117.9731"/>
<polygon fill="#c0c0c0" stroke="#c0c0c0" stroke-width="2" points="1404.9612,-118.6658 1404.3335,-108.0896 1398.2288,-116.7489 1404.9612,-118.6658"/>
</g>
<!-- 25&#45;&gt;42 -->
<g id="edge69" class="edge">
<title>25&#45;&gt;42</title>
<path fill="none" stroke="#c0c0c0" stroke-width="2" d="M1046.6139,-71.8314C1021.5953,-60.4305 989.5718,-45.8375 965.1799,-34.7222"/>
<polygon fill="#c0c0c0" stroke="#c0c0c0" stroke-width="2" points="966.4551,-31.457 955.904,-30.4952 963.5523,-37.8268 966.4551,-31.457"/>
</g>
<!-- 26 -->
<g id="node27" class="node">
<title>26</title>
<path fill="none" stroke="#56d89a" stroke-width="2" d="M451.4989,-324C451.4989,-324 349.4691,-324 349.4691,-324 343.4691,-324 337.4691,-318 337.4691,-312 337.4691,-312 337.4691,-300 337.4691,-300 337.4691,-294 343.4691,-288 349.4691,-288 349.4691,-288 451.4989,-288 451.4989,-288 457.4989,-288 463.4989,-294 463.4989,-300 463.4989,-300 463.4989,-312 463.4989,-312 463.4989,-318 457.4989,-324 451.4989,-324"/>
<text text-anchor="middle" x="400.484" y="-309" font-family="sans" font-size="10.00" fill="#000000">samtools_index_bam</text>
<text text-anchor="middle" x="400.484" y="-297" font-family="sans" font-size="10.00" fill="#000000">sample: albacore_1.2.2.cast</text>
</g>
<!-- 26&#45;&gt;14 -->
<g id="edge21" class="edge">
<title>26&#45;&gt;14</title>
<path fill="none" stroke="#c0c0c0" stroke-width="2" d="M405.2785,-287.8314C407.3329,-280.0463 409.78,-270.7729 412.0596,-262.1347"/>
<polygon fill="#c0c0c0" stroke="#c0c0c0" stroke-width="2" points="415.4575,-262.9753 414.6249,-252.4133 408.6892,-261.1892 415.4575,-262.9753"/>
</g>
<!-- 27 -->
<g id="node28" class="node">
<title>27</title>
<path fill="none" stroke="#56a2d8" stroke-width="2" d="M1553.603,-540C1553.603,-540 1387.365,-540 1387.365,-540 1381.365,-540 1375.365,-534 1375.365,-528 1375.365,-528 1375.365,-516 1375.365,-516 1375.365,-510 1381.365,-504 1387.365,-504 1387.365,-504 1553.603,-504 1553.603,-504 1559.603,-504 1565.603,-510 1565.603,-516 1565.603,-516 1565.603,-528 1565.603,-528 1565.603,-534 1559.603,-540 1553.603,-540"/>
<text text-anchor="middle" x="1470.484" y="-525" font-family="sans" font-size="10.00" fill="#000000">split_methylation_by_alignment</text>
<text text-anchor="middle" x="1470.484" y="-513" font-family="sans" font-size="10.00" fill="#000000">sample: albacore_2.2.7.castxb6.promethion</text>
</g>
<!-- 36 -->
<g id="node37" class="node">
<title>36</title>
<path fill="none" stroke="#bed856" stroke-width="2" d="M1699.6883,-468C1699.6883,-468 1655.2797,-468 1655.2797,-468 1649.2797,-468 1643.2797,-462 1643.2797,-456 1643.2797,-456 1643.2797,-444 1643.2797,-444 1643.2797,-438 1649.2797,-432 1655.2797,-432 1655.2797,-432 1699.6883,-432 1699.6883,-432 1705.6883,-432 1711.6883,-438 1711.6883,-444 1711.6883,-444 1711.6883,-456 1711.6883,-456 1711.6883,-462 1705.6883,-468 1699.6883,-468"/>
<text text-anchor="middle" x="1677.484" y="-447" font-family="sans" font-size="10.00" fill="#000000">sort_by_read</text>
</g>
<!-- 27&#45;&gt;36 -->
<g id="edge52" class="edge">
<title>27&#45;&gt;36</title>
<path fill="none" stroke="#c0c0c0" stroke-width="2" d="M1528.9333,-503.9813C1558.0776,-494.7122 1593.9983,-482.8629 1633.6945,-468.1755"/>
<polygon fill="#c0c0c0" stroke="#c0c0c0" stroke-width="2" points="1635.1664,-471.3621 1643.3129,-464.5882 1632.7203,-464.8034 1635.1664,-471.3621"/>
</g>
<!-- 51 -->
<g id="node52" class="node">
<title>51</title>
<path fill="none" stroke="#ced856" stroke-width="2" d="M1404.8671,-468C1404.8671,-468 1364.1009,-468 1364.1009,-468 1358.1009,-468 1352.1009,-462 1352.1009,-456 1352.1009,-456 1352.1009,-444 1352.1009,-444 1352.1009,-438 1358.1009,-432 1364.1009,-432 1364.1009,-432 1404.8671,-432 1404.8671,-432 1410.8671,-432 1416.8671,-438 1416.8671,-444 1416.8671,-444 1416.8671,-456 1416.8671,-456 1416.8671,-462 1410.8671,-468 1404.8671,-468"/>
<text text-anchor="middle" x="1384.484" y="-447" font-family="sans" font-size="10.00" fill="#000000">sort_by_site</text>
</g>
<!-- 27&#45;&gt;51 -->
<g id="edge75" class="edge">
<title>27&#45;&gt;51</title>
<path fill="none" stroke="#c0c0c0" stroke-width="2" d="M1448.7826,-503.8314C1438.2919,-495.0485 1425.5385,-484.3712 1414.1646,-474.8489"/>
<polygon fill="#c0c0c0" stroke="#c0c0c0" stroke-width="2" points="1416.0929,-471.8986 1406.1785,-468.1628 1411.5993,-477.2659 1416.0929,-471.8986"/>
</g>
<!-- 28&#45;&gt;42 -->
<g id="edge64" class="edge">
<title>28&#45;&gt;42</title>
<path fill="none" stroke="#c0c0c0" stroke-width="2" d="M452.454,-73.7533C455.1594,-73.1207 457.8469,-72.531 460.484,-72 618.9404,-40.0911 811.6526,-25.2668 891.2984,-20.1654"/>
<polygon fill="#c0c0c0" stroke="#c0c0c0" stroke-width="2" points="891.5678,-23.6554 901.3291,-19.5364 891.1296,-16.6692 891.5678,-23.6554"/>
</g>
<!-- 29 -->
<g id="node30" class="node">
<title>29</title>
<path fill="none" stroke="#56d89a" stroke-width="2" d="M108.952,-324C108.952,-324 12.016,-324 12.016,-324 6.016,-324 .016,-318 .016,-312 .016,-312 .016,-300 .016,-300 .016,-294 6.016,-288 12.016,-288 12.016,-288 108.952,-288 108.952,-288 114.952,-288 120.952,-294 120.952,-300 120.952,-300 120.952,-312 120.952,-312 120.952,-318 114.952,-324 108.952,-324"/>
<text text-anchor="middle" x="60.484" y="-309" font-family="sans" font-size="10.00" fill="#000000">samtools_index_bam</text>
<text text-anchor="middle" x="60.484" y="-297" font-family="sans" font-size="10.00" fill="#000000">sample: albacore_1.2.2.b6</text>
</g>
<!-- 29&#45;&gt;1 -->
<g id="edge3" class="edge">
<title>29&#45;&gt;1</title>
<path fill="none" stroke="#c0c0c0" stroke-width="2" d="M68.559,-287.8314C72.0942,-279.8771 76.32,-270.369 80.2296,-261.5723"/>
<polygon fill="#c0c0c0" stroke="#c0c0c0" stroke-width="2" points="83.4372,-262.9729 84.3003,-252.4133 77.0405,-260.1299 83.4372,-262.9729"/>
</g>
<!-- 30&#45;&gt;42 -->
<g id="edge70" class="edge">
<title>30&#45;&gt;42</title>
<path fill="none" stroke="#c0c0c0" stroke-width="2" d="M677.542,-74.8899C680.5498,-73.8597 683.5558,-72.8822 686.484,-72 757.9069,-50.4806 843.5194,-33.3518 891.3868,-24.5296"/>
<polygon fill="#c0c0c0" stroke="#c0c0c0" stroke-width="2" points="892.0834,-27.9604 901.2934,-22.7234 890.8278,-21.0739 892.0834,-27.9604"/>
</g>
<!-- 31&#45;&gt;37 -->
<g id="edge56" class="edge">
<title>31&#45;&gt;37</title>
<path fill="none" stroke="#c0c0c0" stroke-width="2" d="M1051.0074,-287.8314C1052.0769,-280.131 1053.3487,-270.9743 1054.5372,-262.4166"/>
<polygon fill="#c0c0c0" stroke="#c0c0c0" stroke-width="2" points="1058.0176,-262.7997 1055.9266,-252.4133 1051.0841,-261.8367 1058.0176,-262.7997"/>
</g>
<!-- 32 -->
<g id="node33" class="node">
<title>32</title>
<path fill="none" stroke="#56d8a2" stroke-width="2" d="M1618.1185,-396C1618.1185,-396 1494.8495,-396 1494.8495,-396 1488.8495,-396 1482.8495,-390 1482.8495,-384 1482.8495,-384 1482.8495,-372 1482.8495,-372 1482.8495,-366 1488.8495,-360 1494.8495,-360 1494.8495,-360 1618.1185,-360 1618.1185,-360 1624.1185,-360 1630.1185,-366 1630.1185,-372 1630.1185,-372 1630.1185,-384 1630.1185,-384 1630.1185,-390 1624.1185,-396 1618.1185,-396"/>
<text text-anchor="middle" x="1556.484" y="-375" font-family="sans" font-size="10.00" fill="#000000">compare_haplotype_methylation</text>
</g>
<!-- 32&#45;&gt;40 -->
<g id="edge62" class="edge">
<title>32&#45;&gt;40</title>
<path fill="none" stroke="#c0c0c0" stroke-width="2" d="M1555.921,-359.9843C1554.3994,-311.2939 1550.1964,-176.7961 1548.3608,-118.0573"/>
<polygon fill="#c0c0c0" stroke="#c0c0c0" stroke-width="2" points="1551.8575,-117.8946 1548.0468,-108.0089 1544.8609,-118.1134 1551.8575,-117.8946"/>
</g>
<!-- 33&#45;&gt;2 -->
<g id="edge6" class="edge">
<title>33&#45;&gt;2</title>
<path fill="none" stroke="#c0c0c0" stroke-width="2" d="M505.484,-215.8314C505.484,-208.131 505.484,-198.9743 505.484,-190.4166"/>
<polygon fill="#c0c0c0" stroke="#c0c0c0" stroke-width="2" points="508.9841,-190.4132 505.484,-180.4133 501.9841,-190.4133 508.9841,-190.4132"/>
</g>
<!-- 34&#45;&gt;42 -->
<g id="edge72" class="edge">
<title>34&#45;&gt;42</title>
<path fill="none" stroke="#c0c0c0" stroke-width="2" d="M326.8633,-74.38C329.751,-73.4797 332.6463,-72.6701 335.484,-72 442.0875,-46.8258 778.545,-26.3268 891.2666,-20.013"/>
<polygon fill="#c0c0c0" stroke="#c0c0c0" stroke-width="2" points="891.6711,-23.4961 901.4615,-19.4466 891.2827,-16.5068 891.6711,-23.4961"/>
</g>
<!-- 35&#45;&gt;6 -->
<g id="edge11" class="edge">
<title>35&#45;&gt;6</title>
<path fill="none" stroke="#c0c0c0" stroke-width="2" d="M882.3903,-431.8314C877.9243,-423.7925 872.5765,-414.1666 867.6461,-405.2918"/>
<polygon fill="#c0c0c0" stroke="#c0c0c0" stroke-width="2" points="870.6296,-403.4551 862.7136,-396.4133 864.5105,-406.8546 870.6296,-403.4551"/>
</g>
<!-- 35&#45;&gt;23 -->
<g id="edge34" class="edge">
<title>35&#45;&gt;23</title>
<path fill="none" stroke="#c0c0c0" stroke-width="2" d="M912.419,-431.8314C921.9623,-423.1337 933.5439,-412.5783 943.9146,-403.1265"/>
<polygon fill="#c0c0c0" stroke="#c0c0c0" stroke-width="2" points="946.522,-405.4857 951.5553,-396.1628 941.8068,-400.3121 946.522,-405.4857"/>
</g>
<!-- 36&#45;&gt;12 -->
<g id="edge18" class="edge">
<title>36&#45;&gt;12</title>
<path fill="none" stroke="#c0c0c0" stroke-width="2" d="M1677.484,-431.8314C1677.484,-424.131 1677.484,-414.9743 1677.484,-406.4166"/>
<polygon fill="#c0c0c0" stroke="#c0c0c0" stroke-width="2" points="1680.9841,-406.4132 1677.484,-396.4133 1673.9841,-406.4133 1680.9841,-406.4132"/>
</g>
<!-- 36&#45;&gt;32 -->
<g id="edge46" class="edge">
<title>36&#45;&gt;32</title>
<path fill="none" stroke="#c0c0c0" stroke-width="2" d="M1646.9506,-431.8314C1631.4739,-422.6221 1612.4971,-411.3301 1595.9277,-401.4706"/>
<polygon fill="#c0c0c0" stroke="#c0c0c0" stroke-width="2" points="1597.3911,-398.2687 1587.0076,-396.1628 1593.8116,-404.2843 1597.3911,-398.2687"/>
</g>
<!-- 37&#45;&gt;16 -->
<g id="edge27" class="edge">
<title>37&#45;&gt;16</title>
<path fill="none" stroke="#c0c0c0" stroke-width="2" d="M1050.409,-215.8314C1046.8738,-207.8771 1042.648,-198.369 1038.7384,-189.5723"/>
<polygon fill="#c0c0c0" stroke="#c0c0c0" stroke-width="2" points="1041.9275,-188.1299 1034.6677,-180.4133 1035.5308,-190.9729 1041.9275,-188.1299"/>
</g>
<!-- 38 -->
<g id="node39" class="node">
<title>38</title>
<path fill="none" stroke="#bed856" stroke-width="2" d="M216.6883,-252C216.6883,-252 172.2797,-252 172.2797,-252 166.2797,-252 160.2797,-246 160.2797,-240 160.2797,-240 160.2797,-228 160.2797,-228 160.2797,-222 166.2797,-216 172.2797,-216 172.2797,-216 216.6883,-216 216.6883,-216 222.6883,-216 228.6883,-222 228.6883,-228 228.6883,-228 228.6883,-240 228.6883,-240 228.6883,-246 222.6883,-252 216.6883,-252"/>
<text text-anchor="middle" x="194.484" y="-231" font-family="sans" font-size="10.00" fill="#000000">sort_by_read</text>
</g>
<!-- 38&#45;&gt;15 -->
<g id="edge23" class="edge">
<title>38&#45;&gt;15</title>
<path fill="none" stroke="#c0c0c0" stroke-width="2" d="M218.4565,-215.8314C230.2701,-206.8779 244.6812,-195.9558 257.4275,-186.2955"/>
<polygon fill="#c0c0c0" stroke="#c0c0c0" stroke-width="2" points="259.6635,-188.9925 265.5192,-180.1628 255.4354,-183.4137 259.6635,-188.9925"/>
</g>
<!-- 39&#45;&gt;42 -->
<g id="edge65" class="edge">
<title>39&#45;&gt;42</title>
<path fill="none" stroke="#c0c0c0" stroke-width="2" d="M811.8494,-71.8314C836.5513,-60.4305 868.1694,-45.8375 892.2526,-34.7222"/>
<polygon fill="#c0c0c0" stroke="#c0c0c0" stroke-width="2" points="893.7982,-37.8637 901.4111,-30.4952 890.8648,-31.508 893.7982,-37.8637"/>
</g>
<!-- 40&#45;&gt;42 -->
<g id="edge63" class="edge">
<title>40&#45;&gt;42</title>
<path fill="none" stroke="#c0c0c0" stroke-width="2" d="M1469.2981,-73.428C1466.3263,-72.9239 1463.3805,-72.4454 1460.484,-72 1275.9498,-43.6218 1053.0259,-26.5046 965.9162,-20.469"/>
<polygon fill="#c0c0c0" stroke="#c0c0c0" stroke-width="2" points="965.9537,-16.9635 955.7378,-19.7716 965.4752,-23.9471 965.9537,-16.9635"/>
</g>
<!-- 41 -->
<g id="node42" class="node">
<title>41</title>
<path fill="none" stroke="#d86656" stroke-width="2" d="M671.4989,-252C671.4989,-252 569.4691,-252 569.4691,-252 563.4691,-252 557.4691,-246 557.4691,-240 557.4691,-240 557.4691,-228 557.4691,-228 557.4691,-222 563.4691,-216 569.4691,-216 569.4691,-216 671.4989,-216 671.4989,-216 677.4989,-216 683.4989,-222 683.4989,-228 683.4989,-228 683.4989,-240 683.4989,-240 683.4989,-246 677.4989,-252 671.4989,-252"/>
<text text-anchor="middle" x="620.484" y="-237" font-family="sans" font-size="10.00" fill="#000000">call_variant_proportion</text>
<text text-anchor="middle" x="620.484" y="-225" font-family="sans" font-size="10.00" fill="#000000">sample: albacore_1.2.2.cast</text>
</g>
<!-- 41&#45;&gt;2 -->
<g id="edge5" class="edge">
<title>41&#45;&gt;2</title>
<path fill="none" stroke="#c0c0c0" stroke-width="2" d="M591.4646,-215.8314C576.194,-206.2706 557.3379,-194.4651 541.1789,-184.3481"/>
<polygon fill="#c0c0c0" stroke="#c0c0c0" stroke-width="2" points="542.8522,-181.2664 532.5191,-178.9263 539.1376,-187.1995 542.8522,-181.2664"/>
</g>
<!-- 43 -->
<g id="node44" class="node">
<title>43</title>
<path fill="none" stroke="#56a2d8" stroke-width="2" d="M272.477,-324C272.477,-324 150.491,-324 150.491,-324 144.491,-324 138.491,-318 138.491,-312 138.491,-312 138.491,-300 138.491,-300 138.491,-294 144.491,-288 150.491,-288 150.491,-288 272.477,-288 272.477,-288 278.477,-288 284.477,-294 284.477,-300 284.477,-300 284.477,-312 284.477,-312 284.477,-318 278.477,-324 272.477,-324"/>
<text text-anchor="middle" x="211.484" y="-309" font-family="sans" font-size="10.00" fill="#000000">split_methylation_by_alignment</text>
<text text-anchor="middle" x="211.484" y="-297" font-family="sans" font-size="10.00" fill="#000000">sample: albacore_1.2.2.b6</text>
</g>
<!-- 43&#45;&gt;38 -->
<g id="edge57" class="edge">
<title>43&#45;&gt;38</title>
<path fill="none" stroke="#c0c0c0" stroke-width="2" d="M207.1942,-287.8314C205.376,-280.131 203.2141,-270.9743 201.1935,-262.4166"/>
<polygon fill="#c0c0c0" stroke="#c0c0c0" stroke-width="2" points="204.5359,-261.3414 198.8316,-252.4133 197.7232,-262.95 204.5359,-261.3414"/>
</g>
<!-- 44 -->
<g id="node45" class="node">
<title>44</title>
<path fill="none" stroke="#d86656" stroke-width="2" d="M1073.9988,-468C1073.9988,-468 956.9692,-468 956.9692,-468 950.9692,-468 944.9692,-462 944.9692,-456 944.9692,-456 944.9692,-444 944.9692,-444 944.9692,-438 950.9692,-432 956.9692,-432 956.9692,-432 1073.9988,-432 1073.9988,-432 1079.9988,-432 1085.9988,-438 1085.9988,-444 1085.9988,-444 1085.9988,-456 1085.9988,-456 1085.9988,-462 1079.9988,-468 1073.9988,-468"/>
<text text-anchor="middle" x="1015.484" y="-453" font-family="sans" font-size="10.00" fill="#000000">call_variant_proportion</text>
<text text-anchor="middle" x="1015.484" y="-441" font-family="sans" font-size="10.00" fill="#000000">sample: albacore_1.2.2.b6xcast</text>
</g>
<!-- 44&#45;&gt;0 -->
<g id="edge1" class="edge">
<title>44&#45;&gt;0</title>
<path fill="none" stroke="#c0c0c0" stroke-width="2" d="M1046.0174,-431.8314C1061.4941,-422.6221 1080.4709,-411.3301 1097.0403,-401.4706"/>
<polygon fill="#c0c0c0" stroke="#c0c0c0" stroke-width="2" points="1099.1564,-404.2843 1105.9604,-396.1628 1095.5769,-398.2687 1099.1564,-404.2843"/>
</g>
<!-- 44&#45;&gt;6 -->
<g id="edge12" class="edge">
<title>44&#45;&gt;6</title>
<path fill="none" stroke="#c0c0c0" stroke-width="2" d="M971.109,-431.9193C948.6945,-422.6066 920.9373,-410.8035 888.7266,-395.9991"/>
<polygon fill="#c0c0c0" stroke="#c0c0c0" stroke-width="2" points="890.0697,-392.7642 879.5242,-391.7435 887.1315,-399.1177 890.0697,-392.7642"/>
</g>
<!-- 44&#45;&gt;23 -->
<g id="edge35" class="edge">
<title>44&#45;&gt;23</title>
<path fill="none" stroke="#c0c0c0" stroke-width="2" d="M1004.3809,-431.8314C999.4166,-423.7079 993.4618,-413.9637 987.9912,-405.0118"/>
<polygon fill="#c0c0c0" stroke="#c0c0c0" stroke-width="2" points="990.9376,-403.121 982.7366,-396.4133 984.9646,-406.7712 990.9376,-403.121"/>
</g>
<!-- 45 -->
<g id="node46" class="node">
<title>45</title>
<path fill="none" stroke="#56d89a" stroke-width="2" d="M1846.603,-540C1846.603,-540 1680.365,-540 1680.365,-540 1674.365,-540 1668.365,-534 1668.365,-528 1668.365,-528 1668.365,-516 1668.365,-516 1668.365,-510 1674.365,-504 1680.365,-504 1680.365,-504 1846.603,-504 1846.603,-504 1852.603,-504 1858.603,-510 1858.603,-516 1858.603,-516 1858.603,-528 1858.603,-528 1858.603,-534 1852.603,-540 1846.603,-540"/>
<text text-anchor="middle" x="1763.484" y="-525" font-family="sans" font-size="10.00" fill="#000000">samtools_index_bam</text>
<text text-anchor="middle" x="1763.484" y="-513" font-family="sans" font-size="10.00" fill="#000000">sample: albacore_2.2.7.castxb6.promethion</text>
</g>
<!-- 45&#45;&gt;4 -->
<g id="edge8" class="edge">
<title>45&#45;&gt;4</title>
<path fill="none" stroke="#c0c0c0" stroke-width="2" d="M1763.484,-503.8314C1763.484,-496.131 1763.484,-486.9743 1763.484,-478.4166"/>
<polygon fill="#c0c0c0" stroke="#c0c0c0" stroke-width="2" points="1766.9841,-478.4132 1763.484,-468.4133 1759.9841,-478.4133 1766.9841,-478.4132"/>
</g>
<!-- 46 -->
<g id="node47" class="node">
<title>46</title>
<path fill="none" stroke="#d8cb56" stroke-width="2" d="M1281.2643,-252C1281.2643,-252 1155.7037,-252 1155.7037,-252 1149.7037,-252 1143.7037,-246 1143.7037,-240 1143.7037,-240 1143.7037,-228 1143.7037,-228 1143.7037,-222 1149.7037,-216 1155.7037,-216 1155.7037,-216 1281.2643,-216 1281.2643,-216 1287.2643,-216 1293.2643,-222 1293.2643,-228 1293.2643,-228 1293.2643,-240 1293.2643,-240 1293.2643,-246 1287.2643,-252 1281.2643,-252"/>
<text text-anchor="middle" x="1218.484" y="-237" font-family="sans" font-size="10.00" fill="#000000">calculate_methylation_frequency</text>
<text text-anchor="middle" x="1218.484" y="-225" font-family="sans" font-size="10.00" fill="#000000">sample: albacore_1.2.2.b6xcast</text>
</g>
<!-- 46&#45;&gt;16 -->
<g id="edge26" class="edge">
<title>46&#45;&gt;16</title>
<path fill="none" stroke="#c0c0c0" stroke-width="2" d="M1170.0343,-215.8314C1141.1898,-205.0147 1104.6831,-191.3247 1075.7037,-180.4574"/>
<polygon fill="#c0c0c0" stroke="#c0c0c0" stroke-width="2" points="1076.7787,-177.1226 1066.1864,-176.8884 1074.3208,-183.6769 1076.7787,-177.1226"/>
</g>
<!-- 47 -->
<g id="node48" class="node">
<title>47</title>
<path fill="none" stroke="#d86656" stroke-width="2" d="M1613.603,-468C1613.603,-468 1447.365,-468 1447.365,-468 1441.365,-468 1435.365,-462 1435.365,-456 1435.365,-456 1435.365,-444 1435.365,-444 1435.365,-438 1441.365,-432 1447.365,-432 1447.365,-432 1613.603,-432 1613.603,-432 1619.603,-432 1625.603,-438 1625.603,-444 1625.603,-444 1625.603,-456 1625.603,-456 1625.603,-462 1619.603,-468 1613.603,-468"/>
<text text-anchor="middle" x="1530.484" y="-453" font-family="sans" font-size="10.00" fill="#000000">call_variant_proportion</text>
<text text-anchor="middle" x="1530.484" y="-441" font-family="sans" font-size="10.00" fill="#000000">sample: albacore_2.2.7.castxb6.promethion</text>
</g>
<!-- 47&#45;&gt;12 -->
<g id="edge19" class="edge">
<title>47&#45;&gt;12</title>
<path fill="none" stroke="#c0c0c0" stroke-width="2" d="M1567.5783,-431.8314C1590.0538,-420.823 1618.6054,-406.8385 1640.9743,-395.8823"/>
<polygon fill="#c0c0c0" stroke="#c0c0c0" stroke-width="2" points="1642.7056,-398.9316 1650.1467,-391.3897 1639.6265,-392.6452 1642.7056,-398.9316"/>
</g>
<!-- 47&#45;&gt;17 -->
<g id="edge28" class="edge">
<title>47&#45;&gt;17</title>
<path fill="none" stroke="#c0c0c0" stroke-width="2" d="M1494.3991,-431.8314C1475.6851,-422.4089 1452.6408,-410.8062 1432.744,-400.7883"/>
<polygon fill="#c0c0c0" stroke="#c0c0c0" stroke-width="2" points="1434.0632,-397.5339 1423.5574,-396.1628 1430.9151,-403.7861 1434.0632,-397.5339"/>
</g>
<!-- 47&#45;&gt;32 -->
<g id="edge47" class="edge">
<title>47&#45;&gt;32</title>
<path fill="none" stroke="#c0c0c0" stroke-width="2" d="M1537.0449,-431.8314C1539.8867,-423.9617 1543.2777,-414.5712 1546.4259,-405.8533"/>
<polygon fill="#c0c0c0" stroke="#c0c0c0" stroke-width="2" points="1549.7302,-407.0076 1549.8348,-396.4133 1543.1463,-404.63 1549.7302,-407.0076"/>
</g>
<!-- 48&#45;&gt;0 -->
<g id="edge2" class="edge">
<title>48&#45;&gt;0</title>
<path fill="none" stroke="#c0c0c0" stroke-width="2" d="M1136.484,-431.8314C1136.484,-424.131 1136.484,-414.9743 1136.484,-406.4166"/>
<polygon fill="#c0c0c0" stroke="#c0c0c0" stroke-width="2" points="1139.9841,-406.4132 1136.484,-396.4133 1132.9841,-406.4133 1139.9841,-406.4132"/>
</g>
<!-- 49 -->
<g id="node50" class="node">
<title>49</title>
<path fill="none" stroke="#567bd8" stroke-width="2" d="M1308.4129,-468C1308.4129,-468 1226.5551,-468 1226.5551,-468 1220.5551,-468 1214.5551,-462 1214.5551,-456 1214.5551,-456 1214.5551,-444 1214.5551,-444 1214.5551,-438 1220.5551,-432 1226.5551,-432 1226.5551,-432 1308.4129,-432 1308.4129,-432 1314.4129,-432 1320.4129,-438 1320.4129,-444 1320.4129,-444 1320.4129,-456 1320.4129,-456 1320.4129,-462 1314.4129,-468 1308.4129,-468"/>
<text text-anchor="middle" x="1267.484" y="-447" font-family="sans" font-size="10.00" fill="#000000">icr_plot_region_string</text>
</g>
<!-- 49&#45;&gt;23 -->
<g id="edge33" class="edge">
<title>49&#45;&gt;23</title>
<path fill="none" stroke="#c0c0c0" stroke-width="2" d="M1214.5651,-437.1278C1170.2765,-426.3549 1106.2884,-410.7903 1055.0798,-398.3341"/>
<polygon fill="#c0c0c0" stroke="#c0c0c0" stroke-width="2" points="1055.8907,-394.9294 1045.3468,-395.9666 1054.2362,-401.731 1055.8907,-394.9294"/>
</g>
<!-- 49&#45;&gt;32 -->
<g id="edge45" class="edge">
<title>49&#45;&gt;32</title>
<path fill="none" stroke="#c0c0c0" stroke-width="2" d="M1320.4911,-436.7941C1363.5717,-426.0612 1425.0839,-410.7363 1474.5068,-398.4234"/>
<polygon fill="#c0c0c0" stroke="#c0c0c0" stroke-width="2" points="1475.3639,-401.8169 1484.2212,-396.0032 1473.6716,-395.0245 1475.3639,-401.8169"/>
</g>
<!-- 50 -->
<g id="node51" class="node">
<title>50</title>
<path fill="none" stroke="#d86656" stroke-width="2" d="M355.952,-252C355.952,-252 259.016,-252 259.016,-252 253.016,-252 247.016,-246 247.016,-240 247.016,-240 247.016,-228 247.016,-228 247.016,-222 253.016,-216 259.016,-216 259.016,-216 355.952,-216 355.952,-216 361.952,-216 367.952,-222 367.952,-228 367.952,-228 367.952,-240 367.952,-240 367.952,-246 361.952,-252 355.952,-252"/>
<text text-anchor="middle" x="307.484" y="-237" font-family="sans" font-size="10.00" fill="#000000">call_variant_proportion</text>
<text text-anchor="middle" x="307.484" y="-225" font-family="sans" font-size="10.00" fill="#000000">sample: albacore_1.2.2.b6</text>
</g>
<!-- 50&#45;&gt;15 -->
<g id="edge22" class="edge">
<title>50&#45;&gt;15</title>
<path fill="none" stroke="#c0c0c0" stroke-width="2" d="M302.9418,-215.8314C300.9956,-208.0463 298.6772,-198.7729 296.5177,-190.1347"/>
<polygon fill="#c0c0c0" stroke="#c0c0c0" stroke-width="2" points="299.9082,-189.2658 294.0873,-180.4133 293.1172,-190.9636 299.9082,-189.2658"/>
</g>
<!-- 51&#45;&gt;17 -->
<g id="edge29" class="edge">
<title>51&#45;&gt;17</title>
<path fill="none" stroke="#c0c0c0" stroke-width="2" d="M1385.241,-431.8314C1385.5619,-424.131 1385.9434,-414.9743 1386.3,-406.4166"/>
<polygon fill="#c0c0c0" stroke="#c0c0c0" stroke-width="2" points="1389.7973,-406.5503 1386.7168,-396.4133 1382.8034,-406.2589 1389.7973,-406.5503"/>
</g>
<!-- 52&#45;&gt;42 -->
<g id="edge73" class="edge">
<title>52&#45;&gt;42</title>
<path fill="none" stroke="#c0c0c0" stroke-width="2" d="M1367.6763,-74.191C1364.9231,-73.3855 1362.1756,-72.6447 1359.484,-72 1216.54,-37.761 1041.4138,-24.356 965.9766,-19.9081"/>
<polygon fill="#c0c0c0" stroke="#c0c0c0" stroke-width="2" points="965.7686,-16.3907 955.5855,-19.3155 965.37,-23.3793 965.7686,-16.3907"/>
</g>
</g>
</svg>
