<?xml version="1.0" encoding="UTF-8" standalone="no"?>
<!DOCTYPE svg PUBLIC "-//W3C//DTD SVG 1.1//EN"
 "http://www.w3.org/Graphics/SVG/1.1/DTD/svg11.dtd">
<!-- Generated by graphviz version 2.40.1 (20161225.0304)
 -->
<!-- Title: snakemake_dag Pages: 1 -->
<svg width="1264pt" height="916pt"
 viewBox="0.00 0.00 1263.59 916.00" xmlns="http://www.w3.org/2000/svg" xmlns:xlink="http://www.w3.org/1999/xlink">
<g id="graph0" class="graph" transform="scale(1 1) rotate(0) translate(4 912)">
<title>snakemake_dag</title>
<polygon fill="#ffffff" stroke="transparent" points="-4,4 -4,-912 1259.589,-912 1259.589,4 -4,4"/>
<!-- 0 -->
<g id="node1" class="node">
<title>0</title>
<path fill="none" stroke="#56a2d8" stroke-width="2" d="M844.8145,-548C844.8145,-548 757.8405,-548 757.8405,-548 751.8405,-548 745.8405,-542 745.8405,-536 745.8405,-536 745.8405,-524 745.8405,-524 745.8405,-518 751.8405,-512 757.8405,-512 757.8405,-512 844.8145,-512 844.8145,-512 850.8145,-512 856.8145,-518 856.8145,-524 856.8145,-524 856.8145,-536 856.8145,-536 856.8145,-542 850.8145,-548 844.8145,-548"/>
<text text-anchor="middle" x="801.3275" y="-533" font-family="sans" font-size="10.00" fill="#000000">nanopolish_index</text>
<text text-anchor="middle" x="801.3275" y="-521" font-family="sans" font-size="10.00" fill="#000000">sample: b6xcast.minion</text>
</g>
<!-- 17 -->
<g id="node18" class="node">
<title>17</title>
<path fill="none" stroke="#56d86b" stroke-width="2" d="M662.487,-396C662.487,-396 574.168,-396 574.168,-396 568.168,-396 562.168,-390 562.168,-384 562.168,-384 562.168,-372 562.168,-372 562.168,-366 568.168,-360 574.168,-360 574.168,-360 662.487,-360 662.487,-360 668.487,-360 674.487,-366 674.487,-372 674.487,-372 674.487,-384 674.487,-384 674.487,-390 668.487,-396 662.487,-396"/>
<text text-anchor="middle" x="618.3275" y="-375" font-family="sans" font-size="10.00" fill="#000000">nanopolish_methylation</text>
</g>
<!-- 0&#45;&gt;17 -->
<g id="edge17" class="edge">
<title>0&#45;&gt;17</title>
<path fill="none" stroke="#c0c0c0" stroke-width="2" d="M792.3595,-511.9656C780.935,-490.5242 759.386,-454.7844 732.3275,-432 716.921,-419.0271 697.871,-408.4059 679.7838,-400.121"/>
<polygon fill="#c0c0c0" stroke="#c0c0c0" stroke-width="2" points="680.9997,-396.8321 670.4375,-396.0014 678.1764,-403.2375 680.9997,-396.8321"/>
</g>
<!-- 1 -->
<g id="node2" class="node">
<title>1</title>
<path fill="none" stroke="#56d8d0" stroke-width="2" d="M254.9363,-476C254.9363,-476 179.7187,-476 179.7187,-476 173.7187,-476 167.7187,-470 167.7187,-464 167.7187,-464 167.7187,-444 167.7187,-444 167.7187,-438 173.7187,-432 179.7187,-432 179.7187,-432 254.9363,-432 254.9363,-432 260.9363,-432 266.9363,-438 266.9363,-444 266.9363,-444 266.9363,-464 266.9363,-464 266.9363,-470 260.9363,-476 254.9363,-476"/>
<text text-anchor="middle" x="217.3275" y="-463" font-family="sans" font-size="10.00" fill="#000000">trim_galore</text>
<text text-anchor="middle" x="217.3275" y="-451" font-family="sans" font-size="10.00" fill="#000000">outdir: bisulfite</text>
<text text-anchor="middle" x="217.3275" y="-439" font-family="sans" font-size="10.00" fill="#000000">sample: B6CastF1_1</text>
</g>
<!-- 10 -->
<g id="node11" class="node">
<title>10</title>
<path fill="none" stroke="#56d882" stroke-width="2" d="M376.0398,-396C376.0398,-396 326.6152,-396 326.6152,-396 320.6152,-396 314.6152,-390 314.6152,-384 314.6152,-384 314.6152,-372 314.6152,-372 314.6152,-366 320.6152,-360 326.6152,-360 326.6152,-360 376.0398,-360 376.0398,-360 382.0398,-360 388.0398,-366 388.0398,-372 388.0398,-372 388.0398,-384 388.0398,-384 388.0398,-390 382.0398,-396 376.0398,-396"/>
<text text-anchor="middle" x="351.3275" y="-375" font-family="sans" font-size="10.00" fill="#000000">bismark_align</text>
</g>
<!-- 1&#45;&gt;10 -->
<g id="edge10" class="edge">
<title>1&#45;&gt;10</title>
<path fill="none" stroke="#c0c0c0" stroke-width="2" d="M256.4461,-431.8133C273.4181,-422.1874 293.2953,-410.9138 310.4593,-401.179"/>
<polygon fill="#c0c0c0" stroke="#c0c0c0" stroke-width="2" points="312.1863,-404.2233 319.1579,-396.2454 308.7328,-398.1345 312.1863,-404.2233"/>
</g>
<!-- 2 -->
<g id="node3" class="node">
<title>2</title>
<path fill="none" stroke="#56c1d8" stroke-width="2" d="M654.8739,-252C654.8739,-252 607.7811,-252 607.7811,-252 601.7811,-252 595.7811,-246 595.7811,-240 595.7811,-240 595.7811,-228 595.7811,-228 595.7811,-222 601.7811,-216 607.7811,-216 607.7811,-216 654.8739,-216 654.8739,-216 660.8739,-216 666.8739,-222 666.8739,-228 666.8739,-228 666.8739,-240 666.8739,-240 666.8739,-246 660.8739,-252 654.8739,-252"/>
<text text-anchor="middle" x="631.3275" y="-231" font-family="sans" font-size="10.00" fill="#000000">download_gtf</text>
</g>
<!-- 15 -->
<g id="node16" class="node">
<title>15</title>
<path fill="none" stroke="#56d8d0" stroke-width="2" d="M734.4615,-180C734.4615,-180 528.1935,-180 528.1935,-180 522.1935,-180 516.1935,-174 516.1935,-168 516.1935,-168 516.1935,-156 516.1935,-156 516.1935,-150 522.1935,-144 528.1935,-144 528.1935,-144 734.4615,-144 734.4615,-144 740.4615,-144 746.4615,-150 746.4615,-156 746.4615,-156 746.4615,-168 746.4615,-168 746.4615,-174 740.4615,-180 734.4615,-180"/>
<text text-anchor="middle" x="631.3275" y="-165" font-family="sans" font-size="10.00" fill="#000000">gunzip_gtf</text>
<text text-anchor="middle" x="631.3275" y="-153" font-family="sans" font-size="10.00" fill="#000000">file: ../genome_data/Mus_musculus.GRCm38_90.chr</text>
</g>
<!-- 2&#45;&gt;15 -->
<g id="edge16" class="edge">
<title>2&#45;&gt;15</title>
<path fill="none" stroke="#c0c0c0" stroke-width="2" d="M631.3275,-215.8314C631.3275,-208.131 631.3275,-198.9743 631.3275,-190.4166"/>
<polygon fill="#c0c0c0" stroke="#c0c0c0" stroke-width="2" points="634.8276,-190.4132 631.3275,-180.4133 627.8276,-190.4133 634.8276,-190.4132"/>
</g>
<!-- 3 -->
<g id="node4" class="node">
<title>3</title>
<path fill="none" stroke="#56d8c1" stroke-width="2" d="M833.3511,-764C833.3511,-764 671.3039,-764 671.3039,-764 665.3039,-764 659.3039,-758 659.3039,-752 659.3039,-752 659.3039,-740 659.3039,-740 659.3039,-734 665.3039,-728 671.3039,-728 671.3039,-728 833.3511,-728 833.3511,-728 839.3511,-728 845.3511,-734 845.3511,-740 845.3511,-740 845.3511,-752 845.3511,-752 845.3511,-758 839.3511,-764 833.3511,-764"/>
<text text-anchor="middle" x="752.3275" y="-749" font-family="sans" font-size="10.00" fill="#000000">untar</text>
<text text-anchor="middle" x="752.3275" y="-737" font-family="sans" font-size="10.00" fill="#000000">archive: 2017_05_12.b6xcast.minion.fast5</text>
</g>
<!-- 20 -->
<g id="node21" class="node">
<title>20</title>
<path fill="none" stroke="#d88556" stroke-width="2" d="M832.3609,-692C832.3609,-692 780.2941,-692 780.2941,-692 774.2941,-692 768.2941,-686 768.2941,-680 768.2941,-680 768.2941,-668 768.2941,-668 768.2941,-662 774.2941,-656 780.2941,-656 780.2941,-656 832.3609,-656 832.3609,-656 838.3609,-656 844.3609,-662 844.3609,-668 844.3609,-668 844.3609,-680 844.3609,-680 844.3609,-686 838.3609,-692 832.3609,-692"/>
<text text-anchor="middle" x="806.3275" y="-671" font-family="sans" font-size="10.00" fill="#000000">merge_b6xcast</text>
</g>
<!-- 3&#45;&gt;20 -->
<g id="edge26" class="edge">
<title>3&#45;&gt;20</title>
<path fill="none" stroke="#c0c0c0" stroke-width="2" d="M765.954,-727.8314C772.1735,-719.5386 779.6597,-709.557 786.4875,-700.4533"/>
<polygon fill="#c0c0c0" stroke="#c0c0c0" stroke-width="2" points="789.3175,-702.5133 792.5175,-692.4133 783.7175,-698.3133 789.3175,-702.5133"/>
</g>
<!-- 4 -->
<g id="node5" class="node">
<title>4</title>
<path fill="none" stroke="#56d892" stroke-width="2" d="M398.1406,-836C398.1406,-836 270.5144,-836 270.5144,-836 264.5144,-836 258.5144,-830 258.5144,-824 258.5144,-824 258.5144,-812 258.5144,-812 258.5144,-806 264.5144,-800 270.5144,-800 270.5144,-800 398.1406,-800 398.1406,-800 404.1406,-800 410.1406,-806 410.1406,-812 410.1406,-812 410.1406,-824 410.1406,-824 410.1406,-830 404.1406,-836 398.1406,-836"/>
<text text-anchor="middle" x="334.3275" y="-821" font-family="sans" font-size="10.00" fill="#000000">gunzip_fa</text>
<text text-anchor="middle" x="334.3275" y="-809" font-family="sans" font-size="10.00" fill="#000000">file: ../genome_data/GRCm38_90</text>
</g>
<!-- 14 -->
<g id="node15" class="node">
<title>14</title>
<path fill="none" stroke="#d8bc56" stroke-width="2" d="M332.5247,-764C332.5247,-764 258.1303,-764 258.1303,-764 252.1303,-764 246.1303,-758 246.1303,-752 246.1303,-752 246.1303,-740 246.1303,-740 246.1303,-734 252.1303,-728 258.1303,-728 258.1303,-728 332.5247,-728 332.5247,-728 338.5247,-728 344.5247,-734 344.5247,-740 344.5247,-740 344.5247,-752 344.5247,-752 344.5247,-758 338.5247,-764 332.5247,-764"/>
<text text-anchor="middle" x="295.3275" y="-743" font-family="sans" font-size="10.00" fill="#000000">snpsplit_create_path</text>
</g>
<!-- 4&#45;&gt;14 -->
<g id="edge15" class="edge">
<title>4&#45;&gt;14</title>
<path fill="none" stroke="#c0c0c0" stroke-width="2" d="M324.4862,-799.8314C320.1318,-791.7925 314.9177,-782.1666 310.1106,-773.2918"/>
<polygon fill="#c0c0c0" stroke="#c0c0c0" stroke-width="2" points="313.1418,-771.5392 305.3014,-764.4133 306.9867,-774.8732 313.1418,-771.5392"/>
</g>
<!-- 27 -->
<g id="node28" class="node">
<title>27</title>
<path fill="none" stroke="#56d85b" stroke-width="2" d="M566.9145,-692C566.9145,-692 473.7405,-692 473.7405,-692 467.7405,-692 461.7405,-686 461.7405,-680 461.7405,-680 461.7405,-668 461.7405,-668 461.7405,-662 467.7405,-656 473.7405,-656 473.7405,-656 566.9145,-656 566.9145,-656 572.9145,-656 578.9145,-662 578.9145,-668 578.9145,-668 578.9145,-680 578.9145,-680 578.9145,-686 572.9145,-692 566.9145,-692"/>
<text text-anchor="middle" x="520.3275" y="-677" font-family="sans" font-size="10.00" fill="#000000">mask_with_cast_genome</text>
<text text-anchor="middle" x="520.3275" y="-665" font-family="sans" font-size="10.00" fill="#000000">genome: GRCm38_90</text>
</g>
<!-- 4&#45;&gt;27 -->
<g id="edge33" class="edge">
<title>4&#45;&gt;27</title>
<path fill="none" stroke="#c0c0c0" stroke-width="2" d="M341.8119,-799.7957C350.8684,-779.7713 367.8718,-747.81 391.3275,-728 408.8603,-713.1923 431.0326,-701.9576 452.0281,-693.6762"/>
<polygon fill="#c0c0c0" stroke="#c0c0c0" stroke-width="2" points="453.4496,-696.8807 461.5709,-690.0767 450.9791,-690.3312 453.4496,-696.8807"/>
</g>
<!-- 5 -->
<g id="node6" class="node">
<title>5</title>
<path fill="none" stroke="#56d8a2" stroke-width="2" d="M376.5908,-908C376.5908,-908 292.0642,-908 292.0642,-908 286.0642,-908 280.0642,-902 280.0642,-896 280.0642,-896 280.0642,-884 280.0642,-884 280.0642,-878 286.0642,-872 292.0642,-872 292.0642,-872 376.5908,-872 376.5908,-872 382.5908,-872 388.5908,-878 388.5908,-884 388.5908,-884 388.5908,-896 388.5908,-896 388.5908,-902 382.5908,-908 376.5908,-908"/>
<text text-anchor="middle" x="334.3275" y="-887" font-family="sans" font-size="10.00" fill="#000000">download_B6_genome</text>
</g>
<!-- 5&#45;&gt;4 -->
<g id="edge6" class="edge">
<title>5&#45;&gt;4</title>
<path fill="none" stroke="#c0c0c0" stroke-width="2" d="M334.3275,-871.8314C334.3275,-864.131 334.3275,-854.9743 334.3275,-846.4166"/>
<polygon fill="#c0c0c0" stroke="#c0c0c0" stroke-width="2" points="337.8276,-846.4132 334.3275,-836.4133 330.8276,-846.4133 337.8276,-846.4132"/>
</g>
<!-- 6 -->
<g id="node7" class="node">
<title>6</title>
<path fill="none" stroke="#56b9d8" stroke-width="2" d="M1015.7471,-836C1015.7471,-836 898.9079,-836 898.9079,-836 892.9079,-836 886.9079,-830 886.9079,-824 886.9079,-824 886.9079,-812 886.9079,-812 886.9079,-806 892.9079,-800 898.9079,-800 898.9079,-800 1015.7471,-800 1015.7471,-800 1021.7471,-800 1027.7471,-806 1027.7471,-812 1027.7471,-812 1027.7471,-824 1027.7471,-824 1027.7471,-830 1021.7471,-836 1015.7471,-836"/>
<text text-anchor="middle" x="957.3275" y="-815" font-family="sans" font-size="10.00" fill="#000000">download_fast5_b6xcast_0503</text>
</g>
<!-- 8 -->
<g id="node9" class="node">
<title>8</title>
<path fill="none" stroke="#56d8c1" stroke-width="2" d="M1038.3511,-764C1038.3511,-764 876.3039,-764 876.3039,-764 870.3039,-764 864.3039,-758 864.3039,-752 864.3039,-752 864.3039,-740 864.3039,-740 864.3039,-734 870.3039,-728 876.3039,-728 876.3039,-728 1038.3511,-728 1038.3511,-728 1044.3511,-728 1050.3511,-734 1050.3511,-740 1050.3511,-740 1050.3511,-752 1050.3511,-752 1050.3511,-758 1044.3511,-764 1038.3511,-764"/>
<text text-anchor="middle" x="957.3275" y="-749" font-family="sans" font-size="10.00" fill="#000000">untar</text>
<text text-anchor="middle" x="957.3275" y="-737" font-family="sans" font-size="10.00" fill="#000000">archive: 2017_05_03.b6xcast.minion.fast5</text>
</g>
<!-- 6&#45;&gt;8 -->
<g id="edge8" class="edge">
<title>6&#45;&gt;8</title>
<path fill="none" stroke="#c0c0c0" stroke-width="2" d="M957.3275,-799.8314C957.3275,-792.131 957.3275,-782.9743 957.3275,-774.4166"/>
<polygon fill="#c0c0c0" stroke="#c0c0c0" stroke-width="2" points="960.8276,-774.4132 957.3275,-764.4133 953.8276,-774.4133 960.8276,-774.4132"/>
</g>
<!-- 7 -->
<g id="node8" class="node">
<title>7</title>
<path fill="none" stroke="#56d8a9" stroke-width="2" d="M400.6956,-620C400.6956,-620 299.9594,-620 299.9594,-620 293.9594,-620 287.9594,-614 287.9594,-608 287.9594,-608 287.9594,-596 287.9594,-596 287.9594,-590 293.9594,-584 299.9594,-584 299.9594,-584 400.6956,-584 400.6956,-584 406.6956,-584 412.6956,-590 412.6956,-596 412.6956,-596 412.6956,-608 412.6956,-608 412.6956,-614 406.6956,-620 400.6956,-620"/>
<text text-anchor="middle" x="350.3275" y="-599" font-family="sans" font-size="10.00" fill="#000000">clean_up_snpsplit_genome</text>
</g>
<!-- 31 -->
<g id="node32" class="node">
<title>31</title>
<path fill="none" stroke="#59d856" stroke-width="2" d="M389.1249,-548C389.1249,-548 313.5301,-548 313.5301,-548 307.5301,-548 301.5301,-542 301.5301,-536 301.5301,-536 301.5301,-524 301.5301,-524 301.5301,-518 307.5301,-512 313.5301,-512 313.5301,-512 389.1249,-512 389.1249,-512 395.1249,-512 401.1249,-518 401.1249,-524 401.1249,-524 401.1249,-536 401.1249,-536 401.1249,-542 395.1249,-548 389.1249,-548"/>
<text text-anchor="middle" x="351.3275" y="-527" font-family="sans" font-size="10.00" fill="#000000">bismark_create_path</text>
</g>
<!-- 7&#45;&gt;31 -->
<g id="edge39" class="edge">
<title>7&#45;&gt;31</title>
<path fill="none" stroke="#c0c0c0" stroke-width="2" d="M350.5798,-583.8314C350.6868,-576.131 350.814,-566.9743 350.9328,-558.4166"/>
<polygon fill="#c0c0c0" stroke="#c0c0c0" stroke-width="2" points="354.4324,-558.4609 351.0718,-548.4133 347.4331,-558.3637 354.4324,-558.4609"/>
</g>
<!-- 8&#45;&gt;20 -->
<g id="edge25" class="edge">
<title>8&#45;&gt;20</title>
<path fill="none" stroke="#c0c0c0" stroke-width="2" d="M919.2238,-727.8314C899.208,-718.2874 874.5008,-706.5065 853.3081,-696.4013"/>
<polygon fill="#c0c0c0" stroke="#c0c0c0" stroke-width="2" points="854.69,-693.1828 844.1572,-692.038 851.6772,-699.5013 854.69,-693.1828"/>
</g>
<!-- 9 -->
<g id="node10" class="node">
<title>9</title>
<path fill="none" stroke="#56b9d8" stroke-width="2" d="M470.3745,-324C470.3745,-324 380.2805,-324 380.2805,-324 374.2805,-324 368.2805,-318 368.2805,-312 368.2805,-312 368.2805,-300 368.2805,-300 368.2805,-294 374.2805,-288 380.2805,-288 380.2805,-288 470.3745,-288 470.3745,-288 476.3745,-288 482.3745,-294 482.3745,-300 482.3745,-300 482.3745,-312 482.3745,-312 482.3745,-318 476.3745,-324 470.3745,-324"/>
<text text-anchor="middle" x="425.3275" y="-309" font-family="sans" font-size="10.00" fill="#000000">bismark_extract</text>
<text text-anchor="middle" x="425.3275" y="-297" font-family="sans" font-size="10.00" fill="#000000">sample: B6CastF1_1_pe</text>
</g>
<!-- 22 -->
<g id="node23" class="node">
<title>22</title>
<path fill="none" stroke="#d88556" stroke-width="2" d="M486.9621,-252C486.9621,-252 393.6929,-252 393.6929,-252 387.6929,-252 381.6929,-246 381.6929,-240 381.6929,-240 381.6929,-228 381.6929,-228 381.6929,-222 387.6929,-216 393.6929,-216 393.6929,-216 486.9621,-216 486.9621,-216 492.9621,-216 498.9621,-222 498.9621,-228 498.9621,-228 498.9621,-240 498.9621,-240 498.9621,-246 492.9621,-252 486.9621,-252"/>
<text text-anchor="middle" x="440.3275" y="-231" font-family="sans" font-size="10.00" fill="#000000">merge_matched_bisulfite</text>
</g>
<!-- 9&#45;&gt;22 -->
<g id="edge28" class="edge">
<title>9&#45;&gt;22</title>
<path fill="none" stroke="#c0c0c0" stroke-width="2" d="M429.1126,-287.8314C430.7169,-280.131 432.6245,-270.9743 434.4074,-262.4166"/>
<polygon fill="#c0c0c0" stroke="#c0c0c0" stroke-width="2" points="437.8782,-262.9169 436.4914,-252.4133 431.0254,-261.4892 437.8782,-262.9169"/>
</g>
<!-- 10&#45;&gt;9 -->
<g id="edge9" class="edge">
<title>10&#45;&gt;9</title>
<path fill="none" stroke="#c0c0c0" stroke-width="2" d="M370.0008,-359.8314C378.8524,-351.219 389.5761,-340.7851 399.217,-331.4048"/>
<polygon fill="#c0c0c0" stroke="#c0c0c0" stroke-width="2" points="401.9336,-333.645 406.6601,-324.1628 397.0521,-328.6279 401.9336,-333.645"/>
</g>
<!-- 11 -->
<g id="node12" class="node">
<title>11</title>
<path fill="none" stroke="#a7d856" stroke-width="2" d="M663.1078,-324C663.1078,-324 537.5472,-324 537.5472,-324 531.5472,-324 525.5472,-318 525.5472,-312 525.5472,-312 525.5472,-300 525.5472,-300 525.5472,-294 531.5472,-288 537.5472,-288 537.5472,-288 663.1078,-288 663.1078,-288 669.1078,-288 675.1078,-294 675.1078,-300 675.1078,-300 675.1078,-312 675.1078,-312 675.1078,-318 669.1078,-324 663.1078,-324"/>
<text text-anchor="middle" x="600.3275" y="-303" font-family="sans" font-size="10.00" fill="#000000">calculate_methylation_frequency</text>
</g>
<!-- 26 -->
<g id="node27" class="node">
<title>26</title>
<path fill="none" stroke="#d89c56" stroke-width="2" d="M486.4881,-180C486.4881,-180 408.1669,-180 408.1669,-180 402.1669,-180 396.1669,-174 396.1669,-168 396.1669,-168 396.1669,-156 396.1669,-156 396.1669,-150 402.1669,-144 408.1669,-144 408.1669,-144 486.4881,-144 486.4881,-144 492.4881,-144 498.4881,-150 498.4881,-156 498.4881,-156 498.4881,-168 498.4881,-168 498.4881,-174 492.4881,-180 486.4881,-180"/>
<text text-anchor="middle" x="447.3275" y="-159" font-family="sans" font-size="10.00" fill="#000000">build_methylation_df</text>
</g>
<!-- 11&#45;&gt;26 -->
<g id="edge32" class="edge">
<title>11&#45;&gt;26</title>
<path fill="none" stroke="#c0c0c0" stroke-width="2" d="M582.2587,-287.7986C563.8926,-269.4232 534.4976,-240.3559 508.3275,-216 497.9319,-206.3251 486.3072,-195.9325 476.0167,-186.8736"/>
<polygon fill="#c0c0c0" stroke="#c0c0c0" stroke-width="2" points="478.2769,-184.2005 468.45,-180.2402 473.6623,-189.4642 478.2769,-184.2005"/>
</g>
<!-- 12 -->
<g id="node13" class="node">
<title>12</title>
<path fill="none" stroke="#78d856" stroke-width="2" d="M575.8145,-36C575.8145,-36 498.8405,-36 498.8405,-36 492.8405,-36 486.8405,-30 486.8405,-24 486.8405,-24 486.8405,-12 486.8405,-12 486.8405,-6 492.8405,0 498.8405,0 498.8405,0 575.8145,0 575.8145,0 581.8145,0 587.8145,-6 587.8145,-12 587.8145,-12 587.8145,-24 587.8145,-24 587.8145,-30 581.8145,-36 575.8145,-36"/>
<text text-anchor="middle" x="537.3275" y="-15" font-family="sans" font-size="10.00" fill="#000000">methylation_analysis</text>
</g>
<!-- 13 -->
<g id="node14" class="node">
<title>13</title>
<path fill="none" stroke="#56d8a9" stroke-width="2" d="M271.4829,-548C271.4829,-548 163.1721,-548 163.1721,-548 157.1721,-548 151.1721,-542 151.1721,-536 151.1721,-536 151.1721,-524 151.1721,-524 151.1721,-518 157.1721,-512 163.1721,-512 163.1721,-512 271.4829,-512 271.4829,-512 277.4829,-512 283.4829,-518 283.4829,-524 283.4829,-524 283.4829,-536 283.4829,-536 283.4829,-542 277.4829,-548 271.4829,-548"/>
<text text-anchor="middle" x="217.3275" y="-533" font-family="sans" font-size="10.00" fill="#000000">download_bisulfite_B6Cast1</text>
<text text-anchor="middle" x="217.3275" y="-521" font-family="sans" font-size="10.00" fill="#000000">file: 2</text>
</g>
<!-- 13&#45;&gt;1 -->
<g id="edge4" class="edge">
<title>13&#45;&gt;1</title>
<path fill="none" stroke="#c0c0c0" stroke-width="2" d="M217.3275,-511.9891C217.3275,-504.291 217.3275,-495.0629 217.3275,-486.2561"/>
<polygon fill="#c0c0c0" stroke="#c0c0c0" stroke-width="2" points="220.8276,-486.2282 217.3275,-476.2282 213.8276,-486.2282 220.8276,-486.2282"/>
</g>
<!-- 32 -->
<g id="node33" class="node">
<title>32</title>
<path fill="none" stroke="#88d856" stroke-width="2" d="M397.5748,-692C397.5748,-692 303.0802,-692 303.0802,-692 297.0802,-692 291.0802,-686 291.0802,-680 291.0802,-680 291.0802,-668 291.0802,-668 291.0802,-662 297.0802,-656 303.0802,-656 303.0802,-656 397.5748,-656 397.5748,-656 403.5748,-656 409.5748,-662 409.5748,-668 409.5748,-668 409.5748,-680 409.5748,-680 409.5748,-686 403.5748,-692 397.5748,-692"/>
<text text-anchor="middle" x="350.3275" y="-671" font-family="sans" font-size="10.00" fill="#000000">snpsplit_prepare_genome</text>
</g>
<!-- 14&#45;&gt;32 -->
<g id="edge41" class="edge">
<title>14&#45;&gt;32</title>
<path fill="none" stroke="#c0c0c0" stroke-width="2" d="M309.2063,-727.8314C315.5411,-719.5386 323.1659,-709.557 330.1201,-700.4533"/>
<polygon fill="#c0c0c0" stroke="#c0c0c0" stroke-width="2" points="332.9727,-702.4847 336.2618,-692.4133 327.41,-698.2353 332.9727,-702.4847"/>
</g>
<!-- 19 -->
<g id="node20" class="node">
<title>19</title>
<path fill="none" stroke="#567bd8" stroke-width="2" d="M698.9085,-108C698.9085,-108 555.7465,-108 555.7465,-108 549.7465,-108 543.7465,-102 543.7465,-96 543.7465,-96 543.7465,-84 543.7465,-84 543.7465,-78 549.7465,-72 555.7465,-72 555.7465,-72 698.9085,-72 698.9085,-72 704.9085,-72 710.9085,-78 710.9085,-84 710.9085,-84 710.9085,-96 710.9085,-96 710.9085,-102 704.9085,-108 698.9085,-108"/>
<text text-anchor="middle" x="627.3275" y="-87" font-family="sans" font-size="10.00" fill="#000000">genome_level_methylation_summary</text>
</g>
<!-- 15&#45;&gt;19 -->
<g id="edge24" class="edge">
<title>15&#45;&gt;19</title>
<path fill="none" stroke="#c0c0c0" stroke-width="2" d="M630.3181,-143.8314C629.8903,-136.131 629.3816,-126.9743 628.9062,-118.4166"/>
<polygon fill="#c0c0c0" stroke="#c0c0c0" stroke-width="2" points="632.3999,-118.2037 628.3505,-108.4133 625.4106,-118.592 632.3999,-118.2037"/>
</g>
<!-- 16 -->
<g id="node17" class="node">
<title>16</title>
<path fill="none" stroke="#56d8a9" stroke-width="2" d="M120.4829,-548C120.4829,-548 12.1721,-548 12.1721,-548 6.1721,-548 .1721,-542 .1721,-536 .1721,-536 .1721,-524 .1721,-524 .1721,-518 6.1721,-512 12.1721,-512 12.1721,-512 120.4829,-512 120.4829,-512 126.4829,-512 132.4829,-518 132.4829,-524 132.4829,-524 132.4829,-536 132.4829,-536 132.4829,-542 126.4829,-548 120.4829,-548"/>
<text text-anchor="middle" x="66.3275" y="-533" font-family="sans" font-size="10.00" fill="#000000">download_bisulfite_B6Cast1</text>
<text text-anchor="middle" x="66.3275" y="-521" font-family="sans" font-size="10.00" fill="#000000">file: 1</text>
</g>
<!-- 16&#45;&gt;1 -->
<g id="edge3" class="edge">
<title>16&#45;&gt;1</title>
<path fill="none" stroke="#c0c0c0" stroke-width="2" d="M102.1124,-511.9891C120.7251,-502.6211 143.8395,-490.9873 164.4689,-480.6043"/>
<polygon fill="#c0c0c0" stroke="#c0c0c0" stroke-width="2" points="166.0824,-483.7106 173.4413,-476.0884 162.9353,-477.4579 166.0824,-483.7106"/>
</g>
<!-- 17&#45;&gt;11 -->
<g id="edge12" class="edge">
<title>17&#45;&gt;11</title>
<path fill="none" stroke="#c0c0c0" stroke-width="2" d="M613.7853,-359.8314C611.8391,-352.0463 609.5207,-342.7729 607.3612,-334.1347"/>
<polygon fill="#c0c0c0" stroke="#c0c0c0" stroke-width="2" points="610.7517,-333.2658 604.9308,-324.4133 603.9607,-334.9636 610.7517,-333.2658"/>
</g>
<!-- 18 -->
<g id="node19" class="node">
<title>18</title>
<path fill="none" stroke="#ced856" stroke-width="2" d="M513.9809,-108C513.9809,-108 380.6741,-108 380.6741,-108 374.6741,-108 368.6741,-102 368.6741,-96 368.6741,-96 368.6741,-84 368.6741,-84 368.6741,-78 374.6741,-72 380.6741,-72 380.6741,-72 513.9809,-72 513.9809,-72 519.9809,-72 525.9809,-78 525.9809,-84 525.9809,-84 525.9809,-96 525.9809,-96 525.9809,-102 519.9809,-108 513.9809,-108"/>
<text text-anchor="middle" x="447.3275" y="-87" font-family="sans" font-size="10.00" fill="#000000">nanopolish_methylation_validation</text>
</g>
<!-- 18&#45;&gt;12 -->
<g id="edge13" class="edge">
<title>18&#45;&gt;12</title>
<path fill="none" stroke="#c0c0c0" stroke-width="2" d="M470.0383,-71.8314C481.1235,-62.9632 494.6229,-52.1637 506.6127,-42.5718"/>
<polygon fill="#c0c0c0" stroke="#c0c0c0" stroke-width="2" points="509.0017,-45.1429 514.624,-36.1628 504.6288,-39.6768 509.0017,-45.1429"/>
</g>
<!-- 19&#45;&gt;12 -->
<g id="edge14" class="edge">
<title>19&#45;&gt;12</title>
<path fill="none" stroke="#c0c0c0" stroke-width="2" d="M604.6167,-71.8314C593.5315,-62.9632 580.0321,-52.1637 568.0423,-42.5718"/>
<polygon fill="#c0c0c0" stroke="#c0c0c0" stroke-width="2" points="570.0262,-39.6768 560.031,-36.1628 565.6533,-45.1429 570.0262,-39.6768"/>
</g>
<!-- 20&#45;&gt;0 -->
<g id="edge2" class="edge">
<title>20&#45;&gt;0</title>
<path fill="none" stroke="#c0c0c0" stroke-width="2" d="M805.6942,-655.7623C804.8414,-631.201 803.3153,-587.2474 802.312,-558.3541"/>
<polygon fill="#c0c0c0" stroke="#c0c0c0" stroke-width="2" points="805.8006,-557.9621 801.9556,-548.0896 798.8048,-558.2051 805.8006,-557.9621"/>
</g>
<!-- 25 -->
<g id="node26" class="node">
<title>25</title>
<path fill="none" stroke="#78d856" stroke-width="2" d="M766.0287,-620C766.0287,-620 706.6263,-620 706.6263,-620 700.6263,-620 694.6263,-614 694.6263,-608 694.6263,-608 694.6263,-596 694.6263,-596 694.6263,-590 700.6263,-584 706.6263,-584 706.6263,-584 766.0287,-584 766.0287,-584 772.0287,-584 778.0287,-590 778.0287,-596 778.0287,-596 778.0287,-608 778.0287,-608 778.0287,-614 772.0287,-620 766.0287,-620"/>
<text text-anchor="middle" x="736.3275" y="-605" font-family="sans" font-size="10.00" fill="#000000">albacore_minion</text>
<text text-anchor="middle" x="736.3275" y="-593" font-family="sans" font-size="10.00" fill="#000000">sample: b6xcast</text>
</g>
<!-- 20&#45;&gt;25 -->
<g id="edge30" class="edge">
<title>20&#45;&gt;25</title>
<path fill="none" stroke="#c0c0c0" stroke-width="2" d="M788.6635,-655.8314C780.3543,-647.2848 770.3011,-636.9443 761.2357,-627.6198"/>
<polygon fill="#c0c0c0" stroke="#c0c0c0" stroke-width="2" points="763.7096,-625.1435 754.2293,-620.4133 758.6906,-630.023 763.7096,-625.1435"/>
</g>
<!-- 21 -->
<g id="node22" class="node">
<title>21</title>
<path fill="none" stroke="#c6d856" stroke-width="2" d="M1220.7471,-836C1220.7471,-836 1103.9079,-836 1103.9079,-836 1097.9079,-836 1091.9079,-830 1091.9079,-824 1091.9079,-824 1091.9079,-812 1091.9079,-812 1091.9079,-806 1097.9079,-800 1103.9079,-800 1103.9079,-800 1220.7471,-800 1220.7471,-800 1226.7471,-800 1232.7471,-806 1232.7471,-812 1232.7471,-812 1232.7471,-824 1232.7471,-824 1232.7471,-830 1226.7471,-836 1220.7471,-836"/>
<text text-anchor="middle" x="1162.3275" y="-815" font-family="sans" font-size="10.00" fill="#000000">download_fast5_b6xcast_0525</text>
</g>
<!-- 23 -->
<g id="node24" class="node">
<title>23</title>
<path fill="none" stroke="#56d8c1" stroke-width="2" d="M1243.3511,-764C1243.3511,-764 1081.3039,-764 1081.3039,-764 1075.3039,-764 1069.3039,-758 1069.3039,-752 1069.3039,-752 1069.3039,-740 1069.3039,-740 1069.3039,-734 1075.3039,-728 1081.3039,-728 1081.3039,-728 1243.3511,-728 1243.3511,-728 1249.3511,-728 1255.3511,-734 1255.3511,-740 1255.3511,-740 1255.3511,-752 1255.3511,-752 1255.3511,-758 1249.3511,-764 1243.3511,-764"/>
<text text-anchor="middle" x="1162.3275" y="-749" font-family="sans" font-size="10.00" fill="#000000">untar</text>
<text text-anchor="middle" x="1162.3275" y="-737" font-family="sans" font-size="10.00" fill="#000000">archive: 2017_05_25.b6xcast.minion.fast5</text>
</g>
<!-- 21&#45;&gt;23 -->
<g id="edge29" class="edge">
<title>21&#45;&gt;23</title>
<path fill="none" stroke="#c0c0c0" stroke-width="2" d="M1162.3275,-799.8314C1162.3275,-792.131 1162.3275,-782.9743 1162.3275,-774.4166"/>
<polygon fill="#c0c0c0" stroke="#c0c0c0" stroke-width="2" points="1165.8276,-774.4132 1162.3275,-764.4133 1158.8276,-774.4133 1165.8276,-774.4132"/>
</g>
<!-- 22&#45;&gt;26 -->
<g id="edge31" class="edge">
<title>22&#45;&gt;26</title>
<path fill="none" stroke="#c0c0c0" stroke-width="2" d="M442.0939,-215.8314C442.8425,-208.131 443.7328,-198.9743 444.5648,-190.4166"/>
<polygon fill="#c0c0c0" stroke="#c0c0c0" stroke-width="2" points="448.0531,-190.7051 445.5373,-180.4133 441.086,-190.0276 448.0531,-190.7051"/>
</g>
<!-- 23&#45;&gt;20 -->
<g id="edge27" class="edge">
<title>23&#45;&gt;20</title>
<path fill="none" stroke="#c0c0c0" stroke-width="2" d="M1072.9532,-727.9243C1003.732,-713.9245 910.5037,-695.0693 854.6108,-683.7652"/>
<polygon fill="#c0c0c0" stroke="#c0c0c0" stroke-width="2" points="855.1185,-680.2971 844.6231,-681.7452 853.7308,-687.1581 855.1185,-680.2971"/>
</g>
<!-- 24 -->
<g id="node25" class="node">
<title>24</title>
<path fill="none" stroke="#c6d856" stroke-width="2" d="M551.6547,-836C551.6547,-836 489.0003,-836 489.0003,-836 483.0003,-836 477.0003,-830 477.0003,-824 477.0003,-824 477.0003,-812 477.0003,-812 477.0003,-806 483.0003,-800 489.0003,-800 489.0003,-800 551.6547,-800 551.6547,-800 557.6547,-800 563.6547,-806 563.6547,-812 563.6547,-812 563.6547,-824 563.6547,-824 563.6547,-830 557.6547,-836 551.6547,-836"/>
<text text-anchor="middle" x="520.3275" y="-821" font-family="sans" font-size="10.00" fill="#000000">download_vcf</text>
<text text-anchor="middle" x="520.3275" y="-809" font-family="sans" font-size="10.00" fill="#000000">strain: CAST_EiJ</text>
</g>
<!-- 28 -->
<g id="node29" class="node">
<title>28</title>
<path fill="none" stroke="#d8c356" stroke-width="2" d="M628.5317,-764C628.5317,-764 412.1233,-764 412.1233,-764 406.1233,-764 400.1233,-758 400.1233,-752 400.1233,-752 400.1233,-740 400.1233,-740 400.1233,-734 406.1233,-728 412.1233,-728 412.1233,-728 628.5317,-728 628.5317,-728 634.5317,-728 640.5317,-734 640.5317,-740 640.5317,-740 640.5317,-752 640.5317,-752 640.5317,-758 634.5317,-764 628.5317,-764"/>
<text text-anchor="middle" x="520.3275" y="-749" font-family="sans" font-size="10.00" fill="#000000">gunzip_vcf</text>
<text text-anchor="middle" x="520.3275" y="-737" font-family="sans" font-size="10.00" fill="#000000">file: ../genome_data/CAST_EiJ.mgp.v5.snps.dbSNP142</text>
</g>
<!-- 24&#45;&gt;28 -->
<g id="edge35" class="edge">
<title>24&#45;&gt;28</title>
<path fill="none" stroke="#c0c0c0" stroke-width="2" d="M520.3275,-799.8314C520.3275,-792.131 520.3275,-782.9743 520.3275,-774.4166"/>
<polygon fill="#c0c0c0" stroke="#c0c0c0" stroke-width="2" points="523.8276,-774.4132 520.3275,-764.4133 516.8276,-774.4133 523.8276,-774.4132"/>
</g>
<!-- 25&#45;&gt;0 -->
<g id="edge1" class="edge">
<title>25&#45;&gt;0</title>
<path fill="none" stroke="#c0c0c0" stroke-width="2" d="M752.7297,-583.8314C760.369,-575.3694 769.5958,-565.1489 777.9482,-555.8971"/>
<polygon fill="#c0c0c0" stroke="#c0c0c0" stroke-width="2" points="780.6013,-558.1813 784.7044,-548.4133 775.4054,-553.4906 780.6013,-558.1813"/>
</g>
<!-- 25&#45;&gt;17 -->
<g id="edge21" class="edge">
<title>25&#45;&gt;17</title>
<path fill="none" stroke="#c0c0c0" stroke-width="2" d="M731.9954,-583.7467C723.7475,-551.3306 703.671,-482.3908 671.3275,-432 664.687,-421.6542 655.8187,-411.656 647.2388,-403.1339"/>
<polygon fill="#c0c0c0" stroke="#c0c0c0" stroke-width="2" points="649.482,-400.4363 639.8364,-396.0531 644.6434,-405.4947 649.482,-400.4363"/>
</g>
<!-- 29 -->
<g id="node30" class="node">
<title>29</title>
<path fill="none" stroke="#d89556" stroke-width="2" d="M678.8145,-548C678.8145,-548 591.8405,-548 591.8405,-548 585.8405,-548 579.8405,-542 579.8405,-536 579.8405,-536 579.8405,-524 579.8405,-524 579.8405,-518 585.8405,-512 591.8405,-512 591.8405,-512 678.8145,-512 678.8145,-512 684.8145,-512 690.8145,-518 690.8145,-524 690.8145,-524 690.8145,-536 690.8145,-536 690.8145,-542 684.8145,-548 678.8145,-548"/>
<text text-anchor="middle" x="635.3275" y="-533" font-family="sans" font-size="10.00" fill="#000000">bwa_mem_align</text>
<text text-anchor="middle" x="635.3275" y="-521" font-family="sans" font-size="10.00" fill="#000000">sample: b6xcast.minion</text>
</g>
<!-- 25&#45;&gt;29 -->
<g id="edge38" class="edge">
<title>25&#45;&gt;29</title>
<path fill="none" stroke="#c0c0c0" stroke-width="2" d="M710.8409,-583.8314C698.1616,-574.7927 682.6679,-563.7476 669.022,-554.0198"/>
<polygon fill="#c0c0c0" stroke="#c0c0c0" stroke-width="2" points="670.9804,-551.1176 660.8059,-548.1628 666.917,-556.8176 670.9804,-551.1176"/>
</g>
<!-- 26&#45;&gt;18 -->
<g id="edge22" class="edge">
<title>26&#45;&gt;18</title>
<path fill="none" stroke="#c0c0c0" stroke-width="2" d="M447.3275,-143.8314C447.3275,-136.131 447.3275,-126.9743 447.3275,-118.4166"/>
<polygon fill="#c0c0c0" stroke="#c0c0c0" stroke-width="2" points="450.8276,-118.4132 447.3275,-108.4133 443.8276,-118.4133 450.8276,-118.4132"/>
</g>
<!-- 26&#45;&gt;19 -->
<g id="edge23" class="edge">
<title>26&#45;&gt;19</title>
<path fill="none" stroke="#c0c0c0" stroke-width="2" d="M492.7491,-143.8314C517.037,-134.1162 547.1197,-122.0831 572.6795,-111.8592"/>
<polygon fill="#c0c0c0" stroke="#c0c0c0" stroke-width="2" points="574.2476,-115.0016 582.2325,-108.038 571.6479,-108.5023 574.2476,-115.0016"/>
</g>
<!-- 27&#45;&gt;17 -->
<g id="edge18" class="edge">
<title>27&#45;&gt;17</title>
<path fill="none" stroke="#c0c0c0" stroke-width="2" d="M490.6334,-655.9172C478.5439,-646.8022 465.8896,-634.5731 459.3275,-620 440.1936,-577.5079 400.3443,-522.892 468.3275,-432 479.0104,-417.7172 516.9557,-404.1289 552.0054,-394.1559"/>
<polygon fill="#c0c0c0" stroke="#c0c0c0" stroke-width="2" points="553.0891,-397.4875 561.7894,-391.4412 551.2176,-390.7423 553.0891,-397.4875"/>
</g>
<!-- 27&#45;&gt;29 -->
<g id="edge36" class="edge">
<title>27&#45;&gt;29</title>
<path fill="none" stroke="#c0c0c0" stroke-width="2" d="M578.9744,-664.0121C604.4816,-656.4409 631.9949,-643.1804 647.3275,-620 659.4724,-601.6388 654.7952,-576.5264 648.0355,-557.4931"/>
<polygon fill="#c0c0c0" stroke="#c0c0c0" stroke-width="2" points="651.2888,-556.202 644.3888,-548.162 644.769,-558.7501 651.2888,-556.202"/>
</g>
<!-- 34 -->
<g id="node35" class="node">
<title>34</title>
<path fill="none" stroke="#d87556" stroke-width="2" d="M626.2015,-620C626.2015,-620 480.4535,-620 480.4535,-620 474.4535,-620 468.4535,-614 468.4535,-608 468.4535,-608 468.4535,-596 468.4535,-596 468.4535,-590 474.4535,-584 480.4535,-584 480.4535,-584 626.2015,-584 626.2015,-584 632.2015,-584 638.2015,-590 638.2015,-596 638.2015,-596 638.2015,-608 638.2015,-608 638.2015,-614 632.2015,-620 626.2015,-620"/>
<text text-anchor="middle" x="553.3275" y="-605" font-family="sans" font-size="10.00" fill="#000000">bwa_index</text>
<text text-anchor="middle" x="553.3275" y="-593" font-family="sans" font-size="10.00" fill="#000000">genome: GRCm38_90.CAST_masked</text>
</g>
<!-- 27&#45;&gt;34 -->
<g id="edge43" class="edge">
<title>27&#45;&gt;34</title>
<path fill="none" stroke="#c0c0c0" stroke-width="2" d="M528.6548,-655.8314C532.3005,-647.8771 536.6584,-638.369 540.6902,-629.5723"/>
<polygon fill="#c0c0c0" stroke="#c0c0c0" stroke-width="2" points="543.9032,-630.9622 544.8881,-620.4133 537.5398,-628.0456 543.9032,-630.9622"/>
</g>
<!-- 28&#45;&gt;27 -->
<g id="edge34" class="edge">
<title>28&#45;&gt;27</title>
<path fill="none" stroke="#c0c0c0" stroke-width="2" d="M520.3275,-727.8314C520.3275,-720.131 520.3275,-710.9743 520.3275,-702.4166"/>
<polygon fill="#c0c0c0" stroke="#c0c0c0" stroke-width="2" points="523.8276,-702.4132 520.3275,-692.4133 516.8276,-702.4133 523.8276,-702.4132"/>
</g>
<!-- 28&#45;&gt;32 -->
<g id="edge40" class="edge">
<title>28&#45;&gt;32</title>
<path fill="none" stroke="#c0c0c0" stroke-width="2" d="M477.4293,-727.8314C454.5918,-718.159 426.3295,-706.1891 402.2588,-695.9944"/>
<polygon fill="#c0c0c0" stroke="#c0c0c0" stroke-width="2" points="403.4904,-692.7151 392.9172,-692.038 400.7604,-699.1608 403.4904,-692.7151"/>
</g>
<!-- 29&#45;&gt;17 -->
<g id="edge20" class="edge">
<title>29&#45;&gt;17</title>
<path fill="none" stroke="#c0c0c0" stroke-width="2" d="M644.8517,-511.6676C653.8996,-491.7731 664.9404,-459.2054 656.3275,-432 653.246,-422.2664 647.7092,-412.7695 641.7986,-404.5228"/>
<polygon fill="#c0c0c0" stroke="#c0c0c0" stroke-width="2" points="644.4523,-402.2316 635.591,-396.4239 638.8965,-406.49 644.4523,-402.2316"/>
</g>
<!-- 33 -->
<g id="node34" class="node">
<title>33</title>
<path fill="none" stroke="#61d856" stroke-width="2" d="M635.5168,-472C635.5168,-472 489.1382,-472 489.1382,-472 483.1382,-472 477.1382,-466 477.1382,-460 477.1382,-460 477.1382,-448 477.1382,-448 477.1382,-442 483.1382,-436 489.1382,-436 489.1382,-436 635.5168,-436 635.5168,-436 641.5168,-436 647.5168,-442 647.5168,-448 647.5168,-448 647.5168,-460 647.5168,-460 647.5168,-466 641.5168,-472 635.5168,-472"/>
<text text-anchor="middle" x="562.3275" y="-457" font-family="sans" font-size="10.00" fill="#000000">samtools_index</text>
<text text-anchor="middle" x="562.3275" y="-445" font-family="sans" font-size="10.00" fill="#000000">file: ../nanopore/b6xcast.minion.sorted</text>
</g>
<!-- 29&#45;&gt;33 -->
<g id="edge42" class="edge">
<title>29&#45;&gt;33</title>
<path fill="none" stroke="#c0c0c0" stroke-width="2" d="M618.0275,-511.9891C608.7314,-502.3109 597.1124,-490.2144 586.8951,-479.5772"/>
<polygon fill="#c0c0c0" stroke="#c0c0c0" stroke-width="2" points="589.2078,-476.9325 579.7563,-472.145 584.1594,-481.7816 589.2078,-476.9325"/>
</g>
<!-- 30 -->
<g id="node31" class="node">
<title>30</title>
<path fill="none" stroke="#56d882" stroke-width="2" d="M810.7471,-836C810.7471,-836 693.9079,-836 693.9079,-836 687.9079,-836 681.9079,-830 681.9079,-824 681.9079,-824 681.9079,-812 681.9079,-812 681.9079,-806 687.9079,-800 693.9079,-800 693.9079,-800 810.7471,-800 810.7471,-800 816.7471,-800 822.7471,-806 822.7471,-812 822.7471,-812 822.7471,-824 822.7471,-824 822.7471,-830 816.7471,-836 810.7471,-836"/>
<text text-anchor="middle" x="752.3275" y="-815" font-family="sans" font-size="10.00" fill="#000000">download_fast5_b6xcast_0512</text>
</g>
<!-- 30&#45;&gt;3 -->
<g id="edge5" class="edge">
<title>30&#45;&gt;3</title>
<path fill="none" stroke="#c0c0c0" stroke-width="2" d="M752.3275,-799.8314C752.3275,-792.131 752.3275,-782.9743 752.3275,-774.4166"/>
<polygon fill="#c0c0c0" stroke="#c0c0c0" stroke-width="2" points="755.8276,-774.4132 752.3275,-764.4133 748.8276,-774.4133 755.8276,-774.4132"/>
</g>
<!-- 35 -->
<g id="node36" class="node">
<title>35</title>
<path fill="none" stroke="#68d856" stroke-width="2" d="M399.1746,-472C399.1746,-472 303.4804,-472 303.4804,-472 297.4804,-472 291.4804,-466 291.4804,-460 291.4804,-460 291.4804,-448 291.4804,-448 291.4804,-442 297.4804,-436 303.4804,-436 303.4804,-436 399.1746,-436 399.1746,-436 405.1746,-436 411.1746,-442 411.1746,-448 411.1746,-448 411.1746,-460 411.1746,-460 411.1746,-466 405.1746,-472 399.1746,-472"/>
<text text-anchor="middle" x="351.3275" y="-451" font-family="sans" font-size="10.00" fill="#000000">bismark_prepare_genome</text>
</g>
<!-- 31&#45;&gt;35 -->
<g id="edge44" class="edge">
<title>31&#45;&gt;35</title>
<path fill="none" stroke="#c0c0c0" stroke-width="2" d="M351.3275,-511.9891C351.3275,-503.1566 351.3275,-492.3099 351.3275,-482.3965"/>
<polygon fill="#c0c0c0" stroke="#c0c0c0" stroke-width="2" points="354.8276,-482.145 351.3275,-472.145 347.8276,-482.1451 354.8276,-482.145"/>
</g>
<!-- 32&#45;&gt;7 -->
<g id="edge7" class="edge">
<title>32&#45;&gt;7</title>
<path fill="none" stroke="#c0c0c0" stroke-width="2" d="M350.3275,-655.8314C350.3275,-648.131 350.3275,-638.9743 350.3275,-630.4166"/>
<polygon fill="#c0c0c0" stroke="#c0c0c0" stroke-width="2" points="353.8276,-630.4132 350.3275,-620.4133 346.8276,-630.4133 353.8276,-630.4132"/>
</g>
<!-- 33&#45;&gt;17 -->
<g id="edge19" class="edge">
<title>33&#45;&gt;17</title>
<path fill="none" stroke="#c0c0c0" stroke-width="2" d="M575.5987,-435.9891C582.5915,-426.4988 591.2977,-414.6833 599.0234,-404.1985"/>
<polygon fill="#c0c0c0" stroke="#c0c0c0" stroke-width="2" points="601.8431,-406.2718 604.9575,-396.145 596.2077,-402.1194 601.8431,-406.2718"/>
</g>
<!-- 34&#45;&gt;29 -->
<g id="edge37" class="edge">
<title>34&#45;&gt;29</title>
<path fill="none" stroke="#c0c0c0" stroke-width="2" d="M574.0196,-583.8314C584.0223,-575.0485 596.1825,-564.3712 607.0274,-554.8489"/>
<polygon fill="#c0c0c0" stroke="#c0c0c0" stroke-width="2" points="609.4369,-557.3909 614.6421,-548.1628 604.8183,-552.1308 609.4369,-557.3909"/>
</g>
<!-- 35&#45;&gt;10 -->
<g id="edge11" class="edge">
<title>35&#45;&gt;10</title>
<path fill="none" stroke="#c0c0c0" stroke-width="2" d="M351.3275,-435.9891C351.3275,-427.1566 351.3275,-416.3099 351.3275,-406.3965"/>
<polygon fill="#c0c0c0" stroke="#c0c0c0" stroke-width="2" points="354.8276,-406.145 351.3275,-396.145 347.8276,-406.1451 354.8276,-406.145"/>
</g>
</g>
</svg>
