<?xml version="1.0" encoding="UTF-8" standalone="no"?>
<!DOCTYPE svg PUBLIC "-//W3C//DTD SVG 1.1//EN"
 "http://www.w3.org/Graphics/SVG/1.1/DTD/svg11.dtd">
<!-- Generated by graphviz version 2.40.1 (20161225.0304)
 -->
<!-- Title: snakemake_dag Pages: 1 -->
<svg width="938pt" height="916pt"
 viewBox="0.00 0.00 937.68 916.00" xmlns="http://www.w3.org/2000/svg" xmlns:xlink="http://www.w3.org/1999/xlink">
<g id="graph0" class="graph" transform="scale(1 1) rotate(0) translate(4 912)">
<title>snakemake_dag</title>
<polygon fill="#ffffff" stroke="transparent" points="-4,4 -4,-912 933.6778,-912 933.6778,4 -4,4"/>
<!-- 0 -->
<g id="node1" class="node">
<title>0</title>
<path fill="none" stroke="#56d8d8" stroke-width="2" d="M132.182,-548C132.182,-548 73.8766,-548 73.8766,-548 67.8766,-548 61.8766,-542 61.8766,-536 61.8766,-536 61.8766,-524 61.8766,-524 61.8766,-518 67.8766,-512 73.8766,-512 73.8766,-512 132.182,-512 132.182,-512 138.182,-512 144.182,-518 144.182,-524 144.182,-524 144.182,-536 144.182,-536 144.182,-542 138.182,-548 132.182,-548"/>
<text text-anchor="middle" x="103.0293" y="-527" font-family="sans" font-size="10.00" fill="#000000">bwa_mem_align</text>
</g>
<!-- 12 -->
<g id="node13" class="node">
<title>12</title>
<path fill="none" stroke="#88d856" stroke-width="2" d="M320.7454,-472C320.7454,-472 143.3132,-472 143.3132,-472 137.3132,-472 131.3132,-466 131.3132,-460 131.3132,-460 131.3132,-448 131.3132,-448 131.3132,-442 137.3132,-436 143.3132,-436 143.3132,-436 320.7454,-436 320.7454,-436 326.7454,-436 332.7454,-442 332.7454,-448 332.7454,-448 332.7454,-460 332.7454,-460 332.7454,-466 326.7454,-472 320.7454,-472"/>
<text text-anchor="middle" x="232.0293" y="-457" font-family="sans" font-size="10.00" fill="#000000">samtools_index</text>
<text text-anchor="middle" x="232.0293" y="-445" font-family="sans" font-size="10.00" fill="#000000">file: ../nanopore/albacore_1.2.2.b6xcast.sorted</text>
</g>
<!-- 0&#45;&gt;12 -->
<g id="edge16" class="edge">
<title>0&#45;&gt;12</title>
<path fill="none" stroke="#c0c0c0" stroke-width="2" d="M133.6005,-511.9891C151.2241,-501.6062 173.5719,-488.44 192.5175,-477.2783"/>
<polygon fill="#c0c0c0" stroke="#c0c0c0" stroke-width="2" points="194.3912,-480.2367 201.2305,-472.145 190.8379,-474.2056 194.3912,-480.2367"/>
</g>
<!-- 13 -->
<g id="node14" class="node">
<title>13</title>
<path fill="none" stroke="#afd856" stroke-width="2" d="M424.1888,-396C424.1888,-396 335.8698,-396 335.8698,-396 329.8698,-396 323.8698,-390 323.8698,-384 323.8698,-384 323.8698,-372 323.8698,-372 323.8698,-366 329.8698,-360 335.8698,-360 335.8698,-360 424.1888,-360 424.1888,-360 430.1888,-360 436.1888,-366 436.1888,-372 436.1888,-372 436.1888,-384 436.1888,-384 436.1888,-390 430.1888,-396 424.1888,-396"/>
<text text-anchor="middle" x="380.0293" y="-375" font-family="sans" font-size="10.00" fill="#000000">nanopolish_methylation</text>
</g>
<!-- 0&#45;&gt;13 -->
<g id="edge17" class="edge">
<title>0&#45;&gt;13</title>
<path fill="none" stroke="#c0c0c0" stroke-width="2" d="M101.0431,-511.7444C99.7396,-489.7443 101.2297,-453.1102 122.0293,-432 148.3021,-405.3348 246.3641,-390.6973 313.7288,-383.6048"/>
<polygon fill="#c0c0c0" stroke="#c0c0c0" stroke-width="2" points="314.254,-387.0694 323.8467,-382.5715 313.5428,-380.1057 314.254,-387.0694"/>
</g>
<!-- 1 -->
<g id="node2" class="node">
<title>1</title>
<path fill="none" stroke="#56d8c1" stroke-width="2" d="M363.6163,-692C363.6163,-692 270.4423,-692 270.4423,-692 264.4423,-692 258.4423,-686 258.4423,-680 258.4423,-680 258.4423,-668 258.4423,-668 258.4423,-662 264.4423,-656 270.4423,-656 270.4423,-656 363.6163,-656 363.6163,-656 369.6163,-656 375.6163,-662 375.6163,-668 375.6163,-668 375.6163,-680 375.6163,-680 375.6163,-686 369.6163,-692 363.6163,-692"/>
<text text-anchor="middle" x="317.0293" y="-677" font-family="sans" font-size="10.00" fill="#000000">mask_with_cast_genome</text>
<text text-anchor="middle" x="317.0293" y="-665" font-family="sans" font-size="10.00" fill="#000000">genome: GRCm38_90</text>
</g>
<!-- 1&#45;&gt;0 -->
<g id="edge2" class="edge">
<title>1&#45;&gt;0</title>
<path fill="none" stroke="#c0c0c0" stroke-width="2" d="M258.3043,-672.4395C177.5198,-668.9128 38.4963,-657.4222 7.0293,-620 -3.268,-607.7539 -1.0482,-597.8114 7.0293,-584 17.141,-566.7105 35.049,-554.5292 52.6809,-546.1704"/>
<polygon fill="#c0c0c0" stroke="#c0c0c0" stroke-width="2" points="54.0913,-549.3737 61.8333,-542.1409 51.2707,-542.9671 54.0913,-549.3737"/>
</g>
<!-- 1&#45;&gt;13 -->
<g id="edge18" class="edge">
<title>1&#45;&gt;13</title>
<path fill="none" stroke="#c0c0c0" stroke-width="2" d="M375.8415,-665.9101C427.8769,-657.4047 498.1058,-642.1571 515.0293,-620 570.9738,-546.7547 467.5818,-447.6085 412.0022,-402.347"/>
<polygon fill="#c0c0c0" stroke="#c0c0c0" stroke-width="2" points="414.1647,-399.5948 404.1735,-396.0695 409.7857,-405.0559 414.1647,-399.5948"/>
</g>
<!-- 28 -->
<g id="node29" class="node">
<title>28</title>
<path fill="none" stroke="#d8a456" stroke-width="2" d="M173.9033,-620C173.9033,-620 28.1552,-620 28.1552,-620 22.1552,-620 16.1552,-614 16.1552,-608 16.1552,-608 16.1552,-596 16.1552,-596 16.1552,-590 22.1552,-584 28.1552,-584 28.1552,-584 173.9033,-584 173.9033,-584 179.9033,-584 185.9033,-590 185.9033,-596 185.9033,-596 185.9033,-608 185.9033,-608 185.9033,-614 179.9033,-620 173.9033,-620"/>
<text text-anchor="middle" x="101.0293" y="-605" font-family="sans" font-size="10.00" fill="#000000">bwa_index</text>
<text text-anchor="middle" x="101.0293" y="-593" font-family="sans" font-size="10.00" fill="#000000">genome: GRCm38_90.CAST_masked</text>
</g>
<!-- 1&#45;&gt;28 -->
<g id="edge35" class="edge">
<title>1&#45;&gt;28</title>
<path fill="none" stroke="#c0c0c0" stroke-width="2" d="M262.8022,-655.9243C233.1453,-646.0387 196.2256,-633.7321 165.1472,-623.3726"/>
<polygon fill="#c0c0c0" stroke="#c0c0c0" stroke-width="2" points="165.8724,-619.9251 155.2787,-620.0831 163.6587,-626.5659 165.8724,-619.9251"/>
</g>
<!-- 2 -->
<g id="node3" class="node">
<title>2</title>
<path fill="none" stroke="#d85656" stroke-width="2" d="M464.6334,-548C464.6334,-548 401.4252,-548 401.4252,-548 395.4252,-548 389.4252,-542 389.4252,-536 389.4252,-536 389.4252,-524 389.4252,-524 389.4252,-518 395.4252,-512 401.4252,-512 401.4252,-512 464.6334,-512 464.6334,-512 470.6334,-512 476.6334,-518 476.6334,-524 476.6334,-524 476.6334,-536 476.6334,-536 476.6334,-542 470.6334,-548 464.6334,-548"/>
<text text-anchor="middle" x="433.0293" y="-527" font-family="sans" font-size="10.00" fill="#000000">nanopolish_index</text>
</g>
<!-- 2&#45;&gt;13 -->
<g id="edge21" class="edge">
<title>2&#45;&gt;13</title>
<path fill="none" stroke="#c0c0c0" stroke-width="2" d="M426.7414,-511.9667C417.577,-485.684 400.4726,-436.63 389.6993,-405.7328"/>
<polygon fill="#c0c0c0" stroke="#c0c0c0" stroke-width="2" points="392.9064,-404.2999 386.309,-396.0098 386.2967,-406.6047 392.9064,-404.2999"/>
</g>
<!-- 3 -->
<g id="node4" class="node">
<title>3</title>
<path fill="none" stroke="#d85e56" stroke-width="2" d="M514.8096,-324C514.8096,-324 389.249,-324 389.249,-324 383.249,-324 377.249,-318 377.249,-312 377.249,-312 377.249,-300 377.249,-300 377.249,-294 383.249,-288 389.249,-288 389.249,-288 514.8096,-288 514.8096,-288 520.8096,-288 526.8096,-294 526.8096,-300 526.8096,-300 526.8096,-312 526.8096,-312 526.8096,-318 520.8096,-324 514.8096,-324"/>
<text text-anchor="middle" x="452.0293" y="-303" font-family="sans" font-size="10.00" fill="#000000">calculate_methylation_frequency</text>
</g>
<!-- 4 -->
<g id="node5" class="node">
<title>4</title>
<path fill="none" stroke="#d89556" stroke-width="2" d="M563.1899,-180C563.1899,-180 484.8687,-180 484.8687,-180 478.8687,-180 472.8687,-174 472.8687,-168 472.8687,-168 472.8687,-156 472.8687,-156 472.8687,-150 478.8687,-144 484.8687,-144 484.8687,-144 563.1899,-144 563.1899,-144 569.1899,-144 575.1899,-150 575.1899,-156 575.1899,-156 575.1899,-168 575.1899,-168 575.1899,-174 569.1899,-180 563.1899,-180"/>
<text text-anchor="middle" x="524.0293" y="-159" font-family="sans" font-size="10.00" fill="#000000">build_methylation_df</text>
</g>
<!-- 3&#45;&gt;4 -->
<g id="edge10" class="edge">
<title>3&#45;&gt;4</title>
<path fill="none" stroke="#c0c0c0" stroke-width="2" d="M461.1481,-287.7623C473.5911,-262.8764 495.9882,-218.0822 510.4211,-189.2165"/>
<polygon fill="#c0c0c0" stroke="#c0c0c0" stroke-width="2" points="513.6428,-190.5992 514.9845,-180.0896 507.3818,-187.4686 513.6428,-190.5992"/>
</g>
<!-- 5 -->
<g id="node6" class="node">
<title>5</title>
<path fill="none" stroke="#d8ac56" stroke-width="2" d="M590.6827,-108C590.6827,-108 457.3759,-108 457.3759,-108 451.3759,-108 445.3759,-102 445.3759,-96 445.3759,-96 445.3759,-84 445.3759,-84 445.3759,-78 451.3759,-72 457.3759,-72 457.3759,-72 590.6827,-72 590.6827,-72 596.6827,-72 602.6827,-78 602.6827,-84 602.6827,-84 602.6827,-96 602.6827,-96 602.6827,-102 596.6827,-108 590.6827,-108"/>
<text text-anchor="middle" x="524.0293" y="-87" font-family="sans" font-size="10.00" fill="#000000">nanopolish_methylation_validation</text>
</g>
<!-- 4&#45;&gt;5 -->
<g id="edge11" class="edge">
<title>4&#45;&gt;5</title>
<path fill="none" stroke="#c0c0c0" stroke-width="2" d="M524.0293,-143.8314C524.0293,-136.131 524.0293,-126.9743 524.0293,-118.4166"/>
<polygon fill="#c0c0c0" stroke="#c0c0c0" stroke-width="2" points="527.5294,-118.4132 524.0293,-108.4133 520.5294,-118.4133 527.5294,-118.4132"/>
</g>
<!-- 21 -->
<g id="node22" class="node">
<title>21</title>
<path fill="none" stroke="#d8b456" stroke-width="2" d="M775.6103,-108C775.6103,-108 632.4483,-108 632.4483,-108 626.4483,-108 620.4483,-102 620.4483,-96 620.4483,-96 620.4483,-84 620.4483,-84 620.4483,-78 626.4483,-72 632.4483,-72 632.4483,-72 775.6103,-72 775.6103,-72 781.6103,-72 787.6103,-78 787.6103,-84 787.6103,-84 787.6103,-96 787.6103,-96 787.6103,-102 781.6103,-108 775.6103,-108"/>
<text text-anchor="middle" x="704.0293" y="-87" font-family="sans" font-size="10.00" fill="#000000">genome_level_methylation_summary</text>
</g>
<!-- 4&#45;&gt;21 -->
<g id="edge27" class="edge">
<title>4&#45;&gt;21</title>
<path fill="none" stroke="#c0c0c0" stroke-width="2" d="M569.4509,-143.8314C593.7388,-134.1162 623.8215,-122.0831 649.3813,-111.8592"/>
<polygon fill="#c0c0c0" stroke="#c0c0c0" stroke-width="2" points="650.9494,-115.0016 658.9343,-108.038 648.3497,-108.5023 650.9494,-115.0016"/>
</g>
<!-- 8 -->
<g id="node9" class="node">
<title>8</title>
<path fill="none" stroke="#56d882" stroke-width="2" d="M652.5163,-36C652.5163,-36 575.5423,-36 575.5423,-36 569.5423,-36 563.5423,-30 563.5423,-24 563.5423,-24 563.5423,-12 563.5423,-12 563.5423,-6 569.5423,0 575.5423,0 575.5423,0 652.5163,0 652.5163,0 658.5163,0 664.5163,-6 664.5163,-12 664.5163,-12 664.5163,-24 664.5163,-24 664.5163,-30 658.5163,-36 652.5163,-36"/>
<text text-anchor="middle" x="614.0293" y="-15" font-family="sans" font-size="10.00" fill="#000000">methylation_analysis</text>
</g>
<!-- 5&#45;&gt;8 -->
<g id="edge13" class="edge">
<title>5&#45;&gt;8</title>
<path fill="none" stroke="#c0c0c0" stroke-width="2" d="M546.7401,-71.8314C557.8253,-62.9632 571.3247,-52.1637 583.3145,-42.5718"/>
<polygon fill="#c0c0c0" stroke="#c0c0c0" stroke-width="2" points="585.7035,-45.1429 591.3258,-36.1628 581.3306,-39.6768 585.7035,-45.1429"/>
</g>
<!-- 6 -->
<g id="node7" class="node">
<title>6</title>
<path fill="none" stroke="#80d856" stroke-width="2" d="M917.8267,-548C917.8267,-548 842.2318,-548 842.2318,-548 836.2318,-548 830.2318,-542 830.2318,-536 830.2318,-536 830.2318,-524 830.2318,-524 830.2318,-518 836.2318,-512 842.2318,-512 842.2318,-512 917.8267,-512 917.8267,-512 923.8267,-512 929.8267,-518 929.8267,-524 929.8267,-524 929.8267,-536 929.8267,-536 929.8267,-542 923.8267,-548 917.8267,-548"/>
<text text-anchor="middle" x="880.0293" y="-527" font-family="sans" font-size="10.00" fill="#000000">bismark_create_path</text>
</g>
<!-- 27 -->
<g id="node28" class="node">
<title>27</title>
<path fill="none" stroke="#61d856" stroke-width="2" d="M894.8764,-472C894.8764,-472 799.1822,-472 799.1822,-472 793.1822,-472 787.1822,-466 787.1822,-460 787.1822,-460 787.1822,-448 787.1822,-448 787.1822,-442 793.1822,-436 799.1822,-436 799.1822,-436 894.8764,-436 894.8764,-436 900.8764,-436 906.8764,-442 906.8764,-448 906.8764,-448 906.8764,-460 906.8764,-460 906.8764,-466 900.8764,-472 894.8764,-472"/>
<text text-anchor="middle" x="847.0293" y="-451" font-family="sans" font-size="10.00" fill="#000000">bismark_prepare_genome</text>
</g>
<!-- 6&#45;&gt;27 -->
<g id="edge34" class="edge">
<title>6&#45;&gt;27</title>
<path fill="none" stroke="#c0c0c0" stroke-width="2" d="M872.2088,-511.9891C868.2512,-502.8747 863.3623,-491.6155 858.9485,-481.4502"/>
<polygon fill="#c0c0c0" stroke="#c0c0c0" stroke-width="2" points="862.1014,-479.9236 854.9081,-472.145 855.6805,-482.7117 862.1014,-479.9236"/>
</g>
<!-- 7 -->
<g id="node8" class="node">
<title>7</title>
<path fill="none" stroke="#d8bc56" stroke-width="2" d="M731.5757,-252C731.5757,-252 684.4829,-252 684.4829,-252 678.4829,-252 672.4829,-246 672.4829,-240 672.4829,-240 672.4829,-228 672.4829,-228 672.4829,-222 678.4829,-216 684.4829,-216 684.4829,-216 731.5757,-216 731.5757,-216 737.5757,-216 743.5757,-222 743.5757,-228 743.5757,-228 743.5757,-240 743.5757,-240 743.5757,-246 737.5757,-252 731.5757,-252"/>
<text text-anchor="middle" x="708.0293" y="-231" font-family="sans" font-size="10.00" fill="#000000">download_gtf</text>
</g>
<!-- 11 -->
<g id="node12" class="node">
<title>11</title>
<path fill="none" stroke="#56d86b" stroke-width="2" d="M811.1633,-180C811.1633,-180 604.8953,-180 604.8953,-180 598.8953,-180 592.8953,-174 592.8953,-168 592.8953,-168 592.8953,-156 592.8953,-156 592.8953,-150 598.8953,-144 604.8953,-144 604.8953,-144 811.1633,-144 811.1633,-144 817.1633,-144 823.1633,-150 823.1633,-156 823.1633,-156 823.1633,-168 823.1633,-168 823.1633,-174 817.1633,-180 811.1633,-180"/>
<text text-anchor="middle" x="708.0293" y="-165" font-family="sans" font-size="10.00" fill="#000000">gunzip_gtf</text>
<text text-anchor="middle" x="708.0293" y="-153" font-family="sans" font-size="10.00" fill="#000000">file: ../genome_data/Mus_musculus.GRCm38_90.chr</text>
</g>
<!-- 7&#45;&gt;11 -->
<g id="edge15" class="edge">
<title>7&#45;&gt;11</title>
<path fill="none" stroke="#c0c0c0" stroke-width="2" d="M708.0293,-215.8314C708.0293,-208.131 708.0293,-198.9743 708.0293,-190.4166"/>
<polygon fill="#c0c0c0" stroke="#c0c0c0" stroke-width="2" points="711.5294,-190.4132 708.0293,-180.4133 704.5294,-190.4133 711.5294,-190.4132"/>
</g>
<!-- 9 -->
<g id="node10" class="node">
<title>9</title>
<path fill="none" stroke="#5682d8" stroke-width="2" d="M666.3066,-548C666.3066,-548 573.752,-548 573.752,-548 567.752,-548 561.752,-542 561.752,-536 561.752,-536 561.752,-524 561.752,-524 561.752,-518 567.752,-512 573.752,-512 573.752,-512 666.3066,-512 666.3066,-512 672.3066,-512 678.3066,-518 678.3066,-524 678.3066,-524 678.3066,-536 678.3066,-536 678.3066,-542 672.3066,-548 666.3066,-548"/>
<text text-anchor="middle" x="620.0293" y="-533" font-family="sans" font-size="10.00" fill="#000000">download_rrbs</text>
<text text-anchor="middle" x="620.0293" y="-521" font-family="sans" font-size="10.00" fill="#000000">sample: B6CastF1_1_R2</text>
</g>
<!-- 17 -->
<g id="node18" class="node">
<title>17</title>
<path fill="none" stroke="#56d89a" stroke-width="2" d="M723.6381,-476C723.6381,-476 648.4205,-476 648.4205,-476 642.4205,-476 636.4205,-470 636.4205,-464 636.4205,-464 636.4205,-444 636.4205,-444 636.4205,-438 642.4205,-432 648.4205,-432 648.4205,-432 723.6381,-432 723.6381,-432 729.6381,-432 735.6381,-438 735.6381,-444 735.6381,-444 735.6381,-464 735.6381,-464 735.6381,-470 729.6381,-476 723.6381,-476"/>
<text text-anchor="middle" x="686.0293" y="-463" font-family="sans" font-size="10.00" fill="#000000">trim_galore</text>
<text text-anchor="middle" x="686.0293" y="-451" font-family="sans" font-size="10.00" fill="#000000">outdir: bisulfite</text>
<text text-anchor="middle" x="686.0293" y="-439" font-family="sans" font-size="10.00" fill="#000000">sample: B6CastF1_1</text>
</g>
<!-- 9&#45;&gt;17 -->
<g id="edge23" class="edge">
<title>9&#45;&gt;17</title>
<path fill="none" stroke="#c0c0c0" stroke-width="2" d="M635.6704,-511.9891C642.9369,-503.6216 651.7732,-493.4464 660.0031,-483.9696"/>
<polygon fill="#c0c0c0" stroke="#c0c0c0" stroke-width="2" points="662.8116,-486.0735 666.7258,-476.2282 657.5263,-481.4837 662.8116,-486.0735"/>
</g>
<!-- 10 -->
<g id="node11" class="node">
<title>10</title>
<path fill="none" stroke="#56c1d8" stroke-width="2" d="M493.5441,-620C493.5441,-620 376.5145,-620 376.5145,-620 370.5145,-620 364.5145,-614 364.5145,-608 364.5145,-608 364.5145,-596 364.5145,-596 364.5145,-590 370.5145,-584 376.5145,-584 376.5145,-584 493.5441,-584 493.5441,-584 499.5441,-584 505.5441,-590 505.5441,-596 505.5441,-596 505.5441,-608 505.5441,-608 505.5441,-614 499.5441,-620 493.5441,-620"/>
<text text-anchor="middle" x="435.0293" y="-605" font-family="sans" font-size="10.00" fill="#000000">download_fast5</text>
<text text-anchor="middle" x="435.0293" y="-593" font-family="sans" font-size="10.00" fill="#000000">sample: albacore_1.2.2.b6xcast</text>
</g>
<!-- 10&#45;&gt;2 -->
<g id="edge7" class="edge">
<title>10&#45;&gt;2</title>
<path fill="none" stroke="#c0c0c0" stroke-width="2" d="M434.5246,-583.8314C434.3107,-576.131 434.0564,-566.9743 433.8186,-558.4166"/>
<polygon fill="#c0c0c0" stroke="#c0c0c0" stroke-width="2" points="437.3172,-558.3122 433.5408,-548.4133 430.3199,-558.5066 437.3172,-558.3122"/>
</g>
<!-- 11&#45;&gt;21 -->
<g id="edge28" class="edge">
<title>11&#45;&gt;21</title>
<path fill="none" stroke="#c0c0c0" stroke-width="2" d="M707.0199,-143.8314C706.5921,-136.131 706.0834,-126.9743 705.608,-118.4166"/>
<polygon fill="#c0c0c0" stroke="#c0c0c0" stroke-width="2" points="709.1017,-118.2037 705.0522,-108.4133 702.1124,-118.592 709.1017,-118.2037"/>
</g>
<!-- 12&#45;&gt;13 -->
<g id="edge20" class="edge">
<title>12&#45;&gt;13</title>
<path fill="none" stroke="#c0c0c0" stroke-width="2" d="M267.1032,-435.9891C287.6718,-425.4268 313.8494,-411.9843 335.8208,-400.7017"/>
<polygon fill="#c0c0c0" stroke="#c0c0c0" stroke-width="2" points="337.6541,-403.6948 344.951,-396.0132 334.4564,-397.4678 337.6541,-403.6948"/>
</g>
<!-- 13&#45;&gt;3 -->
<g id="edge8" class="edge">
<title>13&#45;&gt;3</title>
<path fill="none" stroke="#c0c0c0" stroke-width="2" d="M398.1979,-359.8314C406.7445,-351.2848 417.085,-340.9443 426.4095,-331.6198"/>
<polygon fill="#c0c0c0" stroke="#c0c0c0" stroke-width="2" points="429.0198,-333.9592 433.616,-324.4133 424.07,-329.0095 429.0198,-333.9592"/>
</g>
<!-- 14 -->
<g id="node15" class="node">
<title>14</title>
<path fill="none" stroke="#ced856" stroke-width="2" d="M545.2925,-908C545.2925,-908 460.766,-908 460.766,-908 454.766,-908 448.766,-902 448.766,-896 448.766,-896 448.766,-884 448.766,-884 448.766,-878 454.766,-872 460.766,-872 460.766,-872 545.2925,-872 545.2925,-872 551.2925,-872 557.2925,-878 557.2925,-884 557.2925,-884 557.2925,-896 557.2925,-896 557.2925,-902 551.2925,-908 545.2925,-908"/>
<text text-anchor="middle" x="503.0293" y="-887" font-family="sans" font-size="10.00" fill="#000000">download_B6_genome</text>
</g>
<!-- 26 -->
<g id="node27" class="node">
<title>26</title>
<path fill="none" stroke="#5663d8" stroke-width="2" d="M566.8424,-836C566.8424,-836 439.2162,-836 439.2162,-836 433.2162,-836 427.2162,-830 427.2162,-824 427.2162,-824 427.2162,-812 427.2162,-812 427.2162,-806 433.2162,-800 439.2162,-800 439.2162,-800 566.8424,-800 566.8424,-800 572.8424,-800 578.8424,-806 578.8424,-812 578.8424,-812 578.8424,-824 578.8424,-824 578.8424,-830 572.8424,-836 566.8424,-836"/>
<text text-anchor="middle" x="503.0293" y="-821" font-family="sans" font-size="10.00" fill="#000000">gunzip_fa</text>
<text text-anchor="middle" x="503.0293" y="-809" font-family="sans" font-size="10.00" fill="#000000">file: ../genome_data/GRCm38_90</text>
</g>
<!-- 14&#45;&gt;26 -->
<g id="edge33" class="edge">
<title>14&#45;&gt;26</title>
<path fill="none" stroke="#c0c0c0" stroke-width="2" d="M503.0293,-871.8314C503.0293,-864.131 503.0293,-854.9743 503.0293,-846.4166"/>
<polygon fill="#c0c0c0" stroke="#c0c0c0" stroke-width="2" points="506.5294,-846.4132 503.0293,-836.4133 499.5294,-846.4133 506.5294,-846.4132"/>
</g>
<!-- 15 -->
<g id="node16" class="node">
<title>15</title>
<path fill="none" stroke="#b6d856" stroke-width="2" d="M333.5441,-620C333.5441,-620 216.5145,-620 216.5145,-620 210.5145,-620 204.5145,-614 204.5145,-608 204.5145,-608 204.5145,-596 204.5145,-596 204.5145,-590 210.5145,-584 216.5145,-584 216.5145,-584 333.5441,-584 333.5441,-584 339.5441,-584 345.5441,-590 345.5441,-596 345.5441,-596 345.5441,-608 345.5441,-608 345.5441,-614 339.5441,-620 333.5441,-620"/>
<text text-anchor="middle" x="275.0293" y="-605" font-family="sans" font-size="10.00" fill="#000000">download_nanopore</text>
<text text-anchor="middle" x="275.0293" y="-593" font-family="sans" font-size="10.00" fill="#000000">sample: albacore_1.2.2.b6xcast</text>
</g>
<!-- 15&#45;&gt;0 -->
<g id="edge3" class="edge">
<title>15&#45;&gt;0</title>
<path fill="none" stroke="#c0c0c0" stroke-width="2" d="M231.6264,-583.8314C207.8885,-573.8945 178.3578,-561.5329 153.5838,-551.1624"/>
<polygon fill="#c0c0c0" stroke="#c0c0c0" stroke-width="2" points="154.9197,-547.9273 144.3438,-547.2945 152.2167,-554.3844 154.9197,-547.9273"/>
</g>
<!-- 15&#45;&gt;2 -->
<g id="edge6" class="edge">
<title>15&#45;&gt;2</title>
<path fill="none" stroke="#c0c0c0" stroke-width="2" d="M314.8994,-583.8314C335.937,-574.2446 361.9276,-562.4008 384.1689,-552.2655"/>
<polygon fill="#c0c0c0" stroke="#c0c0c0" stroke-width="2" points="385.7976,-555.3697 393.4459,-548.038 382.8948,-548.9999 385.7976,-555.3697"/>
</g>
<!-- 15&#45;&gt;13 -->
<g id="edge19" class="edge">
<title>15&#45;&gt;13</title>
<path fill="none" stroke="#c0c0c0" stroke-width="2" d="M285.4871,-583.9798C299.2997,-559.8268 323.9821,-515.4223 342.0293,-476 352.6372,-452.828 362.9802,-425.7728 370.1904,-405.9674"/>
<polygon fill="#c0c0c0" stroke="#c0c0c0" stroke-width="2" points="373.5656,-406.9246 373.66,-396.3302 366.9795,-404.5533 373.5656,-406.9246"/>
</g>
<!-- 16 -->
<g id="node17" class="node">
<title>16</title>
<path fill="none" stroke="#9fd856" stroke-width="2" d="M630.1263,-252C630.1263,-252 551.9322,-252 551.9322,-252 545.9322,-252 539.9322,-246 539.9322,-240 539.9322,-240 539.9322,-228 539.9322,-228 539.9322,-222 545.9322,-216 551.9322,-216 551.9322,-216 630.1263,-216 630.1263,-216 636.1263,-216 642.1263,-222 642.1263,-228 642.1263,-228 642.1263,-240 642.1263,-240 642.1263,-246 636.1263,-252 630.1263,-252"/>
<text text-anchor="middle" x="591.0293" y="-231" font-family="sans" font-size="10.00" fill="#000000">merge_bisulfite_BC7</text>
</g>
<!-- 16&#45;&gt;4 -->
<g id="edge9" class="edge">
<title>16&#45;&gt;4</title>
<path fill="none" stroke="#c0c0c0" stroke-width="2" d="M574.1224,-215.8314C566.248,-207.3694 556.7373,-197.1489 548.128,-187.8971"/>
<polygon fill="#c0c0c0" stroke="#c0c0c0" stroke-width="2" points="550.5384,-185.3497 541.1639,-180.4133 545.4139,-190.1183 550.5384,-185.3497"/>
</g>
<!-- 25 -->
<g id="node26" class="node">
<title>25</title>
<path fill="none" stroke="#56b1d8" stroke-width="2" d="M710.7416,-396C710.7416,-396 661.317,-396 661.317,-396 655.317,-396 649.317,-390 649.317,-384 649.317,-384 649.317,-372 649.317,-372 649.317,-366 655.317,-360 661.317,-360 661.317,-360 710.7416,-360 710.7416,-360 716.7416,-360 722.7416,-366 722.7416,-372 722.7416,-372 722.7416,-384 722.7416,-384 722.7416,-390 716.7416,-396 710.7416,-396"/>
<text text-anchor="middle" x="686.0293" y="-375" font-family="sans" font-size="10.00" fill="#000000">bismark_align</text>
</g>
<!-- 17&#45;&gt;25 -->
<g id="edge31" class="edge">
<title>17&#45;&gt;25</title>
<path fill="none" stroke="#c0c0c0" stroke-width="2" d="M686.0293,-431.6086C686.0293,-423.7272 686.0293,-414.7616 686.0293,-406.4482"/>
<polygon fill="#c0c0c0" stroke="#c0c0c0" stroke-width="2" points="689.5294,-406.3974 686.0293,-396.3975 682.5294,-406.3975 689.5294,-406.3974"/>
</g>
<!-- 18 -->
<g id="node19" class="node">
<title>18</title>
<path fill="none" stroke="#c6d856" stroke-width="2" d="M579.2265,-764C579.2265,-764 504.8321,-764 504.8321,-764 498.8321,-764 492.8321,-758 492.8321,-752 492.8321,-752 492.8321,-740 492.8321,-740 492.8321,-734 498.8321,-728 504.8321,-728 504.8321,-728 579.2265,-728 579.2265,-728 585.2265,-728 591.2265,-734 591.2265,-740 591.2265,-740 591.2265,-752 591.2265,-752 591.2265,-758 585.2265,-764 579.2265,-764"/>
<text text-anchor="middle" x="542.0293" y="-743" font-family="sans" font-size="10.00" fill="#000000">snpsplit_create_path</text>
</g>
<!-- 29 -->
<g id="node30" class="node">
<title>29</title>
<path fill="none" stroke="#d8cb56" stroke-width="2" d="M589.2766,-692C589.2766,-692 494.782,-692 494.782,-692 488.782,-692 482.782,-686 482.782,-680 482.782,-680 482.782,-668 482.782,-668 482.782,-662 488.782,-656 494.782,-656 494.782,-656 589.2766,-656 589.2766,-656 595.2766,-656 601.2766,-662 601.2766,-668 601.2766,-668 601.2766,-680 601.2766,-680 601.2766,-686 595.2766,-692 589.2766,-692"/>
<text text-anchor="middle" x="542.0293" y="-671" font-family="sans" font-size="10.00" fill="#000000">snpsplit_prepare_genome</text>
</g>
<!-- 18&#45;&gt;29 -->
<g id="edge36" class="edge">
<title>18&#45;&gt;29</title>
<path fill="none" stroke="#c0c0c0" stroke-width="2" d="M542.0293,-727.8314C542.0293,-720.131 542.0293,-710.9743 542.0293,-702.4166"/>
<polygon fill="#c0c0c0" stroke="#c0c0c0" stroke-width="2" points="545.5294,-702.4132 542.0293,-692.4133 538.5294,-702.4133 545.5294,-702.4132"/>
</g>
<!-- 19 -->
<g id="node20" class="node">
<title>19</title>
<path fill="none" stroke="#56b9d8" stroke-width="2" d="M802.3974,-620C802.3974,-620 701.6612,-620 701.6612,-620 695.6612,-620 689.6612,-614 689.6612,-608 689.6612,-608 689.6612,-596 689.6612,-596 689.6612,-590 695.6612,-584 701.6612,-584 701.6612,-584 802.3974,-584 802.3974,-584 808.3974,-584 814.3974,-590 814.3974,-596 814.3974,-596 814.3974,-608 814.3974,-608 814.3974,-614 808.3974,-620 802.3974,-620"/>
<text text-anchor="middle" x="752.0293" y="-599" font-family="sans" font-size="10.00" fill="#000000">clean_up_snpsplit_genome</text>
</g>
<!-- 19&#45;&gt;6 -->
<g id="edge12" class="edge">
<title>19&#45;&gt;6</title>
<path fill="none" stroke="#c0c0c0" stroke-width="2" d="M784.3291,-583.8314C800.8527,-574.5368 821.1478,-563.1208 838.79,-553.1971"/>
<polygon fill="#c0c0c0" stroke="#c0c0c0" stroke-width="2" points="840.74,-556.116 847.7398,-548.1628 837.3081,-550.015 840.74,-556.116"/>
</g>
<!-- 20 -->
<g id="node21" class="node">
<title>20</title>
<path fill="none" stroke="#d8c356" stroke-width="2" d="M348.3565,-836C348.3565,-836 285.7021,-836 285.7021,-836 279.7021,-836 273.7021,-830 273.7021,-824 273.7021,-824 273.7021,-812 273.7021,-812 273.7021,-806 279.7021,-800 285.7021,-800 285.7021,-800 348.3565,-800 348.3565,-800 354.3565,-800 360.3565,-806 360.3565,-812 360.3565,-812 360.3565,-824 360.3565,-824 360.3565,-830 354.3565,-836 348.3565,-836"/>
<text text-anchor="middle" x="317.0293" y="-821" font-family="sans" font-size="10.00" fill="#000000">download_vcf</text>
<text text-anchor="middle" x="317.0293" y="-809" font-family="sans" font-size="10.00" fill="#000000">strain: CAST_EiJ</text>
</g>
<!-- 22 -->
<g id="node23" class="node">
<title>22</title>
<path fill="none" stroke="#5692d8" stroke-width="2" d="M425.2335,-764C425.2335,-764 208.8251,-764 208.8251,-764 202.8251,-764 196.8251,-758 196.8251,-752 196.8251,-752 196.8251,-740 196.8251,-740 196.8251,-734 202.8251,-728 208.8251,-728 208.8251,-728 425.2335,-728 425.2335,-728 431.2335,-728 437.2335,-734 437.2335,-740 437.2335,-740 437.2335,-752 437.2335,-752 437.2335,-758 431.2335,-764 425.2335,-764"/>
<text text-anchor="middle" x="317.0293" y="-749" font-family="sans" font-size="10.00" fill="#000000">gunzip_vcf</text>
<text text-anchor="middle" x="317.0293" y="-737" font-family="sans" font-size="10.00" fill="#000000">file: ../genome_data/CAST_EiJ.mgp.v5.snps.dbSNP142</text>
</g>
<!-- 20&#45;&gt;22 -->
<g id="edge29" class="edge">
<title>20&#45;&gt;22</title>
<path fill="none" stroke="#c0c0c0" stroke-width="2" d="M317.0293,-799.8314C317.0293,-792.131 317.0293,-782.9743 317.0293,-774.4166"/>
<polygon fill="#c0c0c0" stroke="#c0c0c0" stroke-width="2" points="320.5294,-774.4132 317.0293,-764.4133 313.5294,-774.4133 320.5294,-774.4132"/>
</g>
<!-- 21&#45;&gt;8 -->
<g id="edge14" class="edge">
<title>21&#45;&gt;8</title>
<path fill="none" stroke="#c0c0c0" stroke-width="2" d="M681.3185,-71.8314C670.2333,-62.9632 656.7339,-52.1637 644.7441,-42.5718"/>
<polygon fill="#c0c0c0" stroke="#c0c0c0" stroke-width="2" points="646.728,-39.6768 636.7328,-36.1628 642.3551,-45.1429 646.728,-39.6768"/>
</g>
<!-- 22&#45;&gt;1 -->
<g id="edge5" class="edge">
<title>22&#45;&gt;1</title>
<path fill="none" stroke="#c0c0c0" stroke-width="2" d="M317.0293,-727.8314C317.0293,-720.131 317.0293,-710.9743 317.0293,-702.4166"/>
<polygon fill="#c0c0c0" stroke="#c0c0c0" stroke-width="2" points="320.5294,-702.4132 317.0293,-692.4133 313.5294,-702.4133 320.5294,-702.4132"/>
</g>
<!-- 22&#45;&gt;29 -->
<g id="edge37" class="edge">
<title>22&#45;&gt;29</title>
<path fill="none" stroke="#c0c0c0" stroke-width="2" d="M373.5159,-727.9243C404.5421,-717.9959 443.1996,-705.6255 475.6599,-695.2382"/>
<polygon fill="#c0c0c0" stroke="#c0c0c0" stroke-width="2" points="477.062,-698.4645 485.5195,-692.0831 474.9285,-691.7975 477.062,-698.4645"/>
</g>
<!-- 23 -->
<g id="node24" class="node">
<title>23</title>
<path fill="none" stroke="#5682d8" stroke-width="2" d="M800.3066,-548C800.3066,-548 707.752,-548 707.752,-548 701.752,-548 695.752,-542 695.752,-536 695.752,-536 695.752,-524 695.752,-524 695.752,-518 701.752,-512 707.752,-512 707.752,-512 800.3066,-512 800.3066,-512 806.3066,-512 812.3066,-518 812.3066,-524 812.3066,-524 812.3066,-536 812.3066,-536 812.3066,-542 806.3066,-548 800.3066,-548"/>
<text text-anchor="middle" x="754.0293" y="-533" font-family="sans" font-size="10.00" fill="#000000">download_rrbs</text>
<text text-anchor="middle" x="754.0293" y="-521" font-family="sans" font-size="10.00" fill="#000000">sample: B6CastF1_1_R1</text>
</g>
<!-- 23&#45;&gt;17 -->
<g id="edge24" class="edge">
<title>23&#45;&gt;17</title>
<path fill="none" stroke="#c0c0c0" stroke-width="2" d="M737.9142,-511.9891C730.3527,-503.5379 721.1412,-493.2428 712.59,-483.6855"/>
<polygon fill="#c0c0c0" stroke="#c0c0c0" stroke-width="2" points="715.194,-481.3469 705.9177,-476.2282 709.9773,-486.0144 715.194,-481.3469"/>
</g>
<!-- 24 -->
<g id="node25" class="node">
<title>24</title>
<path fill="none" stroke="#d86656" stroke-width="2" d="M703.0709,-324C703.0709,-324 560.9877,-324 560.9877,-324 554.9877,-324 548.9877,-318 548.9877,-312 548.9877,-312 548.9877,-300 548.9877,-300 548.9877,-294 554.9877,-288 560.9877,-288 560.9877,-288 703.0709,-288 703.0709,-288 709.0709,-288 715.0709,-294 715.0709,-300 715.0709,-300 715.0709,-312 715.0709,-312 715.0709,-318 709.0709,-324 703.0709,-324"/>
<text text-anchor="middle" x="632.0293" y="-309" font-family="sans" font-size="10.00" fill="#000000">bismark_extract</text>
<text text-anchor="middle" x="632.0293" y="-297" font-family="sans" font-size="10.00" fill="#000000">sample: B6CastF1_1.bismark_bt2_pe</text>
</g>
<!-- 24&#45;&gt;16 -->
<g id="edge22" class="edge">
<title>24&#45;&gt;16</title>
<path fill="none" stroke="#c0c0c0" stroke-width="2" d="M621.6833,-287.8314C617.1056,-279.7925 611.6241,-270.1666 606.5704,-261.2918"/>
<polygon fill="#c0c0c0" stroke="#c0c0c0" stroke-width="2" points="609.5045,-259.3712 601.5146,-252.4133 603.4216,-262.8351 609.5045,-259.3712"/>
</g>
<!-- 25&#45;&gt;24 -->
<g id="edge30" class="edge">
<title>25&#45;&gt;24</title>
<path fill="none" stroke="#c0c0c0" stroke-width="2" d="M672.4028,-359.8314C666.1833,-351.5386 658.6971,-341.557 651.8693,-332.4533"/>
<polygon fill="#c0c0c0" stroke="#c0c0c0" stroke-width="2" points="654.6393,-330.3133 645.8392,-324.4133 649.0393,-334.5133 654.6393,-330.3133"/>
</g>
<!-- 26&#45;&gt;1 -->
<g id="edge4" class="edge">
<title>26&#45;&gt;1</title>
<path fill="none" stroke="#c0c0c0" stroke-width="2" d="M495.5449,-799.7957C486.4884,-779.7713 469.4849,-747.81 446.0293,-728 428.4965,-713.1923 406.3242,-701.9576 385.3287,-693.6762"/>
<polygon fill="#c0c0c0" stroke="#c0c0c0" stroke-width="2" points="386.3776,-690.3312 375.7859,-690.0767 383.9072,-696.8807 386.3776,-690.3312"/>
</g>
<!-- 26&#45;&gt;18 -->
<g id="edge25" class="edge">
<title>26&#45;&gt;18</title>
<path fill="none" stroke="#c0c0c0" stroke-width="2" d="M512.8706,-799.8314C517.225,-791.7925 522.4391,-782.1666 527.2462,-773.2918"/>
<polygon fill="#c0c0c0" stroke="#c0c0c0" stroke-width="2" points="530.3701,-774.8732 532.0554,-764.4133 524.215,-771.5392 530.3701,-774.8732"/>
</g>
<!-- 27&#45;&gt;25 -->
<g id="edge32" class="edge">
<title>27&#45;&gt;25</title>
<path fill="none" stroke="#c0c0c0" stroke-width="2" d="M808.8745,-435.9891C785.7873,-425.0908 756.204,-411.1259 731.8537,-399.6314"/>
<polygon fill="#c0c0c0" stroke="#c0c0c0" stroke-width="2" points="733.3391,-396.4623 722.8019,-395.3585 730.351,-402.7925 733.3391,-396.4623"/>
</g>
<!-- 28&#45;&gt;0 -->
<g id="edge1" class="edge">
<title>28&#45;&gt;0</title>
<path fill="none" stroke="#c0c0c0" stroke-width="2" d="M101.534,-583.8314C101.7479,-576.131 102.0022,-566.9743 102.2399,-558.4166"/>
<polygon fill="#c0c0c0" stroke="#c0c0c0" stroke-width="2" points="105.7387,-558.5066 102.5178,-548.4133 98.7414,-558.3122 105.7387,-558.5066"/>
</g>
<!-- 29&#45;&gt;19 -->
<g id="edge26" class="edge">
<title>29&#45;&gt;19</title>
<path fill="none" stroke="#c0c0c0" stroke-width="2" d="M594.7501,-655.9243C623.5831,-646.0387 659.4774,-633.7321 689.6924,-623.3726"/>
<polygon fill="#c0c0c0" stroke="#c0c0c0" stroke-width="2" points="690.9625,-626.6373 699.2868,-620.0831 688.6922,-620.0156 690.9625,-626.6373"/>
</g>
</g>
</svg>
