<?xml version="1.0" encoding="UTF-8" standalone="no"?>
<!DOCTYPE svg PUBLIC "-//W3C//DTD SVG 1.1//EN"
 "http://www.w3.org/Graphics/SVG/1.1/DTD/svg11.dtd">
<!-- Generated by graphviz version 2.40.1 (20161225.0304)
 -->
<!-- Title: snakemake_dag Pages: 1 -->
<svg width="829pt" height="916pt"
 viewBox="0.00 0.00 829.20 916.00" xmlns="http://www.w3.org/2000/svg" xmlns:xlink="http://www.w3.org/1999/xlink">
<g id="graph0" class="graph" transform="scale(1 1) rotate(0) translate(4 912)">
<title>snakemake_dag</title>
<polygon fill="#ffffff" stroke="transparent" points="-4,4 -4,-912 825.205,-912 825.205,4 -4,4"/>
<!-- 0 -->
<g id="node1" class="node">
<title>0</title>
<path fill="none" stroke="#56d8c1" stroke-width="2" d="M519.4616,-836C519.4616,-836 391.8354,-836 391.8354,-836 385.8354,-836 379.8354,-830 379.8354,-824 379.8354,-824 379.8354,-812 379.8354,-812 379.8354,-806 385.8354,-800 391.8354,-800 391.8354,-800 519.4616,-800 519.4616,-800 525.4616,-800 531.4616,-806 531.4616,-812 531.4616,-812 531.4616,-824 531.4616,-824 531.4616,-830 525.4616,-836 519.4616,-836"/>
<text text-anchor="middle" x="455.6485" y="-821" font-family="sans" font-size="10.00" fill="#000000">gunzip_fa</text>
<text text-anchor="middle" x="455.6485" y="-809" font-family="sans" font-size="10.00" fill="#000000">file: ../genome_data/GRCm38_90</text>
</g>
<!-- 20 -->
<g id="node21" class="node">
<title>20</title>
<path fill="none" stroke="#567bd8" stroke-width="2" d="M453.8457,-764C453.8457,-764 379.4513,-764 379.4513,-764 373.4513,-764 367.4513,-758 367.4513,-752 367.4513,-752 367.4513,-740 367.4513,-740 367.4513,-734 373.4513,-728 379.4513,-728 379.4513,-728 453.8457,-728 453.8457,-728 459.8457,-728 465.8457,-734 465.8457,-740 465.8457,-740 465.8457,-752 465.8457,-752 465.8457,-758 459.8457,-764 453.8457,-764"/>
<text text-anchor="middle" x="416.6485" y="-743" font-family="sans" font-size="10.00" fill="#000000">snpsplit_create_path</text>
</g>
<!-- 0&#45;&gt;20 -->
<g id="edge28" class="edge">
<title>0&#45;&gt;20</title>
<path fill="none" stroke="#c0c0c0" stroke-width="2" d="M445.8072,-799.8314C441.4528,-791.7925 436.2387,-782.1666 431.4316,-773.2918"/>
<polygon fill="#c0c0c0" stroke="#c0c0c0" stroke-width="2" points="434.4628,-771.5392 426.6224,-764.4133 428.3077,-774.8732 434.4628,-771.5392"/>
</g>
<!-- 27 -->
<g id="node28" class="node">
<title>27</title>
<path fill="none" stroke="#56c1d8" stroke-width="2" d="M688.2355,-692C688.2355,-692 595.0615,-692 595.0615,-692 589.0615,-692 583.0615,-686 583.0615,-680 583.0615,-680 583.0615,-668 583.0615,-668 583.0615,-662 589.0615,-656 595.0615,-656 595.0615,-656 688.2355,-656 688.2355,-656 694.2355,-656 700.2355,-662 700.2355,-668 700.2355,-668 700.2355,-680 700.2355,-680 700.2355,-686 694.2355,-692 688.2355,-692"/>
<text text-anchor="middle" x="641.6485" y="-677" font-family="sans" font-size="10.00" fill="#000000">mask_with_cast_genome</text>
<text text-anchor="middle" x="641.6485" y="-665" font-family="sans" font-size="10.00" fill="#000000">genome: GRCm38_90</text>
</g>
<!-- 0&#45;&gt;27 -->
<g id="edge33" class="edge">
<title>0&#45;&gt;27</title>
<path fill="none" stroke="#c0c0c0" stroke-width="2" d="M463.1329,-799.7957C472.1894,-779.7713 489.1928,-747.81 512.6485,-728 530.1813,-713.1923 552.3536,-701.9576 573.3491,-693.6762"/>
<polygon fill="#c0c0c0" stroke="#c0c0c0" stroke-width="2" points="574.7706,-696.8807 582.8919,-690.0767 572.3001,-690.3312 574.7706,-696.8807"/>
</g>
<!-- 1 -->
<g id="node2" class="node">
<title>1</title>
<path fill="none" stroke="#d85656" stroke-width="2" d="M130.4956,-472C130.4956,-472 34.8014,-472 34.8014,-472 28.8014,-472 22.8014,-466 22.8014,-460 22.8014,-460 22.8014,-448 22.8014,-448 22.8014,-442 28.8014,-436 34.8014,-436 34.8014,-436 130.4956,-436 130.4956,-436 136.4956,-436 142.4956,-442 142.4956,-448 142.4956,-448 142.4956,-460 142.4956,-460 142.4956,-466 136.4956,-472 130.4956,-472"/>
<text text-anchor="middle" x="82.6485" y="-451" font-family="sans" font-size="10.00" fill="#000000">bismark_prepare_genome</text>
</g>
<!-- 23 -->
<g id="node24" class="node">
<title>23</title>
<path fill="none" stroke="#b6d856" stroke-width="2" d="M268.3608,-396C268.3608,-396 218.9362,-396 218.9362,-396 212.9362,-396 206.9362,-390 206.9362,-384 206.9362,-384 206.9362,-372 206.9362,-372 206.9362,-366 212.9362,-360 218.9362,-360 218.9362,-360 268.3608,-360 268.3608,-360 274.3608,-360 280.3608,-366 280.3608,-372 280.3608,-372 280.3608,-384 280.3608,-384 280.3608,-390 274.3608,-396 268.3608,-396"/>
<text text-anchor="middle" x="243.6485" y="-375" font-family="sans" font-size="10.00" fill="#000000">bismark_align</text>
</g>
<!-- 1&#45;&gt;23 -->
<g id="edge31" class="edge">
<title>1&#45;&gt;23</title>
<path fill="none" stroke="#c0c0c0" stroke-width="2" d="M120.8033,-435.9891C143.8904,-425.0908 173.4738,-411.1259 197.8241,-399.6314"/>
<polygon fill="#c0c0c0" stroke="#c0c0c0" stroke-width="2" points="199.3268,-402.7925 206.8758,-395.3585 196.3386,-396.4623 199.3268,-402.7925"/>
</g>
<!-- 2 -->
<g id="node3" class="node">
<title>2</title>
<path fill="none" stroke="#bed856" stroke-width="2" d="M659.8012,-548C659.8012,-548 601.4958,-548 601.4958,-548 595.4958,-548 589.4958,-542 589.4958,-536 589.4958,-536 589.4958,-524 589.4958,-524 589.4958,-518 595.4958,-512 601.4958,-512 601.4958,-512 659.8012,-512 659.8012,-512 665.8012,-512 671.8012,-518 671.8012,-524 671.8012,-524 671.8012,-536 671.8012,-536 671.8012,-542 665.8012,-548 659.8012,-548"/>
<text text-anchor="middle" x="630.6485" y="-527" font-family="sans" font-size="10.00" fill="#000000">bwa_mem_align</text>
</g>
<!-- 15 -->
<g id="node16" class="node">
<title>15</title>
<path fill="none" stroke="#d88556" stroke-width="2" d="M609.808,-396C609.808,-396 521.489,-396 521.489,-396 515.489,-396 509.489,-390 509.489,-384 509.489,-384 509.489,-372 509.489,-372 509.489,-366 515.489,-360 521.489,-360 521.489,-360 609.808,-360 609.808,-360 615.808,-360 621.808,-366 621.808,-372 621.808,-372 621.808,-384 621.808,-384 621.808,-390 615.808,-396 609.808,-396"/>
<text text-anchor="middle" x="565.6485" y="-375" font-family="sans" font-size="10.00" fill="#000000">nanopolish_methylation</text>
</g>
<!-- 2&#45;&gt;15 -->
<g id="edge21" class="edge">
<title>2&#45;&gt;15</title>
<path fill="none" stroke="#c0c0c0" stroke-width="2" d="M672.0647,-521.2125C696.5794,-513.6517 725.6853,-500.0145 740.6485,-476 750.9901,-459.4027 752.2602,-447.735 740.6485,-432 727.3808,-414.0209 675.9308,-399.5065 632.2244,-390.0719"/>
<polygon fill="#c0c0c0" stroke="#c0c0c0" stroke-width="2" points="632.6795,-386.5912 622.1735,-387.9604 631.2403,-393.4416 632.6795,-386.5912"/>
</g>
<!-- 29 -->
<g id="node30" class="node">
<title>29</title>
<path fill="none" stroke="#5682d8" stroke-width="2" d="M719.3646,-472C719.3646,-472 541.9324,-472 541.9324,-472 535.9324,-472 529.9324,-466 529.9324,-460 529.9324,-460 529.9324,-448 529.9324,-448 529.9324,-442 535.9324,-436 541.9324,-436 541.9324,-436 719.3646,-436 719.3646,-436 725.3646,-436 731.3646,-442 731.3646,-448 731.3646,-448 731.3646,-460 731.3646,-460 731.3646,-466 725.3646,-472 719.3646,-472"/>
<text text-anchor="middle" x="630.6485" y="-457" font-family="sans" font-size="10.00" fill="#000000">samtools_index</text>
<text text-anchor="middle" x="630.6485" y="-445" font-family="sans" font-size="10.00" fill="#000000">file: ../nanopore/albacore_1.2.2.b6xcast.sorted</text>
</g>
<!-- 2&#45;&gt;29 -->
<g id="edge37" class="edge">
<title>2&#45;&gt;29</title>
<path fill="none" stroke="#c0c0c0" stroke-width="2" d="M630.6485,-511.9891C630.6485,-503.1566 630.6485,-492.3099 630.6485,-482.3965"/>
<polygon fill="#c0c0c0" stroke="#c0c0c0" stroke-width="2" points="634.1486,-482.145 630.6485,-472.145 627.1486,-482.1451 634.1486,-482.145"/>
</g>
<!-- 3 -->
<g id="node4" class="node">
<title>3</title>
<path fill="none" stroke="#568ad8" stroke-width="2" d="M399.6901,-324C399.6901,-324 257.6069,-324 257.6069,-324 251.6069,-324 245.6069,-318 245.6069,-312 245.6069,-312 245.6069,-300 245.6069,-300 245.6069,-294 251.6069,-288 257.6069,-288 257.6069,-288 399.6901,-288 399.6901,-288 405.6901,-288 411.6901,-294 411.6901,-300 411.6901,-300 411.6901,-312 411.6901,-312 411.6901,-318 405.6901,-324 399.6901,-324"/>
<text text-anchor="middle" x="328.6485" y="-309" font-family="sans" font-size="10.00" fill="#000000">bismark_extract</text>
<text text-anchor="middle" x="328.6485" y="-297" font-family="sans" font-size="10.00" fill="#000000">sample: B6CastF1_1.bismark_bt2_pe</text>
</g>
<!-- 5 -->
<g id="node6" class="node">
<title>5</title>
<path fill="none" stroke="#d6d856" stroke-width="2" d="M407.2831,-252C407.2831,-252 314.0139,-252 314.0139,-252 308.0139,-252 302.0139,-246 302.0139,-240 302.0139,-240 302.0139,-228 302.0139,-228 302.0139,-222 308.0139,-216 314.0139,-216 314.0139,-216 407.2831,-216 407.2831,-216 413.2831,-216 419.2831,-222 419.2831,-228 419.2831,-228 419.2831,-240 419.2831,-240 419.2831,-246 413.2831,-252 407.2831,-252"/>
<text text-anchor="middle" x="360.6485" y="-231" font-family="sans" font-size="10.00" fill="#000000">merge_matched_bisulfite</text>
</g>
<!-- 3&#45;&gt;5 -->
<g id="edge8" class="edge">
<title>3&#45;&gt;5</title>
<path fill="none" stroke="#c0c0c0" stroke-width="2" d="M336.7235,-287.8314C340.2587,-279.8771 344.4845,-270.369 348.3941,-261.5723"/>
<polygon fill="#c0c0c0" stroke="#c0c0c0" stroke-width="2" points="351.6017,-262.9729 352.4648,-252.4133 345.205,-260.1299 351.6017,-262.9729"/>
</g>
<!-- 4 -->
<g id="node5" class="node">
<title>4</title>
<path fill="none" stroke="#56b9d8" stroke-width="2" d="M315.7825,-180C315.7825,-180 109.5145,-180 109.5145,-180 103.5145,-180 97.5145,-174 97.5145,-168 97.5145,-168 97.5145,-156 97.5145,-156 97.5145,-150 103.5145,-144 109.5145,-144 109.5145,-144 315.7825,-144 315.7825,-144 321.7825,-144 327.7825,-150 327.7825,-156 327.7825,-156 327.7825,-168 327.7825,-168 327.7825,-174 321.7825,-180 315.7825,-180"/>
<text text-anchor="middle" x="212.6485" y="-165" font-family="sans" font-size="10.00" fill="#000000">gunzip_gtf</text>
<text text-anchor="middle" x="212.6485" y="-153" font-family="sans" font-size="10.00" fill="#000000">file: ../genome_data/Mus_musculus.GRCm38_90.chr</text>
</g>
<!-- 7 -->
<g id="node8" class="node">
<title>7</title>
<path fill="none" stroke="#d87556" stroke-width="2" d="M288.2295,-108C288.2295,-108 145.0675,-108 145.0675,-108 139.0675,-108 133.0675,-102 133.0675,-96 133.0675,-96 133.0675,-84 133.0675,-84 133.0675,-78 139.0675,-72 145.0675,-72 145.0675,-72 288.2295,-72 288.2295,-72 294.2295,-72 300.2295,-78 300.2295,-84 300.2295,-84 300.2295,-96 300.2295,-96 300.2295,-102 294.2295,-108 288.2295,-108"/>
<text text-anchor="middle" x="216.6485" y="-87" font-family="sans" font-size="10.00" fill="#000000">genome_level_methylation_summary</text>
</g>
<!-- 4&#45;&gt;7 -->
<g id="edge9" class="edge">
<title>4&#45;&gt;7</title>
<path fill="none" stroke="#c0c0c0" stroke-width="2" d="M213.6579,-143.8314C214.0857,-136.131 214.5944,-126.9743 215.0698,-118.4166"/>
<polygon fill="#c0c0c0" stroke="#c0c0c0" stroke-width="2" points="218.5654,-118.592 215.6255,-108.4133 211.5761,-118.2037 218.5654,-118.592"/>
</g>
<!-- 28 -->
<g id="node29" class="node">
<title>28</title>
<path fill="none" stroke="#565bd8" stroke-width="2" d="M435.8091,-180C435.8091,-180 357.4879,-180 357.4879,-180 351.4879,-180 345.4879,-174 345.4879,-168 345.4879,-168 345.4879,-156 345.4879,-156 345.4879,-150 351.4879,-144 357.4879,-144 357.4879,-144 435.8091,-144 435.8091,-144 441.8091,-144 447.8091,-150 447.8091,-156 447.8091,-156 447.8091,-168 447.8091,-168 447.8091,-174 441.8091,-180 435.8091,-180"/>
<text text-anchor="middle" x="396.6485" y="-159" font-family="sans" font-size="10.00" fill="#000000">build_methylation_df</text>
</g>
<!-- 5&#45;&gt;28 -->
<g id="edge36" class="edge">
<title>5&#45;&gt;28</title>
<path fill="none" stroke="#c0c0c0" stroke-width="2" d="M369.7328,-215.8314C373.71,-207.8771 378.464,-198.369 382.8624,-189.5723"/>
<polygon fill="#c0c0c0" stroke="#c0c0c0" stroke-width="2" points="386.1002,-190.9228 387.4419,-180.4133 379.8392,-187.7923 386.1002,-190.9228"/>
</g>
<!-- 6 -->
<g id="node7" class="node">
<title>6</title>
<path fill="none" stroke="#56d8c9" stroke-width="2" d="M672.9757,-836C672.9757,-836 610.3213,-836 610.3213,-836 604.3213,-836 598.3213,-830 598.3213,-824 598.3213,-824 598.3213,-812 598.3213,-812 598.3213,-806 604.3213,-800 610.3213,-800 610.3213,-800 672.9757,-800 672.9757,-800 678.9757,-800 684.9757,-806 684.9757,-812 684.9757,-812 684.9757,-824 684.9757,-824 684.9757,-830 678.9757,-836 672.9757,-836"/>
<text text-anchor="middle" x="641.6485" y="-821" font-family="sans" font-size="10.00" fill="#000000">download_vcf</text>
<text text-anchor="middle" x="641.6485" y="-809" font-family="sans" font-size="10.00" fill="#000000">strain: CAST_EiJ</text>
</g>
<!-- 10 -->
<g id="node11" class="node">
<title>10</title>
<path fill="none" stroke="#ced856" stroke-width="2" d="M749.8527,-764C749.8527,-764 533.4443,-764 533.4443,-764 527.4443,-764 521.4443,-758 521.4443,-752 521.4443,-752 521.4443,-740 521.4443,-740 521.4443,-734 527.4443,-728 533.4443,-728 533.4443,-728 749.8527,-728 749.8527,-728 755.8527,-728 761.8527,-734 761.8527,-740 761.8527,-740 761.8527,-752 761.8527,-752 761.8527,-758 755.8527,-764 749.8527,-764"/>
<text text-anchor="middle" x="641.6485" y="-749" font-family="sans" font-size="10.00" fill="#000000">gunzip_vcf</text>
<text text-anchor="middle" x="641.6485" y="-737" font-family="sans" font-size="10.00" fill="#000000">file: ../genome_data/CAST_EiJ.mgp.v5.snps.dbSNP142</text>
</g>
<!-- 6&#45;&gt;10 -->
<g id="edge14" class="edge">
<title>6&#45;&gt;10</title>
<path fill="none" stroke="#c0c0c0" stroke-width="2" d="M641.6485,-799.8314C641.6485,-792.131 641.6485,-782.9743 641.6485,-774.4166"/>
<polygon fill="#c0c0c0" stroke="#c0c0c0" stroke-width="2" points="645.1486,-774.4132 641.6485,-764.4133 638.1486,-774.4133 645.1486,-774.4132"/>
</g>
<!-- 16 -->
<g id="node17" class="node">
<title>16</title>
<path fill="none" stroke="#569ad8" stroke-width="2" d="M345.1355,-36C345.1355,-36 268.1615,-36 268.1615,-36 262.1615,-36 256.1615,-30 256.1615,-24 256.1615,-24 256.1615,-12 256.1615,-12 256.1615,-6 262.1615,0 268.1615,0 268.1615,0 345.1355,0 345.1355,0 351.1355,0 357.1355,-6 357.1355,-12 357.1355,-12 357.1355,-24 357.1355,-24 357.1355,-30 351.1355,-36 345.1355,-36"/>
<text text-anchor="middle" x="306.6485" y="-15" font-family="sans" font-size="10.00" fill="#000000">methylation_analysis</text>
</g>
<!-- 7&#45;&gt;16 -->
<g id="edge24" class="edge">
<title>7&#45;&gt;16</title>
<path fill="none" stroke="#c0c0c0" stroke-width="2" d="M239.3593,-71.8314C250.4445,-62.9632 263.9439,-52.1637 275.9337,-42.5718"/>
<polygon fill="#c0c0c0" stroke="#c0c0c0" stroke-width="2" points="278.3227,-45.1429 283.945,-36.1628 273.9498,-39.6768 278.3227,-45.1429"/>
</g>
<!-- 8 -->
<g id="node9" class="node">
<title>8</title>
<path fill="none" stroke="#5673d8" stroke-width="2" d="M608.4288,-324C608.4288,-324 482.8682,-324 482.8682,-324 476.8682,-324 470.8682,-318 470.8682,-312 470.8682,-312 470.8682,-300 470.8682,-300 470.8682,-294 476.8682,-288 482.8682,-288 482.8682,-288 608.4288,-288 608.4288,-288 614.4288,-288 620.4288,-294 620.4288,-300 620.4288,-300 620.4288,-312 620.4288,-312 620.4288,-318 614.4288,-324 608.4288,-324"/>
<text text-anchor="middle" x="545.6485" y="-303" font-family="sans" font-size="10.00" fill="#000000">calculate_methylation_frequency</text>
</g>
<!-- 8&#45;&gt;28 -->
<g id="edge35" class="edge">
<title>8&#45;&gt;28</title>
<path fill="none" stroke="#c0c0c0" stroke-width="2" d="M526.7775,-287.7623C500.4678,-262.3354 452.6531,-216.1253 422.8858,-187.3569"/>
<polygon fill="#c0c0c0" stroke="#c0c0c0" stroke-width="2" points="424.9892,-184.5223 415.3662,-180.0896 420.1246,-189.5558 424.9892,-184.5223"/>
</g>
<!-- 9 -->
<g id="node10" class="node">
<title>9</title>
<path fill="none" stroke="#9fd856" stroke-width="2" d="M281.2573,-476C281.2573,-476 206.0397,-476 206.0397,-476 200.0397,-476 194.0397,-470 194.0397,-464 194.0397,-464 194.0397,-444 194.0397,-444 194.0397,-438 200.0397,-432 206.0397,-432 206.0397,-432 281.2573,-432 281.2573,-432 287.2573,-432 293.2573,-438 293.2573,-444 293.2573,-444 293.2573,-464 293.2573,-464 293.2573,-470 287.2573,-476 281.2573,-476"/>
<text text-anchor="middle" x="243.6485" y="-463" font-family="sans" font-size="10.00" fill="#000000">trim_galore</text>
<text text-anchor="middle" x="243.6485" y="-451" font-family="sans" font-size="10.00" fill="#000000">outdir: bisulfite</text>
<text text-anchor="middle" x="243.6485" y="-439" font-family="sans" font-size="10.00" fill="#000000">sample: B6CastF1_1</text>
</g>
<!-- 9&#45;&gt;23 -->
<g id="edge30" class="edge">
<title>9&#45;&gt;23</title>
<path fill="none" stroke="#c0c0c0" stroke-width="2" d="M243.6485,-431.6086C243.6485,-423.7272 243.6485,-414.7616 243.6485,-406.4482"/>
<polygon fill="#c0c0c0" stroke="#c0c0c0" stroke-width="2" points="247.1486,-406.3974 243.6485,-396.3975 240.1486,-406.3975 247.1486,-406.3974"/>
</g>
<!-- 18 -->
<g id="node19" class="node">
<title>18</title>
<path fill="none" stroke="#5692d8" stroke-width="2" d="M463.8958,-692C463.8958,-692 369.4012,-692 369.4012,-692 363.4012,-692 357.4012,-686 357.4012,-680 357.4012,-680 357.4012,-668 357.4012,-668 357.4012,-662 363.4012,-656 369.4012,-656 369.4012,-656 463.8958,-656 463.8958,-656 469.8958,-656 475.8958,-662 475.8958,-668 475.8958,-668 475.8958,-680 475.8958,-680 475.8958,-686 469.8958,-692 463.8958,-692"/>
<text text-anchor="middle" x="416.6485" y="-671" font-family="sans" font-size="10.00" fill="#000000">snpsplit_prepare_genome</text>
</g>
<!-- 10&#45;&gt;18 -->
<g id="edge26" class="edge">
<title>10&#45;&gt;18</title>
<path fill="none" stroke="#c0c0c0" stroke-width="2" d="M585.1619,-727.9243C554.1356,-717.9959 515.4782,-705.6255 483.0179,-695.2382"/>
<polygon fill="#c0c0c0" stroke="#c0c0c0" stroke-width="2" points="483.7493,-691.7975 473.1583,-692.0831 481.6158,-698.4645 483.7493,-691.7975"/>
</g>
<!-- 10&#45;&gt;27 -->
<g id="edge34" class="edge">
<title>10&#45;&gt;27</title>
<path fill="none" stroke="#c0c0c0" stroke-width="2" d="M641.6485,-727.8314C641.6485,-720.131 641.6485,-710.9743 641.6485,-702.4166"/>
<polygon fill="#c0c0c0" stroke="#c0c0c0" stroke-width="2" points="645.1486,-702.4132 641.6485,-692.4133 638.1486,-702.4133 645.1486,-702.4132"/>
</g>
<!-- 11 -->
<g id="node12" class="node">
<title>11</title>
<path fill="none" stroke="#d8bc56" stroke-width="2" d="M497.9118,-908C497.9118,-908 413.3852,-908 413.3852,-908 407.3852,-908 401.3852,-902 401.3852,-896 401.3852,-896 401.3852,-884 401.3852,-884 401.3852,-878 407.3852,-872 413.3852,-872 413.3852,-872 497.9118,-872 497.9118,-872 503.9118,-872 509.9118,-878 509.9118,-884 509.9118,-884 509.9118,-896 509.9118,-896 509.9118,-902 503.9118,-908 497.9118,-908"/>
<text text-anchor="middle" x="455.6485" y="-887" font-family="sans" font-size="10.00" fill="#000000">download_B6_genome</text>
</g>
<!-- 11&#45;&gt;0 -->
<g id="edge1" class="edge">
<title>11&#45;&gt;0</title>
<path fill="none" stroke="#c0c0c0" stroke-width="2" d="M455.6485,-871.8314C455.6485,-864.131 455.6485,-854.9743 455.6485,-846.4166"/>
<polygon fill="#c0c0c0" stroke="#c0c0c0" stroke-width="2" points="459.1486,-846.4132 455.6485,-836.4133 452.1486,-846.4133 459.1486,-846.4132"/>
</g>
<!-- 12 -->
<g id="node13" class="node">
<title>12</title>
<path fill="none" stroke="#d8b456" stroke-width="2" d="M463.3019,-108C463.3019,-108 329.9951,-108 329.9951,-108 323.9951,-108 317.9951,-102 317.9951,-96 317.9951,-96 317.9951,-84 317.9951,-84 317.9951,-78 323.9951,-72 329.9951,-72 329.9951,-72 463.3019,-72 463.3019,-72 469.3019,-72 475.3019,-78 475.3019,-84 475.3019,-84 475.3019,-96 475.3019,-96 475.3019,-102 469.3019,-108 463.3019,-108"/>
<text text-anchor="middle" x="396.6485" y="-87" font-family="sans" font-size="10.00" fill="#000000">nanopolish_methylation_validation</text>
</g>
<!-- 12&#45;&gt;16 -->
<g id="edge23" class="edge">
<title>12&#45;&gt;16</title>
<path fill="none" stroke="#c0c0c0" stroke-width="2" d="M373.9377,-71.8314C362.8525,-62.9632 349.3531,-52.1637 337.3633,-42.5718"/>
<polygon fill="#c0c0c0" stroke="#c0c0c0" stroke-width="2" points="339.3472,-39.6768 329.352,-36.1628 334.9743,-45.1429 339.3472,-39.6768"/>
</g>
<!-- 13 -->
<g id="node14" class="node">
<title>13</title>
<path fill="none" stroke="#5663d8" stroke-width="2" d="M461.2526,-548C461.2526,-548 398.0444,-548 398.0444,-548 392.0444,-548 386.0444,-542 386.0444,-536 386.0444,-536 386.0444,-524 386.0444,-524 386.0444,-518 392.0444,-512 398.0444,-512 398.0444,-512 461.2526,-512 461.2526,-512 467.2526,-512 473.2526,-518 473.2526,-524 473.2526,-524 473.2526,-536 473.2526,-536 473.2526,-542 467.2526,-548 461.2526,-548"/>
<text text-anchor="middle" x="429.6485" y="-527" font-family="sans" font-size="10.00" fill="#000000">nanopolish_index</text>
</g>
<!-- 13&#45;&gt;15 -->
<g id="edge18" class="edge">
<title>13&#45;&gt;15</title>
<path fill="none" stroke="#c0c0c0" stroke-width="2" d="M437.4731,-511.8375C447.1079,-490.9157 465.0127,-456.3064 487.6485,-432 498.2277,-420.64 511.5896,-410.3253 524.2513,-401.8259"/>
<polygon fill="#c0c0c0" stroke="#c0c0c0" stroke-width="2" points="526.3768,-404.6191 532.8624,-396.2413 522.5679,-398.7461 526.3768,-404.6191"/>
</g>
<!-- 14 -->
<g id="node15" class="node">
<title>14</title>
<path fill="none" stroke="#d8c356" stroke-width="2" d="M221.9258,-548C221.9258,-548 129.3712,-548 129.3712,-548 123.3712,-548 117.3712,-542 117.3712,-536 117.3712,-536 117.3712,-524 117.3712,-524 117.3712,-518 123.3712,-512 129.3712,-512 129.3712,-512 221.9258,-512 221.9258,-512 227.9258,-512 233.9258,-518 233.9258,-524 233.9258,-524 233.9258,-536 233.9258,-536 233.9258,-542 227.9258,-548 221.9258,-548"/>
<text text-anchor="middle" x="175.6485" y="-533" font-family="sans" font-size="10.00" fill="#000000">download_rrbs</text>
<text text-anchor="middle" x="175.6485" y="-521" font-family="sans" font-size="10.00" fill="#000000">sample: B6CastF1_1_R1</text>
</g>
<!-- 14&#45;&gt;9 -->
<g id="edge13" class="edge">
<title>14&#45;&gt;9</title>
<path fill="none" stroke="#c0c0c0" stroke-width="2" d="M191.7636,-511.9891C199.3251,-503.5379 208.5366,-493.2428 217.0878,-483.6855"/>
<polygon fill="#c0c0c0" stroke="#c0c0c0" stroke-width="2" points="219.7005,-486.0144 223.7601,-476.2282 214.4838,-481.3469 219.7005,-486.0144"/>
</g>
<!-- 15&#45;&gt;8 -->
<g id="edge11" class="edge">
<title>15&#45;&gt;8</title>
<path fill="none" stroke="#c0c0c0" stroke-width="2" d="M560.6017,-359.8314C558.4391,-352.0463 555.8632,-342.7729 553.4637,-334.1347"/>
<polygon fill="#c0c0c0" stroke="#c0c0c0" stroke-width="2" points="556.8121,-333.1117 550.7633,-324.4133 550.0675,-334.9852 556.8121,-333.1117"/>
</g>
<!-- 17 -->
<g id="node18" class="node">
<title>17</title>
<path fill="none" stroke="#d88d56" stroke-width="2" d="M163.0166,-620C163.0166,-620 62.2804,-620 62.2804,-620 56.2804,-620 50.2804,-614 50.2804,-608 50.2804,-608 50.2804,-596 50.2804,-596 50.2804,-590 56.2804,-584 62.2804,-584 62.2804,-584 163.0166,-584 163.0166,-584 169.0166,-584 175.0166,-590 175.0166,-596 175.0166,-596 175.0166,-608 175.0166,-608 175.0166,-614 169.0166,-620 163.0166,-620"/>
<text text-anchor="middle" x="112.6485" y="-599" font-family="sans" font-size="10.00" fill="#000000">clean_up_snpsplit_genome</text>
</g>
<!-- 26 -->
<g id="node27" class="node">
<title>26</title>
<path fill="none" stroke="#56d89a" stroke-width="2" d="M87.4459,-548C87.4459,-548 11.8511,-548 11.8511,-548 5.8511,-548 -.1489,-542 -.1489,-536 -.1489,-536 -.1489,-524 -.1489,-524 -.1489,-518 5.8511,-512 11.8511,-512 11.8511,-512 87.4459,-512 87.4459,-512 93.4459,-512 99.4459,-518 99.4459,-524 99.4459,-524 99.4459,-536 99.4459,-536 99.4459,-542 93.4459,-548 87.4459,-548"/>
<text text-anchor="middle" x="49.6485" y="-527" font-family="sans" font-size="10.00" fill="#000000">bismark_create_path</text>
</g>
<!-- 17&#45;&gt;26 -->
<g id="edge32" class="edge">
<title>17&#45;&gt;26</title>
<path fill="none" stroke="#c0c0c0" stroke-width="2" d="M96.7509,-583.8314C89.4207,-575.454 80.5825,-565.3531 72.5516,-556.1749"/>
<polygon fill="#c0c0c0" stroke="#c0c0c0" stroke-width="2" points="74.9792,-553.6343 65.7601,-548.4133 69.7112,-558.2438 74.9792,-553.6343"/>
</g>
<!-- 18&#45;&gt;17 -->
<g id="edge25" class="edge">
<title>18&#45;&gt;17</title>
<path fill="none" stroke="#c0c0c0" stroke-width="2" d="M357.3126,-659.9468C308.0454,-648.2782 237.7755,-631.6353 185.1736,-619.177"/>
<polygon fill="#c0c0c0" stroke="#c0c0c0" stroke-width="2" points="185.7711,-615.7218 175.2337,-616.8228 184.1578,-622.5333 185.7711,-615.7218"/>
</g>
<!-- 19 -->
<g id="node20" class="node">
<title>19</title>
<path fill="none" stroke="#88d856" stroke-width="2" d="M385.1633,-620C385.1633,-620 268.1337,-620 268.1337,-620 262.1337,-620 256.1337,-614 256.1337,-608 256.1337,-608 256.1337,-596 256.1337,-596 256.1337,-590 262.1337,-584 268.1337,-584 268.1337,-584 385.1633,-584 385.1633,-584 391.1633,-584 397.1633,-590 397.1633,-596 397.1633,-596 397.1633,-608 397.1633,-608 397.1633,-614 391.1633,-620 385.1633,-620"/>
<text text-anchor="middle" x="326.6485" y="-605" font-family="sans" font-size="10.00" fill="#000000">download_fast5</text>
<text text-anchor="middle" x="326.6485" y="-593" font-family="sans" font-size="10.00" fill="#000000">sample: albacore_1.2.2.b6xcast</text>
</g>
<!-- 19&#45;&gt;13 -->
<g id="edge16" class="edge">
<title>19&#45;&gt;13</title>
<path fill="none" stroke="#c0c0c0" stroke-width="2" d="M352.6397,-583.8314C365.5701,-574.7927 381.3707,-563.7476 395.2868,-554.0198"/>
<polygon fill="#c0c0c0" stroke="#c0c0c0" stroke-width="2" points="397.4748,-556.7608 403.6656,-548.1628 393.4642,-551.0235 397.4748,-556.7608"/>
</g>
<!-- 20&#45;&gt;18 -->
<g id="edge27" class="edge">
<title>20&#45;&gt;18</title>
<path fill="none" stroke="#c0c0c0" stroke-width="2" d="M416.6485,-727.8314C416.6485,-720.131 416.6485,-710.9743 416.6485,-702.4166"/>
<polygon fill="#c0c0c0" stroke="#c0c0c0" stroke-width="2" points="420.1486,-702.4132 416.6485,-692.4133 413.1486,-702.4133 420.1486,-702.4132"/>
</g>
<!-- 21 -->
<g id="node22" class="node">
<title>21</title>
<path fill="none" stroke="#56d8b1" stroke-width="2" d="M771.5225,-620C771.5225,-620 625.7745,-620 625.7745,-620 619.7745,-620 613.7745,-614 613.7745,-608 613.7745,-608 613.7745,-596 613.7745,-596 613.7745,-590 619.7745,-584 625.7745,-584 625.7745,-584 771.5225,-584 771.5225,-584 777.5225,-584 783.5225,-590 783.5225,-596 783.5225,-596 783.5225,-608 783.5225,-608 783.5225,-614 777.5225,-620 771.5225,-620"/>
<text text-anchor="middle" x="698.6485" y="-605" font-family="sans" font-size="10.00" fill="#000000">bwa_index</text>
<text text-anchor="middle" x="698.6485" y="-593" font-family="sans" font-size="10.00" fill="#000000">genome: GRCm38_90.CAST_masked</text>
</g>
<!-- 21&#45;&gt;2 -->
<g id="edge3" class="edge">
<title>21&#45;&gt;2</title>
<path fill="none" stroke="#c0c0c0" stroke-width="2" d="M681.4892,-583.8314C673.4974,-575.3694 663.8447,-565.1489 655.1069,-555.8971"/>
<polygon fill="#c0c0c0" stroke="#c0c0c0" stroke-width="2" points="657.4496,-553.2802 648.0388,-548.4133 652.3605,-558.0866 657.4496,-553.2802"/>
</g>
<!-- 22 -->
<g id="node23" class="node">
<title>22</title>
<path fill="none" stroke="#56d88a" stroke-width="2" d="M545.1633,-620C545.1633,-620 428.1337,-620 428.1337,-620 422.1337,-620 416.1337,-614 416.1337,-608 416.1337,-608 416.1337,-596 416.1337,-596 416.1337,-590 422.1337,-584 428.1337,-584 428.1337,-584 545.1633,-584 545.1633,-584 551.1633,-584 557.1633,-590 557.1633,-596 557.1633,-596 557.1633,-608 557.1633,-608 557.1633,-614 551.1633,-620 545.1633,-620"/>
<text text-anchor="middle" x="486.6485" y="-605" font-family="sans" font-size="10.00" fill="#000000">download_nanopore</text>
<text text-anchor="middle" x="486.6485" y="-593" font-family="sans" font-size="10.00" fill="#000000">sample: albacore_1.2.2.b6xcast</text>
</g>
<!-- 22&#45;&gt;2 -->
<g id="edge4" class="edge">
<title>22&#45;&gt;2</title>
<path fill="none" stroke="#c0c0c0" stroke-width="2" d="M522.9858,-583.8314C541.9881,-574.3302 565.4243,-562.6121 585.5737,-552.5374"/>
<polygon fill="#c0c0c0" stroke="#c0c0c0" stroke-width="2" points="587.1935,-555.6407 594.5725,-548.038 584.063,-549.3797 587.1935,-555.6407"/>
</g>
<!-- 22&#45;&gt;13 -->
<g id="edge17" class="edge">
<title>22&#45;&gt;13</title>
<path fill="none" stroke="#c0c0c0" stroke-width="2" d="M472.265,-583.8314C465.6999,-575.5386 457.7978,-565.557 450.5907,-556.4533"/>
<polygon fill="#c0c0c0" stroke="#c0c0c0" stroke-width="2" points="453.1769,-554.0813 444.2257,-548.4133 447.6886,-558.4262 453.1769,-554.0813"/>
</g>
<!-- 22&#45;&gt;15 -->
<g id="edge19" class="edge">
<title>22&#45;&gt;15</title>
<path fill="none" stroke="#c0c0c0" stroke-width="2" d="M487.3581,-583.9622C489.2344,-551.8837 496.0418,-483.4555 520.6485,-432 525.4362,-421.9883 532.5008,-412.2755 539.6205,-403.9125"/>
<polygon fill="#c0c0c0" stroke="#c0c0c0" stroke-width="2" points="542.3335,-406.1293 546.391,-396.3422 537.1158,-401.4628 542.3335,-406.1293"/>
</g>
<!-- 23&#45;&gt;3 -->
<g id="edge6" class="edge">
<title>23&#45;&gt;3</title>
<path fill="none" stroke="#c0c0c0" stroke-width="2" d="M265.0976,-359.8314C275.4663,-351.0485 288.0714,-340.3712 299.3131,-330.8489"/>
<polygon fill="#c0c0c0" stroke="#c0c0c0" stroke-width="2" points="301.838,-333.297 307.2063,-324.1628 297.3136,-327.9556 301.838,-333.297"/>
</g>
<!-- 24 -->
<g id="node25" class="node">
<title>24</title>
<path fill="none" stroke="#566bd8" stroke-width="2" d="M236.1949,-252C236.1949,-252 189.1021,-252 189.1021,-252 183.1021,-252 177.1021,-246 177.1021,-240 177.1021,-240 177.1021,-228 177.1021,-228 177.1021,-222 183.1021,-216 189.1021,-216 189.1021,-216 236.1949,-216 236.1949,-216 242.1949,-216 248.1949,-222 248.1949,-228 248.1949,-228 248.1949,-240 248.1949,-240 248.1949,-246 242.1949,-252 236.1949,-252"/>
<text text-anchor="middle" x="212.6485" y="-231" font-family="sans" font-size="10.00" fill="#000000">download_gtf</text>
</g>
<!-- 24&#45;&gt;4 -->
<g id="edge7" class="edge">
<title>24&#45;&gt;4</title>
<path fill="none" stroke="#c0c0c0" stroke-width="2" d="M212.6485,-215.8314C212.6485,-208.131 212.6485,-198.9743 212.6485,-190.4166"/>
<polygon fill="#c0c0c0" stroke="#c0c0c0" stroke-width="2" points="216.1486,-190.4132 212.6485,-180.4133 209.1486,-190.4133 216.1486,-190.4132"/>
</g>
<!-- 25 -->
<g id="node26" class="node">
<title>25</title>
<path fill="none" stroke="#d8c356" stroke-width="2" d="M355.9258,-548C355.9258,-548 263.3712,-548 263.3712,-548 257.3712,-548 251.3712,-542 251.3712,-536 251.3712,-536 251.3712,-524 251.3712,-524 251.3712,-518 257.3712,-512 263.3712,-512 263.3712,-512 355.9258,-512 355.9258,-512 361.9258,-512 367.9258,-518 367.9258,-524 367.9258,-524 367.9258,-536 367.9258,-536 367.9258,-542 361.9258,-548 355.9258,-548"/>
<text text-anchor="middle" x="309.6485" y="-533" font-family="sans" font-size="10.00" fill="#000000">download_rrbs</text>
<text text-anchor="middle" x="309.6485" y="-521" font-family="sans" font-size="10.00" fill="#000000">sample: B6CastF1_1_R2</text>
</g>
<!-- 25&#45;&gt;9 -->
<g id="edge12" class="edge">
<title>25&#45;&gt;9</title>
<path fill="none" stroke="#c0c0c0" stroke-width="2" d="M294.0074,-511.9891C286.7409,-503.6216 277.9046,-493.4464 269.6747,-483.9696"/>
<polygon fill="#c0c0c0" stroke="#c0c0c0" stroke-width="2" points="272.1515,-481.4837 262.9519,-476.2282 266.8662,-486.0735 272.1515,-481.4837"/>
</g>
<!-- 26&#45;&gt;1 -->
<g id="edge2" class="edge">
<title>26&#45;&gt;1</title>
<path fill="none" stroke="#c0c0c0" stroke-width="2" d="M57.469,-511.9891C61.4266,-502.8747 66.3154,-491.6155 70.7293,-481.4502"/>
<polygon fill="#c0c0c0" stroke="#c0c0c0" stroke-width="2" points="73.9972,-482.7117 74.7697,-472.145 67.5764,-479.9236 73.9972,-482.7117"/>
</g>
<!-- 27&#45;&gt;2 -->
<g id="edge5" class="edge">
<title>27&#45;&gt;2</title>
<path fill="none" stroke="#c0c0c0" stroke-width="2" d="M625.2204,-655.989C617.346,-646.1289 608.7505,-633.2441 604.6485,-620 598.1931,-599.1577 605.6438,-575.4438 614.1986,-557.5918"/>
<polygon fill="#c0c0c0" stroke="#c0c0c0" stroke-width="2" points="617.5019,-558.8233 618.9835,-548.3326 611.2832,-555.6096 617.5019,-558.8233"/>
</g>
<!-- 27&#45;&gt;15 -->
<g id="edge20" class="edge">
<title>27&#45;&gt;15</title>
<path fill="none" stroke="#c0c0c0" stroke-width="2" d="M700.4575,-660.3846C737.946,-650.3796 781.5055,-635.819 792.6485,-620 824.4495,-574.8541 847.4116,-525.5738 758.6485,-432 741.1189,-413.5203 680.5103,-398.5153 631.8327,-389.0551"/>
<polygon fill="#c0c0c0" stroke="#c0c0c0" stroke-width="2" points="632.4375,-385.6075 621.9599,-387.1795 631.1309,-392.4845 632.4375,-385.6075"/>
</g>
<!-- 27&#45;&gt;21 -->
<g id="edge29" class="edge">
<title>27&#45;&gt;21</title>
<path fill="none" stroke="#c0c0c0" stroke-width="2" d="M656.032,-655.8314C662.5971,-647.5386 670.4992,-637.557 677.7063,-628.4533"/>
<polygon fill="#c0c0c0" stroke="#c0c0c0" stroke-width="2" points="680.6084,-630.4262 684.0713,-620.4133 675.1201,-626.0813 680.6084,-630.4262"/>
</g>
<!-- 28&#45;&gt;7 -->
<g id="edge10" class="edge">
<title>28&#45;&gt;7</title>
<path fill="none" stroke="#c0c0c0" stroke-width="2" d="M351.2269,-143.8314C326.939,-134.1162 296.8563,-122.0831 271.2965,-111.8592"/>
<polygon fill="#c0c0c0" stroke="#c0c0c0" stroke-width="2" points="272.3281,-108.5023 261.7435,-108.038 269.7284,-115.0016 272.3281,-108.5023"/>
</g>
<!-- 28&#45;&gt;12 -->
<g id="edge15" class="edge">
<title>28&#45;&gt;12</title>
<path fill="none" stroke="#c0c0c0" stroke-width="2" d="M396.6485,-143.8314C396.6485,-136.131 396.6485,-126.9743 396.6485,-118.4166"/>
<polygon fill="#c0c0c0" stroke="#c0c0c0" stroke-width="2" points="400.1486,-118.4132 396.6485,-108.4133 393.1486,-118.4133 400.1486,-118.4132"/>
</g>
<!-- 29&#45;&gt;15 -->
<g id="edge22" class="edge">
<title>29&#45;&gt;15</title>
<path fill="none" stroke="#c0c0c0" stroke-width="2" d="M615.2444,-435.9891C607.0474,-426.4049 596.8221,-414.4491 587.7891,-403.8875"/>
<polygon fill="#c0c0c0" stroke="#c0c0c0" stroke-width="2" points="590.3269,-401.4698 581.1673,-396.145 585.0071,-406.0196 590.3269,-401.4698"/>
</g>
</g>
</svg>
