<?xml version="1.0" encoding="UTF-8" standalone="no"?>
<!DOCTYPE svg PUBLIC "-//W3C//DTD SVG 1.1//EN"
 "http://www.w3.org/Graphics/SVG/1.1/DTD/svg11.dtd">
<!-- Generated by graphviz version 2.40.1 (20161225.0304)
 -->
<!-- Title: snakemake_dag Pages: 1 -->
<svg width="1172pt" height="988pt"
 viewBox="0.00 0.00 1171.70 988.00" xmlns="http://www.w3.org/2000/svg" xmlns:xlink="http://www.w3.org/1999/xlink">
<g id="graph0" class="graph" transform="scale(1 1) rotate(0) translate(4 984)">
<title>snakemake_dag</title>
<polygon fill="#ffffff" stroke="transparent" points="-4,4 -4,-984 1167.6955,-984 1167.6955,4 -4,4"/>
<!-- 0 -->
<g id="node1" class="node">
<title>0</title>
<path fill="none" stroke="#5692d8" stroke-width="2" d="M267.5894,-620C267.5894,-620 159.2786,-620 159.2786,-620 153.2786,-620 147.2786,-614 147.2786,-608 147.2786,-608 147.2786,-596 147.2786,-596 147.2786,-590 153.2786,-584 159.2786,-584 159.2786,-584 267.5894,-584 267.5894,-584 273.5894,-584 279.5894,-590 279.5894,-596 279.5894,-596 279.5894,-608 279.5894,-608 279.5894,-614 273.5894,-620 267.5894,-620"/>
<text text-anchor="middle" x="213.434" y="-605" font-family="sans" font-size="10.00" fill="#000000">download_bisulfite_B6Cast1</text>
<text text-anchor="middle" x="213.434" y="-593" font-family="sans" font-size="10.00" fill="#000000">file: 1</text>
</g>
<!-- 24 -->
<g id="node25" class="node">
<title>24</title>
<path fill="none" stroke="#61d856" stroke-width="2" d="M316.0428,-468C316.0428,-468 240.8252,-468 240.8252,-468 234.8252,-468 228.8252,-462 228.8252,-456 228.8252,-456 228.8252,-444 228.8252,-444 228.8252,-438 234.8252,-432 240.8252,-432 240.8252,-432 316.0428,-432 316.0428,-432 322.0428,-432 328.0428,-438 328.0428,-444 328.0428,-444 328.0428,-456 328.0428,-456 328.0428,-462 322.0428,-468 316.0428,-468"/>
<text text-anchor="middle" x="278.434" y="-453" font-family="sans" font-size="10.00" fill="#000000">trim_galore</text>
<text text-anchor="middle" x="278.434" y="-441" font-family="sans" font-size="10.00" fill="#000000">sample: B6CastF1_1</text>
</g>
<!-- 0&#45;&gt;24 -->
<g id="edge29" class="edge">
<title>0&#45;&gt;24</title>
<path fill="none" stroke="#c0c0c0" stroke-width="2" d="M185.002,-583.9601C173.2112,-574.7801 160.8136,-562.4872 154.434,-548 146.5528,-530.1029 143.7164,-520.3571 154.434,-504 168.9113,-481.9049 194.6111,-468.8009 218.8742,-461.0526"/>
<polygon fill="#c0c0c0" stroke="#c0c0c0" stroke-width="2" points="220.1769,-464.3181 228.7879,-458.1455 218.2071,-457.6009 220.1769,-464.3181"/>
</g>
<!-- 41 -->
<g id="node42" class="node">
<title>41</title>
<path fill="none" stroke="#56d8a2" stroke-width="2" d="M269.3116,-548C269.3116,-548 175.5564,-548 175.5564,-548 169.5564,-548 163.5564,-542 163.5564,-536 163.5564,-536 163.5564,-516 163.5564,-516 163.5564,-510 169.5564,-504 175.5564,-504 175.5564,-504 269.3116,-504 269.3116,-504 275.3116,-504 281.3116,-510 281.3116,-516 281.3116,-516 281.3116,-536 281.3116,-536 281.3116,-542 275.3116,-548 269.3116,-548"/>
<text text-anchor="middle" x="222.434" y="-535" font-family="sans" font-size="10.00" fill="#000000">fastq_md5</text>
<text text-anchor="middle" x="222.434" y="-523" font-family="sans" font-size="10.00" fill="#000000">archive: B6CastF1_1_R1</text>
<text text-anchor="middle" x="222.434" y="-511" font-family="sans" font-size="10.00" fill="#000000">outdir: bisulfite</text>
</g>
<!-- 0&#45;&gt;41 -->
<g id="edge55" class="edge">
<title>0&#45;&gt;41</title>
<path fill="none" stroke="#c0c0c0" stroke-width="2" d="M215.5669,-583.9891C216.4785,-576.291 217.5713,-567.0629 218.6142,-558.2561"/>
<polygon fill="#c0c0c0" stroke="#c0c0c0" stroke-width="2" points="222.1013,-558.5705 219.8017,-548.2282 215.1499,-557.7472 222.1013,-558.5705"/>
</g>
<!-- 1 -->
<g id="node2" class="node">
<title>1</title>
<path fill="none" stroke="#56d89a" stroke-width="2" d="M711.5935,-396C711.5935,-396 623.2745,-396 623.2745,-396 617.2745,-396 611.2745,-390 611.2745,-384 611.2745,-384 611.2745,-372 611.2745,-372 611.2745,-366 617.2745,-360 623.2745,-360 623.2745,-360 711.5935,-360 711.5935,-360 717.5935,-360 723.5935,-366 723.5935,-372 723.5935,-372 723.5935,-384 723.5935,-384 723.5935,-390 717.5935,-396 711.5935,-396"/>
<text text-anchor="middle" x="667.434" y="-375" font-family="sans" font-size="10.00" fill="#000000">nanopolish_methylation</text>
</g>
<!-- 33 -->
<g id="node34" class="node">
<title>33</title>
<path fill="none" stroke="#56d8b9" stroke-width="2" d="M688.2143,-324C688.2143,-324 562.6537,-324 562.6537,-324 556.6537,-324 550.6537,-318 550.6537,-312 550.6537,-312 550.6537,-300 550.6537,-300 550.6537,-294 556.6537,-288 562.6537,-288 562.6537,-288 688.2143,-288 688.2143,-288 694.2143,-288 700.2143,-294 700.2143,-300 700.2143,-300 700.2143,-312 700.2143,-312 700.2143,-318 694.2143,-324 688.2143,-324"/>
<text text-anchor="middle" x="625.434" y="-303" font-family="sans" font-size="10.00" fill="#000000">calculate_methylation_frequency</text>
</g>
<!-- 1&#45;&gt;33 -->
<g id="edge44" class="edge">
<title>1&#45;&gt;33</title>
<path fill="none" stroke="#c0c0c0" stroke-width="2" d="M656.8356,-359.8314C652.1463,-351.7925 646.5312,-342.1666 641.3542,-333.2918"/>
<polygon fill="#c0c0c0" stroke="#c0c0c0" stroke-width="2" points="644.2371,-331.2875 636.1751,-324.4133 638.1906,-334.8146 644.2371,-331.2875"/>
</g>
<!-- 2 -->
<g id="node3" class="node">
<title>2</title>
<path fill="none" stroke="#5682d8" stroke-width="2" d="M95.2314,-544C95.2314,-544 19.6366,-544 19.6366,-544 13.6366,-544 7.6366,-538 7.6366,-532 7.6366,-532 7.6366,-520 7.6366,-520 7.6366,-514 13.6366,-508 19.6366,-508 19.6366,-508 95.2314,-508 95.2314,-508 101.2314,-508 107.2314,-514 107.2314,-520 107.2314,-520 107.2314,-532 107.2314,-532 107.2314,-538 101.2314,-544 95.2314,-544"/>
<text text-anchor="middle" x="57.434" y="-523" font-family="sans" font-size="10.00" fill="#000000">bismark_create_path</text>
</g>
<!-- 13 -->
<g id="node14" class="node">
<title>13</title>
<path fill="none" stroke="#d8b456" stroke-width="2" d="M136.2811,-468C136.2811,-468 40.5869,-468 40.5869,-468 34.5869,-468 28.5869,-462 28.5869,-456 28.5869,-456 28.5869,-444 28.5869,-444 28.5869,-438 34.5869,-432 40.5869,-432 40.5869,-432 136.2811,-432 136.2811,-432 142.2811,-432 148.2811,-438 148.2811,-444 148.2811,-444 148.2811,-456 148.2811,-456 148.2811,-462 142.2811,-468 136.2811,-468"/>
<text text-anchor="middle" x="88.434" y="-447" font-family="sans" font-size="10.00" fill="#000000">bismark_prepare_genome</text>
</g>
<!-- 2&#45;&gt;13 -->
<g id="edge20" class="edge">
<title>2&#45;&gt;13</title>
<path fill="none" stroke="#c0c0c0" stroke-width="2" d="M64.7806,-507.9891C68.4983,-498.8747 73.0908,-487.6155 77.2372,-477.4502"/>
<polygon fill="#c0c0c0" stroke="#c0c0c0" stroke-width="2" points="80.4966,-478.7263 81.0327,-468.145 74.0151,-476.0825 80.4966,-478.7263"/>
</g>
<!-- 3 -->
<g id="node4" class="node">
<title>3</title>
<path fill="none" stroke="#5692d8" stroke-width="2" d="M431.5894,-620C431.5894,-620 323.2786,-620 323.2786,-620 317.2786,-620 311.2786,-614 311.2786,-608 311.2786,-608 311.2786,-596 311.2786,-596 311.2786,-590 317.2786,-584 323.2786,-584 323.2786,-584 431.5894,-584 431.5894,-584 437.5894,-584 443.5894,-590 443.5894,-596 443.5894,-596 443.5894,-608 443.5894,-608 443.5894,-614 437.5894,-620 431.5894,-620"/>
<text text-anchor="middle" x="377.434" y="-605" font-family="sans" font-size="10.00" fill="#000000">download_bisulfite_B6Cast1</text>
<text text-anchor="middle" x="377.434" y="-593" font-family="sans" font-size="10.00" fill="#000000">file: 2</text>
</g>
<!-- 16 -->
<g id="node17" class="node">
<title>16</title>
<path fill="none" stroke="#56d8a2" stroke-width="2" d="M443.3116,-548C443.3116,-548 349.5564,-548 349.5564,-548 343.5564,-548 337.5564,-542 337.5564,-536 337.5564,-536 337.5564,-516 337.5564,-516 337.5564,-510 343.5564,-504 349.5564,-504 349.5564,-504 443.3116,-504 443.3116,-504 449.3116,-504 455.3116,-510 455.3116,-516 455.3116,-516 455.3116,-536 455.3116,-536 455.3116,-542 449.3116,-548 443.3116,-548"/>
<text text-anchor="middle" x="396.434" y="-535" font-family="sans" font-size="10.00" fill="#000000">fastq_md5</text>
<text text-anchor="middle" x="396.434" y="-523" font-family="sans" font-size="10.00" fill="#000000">archive: B6CastF1_1_R2</text>
<text text-anchor="middle" x="396.434" y="-511" font-family="sans" font-size="10.00" fill="#000000">outdir: bisulfite</text>
</g>
<!-- 3&#45;&gt;16 -->
<g id="edge21" class="edge">
<title>3&#45;&gt;16</title>
<path fill="none" stroke="#c0c0c0" stroke-width="2" d="M381.9367,-583.9891C383.8822,-576.2073 386.2185,-566.8621 388.4417,-557.9691"/>
<polygon fill="#c0c0c0" stroke="#c0c0c0" stroke-width="2" points="391.847,-558.7785 390.8769,-548.2282 385.056,-557.0807 391.847,-558.7785"/>
</g>
<!-- 3&#45;&gt;24 -->
<g id="edge31" class="edge">
<title>3&#45;&gt;24</title>
<path fill="none" stroke="#c0c0c0" stroke-width="2" d="M358.4259,-583.5491C348.7496,-573.5686 337.2097,-560.7089 328.434,-548 312.9513,-525.5783 299.1977,-497.7138 290.0539,-477.4351"/>
<polygon fill="#c0c0c0" stroke="#c0c0c0" stroke-width="2" points="293.1923,-475.8778 285.9481,-468.1466 286.7899,-478.7079 293.1923,-475.8778"/>
</g>
<!-- 4 -->
<g id="node5" class="node">
<title>4</title>
<path fill="none" stroke="#56c1d8" stroke-width="2" d="M557.921,-36C557.921,-36 480.947,-36 480.947,-36 474.947,-36 468.947,-30 468.947,-24 468.947,-24 468.947,-12 468.947,-12 468.947,-6 474.947,0 480.947,0 480.947,0 557.921,0 557.921,0 563.921,0 569.921,-6 569.921,-12 569.921,-12 569.921,-24 569.921,-24 569.921,-30 563.921,-36 557.921,-36"/>
<text text-anchor="middle" x="519.434" y="-15" font-family="sans" font-size="10.00" fill="#000000">methylation_analysis</text>
</g>
<!-- 5 -->
<g id="node6" class="node">
<title>5</title>
<path fill="none" stroke="#ced856" stroke-width="2" d="M468.5946,-180C468.5946,-180 390.2734,-180 390.2734,-180 384.2734,-180 378.2734,-174 378.2734,-168 378.2734,-168 378.2734,-156 378.2734,-156 378.2734,-150 384.2734,-144 390.2734,-144 390.2734,-144 468.5946,-144 468.5946,-144 474.5946,-144 480.5946,-150 480.5946,-156 480.5946,-156 480.5946,-168 480.5946,-168 480.5946,-174 474.5946,-180 468.5946,-180"/>
<text text-anchor="middle" x="429.434" y="-159" font-family="sans" font-size="10.00" fill="#000000">build_methylation_df</text>
</g>
<!-- 27 -->
<g id="node28" class="node">
<title>27</title>
<path fill="none" stroke="#5663d8" stroke-width="2" d="M681.015,-108C681.015,-108 537.853,-108 537.853,-108 531.853,-108 525.853,-102 525.853,-96 525.853,-96 525.853,-84 525.853,-84 525.853,-78 531.853,-72 537.853,-72 537.853,-72 681.015,-72 681.015,-72 687.015,-72 693.015,-78 693.015,-84 693.015,-84 693.015,-96 693.015,-96 693.015,-102 687.015,-108 681.015,-108"/>
<text text-anchor="middle" x="609.434" y="-87" font-family="sans" font-size="10.00" fill="#000000">genome_level_methylation_summary</text>
</g>
<!-- 5&#45;&gt;27 -->
<g id="edge36" class="edge">
<title>5&#45;&gt;27</title>
<path fill="none" stroke="#c0c0c0" stroke-width="2" d="M474.8556,-143.8314C499.1435,-134.1162 529.2262,-122.0831 554.786,-111.8592"/>
<polygon fill="#c0c0c0" stroke="#c0c0c0" stroke-width="2" points="556.3541,-115.0016 564.339,-108.038 553.7544,-108.5023 556.3541,-115.0016"/>
</g>
<!-- 40 -->
<g id="node41" class="node">
<title>40</title>
<path fill="none" stroke="#d89c56" stroke-width="2" d="M496.0874,-108C496.0874,-108 362.7806,-108 362.7806,-108 356.7806,-108 350.7806,-102 350.7806,-96 350.7806,-96 350.7806,-84 350.7806,-84 350.7806,-78 356.7806,-72 362.7806,-72 362.7806,-72 496.0874,-72 496.0874,-72 502.0874,-72 508.0874,-78 508.0874,-84 508.0874,-84 508.0874,-96 508.0874,-96 508.0874,-102 502.0874,-108 496.0874,-108"/>
<text text-anchor="middle" x="429.434" y="-87" font-family="sans" font-size="10.00" fill="#000000">nanopolish_methylation_validation</text>
</g>
<!-- 5&#45;&gt;40 -->
<g id="edge54" class="edge">
<title>5&#45;&gt;40</title>
<path fill="none" stroke="#c0c0c0" stroke-width="2" d="M429.434,-143.8314C429.434,-136.131 429.434,-126.9743 429.434,-118.4166"/>
<polygon fill="#c0c0c0" stroke="#c0c0c0" stroke-width="2" points="432.9341,-118.4132 429.434,-108.4133 425.9341,-118.4133 432.9341,-118.4132"/>
</g>
<!-- 6 -->
<g id="node7" class="node">
<title>6</title>
<path fill="none" stroke="#70d856" stroke-width="2" d="M871.4576,-908C871.4576,-908 709.4104,-908 709.4104,-908 703.4104,-908 697.4104,-902 697.4104,-896 697.4104,-896 697.4104,-884 697.4104,-884 697.4104,-878 703.4104,-872 709.4104,-872 709.4104,-872 871.4576,-872 871.4576,-872 877.4576,-872 883.4576,-878 883.4576,-884 883.4576,-884 883.4576,-896 883.4576,-896 883.4576,-902 877.4576,-908 871.4576,-908"/>
<text text-anchor="middle" x="790.434" y="-893" font-family="sans" font-size="10.00" fill="#000000">fast5_md5</text>
<text text-anchor="middle" x="790.434" y="-881" font-family="sans" font-size="10.00" fill="#000000">archive: 2017_05_03.b6xcast.minion.fast5</text>
</g>
<!-- 29 -->
<g id="node30" class="node">
<title>29</title>
<path fill="none" stroke="#568ad8" stroke-width="2" d="M849.434,-836C849.434,-836 819.434,-836 819.434,-836 813.434,-836 807.434,-830 807.434,-824 807.434,-824 807.434,-812 807.434,-812 807.434,-806 813.434,-800 819.434,-800 819.434,-800 849.434,-800 849.434,-800 855.434,-800 861.434,-806 861.434,-812 861.434,-812 861.434,-824 861.434,-824 861.434,-830 855.434,-836 849.434,-836"/>
<text text-anchor="middle" x="834.434" y="-815" font-family="sans" font-size="10.00" fill="#000000">untar</text>
</g>
<!-- 6&#45;&gt;29 -->
<g id="edge40" class="edge">
<title>6&#45;&gt;29</title>
<path fill="none" stroke="#c0c0c0" stroke-width="2" d="M801.5371,-871.8314C806.5014,-863.7079 812.4562,-853.9637 817.9268,-845.0118"/>
<polygon fill="#c0c0c0" stroke="#c0c0c0" stroke-width="2" points="820.9534,-846.7712 823.1814,-836.4133 814.9804,-843.121 820.9534,-846.7712"/>
</g>
<!-- 7 -->
<g id="node8" class="node">
<title>7</title>
<path fill="none" stroke="#d85e56" stroke-width="2" d="M469.0686,-252C469.0686,-252 375.7994,-252 375.7994,-252 369.7994,-252 363.7994,-246 363.7994,-240 363.7994,-240 363.7994,-228 363.7994,-228 363.7994,-222 369.7994,-216 375.7994,-216 375.7994,-216 469.0686,-216 469.0686,-216 475.0686,-216 481.0686,-222 481.0686,-228 481.0686,-228 481.0686,-240 481.0686,-240 481.0686,-246 475.0686,-252 469.0686,-252"/>
<text text-anchor="middle" x="422.434" y="-231" font-family="sans" font-size="10.00" fill="#000000">merge_matched_bisulfite</text>
</g>
<!-- 7&#45;&gt;5 -->
<g id="edge10" class="edge">
<title>7&#45;&gt;5</title>
<path fill="none" stroke="#c0c0c0" stroke-width="2" d="M424.2004,-215.8314C424.949,-208.131 425.8393,-198.9743 426.6713,-190.4166"/>
<polygon fill="#c0c0c0" stroke="#c0c0c0" stroke-width="2" points="430.1596,-190.7051 427.6438,-180.4133 423.1925,-190.0276 430.1596,-190.7051"/>
</g>
<!-- 8 -->
<g id="node9" class="node">
<title>8</title>
<path fill="none" stroke="#56a9d8" stroke-width="2" d="M293.2471,-836C293.2471,-836 165.6209,-836 165.6209,-836 159.6209,-836 153.6209,-830 153.6209,-824 153.6209,-824 153.6209,-812 153.6209,-812 153.6209,-806 159.6209,-800 165.6209,-800 165.6209,-800 293.2471,-800 293.2471,-800 299.2471,-800 305.2471,-806 305.2471,-812 305.2471,-812 305.2471,-824 305.2471,-824 305.2471,-830 299.2471,-836 293.2471,-836"/>
<text text-anchor="middle" x="229.434" y="-821" font-family="sans" font-size="10.00" fill="#000000">gunzip_fa</text>
<text text-anchor="middle" x="229.434" y="-809" font-family="sans" font-size="10.00" fill="#000000">file: ../genome_data/GRCm38_90</text>
</g>
<!-- 22 -->
<g id="node23" class="node">
<title>22</title>
<path fill="none" stroke="#569ad8" stroke-width="2" d="M241.6312,-764C241.6312,-764 167.2368,-764 167.2368,-764 161.2368,-764 155.2368,-758 155.2368,-752 155.2368,-752 155.2368,-740 155.2368,-740 155.2368,-734 161.2368,-728 167.2368,-728 167.2368,-728 241.6312,-728 241.6312,-728 247.6312,-728 253.6312,-734 253.6312,-740 253.6312,-740 253.6312,-752 253.6312,-752 253.6312,-758 247.6312,-764 241.6312,-764"/>
<text text-anchor="middle" x="204.434" y="-743" font-family="sans" font-size="10.00" fill="#000000">snpsplit_create_path</text>
</g>
<!-- 8&#45;&gt;22 -->
<g id="edge27" class="edge">
<title>8&#45;&gt;22</title>
<path fill="none" stroke="#c0c0c0" stroke-width="2" d="M223.1254,-799.8314C220.4223,-792.0463 217.2024,-782.7729 214.203,-774.1347"/>
<polygon fill="#c0c0c0" stroke="#c0c0c0" stroke-width="2" points="217.414,-772.7119 210.8275,-764.4133 210.8013,-775.0081 217.414,-772.7119"/>
</g>
<!-- 25 -->
<g id="node26" class="node">
<title>25</title>
<path fill="none" stroke="#9fd856" stroke-width="2" d="M586.021,-692C586.021,-692 492.847,-692 492.847,-692 486.847,-692 480.847,-686 480.847,-680 480.847,-680 480.847,-668 480.847,-668 480.847,-662 486.847,-656 492.847,-656 492.847,-656 586.021,-656 586.021,-656 592.021,-656 598.021,-662 598.021,-668 598.021,-668 598.021,-680 598.021,-680 598.021,-686 592.021,-692 586.021,-692"/>
<text text-anchor="middle" x="539.434" y="-677" font-family="sans" font-size="10.00" fill="#000000">mask_with_cast_genome</text>
<text text-anchor="middle" x="539.434" y="-665" font-family="sans" font-size="10.00" fill="#000000">genome: GRCm38_90</text>
</g>
<!-- 8&#45;&gt;25 -->
<g id="edge33" class="edge">
<title>8&#45;&gt;25</title>
<path fill="none" stroke="#c0c0c0" stroke-width="2" d="M305.3182,-804.9728C390.23,-790.242 516.5379,-767.8015 520.434,-764 536.6141,-748.2127 540.7098,-722.3659 541.1382,-702.4118"/>
<polygon fill="#c0c0c0" stroke="#c0c0c0" stroke-width="2" points="544.6375,-702.2903 541.0627,-692.3168 537.6377,-702.3428 544.6375,-702.2903"/>
</g>
<!-- 9 -->
<g id="node10" class="node">
<title>9</title>
<path fill="none" stroke="#d86e56" stroke-width="2" d="M271.6973,-908C271.6973,-908 187.1707,-908 187.1707,-908 181.1707,-908 175.1707,-902 175.1707,-896 175.1707,-896 175.1707,-884 175.1707,-884 175.1707,-878 181.1707,-872 187.1707,-872 187.1707,-872 271.6973,-872 271.6973,-872 277.6973,-872 283.6973,-878 283.6973,-884 283.6973,-884 283.6973,-896 283.6973,-896 283.6973,-902 277.6973,-908 271.6973,-908"/>
<text text-anchor="middle" x="229.434" y="-887" font-family="sans" font-size="10.00" fill="#000000">download_B6_genome</text>
</g>
<!-- 9&#45;&gt;8 -->
<g id="edge13" class="edge">
<title>9&#45;&gt;8</title>
<path fill="none" stroke="#c0c0c0" stroke-width="2" d="M229.434,-871.8314C229.434,-864.131 229.434,-854.9743 229.434,-846.4166"/>
<polygon fill="#c0c0c0" stroke="#c0c0c0" stroke-width="2" points="232.9341,-846.4132 229.434,-836.4133 225.9341,-846.4133 232.9341,-846.4132"/>
</g>
<!-- 10 -->
<g id="node11" class="node">
<title>10</title>
<path fill="none" stroke="#56d8b9" stroke-width="2" d="M251.6813,-692C251.6813,-692 157.1867,-692 157.1867,-692 151.1867,-692 145.1867,-686 145.1867,-680 145.1867,-680 145.1867,-668 145.1867,-668 145.1867,-662 151.1867,-656 157.1867,-656 157.1867,-656 251.6813,-656 251.6813,-656 257.6813,-656 263.6813,-662 263.6813,-668 263.6813,-668 263.6813,-680 263.6813,-680 263.6813,-686 257.6813,-692 251.6813,-692"/>
<text text-anchor="middle" x="204.434" y="-671" font-family="sans" font-size="10.00" fill="#000000">snpsplit_prepare_genome</text>
</g>
<!-- 23 -->
<g id="node24" class="node">
<title>23</title>
<path fill="none" stroke="#5663d8" stroke-width="2" d="M112.8021,-620C112.8021,-620 12.0659,-620 12.0659,-620 6.0659,-620 .0659,-614 .0659,-608 .0659,-608 .0659,-596 .0659,-596 .0659,-590 6.0659,-584 12.0659,-584 12.0659,-584 112.8021,-584 112.8021,-584 118.8021,-584 124.8021,-590 124.8021,-596 124.8021,-596 124.8021,-608 124.8021,-608 124.8021,-614 118.8021,-620 112.8021,-620"/>
<text text-anchor="middle" x="62.434" y="-599" font-family="sans" font-size="10.00" fill="#000000">clean_up_snpsplit_genome</text>
</g>
<!-- 10&#45;&gt;23 -->
<g id="edge28" class="edge">
<title>10&#45;&gt;23</title>
<path fill="none" stroke="#c0c0c0" stroke-width="2" d="M168.6014,-655.8314C150.0183,-646.4089 127.1351,-634.8062 107.3775,-624.7883"/>
<polygon fill="#c0c0c0" stroke="#c0c0c0" stroke-width="2" points="108.757,-621.5635 98.2551,-620.1628 105.5913,-627.8069 108.757,-621.5635"/>
</g>
<!-- 11 -->
<g id="node12" class="node">
<title>11</title>
<path fill="none" stroke="#d8c356" stroke-width="2" d="M669.308,-620C669.308,-620 523.56,-620 523.56,-620 517.56,-620 511.56,-614 511.56,-608 511.56,-608 511.56,-596 511.56,-596 511.56,-590 517.56,-584 523.56,-584 523.56,-584 669.308,-584 669.308,-584 675.308,-584 681.308,-590 681.308,-596 681.308,-596 681.308,-608 681.308,-608 681.308,-614 675.308,-620 669.308,-620"/>
<text text-anchor="middle" x="596.434" y="-605" font-family="sans" font-size="10.00" fill="#000000">bwa_index</text>
<text text-anchor="middle" x="596.434" y="-593" font-family="sans" font-size="10.00" fill="#000000">genome: GRCm38_90.CAST_masked</text>
</g>
<!-- 37 -->
<g id="node38" class="node">
<title>37</title>
<path fill="none" stroke="#56b1d8" stroke-width="2" d="M730.5867,-544C730.5867,-544 672.2813,-544 672.2813,-544 666.2813,-544 660.2813,-538 660.2813,-532 660.2813,-532 660.2813,-520 660.2813,-520 660.2813,-514 666.2813,-508 672.2813,-508 672.2813,-508 730.5867,-508 730.5867,-508 736.5867,-508 742.5867,-514 742.5867,-520 742.5867,-520 742.5867,-532 742.5867,-532 742.5867,-538 736.5867,-544 730.5867,-544"/>
<text text-anchor="middle" x="701.434" y="-523" font-family="sans" font-size="10.00" fill="#000000">bwa_mem_align</text>
</g>
<!-- 11&#45;&gt;37 -->
<g id="edge49" class="edge">
<title>11&#45;&gt;37</title>
<path fill="none" stroke="#c0c0c0" stroke-width="2" d="M621.3175,-583.9891C635.3378,-573.8411 653.0313,-561.0343 668.2224,-550.0389"/>
<polygon fill="#c0c0c0" stroke="#c0c0c0" stroke-width="2" points="670.3167,-552.8437 676.3652,-544.145 666.2123,-547.1732 670.3167,-552.8437"/>
</g>
<!-- 12 -->
<g id="node13" class="node">
<title>12</title>
<path fill="none" stroke="#56d8c1" stroke-width="2" d="M860.4674,-764C860.4674,-764 808.4006,-764 808.4006,-764 802.4006,-764 796.4006,-758 796.4006,-752 796.4006,-752 796.4006,-740 796.4006,-740 796.4006,-734 802.4006,-728 808.4006,-728 808.4006,-728 860.4674,-728 860.4674,-728 866.4674,-728 872.4674,-734 872.4674,-740 872.4674,-740 872.4674,-752 872.4674,-752 872.4674,-758 866.4674,-764 860.4674,-764"/>
<text text-anchor="middle" x="834.434" y="-743" font-family="sans" font-size="10.00" fill="#000000">merge_b6xcast</text>
</g>
<!-- 36 -->
<g id="node37" class="node">
<title>36</title>
<path fill="none" stroke="#56b9d8" stroke-width="2" d="M874.0381,-544C874.0381,-544 810.8299,-544 810.8299,-544 804.8299,-544 798.8299,-538 798.8299,-532 798.8299,-532 798.8299,-520 798.8299,-520 798.8299,-514 804.8299,-508 810.8299,-508 810.8299,-508 874.0381,-508 874.0381,-508 880.0381,-508 886.0381,-514 886.0381,-520 886.0381,-520 886.0381,-532 886.0381,-532 886.0381,-538 880.0381,-544 874.0381,-544"/>
<text text-anchor="middle" x="842.434" y="-523" font-family="sans" font-size="10.00" fill="#000000">nanopolish_index</text>
</g>
<!-- 12&#45;&gt;36 -->
<g id="edge47" class="edge">
<title>12&#45;&gt;36</title>
<path fill="none" stroke="#c0c0c0" stroke-width="2" d="M840.3751,-727.6917C843.523,-717.3227 847.1917,-704.053 849.434,-692 858.2315,-644.7106 862.117,-631.7638 856.434,-584 855.2476,-574.0289 852.9523,-563.2929 850.558,-553.8009"/>
<polygon fill="#c0c0c0" stroke="#c0c0c0" stroke-width="2" points="853.9258,-552.846 847.9689,-544.0844 847.1618,-554.6484 853.9258,-552.846"/>
</g>
<!-- 38 -->
<g id="node39" class="node">
<title>38</title>
<path fill="none" stroke="#78d856" stroke-width="2" d="M828.1352,-692C828.1352,-692 768.7328,-692 768.7328,-692 762.7328,-692 756.7328,-686 756.7328,-680 756.7328,-680 756.7328,-668 756.7328,-668 756.7328,-662 762.7328,-656 768.7328,-656 768.7328,-656 828.1352,-656 828.1352,-656 834.1352,-656 840.1352,-662 840.1352,-668 840.1352,-668 840.1352,-680 840.1352,-680 840.1352,-686 834.1352,-692 828.1352,-692"/>
<text text-anchor="middle" x="798.434" y="-677" font-family="sans" font-size="10.00" fill="#000000">albacore_minion</text>
<text text-anchor="middle" x="798.434" y="-665" font-family="sans" font-size="10.00" fill="#000000">sample: b6xcast</text>
</g>
<!-- 12&#45;&gt;38 -->
<g id="edge52" class="edge">
<title>12&#45;&gt;38</title>
<path fill="none" stroke="#c0c0c0" stroke-width="2" d="M825.3497,-727.8314C821.3725,-719.8771 816.6185,-710.369 812.2201,-701.5723"/>
<polygon fill="#c0c0c0" stroke="#c0c0c0" stroke-width="2" points="815.2433,-699.7923 807.6406,-692.4133 808.9823,-702.9228 815.2433,-699.7923"/>
</g>
<!-- 21 -->
<g id="node22" class="node">
<title>21</title>
<path fill="none" stroke="#565bd8" stroke-width="2" d="M303.1463,-396C303.1463,-396 253.7217,-396 253.7217,-396 247.7217,-396 241.7217,-390 241.7217,-384 241.7217,-384 241.7217,-372 241.7217,-372 241.7217,-366 247.7217,-360 253.7217,-360 253.7217,-360 303.1463,-360 303.1463,-360 309.1463,-360 315.1463,-366 315.1463,-372 315.1463,-372 315.1463,-384 315.1463,-384 315.1463,-390 309.1463,-396 303.1463,-396"/>
<text text-anchor="middle" x="278.434" y="-375" font-family="sans" font-size="10.00" fill="#000000">bismark_align</text>
</g>
<!-- 13&#45;&gt;21 -->
<g id="edge25" class="edge">
<title>13&#45;&gt;21</title>
<path fill="none" stroke="#c0c0c0" stroke-width="2" d="M136.379,-431.8314C165.7132,-420.7152 203.0554,-406.5645 232.0911,-395.5615"/>
<polygon fill="#c0c0c0" stroke="#c0c0c0" stroke-width="2" points="233.4851,-398.7762 241.5959,-391.9597 231.0046,-392.2304 233.4851,-398.7762"/>
</g>
<!-- 14 -->
<g id="node15" class="node">
<title>14</title>
<path fill="none" stroke="#d8b456" stroke-width="2" d="M1067.8536,-980C1067.8536,-980 951.0144,-980 951.0144,-980 945.0144,-980 939.0144,-974 939.0144,-968 939.0144,-968 939.0144,-956 939.0144,-956 939.0144,-950 945.0144,-944 951.0144,-944 951.0144,-944 1067.8536,-944 1067.8536,-944 1073.8536,-944 1079.8536,-950 1079.8536,-956 1079.8536,-956 1079.8536,-968 1079.8536,-968 1079.8536,-974 1073.8536,-980 1067.8536,-980"/>
<text text-anchor="middle" x="1009.434" y="-959" font-family="sans" font-size="10.00" fill="#000000">download_fast5_b6xcast_0525</text>
</g>
<!-- 31 -->
<g id="node32" class="node">
<title>31</title>
<path fill="none" stroke="#70d856" stroke-width="2" d="M1151.4576,-908C1151.4576,-908 989.4104,-908 989.4104,-908 983.4104,-908 977.4104,-902 977.4104,-896 977.4104,-896 977.4104,-884 977.4104,-884 977.4104,-878 983.4104,-872 989.4104,-872 989.4104,-872 1151.4576,-872 1151.4576,-872 1157.4576,-872 1163.4576,-878 1163.4576,-884 1163.4576,-884 1163.4576,-896 1163.4576,-896 1163.4576,-902 1157.4576,-908 1151.4576,-908"/>
<text text-anchor="middle" x="1070.434" y="-893" font-family="sans" font-size="10.00" fill="#000000">fast5_md5</text>
<text text-anchor="middle" x="1070.434" y="-881" font-family="sans" font-size="10.00" fill="#000000">archive: 2017_05_25.b6xcast.minion.fast5</text>
</g>
<!-- 14&#45;&gt;31 -->
<g id="edge41" class="edge">
<title>14&#45;&gt;31</title>
<path fill="none" stroke="#c0c0c0" stroke-width="2" d="M1024.8269,-943.8314C1031.9244,-935.454 1040.482,-925.3531 1048.258,-916.1749"/>
<polygon fill="#c0c0c0" stroke="#c0c0c0" stroke-width="2" points="1051.0401,-918.3056 1054.8339,-908.4133 1045.6992,-913.7807 1051.0401,-918.3056"/>
</g>
<!-- 32 -->
<g id="node33" class="node">
<title>32</title>
<path fill="none" stroke="#568ad8" stroke-width="2" d="M964.434,-836C964.434,-836 934.434,-836 934.434,-836 928.434,-836 922.434,-830 922.434,-824 922.434,-824 922.434,-812 922.434,-812 922.434,-806 928.434,-800 934.434,-800 934.434,-800 964.434,-800 964.434,-800 970.434,-800 976.434,-806 976.434,-812 976.434,-812 976.434,-824 976.434,-824 976.434,-830 970.434,-836 964.434,-836"/>
<text text-anchor="middle" x="949.434" y="-815" font-family="sans" font-size="10.00" fill="#000000">untar</text>
</g>
<!-- 14&#45;&gt;32 -->
<g id="edge43" class="edge">
<title>14&#45;&gt;32</title>
<path fill="none" stroke="#c0c0c0" stroke-width="2" d="M992.4007,-943.8385C983.9954,-933.9372 974.4039,-921.061 968.434,-908 959.4992,-888.4526 954.7076,-864.5835 952.1722,-846.3393"/>
<polygon fill="#c0c0c0" stroke="#c0c0c0" stroke-width="2" points="955.6339,-845.8139 950.9259,-836.3226 948.6875,-846.6783 955.6339,-845.8139"/>
</g>
<!-- 15 -->
<g id="node16" class="node">
<title>15</title>
<path fill="none" stroke="#59d856" stroke-width="2" d="M848.8536,-980C848.8536,-980 732.0144,-980 732.0144,-980 726.0144,-980 720.0144,-974 720.0144,-968 720.0144,-968 720.0144,-956 720.0144,-956 720.0144,-950 726.0144,-944 732.0144,-944 732.0144,-944 848.8536,-944 848.8536,-944 854.8536,-944 860.8536,-950 860.8536,-956 860.8536,-956 860.8536,-968 860.8536,-968 860.8536,-974 854.8536,-980 848.8536,-980"/>
<text text-anchor="middle" x="790.434" y="-959" font-family="sans" font-size="10.00" fill="#000000">download_fast5_b6xcast_0503</text>
</g>
<!-- 15&#45;&gt;6 -->
<g id="edge11" class="edge">
<title>15&#45;&gt;6</title>
<path fill="none" stroke="#c0c0c0" stroke-width="2" d="M790.434,-943.8314C790.434,-936.131 790.434,-926.9743 790.434,-918.4166"/>
<polygon fill="#c0c0c0" stroke="#c0c0c0" stroke-width="2" points="793.9341,-918.4132 790.434,-908.4133 786.9341,-918.4133 793.9341,-918.4132"/>
</g>
<!-- 15&#45;&gt;29 -->
<g id="edge39" class="edge">
<title>15&#45;&gt;29</title>
<path fill="none" stroke="#c0c0c0" stroke-width="2" d="M849.6052,-943.88C866.3861,-935.7024 882.719,-924.1357 892.434,-908 900.6869,-894.2927 898.8198,-886.6704 892.434,-872 887.4149,-860.4693 878.5856,-850.2884 869.307,-841.9634"/>
<polygon fill="#c0c0c0" stroke="#c0c0c0" stroke-width="2" points="871.3972,-839.1489 861.481,-835.4181 866.9063,-844.5184 871.3972,-839.1489"/>
</g>
<!-- 16&#45;&gt;24 -->
<g id="edge32" class="edge">
<title>16&#45;&gt;24</title>
<path fill="none" stroke="#c0c0c0" stroke-width="2" d="M361.9863,-503.8133C347.315,-494.364 330.1784,-483.3269 315.2568,-473.7164"/>
<polygon fill="#c0c0c0" stroke="#c0c0c0" stroke-width="2" points="317.0648,-470.7177 306.7624,-468.2454 313.2744,-476.6028 317.0648,-470.7177"/>
</g>
<!-- 17 -->
<g id="node18" class="node">
<title>17</title>
<path fill="none" stroke="#568ad8" stroke-width="2" d="M684.434,-836C684.434,-836 654.434,-836 654.434,-836 648.434,-836 642.434,-830 642.434,-824 642.434,-824 642.434,-812 642.434,-812 642.434,-806 648.434,-800 654.434,-800 654.434,-800 684.434,-800 684.434,-800 690.434,-800 696.434,-806 696.434,-812 696.434,-812 696.434,-824 696.434,-824 696.434,-830 690.434,-836 684.434,-836"/>
<text text-anchor="middle" x="669.434" y="-815" font-family="sans" font-size="10.00" fill="#000000">untar</text>
</g>
<!-- 17&#45;&gt;12 -->
<g id="edge17" class="edge">
<title>17&#45;&gt;12</title>
<path fill="none" stroke="#c0c0c0" stroke-width="2" d="M696.6804,-806.1107C721.2107,-795.4065 757.8028,-779.4391 787.1089,-766.6509"/>
<polygon fill="#c0c0c0" stroke="#c0c0c0" stroke-width="2" points="788.5778,-769.8288 796.3433,-762.6214 785.7781,-763.413 788.5778,-769.8288"/>
</g>
<!-- 18 -->
<g id="node19" class="node">
<title>18</title>
<path fill="none" stroke="#56d873" stroke-width="2" d="M422.7612,-836C422.7612,-836 360.1068,-836 360.1068,-836 354.1068,-836 348.1068,-830 348.1068,-824 348.1068,-824 348.1068,-812 348.1068,-812 348.1068,-806 354.1068,-800 360.1068,-800 360.1068,-800 422.7612,-800 422.7612,-800 428.7612,-800 434.7612,-806 434.7612,-812 434.7612,-812 434.7612,-824 434.7612,-824 434.7612,-830 428.7612,-836 422.7612,-836"/>
<text text-anchor="middle" x="391.434" y="-821" font-family="sans" font-size="10.00" fill="#000000">download_vcf</text>
<text text-anchor="middle" x="391.434" y="-809" font-family="sans" font-size="10.00" fill="#000000">strain: CAST_EiJ</text>
</g>
<!-- 28 -->
<g id="node29" class="node">
<title>28</title>
<path fill="none" stroke="#56d892" stroke-width="2" d="M499.6382,-764C499.6382,-764 283.2298,-764 283.2298,-764 277.2298,-764 271.2298,-758 271.2298,-752 271.2298,-752 271.2298,-740 271.2298,-740 271.2298,-734 277.2298,-728 283.2298,-728 283.2298,-728 499.6382,-728 499.6382,-728 505.6382,-728 511.6382,-734 511.6382,-740 511.6382,-740 511.6382,-752 511.6382,-752 511.6382,-758 505.6382,-764 499.6382,-764"/>
<text text-anchor="middle" x="391.434" y="-749" font-family="sans" font-size="10.00" fill="#000000">gunzip_vcf</text>
<text text-anchor="middle" x="391.434" y="-737" font-family="sans" font-size="10.00" fill="#000000">file: ../genome_data/CAST_EiJ.mgp.v5.snps.dbSNP142</text>
</g>
<!-- 18&#45;&gt;28 -->
<g id="edge38" class="edge">
<title>18&#45;&gt;28</title>
<path fill="none" stroke="#c0c0c0" stroke-width="2" d="M391.434,-799.8314C391.434,-792.131 391.434,-782.9743 391.434,-774.4166"/>
<polygon fill="#c0c0c0" stroke="#c0c0c0" stroke-width="2" points="394.9341,-774.4132 391.434,-764.4133 387.9341,-774.4133 394.9341,-774.4132"/>
</g>
<!-- 19 -->
<g id="node20" class="node">
<title>19</title>
<path fill="none" stroke="#56a9d8" stroke-width="2" d="M636.9804,-252C636.9804,-252 589.8876,-252 589.8876,-252 583.8876,-252 577.8876,-246 577.8876,-240 577.8876,-240 577.8876,-228 577.8876,-228 577.8876,-222 583.8876,-216 589.8876,-216 589.8876,-216 636.9804,-216 636.9804,-216 642.9804,-216 648.9804,-222 648.9804,-228 648.9804,-228 648.9804,-240 648.9804,-240 648.9804,-246 642.9804,-252 636.9804,-252"/>
<text text-anchor="middle" x="613.434" y="-231" font-family="sans" font-size="10.00" fill="#000000">download_gtf</text>
</g>
<!-- 39 -->
<g id="node40" class="node">
<title>39</title>
<path fill="none" stroke="#c6d856" stroke-width="2" d="M716.568,-180C716.568,-180 510.3,-180 510.3,-180 504.3,-180 498.3,-174 498.3,-168 498.3,-168 498.3,-156 498.3,-156 498.3,-150 504.3,-144 510.3,-144 510.3,-144 716.568,-144 716.568,-144 722.568,-144 728.568,-150 728.568,-156 728.568,-156 728.568,-168 728.568,-168 728.568,-174 722.568,-180 716.568,-180"/>
<text text-anchor="middle" x="613.434" y="-165" font-family="sans" font-size="10.00" fill="#000000">gunzip_gtf</text>
<text text-anchor="middle" x="613.434" y="-153" font-family="sans" font-size="10.00" fill="#000000">file: ../genome_data/Mus_musculus.GRCm38_90.chr</text>
</g>
<!-- 19&#45;&gt;39 -->
<g id="edge53" class="edge">
<title>19&#45;&gt;39</title>
<path fill="none" stroke="#c0c0c0" stroke-width="2" d="M613.434,-215.8314C613.434,-208.131 613.434,-198.9743 613.434,-190.4166"/>
<polygon fill="#c0c0c0" stroke="#c0c0c0" stroke-width="2" points="616.9341,-190.4132 613.434,-180.4133 609.9341,-190.4133 616.9341,-190.4132"/>
</g>
<!-- 20 -->
<g id="node21" class="node">
<title>20</title>
<path fill="none" stroke="#70d856" stroke-width="2" d="M629.4576,-908C629.4576,-908 467.4104,-908 467.4104,-908 461.4104,-908 455.4104,-902 455.4104,-896 455.4104,-896 455.4104,-884 455.4104,-884 455.4104,-878 461.4104,-872 467.4104,-872 467.4104,-872 629.4576,-872 629.4576,-872 635.4576,-872 641.4576,-878 641.4576,-884 641.4576,-884 641.4576,-896 641.4576,-896 641.4576,-902 635.4576,-908 629.4576,-908"/>
<text text-anchor="middle" x="548.434" y="-893" font-family="sans" font-size="10.00" fill="#000000">fast5_md5</text>
<text text-anchor="middle" x="548.434" y="-881" font-family="sans" font-size="10.00" fill="#000000">archive: 2017_05_12.b6xcast.minion.fast5</text>
</g>
<!-- 20&#45;&gt;17 -->
<g id="edge22" class="edge">
<title>20&#45;&gt;17</title>
<path fill="none" stroke="#c0c0c0" stroke-width="2" d="M578.9674,-871.8314C595.5412,-861.9692 616.1292,-849.7186 633.4759,-839.3965"/>
<polygon fill="#c0c0c0" stroke="#c0c0c0" stroke-width="2" points="635.4094,-842.3189 642.2133,-834.1975 631.8298,-836.3033 635.4094,-842.3189"/>
</g>
<!-- 35 -->
<g id="node36" class="node">
<title>35</title>
<path fill="none" stroke="#567bd8" stroke-width="2" d="M452.481,-324C452.481,-324 362.387,-324 362.387,-324 356.387,-324 350.387,-318 350.387,-312 350.387,-312 350.387,-300 350.387,-300 350.387,-294 356.387,-288 362.387,-288 362.387,-288 452.481,-288 452.481,-288 458.481,-288 464.481,-294 464.481,-300 464.481,-300 464.481,-312 464.481,-312 464.481,-318 458.481,-324 452.481,-324"/>
<text text-anchor="middle" x="407.434" y="-309" font-family="sans" font-size="10.00" fill="#000000">bismark_extract</text>
<text text-anchor="middle" x="407.434" y="-297" font-family="sans" font-size="10.00" fill="#000000">sample: B6CastF1_1_pe</text>
</g>
<!-- 21&#45;&gt;35 -->
<g id="edge46" class="edge">
<title>21&#45;&gt;35</title>
<path fill="none" stroke="#c0c0c0" stroke-width="2" d="M310.9861,-359.8314C327.6388,-350.5368 348.0925,-339.1208 365.8725,-329.1971"/>
<polygon fill="#c0c0c0" stroke="#c0c0c0" stroke-width="2" points="367.8661,-332.0927 374.8923,-324.1628 364.4545,-325.9803 367.8661,-332.0927"/>
</g>
<!-- 22&#45;&gt;10 -->
<g id="edge14" class="edge">
<title>22&#45;&gt;10</title>
<path fill="none" stroke="#c0c0c0" stroke-width="2" d="M204.434,-727.8314C204.434,-720.131 204.434,-710.9743 204.434,-702.4166"/>
<polygon fill="#c0c0c0" stroke="#c0c0c0" stroke-width="2" points="207.9341,-702.4132 204.434,-692.4133 200.9341,-702.4133 207.9341,-702.4132"/>
</g>
<!-- 23&#45;&gt;2 -->
<g id="edge6" class="edge">
<title>23&#45;&gt;2</title>
<path fill="none" stroke="#c0c0c0" stroke-width="2" d="M61.2491,-583.9891C60.668,-575.1566 59.9544,-564.3099 59.3022,-554.3965"/>
<polygon fill="#c0c0c0" stroke="#c0c0c0" stroke-width="2" points="62.7768,-553.8937 58.6278,-544.145 55.7919,-554.3533 62.7768,-553.8937"/>
</g>
<!-- 24&#45;&gt;21 -->
<g id="edge26" class="edge">
<title>24&#45;&gt;21</title>
<path fill="none" stroke="#c0c0c0" stroke-width="2" d="M278.434,-431.8314C278.434,-424.131 278.434,-414.9743 278.434,-406.4166"/>
<polygon fill="#c0c0c0" stroke="#c0c0c0" stroke-width="2" points="281.9341,-406.4132 278.434,-396.4133 274.9341,-406.4133 281.9341,-406.4132"/>
</g>
<!-- 25&#45;&gt;1 -->
<g id="edge5" class="edge">
<title>25&#45;&gt;1</title>
<path fill="none" stroke="#c0c0c0" stroke-width="2" d="M523.0059,-655.989C515.1315,-646.1289 506.536,-633.2441 502.434,-620 486.7239,-569.2776 472.3515,-489.8724 517.434,-432 528.3949,-417.9295 566.3384,-404.3397 601.3176,-394.3129"/>
<polygon fill="#c0c0c0" stroke="#c0c0c0" stroke-width="2" points="602.3927,-397.6465 611.08,-391.5818 600.5068,-390.9054 602.3927,-397.6465"/>
</g>
<!-- 25&#45;&gt;11 -->
<g id="edge16" class="edge">
<title>25&#45;&gt;11</title>
<path fill="none" stroke="#c0c0c0" stroke-width="2" d="M553.8175,-655.8314C560.3826,-647.5386 568.2847,-637.557 575.4918,-628.4533"/>
<polygon fill="#c0c0c0" stroke="#c0c0c0" stroke-width="2" points="578.3939,-630.4262 581.8568,-620.4133 572.9056,-626.0813 578.3939,-630.4262"/>
</g>
<!-- 25&#45;&gt;37 -->
<g id="edge51" class="edge">
<title>25&#45;&gt;37</title>
<path fill="none" stroke="#c0c0c0" stroke-width="2" d="M598.0798,-659.8511C635.2195,-649.657 678.4324,-635.0891 690.434,-620 705.0665,-601.6033 706.7799,-574.412 705.4438,-554.0009"/>
<polygon fill="#c0c0c0" stroke="#c0c0c0" stroke-width="2" points="708.9275,-553.6619 704.5195,-544.0277 701.9574,-554.308 708.9275,-553.6619"/>
</g>
<!-- 26 -->
<g id="node27" class="node">
<title>26</title>
<path fill="none" stroke="#56d882" stroke-width="2" d="M684.6233,-468C684.6233,-468 538.2447,-468 538.2447,-468 532.2447,-468 526.2447,-462 526.2447,-456 526.2447,-456 526.2447,-444 526.2447,-444 526.2447,-438 532.2447,-432 538.2447,-432 538.2447,-432 684.6233,-432 684.6233,-432 690.6233,-432 696.6233,-438 696.6233,-444 696.6233,-444 696.6233,-456 696.6233,-456 696.6233,-462 690.6233,-468 684.6233,-468"/>
<text text-anchor="middle" x="611.434" y="-453" font-family="sans" font-size="10.00" fill="#000000">samtools_index</text>
<text text-anchor="middle" x="611.434" y="-441" font-family="sans" font-size="10.00" fill="#000000">file: ../nanopore/b6xcast.minion.sorted</text>
</g>
<!-- 26&#45;&gt;1 -->
<g id="edge2" class="edge">
<title>26&#45;&gt;1</title>
<path fill="none" stroke="#c0c0c0" stroke-width="2" d="M625.5652,-431.8314C632.0151,-423.5386 639.7785,-413.557 646.8592,-404.4533"/>
<polygon fill="#c0c0c0" stroke="#c0c0c0" stroke-width="2" points="649.7359,-406.4556 653.1126,-396.4133 644.2104,-402.158 649.7359,-406.4556"/>
</g>
<!-- 27&#45;&gt;4 -->
<g id="edge7" class="edge">
<title>27&#45;&gt;4</title>
<path fill="none" stroke="#c0c0c0" stroke-width="2" d="M586.7232,-71.8314C575.638,-62.9632 562.1386,-52.1637 550.1488,-42.5718"/>
<polygon fill="#c0c0c0" stroke="#c0c0c0" stroke-width="2" points="552.1327,-39.6768 542.1375,-36.1628 547.7598,-45.1429 552.1327,-39.6768"/>
</g>
<!-- 28&#45;&gt;10 -->
<g id="edge15" class="edge">
<title>28&#45;&gt;10</title>
<path fill="none" stroke="#c0c0c0" stroke-width="2" d="M344.246,-727.8314C318.9024,-718.0734 287.4855,-705.977 260.8566,-695.7242"/>
<polygon fill="#c0c0c0" stroke="#c0c0c0" stroke-width="2" points="261.8725,-692.3649 251.2827,-692.038 259.3572,-698.8974 261.8725,-692.3649"/>
</g>
<!-- 28&#45;&gt;25 -->
<g id="edge34" class="edge">
<title>28&#45;&gt;25</title>
<path fill="none" stroke="#c0c0c0" stroke-width="2" d="M428.7806,-727.8314C448.3109,-718.3302 472.3981,-706.6121 493.1071,-696.5374"/>
<polygon fill="#c0c0c0" stroke="#c0c0c0" stroke-width="2" points="494.8947,-699.56 502.3559,-692.038 491.8324,-693.2654 494.8947,-699.56"/>
</g>
<!-- 29&#45;&gt;12 -->
<g id="edge19" class="edge">
<title>29&#45;&gt;12</title>
<path fill="none" stroke="#c0c0c0" stroke-width="2" d="M834.434,-799.8314C834.434,-792.131 834.434,-782.9743 834.434,-774.4166"/>
<polygon fill="#c0c0c0" stroke="#c0c0c0" stroke-width="2" points="837.9341,-774.4132 834.434,-764.4133 830.9341,-774.4133 837.9341,-774.4132"/>
</g>
<!-- 30 -->
<g id="node31" class="node">
<title>30</title>
<path fill="none" stroke="#56d863" stroke-width="2" d="M648.8536,-980C648.8536,-980 532.0144,-980 532.0144,-980 526.0144,-980 520.0144,-974 520.0144,-968 520.0144,-968 520.0144,-956 520.0144,-956 520.0144,-950 526.0144,-944 532.0144,-944 532.0144,-944 648.8536,-944 648.8536,-944 654.8536,-944 660.8536,-950 660.8536,-956 660.8536,-956 660.8536,-968 660.8536,-968 660.8536,-974 654.8536,-980 648.8536,-980"/>
<text text-anchor="middle" x="590.434" y="-959" font-family="sans" font-size="10.00" fill="#000000">download_fast5_b6xcast_0512</text>
</g>
<!-- 30&#45;&gt;17 -->
<g id="edge23" class="edge">
<title>30&#45;&gt;17</title>
<path fill="none" stroke="#c0c0c0" stroke-width="2" d="M617.3549,-943.85C629.2333,-934.4909 642.3139,-922.0832 650.434,-908 661.3028,-889.1494 665.9843,-864.8687 667.9858,-846.2787"/>
<polygon fill="#c0c0c0" stroke="#c0c0c0" stroke-width="2" points="671.4936,-846.3425 668.8811,-836.0749 664.5204,-845.7306 671.4936,-846.3425"/>
</g>
<!-- 30&#45;&gt;20 -->
<g id="edge24" class="edge">
<title>30&#45;&gt;20</title>
<path fill="none" stroke="#c0c0c0" stroke-width="2" d="M579.8356,-943.8314C575.1463,-935.7925 569.5312,-926.1666 564.3542,-917.2918"/>
<polygon fill="#c0c0c0" stroke="#c0c0c0" stroke-width="2" points="567.2371,-915.2875 559.1751,-908.4133 561.1906,-918.8146 567.2371,-915.2875"/>
</g>
<!-- 31&#45;&gt;32 -->
<g id="edge42" class="edge">
<title>31&#45;&gt;32</title>
<path fill="none" stroke="#c0c0c0" stroke-width="2" d="M1039.9006,-871.8314C1023.3268,-861.9692 1002.7388,-849.7186 985.3921,-839.3965"/>
<polygon fill="#c0c0c0" stroke="#c0c0c0" stroke-width="2" points="987.0382,-836.3033 976.6547,-834.1975 983.4586,-842.3189 987.0382,-836.3033"/>
</g>
<!-- 32&#45;&gt;12 -->
<g id="edge18" class="edge">
<title>32&#45;&gt;12</title>
<path fill="none" stroke="#c0c0c0" stroke-width="2" d="M922.1806,-800.937C907.2735,-791.6038 888.5746,-779.8967 872.2728,-769.6904"/>
<polygon fill="#c0c0c0" stroke="#c0c0c0" stroke-width="2" points="873.8353,-766.5393 863.5021,-764.1992 870.1206,-772.4724 873.8353,-766.5393"/>
</g>
<!-- 33&#45;&gt;5 -->
<g id="edge9" class="edge">
<title>33&#45;&gt;5</title>
<path fill="none" stroke="#c0c0c0" stroke-width="2" d="M600.6105,-287.7623C565.5599,-262.0108 501.494,-214.942 462.4596,-186.2637"/>
<polygon fill="#c0c0c0" stroke="#c0c0c0" stroke-width="2" points="464.1871,-183.1898 454.056,-180.0896 460.0425,-188.831 464.1871,-183.1898"/>
</g>
<!-- 34 -->
<g id="node35" class="node">
<title>34</title>
<path fill="none" stroke="#d85e56" stroke-width="2" d="M835.921,-620C835.921,-620 748.947,-620 748.947,-620 742.947,-620 736.947,-614 736.947,-608 736.947,-608 736.947,-596 736.947,-596 736.947,-590 742.947,-584 748.947,-584 748.947,-584 835.921,-584 835.921,-584 841.921,-584 847.921,-590 847.921,-596 847.921,-596 847.921,-608 847.921,-608 847.921,-614 841.921,-620 835.921,-620"/>
<text text-anchor="middle" x="792.434" y="-605" font-family="sans" font-size="10.00" fill="#000000">albacore_merge_output</text>
<text text-anchor="middle" x="792.434" y="-593" font-family="sans" font-size="10.00" fill="#000000">sample: b6xcast.minion</text>
</g>
<!-- 34&#45;&gt;1 -->
<g id="edge4" class="edge">
<title>34&#45;&gt;1</title>
<path fill="none" stroke="#c0c0c0" stroke-width="2" d="M787.4568,-583.9936C777.9906,-551.6716 755.2702,-482.4794 721.434,-432 714.5255,-421.6933 705.4514,-411.7057 696.7184,-403.1811"/>
<polygon fill="#c0c0c0" stroke="#c0c0c0" stroke-width="2" points="698.8741,-400.4035 689.1947,-396.0953 694.0748,-405.4993 698.8741,-400.4035"/>
</g>
<!-- 34&#45;&gt;36 -->
<g id="edge48" class="edge">
<title>34&#45;&gt;36</title>
<path fill="none" stroke="#c0c0c0" stroke-width="2" d="M804.2833,-583.9891C810.4651,-574.5928 818.1465,-562.917 824.993,-552.5103"/>
<polygon fill="#c0c0c0" stroke="#c0c0c0" stroke-width="2" points="827.9242,-554.4229 830.4965,-544.145 822.0763,-550.5755 827.9242,-554.4229"/>
</g>
<!-- 34&#45;&gt;37 -->
<g id="edge50" class="edge">
<title>34&#45;&gt;37</title>
<path fill="none" stroke="#c0c0c0" stroke-width="2" d="M770.8683,-583.9891C758.9424,-574.029 743.9498,-561.5077 730.951,-550.6516"/>
<polygon fill="#c0c0c0" stroke="#c0c0c0" stroke-width="2" points="733.0792,-547.8688 723.1603,-544.145 728.5921,-553.2416 733.0792,-547.8688"/>
</g>
<!-- 35&#45;&gt;7 -->
<g id="edge12" class="edge">
<title>35&#45;&gt;7</title>
<path fill="none" stroke="#c0c0c0" stroke-width="2" d="M411.2191,-287.8314C412.8234,-280.131 414.731,-270.9743 416.5139,-262.4166"/>
<polygon fill="#c0c0c0" stroke="#c0c0c0" stroke-width="2" points="419.9847,-262.9169 418.5979,-252.4133 413.1319,-261.4892 419.9847,-262.9169"/>
</g>
<!-- 36&#45;&gt;1 -->
<g id="edge1" class="edge">
<title>36&#45;&gt;1</title>
<path fill="none" stroke="#c0c0c0" stroke-width="2" d="M835.1319,-507.8888C825.9878,-487.1727 808.5435,-453.3677 784.434,-432 769.5352,-418.7955 750.8569,-408.2461 732.8269,-400.1014"/>
<polygon fill="#c0c0c0" stroke="#c0c0c0" stroke-width="2" points="734.0488,-396.8166 723.481,-396.0601 731.2705,-403.2417 734.0488,-396.8166"/>
</g>
<!-- 37&#45;&gt;1 -->
<g id="edge3" class="edge">
<title>37&#45;&gt;1</title>
<path fill="none" stroke="#c0c0c0" stroke-width="2" d="M705.8157,-507.8466C709.651,-488.551 713.47,-457.3831 705.434,-432 702.3525,-422.2664 696.8157,-412.7695 690.9051,-404.5228"/>
<polygon fill="#c0c0c0" stroke="#c0c0c0" stroke-width="2" points="693.5588,-402.2316 684.6975,-396.4239 688.003,-406.49 693.5588,-402.2316"/>
</g>
<!-- 37&#45;&gt;26 -->
<g id="edge35" class="edge">
<title>37&#45;&gt;26</title>
<path fill="none" stroke="#c0c0c0" stroke-width="2" d="M680.1053,-507.9891C668.3105,-498.029 653.4826,-485.5077 640.6266,-474.6516"/>
<polygon fill="#c0c0c0" stroke="#c0c0c0" stroke-width="2" points="642.82,-471.9228 632.9215,-468.145 638.3037,-477.271 642.82,-471.9228"/>
</g>
<!-- 38&#45;&gt;34 -->
<g id="edge45" class="edge">
<title>38&#45;&gt;34</title>
<path fill="none" stroke="#c0c0c0" stroke-width="2" d="M796.9199,-655.8314C796.2782,-648.131 795.5152,-638.9743 794.8021,-630.4166"/>
<polygon fill="#c0c0c0" stroke="#c0c0c0" stroke-width="2" points="798.2869,-630.088 793.9684,-620.4133 791.3111,-630.6694 798.2869,-630.088"/>
</g>
<!-- 39&#45;&gt;27 -->
<g id="edge37" class="edge">
<title>39&#45;&gt;27</title>
<path fill="none" stroke="#c0c0c0" stroke-width="2" d="M612.4246,-143.8314C611.9968,-136.131 611.4881,-126.9743 611.0127,-118.4166"/>
<polygon fill="#c0c0c0" stroke="#c0c0c0" stroke-width="2" points="614.5064,-118.2037 610.457,-108.4133 607.5171,-118.592 614.5064,-118.2037"/>
</g>
<!-- 40&#45;&gt;4 -->
<g id="edge8" class="edge">
<title>40&#45;&gt;4</title>
<path fill="none" stroke="#c0c0c0" stroke-width="2" d="M452.1448,-71.8314C463.23,-62.9632 476.7294,-52.1637 488.7192,-42.5718"/>
<polygon fill="#c0c0c0" stroke="#c0c0c0" stroke-width="2" points="491.1082,-45.1429 496.7305,-36.1628 486.7353,-39.6768 491.1082,-45.1429"/>
</g>
<!-- 41&#45;&gt;24 -->
<g id="edge30" class="edge">
<title>41&#45;&gt;24</title>
<path fill="none" stroke="#c0c0c0" stroke-width="2" d="M238.933,-503.6086C245.192,-495.1142 252.379,-485.3604 258.8921,-476.5211"/>
<polygon fill="#c0c0c0" stroke="#c0c0c0" stroke-width="2" points="261.7636,-478.5243 264.878,-468.3975 256.1282,-474.3718 261.7636,-478.5243"/>
</g>
</g>
</svg>
