<?xml version="1.0" encoding="UTF-8" standalone="no"?>
<!DOCTYPE svg PUBLIC "-//W3C//DTD SVG 1.1//EN"
 "http://www.w3.org/Graphics/SVG/1.1/DTD/svg11.dtd">
<!-- Generated by graphviz version 2.40.1 (20161225.0304)
 -->
<!-- Title: snakemake_dag Pages: 1 -->
<svg width="1200pt" height="988pt"
 viewBox="0.00 0.00 1199.64 988.00" xmlns="http://www.w3.org/2000/svg" xmlns:xlink="http://www.w3.org/1999/xlink">
<g id="graph0" class="graph" transform="scale(1 1) rotate(0) translate(4 984)">
<title>snakemake_dag</title>
<polygon fill="#ffffff" stroke="transparent" points="-4,4 -4,-984 1195.6435,-984 1195.6435,4 -4,4"/>
<!-- 0 -->
<g id="node1" class="node">
<title>0</title>
<path fill="none" stroke="#d8cb56" stroke-width="2" d="M563.921,-36C563.921,-36 486.947,-36 486.947,-36 480.947,-36 474.947,-30 474.947,-24 474.947,-24 474.947,-12 474.947,-12 474.947,-6 480.947,0 486.947,0 486.947,0 563.921,0 563.921,0 569.921,0 575.921,-6 575.921,-12 575.921,-12 575.921,-24 575.921,-24 575.921,-30 569.921,-36 563.921,-36"/>
<text text-anchor="middle" x="525.434" y="-15" font-family="sans" font-size="10.00" fill="#000000">methylation_analysis</text>
</g>
<!-- 1 -->
<g id="node2" class="node">
<title>1</title>
<path fill="none" stroke="#d8bc56" stroke-width="2" d="M502.0874,-108C502.0874,-108 368.7806,-108 368.7806,-108 362.7806,-108 356.7806,-102 356.7806,-96 356.7806,-96 356.7806,-84 356.7806,-84 356.7806,-78 362.7806,-72 368.7806,-72 368.7806,-72 502.0874,-72 502.0874,-72 508.0874,-72 514.0874,-78 514.0874,-84 514.0874,-84 514.0874,-96 514.0874,-96 514.0874,-102 508.0874,-108 502.0874,-108"/>
<text text-anchor="middle" x="435.434" y="-87" font-family="sans" font-size="10.00" fill="#000000">nanopolish_methylation_validation</text>
</g>
<!-- 1&#45;&gt;0 -->
<g id="edge1" class="edge">
<title>1&#45;&gt;0</title>
<path fill="none" stroke="#c0c0c0" stroke-width="2" d="M458.1448,-71.8314C469.23,-62.9632 482.7294,-52.1637 494.7192,-42.5718"/>
<polygon fill="#c0c0c0" stroke="#c0c0c0" stroke-width="2" points="497.1082,-45.1429 502.7305,-36.1628 492.7353,-39.6768 497.1082,-45.1429"/>
</g>
<!-- 2 -->
<g id="node3" class="node">
<title>2</title>
<path fill="none" stroke="#61d856" stroke-width="2" d="M687.015,-108C687.015,-108 543.853,-108 543.853,-108 537.853,-108 531.853,-102 531.853,-96 531.853,-96 531.853,-84 531.853,-84 531.853,-78 537.853,-72 543.853,-72 543.853,-72 687.015,-72 687.015,-72 693.015,-72 699.015,-78 699.015,-84 699.015,-84 699.015,-96 699.015,-96 699.015,-102 693.015,-108 687.015,-108"/>
<text text-anchor="middle" x="615.434" y="-87" font-family="sans" font-size="10.00" fill="#000000">genome_level_methylation_summary</text>
</g>
<!-- 2&#45;&gt;0 -->
<g id="edge2" class="edge">
<title>2&#45;&gt;0</title>
<path fill="none" stroke="#c0c0c0" stroke-width="2" d="M592.7232,-71.8314C581.638,-62.9632 568.1386,-52.1637 556.1488,-42.5718"/>
<polygon fill="#c0c0c0" stroke="#c0c0c0" stroke-width="2" points="558.1327,-39.6768 548.1375,-36.1628 553.7598,-45.1429 558.1327,-39.6768"/>
</g>
<!-- 3 -->
<g id="node4" class="node">
<title>3</title>
<path fill="none" stroke="#56d882" stroke-width="2" d="M474.5946,-180C474.5946,-180 396.2734,-180 396.2734,-180 390.2734,-180 384.2734,-174 384.2734,-168 384.2734,-168 384.2734,-156 384.2734,-156 384.2734,-150 390.2734,-144 396.2734,-144 396.2734,-144 474.5946,-144 474.5946,-144 480.5946,-144 486.5946,-150 486.5946,-156 486.5946,-156 486.5946,-168 486.5946,-168 486.5946,-174 480.5946,-180 474.5946,-180"/>
<text text-anchor="middle" x="435.434" y="-159" font-family="sans" font-size="10.00" fill="#000000">build_methylation_df</text>
</g>
<!-- 3&#45;&gt;1 -->
<g id="edge3" class="edge">
<title>3&#45;&gt;1</title>
<path fill="none" stroke="#c0c0c0" stroke-width="2" d="M435.434,-143.8314C435.434,-136.131 435.434,-126.9743 435.434,-118.4166"/>
<polygon fill="#c0c0c0" stroke="#c0c0c0" stroke-width="2" points="438.9341,-118.4132 435.434,-108.4133 431.9341,-118.4133 438.9341,-118.4132"/>
</g>
<!-- 3&#45;&gt;2 -->
<g id="edge4" class="edge">
<title>3&#45;&gt;2</title>
<path fill="none" stroke="#c0c0c0" stroke-width="2" d="M480.8556,-143.8314C505.1435,-134.1162 535.2262,-122.0831 560.786,-111.8592"/>
<polygon fill="#c0c0c0" stroke="#c0c0c0" stroke-width="2" points="562.3541,-115.0016 570.339,-108.038 559.7544,-108.5023 562.3541,-115.0016"/>
</g>
<!-- 4 -->
<g id="node5" class="node">
<title>4</title>
<path fill="none" stroke="#56d8d0" stroke-width="2" d="M722.568,-180C722.568,-180 516.3,-180 516.3,-180 510.3,-180 504.3,-174 504.3,-168 504.3,-168 504.3,-156 504.3,-156 504.3,-150 510.3,-144 516.3,-144 516.3,-144 722.568,-144 722.568,-144 728.568,-144 734.568,-150 734.568,-156 734.568,-156 734.568,-168 734.568,-168 734.568,-174 728.568,-180 722.568,-180"/>
<text text-anchor="middle" x="619.434" y="-165" font-family="sans" font-size="10.00" fill="#000000">gunzip_gtf</text>
<text text-anchor="middle" x="619.434" y="-153" font-family="sans" font-size="10.00" fill="#000000">file: ../genome_data/Mus_musculus.GRCm38_90.chr</text>
</g>
<!-- 4&#45;&gt;2 -->
<g id="edge5" class="edge">
<title>4&#45;&gt;2</title>
<path fill="none" stroke="#c0c0c0" stroke-width="2" d="M618.4246,-143.8314C617.9968,-136.131 617.4881,-126.9743 617.0127,-118.4166"/>
<polygon fill="#c0c0c0" stroke="#c0c0c0" stroke-width="2" points="620.5064,-118.2037 616.457,-108.4133 613.5171,-118.592 620.5064,-118.2037"/>
</g>
<!-- 5 -->
<g id="node6" class="node">
<title>5</title>
<path fill="none" stroke="#61d856" stroke-width="2" d="M475.0686,-252C475.0686,-252 381.7994,-252 381.7994,-252 375.7994,-252 369.7994,-246 369.7994,-240 369.7994,-240 369.7994,-228 369.7994,-228 369.7994,-222 375.7994,-216 381.7994,-216 381.7994,-216 475.0686,-216 475.0686,-216 481.0686,-216 487.0686,-222 487.0686,-228 487.0686,-228 487.0686,-240 487.0686,-240 487.0686,-246 481.0686,-252 475.0686,-252"/>
<text text-anchor="middle" x="428.434" y="-231" font-family="sans" font-size="10.00" fill="#000000">merge_matched_bisulfite</text>
</g>
<!-- 5&#45;&gt;3 -->
<g id="edge6" class="edge">
<title>5&#45;&gt;3</title>
<path fill="none" stroke="#c0c0c0" stroke-width="2" d="M430.2004,-215.8314C430.949,-208.131 431.8393,-198.9743 432.6713,-190.4166"/>
<polygon fill="#c0c0c0" stroke="#c0c0c0" stroke-width="2" points="436.1596,-190.7051 433.6438,-180.4133 429.1925,-190.0276 436.1596,-190.7051"/>
</g>
<!-- 6 -->
<g id="node7" class="node">
<title>6</title>
<path fill="none" stroke="#d85e56" stroke-width="2" d="M691.2143,-324C691.2143,-324 565.6537,-324 565.6537,-324 559.6537,-324 553.6537,-318 553.6537,-312 553.6537,-312 553.6537,-300 553.6537,-300 553.6537,-294 559.6537,-288 565.6537,-288 565.6537,-288 691.2143,-288 691.2143,-288 697.2143,-288 703.2143,-294 703.2143,-300 703.2143,-300 703.2143,-312 703.2143,-312 703.2143,-318 697.2143,-324 691.2143,-324"/>
<text text-anchor="middle" x="628.434" y="-303" font-family="sans" font-size="10.00" fill="#000000">calculate_methylation_frequency</text>
</g>
<!-- 6&#45;&gt;3 -->
<g id="edge7" class="edge">
<title>6&#45;&gt;3</title>
<path fill="none" stroke="#c0c0c0" stroke-width="2" d="M603.9904,-287.7623C569.4763,-262.0108 506.391,-214.942 467.9541,-186.2637"/>
<polygon fill="#c0c0c0" stroke="#c0c0c0" stroke-width="2" points="469.7871,-183.2645 459.6791,-180.0896 465.601,-188.8749 469.7871,-183.2645"/>
</g>
<!-- 7 -->
<g id="node8" class="node">
<title>7</title>
<path fill="none" stroke="#56d892" stroke-width="2" d="M642.9804,-252C642.9804,-252 595.8876,-252 595.8876,-252 589.8876,-252 583.8876,-246 583.8876,-240 583.8876,-240 583.8876,-228 583.8876,-228 583.8876,-222 589.8876,-216 595.8876,-216 595.8876,-216 642.9804,-216 642.9804,-216 648.9804,-216 654.9804,-222 654.9804,-228 654.9804,-228 654.9804,-240 654.9804,-240 654.9804,-246 648.9804,-252 642.9804,-252"/>
<text text-anchor="middle" x="619.434" y="-231" font-family="sans" font-size="10.00" fill="#000000">download_gtf</text>
</g>
<!-- 7&#45;&gt;4 -->
<g id="edge8" class="edge">
<title>7&#45;&gt;4</title>
<path fill="none" stroke="#c0c0c0" stroke-width="2" d="M619.434,-215.8314C619.434,-208.131 619.434,-198.9743 619.434,-190.4166"/>
<polygon fill="#c0c0c0" stroke="#c0c0c0" stroke-width="2" points="622.9341,-190.4132 619.434,-180.4133 615.9341,-190.4133 622.9341,-190.4132"/>
</g>
<!-- 8 -->
<g id="node9" class="node">
<title>8</title>
<path fill="none" stroke="#d87d56" stroke-width="2" d="M458.481,-324C458.481,-324 368.387,-324 368.387,-324 362.387,-324 356.387,-318 356.387,-312 356.387,-312 356.387,-300 356.387,-300 356.387,-294 362.387,-288 368.387,-288 368.387,-288 458.481,-288 458.481,-288 464.481,-288 470.481,-294 470.481,-300 470.481,-300 470.481,-312 470.481,-312 470.481,-318 464.481,-324 458.481,-324"/>
<text text-anchor="middle" x="413.434" y="-309" font-family="sans" font-size="10.00" fill="#000000">bismark_extract</text>
<text text-anchor="middle" x="413.434" y="-297" font-family="sans" font-size="10.00" fill="#000000">sample: B6CastF1_1_pe</text>
</g>
<!-- 8&#45;&gt;5 -->
<g id="edge9" class="edge">
<title>8&#45;&gt;5</title>
<path fill="none" stroke="#c0c0c0" stroke-width="2" d="M417.2191,-287.8314C418.8234,-280.131 420.731,-270.9743 422.5139,-262.4166"/>
<polygon fill="#c0c0c0" stroke="#c0c0c0" stroke-width="2" points="425.9847,-262.9169 424.5979,-252.4133 419.1319,-261.4892 425.9847,-262.9169"/>
</g>
<!-- 9 -->
<g id="node10" class="node">
<title>9</title>
<path fill="none" stroke="#56d8c9" stroke-width="2" d="M705.5935,-396C705.5935,-396 617.2745,-396 617.2745,-396 611.2745,-396 605.2745,-390 605.2745,-384 605.2745,-384 605.2745,-372 605.2745,-372 605.2745,-366 611.2745,-360 617.2745,-360 617.2745,-360 705.5935,-360 705.5935,-360 711.5935,-360 717.5935,-366 717.5935,-372 717.5935,-372 717.5935,-384 717.5935,-384 717.5935,-390 711.5935,-396 705.5935,-396"/>
<text text-anchor="middle" x="661.434" y="-375" font-family="sans" font-size="10.00" fill="#000000">nanopolish_methylation</text>
</g>
<!-- 9&#45;&gt;6 -->
<g id="edge10" class="edge">
<title>9&#45;&gt;6</title>
<path fill="none" stroke="#c0c0c0" stroke-width="2" d="M653.1067,-359.8314C649.461,-351.8771 645.1031,-342.369 641.0713,-333.5723"/>
<polygon fill="#c0c0c0" stroke="#c0c0c0" stroke-width="2" points="644.2217,-332.0456 636.8734,-324.4133 637.8583,-334.9622 644.2217,-332.0456"/>
</g>
<!-- 10 -->
<g id="node11" class="node">
<title>10</title>
<path fill="none" stroke="#565bd8" stroke-width="2" d="M343.1463,-396C343.1463,-396 293.7217,-396 293.7217,-396 287.7217,-396 281.7217,-390 281.7217,-384 281.7217,-384 281.7217,-372 281.7217,-372 281.7217,-366 287.7217,-360 293.7217,-360 293.7217,-360 343.1463,-360 343.1463,-360 349.1463,-360 355.1463,-366 355.1463,-372 355.1463,-372 355.1463,-384 355.1463,-384 355.1463,-390 349.1463,-396 343.1463,-396"/>
<text text-anchor="middle" x="318.434" y="-375" font-family="sans" font-size="10.00" fill="#000000">bismark_align</text>
</g>
<!-- 10&#45;&gt;8 -->
<g id="edge11" class="edge">
<title>10&#45;&gt;8</title>
<path fill="none" stroke="#c0c0c0" stroke-width="2" d="M342.4065,-359.8314C354.2201,-350.8779 368.6312,-339.9558 381.3775,-330.2955"/>
<polygon fill="#c0c0c0" stroke="#c0c0c0" stroke-width="2" points="383.6135,-332.9925 389.4692,-324.1628 379.3854,-327.4137 383.6135,-332.9925"/>
</g>
<!-- 11 -->
<g id="node12" class="node">
<title>11</title>
<path fill="none" stroke="#56d8a2" stroke-width="2" d="M822.0381,-544C822.0381,-544 758.8299,-544 758.8299,-544 752.8299,-544 746.8299,-538 746.8299,-532 746.8299,-532 746.8299,-520 746.8299,-520 746.8299,-514 752.8299,-508 758.8299,-508 758.8299,-508 822.0381,-508 822.0381,-508 828.0381,-508 834.0381,-514 834.0381,-520 834.0381,-520 834.0381,-532 834.0381,-532 834.0381,-538 828.0381,-544 822.0381,-544"/>
<text text-anchor="middle" x="790.434" y="-523" font-family="sans" font-size="10.00" fill="#000000">nanopolish_index</text>
</g>
<!-- 11&#45;&gt;9 -->
<g id="edge12" class="edge">
<title>11&#45;&gt;9</title>
<path fill="none" stroke="#c0c0c0" stroke-width="2" d="M781.7162,-507.6951C771.6412,-487.7108 753.6916,-455.4356 732.434,-432 722.4708,-421.016 710.0271,-410.6937 698.3526,-402.075"/>
<polygon fill="#c0c0c0" stroke="#c0c0c0" stroke-width="2" points="700.2015,-399.0941 690.0341,-396.1152 696.1247,-404.7844 700.2015,-399.0941"/>
</g>
<!-- 12 -->
<g id="node13" class="node">
<title>12</title>
<path fill="none" stroke="#d6d856" stroke-width="2" d="M603.021,-692C603.021,-692 509.847,-692 509.847,-692 503.847,-692 497.847,-686 497.847,-680 497.847,-680 497.847,-668 497.847,-668 497.847,-662 503.847,-656 509.847,-656 509.847,-656 603.021,-656 603.021,-656 609.021,-656 615.021,-662 615.021,-668 615.021,-668 615.021,-680 615.021,-680 615.021,-686 609.021,-692 603.021,-692"/>
<text text-anchor="middle" x="556.434" y="-677" font-family="sans" font-size="10.00" fill="#000000">mask_with_cast_genome</text>
<text text-anchor="middle" x="556.434" y="-665" font-family="sans" font-size="10.00" fill="#000000">genome: GRCm38_90</text>
</g>
<!-- 12&#45;&gt;9 -->
<g id="edge13" class="edge">
<title>12&#45;&gt;9</title>
<path fill="none" stroke="#c0c0c0" stroke-width="2" d="M595.9588,-655.8411C611.4447,-646.9825 628.1646,-634.9706 639.434,-620 687.4183,-556.2564 676.5116,-454.6193 667.5384,-405.8666"/>
<polygon fill="#c0c0c0" stroke="#c0c0c0" stroke-width="2" points="670.9685,-405.1697 665.6184,-396.0249 664.098,-406.5101 670.9685,-405.1697"/>
</g>
<!-- 15 -->
<g id="node16" class="node">
<title>15</title>
<path fill="none" stroke="#56c9d8" stroke-width="2" d="M640.5867,-544C640.5867,-544 582.2813,-544 582.2813,-544 576.2813,-544 570.2813,-538 570.2813,-532 570.2813,-532 570.2813,-520 570.2813,-520 570.2813,-514 576.2813,-508 582.2813,-508 582.2813,-508 640.5867,-508 640.5867,-508 646.5867,-508 652.5867,-514 652.5867,-520 652.5867,-520 652.5867,-532 652.5867,-532 652.5867,-538 646.5867,-544 640.5867,-544"/>
<text text-anchor="middle" x="611.434" y="-523" font-family="sans" font-size="10.00" fill="#000000">bwa_mem_align</text>
</g>
<!-- 12&#45;&gt;15 -->
<g id="edge25" class="edge">
<title>12&#45;&gt;15</title>
<path fill="none" stroke="#c0c0c0" stroke-width="2" d="M590.0337,-655.8076C602.9744,-646.8793 616.342,-634.8246 623.434,-620 633.3494,-599.2735 628.8752,-573.1861 622.7605,-553.7551"/>
<polygon fill="#c0c0c0" stroke="#c0c0c0" stroke-width="2" points="626.0551,-552.5728 619.4809,-544.2644 619.439,-554.8591 626.0551,-552.5728"/>
</g>
<!-- 22 -->
<g id="node23" class="node">
<title>22</title>
<path fill="none" stroke="#5673d8" stroke-width="2" d="M602.308,-620C602.308,-620 456.56,-620 456.56,-620 450.56,-620 444.56,-614 444.56,-608 444.56,-608 444.56,-596 444.56,-596 444.56,-590 450.56,-584 456.56,-584 456.56,-584 602.308,-584 602.308,-584 608.308,-584 614.308,-590 614.308,-596 614.308,-596 614.308,-608 614.308,-608 614.308,-614 608.308,-620 602.308,-620"/>
<text text-anchor="middle" x="529.434" y="-605" font-family="sans" font-size="10.00" fill="#000000">bwa_index</text>
<text text-anchor="middle" x="529.434" y="-593" font-family="sans" font-size="10.00" fill="#000000">genome: GRCm38_90.CAST_masked</text>
</g>
<!-- 12&#45;&gt;22 -->
<g id="edge39" class="edge">
<title>12&#45;&gt;22</title>
<path fill="none" stroke="#c0c0c0" stroke-width="2" d="M549.6208,-655.8314C546.6696,-647.9617 543.1482,-638.5712 539.879,-629.8533"/>
<polygon fill="#c0c0c0" stroke="#c0c0c0" stroke-width="2" points="543.1274,-628.5476 536.339,-620.4133 536.5731,-631.0055 543.1274,-628.5476"/>
</g>
<!-- 13 -->
<g id="node14" class="node">
<title>13</title>
<path fill="none" stroke="#566bd8" stroke-width="2" d="M602.6233,-468C602.6233,-468 456.2447,-468 456.2447,-468 450.2447,-468 444.2447,-462 444.2447,-456 444.2447,-456 444.2447,-444 444.2447,-444 444.2447,-438 450.2447,-432 456.2447,-432 456.2447,-432 602.6233,-432 602.6233,-432 608.6233,-432 614.6233,-438 614.6233,-444 614.6233,-444 614.6233,-456 614.6233,-456 614.6233,-462 608.6233,-468 602.6233,-468"/>
<text text-anchor="middle" x="529.434" y="-453" font-family="sans" font-size="10.00" fill="#000000">samtools_index</text>
<text text-anchor="middle" x="529.434" y="-441" font-family="sans" font-size="10.00" fill="#000000">file: ../nanopore/b6xcast.minion.sorted</text>
</g>
<!-- 13&#45;&gt;9 -->
<g id="edge14" class="edge">
<title>13&#45;&gt;9</title>
<path fill="none" stroke="#c0c0c0" stroke-width="2" d="M562.7432,-431.8314C579.8613,-422.4942 600.9046,-411.016 619.1562,-401.0606"/>
<polygon fill="#c0c0c0" stroke="#c0c0c0" stroke-width="2" points="621.0325,-404.024 628.1355,-396.1628 617.6805,-397.8788 621.0325,-404.024"/>
</g>
<!-- 14 -->
<g id="node15" class="node">
<title>14</title>
<path fill="none" stroke="#80d856" stroke-width="2" d="M806.921,-620C806.921,-620 719.947,-620 719.947,-620 713.947,-620 707.947,-614 707.947,-608 707.947,-608 707.947,-596 707.947,-596 707.947,-590 713.947,-584 719.947,-584 719.947,-584 806.921,-584 806.921,-584 812.921,-584 818.921,-590 818.921,-596 818.921,-596 818.921,-608 818.921,-608 818.921,-614 812.921,-620 806.921,-620"/>
<text text-anchor="middle" x="763.434" y="-605" font-family="sans" font-size="10.00" fill="#000000">albacore_merge_output</text>
<text text-anchor="middle" x="763.434" y="-593" font-family="sans" font-size="10.00" fill="#000000">sample: b6xcast.minion</text>
</g>
<!-- 14&#45;&gt;9 -->
<g id="edge15" class="edge">
<title>14&#45;&gt;9</title>
<path fill="none" stroke="#c0c0c0" stroke-width="2" d="M754.0963,-583.7017C748.9404,-573.3359 742.5618,-560.066 737.434,-548 715.9284,-497.3964 718.4375,-481.4676 694.434,-432 690.0662,-422.9987 684.6303,-413.5685 679.4387,-405.1534"/>
<polygon fill="#c0c0c0" stroke="#c0c0c0" stroke-width="2" points="682.2642,-403.0727 673.9633,-396.4889 676.3467,-406.8122 682.2642,-403.0727"/>
</g>
<!-- 14&#45;&gt;11 -->
<g id="edge20" class="edge">
<title>14&#45;&gt;11</title>
<path fill="none" stroke="#c0c0c0" stroke-width="2" d="M769.8326,-583.9891C773.0372,-574.9686 776.9882,-563.8474 780.5701,-553.765"/>
<polygon fill="#c0c0c0" stroke="#c0c0c0" stroke-width="2" points="783.9381,-554.7398 783.9877,-544.145 777.342,-552.3964 783.9381,-554.7398"/>
</g>
<!-- 14&#45;&gt;15 -->
<g id="edge27" class="edge">
<title>14&#45;&gt;15</title>
<path fill="none" stroke="#c0c0c0" stroke-width="2" d="M727.4121,-583.9891C706.1934,-573.3797 679.1624,-559.8642 656.5354,-548.5507"/>
<polygon fill="#c0c0c0" stroke="#c0c0c0" stroke-width="2" points="657.9699,-545.3549 647.4604,-544.0132 654.8394,-551.6159 657.9699,-545.3549"/>
</g>
<!-- 15&#45;&gt;9 -->
<g id="edge16" class="edge">
<title>15&#45;&gt;9</title>
<path fill="none" stroke="#c0c0c0" stroke-width="2" d="M617.565,-507.8523C626.1492,-482.443 641.8295,-436.0292 651.9326,-406.124"/>
<polygon fill="#c0c0c0" stroke="#c0c0c0" stroke-width="2" points="655.368,-406.8904 655.2529,-396.2961 648.7363,-404.6498 655.368,-406.8904"/>
</g>
<!-- 15&#45;&gt;13 -->
<g id="edge23" class="edge">
<title>15&#45;&gt;13</title>
<path fill="none" stroke="#c0c0c0" stroke-width="2" d="M592.0011,-507.9891C581.3562,-498.123 567.9996,-485.7438 556.3637,-474.9593"/>
<polygon fill="#c0c0c0" stroke="#c0c0c0" stroke-width="2" points="558.7251,-472.3757 549.0115,-468.145 553.9667,-477.5097 558.7251,-472.3757"/>
</g>
<!-- 16 -->
<g id="node17" class="node">
<title>16</title>
<path fill="none" stroke="#a7d856" stroke-width="2" d="M356.0428,-468C356.0428,-468 280.8252,-468 280.8252,-468 274.8252,-468 268.8252,-462 268.8252,-456 268.8252,-456 268.8252,-444 268.8252,-444 268.8252,-438 274.8252,-432 280.8252,-432 280.8252,-432 356.0428,-432 356.0428,-432 362.0428,-432 368.0428,-438 368.0428,-444 368.0428,-444 368.0428,-456 368.0428,-456 368.0428,-462 362.0428,-468 356.0428,-468"/>
<text text-anchor="middle" x="318.434" y="-453" font-family="sans" font-size="10.00" fill="#000000">trim_galore</text>
<text text-anchor="middle" x="318.434" y="-441" font-family="sans" font-size="10.00" fill="#000000">sample: B6CastF1_1</text>
</g>
<!-- 16&#45;&gt;10 -->
<g id="edge17" class="edge">
<title>16&#45;&gt;10</title>
<path fill="none" stroke="#c0c0c0" stroke-width="2" d="M318.434,-431.8314C318.434,-424.131 318.434,-414.9743 318.434,-406.4166"/>
<polygon fill="#c0c0c0" stroke="#c0c0c0" stroke-width="2" points="321.9341,-406.4132 318.434,-396.4133 314.9341,-406.4133 321.9341,-406.4132"/>
</g>
<!-- 17 -->
<g id="node18" class="node">
<title>17</title>
<path fill="none" stroke="#b6d856" stroke-width="2" d="M152.2811,-468C152.2811,-468 56.5869,-468 56.5869,-468 50.5869,-468 44.5869,-462 44.5869,-456 44.5869,-456 44.5869,-444 44.5869,-444 44.5869,-438 50.5869,-432 56.5869,-432 56.5869,-432 152.2811,-432 152.2811,-432 158.2811,-432 164.2811,-438 164.2811,-444 164.2811,-444 164.2811,-456 164.2811,-456 164.2811,-462 158.2811,-468 152.2811,-468"/>
<text text-anchor="middle" x="104.434" y="-447" font-family="sans" font-size="10.00" fill="#000000">bismark_prepare_genome</text>
</g>
<!-- 17&#45;&gt;10 -->
<g id="edge18" class="edge">
<title>17&#45;&gt;10</title>
<path fill="none" stroke="#c0c0c0" stroke-width="2" d="M158.159,-431.9243C193.2046,-420.1333 238.4871,-404.898 271.9762,-393.6307"/>
<polygon fill="#c0c0c0" stroke="#c0c0c0" stroke-width="2" points="273.1658,-396.9233 281.5276,-390.4171 270.9336,-390.2887 273.1658,-396.9233"/>
</g>
<!-- 18 -->
<g id="node19" class="node">
<title>18</title>
<path fill="none" stroke="#5682d8" stroke-width="2" d="M859.4674,-764C859.4674,-764 807.4006,-764 807.4006,-764 801.4006,-764 795.4006,-758 795.4006,-752 795.4006,-752 795.4006,-740 795.4006,-740 795.4006,-734 801.4006,-728 807.4006,-728 807.4006,-728 859.4674,-728 859.4674,-728 865.4674,-728 871.4674,-734 871.4674,-740 871.4674,-740 871.4674,-752 871.4674,-752 871.4674,-758 865.4674,-764 859.4674,-764"/>
<text text-anchor="middle" x="833.434" y="-743" font-family="sans" font-size="10.00" fill="#000000">merge_b6xcast</text>
</g>
<!-- 18&#45;&gt;11 -->
<g id="edge19" class="edge">
<title>18&#45;&gt;11</title>
<path fill="none" stroke="#c0c0c0" stroke-width="2" d="M835.7776,-727.9873C839.0855,-697.5239 843.1094,-634.2412 827.434,-584 823.9477,-572.8262 817.7085,-561.7077 811.3349,-552.2397"/>
<polygon fill="#c0c0c0" stroke="#c0c0c0" stroke-width="2" points="814.1642,-550.1788 805.5189,-544.0543 808.4579,-554.2333 814.1642,-550.1788"/>
</g>
<!-- 21 -->
<g id="node22" class="node">
<title>21</title>
<path fill="none" stroke="#afd856" stroke-width="2" d="M799.1352,-692C799.1352,-692 739.7328,-692 739.7328,-692 733.7328,-692 727.7328,-686 727.7328,-680 727.7328,-680 727.7328,-668 727.7328,-668 727.7328,-662 733.7328,-656 739.7328,-656 739.7328,-656 799.1352,-656 799.1352,-656 805.1352,-656 811.1352,-662 811.1352,-668 811.1352,-668 811.1352,-680 811.1352,-680 811.1352,-686 805.1352,-692 799.1352,-692"/>
<text text-anchor="middle" x="769.434" y="-677" font-family="sans" font-size="10.00" fill="#000000">albacore_minion</text>
<text text-anchor="middle" x="769.434" y="-665" font-family="sans" font-size="10.00" fill="#000000">sample: b6xcast</text>
</g>
<!-- 18&#45;&gt;21 -->
<g id="edge38" class="edge">
<title>18&#45;&gt;21</title>
<path fill="none" stroke="#c0c0c0" stroke-width="2" d="M817.2841,-727.8314C809.7623,-719.3694 800.6775,-709.1489 792.4536,-699.8971"/>
<polygon fill="#c0c0c0" stroke="#c0c0c0" stroke-width="2" points="795.061,-697.5621 785.8013,-692.4133 789.8291,-702.2127 795.061,-697.5621"/>
</g>
<!-- 19 -->
<g id="node20" class="node">
<title>19</title>
<path fill="none" stroke="#56d8a9" stroke-width="2" d="M408.2471,-836C408.2471,-836 280.6209,-836 280.6209,-836 274.6209,-836 268.6209,-830 268.6209,-824 268.6209,-824 268.6209,-812 268.6209,-812 268.6209,-806 274.6209,-800 280.6209,-800 280.6209,-800 408.2471,-800 408.2471,-800 414.2471,-800 420.2471,-806 420.2471,-812 420.2471,-812 420.2471,-824 420.2471,-824 420.2471,-830 414.2471,-836 408.2471,-836"/>
<text text-anchor="middle" x="344.434" y="-821" font-family="sans" font-size="10.00" fill="#000000">gunzip_fa</text>
<text text-anchor="middle" x="344.434" y="-809" font-family="sans" font-size="10.00" fill="#000000">file: ../genome_data/GRCm38_90</text>
</g>
<!-- 19&#45;&gt;12 -->
<g id="edge21" class="edge">
<title>19&#45;&gt;12</title>
<path fill="none" stroke="#c0c0c0" stroke-width="2" d="M359.5291,-799.8764C379.0092,-776.8102 412.2021,-738.6717 427.434,-728 446.1431,-714.8921 468.5254,-704.125 489.3536,-695.7486"/>
<polygon fill="#c0c0c0" stroke="#c0c0c0" stroke-width="2" points="490.7491,-698.9612 498.7952,-692.0684 488.2069,-692.4392 490.7491,-698.9612"/>
</g>
<!-- 41 -->
<g id="node42" class="node">
<title>41</title>
<path fill="none" stroke="#56d8b9" stroke-width="2" d="M368.6312,-764C368.6312,-764 294.2368,-764 294.2368,-764 288.2368,-764 282.2368,-758 282.2368,-752 282.2368,-752 282.2368,-740 282.2368,-740 282.2368,-734 288.2368,-728 294.2368,-728 294.2368,-728 368.6312,-728 368.6312,-728 374.6312,-728 380.6312,-734 380.6312,-740 380.6312,-740 380.6312,-752 380.6312,-752 380.6312,-758 374.6312,-764 368.6312,-764"/>
<text text-anchor="middle" x="331.434" y="-743" font-family="sans" font-size="10.00" fill="#000000">snpsplit_create_path</text>
</g>
<!-- 19&#45;&gt;41 -->
<g id="edge55" class="edge">
<title>19&#45;&gt;41</title>
<path fill="none" stroke="#c0c0c0" stroke-width="2" d="M341.1536,-799.8314C339.7632,-792.131 338.1099,-782.9743 336.5648,-774.4166"/>
<polygon fill="#c0c0c0" stroke="#c0c0c0" stroke-width="2" points="339.9798,-773.6322 334.7586,-764.4133 333.0912,-774.8761 339.9798,-773.6322"/>
</g>
<!-- 20 -->
<g id="node21" class="node">
<title>20</title>
<path fill="none" stroke="#567bd8" stroke-width="2" d="M664.6382,-764C664.6382,-764 448.2298,-764 448.2298,-764 442.2298,-764 436.2298,-758 436.2298,-752 436.2298,-752 436.2298,-740 436.2298,-740 436.2298,-734 442.2298,-728 448.2298,-728 448.2298,-728 664.6382,-728 664.6382,-728 670.6382,-728 676.6382,-734 676.6382,-740 676.6382,-740 676.6382,-752 676.6382,-752 676.6382,-758 670.6382,-764 664.6382,-764"/>
<text text-anchor="middle" x="556.434" y="-749" font-family="sans" font-size="10.00" fill="#000000">gunzip_vcf</text>
<text text-anchor="middle" x="556.434" y="-737" font-family="sans" font-size="10.00" fill="#000000">file: ../genome_data/CAST_EiJ.mgp.v5.snps.dbSNP142</text>
</g>
<!-- 20&#45;&gt;12 -->
<g id="edge22" class="edge">
<title>20&#45;&gt;12</title>
<path fill="none" stroke="#c0c0c0" stroke-width="2" d="M556.434,-727.8314C556.434,-720.131 556.434,-710.9743 556.434,-702.4166"/>
<polygon fill="#c0c0c0" stroke="#c0c0c0" stroke-width="2" points="559.9341,-702.4132 556.434,-692.4133 552.9341,-702.4133 559.9341,-702.4132"/>
</g>
<!-- 40 -->
<g id="node41" class="node">
<title>40</title>
<path fill="none" stroke="#56d86b" stroke-width="2" d="M378.6813,-692C378.6813,-692 284.1867,-692 284.1867,-692 278.1867,-692 272.1867,-686 272.1867,-680 272.1867,-680 272.1867,-668 272.1867,-668 272.1867,-662 278.1867,-656 284.1867,-656 284.1867,-656 378.6813,-656 378.6813,-656 384.6813,-656 390.6813,-662 390.6813,-668 390.6813,-668 390.6813,-680 390.6813,-680 390.6813,-686 384.6813,-692 378.6813,-692"/>
<text text-anchor="middle" x="331.434" y="-671" font-family="sans" font-size="10.00" fill="#000000">snpsplit_prepare_genome</text>
</g>
<!-- 20&#45;&gt;40 -->
<g id="edge54" class="edge">
<title>20&#45;&gt;40</title>
<path fill="none" stroke="#c0c0c0" stroke-width="2" d="M499.9474,-727.9243C468.9211,-717.9959 430.2637,-705.6255 397.8034,-695.2382"/>
<polygon fill="#c0c0c0" stroke="#c0c0c0" stroke-width="2" points="398.5348,-691.7975 387.9438,-692.0831 396.4013,-698.4645 398.5348,-691.7975"/>
</g>
<!-- 21&#45;&gt;14 -->
<g id="edge24" class="edge">
<title>21&#45;&gt;14</title>
<path fill="none" stroke="#c0c0c0" stroke-width="2" d="M767.9199,-655.8314C767.2782,-648.131 766.5152,-638.9743 765.8021,-630.4166"/>
<polygon fill="#c0c0c0" stroke="#c0c0c0" stroke-width="2" points="769.2869,-630.088 764.9684,-620.4133 762.3111,-630.6694 769.2869,-630.088"/>
</g>
<!-- 22&#45;&gt;15 -->
<g id="edge26" class="edge">
<title>22&#45;&gt;15</title>
<path fill="none" stroke="#c0c0c0" stroke-width="2" d="M548.8669,-583.9891C559.5118,-574.123 572.8684,-561.7438 584.5043,-550.9593"/>
<polygon fill="#c0c0c0" stroke="#c0c0c0" stroke-width="2" points="586.9013,-553.5097 591.8565,-544.145 582.1429,-548.3757 586.9013,-553.5097"/>
</g>
<!-- 23 -->
<g id="node24" class="node">
<title>23</title>
<path fill="none" stroke="#c6d856" stroke-width="2" d="M414.5894,-620C414.5894,-620 306.2786,-620 306.2786,-620 300.2786,-620 294.2786,-614 294.2786,-608 294.2786,-608 294.2786,-596 294.2786,-596 294.2786,-590 300.2786,-584 306.2786,-584 306.2786,-584 414.5894,-584 414.5894,-584 420.5894,-584 426.5894,-590 426.5894,-596 426.5894,-596 426.5894,-608 426.5894,-608 426.5894,-614 420.5894,-620 414.5894,-620"/>
<text text-anchor="middle" x="360.434" y="-605" font-family="sans" font-size="10.00" fill="#000000">download_bisulfite_B6Cast1</text>
<text text-anchor="middle" x="360.434" y="-593" font-family="sans" font-size="10.00" fill="#000000">file: 1</text>
</g>
<!-- 23&#45;&gt;16 -->
<g id="edge28" class="edge">
<title>23&#45;&gt;16</title>
<path fill="none" stroke="#c0c0c0" stroke-width="2" d="M395.3755,-583.7767C408.5847,-574.9077 422.1717,-562.9055 429.434,-548 437.9994,-530.4201 439.8052,-520.5788 429.434,-504 417.7582,-485.3358 397.5784,-472.9552 377.5999,-464.8208"/>
<polygon fill="#c0c0c0" stroke="#c0c0c0" stroke-width="2" points="378.7496,-461.5139 368.1576,-461.2675 376.2841,-468.0654 378.7496,-461.5139"/>
</g>
<!-- 25 -->
<g id="node26" class="node">
<title>25</title>
<path fill="none" stroke="#d85e56" stroke-width="2" d="M408.3116,-548C408.3116,-548 314.5564,-548 314.5564,-548 308.5564,-548 302.5564,-542 302.5564,-536 302.5564,-536 302.5564,-516 302.5564,-516 302.5564,-510 308.5564,-504 314.5564,-504 314.5564,-504 408.3116,-504 408.3116,-504 414.3116,-504 420.3116,-510 420.3116,-516 420.3116,-516 420.3116,-536 420.3116,-536 420.3116,-542 414.3116,-548 408.3116,-548"/>
<text text-anchor="middle" x="361.434" y="-535" font-family="sans" font-size="10.00" fill="#000000">fastq_md5</text>
<text text-anchor="middle" x="361.434" y="-523" font-family="sans" font-size="10.00" fill="#000000">archive: B6CastF1_1_R1</text>
<text text-anchor="middle" x="361.434" y="-511" font-family="sans" font-size="10.00" fill="#000000">outdir: bisulfite</text>
</g>
<!-- 23&#45;&gt;25 -->
<g id="edge41" class="edge">
<title>23&#45;&gt;25</title>
<path fill="none" stroke="#c0c0c0" stroke-width="2" d="M360.671,-583.9891C360.7723,-576.291 360.8937,-567.0629 361.0096,-558.2561"/>
<polygon fill="#c0c0c0" stroke="#c0c0c0" stroke-width="2" points="364.5096,-558.2734 361.1415,-548.2282 357.5102,-558.1813 364.5096,-558.2734"/>
</g>
<!-- 24 -->
<g id="node25" class="node">
<title>24</title>
<path fill="none" stroke="#d85e56" stroke-width="2" d="M273.3116,-548C273.3116,-548 179.5564,-548 179.5564,-548 173.5564,-548 167.5564,-542 167.5564,-536 167.5564,-536 167.5564,-516 167.5564,-516 167.5564,-510 173.5564,-504 179.5564,-504 179.5564,-504 273.3116,-504 273.3116,-504 279.3116,-504 285.3116,-510 285.3116,-516 285.3116,-516 285.3116,-536 285.3116,-536 285.3116,-542 279.3116,-548 273.3116,-548"/>
<text text-anchor="middle" x="226.434" y="-535" font-family="sans" font-size="10.00" fill="#000000">fastq_md5</text>
<text text-anchor="middle" x="226.434" y="-523" font-family="sans" font-size="10.00" fill="#000000">archive: B6CastF1_1_R2</text>
<text text-anchor="middle" x="226.434" y="-511" font-family="sans" font-size="10.00" fill="#000000">outdir: bisulfite</text>
</g>
<!-- 24&#45;&gt;16 -->
<g id="edge29" class="edge">
<title>24&#45;&gt;16</title>
<path fill="none" stroke="#c0c0c0" stroke-width="2" d="M253.5394,-503.6086C264.5434,-494.5183 277.2934,-483.9857 288.5642,-474.6751"/>
<polygon fill="#c0c0c0" stroke="#c0c0c0" stroke-width="2" points="290.9829,-477.2168 296.4635,-468.1496 286.5247,-471.82 290.9829,-477.2168"/>
</g>
<!-- 25&#45;&gt;16 -->
<g id="edge30" class="edge">
<title>25&#45;&gt;16</title>
<path fill="none" stroke="#c0c0c0" stroke-width="2" d="M348.7652,-503.6086C344.1078,-495.3769 338.7812,-485.9625 333.9048,-477.3438"/>
<polygon fill="#c0c0c0" stroke="#c0c0c0" stroke-width="2" points="336.8137,-475.3774 328.8431,-468.3975 330.7213,-478.8245 336.8137,-475.3774"/>
</g>
<!-- 26 -->
<g id="node27" class="node">
<title>26</title>
<path fill="none" stroke="#c6d856" stroke-width="2" d="M263.5894,-620C263.5894,-620 155.2786,-620 155.2786,-620 149.2786,-620 143.2786,-614 143.2786,-608 143.2786,-608 143.2786,-596 143.2786,-596 143.2786,-590 149.2786,-584 155.2786,-584 155.2786,-584 263.5894,-584 263.5894,-584 269.5894,-584 275.5894,-590 275.5894,-596 275.5894,-596 275.5894,-608 275.5894,-608 275.5894,-614 269.5894,-620 263.5894,-620"/>
<text text-anchor="middle" x="209.434" y="-605" font-family="sans" font-size="10.00" fill="#000000">download_bisulfite_B6Cast1</text>
<text text-anchor="middle" x="209.434" y="-593" font-family="sans" font-size="10.00" fill="#000000">file: 2</text>
</g>
<!-- 26&#45;&gt;16 -->
<g id="edge31" class="edge">
<title>26&#45;&gt;16</title>
<path fill="none" stroke="#c0c0c0" stroke-width="2" d="M185.5849,-583.928C175.1398,-574.5042 164.008,-562.02 158.434,-548 151.2092,-529.828 147.0294,-519.8857 158.434,-504 170.5962,-487.059 218.656,-472.2698 258.9575,-462.473"/>
<polygon fill="#c0c0c0" stroke="#c0c0c0" stroke-width="2" points="259.8208,-465.8654 268.7437,-460.1531 258.206,-459.0542 259.8208,-465.8654"/>
</g>
<!-- 26&#45;&gt;24 -->
<g id="edge40" class="edge">
<title>26&#45;&gt;24</title>
<path fill="none" stroke="#c0c0c0" stroke-width="2" d="M213.4628,-583.9891C215.1847,-576.291 217.2489,-567.0629 219.2188,-558.2561"/>
<polygon fill="#c0c0c0" stroke="#c0c0c0" stroke-width="2" points="222.6945,-558.7511 221.4619,-548.2282 215.8633,-557.223 222.6945,-558.7511"/>
</g>
<!-- 27 -->
<g id="node28" class="node">
<title>27</title>
<path fill="none" stroke="#97d856" stroke-width="2" d="M99.2314,-544C99.2314,-544 23.6366,-544 23.6366,-544 17.6366,-544 11.6366,-538 11.6366,-532 11.6366,-532 11.6366,-520 11.6366,-520 11.6366,-514 17.6366,-508 23.6366,-508 23.6366,-508 99.2314,-508 99.2314,-508 105.2314,-508 111.2314,-514 111.2314,-520 111.2314,-520 111.2314,-532 111.2314,-532 111.2314,-538 105.2314,-544 99.2314,-544"/>
<text text-anchor="middle" x="61.434" y="-523" font-family="sans" font-size="10.00" fill="#000000">bismark_create_path</text>
</g>
<!-- 27&#45;&gt;17 -->
<g id="edge32" class="edge">
<title>27&#45;&gt;17</title>
<path fill="none" stroke="#c0c0c0" stroke-width="2" d="M71.6244,-507.9891C76.8344,-498.7807 83.283,-487.3831 89.0806,-477.1362"/>
<polygon fill="#c0c0c0" stroke="#c0c0c0" stroke-width="2" points="92.2896,-478.5721 94.1677,-468.145 86.1971,-475.125 92.2896,-478.5721"/>
</g>
<!-- 28 -->
<g id="node29" class="node">
<title>28</title>
<path fill="none" stroke="#56d85b" stroke-width="2" d="M848.434,-836C848.434,-836 818.434,-836 818.434,-836 812.434,-836 806.434,-830 806.434,-824 806.434,-824 806.434,-812 806.434,-812 806.434,-806 812.434,-800 818.434,-800 818.434,-800 848.434,-800 848.434,-800 854.434,-800 860.434,-806 860.434,-812 860.434,-812 860.434,-824 860.434,-824 860.434,-830 854.434,-836 848.434,-836"/>
<text text-anchor="middle" x="833.434" y="-815" font-family="sans" font-size="10.00" fill="#000000">untar</text>
</g>
<!-- 28&#45;&gt;18 -->
<g id="edge33" class="edge">
<title>28&#45;&gt;18</title>
<path fill="none" stroke="#c0c0c0" stroke-width="2" d="M833.434,-799.8314C833.434,-792.131 833.434,-782.9743 833.434,-774.4166"/>
<polygon fill="#c0c0c0" stroke="#c0c0c0" stroke-width="2" points="836.9341,-774.4132 833.434,-764.4133 829.9341,-774.4133 836.9341,-774.4132"/>
</g>
<!-- 29 -->
<g id="node30" class="node">
<title>29</title>
<path fill="none" stroke="#56d85b" stroke-width="2" d="M1076.434,-836C1076.434,-836 1046.434,-836 1046.434,-836 1040.434,-836 1034.434,-830 1034.434,-824 1034.434,-824 1034.434,-812 1034.434,-812 1034.434,-806 1040.434,-800 1046.434,-800 1046.434,-800 1076.434,-800 1076.434,-800 1082.434,-800 1088.434,-806 1088.434,-812 1088.434,-812 1088.434,-824 1088.434,-824 1088.434,-830 1082.434,-836 1076.434,-836"/>
<text text-anchor="middle" x="1061.434" y="-815" font-family="sans" font-size="10.00" fill="#000000">untar</text>
</g>
<!-- 29&#45;&gt;18 -->
<g id="edge34" class="edge">
<title>29&#45;&gt;18</title>
<path fill="none" stroke="#c0c0c0" stroke-width="2" d="M1034.3841,-809.4579C996.7212,-797.5644 927.8846,-775.8265 881.4016,-761.1477"/>
<polygon fill="#c0c0c0" stroke="#c0c0c0" stroke-width="2" points="882.431,-757.8024 871.8412,-758.1286 880.323,-764.4775 882.431,-757.8024"/>
</g>
<!-- 30 -->
<g id="node31" class="node">
<title>30</title>
<path fill="none" stroke="#56d85b" stroke-width="2" d="M713.434,-836C713.434,-836 683.434,-836 683.434,-836 677.434,-836 671.434,-830 671.434,-824 671.434,-824 671.434,-812 671.434,-812 671.434,-806 677.434,-800 683.434,-800 683.434,-800 713.434,-800 713.434,-800 719.434,-800 725.434,-806 725.434,-812 725.434,-812 725.434,-824 725.434,-824 725.434,-830 719.434,-836 713.434,-836"/>
<text text-anchor="middle" x="698.434" y="-815" font-family="sans" font-size="10.00" fill="#000000">untar</text>
</g>
<!-- 30&#45;&gt;18 -->
<g id="edge35" class="edge">
<title>30&#45;&gt;18</title>
<path fill="none" stroke="#c0c0c0" stroke-width="2" d="M725.7533,-803.4297C744.3598,-793.5062 769.3707,-780.1671 790.6047,-768.8423"/>
<polygon fill="#c0c0c0" stroke="#c0c0c0" stroke-width="2" points="792.2676,-771.9221 799.4441,-764.128 788.9734,-765.7457 792.2676,-771.9221"/>
</g>
<!-- 31 -->
<g id="node32" class="node">
<title>31</title>
<path fill="none" stroke="#ced856" stroke-width="2" d="M386.6973,-908C386.6973,-908 302.1707,-908 302.1707,-908 296.1707,-908 290.1707,-902 290.1707,-896 290.1707,-896 290.1707,-884 290.1707,-884 290.1707,-878 296.1707,-872 302.1707,-872 302.1707,-872 386.6973,-872 386.6973,-872 392.6973,-872 398.6973,-878 398.6973,-884 398.6973,-884 398.6973,-896 398.6973,-896 398.6973,-902 392.6973,-908 386.6973,-908"/>
<text text-anchor="middle" x="344.434" y="-887" font-family="sans" font-size="10.00" fill="#000000">download_B6_genome</text>
</g>
<!-- 31&#45;&gt;19 -->
<g id="edge36" class="edge">
<title>31&#45;&gt;19</title>
<path fill="none" stroke="#c0c0c0" stroke-width="2" d="M344.434,-871.8314C344.434,-864.131 344.434,-854.9743 344.434,-846.4166"/>
<polygon fill="#c0c0c0" stroke="#c0c0c0" stroke-width="2" points="347.9341,-846.4132 344.434,-836.4133 340.9341,-846.4133 347.9341,-846.4132"/>
</g>
<!-- 32 -->
<g id="node33" class="node">
<title>32</title>
<path fill="none" stroke="#70d856" stroke-width="2" d="M587.7612,-836C587.7612,-836 525.1068,-836 525.1068,-836 519.1068,-836 513.1068,-830 513.1068,-824 513.1068,-824 513.1068,-812 513.1068,-812 513.1068,-806 519.1068,-800 525.1068,-800 525.1068,-800 587.7612,-800 587.7612,-800 593.7612,-800 599.7612,-806 599.7612,-812 599.7612,-812 599.7612,-824 599.7612,-824 599.7612,-830 593.7612,-836 587.7612,-836"/>
<text text-anchor="middle" x="556.434" y="-821" font-family="sans" font-size="10.00" fill="#000000">download_vcf</text>
<text text-anchor="middle" x="556.434" y="-809" font-family="sans" font-size="10.00" fill="#000000">strain: CAST_EiJ</text>
</g>
<!-- 32&#45;&gt;20 -->
<g id="edge37" class="edge">
<title>32&#45;&gt;20</title>
<path fill="none" stroke="#c0c0c0" stroke-width="2" d="M556.434,-799.8314C556.434,-792.131 556.434,-782.9743 556.434,-774.4166"/>
<polygon fill="#c0c0c0" stroke="#c0c0c0" stroke-width="2" points="559.9341,-774.4132 556.434,-764.4133 552.9341,-774.4133 559.9341,-774.4132"/>
</g>
<!-- 33 -->
<g id="node34" class="node">
<title>33</title>
<path fill="none" stroke="#56d87b" stroke-width="2" d="M112.8021,-620C112.8021,-620 12.0659,-620 12.0659,-620 6.0659,-620 .0659,-614 .0659,-608 .0659,-608 .0659,-596 .0659,-596 .0659,-590 6.0659,-584 12.0659,-584 12.0659,-584 112.8021,-584 112.8021,-584 118.8021,-584 124.8021,-590 124.8021,-596 124.8021,-596 124.8021,-608 124.8021,-608 124.8021,-614 118.8021,-620 112.8021,-620"/>
<text text-anchor="middle" x="62.434" y="-599" font-family="sans" font-size="10.00" fill="#000000">clean_up_snpsplit_genome</text>
</g>
<!-- 33&#45;&gt;27 -->
<g id="edge42" class="edge">
<title>33&#45;&gt;27</title>
<path fill="none" stroke="#c0c0c0" stroke-width="2" d="M62.197,-583.9891C62.0808,-575.1566 61.9381,-564.3099 61.8076,-554.3965"/>
<polygon fill="#c0c0c0" stroke="#c0c0c0" stroke-width="2" points="65.3041,-554.0981 61.6728,-544.145 58.3047,-554.1903 65.3041,-554.0981"/>
</g>
<!-- 34 -->
<g id="node35" class="node">
<title>34</title>
<path fill="none" stroke="#5663d8" stroke-width="2" d="M900.4576,-908C900.4576,-908 738.4104,-908 738.4104,-908 732.4104,-908 726.4104,-902 726.4104,-896 726.4104,-896 726.4104,-884 726.4104,-884 726.4104,-878 732.4104,-872 738.4104,-872 738.4104,-872 900.4576,-872 900.4576,-872 906.4576,-872 912.4576,-878 912.4576,-884 912.4576,-884 912.4576,-896 912.4576,-896 912.4576,-902 906.4576,-908 900.4576,-908"/>
<text text-anchor="middle" x="819.434" y="-893" font-family="sans" font-size="10.00" fill="#000000">fast5_md5</text>
<text text-anchor="middle" x="819.434" y="-881" font-family="sans" font-size="10.00" fill="#000000">archive: 2017_05_12.b6xcast.minion.fast5</text>
</g>
<!-- 34&#45;&gt;28 -->
<g id="edge43" class="edge">
<title>34&#45;&gt;28</title>
<path fill="none" stroke="#c0c0c0" stroke-width="2" d="M822.9668,-871.8314C824.4641,-864.131 826.2445,-854.9743 827.9085,-846.4166"/>
<polygon fill="#c0c0c0" stroke="#c0c0c0" stroke-width="2" points="831.3805,-846.8975 829.8536,-836.4133 824.5092,-845.5614 831.3805,-846.8975"/>
</g>
<!-- 35 -->
<g id="node36" class="node">
<title>35</title>
<path fill="none" stroke="#56a9d8" stroke-width="2" d="M916.8536,-980C916.8536,-980 800.0144,-980 800.0144,-980 794.0144,-980 788.0144,-974 788.0144,-968 788.0144,-968 788.0144,-956 788.0144,-956 788.0144,-950 794.0144,-944 800.0144,-944 800.0144,-944 916.8536,-944 916.8536,-944 922.8536,-944 928.8536,-950 928.8536,-956 928.8536,-956 928.8536,-968 928.8536,-968 928.8536,-974 922.8536,-980 916.8536,-980"/>
<text text-anchor="middle" x="858.434" y="-959" font-family="sans" font-size="10.00" fill="#000000">download_fast5_b6xcast_0512</text>
</g>
<!-- 35&#45;&gt;28 -->
<g id="edge44" class="edge">
<title>35&#45;&gt;28</title>
<path fill="none" stroke="#c0c0c0" stroke-width="2" d="M889.4101,-943.8776C901.7909,-934.8263 914.6922,-922.6581 921.434,-908 928.1197,-893.4638 929.2477,-885.9623 921.434,-872 910.4258,-852.3295 888.998,-838.954 870.0436,-830.4355"/>
<polygon fill="#c0c0c0" stroke="#c0c0c0" stroke-width="2" points="871.2864,-827.1614 860.7106,-826.5268 868.5823,-833.6181 871.2864,-827.1614"/>
</g>
<!-- 35&#45;&gt;34 -->
<g id="edge50" class="edge">
<title>35&#45;&gt;34</title>
<path fill="none" stroke="#c0c0c0" stroke-width="2" d="M848.5927,-943.8314C844.2383,-935.7925 839.0242,-926.1666 834.2171,-917.2918"/>
<polygon fill="#c0c0c0" stroke="#c0c0c0" stroke-width="2" points="837.2483,-915.5392 829.4079,-908.4133 831.0932,-918.8732 837.2483,-915.5392"/>
</g>
<!-- 36 -->
<g id="node37" class="node">
<title>36</title>
<path fill="none" stroke="#5663d8" stroke-width="2" d="M1142.4576,-908C1142.4576,-908 980.4104,-908 980.4104,-908 974.4104,-908 968.4104,-902 968.4104,-896 968.4104,-896 968.4104,-884 968.4104,-884 968.4104,-878 974.4104,-872 980.4104,-872 980.4104,-872 1142.4576,-872 1142.4576,-872 1148.4576,-872 1154.4576,-878 1154.4576,-884 1154.4576,-884 1154.4576,-896 1154.4576,-896 1154.4576,-902 1148.4576,-908 1142.4576,-908"/>
<text text-anchor="middle" x="1061.434" y="-893" font-family="sans" font-size="10.00" fill="#000000">fast5_md5</text>
<text text-anchor="middle" x="1061.434" y="-881" font-family="sans" font-size="10.00" fill="#000000">archive: 2017_05_03.b6xcast.minion.fast5</text>
</g>
<!-- 36&#45;&gt;29 -->
<g id="edge45" class="edge">
<title>36&#45;&gt;29</title>
<path fill="none" stroke="#c0c0c0" stroke-width="2" d="M1061.434,-871.8314C1061.434,-864.131 1061.434,-854.9743 1061.434,-846.4166"/>
<polygon fill="#c0c0c0" stroke="#c0c0c0" stroke-width="2" points="1064.9341,-846.4132 1061.434,-836.4133 1057.9341,-846.4133 1064.9341,-846.4132"/>
</g>
<!-- 37 -->
<g id="node38" class="node">
<title>37</title>
<path fill="none" stroke="#d88556" stroke-width="2" d="M1179.8536,-980C1179.8536,-980 1063.0144,-980 1063.0144,-980 1057.0144,-980 1051.0144,-974 1051.0144,-968 1051.0144,-968 1051.0144,-956 1051.0144,-956 1051.0144,-950 1057.0144,-944 1063.0144,-944 1063.0144,-944 1179.8536,-944 1179.8536,-944 1185.8536,-944 1191.8536,-950 1191.8536,-956 1191.8536,-956 1191.8536,-968 1191.8536,-968 1191.8536,-974 1185.8536,-980 1179.8536,-980"/>
<text text-anchor="middle" x="1121.434" y="-959" font-family="sans" font-size="10.00" fill="#000000">download_fast5_b6xcast_0503</text>
</g>
<!-- 37&#45;&gt;29 -->
<g id="edge46" class="edge">
<title>37&#45;&gt;29</title>
<path fill="none" stroke="#c0c0c0" stroke-width="2" d="M1140.4085,-943.8422C1157.4495,-925.2483 1177.7531,-895.7827 1163.434,-872 1149.3265,-848.5688 1121.2642,-834.7723 1098.1394,-826.9976"/>
<polygon fill="#c0c0c0" stroke="#c0c0c0" stroke-width="2" points="1099.1745,-823.6542 1088.5861,-824.0237 1097.0939,-830.3379 1099.1745,-823.6542"/>
</g>
<!-- 37&#45;&gt;36 -->
<g id="edge51" class="edge">
<title>37&#45;&gt;36</title>
<path fill="none" stroke="#c0c0c0" stroke-width="2" d="M1106.2935,-943.8314C1099.3123,-935.454 1090.8949,-925.3531 1083.2464,-916.1749"/>
<polygon fill="#c0c0c0" stroke="#c0c0c0" stroke-width="2" points="1085.8691,-913.8548 1076.7784,-908.4133 1080.4915,-918.3362 1085.8691,-913.8548"/>
</g>
<!-- 38 -->
<g id="node39" class="node">
<title>38</title>
<path fill="none" stroke="#5663d8" stroke-width="2" d="M658.4576,-908C658.4576,-908 496.4104,-908 496.4104,-908 490.4104,-908 484.4104,-902 484.4104,-896 484.4104,-896 484.4104,-884 484.4104,-884 484.4104,-878 490.4104,-872 496.4104,-872 496.4104,-872 658.4576,-872 658.4576,-872 664.4576,-872 670.4576,-878 670.4576,-884 670.4576,-884 670.4576,-896 670.4576,-896 670.4576,-902 664.4576,-908 658.4576,-908"/>
<text text-anchor="middle" x="577.434" y="-893" font-family="sans" font-size="10.00" fill="#000000">fast5_md5</text>
<text text-anchor="middle" x="577.434" y="-881" font-family="sans" font-size="10.00" fill="#000000">archive: 2017_05_25.b6xcast.minion.fast5</text>
</g>
<!-- 38&#45;&gt;30 -->
<g id="edge47" class="edge">
<title>38&#45;&gt;30</title>
<path fill="none" stroke="#c0c0c0" stroke-width="2" d="M607.9674,-871.8314C624.5412,-861.9692 645.1292,-849.7186 662.4759,-839.3965"/>
<polygon fill="#c0c0c0" stroke="#c0c0c0" stroke-width="2" points="664.4094,-842.3189 671.2133,-834.1975 660.8298,-836.3033 664.4094,-842.3189"/>
</g>
<!-- 39 -->
<g id="node40" class="node">
<title>39</title>
<path fill="none" stroke="#bed856" stroke-width="2" d="M716.8536,-980C716.8536,-980 600.0144,-980 600.0144,-980 594.0144,-980 588.0144,-974 588.0144,-968 588.0144,-968 588.0144,-956 588.0144,-956 588.0144,-950 594.0144,-944 600.0144,-944 600.0144,-944 716.8536,-944 716.8536,-944 722.8536,-944 728.8536,-950 728.8536,-956 728.8536,-956 728.8536,-968 728.8536,-968 728.8536,-974 722.8536,-980 716.8536,-980"/>
<text text-anchor="middle" x="658.434" y="-959" font-family="sans" font-size="10.00" fill="#000000">download_fast5_b6xcast_0525</text>
</g>
<!-- 39&#45;&gt;30 -->
<g id="edge48" class="edge">
<title>39&#45;&gt;30</title>
<path fill="none" stroke="#c0c0c0" stroke-width="2" d="M666.3812,-943.7644C670.6724,-933.4182 675.8162,-920.147 679.434,-908 685.5024,-887.6253 690.3974,-864.1032 693.6984,-846.2169"/>
<polygon fill="#c0c0c0" stroke="#c0c0c0" stroke-width="2" points="697.1843,-846.6057 695.4992,-836.1457 690.2936,-845.3735 697.1843,-846.6057"/>
</g>
<!-- 39&#45;&gt;38 -->
<g id="edge52" class="edge">
<title>39&#45;&gt;38</title>
<path fill="none" stroke="#c0c0c0" stroke-width="2" d="M637.9943,-943.8314C628.1135,-935.0485 616.1016,-924.3712 605.389,-914.8489"/>
<polygon fill="#c0c0c0" stroke="#c0c0c0" stroke-width="2" points="607.6666,-912.1906 597.8672,-908.1628 603.016,-917.4224 607.6666,-912.1906"/>
</g>
<!-- 40&#45;&gt;33 -->
<g id="edge49" class="edge">
<title>40&#45;&gt;33</title>
<path fill="none" stroke="#c0c0c0" stroke-width="2" d="M272.0678,-658.1102C231.5893,-647.2758 177.7429,-632.8633 134.7589,-621.3583"/>
<polygon fill="#c0c0c0" stroke="#c0c0c0" stroke-width="2" points="135.4883,-617.9304 124.9234,-618.7258 133.6784,-624.6924 135.4883,-617.9304"/>
</g>
<!-- 41&#45;&gt;40 -->
<g id="edge53" class="edge">
<title>41&#45;&gt;40</title>
<path fill="none" stroke="#c0c0c0" stroke-width="2" d="M331.434,-727.8314C331.434,-720.131 331.434,-710.9743 331.434,-702.4166"/>
<polygon fill="#c0c0c0" stroke="#c0c0c0" stroke-width="2" points="334.9341,-702.4132 331.434,-692.4133 327.9341,-702.4133 334.9341,-702.4132"/>
</g>
</g>
</svg>
