<?xml version="1.0" encoding="UTF-8" standalone="no"?>
<!DOCTYPE svg PUBLIC "-//W3C//DTD SVG 1.1//EN"
 "http://www.w3.org/Graphics/SVG/1.1/DTD/svg11.dtd">
<!-- Generated by graphviz version 2.40.1 (20161225.0304)
 -->
<!-- Title: snakemake_dag Pages: 1 -->
<svg width="1150pt" height="1060pt"
 viewBox="0.00 0.00 1149.64 1060.00" xmlns="http://www.w3.org/2000/svg" xmlns:xlink="http://www.w3.org/1999/xlink">
<g id="graph0" class="graph" transform="scale(1 1) rotate(0) translate(4 1056)">
<title>snakemake_dag</title>
<polygon fill="#ffffff" stroke="transparent" points="-4,4 -4,-1056 1145.6435,-1056 1145.6435,4 -4,4"/>
<!-- 0 -->
<g id="node1" class="node">
<title>0</title>
<path fill="none" stroke="#80d856" stroke-width="2" d="M427.0686,-252C427.0686,-252 333.7994,-252 333.7994,-252 327.7994,-252 321.7994,-246 321.7994,-240 321.7994,-240 321.7994,-228 321.7994,-228 321.7994,-222 327.7994,-216 333.7994,-216 333.7994,-216 427.0686,-216 427.0686,-216 433.0686,-216 439.0686,-222 439.0686,-228 439.0686,-228 439.0686,-240 439.0686,-240 439.0686,-246 433.0686,-252 427.0686,-252"/>
<text text-anchor="middle" x="380.434" y="-231" font-family="sans" font-size="10.00" fill="#000000">merge_matched_bisulfite</text>
</g>
<!-- 22 -->
<g id="node23" class="node">
<title>22</title>
<path fill="none" stroke="#d88d56" stroke-width="2" d="M426.5946,-180C426.5946,-180 348.2734,-180 348.2734,-180 342.2734,-180 336.2734,-174 336.2734,-168 336.2734,-168 336.2734,-156 336.2734,-156 336.2734,-150 342.2734,-144 348.2734,-144 348.2734,-144 426.5946,-144 426.5946,-144 432.5946,-144 438.5946,-150 438.5946,-156 438.5946,-156 438.5946,-168 438.5946,-168 438.5946,-174 432.5946,-180 426.5946,-180"/>
<text text-anchor="middle" x="387.434" y="-159" font-family="sans" font-size="10.00" fill="#000000">build_methylation_df</text>
</g>
<!-- 0&#45;&gt;22 -->
<g id="edge36" class="edge">
<title>0&#45;&gt;22</title>
<path fill="none" stroke="#c0c0c0" stroke-width="2" d="M382.2004,-215.8314C382.949,-208.131 383.8393,-198.9743 384.6713,-190.4166"/>
<polygon fill="#c0c0c0" stroke="#c0c0c0" stroke-width="2" points="388.1596,-190.7051 385.6438,-180.4133 381.1925,-190.0276 388.1596,-190.7051"/>
</g>
<!-- 1 -->
<g id="node2" class="node">
<title>1</title>
<path fill="none" stroke="#56d86b" stroke-width="2" d="M549.021,-692C549.021,-692 455.847,-692 455.847,-692 449.847,-692 443.847,-686 443.847,-680 443.847,-680 443.847,-668 443.847,-668 443.847,-662 449.847,-656 455.847,-656 455.847,-656 549.021,-656 549.021,-656 555.021,-656 561.021,-662 561.021,-668 561.021,-668 561.021,-680 561.021,-680 561.021,-686 555.021,-692 549.021,-692"/>
<text text-anchor="middle" x="502.434" y="-677" font-family="sans" font-size="10.00" fill="#000000">mask_with_cast_genome</text>
<text text-anchor="middle" x="502.434" y="-665" font-family="sans" font-size="10.00" fill="#000000">genome: GRCm38_90</text>
</g>
<!-- 3 -->
<g id="node4" class="node">
<title>3</title>
<path fill="none" stroke="#566bd8" stroke-width="2" d="M621.5935,-396C621.5935,-396 533.2745,-396 533.2745,-396 527.2745,-396 521.2745,-390 521.2745,-384 521.2745,-384 521.2745,-372 521.2745,-372 521.2745,-366 527.2745,-360 533.2745,-360 533.2745,-360 621.5935,-360 621.5935,-360 627.5935,-360 633.5935,-366 633.5935,-372 633.5935,-372 633.5935,-384 633.5935,-384 633.5935,-390 627.5935,-396 621.5935,-396"/>
<text text-anchor="middle" x="577.434" y="-375" font-family="sans" font-size="10.00" fill="#000000">nanopolish_methylation</text>
</g>
<!-- 1&#45;&gt;3 -->
<g id="edge6" class="edge">
<title>1&#45;&gt;3</title>
<path fill="none" stroke="#c0c0c0" stroke-width="2" d="M501.1371,-655.7689C498.9003,-614.1465 497.4278,-509.7271 531.434,-432 535.923,-421.7397 543.0272,-411.9549 550.3223,-403.6024"/>
<polygon fill="#c0c0c0" stroke="#c0c0c0" stroke-width="2" points="553.0741,-405.7818 557.2959,-396.0645 547.9358,-401.0281 553.0741,-405.7818"/>
</g>
<!-- 6 -->
<g id="node7" class="node">
<title>6</title>
<path fill="none" stroke="#56b9d8" stroke-width="2" d="M707.308,-620C707.308,-620 561.56,-620 561.56,-620 555.56,-620 549.56,-614 549.56,-608 549.56,-608 549.56,-596 549.56,-596 549.56,-590 555.56,-584 561.56,-584 561.56,-584 707.308,-584 707.308,-584 713.308,-584 719.308,-590 719.308,-596 719.308,-596 719.308,-608 719.308,-608 719.308,-614 713.308,-620 707.308,-620"/>
<text text-anchor="middle" x="634.434" y="-605" font-family="sans" font-size="10.00" fill="#000000">bwa_index</text>
<text text-anchor="middle" x="634.434" y="-593" font-family="sans" font-size="10.00" fill="#000000">genome: GRCm38_90.CAST_masked</text>
</g>
<!-- 1&#45;&gt;6 -->
<g id="edge13" class="edge">
<title>1&#45;&gt;6</title>
<path fill="none" stroke="#c0c0c0" stroke-width="2" d="M535.7432,-655.8314C552.8613,-646.4942 573.9046,-635.016 592.1562,-625.0606"/>
<polygon fill="#c0c0c0" stroke="#c0c0c0" stroke-width="2" points="594.0325,-628.024 601.1355,-620.1628 590.6805,-621.8788 594.0325,-628.024"/>
</g>
<!-- 21 -->
<g id="node22" class="node">
<title>21</title>
<path fill="none" stroke="#56c9d8" stroke-width="2" d="M663.5867,-544C663.5867,-544 605.2813,-544 605.2813,-544 599.2813,-544 593.2813,-538 593.2813,-532 593.2813,-532 593.2813,-520 593.2813,-520 593.2813,-514 599.2813,-508 605.2813,-508 605.2813,-508 663.5867,-508 663.5867,-508 669.5867,-508 675.5867,-514 675.5867,-520 675.5867,-520 675.5867,-532 675.5867,-532 675.5867,-538 669.5867,-544 663.5867,-544"/>
<text text-anchor="middle" x="634.434" y="-523" font-family="sans" font-size="10.00" fill="#000000">bwa_mem_align</text>
</g>
<!-- 1&#45;&gt;21 -->
<g id="edge33" class="edge">
<title>1&#45;&gt;21</title>
<path fill="none" stroke="#c0c0c0" stroke-width="2" d="M506.6152,-655.6657C511.8263,-636.114 522.3296,-605.1171 540.434,-584 552.4325,-570.0049 568.675,-558.3418 584.2822,-549.2328"/>
<polygon fill="#c0c0c0" stroke="#c0c0c0" stroke-width="2" points="586.3343,-552.0957 593.3611,-544.1664 582.9232,-545.9831 586.3343,-552.0957"/>
</g>
<!-- 2 -->
<g id="node3" class="node">
<title>2</title>
<path fill="none" stroke="#b6d856" stroke-width="2" d="M380.2471,-836C380.2471,-836 252.6209,-836 252.6209,-836 246.6209,-836 240.6209,-830 240.6209,-824 240.6209,-824 240.6209,-812 240.6209,-812 240.6209,-806 246.6209,-800 252.6209,-800 252.6209,-800 380.2471,-800 380.2471,-800 386.2471,-800 392.2471,-806 392.2471,-812 392.2471,-812 392.2471,-824 392.2471,-824 392.2471,-830 386.2471,-836 380.2471,-836"/>
<text text-anchor="middle" x="316.434" y="-821" font-family="sans" font-size="10.00" fill="#000000">gunzip_fa</text>
<text text-anchor="middle" x="316.434" y="-809" font-family="sans" font-size="10.00" fill="#000000">file: ../genome_data/GRCm38_90</text>
</g>
<!-- 2&#45;&gt;1 -->
<g id="edge3" class="edge">
<title>2&#45;&gt;1</title>
<path fill="none" stroke="#c0c0c0" stroke-width="2" d="M323.9184,-799.7957C332.9749,-779.7713 349.9783,-747.81 373.434,-728 390.9668,-713.1923 413.1391,-701.9576 434.1346,-693.6762"/>
<polygon fill="#c0c0c0" stroke="#c0c0c0" stroke-width="2" points="435.5561,-696.8807 443.6774,-690.0767 433.0856,-690.3312 435.5561,-696.8807"/>
</g>
<!-- 19 -->
<g id="node20" class="node">
<title>19</title>
<path fill="none" stroke="#d89c56" stroke-width="2" d="M314.6312,-764C314.6312,-764 240.2368,-764 240.2368,-764 234.2368,-764 228.2368,-758 228.2368,-752 228.2368,-752 228.2368,-740 228.2368,-740 228.2368,-734 234.2368,-728 240.2368,-728 240.2368,-728 314.6312,-728 314.6312,-728 320.6312,-728 326.6312,-734 326.6312,-740 326.6312,-740 326.6312,-752 326.6312,-752 326.6312,-758 320.6312,-764 314.6312,-764"/>
<text text-anchor="middle" x="277.434" y="-743" font-family="sans" font-size="10.00" fill="#000000">snpsplit_create_path</text>
</g>
<!-- 2&#45;&gt;19 -->
<g id="edge32" class="edge">
<title>2&#45;&gt;19</title>
<path fill="none" stroke="#c0c0c0" stroke-width="2" d="M306.5927,-799.8314C302.2383,-791.7925 297.0242,-782.1666 292.2171,-773.2918"/>
<polygon fill="#c0c0c0" stroke="#c0c0c0" stroke-width="2" points="295.2483,-771.5392 287.4079,-764.4133 289.0932,-774.8732 295.2483,-771.5392"/>
</g>
<!-- 37 -->
<g id="node38" class="node">
<title>37</title>
<path fill="none" stroke="#d85656" stroke-width="2" d="M609.2143,-324C609.2143,-324 483.6537,-324 483.6537,-324 477.6537,-324 471.6537,-318 471.6537,-312 471.6537,-312 471.6537,-300 471.6537,-300 471.6537,-294 477.6537,-288 483.6537,-288 483.6537,-288 609.2143,-288 609.2143,-288 615.2143,-288 621.2143,-294 621.2143,-300 621.2143,-300 621.2143,-312 621.2143,-312 621.2143,-318 615.2143,-324 609.2143,-324"/>
<text text-anchor="middle" x="546.434" y="-303" font-family="sans" font-size="10.00" fill="#000000">calculate_methylation_frequency</text>
</g>
<!-- 3&#45;&gt;37 -->
<g id="edge53" class="edge">
<title>3&#45;&gt;37</title>
<path fill="none" stroke="#c0c0c0" stroke-width="2" d="M569.6114,-359.8314C566.2231,-351.9617 562.1799,-342.5712 558.4264,-333.8533"/>
<polygon fill="#c0c0c0" stroke="#c0c0c0" stroke-width="2" points="561.5313,-332.214 554.3619,-324.4133 555.1019,-334.9822 561.5313,-332.214"/>
</g>
<!-- 4 -->
<g id="node5" class="node">
<title>4</title>
<path fill="none" stroke="#56d8b1" stroke-width="2" d="M851.0381,-544C851.0381,-544 787.8299,-544 787.8299,-544 781.8299,-544 775.8299,-538 775.8299,-532 775.8299,-532 775.8299,-520 775.8299,-520 775.8299,-514 781.8299,-508 787.8299,-508 787.8299,-508 851.0381,-508 851.0381,-508 857.0381,-508 863.0381,-514 863.0381,-520 863.0381,-520 863.0381,-532 863.0381,-532 863.0381,-538 857.0381,-544 851.0381,-544"/>
<text text-anchor="middle" x="819.434" y="-523" font-family="sans" font-size="10.00" fill="#000000">nanopolish_index</text>
</g>
<!-- 4&#45;&gt;3 -->
<g id="edge9" class="edge">
<title>4&#45;&gt;3</title>
<path fill="none" stroke="#c0c0c0" stroke-width="2" d="M812.97,-507.997C804.4244,-486.7369 787.3519,-451.7729 761.434,-432 727.4178,-406.0489 681.1835,-392.5445 643.5711,-385.53"/>
<polygon fill="#c0c0c0" stroke="#c0c0c0" stroke-width="2" points="644.1634,-382.0806 633.7092,-383.8008 642.9544,-388.9754 644.1634,-382.0806"/>
</g>
<!-- 5 -->
<g id="node6" class="node">
<title>5</title>
<path fill="none" stroke="#78d856" stroke-width="2" d="M607.4576,-980C607.4576,-980 445.4104,-980 445.4104,-980 439.4104,-980 433.4104,-974 433.4104,-968 433.4104,-968 433.4104,-956 433.4104,-956 433.4104,-950 439.4104,-944 445.4104,-944 445.4104,-944 607.4576,-944 607.4576,-944 613.4576,-944 619.4576,-950 619.4576,-956 619.4576,-956 619.4576,-968 619.4576,-968 619.4576,-974 613.4576,-980 607.4576,-980"/>
<text text-anchor="middle" x="526.434" y="-965" font-family="sans" font-size="10.00" fill="#000000">fast5_md5</text>
<text text-anchor="middle" x="526.434" y="-953" font-family="sans" font-size="10.00" fill="#000000">archive: 2017_05_25.b6xcast.minion.fast5</text>
</g>
<!-- 34 -->
<g id="node35" class="node">
<title>34</title>
<path fill="none" stroke="#d85e56" stroke-width="2" d="M663.434,-908C663.434,-908 633.434,-908 633.434,-908 627.434,-908 621.434,-902 621.434,-896 621.434,-896 621.434,-884 621.434,-884 621.434,-878 627.434,-872 633.434,-872 633.434,-872 663.434,-872 663.434,-872 669.434,-872 675.434,-878 675.434,-884 675.434,-884 675.434,-896 675.434,-896 675.434,-902 669.434,-908 663.434,-908"/>
<text text-anchor="middle" x="648.434" y="-887" font-family="sans" font-size="10.00" fill="#000000">untar</text>
</g>
<!-- 5&#45;&gt;34 -->
<g id="edge48" class="edge">
<title>5&#45;&gt;34</title>
<path fill="none" stroke="#c0c0c0" stroke-width="2" d="M557.2198,-943.8314C574.0508,-933.8983 594.9875,-921.5422 612.5557,-911.1741"/>
<polygon fill="#c0c0c0" stroke="#c0c0c0" stroke-width="2" points="614.5629,-914.0536 621.3961,-905.9568 611.0051,-908.0251 614.5629,-914.0536"/>
</g>
<!-- 6&#45;&gt;21 -->
<g id="edge35" class="edge">
<title>6&#45;&gt;21</title>
<path fill="none" stroke="#c0c0c0" stroke-width="2" d="M634.434,-583.9891C634.434,-575.1566 634.434,-564.3099 634.434,-554.3965"/>
<polygon fill="#c0c0c0" stroke="#c0c0c0" stroke-width="2" points="637.9341,-554.145 634.434,-544.145 630.9341,-554.1451 637.9341,-554.145"/>
</g>
<!-- 7 -->
<g id="node8" class="node">
<title>7</title>
<path fill="none" stroke="#d85e56" stroke-width="2" d="M707.6233,-468C707.6233,-468 561.2447,-468 561.2447,-468 555.2447,-468 549.2447,-462 549.2447,-456 549.2447,-456 549.2447,-444 549.2447,-444 549.2447,-438 555.2447,-432 561.2447,-432 561.2447,-432 707.6233,-432 707.6233,-432 713.6233,-432 719.6233,-438 719.6233,-444 719.6233,-444 719.6233,-456 719.6233,-456 719.6233,-462 713.6233,-468 707.6233,-468"/>
<text text-anchor="middle" x="634.434" y="-453" font-family="sans" font-size="10.00" fill="#000000">samtools_index</text>
<text text-anchor="middle" x="634.434" y="-441" font-family="sans" font-size="10.00" fill="#000000">file: ../nanopore/b6xcast.minion.sorted</text>
</g>
<!-- 7&#45;&gt;3 -->
<g id="edge5" class="edge">
<title>7&#45;&gt;3</title>
<path fill="none" stroke="#c0c0c0" stroke-width="2" d="M620.0505,-431.8314C613.4854,-423.5386 605.5833,-413.557 598.3762,-404.4533"/>
<polygon fill="#c0c0c0" stroke="#c0c0c0" stroke-width="2" points="600.9624,-402.0813 592.0112,-396.4133 595.4741,-406.4262 600.9624,-402.0813"/>
</g>
<!-- 8 -->
<g id="node9" class="node">
<title>8</title>
<path fill="none" stroke="#9fd856" stroke-width="2" d="M443.3116,-548C443.3116,-548 349.5564,-548 349.5564,-548 343.5564,-548 337.5564,-542 337.5564,-536 337.5564,-536 337.5564,-516 337.5564,-516 337.5564,-510 343.5564,-504 349.5564,-504 349.5564,-504 443.3116,-504 443.3116,-504 449.3116,-504 455.3116,-510 455.3116,-516 455.3116,-516 455.3116,-536 455.3116,-536 455.3116,-542 449.3116,-548 443.3116,-548"/>
<text text-anchor="middle" x="396.434" y="-535" font-family="sans" font-size="10.00" fill="#000000">fastq_md5</text>
<text text-anchor="middle" x="396.434" y="-523" font-family="sans" font-size="10.00" fill="#000000">archive: B6CastF1_1_R2</text>
<text text-anchor="middle" x="396.434" y="-511" font-family="sans" font-size="10.00" fill="#000000">outdir: bisulfite</text>
</g>
<!-- 15 -->
<g id="node16" class="node">
<title>15</title>
<path fill="none" stroke="#56d863" stroke-width="2" d="M316.0428,-468C316.0428,-468 240.8252,-468 240.8252,-468 234.8252,-468 228.8252,-462 228.8252,-456 228.8252,-456 228.8252,-444 228.8252,-444 228.8252,-438 234.8252,-432 240.8252,-432 240.8252,-432 316.0428,-432 316.0428,-432 322.0428,-432 328.0428,-438 328.0428,-444 328.0428,-444 328.0428,-456 328.0428,-456 328.0428,-462 322.0428,-468 316.0428,-468"/>
<text text-anchor="middle" x="278.434" y="-453" font-family="sans" font-size="10.00" fill="#000000">trim_galore</text>
<text text-anchor="middle" x="278.434" y="-441" font-family="sans" font-size="10.00" fill="#000000">sample: B6CastF1_1</text>
</g>
<!-- 8&#45;&gt;15 -->
<g id="edge26" class="edge">
<title>8&#45;&gt;15</title>
<path fill="none" stroke="#c0c0c0" stroke-width="2" d="M361.9863,-503.8133C347.315,-494.364 330.1784,-483.3269 315.2568,-473.7164"/>
<polygon fill="#c0c0c0" stroke="#c0c0c0" stroke-width="2" points="317.0648,-470.7177 306.7624,-468.2454 313.2744,-476.6028 317.0648,-470.7177"/>
</g>
<!-- 9 -->
<g id="node10" class="node">
<title>9</title>
<path fill="none" stroke="#d85e56" stroke-width="2" d="M1024.434,-908C1024.434,-908 994.434,-908 994.434,-908 988.434,-908 982.434,-902 982.434,-896 982.434,-896 982.434,-884 982.434,-884 982.434,-878 988.434,-872 994.434,-872 994.434,-872 1024.434,-872 1024.434,-872 1030.434,-872 1036.434,-878 1036.434,-884 1036.434,-884 1036.434,-896 1036.434,-896 1036.434,-902 1030.434,-908 1024.434,-908"/>
<text text-anchor="middle" x="1009.434" y="-887" font-family="sans" font-size="10.00" fill="#000000">untar</text>
</g>
<!-- 10 -->
<g id="node11" class="node">
<title>10</title>
<path fill="none" stroke="#88d856" stroke-width="2" d="M860.4674,-764C860.4674,-764 808.4006,-764 808.4006,-764 802.4006,-764 796.4006,-758 796.4006,-752 796.4006,-752 796.4006,-740 796.4006,-740 796.4006,-734 802.4006,-728 808.4006,-728 808.4006,-728 860.4674,-728 860.4674,-728 866.4674,-728 872.4674,-734 872.4674,-740 872.4674,-740 872.4674,-752 872.4674,-752 872.4674,-758 866.4674,-764 860.4674,-764"/>
<text text-anchor="middle" x="834.434" y="-743" font-family="sans" font-size="10.00" fill="#000000">merge_b6xcast</text>
</g>
<!-- 9&#45;&gt;10 -->
<g id="edge23" class="edge">
<title>9&#45;&gt;10</title>
<path fill="none" stroke="#c0c0c0" stroke-width="2" d="M987.2701,-871.7623C956.1065,-846.119 899.2535,-799.3372 864.3616,-770.6262"/>
<polygon fill="#c0c0c0" stroke="#c0c0c0" stroke-width="2" points="866.3637,-767.741 856.4179,-764.0896 861.9159,-773.1463 866.3637,-767.741"/>
</g>
<!-- 26 -->
<g id="node27" class="node">
<title>26</title>
<path fill="none" stroke="#59d856" stroke-width="2" d="M1027.5779,-836C1027.5779,-836 979.2901,-836 979.2901,-836 973.2901,-836 967.2901,-830 967.2901,-824 967.2901,-824 967.2901,-812 967.2901,-812 967.2901,-806 973.2901,-800 979.2901,-800 979.2901,-800 1027.5779,-800 1027.5779,-800 1033.5779,-800 1039.5779,-806 1039.5779,-812 1039.5779,-812 1039.5779,-824 1039.5779,-824 1039.5779,-830 1033.5779,-836 1027.5779,-836"/>
<text text-anchor="middle" x="1003.434" y="-815" font-family="sans" font-size="10.00" fill="#000000">untar_cleanup</text>
</g>
<!-- 9&#45;&gt;26 -->
<g id="edge41" class="edge">
<title>9&#45;&gt;26</title>
<path fill="none" stroke="#c0c0c0" stroke-width="2" d="M1007.9199,-871.8314C1007.2782,-864.131 1006.5152,-854.9743 1005.8021,-846.4166"/>
<polygon fill="#c0c0c0" stroke="#c0c0c0" stroke-width="2" points="1009.2869,-846.088 1004.9684,-836.4133 1002.3111,-846.6694 1009.2869,-846.088"/>
</g>
<!-- 10&#45;&gt;4 -->
<g id="edge11" class="edge">
<title>10&#45;&gt;4</title>
<path fill="none" stroke="#c0c0c0" stroke-width="2" d="M841.7862,-727.6542C852.9078,-697.2338 871.2224,-634.6791 856.434,-584 853.1808,-572.8514 847.0611,-561.8044 840.7217,-552.3902"/>
<polygon fill="#c0c0c0" stroke="#c0c0c0" stroke-width="2" points="843.5702,-550.3565 834.914,-544.2474 837.8712,-554.4212 843.5702,-550.3565"/>
</g>
<!-- 27 -->
<g id="node28" class="node">
<title>27</title>
<path fill="none" stroke="#a7d856" stroke-width="2" d="M828.1352,-692C828.1352,-692 768.7328,-692 768.7328,-692 762.7328,-692 756.7328,-686 756.7328,-680 756.7328,-680 756.7328,-668 756.7328,-668 756.7328,-662 762.7328,-656 768.7328,-656 768.7328,-656 828.1352,-656 828.1352,-656 834.1352,-656 840.1352,-662 840.1352,-668 840.1352,-668 840.1352,-680 840.1352,-680 840.1352,-686 834.1352,-692 828.1352,-692"/>
<text text-anchor="middle" x="798.434" y="-677" font-family="sans" font-size="10.00" fill="#000000">albacore_minion</text>
<text text-anchor="middle" x="798.434" y="-665" font-family="sans" font-size="10.00" fill="#000000">sample: b6xcast</text>
</g>
<!-- 10&#45;&gt;27 -->
<g id="edge42" class="edge">
<title>10&#45;&gt;27</title>
<path fill="none" stroke="#c0c0c0" stroke-width="2" d="M825.3497,-727.8314C821.3725,-719.8771 816.6185,-710.369 812.2201,-701.5723"/>
<polygon fill="#c0c0c0" stroke="#c0c0c0" stroke-width="2" points="815.2433,-699.7923 807.6406,-692.4133 808.9823,-702.9228 815.2433,-699.7923"/>
</g>
<!-- 11 -->
<g id="node12" class="node">
<title>11</title>
<path fill="none" stroke="#d8a456" stroke-width="2" d="M431.5894,-620C431.5894,-620 323.2786,-620 323.2786,-620 317.2786,-620 311.2786,-614 311.2786,-608 311.2786,-608 311.2786,-596 311.2786,-596 311.2786,-590 317.2786,-584 323.2786,-584 323.2786,-584 431.5894,-584 431.5894,-584 437.5894,-584 443.5894,-590 443.5894,-596 443.5894,-596 443.5894,-608 443.5894,-608 443.5894,-614 437.5894,-620 431.5894,-620"/>
<text text-anchor="middle" x="377.434" y="-605" font-family="sans" font-size="10.00" fill="#000000">download_bisulfite_B6Cast1</text>
<text text-anchor="middle" x="377.434" y="-593" font-family="sans" font-size="10.00" fill="#000000">file: 2</text>
</g>
<!-- 11&#45;&gt;8 -->
<g id="edge15" class="edge">
<title>11&#45;&gt;8</title>
<path fill="none" stroke="#c0c0c0" stroke-width="2" d="M381.9367,-583.9891C383.8822,-576.2073 386.2185,-566.8621 388.4417,-557.9691"/>
<polygon fill="#c0c0c0" stroke="#c0c0c0" stroke-width="2" points="391.847,-558.7785 390.8769,-548.2282 385.056,-557.0807 391.847,-558.7785"/>
</g>
<!-- 11&#45;&gt;15 -->
<g id="edge29" class="edge">
<title>11&#45;&gt;15</title>
<path fill="none" stroke="#c0c0c0" stroke-width="2" d="M358.4259,-583.5491C348.7496,-573.5686 337.2097,-560.7089 328.434,-548 312.9513,-525.5783 299.1977,-497.7138 290.0539,-477.4351"/>
<polygon fill="#c0c0c0" stroke="#c0c0c0" stroke-width="2" points="293.1923,-475.8778 285.9481,-468.1466 286.7899,-478.7079 293.1923,-475.8778"/>
</g>
<!-- 12 -->
<g id="node13" class="node">
<title>12</title>
<path fill="none" stroke="#61d856" stroke-width="2" d="M594.9804,-252C594.9804,-252 547.8876,-252 547.8876,-252 541.8876,-252 535.8876,-246 535.8876,-240 535.8876,-240 535.8876,-228 535.8876,-228 535.8876,-222 541.8876,-216 547.8876,-216 547.8876,-216 594.9804,-216 594.9804,-216 600.9804,-216 606.9804,-222 606.9804,-228 606.9804,-228 606.9804,-240 606.9804,-240 606.9804,-246 600.9804,-252 594.9804,-252"/>
<text text-anchor="middle" x="571.434" y="-231" font-family="sans" font-size="10.00" fill="#000000">download_gtf</text>
</g>
<!-- 13 -->
<g id="node14" class="node">
<title>13</title>
<path fill="none" stroke="#56d8d8" stroke-width="2" d="M674.568,-180C674.568,-180 468.3,-180 468.3,-180 462.3,-180 456.3,-174 456.3,-168 456.3,-168 456.3,-156 456.3,-156 456.3,-150 462.3,-144 468.3,-144 468.3,-144 674.568,-144 674.568,-144 680.568,-144 686.568,-150 686.568,-156 686.568,-156 686.568,-168 686.568,-168 686.568,-174 680.568,-180 674.568,-180"/>
<text text-anchor="middle" x="571.434" y="-165" font-family="sans" font-size="10.00" fill="#000000">gunzip_gtf</text>
<text text-anchor="middle" x="571.434" y="-153" font-family="sans" font-size="10.00" fill="#000000">file: ../genome_data/Mus_musculus.GRCm38_90.chr</text>
</g>
<!-- 12&#45;&gt;13 -->
<g id="edge24" class="edge">
<title>12&#45;&gt;13</title>
<path fill="none" stroke="#c0c0c0" stroke-width="2" d="M571.434,-215.8314C571.434,-208.131 571.434,-198.9743 571.434,-190.4166"/>
<polygon fill="#c0c0c0" stroke="#c0c0c0" stroke-width="2" points="574.9341,-190.4132 571.434,-180.4133 567.9341,-190.4133 574.9341,-190.4132"/>
</g>
<!-- 42 -->
<g id="node43" class="node">
<title>42</title>
<path fill="none" stroke="#56d8b9" stroke-width="2" d="M639.015,-108C639.015,-108 495.853,-108 495.853,-108 489.853,-108 483.853,-102 483.853,-96 483.853,-96 483.853,-84 483.853,-84 483.853,-78 489.853,-72 495.853,-72 495.853,-72 639.015,-72 639.015,-72 645.015,-72 651.015,-78 651.015,-84 651.015,-84 651.015,-96 651.015,-96 651.015,-102 645.015,-108 639.015,-108"/>
<text text-anchor="middle" x="567.434" y="-87" font-family="sans" font-size="10.00" fill="#000000">genome_level_methylation_summary</text>
</g>
<!-- 13&#45;&gt;42 -->
<g id="edge58" class="edge">
<title>13&#45;&gt;42</title>
<path fill="none" stroke="#c0c0c0" stroke-width="2" d="M570.4246,-143.8314C569.9968,-136.131 569.4881,-126.9743 569.0127,-118.4166"/>
<polygon fill="#c0c0c0" stroke="#c0c0c0" stroke-width="2" points="572.5064,-118.2037 568.457,-108.4133 565.5171,-118.592 572.5064,-118.2037"/>
</g>
<!-- 14 -->
<g id="node15" class="node">
<title>14</title>
<path fill="none" stroke="#d89556" stroke-width="2" d="M454.0874,-108C454.0874,-108 320.7806,-108 320.7806,-108 314.7806,-108 308.7806,-102 308.7806,-96 308.7806,-96 308.7806,-84 308.7806,-84 308.7806,-78 314.7806,-72 320.7806,-72 320.7806,-72 454.0874,-72 454.0874,-72 460.0874,-72 466.0874,-78 466.0874,-84 466.0874,-84 466.0874,-96 466.0874,-96 466.0874,-102 460.0874,-108 454.0874,-108"/>
<text text-anchor="middle" x="387.434" y="-87" font-family="sans" font-size="10.00" fill="#000000">nanopolish_methylation_validation</text>
</g>
<!-- 35 -->
<g id="node36" class="node">
<title>35</title>
<path fill="none" stroke="#567bd8" stroke-width="2" d="M515.921,-36C515.921,-36 438.947,-36 438.947,-36 432.947,-36 426.947,-30 426.947,-24 426.947,-24 426.947,-12 426.947,-12 426.947,-6 432.947,0 438.947,0 438.947,0 515.921,0 515.921,0 521.921,0 527.921,-6 527.921,-12 527.921,-12 527.921,-24 527.921,-24 527.921,-30 521.921,-36 515.921,-36"/>
<text text-anchor="middle" x="477.434" y="-15" font-family="sans" font-size="10.00" fill="#000000">methylation_analysis</text>
</g>
<!-- 14&#45;&gt;35 -->
<g id="edge50" class="edge">
<title>14&#45;&gt;35</title>
<path fill="none" stroke="#c0c0c0" stroke-width="2" d="M410.1448,-71.8314C421.23,-62.9632 434.7294,-52.1637 446.7192,-42.5718"/>
<polygon fill="#c0c0c0" stroke="#c0c0c0" stroke-width="2" points="449.1082,-45.1429 454.7305,-36.1628 444.7353,-39.6768 449.1082,-45.1429"/>
</g>
<!-- 23 -->
<g id="node24" class="node">
<title>23</title>
<path fill="none" stroke="#d8b456" stroke-width="2" d="M303.1463,-396C303.1463,-396 253.7217,-396 253.7217,-396 247.7217,-396 241.7217,-390 241.7217,-384 241.7217,-384 241.7217,-372 241.7217,-372 241.7217,-366 247.7217,-360 253.7217,-360 253.7217,-360 303.1463,-360 303.1463,-360 309.1463,-360 315.1463,-366 315.1463,-372 315.1463,-372 315.1463,-384 315.1463,-384 315.1463,-390 309.1463,-396 303.1463,-396"/>
<text text-anchor="middle" x="278.434" y="-375" font-family="sans" font-size="10.00" fill="#000000">bismark_align</text>
</g>
<!-- 15&#45;&gt;23 -->
<g id="edge38" class="edge">
<title>15&#45;&gt;23</title>
<path fill="none" stroke="#c0c0c0" stroke-width="2" d="M278.434,-431.8314C278.434,-424.131 278.434,-414.9743 278.434,-406.4166"/>
<polygon fill="#c0c0c0" stroke="#c0c0c0" stroke-width="2" points="281.9341,-406.4132 278.434,-396.4133 274.9341,-406.4133 281.9341,-406.4132"/>
</g>
<!-- 16 -->
<g id="node17" class="node">
<title>16</title>
<path fill="none" stroke="#9fd856" stroke-width="2" d="M269.3116,-548C269.3116,-548 175.5564,-548 175.5564,-548 169.5564,-548 163.5564,-542 163.5564,-536 163.5564,-536 163.5564,-516 163.5564,-516 163.5564,-510 169.5564,-504 175.5564,-504 175.5564,-504 269.3116,-504 269.3116,-504 275.3116,-504 281.3116,-510 281.3116,-516 281.3116,-516 281.3116,-536 281.3116,-536 281.3116,-542 275.3116,-548 269.3116,-548"/>
<text text-anchor="middle" x="222.434" y="-535" font-family="sans" font-size="10.00" fill="#000000">fastq_md5</text>
<text text-anchor="middle" x="222.434" y="-523" font-family="sans" font-size="10.00" fill="#000000">archive: B6CastF1_1_R1</text>
<text text-anchor="middle" x="222.434" y="-511" font-family="sans" font-size="10.00" fill="#000000">outdir: bisulfite</text>
</g>
<!-- 16&#45;&gt;15 -->
<g id="edge27" class="edge">
<title>16&#45;&gt;15</title>
<path fill="none" stroke="#c0c0c0" stroke-width="2" d="M238.933,-503.6086C245.192,-495.1142 252.379,-485.3604 258.8921,-476.5211"/>
<polygon fill="#c0c0c0" stroke="#c0c0c0" stroke-width="2" points="261.7636,-478.5243 264.878,-468.3975 256.1282,-474.3718 261.7636,-478.5243"/>
</g>
<!-- 17 -->
<g id="node18" class="node">
<title>17</title>
<path fill="none" stroke="#56d8c9" stroke-width="2" d="M533.7612,-836C533.7612,-836 471.1068,-836 471.1068,-836 465.1068,-836 459.1068,-830 459.1068,-824 459.1068,-824 459.1068,-812 459.1068,-812 459.1068,-806 465.1068,-800 471.1068,-800 471.1068,-800 533.7612,-800 533.7612,-800 539.7612,-800 545.7612,-806 545.7612,-812 545.7612,-812 545.7612,-824 545.7612,-824 545.7612,-830 539.7612,-836 533.7612,-836"/>
<text text-anchor="middle" x="502.434" y="-821" font-family="sans" font-size="10.00" fill="#000000">download_vcf</text>
<text text-anchor="middle" x="502.434" y="-809" font-family="sans" font-size="10.00" fill="#000000">strain: CAST_EiJ</text>
</g>
<!-- 25 -->
<g id="node26" class="node">
<title>25</title>
<path fill="none" stroke="#56d8b9" stroke-width="2" d="M610.6382,-764C610.6382,-764 394.2298,-764 394.2298,-764 388.2298,-764 382.2298,-758 382.2298,-752 382.2298,-752 382.2298,-740 382.2298,-740 382.2298,-734 388.2298,-728 394.2298,-728 394.2298,-728 610.6382,-728 610.6382,-728 616.6382,-728 622.6382,-734 622.6382,-740 622.6382,-740 622.6382,-752 622.6382,-752 622.6382,-758 616.6382,-764 610.6382,-764"/>
<text text-anchor="middle" x="502.434" y="-749" font-family="sans" font-size="10.00" fill="#000000">gunzip_vcf</text>
<text text-anchor="middle" x="502.434" y="-737" font-family="sans" font-size="10.00" fill="#000000">file: ../genome_data/CAST_EiJ.mgp.v5.snps.dbSNP142</text>
</g>
<!-- 17&#45;&gt;25 -->
<g id="edge40" class="edge">
<title>17&#45;&gt;25</title>
<path fill="none" stroke="#c0c0c0" stroke-width="2" d="M502.434,-799.8314C502.434,-792.131 502.434,-782.9743 502.434,-774.4166"/>
<polygon fill="#c0c0c0" stroke="#c0c0c0" stroke-width="2" points="505.9341,-774.4132 502.434,-764.4133 498.9341,-774.4133 505.9341,-774.4132"/>
</g>
<!-- 18 -->
<g id="node19" class="node">
<title>18</title>
<path fill="none" stroke="#59d856" stroke-width="2" d="M675.5779,-836C675.5779,-836 627.2901,-836 627.2901,-836 621.2901,-836 615.2901,-830 615.2901,-824 615.2901,-824 615.2901,-812 615.2901,-812 615.2901,-806 621.2901,-800 627.2901,-800 627.2901,-800 675.5779,-800 675.5779,-800 681.5779,-800 687.5779,-806 687.5779,-812 687.5779,-812 687.5779,-824 687.5779,-824 687.5779,-830 681.5779,-836 675.5779,-836"/>
<text text-anchor="middle" x="651.434" y="-815" font-family="sans" font-size="10.00" fill="#000000">untar_cleanup</text>
</g>
<!-- 18&#45;&gt;10 -->
<g id="edge19" class="edge">
<title>18&#45;&gt;10</title>
<path fill="none" stroke="#c0c0c0" stroke-width="2" d="M687.5889,-803.7751C716.0028,-792.5959 755.8222,-776.9292 786.8287,-764.73"/>
<polygon fill="#c0c0c0" stroke="#c0c0c0" stroke-width="2" points="788.1219,-767.9824 796.1461,-761.0641 785.559,-761.4684 788.1219,-767.9824"/>
</g>
<!-- 36 -->
<g id="node37" class="node">
<title>36</title>
<path fill="none" stroke="#9fd856" stroke-width="2" d="M324.6813,-692C324.6813,-692 230.1867,-692 230.1867,-692 224.1867,-692 218.1867,-686 218.1867,-680 218.1867,-680 218.1867,-668 218.1867,-668 218.1867,-662 224.1867,-656 230.1867,-656 230.1867,-656 324.6813,-656 324.6813,-656 330.6813,-656 336.6813,-662 336.6813,-668 336.6813,-668 336.6813,-680 336.6813,-680 336.6813,-686 330.6813,-692 324.6813,-692"/>
<text text-anchor="middle" x="277.434" y="-671" font-family="sans" font-size="10.00" fill="#000000">snpsplit_prepare_genome</text>
</g>
<!-- 19&#45;&gt;36 -->
<g id="edge51" class="edge">
<title>19&#45;&gt;36</title>
<path fill="none" stroke="#c0c0c0" stroke-width="2" d="M277.434,-727.8314C277.434,-720.131 277.434,-710.9743 277.434,-702.4166"/>
<polygon fill="#c0c0c0" stroke="#c0c0c0" stroke-width="2" points="280.9341,-702.4132 277.434,-692.4133 273.9341,-702.4133 280.9341,-702.4132"/>
</g>
<!-- 20 -->
<g id="node21" class="node">
<title>20</title>
<path fill="none" stroke="#56a2d8" stroke-width="2" d="M645.8536,-1052C645.8536,-1052 529.0144,-1052 529.0144,-1052 523.0144,-1052 517.0144,-1046 517.0144,-1040 517.0144,-1040 517.0144,-1028 517.0144,-1028 517.0144,-1022 523.0144,-1016 529.0144,-1016 529.0144,-1016 645.8536,-1016 645.8536,-1016 651.8536,-1016 657.8536,-1022 657.8536,-1028 657.8536,-1028 657.8536,-1040 657.8536,-1040 657.8536,-1046 651.8536,-1052 645.8536,-1052"/>
<text text-anchor="middle" x="587.434" y="-1031" font-family="sans" font-size="10.00" fill="#000000">download_fast5_b6xcast_0525</text>
</g>
<!-- 20&#45;&gt;5 -->
<g id="edge12" class="edge">
<title>20&#45;&gt;5</title>
<path fill="none" stroke="#c0c0c0" stroke-width="2" d="M572.0411,-1015.8314C564.9436,-1007.454 556.386,-997.3531 548.61,-988.1749"/>
<polygon fill="#c0c0c0" stroke="#c0c0c0" stroke-width="2" points="551.1688,-985.7807 542.0341,-980.4133 545.8279,-990.3056 551.1688,-985.7807"/>
</g>
<!-- 20&#45;&gt;34 -->
<g id="edge47" class="edge">
<title>20&#45;&gt;34</title>
<path fill="none" stroke="#c0c0c0" stroke-width="2" d="M604.4104,-1015.8124C612.8002,-1005.9039 622.3948,-993.0291 628.434,-980 637.4932,-960.4554 642.5548,-936.5861 645.3183,-918.3412"/>
<polygon fill="#c0c0c0" stroke="#c0c0c0" stroke-width="2" points="648.8008,-918.707 646.6927,-908.324 641.8658,-917.7554 648.8008,-918.707"/>
</g>
<!-- 21&#45;&gt;3 -->
<g id="edge8" class="edge">
<title>21&#45;&gt;3</title>
<path fill="none" stroke="#c0c0c0" stroke-width="2" d="M593.015,-511.5274C573.3587,-502.3273 551.7404,-488.2618 540.434,-468 528.9405,-447.403 540.9889,-422.5029 554.3193,-404.1196"/>
<polygon fill="#c0c0c0" stroke="#c0c0c0" stroke-width="2" points="557.1151,-406.2256 560.4543,-396.1707 551.5736,-401.9487 557.1151,-406.2256"/>
</g>
<!-- 21&#45;&gt;7 -->
<g id="edge14" class="edge">
<title>21&#45;&gt;7</title>
<path fill="none" stroke="#c0c0c0" stroke-width="2" d="M634.434,-507.9891C634.434,-499.1566 634.434,-488.3099 634.434,-478.3965"/>
<polygon fill="#c0c0c0" stroke="#c0c0c0" stroke-width="2" points="637.9341,-478.145 634.434,-468.145 630.9341,-478.1451 637.9341,-478.145"/>
</g>
<!-- 22&#45;&gt;14 -->
<g id="edge25" class="edge">
<title>22&#45;&gt;14</title>
<path fill="none" stroke="#c0c0c0" stroke-width="2" d="M387.434,-143.8314C387.434,-136.131 387.434,-126.9743 387.434,-118.4166"/>
<polygon fill="#c0c0c0" stroke="#c0c0c0" stroke-width="2" points="390.9341,-118.4132 387.434,-108.4133 383.9341,-118.4133 390.9341,-118.4132"/>
</g>
<!-- 22&#45;&gt;42 -->
<g id="edge59" class="edge">
<title>22&#45;&gt;42</title>
<path fill="none" stroke="#c0c0c0" stroke-width="2" d="M432.8556,-143.8314C457.1435,-134.1162 487.2262,-122.0831 512.786,-111.8592"/>
<polygon fill="#c0c0c0" stroke="#c0c0c0" stroke-width="2" points="514.3541,-115.0016 522.339,-108.038 511.7544,-108.5023 514.3541,-115.0016"/>
</g>
<!-- 31 -->
<g id="node32" class="node">
<title>31</title>
<path fill="none" stroke="#565bd8" stroke-width="2" d="M410.481,-324C410.481,-324 320.387,-324 320.387,-324 314.387,-324 308.387,-318 308.387,-312 308.387,-312 308.387,-300 308.387,-300 308.387,-294 314.387,-288 320.387,-288 320.387,-288 410.481,-288 410.481,-288 416.481,-288 422.481,-294 422.481,-300 422.481,-300 422.481,-312 422.481,-312 422.481,-318 416.481,-324 410.481,-324"/>
<text text-anchor="middle" x="365.434" y="-309" font-family="sans" font-size="10.00" fill="#000000">bismark_extract</text>
<text text-anchor="middle" x="365.434" y="-297" font-family="sans" font-size="10.00" fill="#000000">sample: B6CastF1_1_pe</text>
</g>
<!-- 23&#45;&gt;31 -->
<g id="edge44" class="edge">
<title>23&#45;&gt;31</title>
<path fill="none" stroke="#c0c0c0" stroke-width="2" d="M300.3878,-359.8314C311.1035,-350.9632 324.1529,-340.1637 335.743,-330.5718"/>
<polygon fill="#c0c0c0" stroke="#c0c0c0" stroke-width="2" points="338.0148,-333.2349 343.4873,-324.1628 333.5518,-327.8422 338.0148,-333.2349"/>
</g>
<!-- 24 -->
<g id="node25" class="node">
<title>24</title>
<path fill="none" stroke="#5692d8" stroke-width="2" d="M358.6973,-908C358.6973,-908 274.1707,-908 274.1707,-908 268.1707,-908 262.1707,-902 262.1707,-896 262.1707,-896 262.1707,-884 262.1707,-884 262.1707,-878 268.1707,-872 274.1707,-872 274.1707,-872 358.6973,-872 358.6973,-872 364.6973,-872 370.6973,-878 370.6973,-884 370.6973,-884 370.6973,-896 370.6973,-896 370.6973,-902 364.6973,-908 358.6973,-908"/>
<text text-anchor="middle" x="316.434" y="-887" font-family="sans" font-size="10.00" fill="#000000">download_B6_genome</text>
</g>
<!-- 24&#45;&gt;2 -->
<g id="edge4" class="edge">
<title>24&#45;&gt;2</title>
<path fill="none" stroke="#c0c0c0" stroke-width="2" d="M316.434,-871.8314C316.434,-864.131 316.434,-854.9743 316.434,-846.4166"/>
<polygon fill="#c0c0c0" stroke="#c0c0c0" stroke-width="2" points="319.9341,-846.4132 316.434,-836.4133 312.9341,-846.4133 319.9341,-846.4132"/>
</g>
<!-- 25&#45;&gt;1 -->
<g id="edge2" class="edge">
<title>25&#45;&gt;1</title>
<path fill="none" stroke="#c0c0c0" stroke-width="2" d="M502.434,-727.8314C502.434,-720.131 502.434,-710.9743 502.434,-702.4166"/>
<polygon fill="#c0c0c0" stroke="#c0c0c0" stroke-width="2" points="505.9341,-702.4132 502.434,-692.4133 498.9341,-702.4133 505.9341,-702.4132"/>
</g>
<!-- 25&#45;&gt;36 -->
<g id="edge52" class="edge">
<title>25&#45;&gt;36</title>
<path fill="none" stroke="#c0c0c0" stroke-width="2" d="M445.9474,-727.9243C414.9211,-717.9959 376.2637,-705.6255 343.8034,-695.2382"/>
<polygon fill="#c0c0c0" stroke="#c0c0c0" stroke-width="2" points="344.5348,-691.7975 333.9438,-692.0831 342.4013,-698.4645 344.5348,-691.7975"/>
</g>
<!-- 26&#45;&gt;10 -->
<g id="edge21" class="edge">
<title>26&#45;&gt;10</title>
<path fill="none" stroke="#c0c0c0" stroke-width="2" d="M967.1793,-802.5542C942.2795,-791.946 908.9746,-777.7569 881.9542,-766.2453"/>
<polygon fill="#c0c0c0" stroke="#c0c0c0" stroke-width="2" points="883.2546,-762.995 872.6829,-762.2954 880.5109,-769.4349 883.2546,-762.995"/>
</g>
<!-- 33 -->
<g id="node34" class="node">
<title>33</title>
<path fill="none" stroke="#56b1d8" stroke-width="2" d="M835.921,-620C835.921,-620 748.947,-620 748.947,-620 742.947,-620 736.947,-614 736.947,-608 736.947,-608 736.947,-596 736.947,-596 736.947,-590 742.947,-584 748.947,-584 748.947,-584 835.921,-584 835.921,-584 841.921,-584 847.921,-590 847.921,-596 847.921,-596 847.921,-608 847.921,-608 847.921,-614 841.921,-620 835.921,-620"/>
<text text-anchor="middle" x="792.434" y="-605" font-family="sans" font-size="10.00" fill="#000000">albacore_merge_output</text>
<text text-anchor="middle" x="792.434" y="-593" font-family="sans" font-size="10.00" fill="#000000">sample: b6xcast.minion</text>
</g>
<!-- 27&#45;&gt;33 -->
<g id="edge46" class="edge">
<title>27&#45;&gt;33</title>
<path fill="none" stroke="#c0c0c0" stroke-width="2" d="M796.9199,-655.8314C796.2782,-648.131 795.5152,-638.9743 794.8021,-630.4166"/>
<polygon fill="#c0c0c0" stroke="#c0c0c0" stroke-width="2" points="798.2869,-630.088 793.9684,-620.4133 791.3111,-630.6694 798.2869,-630.088"/>
</g>
<!-- 28 -->
<g id="node29" class="node">
<title>28</title>
<path fill="none" stroke="#5682d8" stroke-width="2" d="M136.2811,-468C136.2811,-468 40.5869,-468 40.5869,-468 34.5869,-468 28.5869,-462 28.5869,-456 28.5869,-456 28.5869,-444 28.5869,-444 28.5869,-438 34.5869,-432 40.5869,-432 40.5869,-432 136.2811,-432 136.2811,-432 142.2811,-432 148.2811,-438 148.2811,-444 148.2811,-444 148.2811,-456 148.2811,-456 148.2811,-462 142.2811,-468 136.2811,-468"/>
<text text-anchor="middle" x="88.434" y="-447" font-family="sans" font-size="10.00" fill="#000000">bismark_prepare_genome</text>
</g>
<!-- 28&#45;&gt;23 -->
<g id="edge39" class="edge">
<title>28&#45;&gt;23</title>
<path fill="none" stroke="#c0c0c0" stroke-width="2" d="M136.379,-431.8314C165.7132,-420.7152 203.0554,-406.5645 232.0911,-395.5615"/>
<polygon fill="#c0c0c0" stroke="#c0c0c0" stroke-width="2" points="233.4851,-398.7762 241.5959,-391.9597 231.0046,-392.2304 233.4851,-398.7762"/>
</g>
<!-- 29 -->
<g id="node30" class="node">
<title>29</title>
<path fill="none" stroke="#d8a456" stroke-width="2" d="M803.8536,-1052C803.8536,-1052 687.0144,-1052 687.0144,-1052 681.0144,-1052 675.0144,-1046 675.0144,-1040 675.0144,-1040 675.0144,-1028 675.0144,-1028 675.0144,-1022 681.0144,-1016 687.0144,-1016 687.0144,-1016 803.8536,-1016 803.8536,-1016 809.8536,-1016 815.8536,-1022 815.8536,-1028 815.8536,-1028 815.8536,-1040 815.8536,-1040 815.8536,-1046 809.8536,-1052 803.8536,-1052"/>
<text text-anchor="middle" x="745.434" y="-1031" font-family="sans" font-size="10.00" fill="#000000">download_fast5_b6xcast_0503</text>
</g>
<!-- 40 -->
<g id="node41" class="node">
<title>40</title>
<path fill="none" stroke="#d85e56" stroke-width="2" d="M819.434,-908C819.434,-908 789.434,-908 789.434,-908 783.434,-908 777.434,-902 777.434,-896 777.434,-896 777.434,-884 777.434,-884 777.434,-878 783.434,-872 789.434,-872 789.434,-872 819.434,-872 819.434,-872 825.434,-872 831.434,-878 831.434,-884 831.434,-884 831.434,-896 831.434,-896 831.434,-902 825.434,-908 819.434,-908"/>
<text text-anchor="middle" x="804.434" y="-887" font-family="sans" font-size="10.00" fill="#000000">untar</text>
</g>
<!-- 29&#45;&gt;40 -->
<g id="edge56" class="edge">
<title>29&#45;&gt;40</title>
<path fill="none" stroke="#c0c0c0" stroke-width="2" d="M726.8357,-1015.8249C710.1402,-997.2173 690.2729,-967.7409 704.434,-944 718.0811,-921.1208 745.1499,-907.3542 767.6864,-899.4522"/>
<polygon fill="#c0c0c0" stroke="#c0c0c0" stroke-width="2" points="768.9053,-902.7364 777.3354,-896.3189 766.7433,-896.0786 768.9053,-902.7364"/>
</g>
<!-- 44 -->
<g id="node45" class="node">
<title>44</title>
<path fill="none" stroke="#78d856" stroke-width="2" d="M887.4576,-980C887.4576,-980 725.4104,-980 725.4104,-980 719.4104,-980 713.4104,-974 713.4104,-968 713.4104,-968 713.4104,-956 713.4104,-956 713.4104,-950 719.4104,-944 725.4104,-944 725.4104,-944 887.4576,-944 887.4576,-944 893.4576,-944 899.4576,-950 899.4576,-956 899.4576,-956 899.4576,-968 899.4576,-968 899.4576,-974 893.4576,-980 887.4576,-980"/>
<text text-anchor="middle" x="806.434" y="-965" font-family="sans" font-size="10.00" fill="#000000">fast5_md5</text>
<text text-anchor="middle" x="806.434" y="-953" font-family="sans" font-size="10.00" fill="#000000">archive: 2017_05_03.b6xcast.minion.fast5</text>
</g>
<!-- 29&#45;&gt;44 -->
<g id="edge61" class="edge">
<title>29&#45;&gt;44</title>
<path fill="none" stroke="#c0c0c0" stroke-width="2" d="M760.8269,-1015.8314C767.9244,-1007.454 776.482,-997.3531 784.258,-988.1749"/>
<polygon fill="#c0c0c0" stroke="#c0c0c0" stroke-width="2" points="787.0401,-990.3056 790.8339,-980.4133 781.6992,-985.7807 787.0401,-990.3056"/>
</g>
<!-- 30 -->
<g id="node31" class="node">
<title>30</title>
<path fill="none" stroke="#d8a456" stroke-width="2" d="M267.5894,-620C267.5894,-620 159.2786,-620 159.2786,-620 153.2786,-620 147.2786,-614 147.2786,-608 147.2786,-608 147.2786,-596 147.2786,-596 147.2786,-590 153.2786,-584 159.2786,-584 159.2786,-584 267.5894,-584 267.5894,-584 273.5894,-584 279.5894,-590 279.5894,-596 279.5894,-596 279.5894,-608 279.5894,-608 279.5894,-614 273.5894,-620 267.5894,-620"/>
<text text-anchor="middle" x="213.434" y="-605" font-family="sans" font-size="10.00" fill="#000000">download_bisulfite_B6Cast1</text>
<text text-anchor="middle" x="213.434" y="-593" font-family="sans" font-size="10.00" fill="#000000">file: 1</text>
</g>
<!-- 30&#45;&gt;15 -->
<g id="edge28" class="edge">
<title>30&#45;&gt;15</title>
<path fill="none" stroke="#c0c0c0" stroke-width="2" d="M185.002,-583.9601C173.2112,-574.7801 160.8136,-562.4872 154.434,-548 146.5528,-530.1029 143.7164,-520.3571 154.434,-504 168.9113,-481.9049 194.6111,-468.8009 218.8742,-461.0526"/>
<polygon fill="#c0c0c0" stroke="#c0c0c0" stroke-width="2" points="220.1769,-464.3181 228.7879,-458.1455 218.2071,-457.6009 220.1769,-464.3181"/>
</g>
<!-- 30&#45;&gt;16 -->
<g id="edge30" class="edge">
<title>30&#45;&gt;16</title>
<path fill="none" stroke="#c0c0c0" stroke-width="2" d="M215.5669,-583.9891C216.4785,-576.291 217.5713,-567.0629 218.6142,-558.2561"/>
<polygon fill="#c0c0c0" stroke="#c0c0c0" stroke-width="2" points="222.1013,-558.5705 219.8017,-548.2282 215.1499,-557.7472 222.1013,-558.5705"/>
</g>
<!-- 31&#45;&gt;0 -->
<g id="edge1" class="edge">
<title>31&#45;&gt;0</title>
<path fill="none" stroke="#c0c0c0" stroke-width="2" d="M369.2191,-287.8314C370.8234,-280.131 372.731,-270.9743 374.5139,-262.4166"/>
<polygon fill="#c0c0c0" stroke="#c0c0c0" stroke-width="2" points="377.9847,-262.9169 376.5979,-252.4133 371.1319,-261.4892 377.9847,-262.9169"/>
</g>
<!-- 32 -->
<g id="node33" class="node">
<title>32</title>
<path fill="none" stroke="#59d856" stroke-width="2" d="M826.5779,-836C826.5779,-836 778.2901,-836 778.2901,-836 772.2901,-836 766.2901,-830 766.2901,-824 766.2901,-824 766.2901,-812 766.2901,-812 766.2901,-806 772.2901,-800 778.2901,-800 778.2901,-800 826.5779,-800 826.5779,-800 832.5779,-800 838.5779,-806 838.5779,-812 838.5779,-812 838.5779,-824 838.5779,-824 838.5779,-830 832.5779,-836 826.5779,-836"/>
<text text-anchor="middle" x="802.434" y="-815" font-family="sans" font-size="10.00" fill="#000000">untar_cleanup</text>
</g>
<!-- 32&#45;&gt;10 -->
<g id="edge20" class="edge">
<title>32&#45;&gt;10</title>
<path fill="none" stroke="#c0c0c0" stroke-width="2" d="M810.509,-799.8314C814.0442,-791.8771 818.27,-782.369 822.1796,-773.5723"/>
<polygon fill="#c0c0c0" stroke="#c0c0c0" stroke-width="2" points="825.3872,-774.9729 826.2503,-764.4133 818.9905,-772.1299 825.3872,-774.9729"/>
</g>
<!-- 33&#45;&gt;3 -->
<g id="edge7" class="edge">
<title>33&#45;&gt;3</title>
<path fill="none" stroke="#c0c0c0" stroke-width="2" d="M782.9163,-583.7762C777.7041,-573.4337 771.3291,-560.1623 766.434,-548 746.1778,-497.6721 766.2766,-470.8735 728.434,-432 706.0133,-408.9685 673.105,-395.7279 643.7281,-388.1313"/>
<polygon fill="#c0c0c0" stroke="#c0c0c0" stroke-width="2" points="644.4631,-384.7083 633.9212,-385.7654 642.8215,-391.5131 644.4631,-384.7083"/>
</g>
<!-- 33&#45;&gt;4 -->
<g id="edge10" class="edge">
<title>33&#45;&gt;4</title>
<path fill="none" stroke="#c0c0c0" stroke-width="2" d="M798.8326,-583.9891C802.0372,-574.9686 805.9882,-563.8474 809.5701,-553.765"/>
<polygon fill="#c0c0c0" stroke="#c0c0c0" stroke-width="2" points="812.9381,-554.7398 812.9877,-544.145 806.342,-552.3964 812.9381,-554.7398"/>
</g>
<!-- 33&#45;&gt;21 -->
<g id="edge34" class="edge">
<title>33&#45;&gt;21</title>
<path fill="none" stroke="#c0c0c0" stroke-width="2" d="M754.9902,-583.9891C732.8358,-573.3325 704.586,-559.744 681.0024,-548.4"/>
<polygon fill="#c0c0c0" stroke="#c0c0c0" stroke-width="2" points="682.4113,-545.1939 671.8825,-544.0132 679.377,-551.5021 682.4113,-545.1939"/>
</g>
<!-- 34&#45;&gt;10 -->
<g id="edge18" class="edge">
<title>34&#45;&gt;10</title>
<path fill="none" stroke="#c0c0c0" stroke-width="2" d="M669.3392,-871.907C690.9935,-853.3647 726.002,-823.9396 757.434,-800 770.7531,-789.8557 785.756,-779.1744 798.9569,-770.0138"/>
<polygon fill="#c0c0c0" stroke="#c0c0c0" stroke-width="2" points="801.0912,-772.7935 807.3357,-764.2344 797.1167,-767.0312 801.0912,-772.7935"/>
</g>
<!-- 34&#45;&gt;18 -->
<g id="edge31" class="edge">
<title>34&#45;&gt;18</title>
<path fill="none" stroke="#c0c0c0" stroke-width="2" d="M649.191,-871.8314C649.5119,-864.131 649.8934,-854.9743 650.25,-846.4166"/>
<polygon fill="#c0c0c0" stroke="#c0c0c0" stroke-width="2" points="653.7473,-846.5503 650.6668,-836.4133 646.7534,-846.2589 653.7473,-846.5503"/>
</g>
<!-- 43 -->
<g id="node44" class="node">
<title>43</title>
<path fill="none" stroke="#5663d8" stroke-width="2" d="M112.8021,-620C112.8021,-620 12.0659,-620 12.0659,-620 6.0659,-620 .0659,-614 .0659,-608 .0659,-608 .0659,-596 .0659,-596 .0659,-590 6.0659,-584 12.0659,-584 12.0659,-584 112.8021,-584 112.8021,-584 118.8021,-584 124.8021,-590 124.8021,-596 124.8021,-596 124.8021,-608 124.8021,-608 124.8021,-614 118.8021,-620 112.8021,-620"/>
<text text-anchor="middle" x="62.434" y="-599" font-family="sans" font-size="10.00" fill="#000000">clean_up_snpsplit_genome</text>
</g>
<!-- 36&#45;&gt;43 -->
<g id="edge60" class="edge">
<title>36&#45;&gt;43</title>
<path fill="none" stroke="#c0c0c0" stroke-width="2" d="M223.4579,-655.9243C193.9384,-646.0387 157.1896,-633.7321 126.2551,-623.3726"/>
<polygon fill="#c0c0c0" stroke="#c0c0c0" stroke-width="2" points="127.0261,-619.9399 116.4323,-620.0831 124.8032,-626.5776 127.0261,-619.9399"/>
</g>
<!-- 37&#45;&gt;22 -->
<g id="edge37" class="edge">
<title>37&#45;&gt;22</title>
<path fill="none" stroke="#c0c0c0" stroke-width="2" d="M527.0064,-287.965C507.3023,-269.719 475.8834,-240.7503 448.434,-216 437.8034,-206.4147 426.0447,-195.9688 415.7112,-186.8408"/>
<polygon fill="#c0c0c0" stroke="#c0c0c0" stroke-width="2" points="417.9441,-184.1433 408.1292,-180.1534 413.3138,-189.3931 417.9441,-184.1433"/>
</g>
<!-- 38 -->
<g id="node39" class="node">
<title>38</title>
<path fill="none" stroke="#d86656" stroke-width="2" d="M95.2314,-544C95.2314,-544 19.6366,-544 19.6366,-544 13.6366,-544 7.6366,-538 7.6366,-532 7.6366,-532 7.6366,-520 7.6366,-520 7.6366,-514 13.6366,-508 19.6366,-508 19.6366,-508 95.2314,-508 95.2314,-508 101.2314,-508 107.2314,-514 107.2314,-520 107.2314,-520 107.2314,-532 107.2314,-532 107.2314,-538 101.2314,-544 95.2314,-544"/>
<text text-anchor="middle" x="57.434" y="-523" font-family="sans" font-size="10.00" fill="#000000">bismark_create_path</text>
</g>
<!-- 38&#45;&gt;28 -->
<g id="edge43" class="edge">
<title>38&#45;&gt;28</title>
<path fill="none" stroke="#c0c0c0" stroke-width="2" d="M64.7806,-507.9891C68.4983,-498.8747 73.0908,-487.6155 77.2372,-477.4502"/>
<polygon fill="#c0c0c0" stroke="#c0c0c0" stroke-width="2" points="80.4966,-478.7263 81.0327,-468.145 74.0151,-476.0825 80.4966,-478.7263"/>
</g>
<!-- 39 -->
<g id="node40" class="node">
<title>39</title>
<path fill="none" stroke="#78d856" stroke-width="2" d="M1092.4576,-980C1092.4576,-980 930.4104,-980 930.4104,-980 924.4104,-980 918.4104,-974 918.4104,-968 918.4104,-968 918.4104,-956 918.4104,-956 918.4104,-950 924.4104,-944 930.4104,-944 930.4104,-944 1092.4576,-944 1092.4576,-944 1098.4576,-944 1104.4576,-950 1104.4576,-956 1104.4576,-956 1104.4576,-968 1104.4576,-968 1104.4576,-974 1098.4576,-980 1092.4576,-980"/>
<text text-anchor="middle" x="1011.434" y="-965" font-family="sans" font-size="10.00" fill="#000000">fast5_md5</text>
<text text-anchor="middle" x="1011.434" y="-953" font-family="sans" font-size="10.00" fill="#000000">archive: 2017_05_12.b6xcast.minion.fast5</text>
</g>
<!-- 39&#45;&gt;9 -->
<g id="edge17" class="edge">
<title>39&#45;&gt;9</title>
<path fill="none" stroke="#c0c0c0" stroke-width="2" d="M1010.9293,-943.8314C1010.7154,-936.131 1010.4611,-926.9743 1010.2234,-918.4166"/>
<polygon fill="#c0c0c0" stroke="#c0c0c0" stroke-width="2" points="1013.7219,-918.3122 1009.9455,-908.4133 1006.7246,-918.5066 1013.7219,-918.3122"/>
</g>
<!-- 40&#45;&gt;10 -->
<g id="edge22" class="edge">
<title>40&#45;&gt;10</title>
<path fill="none" stroke="#c0c0c0" stroke-width="2" d="M823.9296,-871.9663C832.9443,-862.2894 842.6891,-849.5757 847.434,-836 854.4771,-815.8488 850.4534,-791.8767 845.0886,-773.7417"/>
<polygon fill="#c0c0c0" stroke="#c0c0c0" stroke-width="2" points="848.364,-772.4961 841.9406,-764.0705 841.7078,-774.6628 848.364,-772.4961"/>
</g>
<!-- 40&#45;&gt;32 -->
<g id="edge45" class="edge">
<title>40&#45;&gt;32</title>
<path fill="none" stroke="#c0c0c0" stroke-width="2" d="M803.9293,-871.8314C803.7154,-864.131 803.4611,-854.9743 803.2234,-846.4166"/>
<polygon fill="#c0c0c0" stroke="#c0c0c0" stroke-width="2" points="806.7219,-846.3122 802.9455,-836.4133 799.7246,-846.5066 806.7219,-846.3122"/>
</g>
<!-- 41 -->
<g id="node42" class="node">
<title>41</title>
<path fill="none" stroke="#56d8c1" stroke-width="2" d="M1129.8536,-1052C1129.8536,-1052 1013.0144,-1052 1013.0144,-1052 1007.0144,-1052 1001.0144,-1046 1001.0144,-1040 1001.0144,-1040 1001.0144,-1028 1001.0144,-1028 1001.0144,-1022 1007.0144,-1016 1013.0144,-1016 1013.0144,-1016 1129.8536,-1016 1129.8536,-1016 1135.8536,-1016 1141.8536,-1022 1141.8536,-1028 1141.8536,-1028 1141.8536,-1040 1141.8536,-1040 1141.8536,-1046 1135.8536,-1052 1129.8536,-1052"/>
<text text-anchor="middle" x="1071.434" y="-1031" font-family="sans" font-size="10.00" fill="#000000">download_fast5_b6xcast_0512</text>
</g>
<!-- 41&#45;&gt;9 -->
<g id="edge16" class="edge">
<title>41&#45;&gt;9</title>
<path fill="none" stroke="#c0c0c0" stroke-width="2" d="M1090.4477,-1015.8185C1107.5199,-997.2057 1127.848,-967.7253 1113.434,-944 1098.9227,-920.1145 1070.0375,-906.3139 1046.3837,-898.6529"/>
<polygon fill="#c0c0c0" stroke="#c0c0c0" stroke-width="2" points="1047.2075,-895.2461 1036.6239,-895.734 1045.2017,-901.9526 1047.2075,-895.2461"/>
</g>
<!-- 41&#45;&gt;39 -->
<g id="edge55" class="edge">
<title>41&#45;&gt;39</title>
<path fill="none" stroke="#c0c0c0" stroke-width="2" d="M1056.2935,-1015.8314C1049.3123,-1007.454 1040.8949,-997.3531 1033.2464,-988.1749"/>
<polygon fill="#c0c0c0" stroke="#c0c0c0" stroke-width="2" points="1035.8691,-985.8548 1026.7784,-980.4133 1030.4915,-990.3362 1035.8691,-985.8548"/>
</g>
<!-- 42&#45;&gt;35 -->
<g id="edge49" class="edge">
<title>42&#45;&gt;35</title>
<path fill="none" stroke="#c0c0c0" stroke-width="2" d="M544.7232,-71.8314C533.638,-62.9632 520.1386,-52.1637 508.1488,-42.5718"/>
<polygon fill="#c0c0c0" stroke="#c0c0c0" stroke-width="2" points="510.1327,-39.6768 500.1375,-36.1628 505.7598,-45.1429 510.1327,-39.6768"/>
</g>
<!-- 43&#45;&gt;38 -->
<g id="edge54" class="edge">
<title>43&#45;&gt;38</title>
<path fill="none" stroke="#c0c0c0" stroke-width="2" d="M61.2491,-583.9891C60.668,-575.1566 59.9544,-564.3099 59.3022,-554.3965"/>
<polygon fill="#c0c0c0" stroke="#c0c0c0" stroke-width="2" points="62.7768,-553.8937 58.6278,-544.145 55.7919,-554.3533 62.7768,-553.8937"/>
</g>
<!-- 44&#45;&gt;40 -->
<g id="edge57" class="edge">
<title>44&#45;&gt;40</title>
<path fill="none" stroke="#c0c0c0" stroke-width="2" d="M805.9293,-943.8314C805.7154,-936.131 805.4611,-926.9743 805.2234,-918.4166"/>
<polygon fill="#c0c0c0" stroke="#c0c0c0" stroke-width="2" points="808.7219,-918.3122 804.9455,-908.4133 801.7246,-918.5066 808.7219,-918.3122"/>
</g>
</g>
</svg>
