<?xml version="1.0" encoding="UTF-8" standalone="no"?>
<!DOCTYPE svg PUBLIC "-//W3C//DTD SVG 1.1//EN"
 "http://www.w3.org/Graphics/SVG/1.1/DTD/svg11.dtd">
<!-- Generated by graphviz version 2.40.1 (20161225.0304)
 -->
<!-- Title: snakemake_dag Pages: 1 -->
<svg width="1088pt" height="916pt"
 viewBox="0.00 0.00 1087.91 916.00" xmlns="http://www.w3.org/2000/svg" xmlns:xlink="http://www.w3.org/1999/xlink">
<g id="graph0" class="graph" transform="scale(1 1) rotate(0) translate(4 912)">
<title>snakemake_dag</title>
<polygon fill="#ffffff" stroke="transparent" points="-4,4 -4,-912 1083.91,-912 1083.91,4 -4,4"/>
<!-- 0 -->
<g id="node1" class="node">
<title>0</title>
<path fill="none" stroke="#d85656" stroke-width="2" d="M528.8079,-252C528.8079,-252 481.7151,-252 481.7151,-252 475.7151,-252 469.7151,-246 469.7151,-240 469.7151,-240 469.7151,-228 469.7151,-228 469.7151,-222 475.7151,-216 481.7151,-216 481.7151,-216 528.8079,-216 528.8079,-216 534.8079,-216 540.8079,-222 540.8079,-228 540.8079,-228 540.8079,-240 540.8079,-240 540.8079,-246 534.8079,-252 528.8079,-252"/>
<text text-anchor="middle" x="505.2615" y="-231" font-family="sans" font-size="10.00" fill="#000000">download_gtf</text>
</g>
<!-- 11 -->
<g id="node12" class="node">
<title>11</title>
<path fill="none" stroke="#568ad8" stroke-width="2" d="M608.3955,-180C608.3955,-180 402.1275,-180 402.1275,-180 396.1275,-180 390.1275,-174 390.1275,-168 390.1275,-168 390.1275,-156 390.1275,-156 390.1275,-150 396.1275,-144 402.1275,-144 402.1275,-144 608.3955,-144 608.3955,-144 614.3955,-144 620.3955,-150 620.3955,-156 620.3955,-156 620.3955,-168 620.3955,-168 620.3955,-174 614.3955,-180 608.3955,-180"/>
<text text-anchor="middle" x="505.2615" y="-165" font-family="sans" font-size="10.00" fill="#000000">gunzip_gtf</text>
<text text-anchor="middle" x="505.2615" y="-153" font-family="sans" font-size="10.00" fill="#000000">file: ../genome_data/Mus_musculus.GRCm38_90.chr</text>
</g>
<!-- 0&#45;&gt;11 -->
<g id="edge16" class="edge">
<title>0&#45;&gt;11</title>
<path fill="none" stroke="#c0c0c0" stroke-width="2" d="M505.2615,-215.8314C505.2615,-208.131 505.2615,-198.9743 505.2615,-190.4166"/>
<polygon fill="#c0c0c0" stroke="#c0c0c0" stroke-width="2" points="508.7616,-190.4132 505.2615,-180.4133 501.7616,-190.4133 508.7616,-190.4132"/>
</g>
<!-- 1 -->
<g id="node2" class="node">
<title>1</title>
<path fill="none" stroke="#56d863" stroke-width="2" d="M1004.6296,-620C1004.6296,-620 903.8934,-620 903.8934,-620 897.8934,-620 891.8934,-614 891.8934,-608 891.8934,-608 891.8934,-596 891.8934,-596 891.8934,-590 897.8934,-584 903.8934,-584 903.8934,-584 1004.6296,-584 1004.6296,-584 1010.6296,-584 1016.6296,-590 1016.6296,-596 1016.6296,-596 1016.6296,-608 1016.6296,-608 1016.6296,-614 1010.6296,-620 1004.6296,-620"/>
<text text-anchor="middle" x="954.2615" y="-599" font-family="sans" font-size="10.00" fill="#000000">clean_up_snpsplit_genome</text>
</g>
<!-- 24 -->
<g id="node25" class="node">
<title>24</title>
<path fill="none" stroke="#d8ac56" stroke-width="2" d="M1068.0589,-548C1068.0589,-548 992.4641,-548 992.4641,-548 986.4641,-548 980.4641,-542 980.4641,-536 980.4641,-536 980.4641,-524 980.4641,-524 980.4641,-518 986.4641,-512 992.4641,-512 992.4641,-512 1068.0589,-512 1068.0589,-512 1074.0589,-512 1080.0589,-518 1080.0589,-524 1080.0589,-524 1080.0589,-536 1080.0589,-536 1080.0589,-542 1074.0589,-548 1068.0589,-548"/>
<text text-anchor="middle" x="1030.2615" y="-527" font-family="sans" font-size="10.00" fill="#000000">bismark_create_path</text>
</g>
<!-- 1&#45;&gt;24 -->
<g id="edge30" class="edge">
<title>1&#45;&gt;24</title>
<path fill="none" stroke="#c0c0c0" stroke-width="2" d="M973.4395,-583.8314C982.6203,-575.1337 993.7621,-564.5783 1003.7391,-555.1265"/>
<polygon fill="#c0c0c0" stroke="#c0c0c0" stroke-width="2" points="1006.2372,-557.5811 1011.0896,-548.1628 1001.423,-552.4995 1006.2372,-557.5811"/>
</g>
<!-- 2 -->
<g id="node3" class="node">
<title>2</title>
<path fill="none" stroke="#d88556" stroke-width="2" d="M584.2851,-836C584.2851,-836 422.2379,-836 422.2379,-836 416.2379,-836 410.2379,-830 410.2379,-824 410.2379,-824 410.2379,-812 410.2379,-812 410.2379,-806 416.2379,-800 422.2379,-800 422.2379,-800 584.2851,-800 584.2851,-800 590.2851,-800 596.2851,-806 596.2851,-812 596.2851,-812 596.2851,-824 596.2851,-824 596.2851,-830 590.2851,-836 584.2851,-836"/>
<text text-anchor="middle" x="503.2615" y="-821" font-family="sans" font-size="10.00" fill="#000000">untar</text>
<text text-anchor="middle" x="503.2615" y="-809" font-family="sans" font-size="10.00" fill="#000000">archive: 2017_05_03.b6xcast.minion.fast5</text>
</g>
<!-- 26 -->
<g id="node27" class="node">
<title>26</title>
<path fill="none" stroke="#9fd856" stroke-width="2" d="M330.2949,-764C330.2949,-764 278.2281,-764 278.2281,-764 272.2281,-764 266.2281,-758 266.2281,-752 266.2281,-752 266.2281,-740 266.2281,-740 266.2281,-734 272.2281,-728 278.2281,-728 278.2281,-728 330.2949,-728 330.2949,-728 336.2949,-728 342.2949,-734 342.2949,-740 342.2949,-740 342.2949,-752 342.2949,-752 342.2949,-758 336.2949,-764 330.2949,-764"/>
<text text-anchor="middle" x="304.2615" y="-743" font-family="sans" font-size="10.00" fill="#000000">merge_b6xcast</text>
</g>
<!-- 2&#45;&gt;26 -->
<g id="edge33" class="edge">
<title>2&#45;&gt;26</title>
<path fill="none" stroke="#c0c0c0" stroke-width="2" d="M453.3023,-799.9243C422.2395,-788.6855 382.5283,-774.3176 351.9088,-763.2392"/>
<polygon fill="#c0c0c0" stroke="#c0c0c0" stroke-width="2" points="352.9036,-759.8772 342.3094,-759.7661 350.522,-766.4596 352.9036,-759.8772"/>
</g>
<!-- 3 -->
<g id="node4" class="node">
<title>3</title>
<path fill="none" stroke="#56b1d8" stroke-width="2" d="M418.8656,-548C418.8656,-548 355.6574,-548 355.6574,-548 349.6574,-548 343.6574,-542 343.6574,-536 343.6574,-536 343.6574,-524 343.6574,-524 343.6574,-518 349.6574,-512 355.6574,-512 355.6574,-512 418.8656,-512 418.8656,-512 424.8656,-512 430.8656,-518 430.8656,-524 430.8656,-524 430.8656,-536 430.8656,-536 430.8656,-542 424.8656,-548 418.8656,-548"/>
<text text-anchor="middle" x="387.2615" y="-527" font-family="sans" font-size="10.00" fill="#000000">nanopolish_index</text>
</g>
<!-- 10 -->
<g id="node11" class="node">
<title>10</title>
<path fill="none" stroke="#5682d8" stroke-width="2" d="M600.421,-396C600.421,-396 512.102,-396 512.102,-396 506.102,-396 500.102,-390 500.102,-384 500.102,-384 500.102,-372 500.102,-372 500.102,-366 506.102,-360 512.102,-360 512.102,-360 600.421,-360 600.421,-360 606.421,-360 612.421,-366 612.421,-372 612.421,-372 612.421,-384 612.421,-384 612.421,-390 606.421,-396 600.421,-396"/>
<text text-anchor="middle" x="556.2615" y="-375" font-family="sans" font-size="10.00" fill="#000000">nanopolish_methylation</text>
</g>
<!-- 3&#45;&gt;10 -->
<g id="edge15" class="edge">
<title>3&#45;&gt;10</title>
<path fill="none" stroke="#c0c0c0" stroke-width="2" d="M385.764,-511.8267C385.0044,-490.2486 387.0935,-454.3743 406.2615,-432 427.2932,-407.4503 460.357,-394.0614 490.096,-386.7593"/>
<polygon fill="#c0c0c0" stroke="#c0c0c0" stroke-width="2" points="491.0519,-390.1316 500.0317,-384.509 489.5056,-383.3045 491.0519,-390.1316"/>
</g>
<!-- 4 -->
<g id="node5" class="node">
<title>4</title>
<path fill="none" stroke="#97d856" stroke-width="2" d="M573.1355,-620C573.1355,-620 427.3875,-620 427.3875,-620 421.3875,-620 415.3875,-614 415.3875,-608 415.3875,-608 415.3875,-596 415.3875,-596 415.3875,-590 421.3875,-584 427.3875,-584 427.3875,-584 573.1355,-584 573.1355,-584 579.1355,-584 585.1355,-590 585.1355,-596 585.1355,-596 585.1355,-608 585.1355,-608 585.1355,-614 579.1355,-620 573.1355,-620"/>
<text text-anchor="middle" x="500.2615" y="-605" font-family="sans" font-size="10.00" fill="#000000">bwa_index</text>
<text text-anchor="middle" x="500.2615" y="-593" font-family="sans" font-size="10.00" fill="#000000">genome: GRCm38_90.CAST_masked</text>
</g>
<!-- 35 -->
<g id="node36" class="node">
<title>35</title>
<path fill="none" stroke="#d86656" stroke-width="2" d="M529.4142,-548C529.4142,-548 471.1088,-548 471.1088,-548 465.1088,-548 459.1088,-542 459.1088,-536 459.1088,-536 459.1088,-524 459.1088,-524 459.1088,-518 465.1088,-512 471.1088,-512 471.1088,-512 529.4142,-512 529.4142,-512 535.4142,-512 541.4142,-518 541.4142,-524 541.4142,-524 541.4142,-536 541.4142,-536 541.4142,-542 535.4142,-548 529.4142,-548"/>
<text text-anchor="middle" x="500.2615" y="-527" font-family="sans" font-size="10.00" fill="#000000">bwa_mem_align</text>
</g>
<!-- 4&#45;&gt;35 -->
<g id="edge44" class="edge">
<title>4&#45;&gt;35</title>
<path fill="none" stroke="#c0c0c0" stroke-width="2" d="M500.2615,-583.8314C500.2615,-576.131 500.2615,-566.9743 500.2615,-558.4166"/>
<polygon fill="#c0c0c0" stroke="#c0c0c0" stroke-width="2" points="503.7616,-558.4132 500.2615,-548.4133 496.7616,-558.4133 503.7616,-558.4132"/>
</g>
<!-- 5 -->
<g id="node6" class="node">
<title>5</title>
<path fill="none" stroke="#c6d856" stroke-width="2" d="M580.8425,-108C580.8425,-108 437.6805,-108 437.6805,-108 431.6805,-108 425.6805,-102 425.6805,-96 425.6805,-96 425.6805,-84 425.6805,-84 425.6805,-78 431.6805,-72 437.6805,-72 437.6805,-72 580.8425,-72 580.8425,-72 586.8425,-72 592.8425,-78 592.8425,-84 592.8425,-84 592.8425,-96 592.8425,-96 592.8425,-102 586.8425,-108 580.8425,-108"/>
<text text-anchor="middle" x="509.2615" y="-87" font-family="sans" font-size="10.00" fill="#000000">genome_level_methylation_summary</text>
</g>
<!-- 32 -->
<g id="node33" class="node">
<title>32</title>
<path fill="none" stroke="#d8d356" stroke-width="2" d="M637.7485,-36C637.7485,-36 560.7745,-36 560.7745,-36 554.7745,-36 548.7745,-30 548.7745,-24 548.7745,-24 548.7745,-12 548.7745,-12 548.7745,-6 554.7745,0 560.7745,0 560.7745,0 637.7485,0 637.7485,0 643.7485,0 649.7485,-6 649.7485,-12 649.7485,-12 649.7485,-24 649.7485,-24 649.7485,-30 643.7485,-36 637.7485,-36"/>
<text text-anchor="middle" x="599.2615" y="-15" font-family="sans" font-size="10.00" fill="#000000">methylation_analysis</text>
</g>
<!-- 5&#45;&gt;32 -->
<g id="edge40" class="edge">
<title>5&#45;&gt;32</title>
<path fill="none" stroke="#c0c0c0" stroke-width="2" d="M531.9723,-71.8314C543.0575,-62.9632 556.5569,-52.1637 568.5467,-42.5718"/>
<polygon fill="#c0c0c0" stroke="#c0c0c0" stroke-width="2" points="570.9357,-45.1429 576.558,-36.1628 566.5628,-39.6768 570.9357,-45.1429"/>
</g>
<!-- 6 -->
<g id="node7" class="node">
<title>6</title>
<path fill="none" stroke="#d8d356" stroke-width="2" d="M347.7485,-620C347.7485,-620 260.7745,-620 260.7745,-620 254.7745,-620 248.7745,-614 248.7745,-608 248.7745,-608 248.7745,-596 248.7745,-596 248.7745,-590 254.7745,-584 260.7745,-584 260.7745,-584 347.7485,-584 347.7485,-584 353.7485,-584 359.7485,-590 359.7485,-596 359.7485,-596 359.7485,-608 359.7485,-608 359.7485,-614 353.7485,-620 347.7485,-620"/>
<text text-anchor="middle" x="304.2615" y="-605" font-family="sans" font-size="10.00" fill="#000000">albacore_merge_output</text>
<text text-anchor="middle" x="304.2615" y="-593" font-family="sans" font-size="10.00" fill="#000000">sample: b6xcast.minion</text>
</g>
<!-- 6&#45;&gt;3 -->
<g id="edge4" class="edge">
<title>6&#45;&gt;3</title>
<path fill="none" stroke="#c0c0c0" stroke-width="2" d="M325.2059,-583.8314C335.3306,-575.0485 347.6392,-564.3712 358.6163,-554.8489"/>
<polygon fill="#c0c0c0" stroke="#c0c0c0" stroke-width="2" points="361.0634,-557.3595 366.3238,-548.1628 356.4764,-552.0718 361.0634,-557.3595"/>
</g>
<!-- 6&#45;&gt;10 -->
<g id="edge14" class="edge">
<title>6&#45;&gt;10</title>
<path fill="none" stroke="#c0c0c0" stroke-width="2" d="M307.2045,-583.9996C313.9676,-548.7774 334.0721,-470.8079 384.2615,-432 414.6841,-408.4764 455.5262,-395.094 489.7774,-387.537"/>
<polygon fill="#c0c0c0" stroke="#c0c0c0" stroke-width="2" points="490.6367,-390.9332 499.7114,-385.4653 489.2075,-384.0806 490.6367,-390.9332"/>
</g>
<!-- 6&#45;&gt;35 -->
<g id="edge45" class="edge">
<title>6&#45;&gt;35</title>
<path fill="none" stroke="#c0c0c0" stroke-width="2" d="M353.4676,-583.9243C382.707,-573.1833 419.7268,-559.5842 449.2743,-548.73"/>
<polygon fill="#c0c0c0" stroke="#c0c0c0" stroke-width="2" points="450.8065,-551.8959 458.9863,-545.1623 448.3927,-545.3252 450.8065,-551.8959"/>
</g>
<!-- 7 -->
<g id="node8" class="node">
<title>7</title>
<path fill="none" stroke="#d88556" stroke-width="2" d="M174.2851,-836C174.2851,-836 12.2379,-836 12.2379,-836 6.2379,-836 .2379,-830 .2379,-824 .2379,-824 .2379,-812 .2379,-812 .2379,-806 6.2379,-800 12.2379,-800 12.2379,-800 174.2851,-800 174.2851,-800 180.2851,-800 186.2851,-806 186.2851,-812 186.2851,-812 186.2851,-824 186.2851,-824 186.2851,-830 180.2851,-836 174.2851,-836"/>
<text text-anchor="middle" x="93.2615" y="-821" font-family="sans" font-size="10.00" fill="#000000">untar</text>
<text text-anchor="middle" x="93.2615" y="-809" font-family="sans" font-size="10.00" fill="#000000">archive: 2017_05_12.b6xcast.minion.fast5</text>
</g>
<!-- 7&#45;&gt;26 -->
<g id="edge32" class="edge">
<title>7&#45;&gt;26</title>
<path fill="none" stroke="#c0c0c0" stroke-width="2" d="M146.2334,-799.9243C179.9756,-788.4104 223.3424,-773.6122 256.1079,-762.4315"/>
<polygon fill="#c0c0c0" stroke="#c0c0c0" stroke-width="2" points="257.58,-765.6275 265.9138,-759.0855 255.3193,-759.0025 257.58,-765.6275"/>
</g>
<!-- 8 -->
<g id="node9" class="node">
<title>8</title>
<path fill="none" stroke="#5692d8" stroke-width="2" d="M151.6811,-908C151.6811,-908 34.8419,-908 34.8419,-908 28.8419,-908 22.8419,-902 22.8419,-896 22.8419,-896 22.8419,-884 22.8419,-884 22.8419,-878 28.8419,-872 34.8419,-872 34.8419,-872 151.6811,-872 151.6811,-872 157.6811,-872 163.6811,-878 163.6811,-884 163.6811,-884 163.6811,-896 163.6811,-896 163.6811,-902 157.6811,-908 151.6811,-908"/>
<text text-anchor="middle" x="93.2615" y="-887" font-family="sans" font-size="10.00" fill="#000000">download_fast5_b6xcast_0512</text>
</g>
<!-- 8&#45;&gt;7 -->
<g id="edge9" class="edge">
<title>8&#45;&gt;7</title>
<path fill="none" stroke="#c0c0c0" stroke-width="2" d="M93.2615,-871.8314C93.2615,-864.131 93.2615,-854.9743 93.2615,-846.4166"/>
<polygon fill="#c0c0c0" stroke="#c0c0c0" stroke-width="2" points="96.7616,-846.4132 93.2615,-836.4133 89.7616,-846.4133 96.7616,-846.4132"/>
</g>
<!-- 9 -->
<g id="node10" class="node">
<title>9</title>
<path fill="none" stroke="#56c1d8" stroke-width="2" d="M916.4587,-764C916.4587,-764 842.0643,-764 842.0643,-764 836.0643,-764 830.0643,-758 830.0643,-752 830.0643,-752 830.0643,-740 830.0643,-740 830.0643,-734 836.0643,-728 842.0643,-728 842.0643,-728 916.4587,-728 916.4587,-728 922.4587,-728 928.4587,-734 928.4587,-740 928.4587,-740 928.4587,-752 928.4587,-752 928.4587,-758 922.4587,-764 916.4587,-764"/>
<text text-anchor="middle" x="879.2615" y="-743" font-family="sans" font-size="10.00" fill="#000000">snpsplit_create_path</text>
</g>
<!-- 22 -->
<g id="node23" class="node">
<title>22</title>
<path fill="none" stroke="#d88d56" stroke-width="2" d="M926.5088,-692C926.5088,-692 832.0142,-692 832.0142,-692 826.0142,-692 820.0142,-686 820.0142,-680 820.0142,-680 820.0142,-668 820.0142,-668 820.0142,-662 826.0142,-656 832.0142,-656 832.0142,-656 926.5088,-656 926.5088,-656 932.5088,-656 938.5088,-662 938.5088,-668 938.5088,-668 938.5088,-680 938.5088,-680 938.5088,-686 932.5088,-692 926.5088,-692"/>
<text text-anchor="middle" x="879.2615" y="-671" font-family="sans" font-size="10.00" fill="#000000">snpsplit_prepare_genome</text>
</g>
<!-- 9&#45;&gt;22 -->
<g id="edge27" class="edge">
<title>9&#45;&gt;22</title>
<path fill="none" stroke="#c0c0c0" stroke-width="2" d="M879.2615,-727.8314C879.2615,-720.131 879.2615,-710.9743 879.2615,-702.4166"/>
<polygon fill="#c0c0c0" stroke="#c0c0c0" stroke-width="2" points="882.7616,-702.4132 879.2615,-692.4133 875.7616,-702.4133 882.7616,-702.4132"/>
</g>
<!-- 14 -->
<g id="node15" class="node">
<title>14</title>
<path fill="none" stroke="#56a2d8" stroke-width="2" d="M653.0418,-324C653.0418,-324 527.4812,-324 527.4812,-324 521.4812,-324 515.4812,-318 515.4812,-312 515.4812,-312 515.4812,-300 515.4812,-300 515.4812,-294 521.4812,-288 527.4812,-288 527.4812,-288 653.0418,-288 653.0418,-288 659.0418,-288 665.0418,-294 665.0418,-300 665.0418,-300 665.0418,-312 665.0418,-312 665.0418,-318 659.0418,-324 653.0418,-324"/>
<text text-anchor="middle" x="590.2615" y="-303" font-family="sans" font-size="10.00" fill="#000000">calculate_methylation_frequency</text>
</g>
<!-- 10&#45;&gt;14 -->
<g id="edge20" class="edge">
<title>10&#45;&gt;14</title>
<path fill="none" stroke="#c0c0c0" stroke-width="2" d="M564.8411,-359.8314C568.5973,-351.8771 573.0872,-342.369 577.2413,-333.5723"/>
<polygon fill="#c0c0c0" stroke="#c0c0c0" stroke-width="2" points="580.4611,-334.9503 581.5663,-324.4133 574.1314,-331.9612 580.4611,-334.9503"/>
</g>
<!-- 11&#45;&gt;5 -->
<g id="edge7" class="edge">
<title>11&#45;&gt;5</title>
<path fill="none" stroke="#c0c0c0" stroke-width="2" d="M506.2709,-143.8314C506.6987,-136.131 507.2074,-126.9743 507.6828,-118.4166"/>
<polygon fill="#c0c0c0" stroke="#c0c0c0" stroke-width="2" points="511.1784,-118.592 508.2385,-108.4133 504.1891,-118.2037 511.1784,-118.592"/>
</g>
<!-- 12 -->
<g id="node13" class="node">
<title>12</title>
<path fill="none" stroke="#56d8c9" stroke-width="2" d="M786.8961,-252C786.8961,-252 693.6269,-252 693.6269,-252 687.6269,-252 681.6269,-246 681.6269,-240 681.6269,-240 681.6269,-228 681.6269,-228 681.6269,-222 687.6269,-216 693.6269,-216 693.6269,-216 786.8961,-216 786.8961,-216 792.8961,-216 798.8961,-222 798.8961,-228 798.8961,-228 798.8961,-240 798.8961,-240 798.8961,-246 792.8961,-252 786.8961,-252"/>
<text text-anchor="middle" x="740.2615" y="-231" font-family="sans" font-size="10.00" fill="#000000">merge_matched_bisulfite</text>
</g>
<!-- 30 -->
<g id="node31" class="node">
<title>30</title>
<path fill="none" stroke="#d87556" stroke-width="2" d="M728.4221,-180C728.4221,-180 650.1009,-180 650.1009,-180 644.1009,-180 638.1009,-174 638.1009,-168 638.1009,-168 638.1009,-156 638.1009,-156 638.1009,-150 644.1009,-144 650.1009,-144 650.1009,-144 728.4221,-144 728.4221,-144 734.4221,-144 740.4221,-150 740.4221,-156 740.4221,-156 740.4221,-168 740.4221,-168 740.4221,-174 734.4221,-180 728.4221,-180"/>
<text text-anchor="middle" x="689.2615" y="-159" font-family="sans" font-size="10.00" fill="#000000">build_methylation_df</text>
</g>
<!-- 12&#45;&gt;30 -->
<g id="edge39" class="edge">
<title>12&#45;&gt;30</title>
<path fill="none" stroke="#c0c0c0" stroke-width="2" d="M727.392,-215.8314C721.578,-207.6232 714.5919,-197.7606 708.1969,-188.7323"/>
<polygon fill="#c0c0c0" stroke="#c0c0c0" stroke-width="2" points="710.9405,-186.5505 702.3042,-180.4133 705.2284,-190.5966 710.9405,-186.5505"/>
</g>
<!-- 13 -->
<g id="node14" class="node">
<title>13</title>
<path fill="none" stroke="#88d856" stroke-width="2" d="M844.9738,-396C844.9738,-396 795.5492,-396 795.5492,-396 789.5492,-396 783.5492,-390 783.5492,-384 783.5492,-384 783.5492,-372 783.5492,-372 783.5492,-366 789.5492,-360 795.5492,-360 795.5492,-360 844.9738,-360 844.9738,-360 850.9738,-360 856.9738,-366 856.9738,-372 856.9738,-372 856.9738,-384 856.9738,-384 856.9738,-390 850.9738,-396 844.9738,-396"/>
<text text-anchor="middle" x="820.2615" y="-375" font-family="sans" font-size="10.00" fill="#000000">bismark_align</text>
</g>
<!-- 15 -->
<g id="node16" class="node">
<title>15</title>
<path fill="none" stroke="#56d863" stroke-width="2" d="M832.3085,-324C832.3085,-324 742.2145,-324 742.2145,-324 736.2145,-324 730.2145,-318 730.2145,-312 730.2145,-312 730.2145,-300 730.2145,-300 730.2145,-294 736.2145,-288 742.2145,-288 742.2145,-288 832.3085,-288 832.3085,-288 838.3085,-288 844.3085,-294 844.3085,-300 844.3085,-300 844.3085,-312 844.3085,-312 844.3085,-318 838.3085,-324 832.3085,-324"/>
<text text-anchor="middle" x="787.2615" y="-309" font-family="sans" font-size="10.00" fill="#000000">bismark_extract</text>
<text text-anchor="middle" x="787.2615" y="-297" font-family="sans" font-size="10.00" fill="#000000">sample: B6CastF1_1_pe</text>
</g>
<!-- 13&#45;&gt;15 -->
<g id="edge21" class="edge">
<title>13&#45;&gt;15</title>
<path fill="none" stroke="#c0c0c0" stroke-width="2" d="M811.9342,-359.8314C808.2885,-351.8771 803.9306,-342.369 799.8988,-333.5723"/>
<polygon fill="#c0c0c0" stroke="#c0c0c0" stroke-width="2" points="803.0492,-332.0456 795.7009,-324.4133 796.6858,-334.9622 803.0492,-332.0456"/>
</g>
<!-- 14&#45;&gt;30 -->
<g id="edge38" class="edge">
<title>14&#45;&gt;30</title>
<path fill="none" stroke="#c0c0c0" stroke-width="2" d="M602.7999,-287.7623C620.0577,-262.66 651.2416,-217.3017 671.0654,-188.4671"/>
<polygon fill="#c0c0c0" stroke="#c0c0c0" stroke-width="2" points="674.0437,-190.3129 676.8249,-180.0896 668.2754,-186.3472 674.0437,-190.3129"/>
</g>
<!-- 15&#45;&gt;12 -->
<g id="edge17" class="edge">
<title>15&#45;&gt;12</title>
<path fill="none" stroke="#c0c0c0" stroke-width="2" d="M775.4014,-287.8314C770.0986,-279.7079 763.7378,-269.9637 757.8942,-261.0118"/>
<polygon fill="#c0c0c0" stroke="#c0c0c0" stroke-width="2" points="760.6784,-258.8739 752.2813,-252.4133 754.8167,-262.7003 760.6784,-258.8739"/>
</g>
<!-- 16 -->
<g id="node17" class="node">
<title>16</title>
<path fill="none" stroke="#d88556" stroke-width="2" d="M379.2851,-836C379.2851,-836 217.2379,-836 217.2379,-836 211.2379,-836 205.2379,-830 205.2379,-824 205.2379,-824 205.2379,-812 205.2379,-812 205.2379,-806 211.2379,-800 217.2379,-800 217.2379,-800 379.2851,-800 379.2851,-800 385.2851,-800 391.2851,-806 391.2851,-812 391.2851,-812 391.2851,-824 391.2851,-824 391.2851,-830 385.2851,-836 379.2851,-836"/>
<text text-anchor="middle" x="298.2615" y="-821" font-family="sans" font-size="10.00" fill="#000000">untar</text>
<text text-anchor="middle" x="298.2615" y="-809" font-family="sans" font-size="10.00" fill="#000000">archive: 2017_05_25.b6xcast.minion.fast5</text>
</g>
<!-- 16&#45;&gt;26 -->
<g id="edge34" class="edge">
<title>16&#45;&gt;26</title>
<path fill="none" stroke="#c0c0c0" stroke-width="2" d="M299.7756,-799.8314C300.4173,-792.131 301.1803,-782.9743 301.8934,-774.4166"/>
<polygon fill="#c0c0c0" stroke="#c0c0c0" stroke-width="2" points="305.3844,-774.6694 302.7271,-764.4133 298.4086,-774.088 305.3844,-774.6694"/>
</g>
<!-- 17 -->
<g id="node18" class="node">
<title>17</title>
<path fill="none" stroke="#56d8b9" stroke-width="2" d="M573.4508,-472C573.4508,-472 427.0722,-472 427.0722,-472 421.0722,-472 415.0722,-466 415.0722,-460 415.0722,-460 415.0722,-448 415.0722,-448 415.0722,-442 421.0722,-436 427.0722,-436 427.0722,-436 573.4508,-436 573.4508,-436 579.4508,-436 585.4508,-442 585.4508,-448 585.4508,-448 585.4508,-460 585.4508,-460 585.4508,-466 579.4508,-472 573.4508,-472"/>
<text text-anchor="middle" x="500.2615" y="-457" font-family="sans" font-size="10.00" fill="#000000">samtools_index</text>
<text text-anchor="middle" x="500.2615" y="-445" font-family="sans" font-size="10.00" fill="#000000">file: ../nanopore/b6xcast.minion.sorted</text>
</g>
<!-- 17&#45;&gt;10 -->
<g id="edge11" class="edge">
<title>17&#45;&gt;10</title>
<path fill="none" stroke="#c0c0c0" stroke-width="2" d="M513.5327,-435.9891C520.5255,-426.4988 529.2317,-414.6833 536.9574,-404.1985"/>
<polygon fill="#c0c0c0" stroke="#c0c0c0" stroke-width="2" points="539.7771,-406.2718 542.8915,-396.145 534.1417,-402.1194 539.7771,-406.2718"/>
</g>
<!-- 18 -->
<g id="node19" class="node">
<title>18</title>
<path fill="none" stroke="#59d856" stroke-width="2" d="M799.4169,-548C799.4169,-548 691.1061,-548 691.1061,-548 685.1061,-548 679.1061,-542 679.1061,-536 679.1061,-536 679.1061,-524 679.1061,-524 679.1061,-518 685.1061,-512 691.1061,-512 691.1061,-512 799.4169,-512 799.4169,-512 805.4169,-512 811.4169,-518 811.4169,-524 811.4169,-524 811.4169,-536 811.4169,-536 811.4169,-542 805.4169,-548 799.4169,-548"/>
<text text-anchor="middle" x="745.2615" y="-533" font-family="sans" font-size="10.00" fill="#000000">download_bisulfite_B6Cast1</text>
<text text-anchor="middle" x="745.2615" y="-521" font-family="sans" font-size="10.00" fill="#000000">file: 1</text>
</g>
<!-- 23 -->
<g id="node24" class="node">
<title>23</title>
<path fill="none" stroke="#569ad8" stroke-width="2" d="M857.8703,-476C857.8703,-476 782.6527,-476 782.6527,-476 776.6527,-476 770.6527,-470 770.6527,-464 770.6527,-464 770.6527,-444 770.6527,-444 770.6527,-438 776.6527,-432 782.6527,-432 782.6527,-432 857.8703,-432 857.8703,-432 863.8703,-432 869.8703,-438 869.8703,-444 869.8703,-444 869.8703,-464 869.8703,-464 869.8703,-470 863.8703,-476 857.8703,-476"/>
<text text-anchor="middle" x="820.2615" y="-463" font-family="sans" font-size="10.00" fill="#000000">trim_galore</text>
<text text-anchor="middle" x="820.2615" y="-451" font-family="sans" font-size="10.00" fill="#000000">outdir: bisulfite</text>
<text text-anchor="middle" x="820.2615" y="-439" font-family="sans" font-size="10.00" fill="#000000">sample: B6CastF1_1</text>
</g>
<!-- 18&#45;&gt;23 -->
<g id="edge28" class="edge">
<title>18&#45;&gt;23</title>
<path fill="none" stroke="#c0c0c0" stroke-width="2" d="M763.0355,-511.9891C771.458,-503.4542 781.7365,-493.0387 791.2466,-483.4018"/>
<polygon fill="#c0c0c0" stroke="#c0c0c0" stroke-width="2" points="793.7929,-485.8044 798.3258,-476.2282 788.8104,-480.8875 793.7929,-485.8044"/>
</g>
<!-- 19 -->
<g id="node20" class="node">
<title>19</title>
<path fill="none" stroke="#8fd856" stroke-width="2" d="M561.6811,-908C561.6811,-908 444.8419,-908 444.8419,-908 438.8419,-908 432.8419,-902 432.8419,-896 432.8419,-896 432.8419,-884 432.8419,-884 432.8419,-878 438.8419,-872 444.8419,-872 444.8419,-872 561.6811,-872 561.6811,-872 567.6811,-872 573.6811,-878 573.6811,-884 573.6811,-884 573.6811,-896 573.6811,-896 573.6811,-902 567.6811,-908 561.6811,-908"/>
<text text-anchor="middle" x="503.2615" y="-887" font-family="sans" font-size="10.00" fill="#000000">download_fast5_b6xcast_0503</text>
</g>
<!-- 19&#45;&gt;2 -->
<g id="edge2" class="edge">
<title>19&#45;&gt;2</title>
<path fill="none" stroke="#c0c0c0" stroke-width="2" d="M503.2615,-871.8314C503.2615,-864.131 503.2615,-854.9743 503.2615,-846.4166"/>
<polygon fill="#c0c0c0" stroke="#c0c0c0" stroke-width="2" points="506.7616,-846.4132 503.2615,-836.4133 499.7616,-846.4133 506.7616,-846.4132"/>
</g>
<!-- 20 -->
<g id="node21" class="node">
<title>20</title>
<path fill="none" stroke="#afd856" stroke-width="2" d="M689.5887,-836C689.5887,-836 626.9343,-836 626.9343,-836 620.9343,-836 614.9343,-830 614.9343,-824 614.9343,-824 614.9343,-812 614.9343,-812 614.9343,-806 620.9343,-800 626.9343,-800 626.9343,-800 689.5887,-800 689.5887,-800 695.5887,-800 701.5887,-806 701.5887,-812 701.5887,-812 701.5887,-824 701.5887,-824 701.5887,-830 695.5887,-836 689.5887,-836"/>
<text text-anchor="middle" x="658.2615" y="-821" font-family="sans" font-size="10.00" fill="#000000">download_vcf</text>
<text text-anchor="middle" x="658.2615" y="-809" font-family="sans" font-size="10.00" fill="#000000">strain: CAST_EiJ</text>
</g>
<!-- 28 -->
<g id="node29" class="node">
<title>28</title>
<path fill="none" stroke="#56d873" stroke-width="2" d="M762.4657,-764C762.4657,-764 546.0573,-764 546.0573,-764 540.0573,-764 534.0573,-758 534.0573,-752 534.0573,-752 534.0573,-740 534.0573,-740 534.0573,-734 540.0573,-728 546.0573,-728 546.0573,-728 762.4657,-728 762.4657,-728 768.4657,-728 774.4657,-734 774.4657,-740 774.4657,-740 774.4657,-752 774.4657,-752 774.4657,-758 768.4657,-764 762.4657,-764"/>
<text text-anchor="middle" x="654.2615" y="-749" font-family="sans" font-size="10.00" fill="#000000">gunzip_vcf</text>
<text text-anchor="middle" x="654.2615" y="-737" font-family="sans" font-size="10.00" fill="#000000">file: ../genome_data/CAST_EiJ.mgp.v5.snps.dbSNP142</text>
</g>
<!-- 20&#45;&gt;28 -->
<g id="edge36" class="edge">
<title>20&#45;&gt;28</title>
<path fill="none" stroke="#c0c0c0" stroke-width="2" d="M657.2521,-799.8314C656.8243,-792.131 656.3156,-782.9743 655.8402,-774.4166"/>
<polygon fill="#c0c0c0" stroke="#c0c0c0" stroke-width="2" points="659.3339,-774.2037 655.2845,-764.4133 652.3446,-774.592 659.3339,-774.2037"/>
</g>
<!-- 21 -->
<g id="node22" class="node">
<title>21</title>
<path fill="none" stroke="#61d856" stroke-width="2" d="M697.8485,-692C697.8485,-692 604.6745,-692 604.6745,-692 598.6745,-692 592.6745,-686 592.6745,-680 592.6745,-680 592.6745,-668 592.6745,-668 592.6745,-662 598.6745,-656 604.6745,-656 604.6745,-656 697.8485,-656 697.8485,-656 703.8485,-656 709.8485,-662 709.8485,-668 709.8485,-668 709.8485,-680 709.8485,-680 709.8485,-686 703.8485,-692 697.8485,-692"/>
<text text-anchor="middle" x="651.2615" y="-677" font-family="sans" font-size="10.00" fill="#000000">mask_with_cast_genome</text>
<text text-anchor="middle" x="651.2615" y="-665" font-family="sans" font-size="10.00" fill="#000000">genome: GRCm38_90</text>
</g>
<!-- 21&#45;&gt;4 -->
<g id="edge5" class="edge">
<title>21&#45;&gt;4</title>
<path fill="none" stroke="#c0c0c0" stroke-width="2" d="M613.1578,-655.8314C593.142,-646.2874 568.4348,-634.5065 547.2421,-624.4013"/>
<polygon fill="#c0c0c0" stroke="#c0c0c0" stroke-width="2" points="548.624,-621.1828 538.0912,-620.038 545.6112,-627.5013 548.624,-621.1828"/>
</g>
<!-- 21&#45;&gt;10 -->
<g id="edge12" class="edge">
<title>21&#45;&gt;10</title>
<path fill="none" stroke="#c0c0c0" stroke-width="2" d="M651.8385,-655.8277C652.4211,-613.8875 649.556,-508.1058 610.2615,-432 604.7103,-421.2483 596.2539,-411.2995 587.6693,-402.9476"/>
<polygon fill="#c0c0c0" stroke="#c0c0c0" stroke-width="2" points="589.8906,-400.2352 580.1621,-396.0391 585.1505,-405.3861 589.8906,-400.2352"/>
</g>
<!-- 21&#45;&gt;35 -->
<g id="edge43" class="edge">
<title>21&#45;&gt;35</title>
<path fill="none" stroke="#c0c0c0" stroke-width="2" d="M643.1292,-655.9699C633.6089,-636.3945 616.3005,-605.1083 594.2615,-584 581.6548,-571.9257 565.8442,-561.5123 550.806,-553.1412"/>
<polygon fill="#c0c0c0" stroke="#c0c0c0" stroke-width="2" points="552.0454,-549.8345 541.578,-548.1963 548.7392,-556.0045 552.0454,-549.8345"/>
</g>
<!-- 22&#45;&gt;1 -->
<g id="edge1" class="edge">
<title>22&#45;&gt;1</title>
<path fill="none" stroke="#c0c0c0" stroke-width="2" d="M898.1872,-655.8314C907.2472,-647.1337 918.2424,-636.5783 928.088,-627.1265"/>
<polygon fill="#c0c0c0" stroke="#c0c0c0" stroke-width="2" points="930.5519,-629.613 935.3419,-620.1628 925.7041,-624.5633 930.5519,-629.613"/>
</g>
<!-- 23&#45;&gt;13 -->
<g id="edge19" class="edge">
<title>23&#45;&gt;13</title>
<path fill="none" stroke="#c0c0c0" stroke-width="2" d="M820.2615,-431.6086C820.2615,-423.7272 820.2615,-414.7616 820.2615,-406.4482"/>
<polygon fill="#c0c0c0" stroke="#c0c0c0" stroke-width="2" points="823.7616,-406.3974 820.2615,-396.3975 816.7616,-406.3975 823.7616,-406.3974"/>
</g>
<!-- 33 -->
<g id="node34" class="node">
<title>33</title>
<path fill="none" stroke="#56d8b1" stroke-width="2" d="M1037.1086,-472C1037.1086,-472 941.4144,-472 941.4144,-472 935.4144,-472 929.4144,-466 929.4144,-460 929.4144,-460 929.4144,-448 929.4144,-448 929.4144,-442 935.4144,-436 941.4144,-436 941.4144,-436 1037.1086,-436 1037.1086,-436 1043.1086,-436 1049.1086,-442 1049.1086,-448 1049.1086,-448 1049.1086,-460 1049.1086,-460 1049.1086,-466 1043.1086,-472 1037.1086,-472"/>
<text text-anchor="middle" x="989.2615" y="-451" font-family="sans" font-size="10.00" fill="#000000">bismark_prepare_genome</text>
</g>
<!-- 24&#45;&gt;33 -->
<g id="edge42" class="edge">
<title>24&#45;&gt;33</title>
<path fill="none" stroke="#c0c0c0" stroke-width="2" d="M1020.5451,-511.9891C1015.5774,-502.7807 1009.4287,-491.3831 1003.9008,-481.1362"/>
<polygon fill="#c0c0c0" stroke="#c0c0c0" stroke-width="2" points="1006.8786,-479.2843 999.0503,-472.145 1000.7179,-482.6078 1006.8786,-479.2843"/>
</g>
<!-- 25 -->
<g id="node26" class="node">
<title>25</title>
<path fill="none" stroke="#56b1d8" stroke-width="2" d="M896.0746,-836C896.0746,-836 768.4484,-836 768.4484,-836 762.4484,-836 756.4484,-830 756.4484,-824 756.4484,-824 756.4484,-812 756.4484,-812 756.4484,-806 762.4484,-800 768.4484,-800 768.4484,-800 896.0746,-800 896.0746,-800 902.0746,-800 908.0746,-806 908.0746,-812 908.0746,-812 908.0746,-824 908.0746,-824 908.0746,-830 902.0746,-836 896.0746,-836"/>
<text text-anchor="middle" x="832.2615" y="-821" font-family="sans" font-size="10.00" fill="#000000">gunzip_fa</text>
<text text-anchor="middle" x="832.2615" y="-809" font-family="sans" font-size="10.00" fill="#000000">file: ../genome_data/GRCm38_90</text>
</g>
<!-- 25&#45;&gt;9 -->
<g id="edge10" class="edge">
<title>25&#45;&gt;9</title>
<path fill="none" stroke="#c0c0c0" stroke-width="2" d="M844.1216,-799.8314C849.4244,-791.7079 855.7852,-781.9637 861.6288,-773.0118"/>
<polygon fill="#c0c0c0" stroke="#c0c0c0" stroke-width="2" points="864.7063,-774.7003 867.2417,-764.4133 858.8446,-770.8739 864.7063,-774.7003"/>
</g>
<!-- 25&#45;&gt;21 -->
<g id="edge24" class="edge">
<title>25&#45;&gt;21</title>
<path fill="none" stroke="#c0c0c0" stroke-width="2" d="M826.509,-799.755C819.3344,-779.6942 805.263,-747.7004 783.2615,-728 765.265,-711.8858 741.8139,-700.211 719.6796,-691.9323"/>
<polygon fill="#c0c0c0" stroke="#c0c0c0" stroke-width="2" points="720.5562,-688.5294 709.9615,-688.4767 718.211,-695.1248 720.5562,-688.5294"/>
</g>
<!-- 26&#45;&gt;3 -->
<g id="edge3" class="edge">
<title>26&#45;&gt;3</title>
<path fill="none" stroke="#c0c0c0" stroke-width="2" d="M326.4059,-727.8762C336.7164,-718.2673 348.2308,-705.64 355.2615,-692 377.5435,-648.7714 384.3465,-591.6975 386.4007,-558.1102"/>
<polygon fill="#c0c0c0" stroke="#c0c0c0" stroke-width="2" points="389.8984,-558.2437 386.9144,-548.0778 382.9075,-557.8857 389.8984,-558.2437"/>
</g>
<!-- 27 -->
<g id="node28" class="node">
<title>27</title>
<path fill="none" stroke="#56d892" stroke-width="2" d="M333.9627,-692C333.9627,-692 274.5603,-692 274.5603,-692 268.5603,-692 262.5603,-686 262.5603,-680 262.5603,-680 262.5603,-668 262.5603,-668 262.5603,-662 268.5603,-656 274.5603,-656 274.5603,-656 333.9627,-656 333.9627,-656 339.9627,-656 345.9627,-662 345.9627,-668 345.9627,-668 345.9627,-680 345.9627,-680 345.9627,-686 339.9627,-692 333.9627,-692"/>
<text text-anchor="middle" x="304.2615" y="-677" font-family="sans" font-size="10.00" fill="#000000">albacore_minion</text>
<text text-anchor="middle" x="304.2615" y="-665" font-family="sans" font-size="10.00" fill="#000000">sample: b6xcast</text>
</g>
<!-- 26&#45;&gt;27 -->
<g id="edge35" class="edge">
<title>26&#45;&gt;27</title>
<path fill="none" stroke="#c0c0c0" stroke-width="2" d="M304.2615,-727.8314C304.2615,-720.131 304.2615,-710.9743 304.2615,-702.4166"/>
<polygon fill="#c0c0c0" stroke="#c0c0c0" stroke-width="2" points="307.7616,-702.4132 304.2615,-692.4133 300.7616,-702.4133 307.7616,-702.4132"/>
</g>
<!-- 27&#45;&gt;6 -->
<g id="edge8" class="edge">
<title>27&#45;&gt;6</title>
<path fill="none" stroke="#c0c0c0" stroke-width="2" d="M304.2615,-655.8314C304.2615,-648.131 304.2615,-638.9743 304.2615,-630.4166"/>
<polygon fill="#c0c0c0" stroke="#c0c0c0" stroke-width="2" points="307.7616,-630.4132 304.2615,-620.4133 300.7616,-630.4133 307.7616,-630.4132"/>
</g>
<!-- 28&#45;&gt;21 -->
<g id="edge25" class="edge">
<title>28&#45;&gt;21</title>
<path fill="none" stroke="#c0c0c0" stroke-width="2" d="M653.5045,-727.8314C653.1836,-720.131 652.8021,-710.9743 652.4455,-702.4166"/>
<polygon fill="#c0c0c0" stroke="#c0c0c0" stroke-width="2" points="655.9421,-702.2589 652.0287,-692.4133 648.9482,-702.5503 655.9421,-702.2589"/>
</g>
<!-- 28&#45;&gt;22 -->
<g id="edge26" class="edge">
<title>28&#45;&gt;22</title>
<path fill="none" stroke="#c0c0c0" stroke-width="2" d="M710.7481,-727.9243C741.7744,-717.9959 780.4318,-705.6255 812.8921,-695.2382"/>
<polygon fill="#c0c0c0" stroke="#c0c0c0" stroke-width="2" points="814.2942,-698.4645 822.7517,-692.0831 812.1607,-691.7975 814.2942,-698.4645"/>
</g>
<!-- 29 -->
<g id="node30" class="node">
<title>29</title>
<path fill="none" stroke="#5663d8" stroke-width="2" d="M755.9149,-108C755.9149,-108 622.6081,-108 622.6081,-108 616.6081,-108 610.6081,-102 610.6081,-96 610.6081,-96 610.6081,-84 610.6081,-84 610.6081,-78 616.6081,-72 622.6081,-72 622.6081,-72 755.9149,-72 755.9149,-72 761.9149,-72 767.9149,-78 767.9149,-84 767.9149,-84 767.9149,-96 767.9149,-96 767.9149,-102 761.9149,-108 755.9149,-108"/>
<text text-anchor="middle" x="689.2615" y="-87" font-family="sans" font-size="10.00" fill="#000000">nanopolish_methylation_validation</text>
</g>
<!-- 29&#45;&gt;32 -->
<g id="edge41" class="edge">
<title>29&#45;&gt;32</title>
<path fill="none" stroke="#c0c0c0" stroke-width="2" d="M666.5507,-71.8314C655.4655,-62.9632 641.9661,-52.1637 629.9763,-42.5718"/>
<polygon fill="#c0c0c0" stroke="#c0c0c0" stroke-width="2" points="631.9602,-39.6768 621.965,-36.1628 627.5873,-45.1429 631.9602,-39.6768"/>
</g>
<!-- 30&#45;&gt;5 -->
<g id="edge6" class="edge">
<title>30&#45;&gt;5</title>
<path fill="none" stroke="#c0c0c0" stroke-width="2" d="M643.8399,-143.8314C619.552,-134.1162 589.4693,-122.0831 563.9095,-111.8592"/>
<polygon fill="#c0c0c0" stroke="#c0c0c0" stroke-width="2" points="564.9411,-108.5023 554.3565,-108.038 562.3414,-115.0016 564.9411,-108.5023"/>
</g>
<!-- 30&#45;&gt;29 -->
<g id="edge37" class="edge">
<title>30&#45;&gt;29</title>
<path fill="none" stroke="#c0c0c0" stroke-width="2" d="M689.2615,-143.8314C689.2615,-136.131 689.2615,-126.9743 689.2615,-118.4166"/>
<polygon fill="#c0c0c0" stroke="#c0c0c0" stroke-width="2" points="692.7616,-118.4132 689.2615,-108.4133 685.7616,-118.4133 692.7616,-118.4132"/>
</g>
<!-- 31 -->
<g id="node32" class="node">
<title>31</title>
<path fill="none" stroke="#59d856" stroke-width="2" d="M950.4169,-548C950.4169,-548 842.1061,-548 842.1061,-548 836.1061,-548 830.1061,-542 830.1061,-536 830.1061,-536 830.1061,-524 830.1061,-524 830.1061,-518 836.1061,-512 842.1061,-512 842.1061,-512 950.4169,-512 950.4169,-512 956.4169,-512 962.4169,-518 962.4169,-524 962.4169,-524 962.4169,-536 962.4169,-536 962.4169,-542 956.4169,-548 950.4169,-548"/>
<text text-anchor="middle" x="896.2615" y="-533" font-family="sans" font-size="10.00" fill="#000000">download_bisulfite_B6Cast1</text>
<text text-anchor="middle" x="896.2615" y="-521" font-family="sans" font-size="10.00" fill="#000000">file: 2</text>
</g>
<!-- 31&#45;&gt;23 -->
<g id="edge29" class="edge">
<title>31&#45;&gt;23</title>
<path fill="none" stroke="#c0c0c0" stroke-width="2" d="M878.2506,-511.9891C869.7157,-503.4542 859.3002,-493.0387 849.6633,-483.4018"/>
<polygon fill="#c0c0c0" stroke="#c0c0c0" stroke-width="2" points="852.0357,-480.8244 842.4897,-476.2282 847.0859,-485.7742 852.0357,-480.8244"/>
</g>
<!-- 33&#45;&gt;13 -->
<g id="edge18" class="edge">
<title>33&#45;&gt;13</title>
<path fill="none" stroke="#c0c0c0" stroke-width="2" d="M949.2109,-435.9891C924.3481,-424.8082 892.3082,-410.3997 866.386,-398.7424"/>
<polygon fill="#c0c0c0" stroke="#c0c0c0" stroke-width="2" points="867.6929,-395.4925 857.1372,-394.5831 864.8219,-401.8767 867.6929,-395.4925"/>
</g>
<!-- 34 -->
<g id="node35" class="node">
<title>34</title>
<path fill="none" stroke="#565bd8" stroke-width="2" d="M874.5248,-908C874.5248,-908 789.9982,-908 789.9982,-908 783.9982,-908 777.9982,-902 777.9982,-896 777.9982,-896 777.9982,-884 777.9982,-884 777.9982,-878 783.9982,-872 789.9982,-872 789.9982,-872 874.5248,-872 874.5248,-872 880.5248,-872 886.5248,-878 886.5248,-884 886.5248,-884 886.5248,-896 886.5248,-896 886.5248,-902 880.5248,-908 874.5248,-908"/>
<text text-anchor="middle" x="832.2615" y="-887" font-family="sans" font-size="10.00" fill="#000000">download_B6_genome</text>
</g>
<!-- 34&#45;&gt;25 -->
<g id="edge31" class="edge">
<title>34&#45;&gt;25</title>
<path fill="none" stroke="#c0c0c0" stroke-width="2" d="M832.2615,-871.8314C832.2615,-864.131 832.2615,-854.9743 832.2615,-846.4166"/>
<polygon fill="#c0c0c0" stroke="#c0c0c0" stroke-width="2" points="835.7616,-846.4132 832.2615,-836.4133 828.7616,-846.4133 835.7616,-846.4132"/>
</g>
<!-- 35&#45;&gt;10 -->
<g id="edge13" class="edge">
<title>35&#45;&gt;10</title>
<path fill="none" stroke="#c0c0c0" stroke-width="2" d="M541.5959,-517.2306C561.2299,-508.8513 582.8537,-495.7096 594.2615,-476 607.5391,-453.0599 593.5166,-424.603 578.8989,-404.2745"/>
<polygon fill="#c0c0c0" stroke="#c0c0c0" stroke-width="2" points="581.5178,-401.9363 572.6756,-396.0997 575.9481,-406.1765 581.5178,-401.9363"/>
</g>
<!-- 35&#45;&gt;17 -->
<g id="edge23" class="edge">
<title>35&#45;&gt;17</title>
<path fill="none" stroke="#c0c0c0" stroke-width="2" d="M500.2615,-511.9891C500.2615,-503.1566 500.2615,-492.3099 500.2615,-482.3965"/>
<polygon fill="#c0c0c0" stroke="#c0c0c0" stroke-width="2" points="503.7616,-482.145 500.2615,-472.145 496.7616,-482.1451 503.7616,-482.145"/>
</g>
<!-- 36 -->
<g id="node37" class="node">
<title>36</title>
<path fill="none" stroke="#d6d856" stroke-width="2" d="M356.6811,-908C356.6811,-908 239.8419,-908 239.8419,-908 233.8419,-908 227.8419,-902 227.8419,-896 227.8419,-896 227.8419,-884 227.8419,-884 227.8419,-878 233.8419,-872 239.8419,-872 239.8419,-872 356.6811,-872 356.6811,-872 362.6811,-872 368.6811,-878 368.6811,-884 368.6811,-884 368.6811,-896 368.6811,-896 368.6811,-902 362.6811,-908 356.6811,-908"/>
<text text-anchor="middle" x="298.2615" y="-887" font-family="sans" font-size="10.00" fill="#000000">download_fast5_b6xcast_0525</text>
</g>
<!-- 36&#45;&gt;16 -->
<g id="edge22" class="edge">
<title>36&#45;&gt;16</title>
<path fill="none" stroke="#c0c0c0" stroke-width="2" d="M298.2615,-871.8314C298.2615,-864.131 298.2615,-854.9743 298.2615,-846.4166"/>
<polygon fill="#c0c0c0" stroke="#c0c0c0" stroke-width="2" points="301.7616,-846.4132 298.2615,-836.4133 294.7616,-846.4133 301.7616,-846.4132"/>
</g>
</g>
</svg>
