<?xml version="1.0" encoding="UTF-8" standalone="no"?>
<!DOCTYPE svg PUBLIC "-//W3C//DTD SVG 1.1//EN"
 "http://www.w3.org/Graphics/SVG/1.1/DTD/svg11.dtd">
<!-- Generated by graphviz version 2.40.1 (20161225.0304)
 -->
<!-- Title: snakemake_dag Pages: 1 -->
<svg width="1119pt" height="916pt"
 viewBox="0.00 0.00 1118.91 916.00" xmlns="http://www.w3.org/2000/svg" xmlns:xlink="http://www.w3.org/1999/xlink">
<g id="graph0" class="graph" transform="scale(1 1) rotate(0) translate(4 912)">
<title>snakemake_dag</title>
<polygon fill="#ffffff" stroke="transparent" points="-4,4 -4,-912 1114.91,-912 1114.91,4 -4,4"/>
<!-- 0 -->
<g id="node1" class="node">
<title>0</title>
<path fill="none" stroke="#568ad8" stroke-width="2" d="M675.8012,-548C675.8012,-548 617.4958,-548 617.4958,-548 611.4958,-548 605.4958,-542 605.4958,-536 605.4958,-536 605.4958,-524 605.4958,-524 605.4958,-518 611.4958,-512 617.4958,-512 617.4958,-512 675.8012,-512 675.8012,-512 681.8012,-512 687.8012,-518 687.8012,-524 687.8012,-524 687.8012,-536 687.8012,-536 687.8012,-542 681.8012,-548 675.8012,-548"/>
<text text-anchor="middle" x="646.6485" y="-527" font-family="sans" font-size="10.00" fill="#000000">bwa_mem_align</text>
</g>
<!-- 1 -->
<g id="node2" class="node">
<title>1</title>
<path fill="none" stroke="#d87556" stroke-width="2" d="M622.8378,-472C622.8378,-472 476.4592,-472 476.4592,-472 470.4592,-472 464.4592,-466 464.4592,-460 464.4592,-460 464.4592,-448 464.4592,-448 464.4592,-442 470.4592,-436 476.4592,-436 476.4592,-436 622.8378,-436 622.8378,-436 628.8378,-436 634.8378,-442 634.8378,-448 634.8378,-448 634.8378,-460 634.8378,-460 634.8378,-466 628.8378,-472 622.8378,-472"/>
<text text-anchor="middle" x="549.6485" y="-457" font-family="sans" font-size="10.00" fill="#000000">samtools_index</text>
<text text-anchor="middle" x="549.6485" y="-445" font-family="sans" font-size="10.00" fill="#000000">file: ../nanopore/b6xcast.minion.sorted</text>
</g>
<!-- 0&#45;&gt;1 -->
<g id="edge4" class="edge">
<title>0&#45;&gt;1</title>
<path fill="none" stroke="#c0c0c0" stroke-width="2" d="M623.6609,-511.9891C610.8288,-501.9351 594.6658,-489.2712 580.7201,-478.3448"/>
<polygon fill="#c0c0c0" stroke="#c0c0c0" stroke-width="2" points="582.8376,-475.5575 572.8073,-472.145 578.5203,-481.0676 582.8376,-475.5575"/>
</g>
<!-- 33 -->
<g id="node34" class="node">
<title>33</title>
<path fill="none" stroke="#bed856" stroke-width="2" d="M649.808,-396C649.808,-396 561.489,-396 561.489,-396 555.489,-396 549.489,-390 549.489,-384 549.489,-384 549.489,-372 549.489,-372 549.489,-366 555.489,-360 561.489,-360 561.489,-360 649.808,-360 649.808,-360 655.808,-360 661.808,-366 661.808,-372 661.808,-372 661.808,-384 661.808,-384 661.808,-390 655.808,-396 649.808,-396"/>
<text text-anchor="middle" x="605.6485" y="-375" font-family="sans" font-size="10.00" fill="#000000">nanopolish_methylation</text>
</g>
<!-- 0&#45;&gt;33 -->
<g id="edge39" class="edge">
<title>0&#45;&gt;33</title>
<path fill="none" stroke="#c0c0c0" stroke-width="2" d="M649.1491,-511.7542C651.2119,-491.653 652.5342,-458.6434 643.6485,-432 640.4184,-422.3147 634.8365,-412.8325 628.9301,-404.5845"/>
<polygon fill="#c0c0c0" stroke="#c0c0c0" stroke-width="2" points="631.5925,-402.3039 622.7426,-396.479 626.0284,-406.5515 631.5925,-402.3039"/>
</g>
<!-- 1&#45;&gt;33 -->
<g id="edge38" class="edge">
<title>1&#45;&gt;33</title>
<path fill="none" stroke="#c0c0c0" stroke-width="2" d="M562.9197,-435.9891C569.9125,-426.4988 578.6187,-414.6833 586.3444,-404.1985"/>
<polygon fill="#c0c0c0" stroke="#c0c0c0" stroke-width="2" points="589.1641,-406.2718 592.2785,-396.145 583.5287,-402.1194 589.1641,-406.2718"/>
</g>
<!-- 2 -->
<g id="node3" class="node">
<title>2</title>
<path fill="none" stroke="#d6d856" stroke-width="2" d="M423.2831,-252C423.2831,-252 330.0139,-252 330.0139,-252 324.0139,-252 318.0139,-246 318.0139,-240 318.0139,-240 318.0139,-228 318.0139,-228 318.0139,-222 324.0139,-216 330.0139,-216 330.0139,-216 423.2831,-216 423.2831,-216 429.2831,-216 435.2831,-222 435.2831,-228 435.2831,-228 435.2831,-240 435.2831,-240 435.2831,-246 429.2831,-252 423.2831,-252"/>
<text text-anchor="middle" x="376.6485" y="-231" font-family="sans" font-size="10.00" fill="#000000">merge_matched_bisulfite</text>
</g>
<!-- 18 -->
<g id="node19" class="node">
<title>18</title>
<path fill="none" stroke="#d86e56" stroke-width="2" d="M451.8091,-180C451.8091,-180 373.4879,-180 373.4879,-180 367.4879,-180 361.4879,-174 361.4879,-168 361.4879,-168 361.4879,-156 361.4879,-156 361.4879,-150 367.4879,-144 373.4879,-144 373.4879,-144 451.8091,-144 451.8091,-144 457.8091,-144 463.8091,-150 463.8091,-156 463.8091,-156 463.8091,-168 463.8091,-168 463.8091,-174 457.8091,-180 451.8091,-180"/>
<text text-anchor="middle" x="412.6485" y="-159" font-family="sans" font-size="10.00" fill="#000000">build_methylation_df</text>
</g>
<!-- 2&#45;&gt;18 -->
<g id="edge19" class="edge">
<title>2&#45;&gt;18</title>
<path fill="none" stroke="#c0c0c0" stroke-width="2" d="M385.7328,-215.8314C389.71,-207.8771 394.464,-198.369 398.8624,-189.5723"/>
<polygon fill="#c0c0c0" stroke="#c0c0c0" stroke-width="2" points="402.1002,-190.9228 403.4419,-180.4133 395.8392,-187.7923 402.1002,-190.9228"/>
</g>
<!-- 3 -->
<g id="node4" class="node">
<title>3</title>
<path fill="none" stroke="#59d856" stroke-width="2" d="M304.2295,-108C304.2295,-108 161.0675,-108 161.0675,-108 155.0675,-108 149.0675,-102 149.0675,-96 149.0675,-96 149.0675,-84 149.0675,-84 149.0675,-78 155.0675,-72 161.0675,-72 161.0675,-72 304.2295,-72 304.2295,-72 310.2295,-72 316.2295,-78 316.2295,-84 316.2295,-84 316.2295,-96 316.2295,-96 316.2295,-102 310.2295,-108 304.2295,-108"/>
<text text-anchor="middle" x="232.6485" y="-87" font-family="sans" font-size="10.00" fill="#000000">genome_level_methylation_summary</text>
</g>
<!-- 20 -->
<g id="node21" class="node">
<title>20</title>
<path fill="none" stroke="#80d856" stroke-width="2" d="M361.1355,-36C361.1355,-36 284.1615,-36 284.1615,-36 278.1615,-36 272.1615,-30 272.1615,-24 272.1615,-24 272.1615,-12 272.1615,-12 272.1615,-6 278.1615,0 284.1615,0 284.1615,0 361.1355,0 361.1355,0 367.1355,0 373.1355,-6 373.1355,-12 373.1355,-12 373.1355,-24 373.1355,-24 373.1355,-30 367.1355,-36 361.1355,-36"/>
<text text-anchor="middle" x="322.6485" y="-15" font-family="sans" font-size="10.00" fill="#000000">methylation_analysis</text>
</g>
<!-- 3&#45;&gt;20 -->
<g id="edge22" class="edge">
<title>3&#45;&gt;20</title>
<path fill="none" stroke="#c0c0c0" stroke-width="2" d="M255.3593,-71.8314C266.4445,-62.9632 279.9439,-52.1637 291.9337,-42.5718"/>
<polygon fill="#c0c0c0" stroke="#c0c0c0" stroke-width="2" points="294.3227,-45.1429 299.945,-36.1628 289.9498,-39.6768 294.3227,-45.1429"/>
</g>
<!-- 4 -->
<g id="node5" class="node">
<title>4</title>
<path fill="none" stroke="#56d86b" stroke-width="2" d="M258.8958,-692C258.8958,-692 164.4012,-692 164.4012,-692 158.4012,-692 152.4012,-686 152.4012,-680 152.4012,-680 152.4012,-668 152.4012,-668 152.4012,-662 158.4012,-656 164.4012,-656 164.4012,-656 258.8958,-656 258.8958,-656 264.8958,-656 270.8958,-662 270.8958,-668 270.8958,-668 270.8958,-680 270.8958,-680 270.8958,-686 264.8958,-692 258.8958,-692"/>
<text text-anchor="middle" x="211.6485" y="-671" font-family="sans" font-size="10.00" fill="#000000">snpsplit_prepare_genome</text>
</g>
<!-- 21 -->
<g id="node22" class="node">
<title>21</title>
<path fill="none" stroke="#56d8a9" stroke-width="2" d="M169.0166,-620C169.0166,-620 68.2804,-620 68.2804,-620 62.2804,-620 56.2804,-614 56.2804,-608 56.2804,-608 56.2804,-596 56.2804,-596 56.2804,-590 62.2804,-584 68.2804,-584 68.2804,-584 169.0166,-584 169.0166,-584 175.0166,-584 181.0166,-590 181.0166,-596 181.0166,-596 181.0166,-608 181.0166,-608 181.0166,-614 175.0166,-620 169.0166,-620"/>
<text text-anchor="middle" x="118.6485" y="-599" font-family="sans" font-size="10.00" fill="#000000">clean_up_snpsplit_genome</text>
</g>
<!-- 4&#45;&gt;21 -->
<g id="edge24" class="edge">
<title>4&#45;&gt;21</title>
<path fill="none" stroke="#c0c0c0" stroke-width="2" d="M188.1807,-655.8314C176.6158,-646.8779 162.5081,-635.9558 150.0302,-626.2955"/>
<polygon fill="#c0c0c0" stroke="#c0c0c0" stroke-width="2" points="152.1587,-623.5171 142.1088,-620.1628 147.8735,-629.0521 152.1587,-623.5171"/>
</g>
<!-- 5 -->
<g id="node6" class="node">
<title>5</title>
<path fill="none" stroke="#56d88a" stroke-width="2" d="M893.6721,-836C893.6721,-836 731.6249,-836 731.6249,-836 725.6249,-836 719.6249,-830 719.6249,-824 719.6249,-824 719.6249,-812 719.6249,-812 719.6249,-806 725.6249,-800 731.6249,-800 731.6249,-800 893.6721,-800 893.6721,-800 899.6721,-800 905.6721,-806 905.6721,-812 905.6721,-812 905.6721,-824 905.6721,-824 905.6721,-830 899.6721,-836 893.6721,-836"/>
<text text-anchor="middle" x="812.6485" y="-821" font-family="sans" font-size="10.00" fill="#000000">untar</text>
<text text-anchor="middle" x="812.6485" y="-809" font-family="sans" font-size="10.00" fill="#000000">archive: 2017_05_12.b6xcast.minion.fast5</text>
</g>
<!-- 32 -->
<g id="node33" class="node">
<title>32</title>
<path fill="none" stroke="#d88d56" stroke-width="2" d="M838.6819,-764C838.6819,-764 786.6151,-764 786.6151,-764 780.6151,-764 774.6151,-758 774.6151,-752 774.6151,-752 774.6151,-740 774.6151,-740 774.6151,-734 780.6151,-728 786.6151,-728 786.6151,-728 838.6819,-728 838.6819,-728 844.6819,-728 850.6819,-734 850.6819,-740 850.6819,-740 850.6819,-752 850.6819,-752 850.6819,-758 844.6819,-764 838.6819,-764"/>
<text text-anchor="middle" x="812.6485" y="-743" font-family="sans" font-size="10.00" fill="#000000">merge_b6xcast</text>
</g>
<!-- 5&#45;&gt;32 -->
<g id="edge35" class="edge">
<title>5&#45;&gt;32</title>
<path fill="none" stroke="#c0c0c0" stroke-width="2" d="M812.6485,-799.8314C812.6485,-792.131 812.6485,-782.9743 812.6485,-774.4166"/>
<polygon fill="#c0c0c0" stroke="#c0c0c0" stroke-width="2" points="816.1486,-774.4132 812.6485,-764.4133 809.1486,-774.4133 816.1486,-774.4132"/>
</g>
<!-- 6 -->
<g id="node7" class="node">
<title>6</title>
<path fill="none" stroke="#d88556" stroke-width="2" d="M544.8527,-764C544.8527,-764 328.4443,-764 328.4443,-764 322.4443,-764 316.4443,-758 316.4443,-752 316.4443,-752 316.4443,-740 316.4443,-740 316.4443,-734 322.4443,-728 328.4443,-728 328.4443,-728 544.8527,-728 544.8527,-728 550.8527,-728 556.8527,-734 556.8527,-740 556.8527,-740 556.8527,-752 556.8527,-752 556.8527,-758 550.8527,-764 544.8527,-764"/>
<text text-anchor="middle" x="436.6485" y="-749" font-family="sans" font-size="10.00" fill="#000000">gunzip_vcf</text>
<text text-anchor="middle" x="436.6485" y="-737" font-family="sans" font-size="10.00" fill="#000000">file: ../genome_data/CAST_EiJ.mgp.v5.snps.dbSNP142</text>
</g>
<!-- 6&#45;&gt;4 -->
<g id="edge8" class="edge">
<title>6&#45;&gt;4</title>
<path fill="none" stroke="#c0c0c0" stroke-width="2" d="M380.1619,-727.9243C349.1356,-717.9959 310.4782,-705.6255 278.0179,-695.2382"/>
<polygon fill="#c0c0c0" stroke="#c0c0c0" stroke-width="2" points="278.7493,-691.7975 268.1583,-692.0831 276.6158,-698.4645 278.7493,-691.7975"/>
</g>
<!-- 34 -->
<g id="node35" class="node">
<title>34</title>
<path fill="none" stroke="#d8a456" stroke-width="2" d="M483.2355,-692C483.2355,-692 390.0615,-692 390.0615,-692 384.0615,-692 378.0615,-686 378.0615,-680 378.0615,-680 378.0615,-668 378.0615,-668 378.0615,-662 384.0615,-656 390.0615,-656 390.0615,-656 483.2355,-656 483.2355,-656 489.2355,-656 495.2355,-662 495.2355,-668 495.2355,-668 495.2355,-680 495.2355,-680 495.2355,-686 489.2355,-692 483.2355,-692"/>
<text text-anchor="middle" x="436.6485" y="-677" font-family="sans" font-size="10.00" fill="#000000">mask_with_cast_genome</text>
<text text-anchor="middle" x="436.6485" y="-665" font-family="sans" font-size="10.00" fill="#000000">genome: GRCm38_90</text>
</g>
<!-- 6&#45;&gt;34 -->
<g id="edge43" class="edge">
<title>6&#45;&gt;34</title>
<path fill="none" stroke="#c0c0c0" stroke-width="2" d="M436.6485,-727.8314C436.6485,-720.131 436.6485,-710.9743 436.6485,-702.4166"/>
<polygon fill="#c0c0c0" stroke="#c0c0c0" stroke-width="2" points="440.1486,-702.4132 436.6485,-692.4133 433.1486,-702.4133 440.1486,-702.4132"/>
</g>
<!-- 7 -->
<g id="node8" class="node">
<title>7</title>
<path fill="none" stroke="#56d892" stroke-width="2" d="M331.7825,-180C331.7825,-180 125.5145,-180 125.5145,-180 119.5145,-180 113.5145,-174 113.5145,-168 113.5145,-168 113.5145,-156 113.5145,-156 113.5145,-150 119.5145,-144 125.5145,-144 125.5145,-144 331.7825,-144 331.7825,-144 337.7825,-144 343.7825,-150 343.7825,-156 343.7825,-156 343.7825,-168 343.7825,-168 343.7825,-174 337.7825,-180 331.7825,-180"/>
<text text-anchor="middle" x="228.6485" y="-165" font-family="sans" font-size="10.00" fill="#000000">gunzip_gtf</text>
<text text-anchor="middle" x="228.6485" y="-153" font-family="sans" font-size="10.00" fill="#000000">file: ../genome_data/Mus_musculus.GRCm38_90.chr</text>
</g>
<!-- 7&#45;&gt;3 -->
<g id="edge7" class="edge">
<title>7&#45;&gt;3</title>
<path fill="none" stroke="#c0c0c0" stroke-width="2" d="M229.6579,-143.8314C230.0857,-136.131 230.5944,-126.9743 231.0698,-118.4166"/>
<polygon fill="#c0c0c0" stroke="#c0c0c0" stroke-width="2" points="234.5654,-118.592 231.6255,-108.4133 227.5761,-118.2037 234.5654,-118.592"/>
</g>
<!-- 8 -->
<g id="node9" class="node">
<title>8</title>
<path fill="none" stroke="#569ad8" stroke-width="2" d="M237.8039,-548C237.8039,-548 129.4931,-548 129.4931,-548 123.4931,-548 117.4931,-542 117.4931,-536 117.4931,-536 117.4931,-524 117.4931,-524 117.4931,-518 123.4931,-512 129.4931,-512 129.4931,-512 237.8039,-512 237.8039,-512 243.8039,-512 249.8039,-518 249.8039,-524 249.8039,-524 249.8039,-536 249.8039,-536 249.8039,-542 243.8039,-548 237.8039,-548"/>
<text text-anchor="middle" x="183.6485" y="-533" font-family="sans" font-size="10.00" fill="#000000">download_bisulfite_B6Cast1</text>
<text text-anchor="middle" x="183.6485" y="-521" font-family="sans" font-size="10.00" fill="#000000">file: 1</text>
</g>
<!-- 14 -->
<g id="node15" class="node">
<title>14</title>
<path fill="none" stroke="#56d863" stroke-width="2" d="M333.2573,-476C333.2573,-476 258.0397,-476 258.0397,-476 252.0397,-476 246.0397,-470 246.0397,-464 246.0397,-464 246.0397,-444 246.0397,-444 246.0397,-438 252.0397,-432 258.0397,-432 258.0397,-432 333.2573,-432 333.2573,-432 339.2573,-432 345.2573,-438 345.2573,-444 345.2573,-444 345.2573,-464 345.2573,-464 345.2573,-470 339.2573,-476 333.2573,-476"/>
<text text-anchor="middle" x="295.6485" y="-463" font-family="sans" font-size="10.00" fill="#000000">trim_galore</text>
<text text-anchor="middle" x="295.6485" y="-451" font-family="sans" font-size="10.00" fill="#000000">outdir: bisulfite</text>
<text text-anchor="middle" x="295.6485" y="-439" font-family="sans" font-size="10.00" fill="#000000">sample: B6CastF1_1</text>
</g>
<!-- 8&#45;&gt;14 -->
<g id="edge17" class="edge">
<title>8&#45;&gt;14</title>
<path fill="none" stroke="#c0c0c0" stroke-width="2" d="M210.1909,-511.9891C223.3851,-503.0359 239.6293,-492.0131 254.3993,-481.9905"/>
<polygon fill="#c0c0c0" stroke="#c0c0c0" stroke-width="2" points="256.5816,-484.7394 262.8911,-476.2282 252.6511,-478.9471 256.5816,-484.7394"/>
</g>
<!-- 9 -->
<g id="node10" class="node">
<title>9</title>
<path fill="none" stroke="#5692d8" stroke-width="2" d="M479.3019,-108C479.3019,-108 345.9951,-108 345.9951,-108 339.9951,-108 333.9951,-102 333.9951,-96 333.9951,-96 333.9951,-84 333.9951,-84 333.9951,-78 339.9951,-72 345.9951,-72 345.9951,-72 479.3019,-72 479.3019,-72 485.3019,-72 491.3019,-78 491.3019,-84 491.3019,-84 491.3019,-96 491.3019,-96 491.3019,-102 485.3019,-108 479.3019,-108"/>
<text text-anchor="middle" x="412.6485" y="-87" font-family="sans" font-size="10.00" fill="#000000">nanopolish_methylation_validation</text>
</g>
<!-- 9&#45;&gt;20 -->
<g id="edge23" class="edge">
<title>9&#45;&gt;20</title>
<path fill="none" stroke="#c0c0c0" stroke-width="2" d="M389.9377,-71.8314C378.8525,-62.9632 365.3531,-52.1637 353.3633,-42.5718"/>
<polygon fill="#c0c0c0" stroke="#c0c0c0" stroke-width="2" points="355.3472,-39.6768 345.352,-36.1628 350.9743,-45.1429 355.3472,-39.6768"/>
</g>
<!-- 10 -->
<g id="node11" class="node">
<title>10</title>
<path fill="none" stroke="#d86656" stroke-width="2" d="M666.0681,-908C666.0681,-908 549.2289,-908 549.2289,-908 543.2289,-908 537.2289,-902 537.2289,-896 537.2289,-896 537.2289,-884 537.2289,-884 537.2289,-878 543.2289,-872 549.2289,-872 549.2289,-872 666.0681,-872 666.0681,-872 672.0681,-872 678.0681,-878 678.0681,-884 678.0681,-884 678.0681,-896 678.0681,-896 678.0681,-902 672.0681,-908 666.0681,-908"/>
<text text-anchor="middle" x="607.6485" y="-887" font-family="sans" font-size="10.00" fill="#000000">download_fast5_b6xcast_0503</text>
</g>
<!-- 36 -->
<g id="node37" class="node">
<title>36</title>
<path fill="none" stroke="#56d88a" stroke-width="2" d="M688.6721,-836C688.6721,-836 526.6249,-836 526.6249,-836 520.6249,-836 514.6249,-830 514.6249,-824 514.6249,-824 514.6249,-812 514.6249,-812 514.6249,-806 520.6249,-800 526.6249,-800 526.6249,-800 688.6721,-800 688.6721,-800 694.6721,-800 700.6721,-806 700.6721,-812 700.6721,-812 700.6721,-824 700.6721,-824 700.6721,-830 694.6721,-836 688.6721,-836"/>
<text text-anchor="middle" x="607.6485" y="-821" font-family="sans" font-size="10.00" fill="#000000">untar</text>
<text text-anchor="middle" x="607.6485" y="-809" font-family="sans" font-size="10.00" fill="#000000">archive: 2017_05_03.b6xcast.minion.fast5</text>
</g>
<!-- 10&#45;&gt;36 -->
<g id="edge45" class="edge">
<title>10&#45;&gt;36</title>
<path fill="none" stroke="#c0c0c0" stroke-width="2" d="M607.6485,-871.8314C607.6485,-864.131 607.6485,-854.9743 607.6485,-846.4166"/>
<polygon fill="#c0c0c0" stroke="#c0c0c0" stroke-width="2" points="611.1486,-846.4132 607.6485,-836.4133 604.1486,-846.4133 611.1486,-846.4132"/>
</g>
<!-- 11 -->
<g id="node12" class="node">
<title>11</title>
<path fill="none" stroke="#569ad8" stroke-width="2" d="M388.8039,-548C388.8039,-548 280.4931,-548 280.4931,-548 274.4931,-548 268.4931,-542 268.4931,-536 268.4931,-536 268.4931,-524 268.4931,-524 268.4931,-518 274.4931,-512 280.4931,-512 280.4931,-512 388.8039,-512 388.8039,-512 394.8039,-512 400.8039,-518 400.8039,-524 400.8039,-524 400.8039,-536 400.8039,-536 400.8039,-542 394.8039,-548 388.8039,-548"/>
<text text-anchor="middle" x="334.6485" y="-533" font-family="sans" font-size="10.00" fill="#000000">download_bisulfite_B6Cast1</text>
<text text-anchor="middle" x="334.6485" y="-521" font-family="sans" font-size="10.00" fill="#000000">file: 2</text>
</g>
<!-- 11&#45;&gt;14 -->
<g id="edge16" class="edge">
<title>11&#45;&gt;14</title>
<path fill="none" stroke="#c0c0c0" stroke-width="2" d="M325.406,-511.9891C321.3269,-504.04 316.4106,-494.4594 311.7596,-485.396"/>
<polygon fill="#c0c0c0" stroke="#c0c0c0" stroke-width="2" points="314.7346,-483.5272 307.0551,-476.2282 308.5067,-486.7231 314.7346,-483.5272"/>
</g>
<!-- 12 -->
<g id="node13" class="node">
<title>12</title>
<path fill="none" stroke="#d89556" stroke-width="2" d="M314.4616,-836C314.4616,-836 186.8354,-836 186.8354,-836 180.8354,-836 174.8354,-830 174.8354,-824 174.8354,-824 174.8354,-812 174.8354,-812 174.8354,-806 180.8354,-800 186.8354,-800 186.8354,-800 314.4616,-800 314.4616,-800 320.4616,-800 326.4616,-806 326.4616,-812 326.4616,-812 326.4616,-824 326.4616,-824 326.4616,-830 320.4616,-836 314.4616,-836"/>
<text text-anchor="middle" x="250.6485" y="-821" font-family="sans" font-size="10.00" fill="#000000">gunzip_fa</text>
<text text-anchor="middle" x="250.6485" y="-809" font-family="sans" font-size="10.00" fill="#000000">file: ../genome_data/GRCm38_90</text>
</g>
<!-- 22 -->
<g id="node23" class="node">
<title>22</title>
<path fill="none" stroke="#56d8a9" stroke-width="2" d="M248.8457,-764C248.8457,-764 174.4513,-764 174.4513,-764 168.4513,-764 162.4513,-758 162.4513,-752 162.4513,-752 162.4513,-740 162.4513,-740 162.4513,-734 168.4513,-728 174.4513,-728 174.4513,-728 248.8457,-728 248.8457,-728 254.8457,-728 260.8457,-734 260.8457,-740 260.8457,-740 260.8457,-752 260.8457,-752 260.8457,-758 254.8457,-764 248.8457,-764"/>
<text text-anchor="middle" x="211.6485" y="-743" font-family="sans" font-size="10.00" fill="#000000">snpsplit_create_path</text>
</g>
<!-- 12&#45;&gt;22 -->
<g id="edge25" class="edge">
<title>12&#45;&gt;22</title>
<path fill="none" stroke="#c0c0c0" stroke-width="2" d="M240.8072,-799.8314C236.4528,-791.7925 231.2387,-782.1666 226.4316,-773.2918"/>
<polygon fill="#c0c0c0" stroke="#c0c0c0" stroke-width="2" points="229.4628,-771.5392 221.6224,-764.4133 223.3077,-774.8732 229.4628,-771.5392"/>
</g>
<!-- 12&#45;&gt;34 -->
<g id="edge44" class="edge">
<title>12&#45;&gt;34</title>
<path fill="none" stroke="#c0c0c0" stroke-width="2" d="M258.1329,-799.7957C267.1894,-779.7713 284.1928,-747.81 307.6485,-728 325.1813,-713.1923 347.3536,-701.9576 368.3491,-693.6762"/>
<polygon fill="#c0c0c0" stroke="#c0c0c0" stroke-width="2" points="369.7706,-696.8807 377.8919,-690.0767 367.3001,-690.3312 369.7706,-696.8807"/>
</g>
<!-- 13 -->
<g id="node14" class="node">
<title>13</title>
<path fill="none" stroke="#568ad8" stroke-width="2" d="M773.3497,-692C773.3497,-692 713.9473,-692 713.9473,-692 707.9473,-692 701.9473,-686 701.9473,-680 701.9473,-680 701.9473,-668 701.9473,-668 701.9473,-662 707.9473,-656 713.9473,-656 713.9473,-656 773.3497,-656 773.3497,-656 779.3497,-656 785.3497,-662 785.3497,-668 785.3497,-668 785.3497,-680 785.3497,-680 785.3497,-686 779.3497,-692 773.3497,-692"/>
<text text-anchor="middle" x="743.6485" y="-677" font-family="sans" font-size="10.00" fill="#000000">albacore_minion</text>
<text text-anchor="middle" x="743.6485" y="-665" font-family="sans" font-size="10.00" fill="#000000">sample: b6xcast</text>
</g>
<!-- 26 -->
<g id="node27" class="node">
<title>26</title>
<path fill="none" stroke="#9fd856" stroke-width="2" d="M781.1355,-620C781.1355,-620 694.1615,-620 694.1615,-620 688.1615,-620 682.1615,-614 682.1615,-608 682.1615,-608 682.1615,-596 682.1615,-596 682.1615,-590 688.1615,-584 694.1615,-584 694.1615,-584 781.1355,-584 781.1355,-584 787.1355,-584 793.1355,-590 793.1355,-596 793.1355,-596 793.1355,-608 793.1355,-608 793.1355,-614 787.1355,-620 781.1355,-620"/>
<text text-anchor="middle" x="737.6485" y="-605" font-family="sans" font-size="10.00" fill="#000000">albacore_merge_output</text>
<text text-anchor="middle" x="737.6485" y="-593" font-family="sans" font-size="10.00" fill="#000000">sample: b6xcast.minion</text>
</g>
<!-- 13&#45;&gt;26 -->
<g id="edge29" class="edge">
<title>13&#45;&gt;26</title>
<path fill="none" stroke="#c0c0c0" stroke-width="2" d="M742.1344,-655.8314C741.4927,-648.131 740.7297,-638.9743 740.0166,-630.4166"/>
<polygon fill="#c0c0c0" stroke="#c0c0c0" stroke-width="2" points="743.5014,-630.088 739.1829,-620.4133 736.5256,-630.6694 743.5014,-630.088"/>
</g>
<!-- 24 -->
<g id="node25" class="node">
<title>24</title>
<path fill="none" stroke="#b6d856" stroke-width="2" d="M320.3608,-396C320.3608,-396 270.9362,-396 270.9362,-396 264.9362,-396 258.9362,-390 258.9362,-384 258.9362,-384 258.9362,-372 258.9362,-372 258.9362,-366 264.9362,-360 270.9362,-360 270.9362,-360 320.3608,-360 320.3608,-360 326.3608,-360 332.3608,-366 332.3608,-372 332.3608,-372 332.3608,-384 332.3608,-384 332.3608,-390 326.3608,-396 320.3608,-396"/>
<text text-anchor="middle" x="295.6485" y="-375" font-family="sans" font-size="10.00" fill="#000000">bismark_align</text>
</g>
<!-- 14&#45;&gt;24 -->
<g id="edge28" class="edge">
<title>14&#45;&gt;24</title>
<path fill="none" stroke="#c0c0c0" stroke-width="2" d="M295.6485,-431.6086C295.6485,-423.7272 295.6485,-414.7616 295.6485,-406.4482"/>
<polygon fill="#c0c0c0" stroke="#c0c0c0" stroke-width="2" points="299.1486,-406.3974 295.6485,-396.3975 292.1486,-406.3975 299.1486,-406.3974"/>
</g>
<!-- 15 -->
<g id="node16" class="node">
<title>15</title>
<path fill="none" stroke="#9fd856" stroke-width="2" d="M252.1949,-252C252.1949,-252 205.1021,-252 205.1021,-252 199.1021,-252 193.1021,-246 193.1021,-240 193.1021,-240 193.1021,-228 193.1021,-228 193.1021,-222 199.1021,-216 205.1021,-216 205.1021,-216 252.1949,-216 252.1949,-216 258.1949,-216 264.1949,-222 264.1949,-228 264.1949,-228 264.1949,-240 264.1949,-240 264.1949,-246 258.1949,-252 252.1949,-252"/>
<text text-anchor="middle" x="228.6485" y="-231" font-family="sans" font-size="10.00" fill="#000000">download_gtf</text>
</g>
<!-- 15&#45;&gt;7 -->
<g id="edge12" class="edge">
<title>15&#45;&gt;7</title>
<path fill="none" stroke="#c0c0c0" stroke-width="2" d="M228.6485,-215.8314C228.6485,-208.131 228.6485,-198.9743 228.6485,-190.4166"/>
<polygon fill="#c0c0c0" stroke="#c0c0c0" stroke-width="2" points="232.1486,-190.4132 228.6485,-180.4133 225.1486,-190.4133 232.1486,-190.4132"/>
</g>
<!-- 16 -->
<g id="node17" class="node">
<title>16</title>
<path fill="none" stroke="#80d856" stroke-width="2" d="M871.0681,-908C871.0681,-908 754.2289,-908 754.2289,-908 748.2289,-908 742.2289,-902 742.2289,-896 742.2289,-896 742.2289,-884 742.2289,-884 742.2289,-878 748.2289,-872 754.2289,-872 754.2289,-872 871.0681,-872 871.0681,-872 877.0681,-872 883.0681,-878 883.0681,-884 883.0681,-884 883.0681,-896 883.0681,-896 883.0681,-902 877.0681,-908 871.0681,-908"/>
<text text-anchor="middle" x="812.6485" y="-887" font-family="sans" font-size="10.00" fill="#000000">download_fast5_b6xcast_0512</text>
</g>
<!-- 16&#45;&gt;5 -->
<g id="edge10" class="edge">
<title>16&#45;&gt;5</title>
<path fill="none" stroke="#c0c0c0" stroke-width="2" d="M812.6485,-871.8314C812.6485,-864.131 812.6485,-854.9743 812.6485,-846.4166"/>
<polygon fill="#c0c0c0" stroke="#c0c0c0" stroke-width="2" points="816.1486,-846.4132 812.6485,-836.4133 809.1486,-846.4133 816.1486,-846.4132"/>
</g>
<!-- 17 -->
<g id="node18" class="node">
<title>17</title>
<path fill="none" stroke="#56d87b" stroke-width="2" d="M614.5225,-620C614.5225,-620 468.7745,-620 468.7745,-620 462.7745,-620 456.7745,-614 456.7745,-608 456.7745,-608 456.7745,-596 456.7745,-596 456.7745,-590 462.7745,-584 468.7745,-584 468.7745,-584 614.5225,-584 614.5225,-584 620.5225,-584 626.5225,-590 626.5225,-596 626.5225,-596 626.5225,-608 626.5225,-608 626.5225,-614 620.5225,-620 614.5225,-620"/>
<text text-anchor="middle" x="541.6485" y="-605" font-family="sans" font-size="10.00" fill="#000000">bwa_index</text>
<text text-anchor="middle" x="541.6485" y="-593" font-family="sans" font-size="10.00" fill="#000000">genome: GRCm38_90.CAST_masked</text>
</g>
<!-- 17&#45;&gt;0 -->
<g id="edge1" class="edge">
<title>17&#45;&gt;0</title>
<path fill="none" stroke="#c0c0c0" stroke-width="2" d="M568.1444,-583.8314C581.3259,-574.7927 597.4332,-563.7476 611.6196,-554.0198"/>
<polygon fill="#c0c0c0" stroke="#c0c0c0" stroke-width="2" points="613.8931,-556.7047 620.161,-548.1628 609.9344,-550.9316 613.8931,-556.7047"/>
</g>
<!-- 18&#45;&gt;3 -->
<g id="edge6" class="edge">
<title>18&#45;&gt;3</title>
<path fill="none" stroke="#c0c0c0" stroke-width="2" d="M367.2269,-143.8314C342.939,-134.1162 312.8563,-122.0831 287.2965,-111.8592"/>
<polygon fill="#c0c0c0" stroke="#c0c0c0" stroke-width="2" points="288.3281,-108.5023 277.7435,-108.038 285.7284,-115.0016 288.3281,-108.5023"/>
</g>
<!-- 18&#45;&gt;9 -->
<g id="edge13" class="edge">
<title>18&#45;&gt;9</title>
<path fill="none" stroke="#c0c0c0" stroke-width="2" d="M412.6485,-143.8314C412.6485,-136.131 412.6485,-126.9743 412.6485,-118.4166"/>
<polygon fill="#c0c0c0" stroke="#c0c0c0" stroke-width="2" points="416.1486,-118.4132 412.6485,-108.4133 409.1486,-118.4133 416.1486,-118.4132"/>
</g>
<!-- 19 -->
<g id="node20" class="node">
<title>19</title>
<path fill="none" stroke="#56d88a" stroke-width="2" d="M1098.6721,-836C1098.6721,-836 936.6249,-836 936.6249,-836 930.6249,-836 924.6249,-830 924.6249,-824 924.6249,-824 924.6249,-812 924.6249,-812 924.6249,-806 930.6249,-800 936.6249,-800 936.6249,-800 1098.6721,-800 1098.6721,-800 1104.6721,-800 1110.6721,-806 1110.6721,-812 1110.6721,-812 1110.6721,-824 1110.6721,-824 1110.6721,-830 1104.6721,-836 1098.6721,-836"/>
<text text-anchor="middle" x="1017.6485" y="-821" font-family="sans" font-size="10.00" fill="#000000">untar</text>
<text text-anchor="middle" x="1017.6485" y="-809" font-family="sans" font-size="10.00" fill="#000000">archive: 2017_05_25.b6xcast.minion.fast5</text>
</g>
<!-- 19&#45;&gt;32 -->
<g id="edge36" class="edge">
<title>19&#45;&gt;32</title>
<path fill="none" stroke="#c0c0c0" stroke-width="2" d="M966.183,-799.9243C933.7227,-788.5236 892.0946,-773.903 860.3751,-762.7625"/>
<polygon fill="#c0c0c0" stroke="#c0c0c0" stroke-width="2" points="861.4652,-759.4358 850.8703,-759.4243 859.1455,-766.0403 861.4652,-759.4358"/>
</g>
<!-- 27 -->
<g id="node28" class="node">
<title>27</title>
<path fill="none" stroke="#56d0d8" stroke-width="2" d="M87.4459,-548C87.4459,-548 11.8511,-548 11.8511,-548 5.8511,-548 -.1489,-542 -.1489,-536 -.1489,-536 -.1489,-524 -.1489,-524 -.1489,-518 5.8511,-512 11.8511,-512 11.8511,-512 87.4459,-512 87.4459,-512 93.4459,-512 99.4459,-518 99.4459,-524 99.4459,-524 99.4459,-536 99.4459,-536 99.4459,-542 93.4459,-548 87.4459,-548"/>
<text text-anchor="middle" x="49.6485" y="-527" font-family="sans" font-size="10.00" fill="#000000">bismark_create_path</text>
</g>
<!-- 21&#45;&gt;27 -->
<g id="edge30" class="edge">
<title>21&#45;&gt;27</title>
<path fill="none" stroke="#c0c0c0" stroke-width="2" d="M101.2369,-583.8314C93.1275,-575.3694 83.3329,-565.1489 74.4665,-555.8971"/>
<polygon fill="#c0c0c0" stroke="#c0c0c0" stroke-width="2" points="76.7406,-553.2115 67.2945,-548.4133 71.6867,-558.0549 76.7406,-553.2115"/>
</g>
<!-- 22&#45;&gt;4 -->
<g id="edge9" class="edge">
<title>22&#45;&gt;4</title>
<path fill="none" stroke="#c0c0c0" stroke-width="2" d="M211.6485,-727.8314C211.6485,-720.131 211.6485,-710.9743 211.6485,-702.4166"/>
<polygon fill="#c0c0c0" stroke="#c0c0c0" stroke-width="2" points="215.1486,-702.4132 211.6485,-692.4133 208.1486,-702.4133 215.1486,-702.4132"/>
</g>
<!-- 23 -->
<g id="node24" class="node">
<title>23</title>
<path fill="none" stroke="#56a2d8" stroke-width="2" d="M606.4288,-324C606.4288,-324 480.8682,-324 480.8682,-324 474.8682,-324 468.8682,-318 468.8682,-312 468.8682,-312 468.8682,-300 468.8682,-300 468.8682,-294 474.8682,-288 480.8682,-288 480.8682,-288 606.4288,-288 606.4288,-288 612.4288,-288 618.4288,-294 618.4288,-300 618.4288,-300 618.4288,-312 618.4288,-312 618.4288,-318 612.4288,-324 606.4288,-324"/>
<text text-anchor="middle" x="543.6485" y="-303" font-family="sans" font-size="10.00" fill="#000000">calculate_methylation_frequency</text>
</g>
<!-- 23&#45;&gt;18 -->
<g id="edge20" class="edge">
<title>23&#45;&gt;18</title>
<path fill="none" stroke="#c0c0c0" stroke-width="2" d="M527.0573,-287.7623C504.0243,-262.4436 462.2449,-216.5182 436.0512,-187.7251"/>
<polygon fill="#c0c0c0" stroke="#c0c0c0" stroke-width="2" points="438.4233,-185.1315 429.105,-180.0896 433.2454,-189.842 438.4233,-185.1315"/>
</g>
<!-- 30 -->
<g id="node31" class="node">
<title>30</title>
<path fill="none" stroke="#a7d856" stroke-width="2" d="M394.6955,-324C394.6955,-324 304.6015,-324 304.6015,-324 298.6015,-324 292.6015,-318 292.6015,-312 292.6015,-312 292.6015,-300 292.6015,-300 292.6015,-294 298.6015,-288 304.6015,-288 304.6015,-288 394.6955,-288 394.6955,-288 400.6955,-288 406.6955,-294 406.6955,-300 406.6955,-300 406.6955,-312 406.6955,-312 406.6955,-318 400.6955,-324 394.6955,-324"/>
<text text-anchor="middle" x="349.6485" y="-309" font-family="sans" font-size="10.00" fill="#000000">bismark_extract</text>
<text text-anchor="middle" x="349.6485" y="-297" font-family="sans" font-size="10.00" fill="#000000">sample: B6CastF1_1_pe</text>
</g>
<!-- 24&#45;&gt;30 -->
<g id="edge32" class="edge">
<title>24&#45;&gt;30</title>
<path fill="none" stroke="#c0c0c0" stroke-width="2" d="M309.275,-359.8314C315.4945,-351.5386 322.9807,-341.557 329.8085,-332.4533"/>
<polygon fill="#c0c0c0" stroke="#c0c0c0" stroke-width="2" points="332.6385,-334.5133 335.8385,-324.4133 327.0385,-330.3133 332.6385,-334.5133"/>
</g>
<!-- 25 -->
<g id="node26" class="node">
<title>25</title>
<path fill="none" stroke="#70d856" stroke-width="2" d="M1076.0681,-908C1076.0681,-908 959.2289,-908 959.2289,-908 953.2289,-908 947.2289,-902 947.2289,-896 947.2289,-896 947.2289,-884 947.2289,-884 947.2289,-878 953.2289,-872 959.2289,-872 959.2289,-872 1076.0681,-872 1076.0681,-872 1082.0681,-872 1088.0681,-878 1088.0681,-884 1088.0681,-884 1088.0681,-896 1088.0681,-896 1088.0681,-902 1082.0681,-908 1076.0681,-908"/>
<text text-anchor="middle" x="1017.6485" y="-887" font-family="sans" font-size="10.00" fill="#000000">download_fast5_b6xcast_0525</text>
</g>
<!-- 25&#45;&gt;19 -->
<g id="edge21" class="edge">
<title>25&#45;&gt;19</title>
<path fill="none" stroke="#c0c0c0" stroke-width="2" d="M1017.6485,-871.8314C1017.6485,-864.131 1017.6485,-854.9743 1017.6485,-846.4166"/>
<polygon fill="#c0c0c0" stroke="#c0c0c0" stroke-width="2" points="1021.1486,-846.4132 1017.6485,-836.4133 1014.1486,-846.4133 1021.1486,-846.4132"/>
</g>
<!-- 26&#45;&gt;0 -->
<g id="edge3" class="edge">
<title>26&#45;&gt;0</title>
<path fill="none" stroke="#c0c0c0" stroke-width="2" d="M714.6854,-583.8314C703.477,-574.9632 689.8276,-564.1637 677.7046,-554.5718"/>
<polygon fill="#c0c0c0" stroke="#c0c0c0" stroke-width="2" points="679.6182,-551.6229 669.6043,-548.1628 675.2748,-557.1125 679.6182,-551.6229"/>
</g>
<!-- 31 -->
<g id="node32" class="node">
<title>31</title>
<path fill="none" stroke="#d8b456" stroke-width="2" d="M819.2526,-548C819.2526,-548 756.0444,-548 756.0444,-548 750.0444,-548 744.0444,-542 744.0444,-536 744.0444,-536 744.0444,-524 744.0444,-524 744.0444,-518 750.0444,-512 756.0444,-512 756.0444,-512 819.2526,-512 819.2526,-512 825.2526,-512 831.2526,-518 831.2526,-524 831.2526,-524 831.2526,-536 831.2526,-536 831.2526,-542 825.2526,-548 819.2526,-548"/>
<text text-anchor="middle" x="787.6485" y="-527" font-family="sans" font-size="10.00" fill="#000000">nanopolish_index</text>
</g>
<!-- 26&#45;&gt;31 -->
<g id="edge34" class="edge">
<title>26&#45;&gt;31</title>
<path fill="none" stroke="#c0c0c0" stroke-width="2" d="M750.2656,-583.8314C755.9657,-575.6232 762.8148,-565.7606 769.0844,-556.7323"/>
<polygon fill="#c0c0c0" stroke="#c0c0c0" stroke-width="2" points="772.0323,-558.6234 774.8615,-548.4133 766.2827,-554.6306 772.0323,-558.6234"/>
</g>
<!-- 26&#45;&gt;33 -->
<g id="edge42" class="edge">
<title>26&#45;&gt;33</title>
<path fill="none" stroke="#c0c0c0" stroke-width="2" d="M732.1353,-583.9532C721.7082,-551.5671 696.9371,-482.2767 661.6485,-432 654.3136,-421.5498 644.7599,-411.4542 635.6261,-402.8762"/>
<polygon fill="#c0c0c0" stroke="#c0c0c0" stroke-width="2" points="637.867,-400.1834 628.1104,-396.0532 633.1619,-405.3663 637.867,-400.1834"/>
</g>
<!-- 29 -->
<g id="node30" class="node">
<title>29</title>
<path fill="none" stroke="#56d88a" stroke-width="2" d="M137.4956,-472C137.4956,-472 41.8014,-472 41.8014,-472 35.8014,-472 29.8014,-466 29.8014,-460 29.8014,-460 29.8014,-448 29.8014,-448 29.8014,-442 35.8014,-436 41.8014,-436 41.8014,-436 137.4956,-436 137.4956,-436 143.4956,-436 149.4956,-442 149.4956,-448 149.4956,-448 149.4956,-460 149.4956,-460 149.4956,-466 143.4956,-472 137.4956,-472"/>
<text text-anchor="middle" x="89.6485" y="-451" font-family="sans" font-size="10.00" fill="#000000">bismark_prepare_genome</text>
</g>
<!-- 27&#45;&gt;29 -->
<g id="edge31" class="edge">
<title>27&#45;&gt;29</title>
<path fill="none" stroke="#c0c0c0" stroke-width="2" d="M59.1279,-511.9891C63.9744,-502.7807 69.9732,-491.3831 75.3663,-481.1362"/>
<polygon fill="#c0c0c0" stroke="#c0c0c0" stroke-width="2" points="78.5382,-482.6244 80.0985,-472.145 72.3437,-479.3641 78.5382,-482.6244"/>
</g>
<!-- 28 -->
<g id="node29" class="node">
<title>28</title>
<path fill="none" stroke="#56d882" stroke-width="2" d="M292.9118,-908C292.9118,-908 208.3852,-908 208.3852,-908 202.3852,-908 196.3852,-902 196.3852,-896 196.3852,-896 196.3852,-884 196.3852,-884 196.3852,-878 202.3852,-872 208.3852,-872 208.3852,-872 292.9118,-872 292.9118,-872 298.9118,-872 304.9118,-878 304.9118,-884 304.9118,-884 304.9118,-896 304.9118,-896 304.9118,-902 298.9118,-908 292.9118,-908"/>
<text text-anchor="middle" x="250.6485" y="-887" font-family="sans" font-size="10.00" fill="#000000">download_B6_genome</text>
</g>
<!-- 28&#45;&gt;12 -->
<g id="edge14" class="edge">
<title>28&#45;&gt;12</title>
<path fill="none" stroke="#c0c0c0" stroke-width="2" d="M250.6485,-871.8314C250.6485,-864.131 250.6485,-854.9743 250.6485,-846.4166"/>
<polygon fill="#c0c0c0" stroke="#c0c0c0" stroke-width="2" points="254.1486,-846.4132 250.6485,-836.4133 247.1486,-846.4133 254.1486,-846.4132"/>
</g>
<!-- 29&#45;&gt;24 -->
<g id="edge27" class="edge">
<title>29&#45;&gt;24</title>
<path fill="none" stroke="#c0c0c0" stroke-width="2" d="M138.4676,-435.9891C172.0372,-423.6042 216.3409,-407.2591 249.3539,-395.0796"/>
<polygon fill="#c0c0c0" stroke="#c0c0c0" stroke-width="2" points="250.6086,-398.3473 258.779,-391.6023 248.1856,-391.78 250.6086,-398.3473"/>
</g>
<!-- 30&#45;&gt;2 -->
<g id="edge5" class="edge">
<title>30&#45;&gt;2</title>
<path fill="none" stroke="#c0c0c0" stroke-width="2" d="M356.4617,-287.8314C359.4129,-279.9617 362.9343,-270.5712 366.2035,-261.8533"/>
<polygon fill="#c0c0c0" stroke="#c0c0c0" stroke-width="2" points="369.5094,-263.0055 369.7435,-252.4133 362.9551,-260.5476 369.5094,-263.0055"/>
</g>
<!-- 31&#45;&gt;33 -->
<g id="edge40" class="edge">
<title>31&#45;&gt;33</title>
<path fill="none" stroke="#c0c0c0" stroke-width="2" d="M780.9377,-511.7851C772.149,-490.1661 754.8373,-454.2514 729.6485,-432 713.0136,-417.305 691.7565,-406.0996 671.5588,-397.8102"/>
<polygon fill="#c0c0c0" stroke="#c0c0c0" stroke-width="2" points="672.6525,-394.4797 662.0649,-394.089 670.098,-400.997 672.6525,-394.4797"/>
</g>
<!-- 32&#45;&gt;13 -->
<g id="edge15" class="edge">
<title>32&#45;&gt;13</title>
<path fill="none" stroke="#c0c0c0" stroke-width="2" d="M795.2369,-727.8314C787.1275,-719.3694 777.3329,-709.1489 768.4665,-699.8971"/>
<polygon fill="#c0c0c0" stroke="#c0c0c0" stroke-width="2" points="770.7406,-697.2115 761.2945,-692.4133 765.6867,-702.0549 770.7406,-697.2115"/>
</g>
<!-- 32&#45;&gt;31 -->
<g id="edge33" class="edge">
<title>32&#45;&gt;31</title>
<path fill="none" stroke="#c0c0c0" stroke-width="2" d="M812.5132,-727.896C812.0445,-697.8233 810.0401,-635.7571 801.6485,-584 800.2753,-575.5303 798.1758,-566.4556 796.0172,-558.209"/>
<polygon fill="#c0c0c0" stroke="#c0c0c0" stroke-width="2" points="799.3235,-557.031 793.3016,-548.3139 792.5731,-558.8837 799.3235,-557.031"/>
</g>
<!-- 33&#45;&gt;23 -->
<g id="edge26" class="edge">
<title>33&#45;&gt;23</title>
<path fill="none" stroke="#c0c0c0" stroke-width="2" d="M590.0033,-359.8314C582.7894,-351.454 574.0915,-341.3531 566.188,-332.1749"/>
<polygon fill="#c0c0c0" stroke="#c0c0c0" stroke-width="2" points="568.6818,-329.7071 559.5044,-324.4133 563.3774,-334.2748 568.6818,-329.7071"/>
</g>
<!-- 34&#45;&gt;0 -->
<g id="edge2" class="edge">
<title>34&#45;&gt;0</title>
<path fill="none" stroke="#c0c0c0" stroke-width="2" d="M495.6532,-665.3803C547.4715,-656.5425 617.3691,-641.1075 635.6485,-620 650.082,-603.3335 652.0145,-577.9636 650.8046,-558.4028"/>
<polygon fill="#c0c0c0" stroke="#c0c0c0" stroke-width="2" points="654.2698,-557.8629 649.8686,-548.2255 647.2993,-558.5041 654.2698,-557.8629"/>
</g>
<!-- 34&#45;&gt;17 -->
<g id="edge18" class="edge">
<title>34&#45;&gt;17</title>
<path fill="none" stroke="#c0c0c0" stroke-width="2" d="M463.1444,-655.8314C476.3259,-646.7927 492.4332,-635.7476 506.6196,-626.0198"/>
<polygon fill="#c0c0c0" stroke="#c0c0c0" stroke-width="2" points="508.8931,-628.7047 515.161,-620.1628 504.9344,-622.9316 508.8931,-628.7047"/>
</g>
<!-- 34&#45;&gt;33 -->
<g id="edge41" class="edge">
<title>34&#45;&gt;33</title>
<path fill="none" stroke="#c0c0c0" stroke-width="2" d="M432.0813,-655.9226C422.213,-612.3308 403.7522,-500.0124 455.6485,-432 466.4681,-417.8205 504.4125,-404.2314 539.4275,-394.2322"/>
<polygon fill="#c0c0c0" stroke="#c0c0c0" stroke-width="2" points="540.507,-397.5649 549.2009,-391.5096 538.6284,-390.8216 540.507,-397.5649"/>
</g>
<!-- 35 -->
<g id="node36" class="node">
<title>35</title>
<path fill="none" stroke="#56d873" stroke-width="2" d="M467.9757,-836C467.9757,-836 405.3213,-836 405.3213,-836 399.3213,-836 393.3213,-830 393.3213,-824 393.3213,-824 393.3213,-812 393.3213,-812 393.3213,-806 399.3213,-800 405.3213,-800 405.3213,-800 467.9757,-800 467.9757,-800 473.9757,-800 479.9757,-806 479.9757,-812 479.9757,-812 479.9757,-824 479.9757,-824 479.9757,-830 473.9757,-836 467.9757,-836"/>
<text text-anchor="middle" x="436.6485" y="-821" font-family="sans" font-size="10.00" fill="#000000">download_vcf</text>
<text text-anchor="middle" x="436.6485" y="-809" font-family="sans" font-size="10.00" fill="#000000">strain: CAST_EiJ</text>
</g>
<!-- 35&#45;&gt;6 -->
<g id="edge11" class="edge">
<title>35&#45;&gt;6</title>
<path fill="none" stroke="#c0c0c0" stroke-width="2" d="M436.6485,-799.8314C436.6485,-792.131 436.6485,-782.9743 436.6485,-774.4166"/>
<polygon fill="#c0c0c0" stroke="#c0c0c0" stroke-width="2" points="440.1486,-774.4132 436.6485,-764.4133 433.1486,-774.4133 440.1486,-774.4132"/>
</g>
<!-- 36&#45;&gt;32 -->
<g id="edge37" class="edge">
<title>36&#45;&gt;32</title>
<path fill="none" stroke="#c0c0c0" stroke-width="2" d="M659.114,-799.9243C691.5743,-788.5236 733.2024,-773.903 764.9219,-762.7625"/>
<polygon fill="#c0c0c0" stroke="#c0c0c0" stroke-width="2" points="766.1515,-766.0403 774.4267,-759.4243 763.8318,-759.4358 766.1515,-766.0403"/>
</g>
</g>
</svg>
