<?xml version="1.0" encoding="UTF-8" standalone="no"?>
<!DOCTYPE svg PUBLIC "-//W3C//DTD SVG 1.1//EN"
 "http://www.w3.org/Graphics/SVG/1.1/DTD/svg11.dtd">
<!-- Generated by graphviz version 2.40.1 (20161225.0304)
 -->
<!-- Title: snakemake_dag Pages: 1 -->
<svg width="3074pt" height="700pt"
 viewBox="0.00 0.00 3073.68 700.00" xmlns="http://www.w3.org/2000/svg" xmlns:xlink="http://www.w3.org/1999/xlink">
<g id="graph0" class="graph" transform="scale(1 1) rotate(0) translate(4 696)">
<title>snakemake_dag</title>
<polygon fill="#ffffff" stroke="transparent" points="-4,4 -4,-696 3069.6775,-696 3069.6775,4 -4,4"/>
<!-- 0 -->
<g id="node1" class="node">
<title>0</title>
<path fill="none" stroke="#afd856" stroke-width="2" d="M1845.1895,-180C1845.1895,-180 1788.1875,-180 1788.1875,-180 1782.1875,-180 1776.1875,-174 1776.1875,-168 1776.1875,-168 1776.1875,-156 1776.1875,-156 1776.1875,-150 1782.1875,-144 1788.1875,-144 1788.1875,-144 1845.1895,-144 1845.1895,-144 1851.1895,-144 1857.1895,-150 1857.1895,-156 1857.1895,-156 1857.1895,-168 1857.1895,-168 1857.1895,-174 1851.1895,-180 1845.1895,-180"/>
<text text-anchor="middle" x="1816.6885" y="-159" font-family="sans" font-size="10.00" fill="#000000">snp_split_hisat2</text>
</g>
<!-- 2 -->
<g id="node3" class="node">
<title>2</title>
<path fill="none" stroke="#d8cb56" stroke-width="2" d="M1530.2174,-108C1530.2174,-108 1433.1596,-108 1433.1596,-108 1427.1596,-108 1421.1596,-102 1421.1596,-96 1421.1596,-96 1421.1596,-84 1421.1596,-84 1421.1596,-78 1427.1596,-72 1433.1596,-72 1433.1596,-72 1530.2174,-72 1530.2174,-72 1536.2174,-72 1542.2174,-78 1542.2174,-84 1542.2174,-84 1542.2174,-96 1542.2174,-96 1542.2174,-102 1536.2174,-108 1530.2174,-108"/>
<text text-anchor="middle" x="1481.6885" y="-87" font-family="sans" font-size="10.00" fill="#000000">rnaseq_analysis_notebook</text>
</g>
<!-- 0&#45;&gt;2 -->
<g id="edge7" class="edge">
<title>0&#45;&gt;2</title>
<path fill="none" stroke="#c0c0c0" stroke-width="2" d="M1775.9458,-153.2434C1720.4667,-141.3195 1620.308,-119.7928 1552.4233,-105.2027"/>
<polygon fill="#c0c0c0" stroke="#c0c0c0" stroke-width="2" points="1552.7465,-101.6923 1542.2343,-103.0128 1551.2756,-108.536 1552.7465,-101.6923"/>
</g>
<!-- 1 -->
<g id="node2" class="node">
<title>1</title>
<path fill="none" stroke="#56d863" stroke-width="2" d="M2539.2973,-324C2539.2973,-324 2464.0797,-324 2464.0797,-324 2458.0797,-324 2452.0797,-318 2452.0797,-312 2452.0797,-312 2452.0797,-300 2452.0797,-300 2452.0797,-294 2458.0797,-288 2464.0797,-288 2464.0797,-288 2539.2973,-288 2539.2973,-288 2545.2973,-288 2551.2973,-294 2551.2973,-300 2551.2973,-300 2551.2973,-312 2551.2973,-312 2551.2973,-318 2545.2973,-324 2539.2973,-324"/>
<text text-anchor="middle" x="2501.6885" y="-309" font-family="sans" font-size="10.00" fill="#000000">trim_galore</text>
<text text-anchor="middle" x="2501.6885" y="-297" font-family="sans" font-size="10.00" fill="#000000">sample: CastB6F1_4</text>
</g>
<!-- 41 -->
<g id="node42" class="node">
<title>41</title>
<path fill="none" stroke="#56d0d8" stroke-width="2" d="M1835.7926,-252C1835.7926,-252 1797.5844,-252 1797.5844,-252 1791.5844,-252 1785.5844,-246 1785.5844,-240 1785.5844,-240 1785.5844,-228 1785.5844,-228 1785.5844,-222 1791.5844,-216 1797.5844,-216 1797.5844,-216 1835.7926,-216 1835.7926,-216 1841.7926,-216 1847.7926,-222 1847.7926,-228 1847.7926,-228 1847.7926,-240 1847.7926,-240 1847.7926,-246 1841.7926,-252 1835.7926,-252"/>
<text text-anchor="middle" x="1816.6885" y="-231" font-family="sans" font-size="10.00" fill="#000000">map_hisat2</text>
</g>
<!-- 1&#45;&gt;41 -->
<g id="edge62" class="edge">
<title>1&#45;&gt;41</title>
<path fill="none" stroke="#c0c0c0" stroke-width="2" d="M2451.7664,-302.453C2326.5988,-293.4159 2001.7848,-269.0375 1894.6885,-252 1882.6931,-250.0917 1869.7969,-247.3884 1858.0132,-244.6554"/>
<polygon fill="#c0c0c0" stroke="#c0c0c0" stroke-width="2" points="1858.534,-241.1815 1847.9947,-242.2652 1856.9095,-247.9904 1858.534,-241.1815"/>
</g>
<!-- 3 -->
<g id="node4" class="node">
<title>3</title>
<path fill="none" stroke="#56d8b1" stroke-width="2" d="M1509.4991,-36C1509.4991,-36 1453.8779,-36 1453.8779,-36 1447.8779,-36 1441.8779,-30 1441.8779,-24 1441.8779,-24 1441.8779,-12 1441.8779,-12 1441.8779,-6 1447.8779,0 1453.8779,0 1453.8779,0 1509.4991,0 1509.4991,0 1515.4991,0 1521.4991,-6 1521.4991,-12 1521.4991,-12 1521.4991,-24 1521.4991,-24 1521.4991,-30 1515.4991,-36 1509.4991,-36"/>
<text text-anchor="middle" x="1481.6885" y="-15" font-family="sans" font-size="10.00" fill="#000000">rnaseq_analysis</text>
</g>
<!-- 2&#45;&gt;3 -->
<g id="edge16" class="edge">
<title>2&#45;&gt;3</title>
<path fill="none" stroke="#c0c0c0" stroke-width="2" d="M1481.6885,-71.8314C1481.6885,-64.131 1481.6885,-54.9743 1481.6885,-46.4166"/>
<polygon fill="#c0c0c0" stroke="#c0c0c0" stroke-width="2" points="1485.1886,-46.4132 1481.6885,-36.4133 1478.1886,-46.4133 1485.1886,-46.4132"/>
</g>
<!-- 4 -->
<g id="node5" class="node">
<title>4</title>
<path fill="none" stroke="#9fd856" stroke-width="2" d="M1483.8857,-548C1483.8857,-548 1409.4913,-548 1409.4913,-548 1403.4913,-548 1397.4913,-542 1397.4913,-536 1397.4913,-536 1397.4913,-524 1397.4913,-524 1397.4913,-518 1403.4913,-512 1409.4913,-512 1409.4913,-512 1483.8857,-512 1483.8857,-512 1489.8857,-512 1495.8857,-518 1495.8857,-524 1495.8857,-524 1495.8857,-536 1495.8857,-536 1495.8857,-542 1489.8857,-548 1483.8857,-548"/>
<text text-anchor="middle" x="1446.6885" y="-527" font-family="sans" font-size="10.00" fill="#000000">snpsplit_create_path</text>
</g>
<!-- 50 -->
<g id="node51" class="node">
<title>50</title>
<path fill="none" stroke="#56d882" stroke-width="2" d="M1586.9358,-476C1586.9358,-476 1492.4412,-476 1492.4412,-476 1486.4412,-476 1480.4412,-470 1480.4412,-464 1480.4412,-464 1480.4412,-452 1480.4412,-452 1480.4412,-446 1486.4412,-440 1492.4412,-440 1492.4412,-440 1586.9358,-440 1586.9358,-440 1592.9358,-440 1598.9358,-446 1598.9358,-452 1598.9358,-452 1598.9358,-464 1598.9358,-464 1598.9358,-470 1592.9358,-476 1586.9358,-476"/>
<text text-anchor="middle" x="1539.6885" y="-455" font-family="sans" font-size="10.00" fill="#000000">snpsplit_prepare_genome</text>
</g>
<!-- 4&#45;&gt;50 -->
<g id="edge77" class="edge">
<title>4&#45;&gt;50</title>
<path fill="none" stroke="#c0c0c0" stroke-width="2" d="M1470.1563,-511.8314C1481.7212,-502.8779 1495.8289,-491.9558 1508.3068,-482.2955"/>
<polygon fill="#c0c0c0" stroke="#c0c0c0" stroke-width="2" points="1510.4635,-485.0521 1516.2282,-476.1628 1506.1783,-479.5171 1510.4635,-485.0521"/>
</g>
<!-- 5 -->
<g id="node6" class="node">
<title>5</title>
<path fill="none" stroke="#567bd8" stroke-width="2" d="M2880.6665,-476C2880.6665,-476 2778.7105,-476 2778.7105,-476 2772.7105,-476 2766.7105,-470 2766.7105,-464 2766.7105,-464 2766.7105,-452 2766.7105,-452 2766.7105,-446 2772.7105,-440 2778.7105,-440 2778.7105,-440 2880.6665,-440 2880.6665,-440 2886.6665,-440 2892.6665,-446 2892.6665,-452 2892.6665,-452 2892.6665,-464 2892.6665,-464 2892.6665,-470 2886.6665,-476 2880.6665,-476"/>
<text text-anchor="middle" x="2829.6885" y="-461" font-family="sans" font-size="10.00" fill="#000000">download_rnaseq_CastB65</text>
<text text-anchor="middle" x="2829.6885" y="-449" font-family="sans" font-size="10.00" fill="#000000">file: 1</text>
</g>
<!-- 46 -->
<g id="node47" class="node">
<title>46</title>
<path fill="none" stroke="#5663d8" stroke-width="2" d="M2895.5661,-404C2895.5661,-404 2801.8109,-404 2801.8109,-404 2795.8109,-404 2789.8109,-398 2789.8109,-392 2789.8109,-392 2789.8109,-372 2789.8109,-372 2789.8109,-366 2795.8109,-360 2801.8109,-360 2801.8109,-360 2895.5661,-360 2895.5661,-360 2901.5661,-360 2907.5661,-366 2907.5661,-372 2907.5661,-372 2907.5661,-392 2907.5661,-392 2907.5661,-398 2901.5661,-404 2895.5661,-404"/>
<text text-anchor="middle" x="2848.6885" y="-391" font-family="sans" font-size="10.00" fill="#000000">fastq_md5</text>
<text text-anchor="middle" x="2848.6885" y="-379" font-family="sans" font-size="10.00" fill="#000000">archive: CastB6F1_5_R1</text>
<text text-anchor="middle" x="2848.6885" y="-367" font-family="sans" font-size="10.00" fill="#000000">outdir: rna_seq</text>
</g>
<!-- 5&#45;&gt;46 -->
<g id="edge70" class="edge">
<title>5&#45;&gt;46</title>
<path fill="none" stroke="#c0c0c0" stroke-width="2" d="M2834.1912,-439.9891C2836.1367,-432.2073 2838.473,-422.8621 2840.6962,-413.9691"/>
<polygon fill="#c0c0c0" stroke="#c0c0c0" stroke-width="2" points="2844.1015,-414.7785 2843.1314,-404.2282 2837.3105,-413.0807 2844.1015,-414.7785"/>
</g>
<!-- 66 -->
<g id="node67" class="node">
<title>66</title>
<path fill="none" stroke="#56d863" stroke-width="2" d="M2886.2973,-324C2886.2973,-324 2811.0797,-324 2811.0797,-324 2805.0797,-324 2799.0797,-318 2799.0797,-312 2799.0797,-312 2799.0797,-300 2799.0797,-300 2799.0797,-294 2805.0797,-288 2811.0797,-288 2811.0797,-288 2886.2973,-288 2886.2973,-288 2892.2973,-288 2898.2973,-294 2898.2973,-300 2898.2973,-300 2898.2973,-312 2898.2973,-312 2898.2973,-318 2892.2973,-324 2886.2973,-324"/>
<text text-anchor="middle" x="2848.6885" y="-309" font-family="sans" font-size="10.00" fill="#000000">trim_galore</text>
<text text-anchor="middle" x="2848.6885" y="-297" font-family="sans" font-size="10.00" fill="#000000">sample: CastB6F1_5</text>
</g>
<!-- 5&#45;&gt;66 -->
<g id="edge105" class="edge">
<title>5&#45;&gt;66</title>
<path fill="none" stroke="#c0c0c0" stroke-width="2" d="M2807.0135,-439.9909C2796.8997,-430.4972 2786.0687,-417.9355 2780.6885,-404 2773.6452,-385.7569 2772.1856,-377.6102 2780.6885,-360 2786.3779,-348.2168 2796.0263,-338.2163 2806.295,-330.144"/>
<polygon fill="#c0c0c0" stroke="#c0c0c0" stroke-width="2" points="2808.583,-332.8073 2814.5995,-324.0865 2804.4578,-327.152 2808.583,-332.8073"/>
</g>
<!-- 6 -->
<g id="node7" class="node">
<title>6</title>
<path fill="none" stroke="#5663d8" stroke-width="2" d="M3030.5661,-404C3030.5661,-404 2936.8109,-404 2936.8109,-404 2930.8109,-404 2924.8109,-398 2924.8109,-392 2924.8109,-392 2924.8109,-372 2924.8109,-372 2924.8109,-366 2930.8109,-360 2936.8109,-360 2936.8109,-360 3030.5661,-360 3030.5661,-360 3036.5661,-360 3042.5661,-366 3042.5661,-372 3042.5661,-372 3042.5661,-392 3042.5661,-392 3042.5661,-398 3036.5661,-404 3030.5661,-404"/>
<text text-anchor="middle" x="2983.6885" y="-391" font-family="sans" font-size="10.00" fill="#000000">fastq_md5</text>
<text text-anchor="middle" x="2983.6885" y="-379" font-family="sans" font-size="10.00" fill="#000000">archive: CastB6F1_5_R2</text>
<text text-anchor="middle" x="2983.6885" y="-367" font-family="sans" font-size="10.00" fill="#000000">outdir: rna_seq</text>
</g>
<!-- 6&#45;&gt;66 -->
<g id="edge104" class="edge">
<title>6&#45;&gt;66</title>
<path fill="none" stroke="#c0c0c0" stroke-width="2" d="M2944.278,-359.8133C2927.1793,-350.1874 2907.1538,-338.9138 2889.8617,-329.179"/>
<polygon fill="#c0c0c0" stroke="#c0c0c0" stroke-width="2" points="2891.5292,-326.1012 2881.0981,-324.2454 2888.0952,-332.2011 2891.5292,-326.1012"/>
</g>
<!-- 7 -->
<g id="node8" class="node">
<title>7</title>
<path fill="none" stroke="#56d85b" stroke-width="2" d="M2359.6665,-476C2359.6665,-476 2257.7105,-476 2257.7105,-476 2251.7105,-476 2245.7105,-470 2245.7105,-464 2245.7105,-464 2245.7105,-452 2245.7105,-452 2245.7105,-446 2251.7105,-440 2257.7105,-440 2257.7105,-440 2359.6665,-440 2359.6665,-440 2365.6665,-440 2371.6665,-446 2371.6665,-452 2371.6665,-452 2371.6665,-464 2371.6665,-464 2371.6665,-470 2365.6665,-476 2359.6665,-476"/>
<text text-anchor="middle" x="2308.6885" y="-461" font-family="sans" font-size="10.00" fill="#000000">download_rnaseq_CastB62</text>
<text text-anchor="middle" x="2308.6885" y="-449" font-family="sans" font-size="10.00" fill="#000000">file: 2</text>
</g>
<!-- 29 -->
<g id="node30" class="node">
<title>29</title>
<path fill="none" stroke="#56d863" stroke-width="2" d="M2192.2973,-324C2192.2973,-324 2117.0797,-324 2117.0797,-324 2111.0797,-324 2105.0797,-318 2105.0797,-312 2105.0797,-312 2105.0797,-300 2105.0797,-300 2105.0797,-294 2111.0797,-288 2117.0797,-288 2117.0797,-288 2192.2973,-288 2192.2973,-288 2198.2973,-288 2204.2973,-294 2204.2973,-300 2204.2973,-300 2204.2973,-312 2204.2973,-312 2204.2973,-318 2198.2973,-324 2192.2973,-324"/>
<text text-anchor="middle" x="2154.6885" y="-309" font-family="sans" font-size="10.00" fill="#000000">trim_galore</text>
<text text-anchor="middle" x="2154.6885" y="-297" font-family="sans" font-size="10.00" fill="#000000">sample: CastB6F1_2</text>
</g>
<!-- 7&#45;&gt;29 -->
<g id="edge37" class="edge">
<title>7&#45;&gt;29</title>
<path fill="none" stroke="#c0c0c0" stroke-width="2" d="M2331.3635,-439.9909C2341.4773,-430.4972 2352.3083,-417.9355 2357.6885,-404 2364.7318,-385.7569 2369.6072,-375.5037 2357.6885,-360 2340.2528,-337.3198 2267.945,-322.1572 2214.57,-313.8162"/>
<polygon fill="#c0c0c0" stroke="#c0c0c0" stroke-width="2" points="2214.9178,-310.329 2204.5058,-312.2883 2213.8671,-317.2497 2214.9178,-310.329"/>
</g>
<!-- 32 -->
<g id="node33" class="node">
<title>32</title>
<path fill="none" stroke="#5663d8" stroke-width="2" d="M2336.5661,-404C2336.5661,-404 2242.8109,-404 2242.8109,-404 2236.8109,-404 2230.8109,-398 2230.8109,-392 2230.8109,-392 2230.8109,-372 2230.8109,-372 2230.8109,-366 2236.8109,-360 2242.8109,-360 2242.8109,-360 2336.5661,-360 2336.5661,-360 2342.5661,-360 2348.5661,-366 2348.5661,-372 2348.5661,-372 2348.5661,-392 2348.5661,-392 2348.5661,-398 2342.5661,-404 2336.5661,-404"/>
<text text-anchor="middle" x="2289.6885" y="-391" font-family="sans" font-size="10.00" fill="#000000">fastq_md5</text>
<text text-anchor="middle" x="2289.6885" y="-379" font-family="sans" font-size="10.00" fill="#000000">archive: CastB6F1_2_R2</text>
<text text-anchor="middle" x="2289.6885" y="-367" font-family="sans" font-size="10.00" fill="#000000">outdir: rna_seq</text>
</g>
<!-- 7&#45;&gt;32 -->
<g id="edge45" class="edge">
<title>7&#45;&gt;32</title>
<path fill="none" stroke="#c0c0c0" stroke-width="2" d="M2304.1858,-439.9891C2302.2403,-432.2073 2299.904,-422.8621 2297.6808,-413.9691"/>
<polygon fill="#c0c0c0" stroke="#c0c0c0" stroke-width="2" points="2301.0665,-413.0807 2295.2456,-404.2282 2294.2755,-414.7785 2301.0665,-413.0807"/>
</g>
<!-- 8 -->
<g id="node9" class="node">
<title>8</title>
<path fill="none" stroke="#d86656" stroke-width="2" d="M1017.2349,-252C1017.2349,-252 970.1421,-252 970.1421,-252 964.1421,-252 958.1421,-246 958.1421,-240 958.1421,-240 958.1421,-228 958.1421,-228 958.1421,-222 964.1421,-216 970.1421,-216 970.1421,-216 1017.2349,-216 1017.2349,-216 1023.2349,-216 1029.2349,-222 1029.2349,-228 1029.2349,-228 1029.2349,-240 1029.2349,-240 1029.2349,-246 1023.2349,-252 1017.2349,-252"/>
<text text-anchor="middle" x="993.6885" y="-231" font-family="sans" font-size="10.00" fill="#000000">download_gtf</text>
</g>
<!-- 24 -->
<g id="node25" class="node">
<title>24</title>
<path fill="none" stroke="#a7d856" stroke-width="2" d="M1096.8225,-180C1096.8225,-180 890.5545,-180 890.5545,-180 884.5545,-180 878.5545,-174 878.5545,-168 878.5545,-168 878.5545,-156 878.5545,-156 878.5545,-150 884.5545,-144 890.5545,-144 890.5545,-144 1096.8225,-144 1096.8225,-144 1102.8225,-144 1108.8225,-150 1108.8225,-156 1108.8225,-156 1108.8225,-168 1108.8225,-168 1108.8225,-174 1102.8225,-180 1096.8225,-180"/>
<text text-anchor="middle" x="993.6885" y="-165" font-family="sans" font-size="10.00" fill="#000000">gunzip_gtf</text>
<text text-anchor="middle" x="993.6885" y="-153" font-family="sans" font-size="10.00" fill="#000000">file: ../genome_data/Mus_musculus.GRCm38_90.chr</text>
</g>
<!-- 8&#45;&gt;24 -->
<g id="edge31" class="edge">
<title>8&#45;&gt;24</title>
<path fill="none" stroke="#c0c0c0" stroke-width="2" d="M993.6885,-215.8314C993.6885,-208.131 993.6885,-198.9743 993.6885,-190.4166"/>
<polygon fill="#c0c0c0" stroke="#c0c0c0" stroke-width="2" points="997.1886,-190.4132 993.6885,-180.4133 990.1886,-190.4133 997.1886,-190.4132"/>
</g>
<!-- 9 -->
<g id="node10" class="node">
<title>9</title>
<path fill="none" stroke="#56d0d8" stroke-width="2" d="M1127.7926,-252C1127.7926,-252 1089.5844,-252 1089.5844,-252 1083.5844,-252 1077.5844,-246 1077.5844,-240 1077.5844,-240 1077.5844,-228 1077.5844,-228 1077.5844,-222 1083.5844,-216 1089.5844,-216 1089.5844,-216 1127.7926,-216 1127.7926,-216 1133.7926,-216 1139.7926,-222 1139.7926,-228 1139.7926,-228 1139.7926,-240 1139.7926,-240 1139.7926,-246 1133.7926,-252 1127.7926,-252"/>
<text text-anchor="middle" x="1108.6885" y="-231" font-family="sans" font-size="10.00" fill="#000000">map_hisat2</text>
</g>
<!-- 45 -->
<g id="node46" class="node">
<title>45</title>
<path fill="none" stroke="#afd856" stroke-width="2" d="M1196.1895,-180C1196.1895,-180 1139.1875,-180 1139.1875,-180 1133.1875,-180 1127.1875,-174 1127.1875,-168 1127.1875,-168 1127.1875,-156 1127.1875,-156 1127.1875,-150 1133.1875,-144 1139.1875,-144 1139.1875,-144 1196.1895,-144 1196.1895,-144 1202.1895,-144 1208.1895,-150 1208.1895,-156 1208.1895,-156 1208.1895,-168 1208.1895,-168 1208.1895,-174 1202.1895,-180 1196.1895,-180"/>
<text text-anchor="middle" x="1167.6885" y="-159" font-family="sans" font-size="10.00" fill="#000000">snp_split_hisat2</text>
</g>
<!-- 9&#45;&gt;45 -->
<g id="edge68" class="edge">
<title>9&#45;&gt;45</title>
<path fill="none" stroke="#c0c0c0" stroke-width="2" d="M1123.5767,-215.8314C1130.4415,-207.454 1138.7186,-197.3531 1146.2396,-188.1749"/>
<polygon fill="#c0c0c0" stroke="#c0c0c0" stroke-width="2" points="1148.9688,-190.3665 1152.5999,-180.4133 1143.5544,-185.9297 1148.9688,-190.3665"/>
</g>
<!-- 10 -->
<g id="node11" class="node">
<title>10</title>
<path fill="none" stroke="#68d856" stroke-width="2" d="M1165.6665,-476C1165.6665,-476 1063.7105,-476 1063.7105,-476 1057.7105,-476 1051.7105,-470 1051.7105,-464 1051.7105,-464 1051.7105,-452 1051.7105,-452 1051.7105,-446 1057.7105,-440 1063.7105,-440 1063.7105,-440 1165.6665,-440 1165.6665,-440 1171.6665,-440 1177.6665,-446 1177.6665,-452 1177.6665,-452 1177.6665,-464 1177.6665,-464 1177.6665,-470 1171.6665,-476 1165.6665,-476"/>
<text text-anchor="middle" x="1114.6885" y="-461" font-family="sans" font-size="10.00" fill="#000000">download_rnaseq_B6Cast3</text>
<text text-anchor="middle" x="1114.6885" y="-449" font-family="sans" font-size="10.00" fill="#000000">file: 2</text>
</g>
<!-- 36 -->
<g id="node37" class="node">
<title>36</title>
<path fill="none" stroke="#56d863" stroke-width="2" d="M1089.2973,-324C1089.2973,-324 1014.0797,-324 1014.0797,-324 1008.0797,-324 1002.0797,-318 1002.0797,-312 1002.0797,-312 1002.0797,-300 1002.0797,-300 1002.0797,-294 1008.0797,-288 1014.0797,-288 1014.0797,-288 1089.2973,-288 1089.2973,-288 1095.2973,-288 1101.2973,-294 1101.2973,-300 1101.2973,-300 1101.2973,-312 1101.2973,-312 1101.2973,-318 1095.2973,-324 1089.2973,-324"/>
<text text-anchor="middle" x="1051.6885" y="-309" font-family="sans" font-size="10.00" fill="#000000">trim_galore</text>
<text text-anchor="middle" x="1051.6885" y="-297" font-family="sans" font-size="10.00" fill="#000000">sample: B6CastF1_3</text>
</g>
<!-- 10&#45;&gt;36 -->
<g id="edge52" class="edge">
<title>10&#45;&gt;36</title>
<path fill="none" stroke="#c0c0c0" stroke-width="2" d="M1095.8355,-439.601C1086.8905,-429.831 1076.8382,-417.1443 1070.6885,-404 1060.3543,-381.9117 1055.6403,-354.4977 1053.4903,-334.2858"/>
<polygon fill="#c0c0c0" stroke="#c0c0c0" stroke-width="2" points="1056.9603,-333.7974 1052.5619,-324.1587 1049.9896,-334.4365 1056.9603,-333.7974"/>
</g>
<!-- 64 -->
<g id="node65" class="node">
<title>64</title>
<path fill="none" stroke="#5663d8" stroke-width="2" d="M1185.5661,-404C1185.5661,-404 1091.8109,-404 1091.8109,-404 1085.8109,-404 1079.8109,-398 1079.8109,-392 1079.8109,-392 1079.8109,-372 1079.8109,-372 1079.8109,-366 1085.8109,-360 1091.8109,-360 1091.8109,-360 1185.5661,-360 1185.5661,-360 1191.5661,-360 1197.5661,-366 1197.5661,-372 1197.5661,-372 1197.5661,-392 1197.5661,-392 1197.5661,-398 1191.5661,-404 1185.5661,-404"/>
<text text-anchor="middle" x="1138.6885" y="-391" font-family="sans" font-size="10.00" fill="#000000">fastq_md5</text>
<text text-anchor="middle" x="1138.6885" y="-379" font-family="sans" font-size="10.00" fill="#000000">archive: B6CastF1_3_R2</text>
<text text-anchor="middle" x="1138.6885" y="-367" font-family="sans" font-size="10.00" fill="#000000">outdir: rna_seq</text>
</g>
<!-- 10&#45;&gt;64 -->
<g id="edge98" class="edge">
<title>10&#45;&gt;64</title>
<path fill="none" stroke="#c0c0c0" stroke-width="2" d="M1120.3762,-439.9891C1122.8336,-432.2073 1125.7847,-422.8621 1128.593,-413.9691"/>
<polygon fill="#c0c0c0" stroke="#c0c0c0" stroke-width="2" points="1131.9952,-414.818 1131.6691,-404.2282 1125.3201,-412.7101 1131.9952,-414.818"/>
</g>
<!-- 11 -->
<g id="node12" class="node">
<title>11</title>
<path fill="none" stroke="#56d88a" stroke-width="2" d="M2017.6665,-476C2017.6665,-476 1915.7105,-476 1915.7105,-476 1909.7105,-476 1903.7105,-470 1903.7105,-464 1903.7105,-464 1903.7105,-452 1903.7105,-452 1903.7105,-446 1909.7105,-440 1915.7105,-440 1915.7105,-440 2017.6665,-440 2017.6665,-440 2023.6665,-440 2029.6665,-446 2029.6665,-452 2029.6665,-452 2029.6665,-464 2029.6665,-464 2029.6665,-470 2023.6665,-476 2017.6665,-476"/>
<text text-anchor="middle" x="1966.6885" y="-461" font-family="sans" font-size="10.00" fill="#000000">download_rnaseq_CastB63</text>
<text text-anchor="middle" x="1966.6885" y="-449" font-family="sans" font-size="10.00" fill="#000000">file: 1</text>
</g>
<!-- 26 -->
<g id="node27" class="node">
<title>26</title>
<path fill="none" stroke="#56d863" stroke-width="2" d="M2067.2973,-324C2067.2973,-324 1992.0797,-324 1992.0797,-324 1986.0797,-324 1980.0797,-318 1980.0797,-312 1980.0797,-312 1980.0797,-300 1980.0797,-300 1980.0797,-294 1986.0797,-288 1992.0797,-288 1992.0797,-288 2067.2973,-288 2067.2973,-288 2073.2973,-288 2079.2973,-294 2079.2973,-300 2079.2973,-300 2079.2973,-312 2079.2973,-312 2079.2973,-318 2073.2973,-324 2067.2973,-324"/>
<text text-anchor="middle" x="2029.6885" y="-309" font-family="sans" font-size="10.00" fill="#000000">trim_galore</text>
<text text-anchor="middle" x="2029.6885" y="-297" font-family="sans" font-size="10.00" fill="#000000">sample: CastB6F1_3</text>
</g>
<!-- 11&#45;&gt;26 -->
<g id="edge32" class="edge">
<title>11&#45;&gt;26</title>
<path fill="none" stroke="#c0c0c0" stroke-width="2" d="M1985.5415,-439.601C1994.4865,-429.831 2004.5388,-417.1443 2010.6885,-404 2021.0227,-381.9117 2025.7367,-354.4977 2027.8867,-334.2858"/>
<polygon fill="#c0c0c0" stroke="#c0c0c0" stroke-width="2" points="2031.3874,-334.4365 2028.8151,-324.1587 2024.4167,-333.7974 2031.3874,-334.4365"/>
</g>
<!-- 38 -->
<g id="node39" class="node">
<title>38</title>
<path fill="none" stroke="#5663d8" stroke-width="2" d="M1989.5661,-404C1989.5661,-404 1895.8109,-404 1895.8109,-404 1889.8109,-404 1883.8109,-398 1883.8109,-392 1883.8109,-392 1883.8109,-372 1883.8109,-372 1883.8109,-366 1889.8109,-360 1895.8109,-360 1895.8109,-360 1989.5661,-360 1989.5661,-360 1995.5661,-360 2001.5661,-366 2001.5661,-372 2001.5661,-372 2001.5661,-392 2001.5661,-392 2001.5661,-398 1995.5661,-404 1989.5661,-404"/>
<text text-anchor="middle" x="1942.6885" y="-391" font-family="sans" font-size="10.00" fill="#000000">fastq_md5</text>
<text text-anchor="middle" x="1942.6885" y="-379" font-family="sans" font-size="10.00" fill="#000000">archive: CastB6F1_3_R1</text>
<text text-anchor="middle" x="1942.6885" y="-367" font-family="sans" font-size="10.00" fill="#000000">outdir: rna_seq</text>
</g>
<!-- 11&#45;&gt;38 -->
<g id="edge56" class="edge">
<title>11&#45;&gt;38</title>
<path fill="none" stroke="#c0c0c0" stroke-width="2" d="M1961.0008,-439.9891C1958.5434,-432.2073 1955.5923,-422.8621 1952.784,-413.9691"/>
<polygon fill="#c0c0c0" stroke="#c0c0c0" stroke-width="2" points="1956.0569,-412.7101 1949.7079,-404.2282 1949.3818,-414.818 1956.0569,-412.7101"/>
</g>
<!-- 12 -->
<g id="node13" class="node">
<title>12</title>
<path fill="none" stroke="#56d863" stroke-width="2" d="M617.2973,-324C617.2973,-324 542.0797,-324 542.0797,-324 536.0797,-324 530.0797,-318 530.0797,-312 530.0797,-312 530.0797,-300 530.0797,-300 530.0797,-294 536.0797,-288 542.0797,-288 542.0797,-288 617.2973,-288 617.2973,-288 623.2973,-288 629.2973,-294 629.2973,-300 629.2973,-300 629.2973,-312 629.2973,-312 629.2973,-318 623.2973,-324 617.2973,-324"/>
<text text-anchor="middle" x="579.6885" y="-309" font-family="sans" font-size="10.00" fill="#000000">trim_galore</text>
<text text-anchor="middle" x="579.6885" y="-297" font-family="sans" font-size="10.00" fill="#000000">sample: B6CastF1_4</text>
</g>
<!-- 44 -->
<g id="node45" class="node">
<title>44</title>
<path fill="none" stroke="#56d0d8" stroke-width="2" d="M1283.7926,-252C1283.7926,-252 1245.5844,-252 1245.5844,-252 1239.5844,-252 1233.5844,-246 1233.5844,-240 1233.5844,-240 1233.5844,-228 1233.5844,-228 1233.5844,-222 1239.5844,-216 1245.5844,-216 1245.5844,-216 1283.7926,-216 1283.7926,-216 1289.7926,-216 1295.7926,-222 1295.7926,-228 1295.7926,-228 1295.7926,-240 1295.7926,-240 1295.7926,-246 1289.7926,-252 1283.7926,-252"/>
<text text-anchor="middle" x="1264.6885" y="-231" font-family="sans" font-size="10.00" fill="#000000">map_hisat2</text>
</g>
<!-- 12&#45;&gt;44 -->
<g id="edge67" class="edge">
<title>12&#45;&gt;44</title>
<path fill="none" stroke="#c0c0c0" stroke-width="2" d="M629.6504,-302.2608C728.8103,-294.6181 957.4237,-275.894 1148.6885,-252 1173.4787,-248.9031 1201.1259,-244.6447 1223.2096,-241.0473"/>
<polygon fill="#c0c0c0" stroke="#c0c0c0" stroke-width="2" points="1223.9508,-244.4725 1233.2498,-239.3951 1222.8141,-237.5654 1223.9508,-244.4725"/>
</g>
<!-- 13 -->
<g id="node14" class="node">
<title>13</title>
<path fill="none" stroke="#56d86b" stroke-width="2" d="M2706.6665,-476C2706.6665,-476 2604.7105,-476 2604.7105,-476 2598.7105,-476 2592.7105,-470 2592.7105,-464 2592.7105,-464 2592.7105,-452 2592.7105,-452 2592.7105,-446 2598.7105,-440 2604.7105,-440 2604.7105,-440 2706.6665,-440 2706.6665,-440 2712.6665,-440 2718.6665,-446 2718.6665,-452 2718.6665,-452 2718.6665,-464 2718.6665,-464 2718.6665,-470 2712.6665,-476 2706.6665,-476"/>
<text text-anchor="middle" x="2655.6885" y="-461" font-family="sans" font-size="10.00" fill="#000000">download_rnaseq_CastB64</text>
<text text-anchor="middle" x="2655.6885" y="-449" font-family="sans" font-size="10.00" fill="#000000">file: 2</text>
</g>
<!-- 13&#45;&gt;1 -->
<g id="edge4" class="edge">
<title>13&#45;&gt;1</title>
<path fill="none" stroke="#c0c0c0" stroke-width="2" d="M2678.3635,-439.9909C2688.4773,-430.4972 2699.3083,-417.9355 2704.6885,-404 2711.7318,-385.7569 2716.6072,-375.5037 2704.6885,-360 2687.2528,-337.3198 2614.945,-322.1572 2561.57,-313.8162"/>
<polygon fill="#c0c0c0" stroke="#c0c0c0" stroke-width="2" points="2561.9178,-310.329 2551.5058,-312.2883 2560.8671,-317.2497 2561.9178,-310.329"/>
</g>
<!-- 22 -->
<g id="node23" class="node">
<title>22</title>
<path fill="none" stroke="#5663d8" stroke-width="2" d="M2683.5661,-404C2683.5661,-404 2589.8109,-404 2589.8109,-404 2583.8109,-404 2577.8109,-398 2577.8109,-392 2577.8109,-392 2577.8109,-372 2577.8109,-372 2577.8109,-366 2583.8109,-360 2589.8109,-360 2589.8109,-360 2683.5661,-360 2683.5661,-360 2689.5661,-360 2695.5661,-366 2695.5661,-372 2695.5661,-372 2695.5661,-392 2695.5661,-392 2695.5661,-398 2689.5661,-404 2683.5661,-404"/>
<text text-anchor="middle" x="2636.6885" y="-391" font-family="sans" font-size="10.00" fill="#000000">fastq_md5</text>
<text text-anchor="middle" x="2636.6885" y="-379" font-family="sans" font-size="10.00" fill="#000000">archive: CastB6F1_4_R2</text>
<text text-anchor="middle" x="2636.6885" y="-367" font-family="sans" font-size="10.00" fill="#000000">outdir: rna_seq</text>
</g>
<!-- 13&#45;&gt;22 -->
<g id="edge30" class="edge">
<title>13&#45;&gt;22</title>
<path fill="none" stroke="#c0c0c0" stroke-width="2" d="M2651.1858,-439.9891C2649.2403,-432.2073 2646.904,-422.8621 2644.6808,-413.9691"/>
<polygon fill="#c0c0c0" stroke="#c0c0c0" stroke-width="2" points="2648.0665,-413.0807 2642.2456,-404.2282 2641.2755,-414.7785 2648.0665,-413.0807"/>
</g>
<!-- 14 -->
<g id="node15" class="node">
<title>14</title>
<path fill="none" stroke="#56a2d8" stroke-width="2" d="M639.6665,-476C639.6665,-476 537.7105,-476 537.7105,-476 531.7105,-476 525.7105,-470 525.7105,-464 525.7105,-464 525.7105,-452 525.7105,-452 525.7105,-446 531.7105,-440 537.7105,-440 537.7105,-440 639.6665,-440 639.6665,-440 645.6665,-440 651.6665,-446 651.6665,-452 651.6665,-452 651.6665,-464 651.6665,-464 651.6665,-470 645.6665,-476 639.6665,-476"/>
<text text-anchor="middle" x="588.6885" y="-461" font-family="sans" font-size="10.00" fill="#000000">download_rnaseq_B6Cast4</text>
<text text-anchor="middle" x="588.6885" y="-449" font-family="sans" font-size="10.00" fill="#000000">file: 1</text>
</g>
<!-- 14&#45;&gt;12 -->
<g id="edge25" class="edge">
<title>14&#45;&gt;12</title>
<path fill="none" stroke="#c0c0c0" stroke-width="2" d="M617.1205,-439.9601C628.9113,-430.7801 641.3089,-418.4872 647.6885,-404 655.5697,-386.1029 656.1914,-377.6102 647.6885,-360 641.9991,-348.2168 632.3507,-338.2163 622.082,-330.144"/>
<polygon fill="#c0c0c0" stroke="#c0c0c0" stroke-width="2" points="623.9192,-327.152 613.7775,-324.0865 619.794,-332.8073 623.9192,-327.152"/>
</g>
<!-- 43 -->
<g id="node44" class="node">
<title>43</title>
<path fill="none" stroke="#5663d8" stroke-width="2" d="M626.5661,-404C626.5661,-404 532.8109,-404 532.8109,-404 526.8109,-404 520.8109,-398 520.8109,-392 520.8109,-392 520.8109,-372 520.8109,-372 520.8109,-366 526.8109,-360 532.8109,-360 532.8109,-360 626.5661,-360 626.5661,-360 632.5661,-360 638.5661,-366 638.5661,-372 638.5661,-372 638.5661,-392 638.5661,-392 638.5661,-398 632.5661,-404 626.5661,-404"/>
<text text-anchor="middle" x="579.6885" y="-391" font-family="sans" font-size="10.00" fill="#000000">fastq_md5</text>
<text text-anchor="middle" x="579.6885" y="-379" font-family="sans" font-size="10.00" fill="#000000">archive: B6CastF1_4_R1</text>
<text text-anchor="middle" x="579.6885" y="-367" font-family="sans" font-size="10.00" fill="#000000">outdir: rna_seq</text>
</g>
<!-- 14&#45;&gt;43 -->
<g id="edge64" class="edge">
<title>14&#45;&gt;43</title>
<path fill="none" stroke="#c0c0c0" stroke-width="2" d="M586.5556,-439.9891C585.644,-432.291 584.5512,-423.0629 583.5083,-414.2561"/>
<polygon fill="#c0c0c0" stroke="#c0c0c0" stroke-width="2" points="586.9726,-413.7472 582.3208,-404.2282 580.0212,-414.5705 586.9726,-413.7472"/>
</g>
<!-- 15 -->
<g id="node16" class="node">
<title>15</title>
<path fill="none" stroke="#afd856" stroke-width="2" d="M1295.1895,-180C1295.1895,-180 1238.1875,-180 1238.1875,-180 1232.1875,-180 1226.1875,-174 1226.1875,-168 1226.1875,-168 1226.1875,-156 1226.1875,-156 1226.1875,-150 1232.1875,-144 1238.1875,-144 1238.1875,-144 1295.1895,-144 1295.1895,-144 1301.1895,-144 1307.1895,-150 1307.1895,-156 1307.1895,-156 1307.1895,-168 1307.1895,-168 1307.1895,-174 1301.1895,-180 1295.1895,-180"/>
<text text-anchor="middle" x="1266.6885" y="-159" font-family="sans" font-size="10.00" fill="#000000">snp_split_hisat2</text>
</g>
<!-- 15&#45;&gt;2 -->
<g id="edge15" class="edge">
<title>15&#45;&gt;2</title>
<path fill="none" stroke="#c0c0c0" stroke-width="2" d="M1307.3811,-148.3727C1338.5389,-137.9385 1382.1021,-123.3499 1417.8826,-111.3675"/>
<polygon fill="#c0c0c0" stroke="#c0c0c0" stroke-width="2" points="1419.3805,-114.5571 1427.7514,-108.0626 1417.1576,-107.9194 1419.3805,-114.5571"/>
</g>
<!-- 16 -->
<g id="node17" class="node">
<title>16</title>
<path fill="none" stroke="#56d86b" stroke-width="2" d="M2533.6665,-476C2533.6665,-476 2431.7105,-476 2431.7105,-476 2425.7105,-476 2419.7105,-470 2419.7105,-464 2419.7105,-464 2419.7105,-452 2419.7105,-452 2419.7105,-446 2425.7105,-440 2431.7105,-440 2431.7105,-440 2533.6665,-440 2533.6665,-440 2539.6665,-440 2545.6665,-446 2545.6665,-452 2545.6665,-452 2545.6665,-464 2545.6665,-464 2545.6665,-470 2539.6665,-476 2533.6665,-476"/>
<text text-anchor="middle" x="2482.6885" y="-461" font-family="sans" font-size="10.00" fill="#000000">download_rnaseq_CastB64</text>
<text text-anchor="middle" x="2482.6885" y="-449" font-family="sans" font-size="10.00" fill="#000000">file: 1</text>
</g>
<!-- 16&#45;&gt;1 -->
<g id="edge3" class="edge">
<title>16&#45;&gt;1</title>
<path fill="none" stroke="#c0c0c0" stroke-width="2" d="M2460.0135,-439.9909C2449.8997,-430.4972 2439.0687,-417.9355 2433.6885,-404 2426.6452,-385.7569 2425.1856,-377.6102 2433.6885,-360 2439.3779,-348.2168 2449.0263,-338.2163 2459.295,-330.144"/>
<polygon fill="#c0c0c0" stroke="#c0c0c0" stroke-width="2" points="2461.583,-332.8073 2467.5995,-324.0865 2457.4578,-327.152 2461.583,-332.8073"/>
</g>
<!-- 63 -->
<g id="node64" class="node">
<title>63</title>
<path fill="none" stroke="#5663d8" stroke-width="2" d="M2548.5661,-404C2548.5661,-404 2454.8109,-404 2454.8109,-404 2448.8109,-404 2442.8109,-398 2442.8109,-392 2442.8109,-392 2442.8109,-372 2442.8109,-372 2442.8109,-366 2448.8109,-360 2454.8109,-360 2454.8109,-360 2548.5661,-360 2548.5661,-360 2554.5661,-360 2560.5661,-366 2560.5661,-372 2560.5661,-372 2560.5661,-392 2560.5661,-392 2560.5661,-398 2554.5661,-404 2548.5661,-404"/>
<text text-anchor="middle" x="2501.6885" y="-391" font-family="sans" font-size="10.00" fill="#000000">fastq_md5</text>
<text text-anchor="middle" x="2501.6885" y="-379" font-family="sans" font-size="10.00" fill="#000000">archive: CastB6F1_4_R1</text>
<text text-anchor="middle" x="2501.6885" y="-367" font-family="sans" font-size="10.00" fill="#000000">outdir: rna_seq</text>
</g>
<!-- 16&#45;&gt;63 -->
<g id="edge97" class="edge">
<title>16&#45;&gt;63</title>
<path fill="none" stroke="#c0c0c0" stroke-width="2" d="M2487.1912,-439.9891C2489.1367,-432.2073 2491.473,-422.8621 2493.6962,-413.9691"/>
<polygon fill="#c0c0c0" stroke="#c0c0c0" stroke-width="2" points="2497.1015,-414.7785 2496.1314,-404.2282 2490.3105,-413.0807 2497.1015,-414.7785"/>
</g>
<!-- 17 -->
<g id="node18" class="node">
<title>17</title>
<path fill="none" stroke="#5663d8" stroke-width="2" d="M105.5661,-404C105.5661,-404 11.8109,-404 11.8109,-404 5.8109,-404 -.1891,-398 -.1891,-392 -.1891,-392 -.1891,-372 -.1891,-372 -.1891,-366 5.8109,-360 11.8109,-360 11.8109,-360 105.5661,-360 105.5661,-360 111.5661,-360 117.5661,-366 117.5661,-372 117.5661,-372 117.5661,-392 117.5661,-392 117.5661,-398 111.5661,-404 105.5661,-404"/>
<text text-anchor="middle" x="58.6885" y="-391" font-family="sans" font-size="10.00" fill="#000000">fastq_md5</text>
<text text-anchor="middle" x="58.6885" y="-379" font-family="sans" font-size="10.00" fill="#000000">archive: B6CastF1_2_R2</text>
<text text-anchor="middle" x="58.6885" y="-367" font-family="sans" font-size="10.00" fill="#000000">outdir: rna_seq</text>
</g>
<!-- 48 -->
<g id="node49" class="node">
<title>48</title>
<path fill="none" stroke="#56d863" stroke-width="2" d="M221.2973,-324C221.2973,-324 146.0797,-324 146.0797,-324 140.0797,-324 134.0797,-318 134.0797,-312 134.0797,-312 134.0797,-300 134.0797,-300 134.0797,-294 140.0797,-288 146.0797,-288 146.0797,-288 221.2973,-288 221.2973,-288 227.2973,-288 233.2973,-294 233.2973,-300 233.2973,-300 233.2973,-312 233.2973,-312 233.2973,-318 227.2973,-324 221.2973,-324"/>
<text text-anchor="middle" x="183.6885" y="-309" font-family="sans" font-size="10.00" fill="#000000">trim_galore</text>
<text text-anchor="middle" x="183.6885" y="-297" font-family="sans" font-size="10.00" fill="#000000">sample: B6CastF1_2</text>
</g>
<!-- 17&#45;&gt;48 -->
<g id="edge73" class="edge">
<title>17&#45;&gt;48</title>
<path fill="none" stroke="#c0c0c0" stroke-width="2" d="M95.1797,-359.8133C110.8666,-350.2757 129.214,-339.1205 145.1239,-329.4473"/>
<polygon fill="#c0c0c0" stroke="#c0c0c0" stroke-width="2" points="146.9532,-332.4312 153.6796,-324.2454 143.3166,-326.45 146.9532,-332.4312"/>
</g>
<!-- 18 -->
<g id="node19" class="node">
<title>18</title>
<path fill="none" stroke="#56a2d8" stroke-width="2" d="M485.6665,-476C485.6665,-476 383.7105,-476 383.7105,-476 377.7105,-476 371.7105,-470 371.7105,-464 371.7105,-464 371.7105,-452 371.7105,-452 371.7105,-446 377.7105,-440 383.7105,-440 383.7105,-440 485.6665,-440 485.6665,-440 491.6665,-440 497.6665,-446 497.6665,-452 497.6665,-452 497.6665,-464 497.6665,-464 497.6665,-470 491.6665,-476 485.6665,-476"/>
<text text-anchor="middle" x="434.6885" y="-461" font-family="sans" font-size="10.00" fill="#000000">download_rnaseq_B6Cast4</text>
<text text-anchor="middle" x="434.6885" y="-449" font-family="sans" font-size="10.00" fill="#000000">file: 2</text>
</g>
<!-- 18&#45;&gt;12 -->
<g id="edge23" class="edge">
<title>18&#45;&gt;12</title>
<path fill="none" stroke="#c0c0c0" stroke-width="2" d="M406.7276,-439.862C395.1345,-430.6621 382.9483,-418.3809 376.6885,-404 368.8836,-386.0695 364.7698,-375.5037 376.6885,-360 394.1242,-337.3198 466.432,-322.1572 519.807,-313.8162"/>
<polygon fill="#c0c0c0" stroke="#c0c0c0" stroke-width="2" points="520.5099,-317.2497 529.8712,-312.2883 519.4592,-310.329 520.5099,-317.2497"/>
</g>
<!-- 67 -->
<g id="node68" class="node">
<title>67</title>
<path fill="none" stroke="#5663d8" stroke-width="2" d="M491.5661,-404C491.5661,-404 397.8109,-404 397.8109,-404 391.8109,-404 385.8109,-398 385.8109,-392 385.8109,-392 385.8109,-372 385.8109,-372 385.8109,-366 391.8109,-360 397.8109,-360 397.8109,-360 491.5661,-360 491.5661,-360 497.5661,-360 503.5661,-366 503.5661,-372 503.5661,-372 503.5661,-392 503.5661,-392 503.5661,-398 497.5661,-404 491.5661,-404"/>
<text text-anchor="middle" x="444.6885" y="-391" font-family="sans" font-size="10.00" fill="#000000">fastq_md5</text>
<text text-anchor="middle" x="444.6885" y="-379" font-family="sans" font-size="10.00" fill="#000000">archive: B6CastF1_4_R2</text>
<text text-anchor="middle" x="444.6885" y="-367" font-family="sans" font-size="10.00" fill="#000000">outdir: rna_seq</text>
</g>
<!-- 18&#45;&gt;67 -->
<g id="edge106" class="edge">
<title>18&#45;&gt;67</title>
<path fill="none" stroke="#c0c0c0" stroke-width="2" d="M437.0584,-439.9891C438.0713,-432.291 439.2855,-423.0629 440.4443,-414.2561"/>
<polygon fill="#c0c0c0" stroke="#c0c0c0" stroke-width="2" points="443.9292,-414.5994 441.7637,-404.2282 436.989,-413.6861 443.9292,-414.5994"/>
</g>
<!-- 19 -->
<g id="node20" class="node">
<title>19</title>
<path fill="none" stroke="#88d856" stroke-width="2" d="M1590.0566,-400C1590.0566,-400 1489.3204,-400 1489.3204,-400 1483.3204,-400 1477.3204,-394 1477.3204,-388 1477.3204,-388 1477.3204,-376 1477.3204,-376 1477.3204,-370 1483.3204,-364 1489.3204,-364 1489.3204,-364 1590.0566,-364 1590.0566,-364 1596.0566,-364 1602.0566,-370 1602.0566,-376 1602.0566,-376 1602.0566,-388 1602.0566,-388 1602.0566,-394 1596.0566,-400 1590.0566,-400"/>
<text text-anchor="middle" x="1539.6885" y="-379" font-family="sans" font-size="10.00" fill="#000000">clean_up_snpsplit_genome</text>
</g>
<!-- 19&#45;&gt;0 -->
<g id="edge1" class="edge">
<title>19&#45;&gt;0</title>
<path fill="none" stroke="#c0c0c0" stroke-width="2" d="M1602.0872,-377.143C1654.2702,-370.8653 1729.1881,-356.5465 1786.6885,-324 1825.529,-302.0155 1839.8998,-293.3527 1856.6885,-252 1862.7072,-237.1752 1861.7029,-231.1939 1856.6885,-216 1853.3977,-206.0288 1847.4769,-196.3944 1841.1821,-188.0924"/>
<polygon fill="#c0c0c0" stroke="#c0c0c0" stroke-width="2" points="1843.8605,-185.8384 1834.8461,-180.2714 1838.4213,-190.2448 1843.8605,-185.8384"/>
</g>
<!-- 19&#45;&gt;9 -->
<g id="edge20" class="edge">
<title>19&#45;&gt;9</title>
<path fill="none" stroke="#c0c0c0" stroke-width="2" d="M1477.2468,-373.3654C1369.6709,-358.3872 1160.1997,-328.7289 1153.6885,-324 1133.2533,-309.1584 1121.5474,-282.376 1115.2285,-261.8734"/>
<polygon fill="#c0c0c0" stroke="#c0c0c0" stroke-width="2" points="1118.5567,-260.7799 1112.471,-252.1072 1111.8201,-262.682 1118.5567,-260.7799"/>
</g>
<!-- 19&#45;&gt;15 -->
<g id="edge26" class="edge">
<title>19&#45;&gt;15</title>
<path fill="none" stroke="#c0c0c0" stroke-width="2" d="M1477.0538,-373.4348C1410.0793,-363.3683 1309.1249,-345.3063 1276.6885,-324 1232.1614,-294.7518 1207.3991,-266.3905 1224.6885,-216 1228.1575,-205.8894 1234.3784,-196.2137 1240.9875,-187.9166"/>
<polygon fill="#c0c0c0" stroke="#c0c0c0" stroke-width="2" points="1243.815,-189.9949 1247.6385,-180.1141 1238.4877,-185.4539 1243.815,-189.9949"/>
</g>
<!-- 30 -->
<g id="node31" class="node">
<title>30</title>
<path fill="none" stroke="#afd856" stroke-width="2" d="M1609.1895,-180C1609.1895,-180 1552.1875,-180 1552.1875,-180 1546.1875,-180 1540.1875,-174 1540.1875,-168 1540.1875,-168 1540.1875,-156 1540.1875,-156 1540.1875,-150 1546.1875,-144 1552.1875,-144 1552.1875,-144 1609.1895,-144 1609.1895,-144 1615.1895,-144 1621.1895,-150 1621.1895,-156 1621.1895,-156 1621.1895,-168 1621.1895,-168 1621.1895,-174 1615.1895,-180 1609.1895,-180"/>
<text text-anchor="middle" x="1580.6885" y="-159" font-family="sans" font-size="10.00" fill="#000000">snp_split_hisat2</text>
</g>
<!-- 19&#45;&gt;30 -->
<g id="edge41" class="edge">
<title>19&#45;&gt;30</title>
<path fill="none" stroke="#c0c0c0" stroke-width="2" d="M1596.7982,-363.8831C1615.4013,-354.9645 1633.9998,-342.1153 1644.6885,-324 1671.1803,-279.1017 1632.9709,-221.2105 1605.1868,-188.1853"/>
<polygon fill="#c0c0c0" stroke="#c0c0c0" stroke-width="2" points="1607.588,-185.6119 1598.3934,-180.3479 1602.2985,-190.1968 1607.588,-185.6119"/>
</g>
<!-- 31 -->
<g id="node32" class="node">
<title>31</title>
<path fill="none" stroke="#afd856" stroke-width="2" d="M1708.1895,-180C1708.1895,-180 1651.1875,-180 1651.1875,-180 1645.1875,-180 1639.1875,-174 1639.1875,-168 1639.1875,-168 1639.1875,-156 1639.1875,-156 1639.1875,-150 1645.1875,-144 1651.1875,-144 1651.1875,-144 1708.1895,-144 1708.1895,-144 1714.1895,-144 1720.1895,-150 1720.1895,-156 1720.1895,-156 1720.1895,-168 1720.1895,-168 1720.1895,-174 1714.1895,-180 1708.1895,-180"/>
<text text-anchor="middle" x="1679.6885" y="-159" font-family="sans" font-size="10.00" fill="#000000">snp_split_hisat2</text>
</g>
<!-- 19&#45;&gt;31 -->
<g id="edge43" class="edge">
<title>19&#45;&gt;31</title>
<path fill="none" stroke="#c0c0c0" stroke-width="2" d="M1602.2033,-366.9004C1625.1506,-358.1692 1649.0671,-344.6608 1663.6885,-324 1691.7997,-284.2774 1689.3337,-224.7013 1684.7059,-189.9495"/>
<polygon fill="#c0c0c0" stroke="#c0c0c0" stroke-width="2" points="1688.1611,-189.3891 1683.2317,-180.0109 1681.2369,-190.4162 1688.1611,-189.3891"/>
</g>
<!-- 34 -->
<g id="node35" class="node">
<title>34</title>
<path fill="none" stroke="#afd856" stroke-width="2" d="M1510.1895,-180C1510.1895,-180 1453.1875,-180 1453.1875,-180 1447.1875,-180 1441.1875,-174 1441.1875,-168 1441.1875,-168 1441.1875,-156 1441.1875,-156 1441.1875,-150 1447.1875,-144 1453.1875,-144 1453.1875,-144 1510.1895,-144 1510.1895,-144 1516.1895,-144 1522.1895,-150 1522.1895,-156 1522.1895,-156 1522.1895,-168 1522.1895,-168 1522.1895,-174 1516.1895,-180 1510.1895,-180"/>
<text text-anchor="middle" x="1481.6885" y="-159" font-family="sans" font-size="10.00" fill="#000000">snp_split_hisat2</text>
</g>
<!-- 19&#45;&gt;34 -->
<g id="edge47" class="edge">
<title>19&#45;&gt;34</title>
<path fill="none" stroke="#c0c0c0" stroke-width="2" d="M1488.8659,-363.972C1470.9973,-354.8976 1452.8528,-341.9203 1442.6885,-324 1418.1627,-280.7593 1444.1368,-222.5739 1463.8644,-188.9916"/>
<polygon fill="#c0c0c0" stroke="#c0c0c0" stroke-width="2" points="1467.0034,-190.5663 1469.2158,-180.205 1461.0249,-186.9251 1467.0034,-190.5663"/>
</g>
<!-- 35 -->
<g id="node36" class="node">
<title>35</title>
<path fill="none" stroke="#56d0d8" stroke-width="2" d="M1401.7926,-252C1401.7926,-252 1363.5844,-252 1363.5844,-252 1357.5844,-252 1351.5844,-246 1351.5844,-240 1351.5844,-240 1351.5844,-228 1351.5844,-228 1351.5844,-222 1357.5844,-216 1363.5844,-216 1363.5844,-216 1401.7926,-216 1401.7926,-216 1407.7926,-216 1413.7926,-222 1413.7926,-228 1413.7926,-228 1413.7926,-240 1413.7926,-240 1413.7926,-246 1407.7926,-252 1401.7926,-252"/>
<text text-anchor="middle" x="1382.6885" y="-231" font-family="sans" font-size="10.00" fill="#000000">map_hisat2</text>
</g>
<!-- 19&#45;&gt;35 -->
<g id="edge50" class="edge">
<title>19&#45;&gt;35</title>
<path fill="none" stroke="#c0c0c0" stroke-width="2" d="M1476.8944,-366.9799C1437.6071,-356.1684 1392.3116,-340.6121 1380.6885,-324 1368.2148,-306.1722 1369.8996,-281.1178 1374.0324,-261.9693"/>
<polygon fill="#c0c0c0" stroke="#c0c0c0" stroke-width="2" points="1377.4892,-262.5713 1376.5059,-252.0222 1370.6961,-260.882 1377.4892,-262.5713"/>
</g>
<!-- 40 -->
<g id="node41" class="node">
<title>40</title>
<path fill="none" stroke="#56d0d8" stroke-width="2" d="M1953.7926,-252C1953.7926,-252 1915.5844,-252 1915.5844,-252 1909.5844,-252 1903.5844,-246 1903.5844,-240 1903.5844,-240 1903.5844,-228 1903.5844,-228 1903.5844,-222 1909.5844,-216 1915.5844,-216 1915.5844,-216 1953.7926,-216 1953.7926,-216 1959.7926,-216 1965.7926,-222 1965.7926,-228 1965.7926,-228 1965.7926,-240 1965.7926,-240 1965.7926,-246 1959.7926,-252 1953.7926,-252"/>
<text text-anchor="middle" x="1934.6885" y="-231" font-family="sans" font-size="10.00" fill="#000000">map_hisat2</text>
</g>
<!-- 19&#45;&gt;40 -->
<g id="edge58" class="edge">
<title>19&#45;&gt;40</title>
<path fill="none" stroke="#c0c0c0" stroke-width="2" d="M1602.1467,-374.7625C1696.5179,-363.3638 1866.9212,-340.799 1889.6885,-324 1910.0112,-309.0047 1921.7317,-282.2423 1928.0845,-261.786"/>
<polygon fill="#c0c0c0" stroke="#c0c0c0" stroke-width="2" points="1931.4858,-262.6213 1930.8604,-252.045 1924.7538,-260.7029 1931.4858,-262.6213"/>
</g>
<!-- 19&#45;&gt;41 -->
<g id="edge61" class="edge">
<title>19&#45;&gt;41</title>
<path fill="none" stroke="#c0c0c0" stroke-width="2" d="M1602.103,-370.4231C1657.036,-359.3266 1732.0075,-341.694 1756.6885,-324 1778.8233,-308.1314 1795.1353,-281.3569 1805.1179,-261.1266"/>
<polygon fill="#c0c0c0" stroke="#c0c0c0" stroke-width="2" points="1808.2858,-262.6146 1809.3825,-252.0767 1801.9537,-259.6307 1808.2858,-262.6146"/>
</g>
<!-- 19&#45;&gt;44 -->
<g id="edge65" class="edge">
<title>19&#45;&gt;44</title>
<path fill="none" stroke="#c0c0c0" stroke-width="2" d="M1477.053,-372.8944C1416.6156,-363.0084 1330.581,-345.6885 1304.6885,-324 1285.9361,-308.2923 1275.6508,-282.0338 1270.2255,-261.9223"/>
<polygon fill="#c0c0c0" stroke="#c0c0c0" stroke-width="2" points="1273.5877,-260.9364 1267.8124,-252.054 1266.788,-262.5992 1273.5877,-260.9364"/>
</g>
<!-- 19&#45;&gt;45 -->
<g id="edge69" class="edge">
<title>19&#45;&gt;45</title>
<path fill="none" stroke="#c0c0c0" stroke-width="2" d="M1477.244,-373.523C1392.7671,-361.5604 1250.4101,-339.4624 1231.6885,-324 1190.8376,-290.2607 1175.9256,-226.8232 1170.582,-190.1415"/>
<polygon fill="#c0c0c0" stroke="#c0c0c0" stroke-width="2" points="1174.0376,-189.5734 1169.2636,-180.1151 1167.0973,-190.4861 1174.0376,-189.5734"/>
</g>
<!-- 47 -->
<g id="node48" class="node">
<title>47</title>
<path fill="none" stroke="#afd856" stroke-width="2" d="M1963.1895,-180C1963.1895,-180 1906.1875,-180 1906.1875,-180 1900.1875,-180 1894.1875,-174 1894.1875,-168 1894.1875,-168 1894.1875,-156 1894.1875,-156 1894.1875,-150 1900.1875,-144 1906.1875,-144 1906.1875,-144 1963.1895,-144 1963.1895,-144 1969.1895,-144 1975.1895,-150 1975.1895,-156 1975.1895,-156 1975.1895,-168 1975.1895,-168 1975.1895,-174 1969.1895,-180 1963.1895,-180"/>
<text text-anchor="middle" x="1934.6885" y="-159" font-family="sans" font-size="10.00" fill="#000000">snp_split_hisat2</text>
</g>
<!-- 19&#45;&gt;47 -->
<g id="edge71" class="edge">
<title>19&#45;&gt;47</title>
<path fill="none" stroke="#c0c0c0" stroke-width="2" d="M1602.4044,-374.9706C1703.0072,-363.3133 1891.9233,-339.7112 1918.6885,-324 1953.6498,-303.4778 1961.5319,-290.3453 1974.6885,-252 1979.8811,-236.866 1979.7029,-231.1939 1974.6885,-216 1971.3977,-206.0288 1965.4769,-196.3944 1959.1821,-188.0924"/>
<polygon fill="#c0c0c0" stroke="#c0c0c0" stroke-width="2" points="1961.8605,-185.8384 1952.8461,-180.2714 1956.4213,-190.2448 1961.8605,-185.8384"/>
</g>
<!-- 57 -->
<g id="node58" class="node">
<title>57</title>
<path fill="none" stroke="#56d0d8" stroke-width="2" d="M1519.7926,-252C1519.7926,-252 1481.5844,-252 1481.5844,-252 1475.5844,-252 1469.5844,-246 1469.5844,-240 1469.5844,-240 1469.5844,-228 1469.5844,-228 1469.5844,-222 1475.5844,-216 1481.5844,-216 1481.5844,-216 1519.7926,-216 1519.7926,-216 1525.7926,-216 1531.7926,-222 1531.7926,-228 1531.7926,-228 1531.7926,-240 1531.7926,-240 1531.7926,-246 1525.7926,-252 1519.7926,-252"/>
<text text-anchor="middle" x="1500.6885" y="-231" font-family="sans" font-size="10.00" fill="#000000">map_hisat2</text>
</g>
<!-- 19&#45;&gt;57 -->
<g id="edge87" class="edge">
<title>19&#45;&gt;57</title>
<path fill="none" stroke="#c0c0c0" stroke-width="2" d="M1495.3185,-363.9601C1478.503,-354.681 1461.1457,-341.5597 1451.6885,-324 1444.1017,-309.9131 1445.9258,-302.9262 1451.6885,-288 1455.8077,-277.3306 1463.1221,-267.4665 1470.8634,-259.1681"/>
<polygon fill="#c0c0c0" stroke="#c0c0c0" stroke-width="2" points="1473.4233,-261.558 1478.0135,-252.0091 1468.4704,-256.6113 1473.4233,-261.558"/>
</g>
<!-- 58 -->
<g id="node59" class="node">
<title>58</title>
<path fill="none" stroke="#afd856" stroke-width="2" d="M1411.1895,-180C1411.1895,-180 1354.1875,-180 1354.1875,-180 1348.1875,-180 1342.1875,-174 1342.1875,-168 1342.1875,-168 1342.1875,-156 1342.1875,-156 1342.1875,-150 1348.1875,-144 1354.1875,-144 1354.1875,-144 1411.1895,-144 1411.1895,-144 1417.1895,-144 1423.1895,-150 1423.1895,-156 1423.1895,-156 1423.1895,-168 1423.1895,-168 1423.1895,-174 1417.1895,-180 1411.1895,-180"/>
<text text-anchor="middle" x="1382.6885" y="-159" font-family="sans" font-size="10.00" fill="#000000">snp_split_hisat2</text>
</g>
<!-- 19&#45;&gt;58 -->
<g id="edge89" class="edge">
<title>19&#45;&gt;58</title>
<path fill="none" stroke="#c0c0c0" stroke-width="2" d="M1477.2675,-374.7214C1441.0237,-367.4555 1396.8981,-352.9489 1367.6885,-324 1332.6941,-289.3179 1327.2474,-262.7871 1342.6885,-216 1345.9793,-206.0288 1351.9001,-196.3944 1358.1949,-188.0924"/>
<polygon fill="#c0c0c0" stroke="#c0c0c0" stroke-width="2" points="1360.9557,-190.2448 1364.5309,-180.2714 1355.5165,-185.8384 1360.9557,-190.2448"/>
</g>
<!-- 59 -->
<g id="node60" class="node">
<title>59</title>
<path fill="none" stroke="#56d0d8" stroke-width="2" d="M1755.7926,-252C1755.7926,-252 1717.5844,-252 1717.5844,-252 1711.5844,-252 1705.5844,-246 1705.5844,-240 1705.5844,-240 1705.5844,-228 1705.5844,-228 1705.5844,-222 1711.5844,-216 1717.5844,-216 1717.5844,-216 1755.7926,-216 1755.7926,-216 1761.7926,-216 1767.7926,-222 1767.7926,-228 1767.7926,-228 1767.7926,-240 1767.7926,-240 1767.7926,-246 1761.7926,-252 1755.7926,-252"/>
<text text-anchor="middle" x="1736.6885" y="-231" font-family="sans" font-size="10.00" fill="#000000">map_hisat2</text>
</g>
<!-- 19&#45;&gt;59 -->
<g id="edge91" class="edge">
<title>19&#45;&gt;59</title>
<path fill="none" stroke="#c0c0c0" stroke-width="2" d="M1602.2686,-371.8993C1653.6138,-362.1842 1720.4048,-345.7689 1736.6885,-324 1749.7785,-306.5005 1748.5653,-281.2584 1744.7705,-261.9574"/>
<polygon fill="#c0c0c0" stroke="#c0c0c0" stroke-width="2" points="1748.1821,-261.175 1742.5424,-252.2059 1741.3579,-262.7343 1748.1821,-261.175"/>
</g>
<!-- 62 -->
<g id="node63" class="node">
<title>62</title>
<path fill="none" stroke="#56d8d8" stroke-width="2" d="M1606.3309,-324C1606.3309,-324 1473.0461,-324 1473.0461,-324 1467.0461,-324 1461.0461,-318 1461.0461,-312 1461.0461,-312 1461.0461,-300 1461.0461,-300 1461.0461,-294 1467.0461,-288 1473.0461,-288 1473.0461,-288 1606.3309,-288 1606.3309,-288 1612.3309,-288 1618.3309,-294 1618.3309,-300 1618.3309,-300 1618.3309,-312 1618.3309,-312 1618.3309,-318 1612.3309,-324 1606.3309,-324"/>
<text text-anchor="middle" x="1539.6885" y="-309" font-family="sans" font-size="10.00" fill="#000000">build_hisat2</text>
<text text-anchor="middle" x="1539.6885" y="-297" font-family="sans" font-size="10.00" fill="#000000">genome: GRCm38.Cast_N&#45;masked</text>
</g>
<!-- 19&#45;&gt;62 -->
<g id="edge96" class="edge">
<title>19&#45;&gt;62</title>
<path fill="none" stroke="#c0c0c0" stroke-width="2" d="M1539.6885,-363.9891C1539.6885,-355.1566 1539.6885,-344.3099 1539.6885,-334.3965"/>
<polygon fill="#c0c0c0" stroke="#c0c0c0" stroke-width="2" points="1543.1886,-334.145 1539.6885,-324.145 1536.1886,-334.1451 1543.1886,-334.145"/>
</g>
<!-- 65 -->
<g id="node66" class="node">
<title>65</title>
<path fill="none" stroke="#56d0d8" stroke-width="2" d="M1599.7926,-252C1599.7926,-252 1561.5844,-252 1561.5844,-252 1555.5844,-252 1549.5844,-246 1549.5844,-240 1549.5844,-240 1549.5844,-228 1549.5844,-228 1549.5844,-222 1555.5844,-216 1561.5844,-216 1561.5844,-216 1599.7926,-216 1599.7926,-216 1605.7926,-216 1611.7926,-222 1611.7926,-228 1611.7926,-228 1611.7926,-240 1611.7926,-240 1611.7926,-246 1605.7926,-252 1599.7926,-252"/>
<text text-anchor="middle" x="1580.6885" y="-231" font-family="sans" font-size="10.00" fill="#000000">map_hisat2</text>
</g>
<!-- 19&#45;&gt;65 -->
<g id="edge101" class="edge">
<title>19&#45;&gt;65</title>
<path fill="none" stroke="#c0c0c0" stroke-width="2" d="M1584.0585,-363.9601C1600.874,-354.681 1618.2313,-341.5597 1627.6885,-324 1635.2753,-309.9131 1633.2964,-302.985 1627.6885,-288 1623.7931,-277.5911 1616.8844,-267.8652 1609.5429,-259.6152"/>
<polygon fill="#c0c0c0" stroke="#c0c0c0" stroke-width="2" points="1611.8899,-257.0048 1602.4557,-252.1835 1606.8242,-261.8358 1611.8899,-257.0048"/>
</g>
<!-- 20 -->
<g id="node21" class="node">
<title>20</title>
<path fill="none" stroke="#56c1d8" stroke-width="2" d="M126.6665,-476C126.6665,-476 24.7105,-476 24.7105,-476 18.7105,-476 12.7105,-470 12.7105,-464 12.7105,-464 12.7105,-452 12.7105,-452 12.7105,-446 18.7105,-440 24.7105,-440 24.7105,-440 126.6665,-440 126.6665,-440 132.6665,-440 138.6665,-446 138.6665,-452 138.6665,-452 138.6665,-464 138.6665,-464 138.6665,-470 132.6665,-476 126.6665,-476"/>
<text text-anchor="middle" x="75.6885" y="-461" font-family="sans" font-size="10.00" fill="#000000">download_rnaseq_B6Cast2</text>
<text text-anchor="middle" x="75.6885" y="-449" font-family="sans" font-size="10.00" fill="#000000">file: 2</text>
</g>
<!-- 20&#45;&gt;17 -->
<g id="edge28" class="edge">
<title>20&#45;&gt;17</title>
<path fill="none" stroke="#c0c0c0" stroke-width="2" d="M71.6597,-439.9891C69.9378,-432.291 67.8736,-423.0629 65.9037,-414.2561"/>
<polygon fill="#c0c0c0" stroke="#c0c0c0" stroke-width="2" points="69.2592,-413.223 63.6606,-404.2282 62.428,-414.7511 69.2592,-413.223"/>
</g>
<!-- 20&#45;&gt;48 -->
<g id="edge76" class="edge">
<title>20&#45;&gt;48</title>
<path fill="none" stroke="#c0c0c0" stroke-width="2" d="M94.7483,-439.9507C104.8513,-429.8779 117.116,-416.8082 126.6885,-404 143.5741,-381.4068 159.4165,-353.3992 170.0924,-333.1186"/>
<polygon fill="#c0c0c0" stroke="#c0c0c0" stroke-width="2" points="173.264,-334.6055 174.7596,-324.1167 167.0496,-331.3835 173.264,-334.6055"/>
</g>
<!-- 21 -->
<g id="node22" class="node">
<title>21</title>
<path fill="none" stroke="#9fd856" stroke-width="2" d="M1665.0157,-620C1665.0157,-620 1602.3613,-620 1602.3613,-620 1596.3613,-620 1590.3613,-614 1590.3613,-608 1590.3613,-608 1590.3613,-596 1590.3613,-596 1590.3613,-590 1596.3613,-584 1602.3613,-584 1602.3613,-584 1665.0157,-584 1665.0157,-584 1671.0157,-584 1677.0157,-590 1677.0157,-596 1677.0157,-596 1677.0157,-608 1677.0157,-608 1677.0157,-614 1671.0157,-620 1665.0157,-620"/>
<text text-anchor="middle" x="1633.6885" y="-605" font-family="sans" font-size="10.00" fill="#000000">download_vcf</text>
<text text-anchor="middle" x="1633.6885" y="-593" font-family="sans" font-size="10.00" fill="#000000">strain: CAST_EiJ</text>
</g>
<!-- 53 -->
<g id="node54" class="node">
<title>53</title>
<path fill="none" stroke="#59d856" stroke-width="2" d="M1741.8927,-548C1741.8927,-548 1525.4843,-548 1525.4843,-548 1519.4843,-548 1513.4843,-542 1513.4843,-536 1513.4843,-536 1513.4843,-524 1513.4843,-524 1513.4843,-518 1519.4843,-512 1525.4843,-512 1525.4843,-512 1741.8927,-512 1741.8927,-512 1747.8927,-512 1753.8927,-518 1753.8927,-524 1753.8927,-524 1753.8927,-536 1753.8927,-536 1753.8927,-542 1747.8927,-548 1741.8927,-548"/>
<text text-anchor="middle" x="1633.6885" y="-533" font-family="sans" font-size="10.00" fill="#000000">gunzip_vcf</text>
<text text-anchor="middle" x="1633.6885" y="-521" font-family="sans" font-size="10.00" fill="#000000">file: ../genome_data/CAST_EiJ.mgp.v5.snps.dbSNP142</text>
</g>
<!-- 21&#45;&gt;53 -->
<g id="edge80" class="edge">
<title>21&#45;&gt;53</title>
<path fill="none" stroke="#c0c0c0" stroke-width="2" d="M1633.6885,-583.8314C1633.6885,-576.131 1633.6885,-566.9743 1633.6885,-558.4166"/>
<polygon fill="#c0c0c0" stroke="#c0c0c0" stroke-width="2" points="1637.1886,-558.4132 1633.6885,-548.4133 1630.1886,-558.4133 1637.1886,-558.4132"/>
</g>
<!-- 22&#45;&gt;1 -->
<g id="edge6" class="edge">
<title>22&#45;&gt;1</title>
<path fill="none" stroke="#c0c0c0" stroke-width="2" d="M2597.278,-359.8133C2580.1793,-350.1874 2560.1538,-338.9138 2542.8617,-329.179"/>
<polygon fill="#c0c0c0" stroke="#c0c0c0" stroke-width="2" points="2544.5292,-326.1012 2534.0981,-324.2454 2541.0952,-332.2011 2544.5292,-326.1012"/>
</g>
<!-- 23 -->
<g id="node24" class="node">
<title>23</title>
<path fill="none" stroke="#56d85b" stroke-width="2" d="M2186.6665,-476C2186.6665,-476 2084.7105,-476 2084.7105,-476 2078.7105,-476 2072.7105,-470 2072.7105,-464 2072.7105,-464 2072.7105,-452 2072.7105,-452 2072.7105,-446 2078.7105,-440 2084.7105,-440 2084.7105,-440 2186.6665,-440 2186.6665,-440 2192.6665,-440 2198.6665,-446 2198.6665,-452 2198.6665,-452 2198.6665,-464 2198.6665,-464 2198.6665,-470 2192.6665,-476 2186.6665,-476"/>
<text text-anchor="middle" x="2135.6885" y="-461" font-family="sans" font-size="10.00" fill="#000000">download_rnaseq_CastB62</text>
<text text-anchor="middle" x="2135.6885" y="-449" font-family="sans" font-size="10.00" fill="#000000">file: 1</text>
</g>
<!-- 23&#45;&gt;29 -->
<g id="edge39" class="edge">
<title>23&#45;&gt;29</title>
<path fill="none" stroke="#c0c0c0" stroke-width="2" d="M2113.0135,-439.9909C2102.8997,-430.4972 2092.0687,-417.9355 2086.6885,-404 2079.6452,-385.7569 2078.1856,-377.6102 2086.6885,-360 2092.3779,-348.2168 2102.0263,-338.2163 2112.295,-330.144"/>
<polygon fill="#c0c0c0" stroke="#c0c0c0" stroke-width="2" points="2114.583,-332.8073 2120.5995,-324.0865 2110.4578,-327.152 2114.583,-332.8073"/>
</g>
<!-- 56 -->
<g id="node57" class="node">
<title>56</title>
<path fill="none" stroke="#5663d8" stroke-width="2" d="M2201.5661,-404C2201.5661,-404 2107.8109,-404 2107.8109,-404 2101.8109,-404 2095.8109,-398 2095.8109,-392 2095.8109,-392 2095.8109,-372 2095.8109,-372 2095.8109,-366 2101.8109,-360 2107.8109,-360 2107.8109,-360 2201.5661,-360 2201.5661,-360 2207.5661,-360 2213.5661,-366 2213.5661,-372 2213.5661,-372 2213.5661,-392 2213.5661,-392 2213.5661,-398 2207.5661,-404 2201.5661,-404"/>
<text text-anchor="middle" x="2154.6885" y="-391" font-family="sans" font-size="10.00" fill="#000000">fastq_md5</text>
<text text-anchor="middle" x="2154.6885" y="-379" font-family="sans" font-size="10.00" fill="#000000">archive: CastB6F1_2_R1</text>
<text text-anchor="middle" x="2154.6885" y="-367" font-family="sans" font-size="10.00" fill="#000000">outdir: rna_seq</text>
</g>
<!-- 23&#45;&gt;56 -->
<g id="edge85" class="edge">
<title>23&#45;&gt;56</title>
<path fill="none" stroke="#c0c0c0" stroke-width="2" d="M2140.1912,-439.9891C2142.1367,-432.2073 2144.473,-422.8621 2146.6962,-413.9691"/>
<polygon fill="#c0c0c0" stroke="#c0c0c0" stroke-width="2" points="2150.1015,-414.7785 2149.1314,-404.2282 2143.3105,-413.0807 2150.1015,-414.7785"/>
</g>
<!-- 24&#45;&gt;2 -->
<g id="edge14" class="edge">
<title>24&#45;&gt;2</title>
<path fill="none" stroke="#c0c0c0" stroke-width="2" d="M1109.0286,-144.9826C1202.6179,-131.1744 1331.5783,-112.1474 1410.6526,-100.4807"/>
<polygon fill="#c0c0c0" stroke="#c0c0c0" stroke-width="2" points="1411.612,-103.8771 1420.994,-98.9549 1410.5902,-96.9521 1411.612,-103.8771"/>
</g>
<!-- 25 -->
<g id="node26" class="node">
<title>25</title>
<path fill="none" stroke="#56d8c9" stroke-width="2" d="M823.6665,-476C823.6665,-476 721.7105,-476 721.7105,-476 715.7105,-476 709.7105,-470 709.7105,-464 709.7105,-464 709.7105,-452 709.7105,-452 709.7105,-446 715.7105,-440 721.7105,-440 721.7105,-440 823.6665,-440 823.6665,-440 829.6665,-440 835.6665,-446 835.6665,-452 835.6665,-452 835.6665,-464 835.6665,-464 835.6665,-470 829.6665,-476 823.6665,-476"/>
<text text-anchor="middle" x="772.6885" y="-461" font-family="sans" font-size="10.00" fill="#000000">download_rnaseq_B6Cast5</text>
<text text-anchor="middle" x="772.6885" y="-449" font-family="sans" font-size="10.00" fill="#000000">file: 2</text>
</g>
<!-- 27 -->
<g id="node28" class="node">
<title>27</title>
<path fill="none" stroke="#5663d8" stroke-width="2" d="M838.5661,-404C838.5661,-404 744.8109,-404 744.8109,-404 738.8109,-404 732.8109,-398 732.8109,-392 732.8109,-392 732.8109,-372 732.8109,-372 732.8109,-366 738.8109,-360 744.8109,-360 744.8109,-360 838.5661,-360 838.5661,-360 844.5661,-360 850.5661,-366 850.5661,-372 850.5661,-372 850.5661,-392 850.5661,-392 850.5661,-398 844.5661,-404 838.5661,-404"/>
<text text-anchor="middle" x="791.6885" y="-391" font-family="sans" font-size="10.00" fill="#000000">fastq_md5</text>
<text text-anchor="middle" x="791.6885" y="-379" font-family="sans" font-size="10.00" fill="#000000">archive: B6CastF1_5_R2</text>
<text text-anchor="middle" x="791.6885" y="-367" font-family="sans" font-size="10.00" fill="#000000">outdir: rna_seq</text>
</g>
<!-- 25&#45;&gt;27 -->
<g id="edge36" class="edge">
<title>25&#45;&gt;27</title>
<path fill="none" stroke="#c0c0c0" stroke-width="2" d="M777.1912,-439.9891C779.1367,-432.2073 781.473,-422.8621 783.6962,-413.9691"/>
<polygon fill="#c0c0c0" stroke="#c0c0c0" stroke-width="2" points="787.1015,-414.7785 786.1314,-404.2282 780.3105,-413.0807 787.1015,-414.7785"/>
</g>
<!-- 55 -->
<g id="node56" class="node">
<title>55</title>
<path fill="none" stroke="#56d863" stroke-width="2" d="M964.2973,-324C964.2973,-324 889.0797,-324 889.0797,-324 883.0797,-324 877.0797,-318 877.0797,-312 877.0797,-312 877.0797,-300 877.0797,-300 877.0797,-294 883.0797,-288 889.0797,-288 889.0797,-288 964.2973,-288 964.2973,-288 970.2973,-288 976.2973,-294 976.2973,-300 976.2973,-300 976.2973,-312 976.2973,-312 976.2973,-318 970.2973,-324 964.2973,-324"/>
<text text-anchor="middle" x="926.6885" y="-309" font-family="sans" font-size="10.00" fill="#000000">trim_galore</text>
<text text-anchor="middle" x="926.6885" y="-297" font-family="sans" font-size="10.00" fill="#000000">sample: B6CastF1_5</text>
</g>
<!-- 25&#45;&gt;55 -->
<g id="edge83" class="edge">
<title>25&#45;&gt;55</title>
<path fill="none" stroke="#c0c0c0" stroke-width="2" d="M750.0135,-439.9909C739.8997,-430.4972 729.0687,-417.9355 723.6885,-404 716.6452,-385.7569 711.7698,-375.5037 723.6885,-360 741.1242,-337.3198 813.432,-322.1572 866.807,-313.8162"/>
<polygon fill="#c0c0c0" stroke="#c0c0c0" stroke-width="2" points="867.5099,-317.2497 876.8712,-312.2883 866.4592,-310.329 867.5099,-317.2497"/>
</g>
<!-- 26&#45;&gt;65 -->
<g id="edge99" class="edge">
<title>26&#45;&gt;65</title>
<path fill="none" stroke="#c0c0c0" stroke-width="2" d="M1979.9221,-298.0196C1890.5862,-283.6941 1704.6422,-253.8768 1621.9152,-240.611"/>
<polygon fill="#c0c0c0" stroke="#c0c0c0" stroke-width="2" points="1622.3107,-237.1297 1611.8826,-239.0022 1621.2023,-244.0414 1622.3107,-237.1297"/>
</g>
<!-- 27&#45;&gt;55 -->
<g id="edge81" class="edge">
<title>27&#45;&gt;55</title>
<path fill="none" stroke="#c0c0c0" stroke-width="2" d="M831.099,-359.8133C848.1977,-350.1874 868.2232,-338.9138 885.5153,-329.179"/>
<polygon fill="#c0c0c0" stroke="#c0c0c0" stroke-width="2" points="887.2818,-332.2011 894.2789,-324.2454 883.8478,-326.1012 887.2818,-332.2011"/>
</g>
<!-- 28 -->
<g id="node29" class="node">
<title>28</title>
<path fill="none" stroke="#567bd8" stroke-width="2" d="M3053.6665,-476C3053.6665,-476 2951.7105,-476 2951.7105,-476 2945.7105,-476 2939.7105,-470 2939.7105,-464 2939.7105,-464 2939.7105,-452 2939.7105,-452 2939.7105,-446 2945.7105,-440 2951.7105,-440 2951.7105,-440 3053.6665,-440 3053.6665,-440 3059.6665,-440 3065.6665,-446 3065.6665,-452 3065.6665,-452 3065.6665,-464 3065.6665,-464 3065.6665,-470 3059.6665,-476 3053.6665,-476"/>
<text text-anchor="middle" x="3002.6885" y="-461" font-family="sans" font-size="10.00" fill="#000000">download_rnaseq_CastB65</text>
<text text-anchor="middle" x="3002.6885" y="-449" font-family="sans" font-size="10.00" fill="#000000">file: 2</text>
</g>
<!-- 28&#45;&gt;6 -->
<g id="edge18" class="edge">
<title>28&#45;&gt;6</title>
<path fill="none" stroke="#c0c0c0" stroke-width="2" d="M2998.1858,-439.9891C2996.2403,-432.2073 2993.904,-422.8621 2991.6808,-413.9691"/>
<polygon fill="#c0c0c0" stroke="#c0c0c0" stroke-width="2" points="2995.0665,-413.0807 2989.2456,-404.2282 2988.2755,-414.7785 2995.0665,-413.0807"/>
</g>
<!-- 28&#45;&gt;66 -->
<g id="edge102" class="edge">
<title>28&#45;&gt;66</title>
<path fill="none" stroke="#c0c0c0" stroke-width="2" d="M3025.3635,-439.9909C3035.4773,-430.4972 3046.3083,-417.9355 3051.6885,-404 3058.7318,-385.7569 3063.6072,-375.5037 3051.6885,-360 3034.2528,-337.3198 2961.945,-322.1572 2908.57,-313.8162"/>
<polygon fill="#c0c0c0" stroke="#c0c0c0" stroke-width="2" points="2908.9178,-310.329 2898.5058,-312.2883 2907.8671,-317.2497 2908.9178,-310.329"/>
</g>
<!-- 29&#45;&gt;59 -->
<g id="edge93" class="edge">
<title>29&#45;&gt;59</title>
<path fill="none" stroke="#c0c0c0" stroke-width="2" d="M2104.7847,-291.5362C2099.3785,-290.2249 2093.9363,-289.0123 2088.6885,-288 1954.841,-262.1801 1913.2056,-287.8192 1777.7124,-251.7928"/>
<polygon fill="#c0c0c0" stroke="#c0c0c0" stroke-width="2" points="1778.3604,-248.3419 1767.7921,-249.0908 1776.5208,-255.0959 1778.3604,-248.3419"/>
</g>
<!-- 30&#45;&gt;2 -->
<g id="edge11" class="edge">
<title>30&#45;&gt;2</title>
<path fill="none" stroke="#c0c0c0" stroke-width="2" d="M1555.7066,-143.8314C1543.3957,-134.8779 1528.3778,-123.9558 1515.0948,-114.2955"/>
<polygon fill="#c0c0c0" stroke="#c0c0c0" stroke-width="2" points="1516.8084,-111.214 1506.6624,-108.1628 1512.6912,-116.8752 1516.8084,-111.214"/>
</g>
<!-- 31&#45;&gt;2 -->
<g id="edge10" class="edge">
<title>31&#45;&gt;2</title>
<path fill="none" stroke="#c0c0c0" stroke-width="2" d="M1639.0516,-147.0567C1636.2218,-146.0209 1633.4129,-144.9941 1630.6885,-144 1601.2086,-133.2434 1568.4219,-121.353 1541.1262,-111.4742"/>
<polygon fill="#c0c0c0" stroke="#c0c0c0" stroke-width="2" points="1542.309,-108.1802 1531.7148,-108.069 1539.9274,-114.7626 1542.309,-108.1802"/>
</g>
<!-- 32&#45;&gt;29 -->
<g id="edge40" class="edge">
<title>32&#45;&gt;29</title>
<path fill="none" stroke="#c0c0c0" stroke-width="2" d="M2250.278,-359.8133C2233.1793,-350.1874 2213.1538,-338.9138 2195.8617,-329.179"/>
<polygon fill="#c0c0c0" stroke="#c0c0c0" stroke-width="2" points="2197.5292,-326.1012 2187.0981,-324.2454 2194.0952,-332.2011 2197.5292,-326.1012"/>
</g>
<!-- 33 -->
<g id="node34" class="node">
<title>33</title>
<path fill="none" stroke="#56c1d8" stroke-width="2" d="M304.6665,-476C304.6665,-476 202.7105,-476 202.7105,-476 196.7105,-476 190.7105,-470 190.7105,-464 190.7105,-464 190.7105,-452 190.7105,-452 190.7105,-446 196.7105,-440 202.7105,-440 202.7105,-440 304.6665,-440 304.6665,-440 310.6665,-440 316.6665,-446 316.6665,-452 316.6665,-452 316.6665,-464 316.6665,-464 316.6665,-470 310.6665,-476 304.6665,-476"/>
<text text-anchor="middle" x="253.6885" y="-461" font-family="sans" font-size="10.00" fill="#000000">download_rnaseq_B6Cast2</text>
<text text-anchor="middle" x="253.6885" y="-449" font-family="sans" font-size="10.00" fill="#000000">file: 1</text>
</g>
<!-- 33&#45;&gt;48 -->
<g id="edge74" class="edge">
<title>33&#45;&gt;48</title>
<path fill="none" stroke="#c0c0c0" stroke-width="2" d="M231.5234,-439.8868C221.2079,-430.2805 209.6952,-417.6523 202.6885,-404 191.5538,-382.3043 186.9193,-354.8512 185.0033,-334.5246"/>
<polygon fill="#c0c0c0" stroke="#c0c0c0" stroke-width="2" points="188.4755,-334.0294 184.2117,-324.3304 181.4965,-334.5714 188.4755,-334.0294"/>
</g>
<!-- 60 -->
<g id="node61" class="node">
<title>60</title>
<path fill="none" stroke="#5663d8" stroke-width="2" d="M317.5661,-404C317.5661,-404 223.8109,-404 223.8109,-404 217.8109,-404 211.8109,-398 211.8109,-392 211.8109,-392 211.8109,-372 211.8109,-372 211.8109,-366 217.8109,-360 223.8109,-360 223.8109,-360 317.5661,-360 317.5661,-360 323.5661,-360 329.5661,-366 329.5661,-372 329.5661,-372 329.5661,-392 329.5661,-392 329.5661,-398 323.5661,-404 317.5661,-404"/>
<text text-anchor="middle" x="270.6885" y="-391" font-family="sans" font-size="10.00" fill="#000000">fastq_md5</text>
<text text-anchor="middle" x="270.6885" y="-379" font-family="sans" font-size="10.00" fill="#000000">archive: B6CastF1_2_R1</text>
<text text-anchor="middle" x="270.6885" y="-367" font-family="sans" font-size="10.00" fill="#000000">outdir: rna_seq</text>
</g>
<!-- 33&#45;&gt;60 -->
<g id="edge94" class="edge">
<title>33&#45;&gt;60</title>
<path fill="none" stroke="#c0c0c0" stroke-width="2" d="M257.7173,-439.9891C259.4392,-432.291 261.5034,-423.0629 263.4733,-414.2561"/>
<polygon fill="#c0c0c0" stroke="#c0c0c0" stroke-width="2" points="266.949,-414.7511 265.7164,-404.2282 260.1178,-413.223 266.949,-414.7511"/>
</g>
<!-- 34&#45;&gt;2 -->
<g id="edge13" class="edge">
<title>34&#45;&gt;2</title>
<path fill="none" stroke="#c0c0c0" stroke-width="2" d="M1481.6885,-143.8314C1481.6885,-136.131 1481.6885,-126.9743 1481.6885,-118.4166"/>
<polygon fill="#c0c0c0" stroke="#c0c0c0" stroke-width="2" points="1485.1886,-118.4132 1481.6885,-108.4133 1478.1886,-118.4133 1485.1886,-118.4132"/>
</g>
<!-- 35&#45;&gt;58 -->
<g id="edge90" class="edge">
<title>35&#45;&gt;58</title>
<path fill="none" stroke="#c0c0c0" stroke-width="2" d="M1382.6885,-215.8314C1382.6885,-208.131 1382.6885,-198.9743 1382.6885,-190.4166"/>
<polygon fill="#c0c0c0" stroke="#c0c0c0" stroke-width="2" points="1386.1886,-190.4132 1382.6885,-180.4133 1379.1886,-190.4133 1386.1886,-190.4132"/>
</g>
<!-- 36&#45;&gt;57 -->
<g id="edge88" class="edge">
<title>36&#45;&gt;57</title>
<path fill="none" stroke="#c0c0c0" stroke-width="2" d="M1101.4113,-300.0834C1172.8008,-291.2894 1308.3426,-273.4778 1422.6885,-252 1434.626,-249.7578 1447.5038,-246.9486 1459.2885,-244.2208"/>
<polygon fill="#c0c0c0" stroke="#c0c0c0" stroke-width="2" points="1460.3804,-247.5595 1469.3122,-241.861 1458.7762,-240.7458 1460.3804,-247.5595"/>
</g>
<!-- 37 -->
<g id="node38" class="node">
<title>37</title>
<path fill="none" stroke="#5663d8" stroke-width="2" d="M973.5661,-404C973.5661,-404 879.8109,-404 879.8109,-404 873.8109,-404 867.8109,-398 867.8109,-392 867.8109,-392 867.8109,-372 867.8109,-372 867.8109,-366 873.8109,-360 879.8109,-360 879.8109,-360 973.5661,-360 973.5661,-360 979.5661,-360 985.5661,-366 985.5661,-372 985.5661,-372 985.5661,-392 985.5661,-392 985.5661,-398 979.5661,-404 973.5661,-404"/>
<text text-anchor="middle" x="926.6885" y="-391" font-family="sans" font-size="10.00" fill="#000000">fastq_md5</text>
<text text-anchor="middle" x="926.6885" y="-379" font-family="sans" font-size="10.00" fill="#000000">archive: B6CastF1_5_R1</text>
<text text-anchor="middle" x="926.6885" y="-367" font-family="sans" font-size="10.00" fill="#000000">outdir: rna_seq</text>
</g>
<!-- 37&#45;&gt;55 -->
<g id="edge82" class="edge">
<title>37&#45;&gt;55</title>
<path fill="none" stroke="#c0c0c0" stroke-width="2" d="M926.6885,-359.6086C926.6885,-351.7272 926.6885,-342.7616 926.6885,-334.4482"/>
<polygon fill="#c0c0c0" stroke="#c0c0c0" stroke-width="2" points="930.1886,-334.3974 926.6885,-324.3975 923.1886,-334.3975 930.1886,-334.3974"/>
</g>
<!-- 38&#45;&gt;26 -->
<g id="edge34" class="edge">
<title>38&#45;&gt;26</title>
<path fill="none" stroke="#c0c0c0" stroke-width="2" d="M1968.3208,-359.6086C1978.6257,-350.6065 1990.5499,-340.1901 2001.1312,-330.9466"/>
<polygon fill="#c0c0c0" stroke="#c0c0c0" stroke-width="2" points="2003.6835,-333.3644 2008.912,-324.1496 1999.0782,-328.0926 2003.6835,-333.3644"/>
</g>
<!-- 39 -->
<g id="node40" class="node">
<title>39</title>
<path fill="none" stroke="#68d856" stroke-width="2" d="M1348.6665,-476C1348.6665,-476 1246.7105,-476 1246.7105,-476 1240.7105,-476 1234.7105,-470 1234.7105,-464 1234.7105,-464 1234.7105,-452 1234.7105,-452 1234.7105,-446 1240.7105,-440 1246.7105,-440 1246.7105,-440 1348.6665,-440 1348.6665,-440 1354.6665,-440 1360.6665,-446 1360.6665,-452 1360.6665,-452 1360.6665,-464 1360.6665,-464 1360.6665,-470 1354.6665,-476 1348.6665,-476"/>
<text text-anchor="middle" x="1297.6885" y="-461" font-family="sans" font-size="10.00" fill="#000000">download_rnaseq_B6Cast3</text>
<text text-anchor="middle" x="1297.6885" y="-449" font-family="sans" font-size="10.00" fill="#000000">file: 1</text>
</g>
<!-- 39&#45;&gt;36 -->
<g id="edge51" class="edge">
<title>39&#45;&gt;36</title>
<path fill="none" stroke="#c0c0c0" stroke-width="2" d="M1279.2411,-439.7866C1268.9146,-429.4473 1255.9002,-416.1757 1244.6885,-404 1227.1855,-384.9921 1228.0604,-374.5223 1206.6885,-360 1190.6237,-349.0839 1147.7175,-334.4816 1111.1109,-323.2142"/>
<polygon fill="#c0c0c0" stroke="#c0c0c0" stroke-width="2" points="1112.0577,-319.8439 1101.4718,-320.2784 1110.0182,-326.5402 1112.0577,-319.8439"/>
</g>
<!-- 42 -->
<g id="node43" class="node">
<title>42</title>
<path fill="none" stroke="#5663d8" stroke-width="2" d="M1359.5661,-404C1359.5661,-404 1265.8109,-404 1265.8109,-404 1259.8109,-404 1253.8109,-398 1253.8109,-392 1253.8109,-392 1253.8109,-372 1253.8109,-372 1253.8109,-366 1259.8109,-360 1265.8109,-360 1265.8109,-360 1359.5661,-360 1359.5661,-360 1365.5661,-360 1371.5661,-366 1371.5661,-372 1371.5661,-372 1371.5661,-392 1371.5661,-392 1371.5661,-398 1365.5661,-404 1359.5661,-404"/>
<text text-anchor="middle" x="1312.6885" y="-391" font-family="sans" font-size="10.00" fill="#000000">fastq_md5</text>
<text text-anchor="middle" x="1312.6885" y="-379" font-family="sans" font-size="10.00" fill="#000000">archive: B6CastF1_3_R1</text>
<text text-anchor="middle" x="1312.6885" y="-367" font-family="sans" font-size="10.00" fill="#000000">outdir: rna_seq</text>
</g>
<!-- 39&#45;&gt;42 -->
<g id="edge63" class="edge">
<title>39&#45;&gt;42</title>
<path fill="none" stroke="#c0c0c0" stroke-width="2" d="M1301.2433,-439.9891C1302.7626,-432.291 1304.584,-423.0629 1306.3222,-414.2561"/>
<polygon fill="#c0c0c0" stroke="#c0c0c0" stroke-width="2" points="1309.7987,-414.7167 1308.3014,-404.2282 1302.9312,-413.3612 1309.7987,-414.7167"/>
</g>
<!-- 40&#45;&gt;47 -->
<g id="edge72" class="edge">
<title>40&#45;&gt;47</title>
<path fill="none" stroke="#c0c0c0" stroke-width="2" d="M1934.6885,-215.8314C1934.6885,-208.131 1934.6885,-198.9743 1934.6885,-190.4166"/>
<polygon fill="#c0c0c0" stroke="#c0c0c0" stroke-width="2" points="1938.1886,-190.4132 1934.6885,-180.4133 1931.1886,-190.4133 1938.1886,-190.4132"/>
</g>
<!-- 41&#45;&gt;0 -->
<g id="edge2" class="edge">
<title>41&#45;&gt;0</title>
<path fill="none" stroke="#c0c0c0" stroke-width="2" d="M1816.6885,-215.8314C1816.6885,-208.131 1816.6885,-198.9743 1816.6885,-190.4166"/>
<polygon fill="#c0c0c0" stroke="#c0c0c0" stroke-width="2" points="1820.1886,-190.4132 1816.6885,-180.4133 1813.1886,-190.4133 1820.1886,-190.4132"/>
</g>
<!-- 42&#45;&gt;36 -->
<g id="edge54" class="edge">
<title>42&#45;&gt;36</title>
<path fill="none" stroke="#c0c0c0" stroke-width="2" d="M1253.7415,-364.1634C1248.9891,-362.7473 1244.2598,-361.3453 1239.6885,-360 1196.775,-347.3711 1148.247,-333.441 1111.2451,-322.8927"/>
<polygon fill="#c0c0c0" stroke="#c0c0c0" stroke-width="2" points="1112.1901,-319.5227 1101.6138,-320.1492 1110.2723,-326.2549 1112.1901,-319.5227"/>
</g>
<!-- 43&#45;&gt;12 -->
<g id="edge22" class="edge">
<title>43&#45;&gt;12</title>
<path fill="none" stroke="#c0c0c0" stroke-width="2" d="M579.6885,-359.6086C579.6885,-351.7272 579.6885,-342.7616 579.6885,-334.4482"/>
<polygon fill="#c0c0c0" stroke="#c0c0c0" stroke-width="2" points="583.1886,-334.3974 579.6885,-324.3975 576.1886,-334.3975 583.1886,-334.3974"/>
</g>
<!-- 44&#45;&gt;15 -->
<g id="edge27" class="edge">
<title>44&#45;&gt;15</title>
<path fill="none" stroke="#c0c0c0" stroke-width="2" d="M1265.1932,-215.8314C1265.4071,-208.131 1265.6614,-198.9743 1265.8991,-190.4166"/>
<polygon fill="#c0c0c0" stroke="#c0c0c0" stroke-width="2" points="1269.3979,-190.5066 1266.177,-180.4133 1262.4006,-190.3122 1269.3979,-190.5066"/>
</g>
<!-- 45&#45;&gt;2 -->
<g id="edge8" class="edge">
<title>45&#45;&gt;2</title>
<path fill="none" stroke="#c0c0c0" stroke-width="2" d="M1208.4436,-146.5055C1211.2191,-145.6123 1213.9858,-144.767 1216.6885,-144 1281.6122,-125.5744 1357.1713,-110.8162 1410.9559,-101.4158"/>
<polygon fill="#c0c0c0" stroke="#c0c0c0" stroke-width="2" points="1411.8178,-104.8188 1421.0749,-99.6655 1410.6247,-97.9212 1411.8178,-104.8188"/>
</g>
<!-- 46&#45;&gt;66 -->
<g id="edge103" class="edge">
<title>46&#45;&gt;66</title>
<path fill="none" stroke="#c0c0c0" stroke-width="2" d="M2848.6885,-359.6086C2848.6885,-351.7272 2848.6885,-342.7616 2848.6885,-334.4482"/>
<polygon fill="#c0c0c0" stroke="#c0c0c0" stroke-width="2" points="2852.1886,-334.3974 2848.6885,-324.3975 2845.1886,-334.3975 2852.1886,-334.3974"/>
</g>
<!-- 47&#45;&gt;2 -->
<g id="edge12" class="edge">
<title>47&#45;&gt;2</title>
<path fill="none" stroke="#c0c0c0" stroke-width="2" d="M1893.8815,-150.3523C1884.9661,-148.045 1875.547,-145.7871 1866.6885,-144 1757.9384,-122.0616 1630.1207,-106.0334 1552.5537,-97.3702"/>
<polygon fill="#c0c0c0" stroke="#c0c0c0" stroke-width="2" points="1552.7404,-93.8695 1542.416,-96.2479 1551.9702,-100.827 1552.7404,-93.8695"/>
</g>
<!-- 48&#45;&gt;9 -->
<g id="edge21" class="edge">
<title>48&#45;&gt;9</title>
<path fill="none" stroke="#c0c0c0" stroke-width="2" d="M233.3846,-303.4101C403.93,-294.4461 959.2734,-264.6027 1038.6885,-252 1048.1537,-250.4979 1058.2017,-248.29 1067.6422,-245.9311"/>
<polygon fill="#c0c0c0" stroke="#c0c0c0" stroke-width="2" points="1068.7973,-249.247 1077.5915,-243.3384 1067.032,-242.4732 1068.7973,-249.247"/>
</g>
<!-- 49 -->
<g id="node50" class="node">
<title>49</title>
<path fill="none" stroke="#56d8c9" stroke-width="2" d="M996.6665,-476C996.6665,-476 894.7105,-476 894.7105,-476 888.7105,-476 882.7105,-470 882.7105,-464 882.7105,-464 882.7105,-452 882.7105,-452 882.7105,-446 888.7105,-440 894.7105,-440 894.7105,-440 996.6665,-440 996.6665,-440 1002.6665,-440 1008.6665,-446 1008.6665,-452 1008.6665,-452 1008.6665,-464 1008.6665,-464 1008.6665,-470 1002.6665,-476 996.6665,-476"/>
<text text-anchor="middle" x="945.6885" y="-461" font-family="sans" font-size="10.00" fill="#000000">download_rnaseq_B6Cast5</text>
<text text-anchor="middle" x="945.6885" y="-449" font-family="sans" font-size="10.00" fill="#000000">file: 1</text>
</g>
<!-- 49&#45;&gt;37 -->
<g id="edge55" class="edge">
<title>49&#45;&gt;37</title>
<path fill="none" stroke="#c0c0c0" stroke-width="2" d="M941.1858,-439.9891C939.2403,-432.2073 936.904,-422.8621 934.6808,-413.9691"/>
<polygon fill="#c0c0c0" stroke="#c0c0c0" stroke-width="2" points="938.0665,-413.0807 932.2456,-404.2282 931.2755,-414.7785 938.0665,-413.0807"/>
</g>
<!-- 49&#45;&gt;55 -->
<g id="edge84" class="edge">
<title>49&#45;&gt;55</title>
<path fill="none" stroke="#c0c0c0" stroke-width="2" d="M968.3635,-439.9909C978.4773,-430.4972 989.3083,-417.9355 994.6885,-404 1001.7318,-385.7569 1003.1914,-377.6102 994.6885,-360 988.9991,-348.2168 979.3507,-338.2163 969.082,-330.144"/>
<polygon fill="#c0c0c0" stroke="#c0c0c0" stroke-width="2" points="970.9192,-327.152 960.7775,-324.0865 966.794,-332.8073 970.9192,-327.152"/>
</g>
<!-- 50&#45;&gt;19 -->
<g id="edge29" class="edge">
<title>50&#45;&gt;19</title>
<path fill="none" stroke="#c0c0c0" stroke-width="2" d="M1539.6885,-439.9891C1539.6885,-431.1566 1539.6885,-420.3099 1539.6885,-410.3965"/>
<polygon fill="#c0c0c0" stroke="#c0c0c0" stroke-width="2" points="1543.1886,-410.145 1539.6885,-400.145 1536.1886,-410.1451 1543.1886,-410.145"/>
</g>
<!-- 51 -->
<g id="node52" class="node">
<title>51</title>
<path fill="none" stroke="#56d892" stroke-width="2" d="M1510.5016,-620C1510.5016,-620 1382.8754,-620 1382.8754,-620 1376.8754,-620 1370.8754,-614 1370.8754,-608 1370.8754,-608 1370.8754,-596 1370.8754,-596 1370.8754,-590 1376.8754,-584 1382.8754,-584 1382.8754,-584 1510.5016,-584 1510.5016,-584 1516.5016,-584 1522.5016,-590 1522.5016,-596 1522.5016,-596 1522.5016,-608 1522.5016,-608 1522.5016,-614 1516.5016,-620 1510.5016,-620"/>
<text text-anchor="middle" x="1446.6885" y="-605" font-family="sans" font-size="10.00" fill="#000000">gunzip_fa</text>
<text text-anchor="middle" x="1446.6885" y="-593" font-family="sans" font-size="10.00" fill="#000000">file: ../genome_data/GRCm38_90</text>
</g>
<!-- 51&#45;&gt;4 -->
<g id="edge17" class="edge">
<title>51&#45;&gt;4</title>
<path fill="none" stroke="#c0c0c0" stroke-width="2" d="M1446.6885,-583.8314C1446.6885,-576.131 1446.6885,-566.9743 1446.6885,-558.4166"/>
<polygon fill="#c0c0c0" stroke="#c0c0c0" stroke-width="2" points="1450.1886,-558.4132 1446.6885,-548.4133 1443.1886,-558.4133 1450.1886,-558.4132"/>
</g>
<!-- 52 -->
<g id="node53" class="node">
<title>52</title>
<path fill="none" stroke="#56c9d8" stroke-width="2" d="M1488.9518,-692C1488.9518,-692 1404.4252,-692 1404.4252,-692 1398.4252,-692 1392.4252,-686 1392.4252,-680 1392.4252,-680 1392.4252,-668 1392.4252,-668 1392.4252,-662 1398.4252,-656 1404.4252,-656 1404.4252,-656 1488.9518,-656 1488.9518,-656 1494.9518,-656 1500.9518,-662 1500.9518,-668 1500.9518,-668 1500.9518,-680 1500.9518,-680 1500.9518,-686 1494.9518,-692 1488.9518,-692"/>
<text text-anchor="middle" x="1446.6885" y="-671" font-family="sans" font-size="10.00" fill="#000000">download_B6_genome</text>
</g>
<!-- 52&#45;&gt;51 -->
<g id="edge79" class="edge">
<title>52&#45;&gt;51</title>
<path fill="none" stroke="#c0c0c0" stroke-width="2" d="M1446.6885,-655.8314C1446.6885,-648.131 1446.6885,-638.9743 1446.6885,-630.4166"/>
<polygon fill="#c0c0c0" stroke="#c0c0c0" stroke-width="2" points="1450.1886,-630.4132 1446.6885,-620.4133 1443.1886,-630.4133 1450.1886,-630.4132"/>
</g>
<!-- 53&#45;&gt;50 -->
<g id="edge78" class="edge">
<title>53&#45;&gt;50</title>
<path fill="none" stroke="#c0c0c0" stroke-width="2" d="M1609.9683,-511.8314C1598.2791,-502.8779 1584.0197,-491.9558 1571.4076,-482.2955"/>
<polygon fill="#c0c0c0" stroke="#c0c0c0" stroke-width="2" points="1573.4682,-479.4651 1563.4011,-476.1628 1569.2116,-485.0222 1573.4682,-479.4651"/>
</g>
<!-- 54 -->
<g id="node55" class="node">
<title>54</title>
<path fill="none" stroke="#56d88a" stroke-width="2" d="M1810.6665,-476C1810.6665,-476 1708.7105,-476 1708.7105,-476 1702.7105,-476 1696.7105,-470 1696.7105,-464 1696.7105,-464 1696.7105,-452 1696.7105,-452 1696.7105,-446 1702.7105,-440 1708.7105,-440 1708.7105,-440 1810.6665,-440 1810.6665,-440 1816.6665,-440 1822.6665,-446 1822.6665,-452 1822.6665,-452 1822.6665,-464 1822.6665,-464 1822.6665,-470 1816.6665,-476 1810.6665,-476"/>
<text text-anchor="middle" x="1759.6885" y="-461" font-family="sans" font-size="10.00" fill="#000000">download_rnaseq_CastB63</text>
<text text-anchor="middle" x="1759.6885" y="-449" font-family="sans" font-size="10.00" fill="#000000">file: 2</text>
</g>
<!-- 54&#45;&gt;26 -->
<g id="edge33" class="edge">
<title>54&#45;&gt;26</title>
<path fill="none" stroke="#c0c0c0" stroke-width="2" d="M1747.9463,-439.8542C1735.6339,-418.3032 1720.5269,-382.4555 1739.6885,-360 1772.6993,-321.3146 1916.0156,-334.9028 1965.6885,-324 1967.133,-323.683 1968.5931,-323.3526 1970.0639,-323.0109"/>
<polygon fill="#c0c0c0" stroke="#c0c0c0" stroke-width="2" points="1970.9844,-326.389 1979.8683,-320.616 1969.3233,-319.589 1970.9844,-326.389"/>
</g>
<!-- 61 -->
<g id="node62" class="node">
<title>61</title>
<path fill="none" stroke="#5663d8" stroke-width="2" d="M1854.5661,-404C1854.5661,-404 1760.8109,-404 1760.8109,-404 1754.8109,-404 1748.8109,-398 1748.8109,-392 1748.8109,-392 1748.8109,-372 1748.8109,-372 1748.8109,-366 1754.8109,-360 1760.8109,-360 1760.8109,-360 1854.5661,-360 1854.5661,-360 1860.5661,-360 1866.5661,-366 1866.5661,-372 1866.5661,-372 1866.5661,-392 1866.5661,-392 1866.5661,-398 1860.5661,-404 1854.5661,-404"/>
<text text-anchor="middle" x="1807.6885" y="-391" font-family="sans" font-size="10.00" fill="#000000">fastq_md5</text>
<text text-anchor="middle" x="1807.6885" y="-379" font-family="sans" font-size="10.00" fill="#000000">archive: CastB6F1_3_R2</text>
<text text-anchor="middle" x="1807.6885" y="-367" font-family="sans" font-size="10.00" fill="#000000">outdir: rna_seq</text>
</g>
<!-- 54&#45;&gt;61 -->
<g id="edge95" class="edge">
<title>54&#45;&gt;61</title>
<path fill="none" stroke="#c0c0c0" stroke-width="2" d="M1771.0638,-439.9891C1776.19,-431.8726 1782.3904,-422.0553 1788.2205,-412.8243"/>
<polygon fill="#c0c0c0" stroke="#c0c0c0" stroke-width="2" points="1791.2689,-414.5521 1793.6496,-404.2282 1785.3504,-410.8141 1791.2689,-414.5521"/>
</g>
<!-- 55&#45;&gt;35 -->
<g id="edge48" class="edge">
<title>55&#45;&gt;35</title>
<path fill="none" stroke="#c0c0c0" stroke-width="2" d="M976.5923,-291.5362C981.9985,-290.2249 987.4407,-289.0123 992.6885,-288 1129.7483,-261.5605 1167.1338,-275.7308 1304.6885,-252 1316.6579,-249.935 1329.5459,-247.1821 1341.33,-244.4515"/>
<polygon fill="#c0c0c0" stroke="#c0c0c0" stroke-width="2" points="1342.4281,-247.7883 1351.3509,-242.0756 1340.8131,-240.9771 1342.4281,-247.7883"/>
</g>
<!-- 56&#45;&gt;29 -->
<g id="edge38" class="edge">
<title>56&#45;&gt;29</title>
<path fill="none" stroke="#c0c0c0" stroke-width="2" d="M2154.6885,-359.6086C2154.6885,-351.7272 2154.6885,-342.7616 2154.6885,-334.4482"/>
<polygon fill="#c0c0c0" stroke="#c0c0c0" stroke-width="2" points="2158.1886,-334.3974 2154.6885,-324.3975 2151.1886,-334.3975 2158.1886,-334.3974"/>
</g>
<!-- 57&#45;&gt;34 -->
<g id="edge46" class="edge">
<title>57&#45;&gt;34</title>
<path fill="none" stroke="#c0c0c0" stroke-width="2" d="M1495.894,-215.8314C1493.8396,-208.0463 1491.3925,-198.7729 1489.1129,-190.1347"/>
<polygon fill="#c0c0c0" stroke="#c0c0c0" stroke-width="2" points="1492.4833,-189.1892 1486.5476,-180.4133 1485.715,-190.9753 1492.4833,-189.1892"/>
</g>
<!-- 58&#45;&gt;2 -->
<g id="edge9" class="edge">
<title>58&#45;&gt;2</title>
<path fill="none" stroke="#c0c0c0" stroke-width="2" d="M1407.6704,-143.8314C1419.9813,-134.8779 1434.9992,-123.9558 1448.2822,-114.2955"/>
<polygon fill="#c0c0c0" stroke="#c0c0c0" stroke-width="2" points="1450.6858,-116.8752 1456.7146,-108.1628 1446.5686,-111.214 1450.6858,-116.8752"/>
</g>
<!-- 59&#45;&gt;31 -->
<g id="edge44" class="edge">
<title>59&#45;&gt;31</title>
<path fill="none" stroke="#c0c0c0" stroke-width="2" d="M1722.305,-215.8314C1715.7399,-207.5386 1707.8378,-197.557 1700.6307,-188.4533"/>
<polygon fill="#c0c0c0" stroke="#c0c0c0" stroke-width="2" points="1703.2169,-186.0813 1694.2657,-180.4133 1697.7286,-190.4262 1703.2169,-186.0813"/>
</g>
<!-- 60&#45;&gt;48 -->
<g id="edge75" class="edge">
<title>60&#45;&gt;48</title>
<path fill="none" stroke="#c0c0c0" stroke-width="2" d="M245.0562,-359.6086C234.7513,-350.6065 222.8271,-340.1901 212.2458,-330.9466"/>
<polygon fill="#c0c0c0" stroke="#c0c0c0" stroke-width="2" points="214.2988,-328.0926 204.465,-324.1496 209.6935,-333.3644 214.2988,-328.0926"/>
</g>
<!-- 61&#45;&gt;26 -->
<g id="edge35" class="edge">
<title>61&#45;&gt;26</title>
<path fill="none" stroke="#c0c0c0" stroke-width="2" d="M1866.5976,-361.8329C1898.6108,-350.8734 1938.1001,-337.3546 1970.2025,-326.3646"/>
<polygon fill="#c0c0c0" stroke="#c0c0c0" stroke-width="2" points="1971.5843,-329.591 1979.9117,-323.0407 1969.3171,-322.9683 1971.5843,-329.591"/>
</g>
<!-- 62&#45;&gt;9 -->
<g id="edge19" class="edge">
<title>62&#45;&gt;9</title>
<path fill="none" stroke="#c0c0c0" stroke-width="2" d="M1460.8872,-292.836C1369.2031,-277.5198 1221.2966,-252.8116 1149.8847,-240.882"/>
<polygon fill="#c0c0c0" stroke="#c0c0c0" stroke-width="2" points="1150.3594,-237.4128 1139.9194,-239.2172 1149.206,-244.3172 1150.3594,-237.4128"/>
</g>
<!-- 62&#45;&gt;35 -->
<g id="edge49" class="edge">
<title>62&#45;&gt;35</title>
<path fill="none" stroke="#c0c0c0" stroke-width="2" d="M1500.0708,-287.8314C1476.5979,-277.0667 1446.9198,-263.4564 1423.2785,-252.6145"/>
<polygon fill="#c0c0c0" stroke="#c0c0c0" stroke-width="2" points="1424.4314,-249.2928 1413.8826,-248.3056 1421.5134,-255.6556 1424.4314,-249.2928"/>
</g>
<!-- 62&#45;&gt;40 -->
<g id="edge57" class="edge">
<title>62&#45;&gt;40</title>
<path fill="none" stroke="#c0c0c0" stroke-width="2" d="M1618.4121,-293.8927C1682.6974,-283.6932 1775.8111,-268.2064 1856.6885,-252 1868.598,-249.6135 1881.4669,-246.7586 1893.252,-244.0332"/>
<polygon fill="#c0c0c0" stroke="#c0c0c0" stroke-width="2" points="1894.3391,-247.3734 1903.2783,-241.6865 1892.7438,-240.5576 1894.3391,-247.3734"/>
</g>
<!-- 62&#45;&gt;41 -->
<g id="edge60" class="edge">
<title>62&#45;&gt;41</title>
<path fill="none" stroke="#c0c0c0" stroke-width="2" d="M1618.4198,-292.1445C1662.6051,-283.4172 1718.6912,-270.7574 1775.9155,-251.9499"/>
<polygon fill="#c0c0c0" stroke="#c0c0c0" stroke-width="2" points="1777.1074,-255.2419 1785.4813,-248.7513 1774.8875,-248.6032 1777.1074,-255.2419"/>
</g>
<!-- 62&#45;&gt;44 -->
<g id="edge66" class="edge">
<title>62&#45;&gt;44</title>
<path fill="none" stroke="#c0c0c0" stroke-width="2" d="M1470.6493,-287.9243C1418.8019,-274.3497 1349.5189,-256.2101 1305.9983,-244.8157"/>
<polygon fill="#c0c0c0" stroke="#c0c0c0" stroke-width="2" points="1306.6108,-241.3581 1296.0503,-242.2111 1304.8378,-248.1299 1306.6108,-241.3581"/>
</g>
<!-- 62&#45;&gt;57 -->
<g id="edge86" class="edge">
<title>62&#45;&gt;57</title>
<path fill="none" stroke="#c0c0c0" stroke-width="2" d="M1529.8472,-287.8314C1525.4928,-279.7925 1520.2787,-270.1666 1515.4716,-261.2918"/>
<polygon fill="#c0c0c0" stroke="#c0c0c0" stroke-width="2" points="1518.5028,-259.5392 1510.6624,-252.4133 1512.3477,-262.8732 1518.5028,-259.5392"/>
</g>
<!-- 62&#45;&gt;59 -->
<g id="edge92" class="edge">
<title>62&#45;&gt;59</title>
<path fill="none" stroke="#c0c0c0" stroke-width="2" d="M1589.1456,-287.9243C1622.0559,-275.8962 1664.7727,-260.284 1695.7675,-248.9559"/>
<polygon fill="#c0c0c0" stroke="#c0c0c0" stroke-width="2" points="1697.2008,-252.1586 1705.3916,-245.4384 1694.7978,-245.5839 1697.2008,-252.1586"/>
</g>
<!-- 62&#45;&gt;65 -->
<g id="edge100" class="edge">
<title>62&#45;&gt;65</title>
<path fill="none" stroke="#c0c0c0" stroke-width="2" d="M1550.0345,-287.8314C1554.6122,-279.7925 1560.0937,-270.1666 1565.1473,-261.2918"/>
<polygon fill="#c0c0c0" stroke="#c0c0c0" stroke-width="2" points="1568.2962,-262.8351 1570.2032,-252.4133 1562.2133,-259.3712 1568.2962,-262.8351"/>
</g>
<!-- 63&#45;&gt;1 -->
<g id="edge5" class="edge">
<title>63&#45;&gt;1</title>
<path fill="none" stroke="#c0c0c0" stroke-width="2" d="M2501.6885,-359.6086C2501.6885,-351.7272 2501.6885,-342.7616 2501.6885,-334.4482"/>
<polygon fill="#c0c0c0" stroke="#c0c0c0" stroke-width="2" points="2505.1886,-334.3974 2501.6885,-324.3975 2498.1886,-334.3975 2505.1886,-334.3974"/>
</g>
<!-- 64&#45;&gt;36 -->
<g id="edge53" class="edge">
<title>64&#45;&gt;36</title>
<path fill="none" stroke="#c0c0c0" stroke-width="2" d="M1113.0562,-359.6086C1102.7513,-350.6065 1090.8271,-340.1901 1080.2458,-330.9466"/>
<polygon fill="#c0c0c0" stroke="#c0c0c0" stroke-width="2" points="1082.2988,-328.0926 1072.465,-324.1496 1077.6935,-333.3644 1082.2988,-328.0926"/>
</g>
<!-- 65&#45;&gt;30 -->
<g id="edge42" class="edge">
<title>65&#45;&gt;30</title>
<path fill="none" stroke="#c0c0c0" stroke-width="2" d="M1580.6885,-215.8314C1580.6885,-208.131 1580.6885,-198.9743 1580.6885,-190.4166"/>
<polygon fill="#c0c0c0" stroke="#c0c0c0" stroke-width="2" points="1584.1886,-190.4132 1580.6885,-180.4133 1577.1886,-190.4133 1584.1886,-190.4132"/>
</g>
<!-- 66&#45;&gt;40 -->
<g id="edge59" class="edge">
<title>66&#45;&gt;40</title>
<path fill="none" stroke="#c0c0c0" stroke-width="2" d="M2798.8988,-302.0778C2636.6479,-289.2966 2125.0557,-248.9961 1975.889,-237.2456"/>
<polygon fill="#c0c0c0" stroke="#c0c0c0" stroke-width="2" points="1976.0291,-233.7458 1965.7851,-236.4496 1975.4793,-240.7242 1976.0291,-233.7458"/>
</g>
<!-- 67&#45;&gt;12 -->
<g id="edge24" class="edge">
<title>67&#45;&gt;12</title>
<path fill="none" stroke="#c0c0c0" stroke-width="2" d="M484.099,-359.8133C501.1977,-350.1874 521.2232,-338.9138 538.5153,-329.179"/>
<polygon fill="#c0c0c0" stroke="#c0c0c0" stroke-width="2" points="540.2818,-332.2011 547.2789,-324.2454 536.8478,-326.1012 540.2818,-332.2011"/>
</g>
</g>
</svg>
