<?xml version="1.0" encoding="UTF-8" standalone="no"?>
<!DOCTYPE svg PUBLIC "-//W3C//DTD SVG 1.1//EN"
 "http://www.w3.org/Graphics/SVG/1.1/DTD/svg11.dtd">
<!-- Generated by graphviz version 2.40.1 (20161225.0304)
 -->
<!-- Title: snakemake_dag Pages: 1 -->
<svg width="3016pt" height="700pt"
 viewBox="0.00 0.00 3016.38 700.00" xmlns="http://www.w3.org/2000/svg" xmlns:xlink="http://www.w3.org/1999/xlink">
<g id="graph0" class="graph" transform="scale(1 1) rotate(0) translate(4 696)">
<title>snakemake_dag</title>
<polygon fill="#ffffff" stroke="transparent" points="-4,4 -4,-696 3012.377,-696 3012.377,4 -4,4"/>
<!-- 0 -->
<g id="node1" class="node">
<title>0</title>
<path fill="none" stroke="#d85656" stroke-width="2" d="M2269.6665,-476C2269.6665,-476 2167.7105,-476 2167.7105,-476 2161.7105,-476 2155.7105,-470 2155.7105,-464 2155.7105,-464 2155.7105,-452 2155.7105,-452 2155.7105,-446 2161.7105,-440 2167.7105,-440 2167.7105,-440 2269.6665,-440 2269.6665,-440 2275.6665,-440 2281.6665,-446 2281.6665,-452 2281.6665,-452 2281.6665,-464 2281.6665,-464 2281.6665,-470 2275.6665,-476 2269.6665,-476"/>
<text text-anchor="middle" x="2218.6885" y="-461" font-family="sans" font-size="10.00" fill="#000000">download_rnaseq_B6Cast4</text>
<text text-anchor="middle" x="2218.6885" y="-449" font-family="sans" font-size="10.00" fill="#000000">file: 2</text>
</g>
<!-- 33 -->
<g id="node34" class="node">
<title>33</title>
<path fill="none" stroke="#5682d8" stroke-width="2" d="M2262.5661,-404C2262.5661,-404 2168.8109,-404 2168.8109,-404 2162.8109,-404 2156.8109,-398 2156.8109,-392 2156.8109,-392 2156.8109,-372 2156.8109,-372 2156.8109,-366 2162.8109,-360 2168.8109,-360 2168.8109,-360 2262.5661,-360 2262.5661,-360 2268.5661,-360 2274.5661,-366 2274.5661,-372 2274.5661,-372 2274.5661,-392 2274.5661,-392 2274.5661,-398 2268.5661,-404 2262.5661,-404"/>
<text text-anchor="middle" x="2215.6885" y="-391" font-family="sans" font-size="10.00" fill="#000000">fastq_md5</text>
<text text-anchor="middle" x="2215.6885" y="-379" font-family="sans" font-size="10.00" fill="#000000">archive: B6CastF1_4_R2</text>
<text text-anchor="middle" x="2215.6885" y="-367" font-family="sans" font-size="10.00" fill="#000000">outdir: rna_seq</text>
</g>
<!-- 0&#45;&gt;33 -->
<g id="edge51" class="edge">
<title>0&#45;&gt;33</title>
<path fill="none" stroke="#c0c0c0" stroke-width="2" d="M2217.9775,-439.9891C2217.6737,-432.291 2217.3094,-423.0629 2216.9618,-414.2561"/>
<polygon fill="#c0c0c0" stroke="#c0c0c0" stroke-width="2" points="2220.4577,-414.0823 2216.5659,-404.2282 2213.4632,-414.3585 2220.4577,-414.0823"/>
</g>
<!-- 59 -->
<g id="node60" class="node">
<title>59</title>
<path fill="none" stroke="#d8b456" stroke-width="2" d="M2118.2973,-324C2118.2973,-324 2043.0797,-324 2043.0797,-324 2037.0797,-324 2031.0797,-318 2031.0797,-312 2031.0797,-312 2031.0797,-300 2031.0797,-300 2031.0797,-294 2037.0797,-288 2043.0797,-288 2043.0797,-288 2118.2973,-288 2118.2973,-288 2124.2973,-288 2130.2973,-294 2130.2973,-300 2130.2973,-300 2130.2973,-312 2130.2973,-312 2130.2973,-318 2124.2973,-324 2118.2973,-324"/>
<text text-anchor="middle" x="2080.6885" y="-309" font-family="sans" font-size="10.00" fill="#000000">trim_galore</text>
<text text-anchor="middle" x="2080.6885" y="-297" font-family="sans" font-size="10.00" fill="#000000">sample: B6CastF1_4</text>
</g>
<!-- 0&#45;&gt;59 -->
<g id="edge88" class="edge">
<title>0&#45;&gt;59</title>
<path fill="none" stroke="#c0c0c0" stroke-width="2" d="M2250.9664,-439.8412C2263.631,-430.8521 2276.7701,-418.742 2283.6885,-404 2291.9965,-386.297 2295.6072,-375.5037 2283.6885,-360 2266.2528,-337.3198 2193.945,-322.1572 2140.57,-313.8162"/>
<polygon fill="#c0c0c0" stroke="#c0c0c0" stroke-width="2" points="2140.9178,-310.329 2130.5058,-312.2883 2139.8671,-317.2497 2140.9178,-310.329"/>
</g>
<!-- 1 -->
<g id="node2" class="node">
<title>1</title>
<path fill="none" stroke="#d85656" stroke-width="2" d="M2096.6665,-476C2096.6665,-476 1994.7105,-476 1994.7105,-476 1988.7105,-476 1982.7105,-470 1982.7105,-464 1982.7105,-464 1982.7105,-452 1982.7105,-452 1982.7105,-446 1988.7105,-440 1994.7105,-440 1994.7105,-440 2096.6665,-440 2096.6665,-440 2102.6665,-440 2108.6665,-446 2108.6665,-452 2108.6665,-452 2108.6665,-464 2108.6665,-464 2108.6665,-470 2102.6665,-476 2096.6665,-476"/>
<text text-anchor="middle" x="2045.6885" y="-461" font-family="sans" font-size="10.00" fill="#000000">download_rnaseq_B6Cast4</text>
<text text-anchor="middle" x="2045.6885" y="-449" font-family="sans" font-size="10.00" fill="#000000">file: 1</text>
</g>
<!-- 12 -->
<g id="node13" class="node">
<title>12</title>
<path fill="none" stroke="#5682d8" stroke-width="2" d="M2127.5661,-404C2127.5661,-404 2033.8109,-404 2033.8109,-404 2027.8109,-404 2021.8109,-398 2021.8109,-392 2021.8109,-392 2021.8109,-372 2021.8109,-372 2021.8109,-366 2027.8109,-360 2033.8109,-360 2033.8109,-360 2127.5661,-360 2127.5661,-360 2133.5661,-360 2139.5661,-366 2139.5661,-372 2139.5661,-372 2139.5661,-392 2139.5661,-392 2139.5661,-398 2133.5661,-404 2127.5661,-404"/>
<text text-anchor="middle" x="2080.6885" y="-391" font-family="sans" font-size="10.00" fill="#000000">fastq_md5</text>
<text text-anchor="middle" x="2080.6885" y="-379" font-family="sans" font-size="10.00" fill="#000000">archive: B6CastF1_4_R1</text>
<text text-anchor="middle" x="2080.6885" y="-367" font-family="sans" font-size="10.00" fill="#000000">outdir: rna_seq</text>
</g>
<!-- 1&#45;&gt;12 -->
<g id="edge15" class="edge">
<title>1&#45;&gt;12</title>
<path fill="none" stroke="#c0c0c0" stroke-width="2" d="M2053.983,-439.9891C2057.6438,-432.04 2062.0559,-422.4594 2066.2298,-413.396"/>
<polygon fill="#c0c0c0" stroke="#c0c0c0" stroke-width="2" points="2069.4478,-414.7754 2070.4518,-404.2282 2063.0897,-411.8472 2069.4478,-414.7754"/>
</g>
<!-- 1&#45;&gt;59 -->
<g id="edge91" class="edge">
<title>1&#45;&gt;59</title>
<path fill="none" stroke="#c0c0c0" stroke-width="2" d="M2031.2611,-439.7662C2017.2406,-419.6755 1999.8087,-386.6751 2012.6885,-360 2018.3779,-348.2168 2028.0263,-338.2163 2038.295,-330.144"/>
<polygon fill="#c0c0c0" stroke="#c0c0c0" stroke-width="2" points="2040.583,-332.8073 2046.5995,-324.0865 2036.4578,-327.152 2040.583,-332.8073"/>
</g>
<!-- 2 -->
<g id="node3" class="node">
<title>2</title>
<path fill="none" stroke="#56b1d8" stroke-width="2" d="M1793.1895,-180C1793.1895,-180 1736.1875,-180 1736.1875,-180 1730.1875,-180 1724.1875,-174 1724.1875,-168 1724.1875,-168 1724.1875,-156 1724.1875,-156 1724.1875,-150 1730.1875,-144 1736.1875,-144 1736.1875,-144 1793.1895,-144 1793.1895,-144 1799.1895,-144 1805.1895,-150 1805.1895,-156 1805.1895,-156 1805.1895,-168 1805.1895,-168 1805.1895,-174 1799.1895,-180 1793.1895,-180"/>
<text text-anchor="middle" x="1764.6885" y="-159" font-family="sans" font-size="10.00" fill="#000000">snp_split_hisat2</text>
</g>
<!-- 26 -->
<g id="node27" class="node">
<title>26</title>
<path fill="none" stroke="#c6d856" stroke-width="2" d="M1504.2174,-108C1504.2174,-108 1407.1596,-108 1407.1596,-108 1401.1596,-108 1395.1596,-102 1395.1596,-96 1395.1596,-96 1395.1596,-84 1395.1596,-84 1395.1596,-78 1401.1596,-72 1407.1596,-72 1407.1596,-72 1504.2174,-72 1504.2174,-72 1510.2174,-72 1516.2174,-78 1516.2174,-84 1516.2174,-84 1516.2174,-96 1516.2174,-96 1516.2174,-102 1510.2174,-108 1504.2174,-108"/>
<text text-anchor="middle" x="1455.6885" y="-87" font-family="sans" font-size="10.00" fill="#000000">rnaseq_analysis_notebook</text>
</g>
<!-- 2&#45;&gt;26 -->
<g id="edge39" class="edge">
<title>2&#45;&gt;26</title>
<path fill="none" stroke="#c0c0c0" stroke-width="2" d="M1723.9301,-146.5173C1721.1554,-145.6212 1718.3898,-144.7721 1715.6885,-144 1652.4952,-125.937 1579.0536,-111.2456 1526.3753,-101.7722"/>
<polygon fill="#c0c0c0" stroke="#c0c0c0" stroke-width="2" points="1526.9159,-98.3135 1516.4572,-100.0061 1525.6887,-105.2051 1526.9159,-98.3135"/>
</g>
<!-- 3 -->
<g id="node4" class="node">
<title>3</title>
<path fill="none" stroke="#56b1d8" stroke-width="2" d="M1385.1895,-180C1385.1895,-180 1328.1875,-180 1328.1875,-180 1322.1875,-180 1316.1875,-174 1316.1875,-168 1316.1875,-168 1316.1875,-156 1316.1875,-156 1316.1875,-150 1322.1875,-144 1328.1875,-144 1328.1875,-144 1385.1895,-144 1385.1895,-144 1391.1895,-144 1397.1895,-150 1397.1895,-156 1397.1895,-156 1397.1895,-168 1397.1895,-168 1397.1895,-174 1391.1895,-180 1385.1895,-180"/>
<text text-anchor="middle" x="1356.6885" y="-159" font-family="sans" font-size="10.00" fill="#000000">snp_split_hisat2</text>
</g>
<!-- 3&#45;&gt;26 -->
<g id="edge43" class="edge">
<title>3&#45;&gt;26</title>
<path fill="none" stroke="#c0c0c0" stroke-width="2" d="M1381.6704,-143.8314C1393.9813,-134.8779 1408.9992,-123.9558 1422.2822,-114.2955"/>
<polygon fill="#c0c0c0" stroke="#c0c0c0" stroke-width="2" points="1424.6858,-116.8752 1430.7146,-108.1628 1420.5686,-111.214 1424.6858,-116.8752"/>
</g>
<!-- 4 -->
<g id="node5" class="node">
<title>4</title>
<path fill="none" stroke="#56d863" stroke-width="2" d="M1055.8225,-180C1055.8225,-180 849.5545,-180 849.5545,-180 843.5545,-180 837.5545,-174 837.5545,-168 837.5545,-168 837.5545,-156 837.5545,-156 837.5545,-150 843.5545,-144 849.5545,-144 849.5545,-144 1055.8225,-144 1055.8225,-144 1061.8225,-144 1067.8225,-150 1067.8225,-156 1067.8225,-156 1067.8225,-168 1067.8225,-168 1067.8225,-174 1061.8225,-180 1055.8225,-180"/>
<text text-anchor="middle" x="952.6885" y="-165" font-family="sans" font-size="10.00" fill="#000000">gunzip_gtf</text>
<text text-anchor="middle" x="952.6885" y="-153" font-family="sans" font-size="10.00" fill="#000000">file: ../genome_data/Mus_musculus.GRCm38_90.chr</text>
</g>
<!-- 4&#45;&gt;26 -->
<g id="edge40" class="edge">
<title>4&#45;&gt;26</title>
<path fill="none" stroke="#c0c0c0" stroke-width="2" d="M1067.8654,-145.2703C1070.8366,-144.8421 1073.7817,-144.4181 1076.6885,-144 1184.1918,-128.5388 1308.8799,-110.8131 1385.0094,-100.0138"/>
<polygon fill="#c0c0c0" stroke="#c0c0c0" stroke-width="2" points="1385.5545,-103.4716 1394.9639,-98.602 1384.5715,-96.541 1385.5545,-103.4716"/>
</g>
<!-- 5 -->
<g id="node6" class="node">
<title>5</title>
<path fill="none" stroke="#5682d8" stroke-width="2" d="M1741.5661,-404C1741.5661,-404 1647.8109,-404 1647.8109,-404 1641.8109,-404 1635.8109,-398 1635.8109,-392 1635.8109,-392 1635.8109,-372 1635.8109,-372 1635.8109,-366 1641.8109,-360 1647.8109,-360 1647.8109,-360 1741.5661,-360 1741.5661,-360 1747.5661,-360 1753.5661,-366 1753.5661,-372 1753.5661,-372 1753.5661,-392 1753.5661,-392 1753.5661,-398 1747.5661,-404 1741.5661,-404"/>
<text text-anchor="middle" x="1694.6885" y="-391" font-family="sans" font-size="10.00" fill="#000000">fastq_md5</text>
<text text-anchor="middle" x="1694.6885" y="-379" font-family="sans" font-size="10.00" fill="#000000">archive: B6CastF1_2_R1</text>
<text text-anchor="middle" x="1694.6885" y="-367" font-family="sans" font-size="10.00" fill="#000000">outdir: rna_seq</text>
</g>
<!-- 67 -->
<g id="node68" class="node">
<title>67</title>
<path fill="none" stroke="#d8b456" stroke-width="2" d="M1993.2973,-324C1993.2973,-324 1918.0797,-324 1918.0797,-324 1912.0797,-324 1906.0797,-318 1906.0797,-312 1906.0797,-312 1906.0797,-300 1906.0797,-300 1906.0797,-294 1912.0797,-288 1918.0797,-288 1918.0797,-288 1993.2973,-288 1993.2973,-288 1999.2973,-288 2005.2973,-294 2005.2973,-300 2005.2973,-300 2005.2973,-312 2005.2973,-312 2005.2973,-318 1999.2973,-324 1993.2973,-324"/>
<text text-anchor="middle" x="1955.6885" y="-309" font-family="sans" font-size="10.00" fill="#000000">trim_galore</text>
<text text-anchor="middle" x="1955.6885" y="-297" font-family="sans" font-size="10.00" fill="#000000">sample: B6CastF1_2</text>
</g>
<!-- 5&#45;&gt;67 -->
<g id="edge104" class="edge">
<title>5&#45;&gt;67</title>
<path fill="none" stroke="#c0c0c0" stroke-width="2" d="M1753.6355,-364.1634C1758.3879,-362.7473 1763.1172,-361.3453 1767.6885,-360 1810.602,-347.3711 1859.13,-333.441 1896.1319,-322.8927"/>
<polygon fill="#c0c0c0" stroke="#c0c0c0" stroke-width="2" points="1897.1047,-326.2549 1905.7632,-320.1492 1895.1869,-319.5227 1897.1047,-326.2549"/>
</g>
<!-- 6 -->
<g id="node7" class="node">
<title>6</title>
<path fill="none" stroke="#5682d8" stroke-width="2" d="M1013.5661,-404C1013.5661,-404 919.8109,-404 919.8109,-404 913.8109,-404 907.8109,-398 907.8109,-392 907.8109,-392 907.8109,-372 907.8109,-372 907.8109,-366 913.8109,-360 919.8109,-360 919.8109,-360 1013.5661,-360 1013.5661,-360 1019.5661,-360 1025.5661,-366 1025.5661,-372 1025.5661,-372 1025.5661,-392 1025.5661,-392 1025.5661,-398 1019.5661,-404 1013.5661,-404"/>
<text text-anchor="middle" x="966.6885" y="-391" font-family="sans" font-size="10.00" fill="#000000">fastq_md5</text>
<text text-anchor="middle" x="966.6885" y="-379" font-family="sans" font-size="10.00" fill="#000000">archive: B6CastF1_3_R2</text>
<text text-anchor="middle" x="966.6885" y="-367" font-family="sans" font-size="10.00" fill="#000000">outdir: rna_seq</text>
</g>
<!-- 65 -->
<g id="node66" class="node">
<title>65</title>
<path fill="none" stroke="#d8b456" stroke-width="2" d="M917.2973,-324C917.2973,-324 842.0797,-324 842.0797,-324 836.0797,-324 830.0797,-318 830.0797,-312 830.0797,-312 830.0797,-300 830.0797,-300 830.0797,-294 836.0797,-288 842.0797,-288 842.0797,-288 917.2973,-288 917.2973,-288 923.2973,-288 929.2973,-294 929.2973,-300 929.2973,-300 929.2973,-312 929.2973,-312 929.2973,-318 923.2973,-324 917.2973,-324"/>
<text text-anchor="middle" x="879.6885" y="-309" font-family="sans" font-size="10.00" fill="#000000">trim_galore</text>
<text text-anchor="middle" x="879.6885" y="-297" font-family="sans" font-size="10.00" fill="#000000">sample: B6CastF1_3</text>
</g>
<!-- 6&#45;&gt;65 -->
<g id="edge101" class="edge">
<title>6&#45;&gt;65</title>
<path fill="none" stroke="#c0c0c0" stroke-width="2" d="M941.0562,-359.6086C930.7513,-350.6065 918.8271,-340.1901 908.2458,-330.9466"/>
<polygon fill="#c0c0c0" stroke="#c0c0c0" stroke-width="2" points="910.2988,-328.0926 900.465,-324.1496 905.6935,-333.3644 910.2988,-328.0926"/>
</g>
<!-- 7 -->
<g id="node8" class="node">
<title>7</title>
<path fill="none" stroke="#56d89a" stroke-width="2" d="M1125.7926,-252C1125.7926,-252 1087.5844,-252 1087.5844,-252 1081.5844,-252 1075.5844,-246 1075.5844,-240 1075.5844,-240 1075.5844,-228 1075.5844,-228 1075.5844,-222 1081.5844,-216 1087.5844,-216 1087.5844,-216 1125.7926,-216 1125.7926,-216 1131.7926,-216 1137.7926,-222 1137.7926,-228 1137.7926,-228 1137.7926,-240 1137.7926,-240 1137.7926,-246 1131.7926,-252 1125.7926,-252"/>
<text text-anchor="middle" x="1106.6885" y="-231" font-family="sans" font-size="10.00" fill="#000000">map_hisat2</text>
</g>
<!-- 13 -->
<g id="node14" class="node">
<title>13</title>
<path fill="none" stroke="#56b1d8" stroke-width="2" d="M1155.1895,-180C1155.1895,-180 1098.1875,-180 1098.1875,-180 1092.1875,-180 1086.1875,-174 1086.1875,-168 1086.1875,-168 1086.1875,-156 1086.1875,-156 1086.1875,-150 1092.1875,-144 1098.1875,-144 1098.1875,-144 1155.1895,-144 1155.1895,-144 1161.1895,-144 1167.1895,-150 1167.1895,-156 1167.1895,-156 1167.1895,-168 1167.1895,-168 1167.1895,-174 1161.1895,-180 1155.1895,-180"/>
<text text-anchor="middle" x="1126.6885" y="-159" font-family="sans" font-size="10.00" fill="#000000">snp_split_hisat2</text>
</g>
<!-- 7&#45;&gt;13 -->
<g id="edge17" class="edge">
<title>7&#45;&gt;13</title>
<path fill="none" stroke="#c0c0c0" stroke-width="2" d="M1111.7353,-215.8314C1113.8979,-208.0463 1116.4738,-198.7729 1118.8733,-190.1347"/>
<polygon fill="#c0c0c0" stroke="#c0c0c0" stroke-width="2" points="1122.2695,-190.9852 1121.5737,-180.4133 1115.5249,-189.1117 1122.2695,-190.9852"/>
</g>
<!-- 8 -->
<g id="node9" class="node">
<title>8</title>
<path fill="none" stroke="#56d86b" stroke-width="2" d="M1119.6665,-476C1119.6665,-476 1017.7105,-476 1017.7105,-476 1011.7105,-476 1005.7105,-470 1005.7105,-464 1005.7105,-464 1005.7105,-452 1005.7105,-452 1005.7105,-446 1011.7105,-440 1017.7105,-440 1017.7105,-440 1119.6665,-440 1119.6665,-440 1125.6665,-440 1131.6665,-446 1131.6665,-452 1131.6665,-452 1131.6665,-464 1131.6665,-464 1131.6665,-470 1125.6665,-476 1119.6665,-476"/>
<text text-anchor="middle" x="1068.6885" y="-461" font-family="sans" font-size="10.00" fill="#000000">download_rnaseq_CastB65</text>
<text text-anchor="middle" x="1068.6885" y="-449" font-family="sans" font-size="10.00" fill="#000000">file: 1</text>
</g>
<!-- 16 -->
<g id="node17" class="node">
<title>16</title>
<path fill="none" stroke="#d8b456" stroke-width="2" d="M1091.2973,-324C1091.2973,-324 1016.0797,-324 1016.0797,-324 1010.0797,-324 1004.0797,-318 1004.0797,-312 1004.0797,-312 1004.0797,-300 1004.0797,-300 1004.0797,-294 1010.0797,-288 1016.0797,-288 1016.0797,-288 1091.2973,-288 1091.2973,-288 1097.2973,-288 1103.2973,-294 1103.2973,-300 1103.2973,-300 1103.2973,-312 1103.2973,-312 1103.2973,-318 1097.2973,-324 1091.2973,-324"/>
<text text-anchor="middle" x="1053.6885" y="-309" font-family="sans" font-size="10.00" fill="#000000">trim_galore</text>
<text text-anchor="middle" x="1053.6885" y="-297" font-family="sans" font-size="10.00" fill="#000000">sample: CastB6F1_5</text>
</g>
<!-- 8&#45;&gt;16 -->
<g id="edge21" class="edge">
<title>8&#45;&gt;16</title>
<path fill="none" stroke="#c0c0c0" stroke-width="2" d="M1066.9089,-439.9667C1064.3265,-413.7983 1059.5164,-365.0561 1056.4652,-334.1368"/>
<polygon fill="#c0c0c0" stroke="#c0c0c0" stroke-width="2" points="1059.931,-333.6177 1055.4658,-324.0098 1052.9649,-334.3052 1059.931,-333.6177"/>
</g>
<!-- 21 -->
<g id="node22" class="node">
<title>21</title>
<path fill="none" stroke="#5682d8" stroke-width="2" d="M1187.5661,-404C1187.5661,-404 1093.8109,-404 1093.8109,-404 1087.8109,-404 1081.8109,-398 1081.8109,-392 1081.8109,-392 1081.8109,-372 1081.8109,-372 1081.8109,-366 1087.8109,-360 1093.8109,-360 1093.8109,-360 1187.5661,-360 1187.5661,-360 1193.5661,-360 1199.5661,-366 1199.5661,-372 1199.5661,-372 1199.5661,-392 1199.5661,-392 1199.5661,-398 1193.5661,-404 1187.5661,-404"/>
<text text-anchor="middle" x="1140.6885" y="-391" font-family="sans" font-size="10.00" fill="#000000">fastq_md5</text>
<text text-anchor="middle" x="1140.6885" y="-379" font-family="sans" font-size="10.00" fill="#000000">archive: CastB6F1_5_R1</text>
<text text-anchor="middle" x="1140.6885" y="-367" font-family="sans" font-size="10.00" fill="#000000">outdir: rna_seq</text>
</g>
<!-- 8&#45;&gt;21 -->
<g id="edge30" class="edge">
<title>8&#45;&gt;21</title>
<path fill="none" stroke="#c0c0c0" stroke-width="2" d="M1085.7515,-439.9891C1093.7579,-431.5379 1103.5112,-421.2428 1112.5654,-411.6855"/>
<polygon fill="#c0c0c0" stroke="#c0c0c0" stroke-width="2" points="1115.2936,-413.8949 1119.6302,-404.2282 1110.2119,-409.0806 1115.2936,-413.8949"/>
</g>
<!-- 9 -->
<g id="node10" class="node">
<title>9</title>
<path fill="none" stroke="#56d86b" stroke-width="2" d="M1321.6665,-476C1321.6665,-476 1219.7105,-476 1219.7105,-476 1213.7105,-476 1207.7105,-470 1207.7105,-464 1207.7105,-464 1207.7105,-452 1207.7105,-452 1207.7105,-446 1213.7105,-440 1219.7105,-440 1219.7105,-440 1321.6665,-440 1321.6665,-440 1327.6665,-440 1333.6665,-446 1333.6665,-452 1333.6665,-452 1333.6665,-464 1333.6665,-464 1333.6665,-470 1327.6665,-476 1321.6665,-476"/>
<text text-anchor="middle" x="1270.6885" y="-461" font-family="sans" font-size="10.00" fill="#000000">download_rnaseq_CastB65</text>
<text text-anchor="middle" x="1270.6885" y="-449" font-family="sans" font-size="10.00" fill="#000000">file: 2</text>
</g>
<!-- 9&#45;&gt;16 -->
<g id="edge22" class="edge">
<title>9&#45;&gt;16</title>
<path fill="none" stroke="#c0c0c0" stroke-width="2" d="M1263.6399,-439.842C1254.2576,-417.9402 1235.6525,-381.4051 1208.6885,-360 1200.7078,-353.6646 1153.2584,-337.5514 1112.9359,-324.5643"/>
<polygon fill="#c0c0c0" stroke="#c0c0c0" stroke-width="2" points="1113.9907,-321.227 1103.3995,-321.5077 1111.8541,-327.893 1113.9907,-321.227"/>
</g>
<!-- 62 -->
<g id="node63" class="node">
<title>62</title>
<path fill="none" stroke="#5682d8" stroke-width="2" d="M1361.5661,-404C1361.5661,-404 1267.8109,-404 1267.8109,-404 1261.8109,-404 1255.8109,-398 1255.8109,-392 1255.8109,-392 1255.8109,-372 1255.8109,-372 1255.8109,-366 1261.8109,-360 1267.8109,-360 1267.8109,-360 1361.5661,-360 1361.5661,-360 1367.5661,-360 1373.5661,-366 1373.5661,-372 1373.5661,-372 1373.5661,-392 1373.5661,-392 1373.5661,-398 1367.5661,-404 1361.5661,-404"/>
<text text-anchor="middle" x="1314.6885" y="-391" font-family="sans" font-size="10.00" fill="#000000">fastq_md5</text>
<text text-anchor="middle" x="1314.6885" y="-379" font-family="sans" font-size="10.00" fill="#000000">archive: CastB6F1_5_R2</text>
<text text-anchor="middle" x="1314.6885" y="-367" font-family="sans" font-size="10.00" fill="#000000">outdir: rna_seq</text>
</g>
<!-- 9&#45;&gt;62 -->
<g id="edge93" class="edge">
<title>9&#45;&gt;62</title>
<path fill="none" stroke="#c0c0c0" stroke-width="2" d="M1281.1159,-439.9891C1285.7664,-431.9563 1291.3815,-422.2576 1296.6775,-413.11"/>
<polygon fill="#c0c0c0" stroke="#c0c0c0" stroke-width="2" points="1299.8381,-414.6361 1301.8195,-404.2282 1293.7801,-411.1288 1299.8381,-414.6361"/>
</g>
<!-- 10 -->
<g id="node11" class="node">
<title>10</title>
<path fill="none" stroke="#56d89a" stroke-width="2" d="M1567.7926,-252C1567.7926,-252 1529.5844,-252 1529.5844,-252 1523.5844,-252 1517.5844,-246 1517.5844,-240 1517.5844,-240 1517.5844,-228 1517.5844,-228 1517.5844,-222 1523.5844,-216 1529.5844,-216 1529.5844,-216 1567.7926,-216 1567.7926,-216 1573.7926,-216 1579.7926,-222 1579.7926,-228 1579.7926,-228 1579.7926,-240 1579.7926,-240 1579.7926,-246 1573.7926,-252 1567.7926,-252"/>
<text text-anchor="middle" x="1548.6885" y="-231" font-family="sans" font-size="10.00" fill="#000000">map_hisat2</text>
</g>
<!-- 50 -->
<g id="node51" class="node">
<title>50</title>
<path fill="none" stroke="#56b1d8" stroke-width="2" d="M1583.1895,-180C1583.1895,-180 1526.1875,-180 1526.1875,-180 1520.1875,-180 1514.1875,-174 1514.1875,-168 1514.1875,-168 1514.1875,-156 1514.1875,-156 1514.1875,-150 1520.1875,-144 1526.1875,-144 1526.1875,-144 1583.1895,-144 1583.1895,-144 1589.1895,-144 1595.1895,-150 1595.1895,-156 1595.1895,-156 1595.1895,-168 1595.1895,-168 1595.1895,-174 1589.1895,-180 1583.1895,-180"/>
<text text-anchor="middle" x="1554.6885" y="-159" font-family="sans" font-size="10.00" fill="#000000">snp_split_hisat2</text>
</g>
<!-- 10&#45;&gt;50 -->
<g id="edge74" class="edge">
<title>10&#45;&gt;50</title>
<path fill="none" stroke="#c0c0c0" stroke-width="2" d="M1550.2026,-215.8314C1550.8443,-208.131 1551.6073,-198.9743 1552.3204,-190.4166"/>
<polygon fill="#c0c0c0" stroke="#c0c0c0" stroke-width="2" points="1555.8114,-190.6694 1553.1541,-180.4133 1548.8356,-190.088 1555.8114,-190.6694"/>
</g>
<!-- 11 -->
<g id="node12" class="node">
<title>11</title>
<path fill="none" stroke="#5682d8" stroke-width="2" d="M453.5661,-404C453.5661,-404 359.8109,-404 359.8109,-404 353.8109,-404 347.8109,-398 347.8109,-392 347.8109,-392 347.8109,-372 347.8109,-372 347.8109,-366 353.8109,-360 359.8109,-360 359.8109,-360 453.5661,-360 453.5661,-360 459.5661,-360 465.5661,-366 465.5661,-372 465.5661,-372 465.5661,-392 465.5661,-392 465.5661,-398 459.5661,-404 453.5661,-404"/>
<text text-anchor="middle" x="406.6885" y="-391" font-family="sans" font-size="10.00" fill="#000000">fastq_md5</text>
<text text-anchor="middle" x="406.6885" y="-379" font-family="sans" font-size="10.00" fill="#000000">archive: CastB6F1_3_R2</text>
<text text-anchor="middle" x="406.6885" y="-367" font-family="sans" font-size="10.00" fill="#000000">outdir: rna_seq</text>
</g>
<!-- 57 -->
<g id="node58" class="node">
<title>57</title>
<path fill="none" stroke="#d8b456" stroke-width="2" d="M618.2973,-324C618.2973,-324 543.0797,-324 543.0797,-324 537.0797,-324 531.0797,-318 531.0797,-312 531.0797,-312 531.0797,-300 531.0797,-300 531.0797,-294 537.0797,-288 543.0797,-288 543.0797,-288 618.2973,-288 618.2973,-288 624.2973,-288 630.2973,-294 630.2973,-300 630.2973,-300 630.2973,-312 630.2973,-312 630.2973,-318 624.2973,-324 618.2973,-324"/>
<text text-anchor="middle" x="580.6885" y="-309" font-family="sans" font-size="10.00" fill="#000000">trim_galore</text>
<text text-anchor="middle" x="580.6885" y="-297" font-family="sans" font-size="10.00" fill="#000000">sample: CastB6F1_3</text>
</g>
<!-- 11&#45;&gt;57 -->
<g id="edge83" class="edge">
<title>11&#45;&gt;57</title>
<path fill="none" stroke="#c0c0c0" stroke-width="2" d="M457.4843,-359.8133C480.3184,-349.8398 507.2023,-338.0974 530.0212,-328.1305"/>
<polygon fill="#c0c0c0" stroke="#c0c0c0" stroke-width="2" points="531.4373,-331.3314 539.2003,-324.1213 528.6354,-324.9166 531.4373,-331.3314"/>
</g>
<!-- 12&#45;&gt;59 -->
<g id="edge90" class="edge">
<title>12&#45;&gt;59</title>
<path fill="none" stroke="#c0c0c0" stroke-width="2" d="M2080.6885,-359.6086C2080.6885,-351.7272 2080.6885,-342.7616 2080.6885,-334.4482"/>
<polygon fill="#c0c0c0" stroke="#c0c0c0" stroke-width="2" points="2084.1886,-334.3974 2080.6885,-324.3975 2077.1886,-334.3975 2084.1886,-334.3974"/>
</g>
<!-- 13&#45;&gt;26 -->
<g id="edge44" class="edge">
<title>13&#45;&gt;26</title>
<path fill="none" stroke="#c0c0c0" stroke-width="2" d="M1167.468,-150.9985C1176.7244,-148.6026 1186.5274,-146.1448 1195.6885,-144 1259.5768,-129.0422 1332.7911,-114.0252 1385.2138,-103.6382"/>
<polygon fill="#c0c0c0" stroke="#c0c0c0" stroke-width="2" points="1385.9503,-107.0604 1395.0824,-101.6889 1384.5937,-100.1931 1385.9503,-107.0604"/>
</g>
<!-- 14 -->
<g id="node15" class="node">
<title>14</title>
<path fill="none" stroke="#56d85b" stroke-width="2" d="M1661.5016,-620C1661.5016,-620 1533.8754,-620 1533.8754,-620 1527.8754,-620 1521.8754,-614 1521.8754,-608 1521.8754,-608 1521.8754,-596 1521.8754,-596 1521.8754,-590 1527.8754,-584 1533.8754,-584 1533.8754,-584 1661.5016,-584 1661.5016,-584 1667.5016,-584 1673.5016,-590 1673.5016,-596 1673.5016,-596 1673.5016,-608 1673.5016,-608 1673.5016,-614 1667.5016,-620 1661.5016,-620"/>
<text text-anchor="middle" x="1597.6885" y="-605" font-family="sans" font-size="10.00" fill="#000000">gunzip_fa</text>
<text text-anchor="middle" x="1597.6885" y="-593" font-family="sans" font-size="10.00" fill="#000000">file: ../genome_data/GRCm38_90</text>
</g>
<!-- 61 -->
<g id="node62" class="node">
<title>61</title>
<path fill="none" stroke="#5663d8" stroke-width="2" d="M1634.8857,-548C1634.8857,-548 1560.4913,-548 1560.4913,-548 1554.4913,-548 1548.4913,-542 1548.4913,-536 1548.4913,-536 1548.4913,-524 1548.4913,-524 1548.4913,-518 1554.4913,-512 1560.4913,-512 1560.4913,-512 1634.8857,-512 1634.8857,-512 1640.8857,-512 1646.8857,-518 1646.8857,-524 1646.8857,-524 1646.8857,-536 1646.8857,-536 1646.8857,-542 1640.8857,-548 1634.8857,-548"/>
<text text-anchor="middle" x="1597.6885" y="-527" font-family="sans" font-size="10.00" fill="#000000">snpsplit_create_path</text>
</g>
<!-- 14&#45;&gt;61 -->
<g id="edge92" class="edge">
<title>14&#45;&gt;61</title>
<path fill="none" stroke="#c0c0c0" stroke-width="2" d="M1597.6885,-583.8314C1597.6885,-576.131 1597.6885,-566.9743 1597.6885,-558.4166"/>
<polygon fill="#c0c0c0" stroke="#c0c0c0" stroke-width="2" points="1601.1886,-558.4132 1597.6885,-548.4133 1594.1886,-558.4133 1601.1886,-558.4132"/>
</g>
<!-- 15 -->
<g id="node16" class="node">
<title>15</title>
<path fill="none" stroke="#56b1d8" stroke-width="2" d="M1694.1895,-180C1694.1895,-180 1637.1875,-180 1637.1875,-180 1631.1875,-180 1625.1875,-174 1625.1875,-168 1625.1875,-168 1625.1875,-156 1625.1875,-156 1625.1875,-150 1631.1875,-144 1637.1875,-144 1637.1875,-144 1694.1895,-144 1694.1895,-144 1700.1895,-144 1706.1895,-150 1706.1895,-156 1706.1895,-156 1706.1895,-168 1706.1895,-168 1706.1895,-174 1700.1895,-180 1694.1895,-180"/>
<text text-anchor="middle" x="1665.6885" y="-159" font-family="sans" font-size="10.00" fill="#000000">snp_split_hisat2</text>
</g>
<!-- 15&#45;&gt;26 -->
<g id="edge45" class="edge">
<title>15&#45;&gt;26</title>
<path fill="none" stroke="#c0c0c0" stroke-width="2" d="M1624.9494,-148.0323C1594.5313,-137.6032 1552.4223,-123.1659 1517.8152,-111.3006"/>
<polygon fill="#c0c0c0" stroke="#c0c0c0" stroke-width="2" points="1518.8638,-107.9602 1508.2692,-108.0277 1516.5935,-114.5818 1518.8638,-107.9602"/>
</g>
<!-- 44 -->
<g id="node45" class="node">
<title>44</title>
<path fill="none" stroke="#56d89a" stroke-width="2" d="M1479.7926,-252C1479.7926,-252 1441.5844,-252 1441.5844,-252 1435.5844,-252 1429.5844,-246 1429.5844,-240 1429.5844,-240 1429.5844,-228 1429.5844,-228 1429.5844,-222 1435.5844,-216 1441.5844,-216 1441.5844,-216 1479.7926,-216 1479.7926,-216 1485.7926,-216 1491.7926,-222 1491.7926,-228 1491.7926,-228 1491.7926,-240 1491.7926,-240 1491.7926,-246 1485.7926,-252 1479.7926,-252"/>
<text text-anchor="middle" x="1460.6885" y="-231" font-family="sans" font-size="10.00" fill="#000000">map_hisat2</text>
</g>
<!-- 16&#45;&gt;44 -->
<g id="edge70" class="edge">
<title>16&#45;&gt;44</title>
<path fill="none" stroke="#c0c0c0" stroke-width="2" d="M1103.5947,-297.1714C1184.8901,-282.7899 1344.3705,-254.5771 1419.5804,-241.2722"/>
<polygon fill="#c0c0c0" stroke="#c0c0c0" stroke-width="2" points="1420.3793,-244.6853 1429.6167,-239.4967 1419.1598,-237.7923 1420.3793,-244.6853"/>
</g>
<!-- 17 -->
<g id="node18" class="node">
<title>17</title>
<path fill="none" stroke="#d8d356" stroke-width="2" d="M1551.9358,-476C1551.9358,-476 1457.4412,-476 1457.4412,-476 1451.4412,-476 1445.4412,-470 1445.4412,-464 1445.4412,-464 1445.4412,-452 1445.4412,-452 1445.4412,-446 1451.4412,-440 1457.4412,-440 1457.4412,-440 1551.9358,-440 1551.9358,-440 1557.9358,-440 1563.9358,-446 1563.9358,-452 1563.9358,-452 1563.9358,-464 1563.9358,-464 1563.9358,-470 1557.9358,-476 1551.9358,-476"/>
<text text-anchor="middle" x="1504.6885" y="-455" font-family="sans" font-size="10.00" fill="#000000">snpsplit_prepare_genome</text>
</g>
<!-- 43 -->
<g id="node44" class="node">
<title>43</title>
<path fill="none" stroke="#a7d856" stroke-width="2" d="M1555.0566,-400C1555.0566,-400 1454.3204,-400 1454.3204,-400 1448.3204,-400 1442.3204,-394 1442.3204,-388 1442.3204,-388 1442.3204,-376 1442.3204,-376 1442.3204,-370 1448.3204,-364 1454.3204,-364 1454.3204,-364 1555.0566,-364 1555.0566,-364 1561.0566,-364 1567.0566,-370 1567.0566,-376 1567.0566,-376 1567.0566,-388 1567.0566,-388 1567.0566,-394 1561.0566,-400 1555.0566,-400"/>
<text text-anchor="middle" x="1504.6885" y="-379" font-family="sans" font-size="10.00" fill="#000000">clean_up_snpsplit_genome</text>
</g>
<!-- 17&#45;&gt;43 -->
<g id="edge67" class="edge">
<title>17&#45;&gt;43</title>
<path fill="none" stroke="#c0c0c0" stroke-width="2" d="M1504.6885,-439.9891C1504.6885,-431.1566 1504.6885,-420.3099 1504.6885,-410.3965"/>
<polygon fill="#c0c0c0" stroke="#c0c0c0" stroke-width="2" points="1508.1886,-410.145 1504.6885,-400.145 1501.1886,-410.1451 1508.1886,-410.145"/>
</g>
<!-- 18 -->
<g id="node19" class="node">
<title>18</title>
<path fill="none" stroke="#5682d8" stroke-width="2" d="M105.5661,-404C105.5661,-404 11.8109,-404 11.8109,-404 5.8109,-404 -.1891,-398 -.1891,-392 -.1891,-392 -.1891,-372 -.1891,-372 -.1891,-366 5.8109,-360 11.8109,-360 11.8109,-360 105.5661,-360 105.5661,-360 111.5661,-360 117.5661,-366 117.5661,-372 117.5661,-372 117.5661,-392 117.5661,-392 117.5661,-398 111.5661,-404 105.5661,-404"/>
<text text-anchor="middle" x="58.6885" y="-391" font-family="sans" font-size="10.00" fill="#000000">fastq_md5</text>
<text text-anchor="middle" x="58.6885" y="-379" font-family="sans" font-size="10.00" fill="#000000">archive: CastB6F1_4_R2</text>
<text text-anchor="middle" x="58.6885" y="-367" font-family="sans" font-size="10.00" fill="#000000">outdir: rna_seq</text>
</g>
<!-- 24 -->
<g id="node25" class="node">
<title>24</title>
<path fill="none" stroke="#d8b456" stroke-width="2" d="M270.2973,-324C270.2973,-324 195.0797,-324 195.0797,-324 189.0797,-324 183.0797,-318 183.0797,-312 183.0797,-312 183.0797,-300 183.0797,-300 183.0797,-294 189.0797,-288 195.0797,-288 195.0797,-288 270.2973,-288 270.2973,-288 276.2973,-288 282.2973,-294 282.2973,-300 282.2973,-300 282.2973,-312 282.2973,-312 282.2973,-318 276.2973,-324 270.2973,-324"/>
<text text-anchor="middle" x="232.6885" y="-309" font-family="sans" font-size="10.00" fill="#000000">trim_galore</text>
<text text-anchor="middle" x="232.6885" y="-297" font-family="sans" font-size="10.00" fill="#000000">sample: CastB6F1_4</text>
</g>
<!-- 18&#45;&gt;24 -->
<g id="edge34" class="edge">
<title>18&#45;&gt;24</title>
<path fill="none" stroke="#c0c0c0" stroke-width="2" d="M109.4843,-359.8133C132.3184,-349.8398 159.2023,-338.0974 182.0212,-328.1305"/>
<polygon fill="#c0c0c0" stroke="#c0c0c0" stroke-width="2" points="183.4373,-331.3314 191.2003,-324.1213 180.6354,-324.9166 183.4373,-331.3314"/>
</g>
<!-- 19 -->
<g id="node20" class="node">
<title>19</title>
<path fill="none" stroke="#5682d8" stroke-width="2" d="M627.5661,-404C627.5661,-404 533.8109,-404 533.8109,-404 527.8109,-404 521.8109,-398 521.8109,-392 521.8109,-392 521.8109,-372 521.8109,-372 521.8109,-366 527.8109,-360 533.8109,-360 533.8109,-360 627.5661,-360 627.5661,-360 633.5661,-360 639.5661,-366 639.5661,-372 639.5661,-372 639.5661,-392 639.5661,-392 639.5661,-398 633.5661,-404 627.5661,-404"/>
<text text-anchor="middle" x="580.6885" y="-391" font-family="sans" font-size="10.00" fill="#000000">fastq_md5</text>
<text text-anchor="middle" x="580.6885" y="-379" font-family="sans" font-size="10.00" fill="#000000">archive: CastB6F1_3_R1</text>
<text text-anchor="middle" x="580.6885" y="-367" font-family="sans" font-size="10.00" fill="#000000">outdir: rna_seq</text>
</g>
<!-- 19&#45;&gt;57 -->
<g id="edge84" class="edge">
<title>19&#45;&gt;57</title>
<path fill="none" stroke="#c0c0c0" stroke-width="2" d="M580.6885,-359.6086C580.6885,-351.7272 580.6885,-342.7616 580.6885,-334.4482"/>
<polygon fill="#c0c0c0" stroke="#c0c0c0" stroke-width="2" points="584.1886,-334.3974 580.6885,-324.3975 577.1886,-334.3975 584.1886,-334.3974"/>
</g>
<!-- 20 -->
<g id="node21" class="node">
<title>20</title>
<path fill="none" stroke="#5682d8" stroke-width="2" d="M1915.5661,-404C1915.5661,-404 1821.8109,-404 1821.8109,-404 1815.8109,-404 1809.8109,-398 1809.8109,-392 1809.8109,-392 1809.8109,-372 1809.8109,-372 1809.8109,-366 1815.8109,-360 1821.8109,-360 1821.8109,-360 1915.5661,-360 1915.5661,-360 1921.5661,-360 1927.5661,-366 1927.5661,-372 1927.5661,-372 1927.5661,-392 1927.5661,-392 1927.5661,-398 1921.5661,-404 1915.5661,-404"/>
<text text-anchor="middle" x="1868.6885" y="-391" font-family="sans" font-size="10.00" fill="#000000">fastq_md5</text>
<text text-anchor="middle" x="1868.6885" y="-379" font-family="sans" font-size="10.00" fill="#000000">archive: B6CastF1_2_R2</text>
<text text-anchor="middle" x="1868.6885" y="-367" font-family="sans" font-size="10.00" fill="#000000">outdir: rna_seq</text>
</g>
<!-- 20&#45;&gt;67 -->
<g id="edge106" class="edge">
<title>20&#45;&gt;67</title>
<path fill="none" stroke="#c0c0c0" stroke-width="2" d="M1894.3208,-359.6086C1904.6257,-350.6065 1916.5499,-340.1901 1927.1312,-330.9466"/>
<polygon fill="#c0c0c0" stroke="#c0c0c0" stroke-width="2" points="1929.6835,-333.3644 1934.912,-324.1496 1925.0782,-328.0926 1929.6835,-333.3644"/>
</g>
<!-- 21&#45;&gt;16 -->
<g id="edge23" class="edge">
<title>21&#45;&gt;16</title>
<path fill="none" stroke="#c0c0c0" stroke-width="2" d="M1115.0562,-359.6086C1104.7513,-350.6065 1092.8271,-340.1901 1082.2458,-330.9466"/>
<polygon fill="#c0c0c0" stroke="#c0c0c0" stroke-width="2" points="1084.2988,-328.0926 1074.465,-324.1496 1079.6935,-333.3644 1084.2988,-328.0926"/>
</g>
<!-- 22 -->
<g id="node23" class="node">
<title>22</title>
<path fill="none" stroke="#bed856" stroke-width="2" d="M2754.6665,-476C2754.6665,-476 2652.7105,-476 2652.7105,-476 2646.7105,-476 2640.7105,-470 2640.7105,-464 2640.7105,-464 2640.7105,-452 2640.7105,-452 2640.7105,-446 2646.7105,-440 2652.7105,-440 2652.7105,-440 2754.6665,-440 2754.6665,-440 2760.6665,-440 2766.6665,-446 2766.6665,-452 2766.6665,-452 2766.6665,-464 2766.6665,-464 2766.6665,-470 2760.6665,-476 2754.6665,-476"/>
<text text-anchor="middle" x="2703.6885" y="-461" font-family="sans" font-size="10.00" fill="#000000">download_rnaseq_CastB62</text>
<text text-anchor="middle" x="2703.6885" y="-449" font-family="sans" font-size="10.00" fill="#000000">file: 1</text>
</g>
<!-- 39 -->
<g id="node40" class="node">
<title>39</title>
<path fill="none" stroke="#d8b456" stroke-width="2" d="M2813.2973,-324C2813.2973,-324 2738.0797,-324 2738.0797,-324 2732.0797,-324 2726.0797,-318 2726.0797,-312 2726.0797,-312 2726.0797,-300 2726.0797,-300 2726.0797,-294 2732.0797,-288 2738.0797,-288 2738.0797,-288 2813.2973,-288 2813.2973,-288 2819.2973,-288 2825.2973,-294 2825.2973,-300 2825.2973,-300 2825.2973,-312 2825.2973,-312 2825.2973,-318 2819.2973,-324 2813.2973,-324"/>
<text text-anchor="middle" x="2775.6885" y="-309" font-family="sans" font-size="10.00" fill="#000000">trim_galore</text>
<text text-anchor="middle" x="2775.6885" y="-297" font-family="sans" font-size="10.00" fill="#000000">sample: CastB6F1_2</text>
</g>
<!-- 22&#45;&gt;39 -->
<g id="edge59" class="edge">
<title>22&#45;&gt;39</title>
<path fill="none" stroke="#c0c0c0" stroke-width="2" d="M2700.1309,-439.8935C2697.0277,-419.3307 2694.8042,-385.3505 2707.6885,-360 2713.617,-348.3353 2723.3424,-338.3729 2733.6084,-330.2993"/>
<polygon fill="#c0c0c0" stroke="#c0c0c0" stroke-width="2" points="2735.8936,-332.9641 2741.8952,-324.233 2731.7588,-327.3158 2735.8936,-332.9641"/>
</g>
<!-- 40 -->
<g id="node41" class="node">
<title>40</title>
<path fill="none" stroke="#5682d8" stroke-width="2" d="M2822.5661,-404C2822.5661,-404 2728.8109,-404 2728.8109,-404 2722.8109,-404 2716.8109,-398 2716.8109,-392 2716.8109,-392 2716.8109,-372 2716.8109,-372 2716.8109,-366 2722.8109,-360 2728.8109,-360 2728.8109,-360 2822.5661,-360 2822.5661,-360 2828.5661,-360 2834.5661,-366 2834.5661,-372 2834.5661,-372 2834.5661,-392 2834.5661,-392 2834.5661,-398 2828.5661,-404 2822.5661,-404"/>
<text text-anchor="middle" x="2775.6885" y="-391" font-family="sans" font-size="10.00" fill="#000000">fastq_md5</text>
<text text-anchor="middle" x="2775.6885" y="-379" font-family="sans" font-size="10.00" fill="#000000">archive: CastB6F1_2_R1</text>
<text text-anchor="middle" x="2775.6885" y="-367" font-family="sans" font-size="10.00" fill="#000000">outdir: rna_seq</text>
</g>
<!-- 22&#45;&gt;40 -->
<g id="edge62" class="edge">
<title>22&#45;&gt;40</title>
<path fill="none" stroke="#c0c0c0" stroke-width="2" d="M2720.7515,-439.9891C2728.7579,-431.5379 2738.5112,-421.2428 2747.5654,-411.6855"/>
<polygon fill="#c0c0c0" stroke="#c0c0c0" stroke-width="2" points="2750.2936,-413.8949 2754.6302,-404.2282 2745.2119,-409.0806 2750.2936,-413.8949"/>
</g>
<!-- 23 -->
<g id="node24" class="node">
<title>23</title>
<path fill="none" stroke="#56b1d8" stroke-width="2" d="M1484.1895,-180C1484.1895,-180 1427.1875,-180 1427.1875,-180 1421.1875,-180 1415.1875,-174 1415.1875,-168 1415.1875,-168 1415.1875,-156 1415.1875,-156 1415.1875,-150 1421.1875,-144 1427.1875,-144 1427.1875,-144 1484.1895,-144 1484.1895,-144 1490.1895,-144 1496.1895,-150 1496.1895,-156 1496.1895,-156 1496.1895,-168 1496.1895,-168 1496.1895,-174 1490.1895,-180 1484.1895,-180"/>
<text text-anchor="middle" x="1455.6885" y="-159" font-family="sans" font-size="10.00" fill="#000000">snp_split_hisat2</text>
</g>
<!-- 23&#45;&gt;26 -->
<g id="edge46" class="edge">
<title>23&#45;&gt;26</title>
<path fill="none" stroke="#c0c0c0" stroke-width="2" d="M1455.6885,-143.8314C1455.6885,-136.131 1455.6885,-126.9743 1455.6885,-118.4166"/>
<polygon fill="#c0c0c0" stroke="#c0c0c0" stroke-width="2" points="1459.1886,-118.4132 1455.6885,-108.4133 1452.1886,-118.4133 1459.1886,-118.4132"/>
</g>
<!-- 24&#45;&gt;7 -->
<g id="edge10" class="edge">
<title>24&#45;&gt;7</title>
<path fill="none" stroke="#c0c0c0" stroke-width="2" d="M282.5476,-302.752C441.0375,-292.3896 927.0272,-260.31 997.6885,-252 1020.1763,-249.3554 1045.1035,-245.322 1065.438,-241.7431"/>
<polygon fill="#c0c0c0" stroke="#c0c0c0" stroke-width="2" points="1066.0894,-245.1823 1075.3174,-239.977 1064.8575,-238.2915 1066.0894,-245.1823"/>
</g>
<!-- 25 -->
<g id="node26" class="node">
<title>25</title>
<path fill="none" stroke="#5682d8" stroke-width="2" d="M279.5661,-404C279.5661,-404 185.8109,-404 185.8109,-404 179.8109,-404 173.8109,-398 173.8109,-392 173.8109,-392 173.8109,-372 173.8109,-372 173.8109,-366 179.8109,-360 185.8109,-360 185.8109,-360 279.5661,-360 279.5661,-360 285.5661,-360 291.5661,-366 291.5661,-372 291.5661,-372 291.5661,-392 291.5661,-392 291.5661,-398 285.5661,-404 279.5661,-404"/>
<text text-anchor="middle" x="232.6885" y="-391" font-family="sans" font-size="10.00" fill="#000000">fastq_md5</text>
<text text-anchor="middle" x="232.6885" y="-379" font-family="sans" font-size="10.00" fill="#000000">archive: CastB6F1_4_R1</text>
<text text-anchor="middle" x="232.6885" y="-367" font-family="sans" font-size="10.00" fill="#000000">outdir: rna_seq</text>
</g>
<!-- 25&#45;&gt;24 -->
<g id="edge33" class="edge">
<title>25&#45;&gt;24</title>
<path fill="none" stroke="#c0c0c0" stroke-width="2" d="M232.6885,-359.6086C232.6885,-351.7272 232.6885,-342.7616 232.6885,-334.4482"/>
<polygon fill="#c0c0c0" stroke="#c0c0c0" stroke-width="2" points="236.1886,-334.3974 232.6885,-324.3975 229.1886,-334.3975 236.1886,-334.3974"/>
</g>
<!-- 32 -->
<g id="node33" class="node">
<title>32</title>
<path fill="none" stroke="#d88556" stroke-width="2" d="M1483.4991,-36C1483.4991,-36 1427.8779,-36 1427.8779,-36 1421.8779,-36 1415.8779,-30 1415.8779,-24 1415.8779,-24 1415.8779,-12 1415.8779,-12 1415.8779,-6 1421.8779,0 1427.8779,0 1427.8779,0 1483.4991,0 1483.4991,0 1489.4991,0 1495.4991,-6 1495.4991,-12 1495.4991,-12 1495.4991,-24 1495.4991,-24 1495.4991,-30 1489.4991,-36 1483.4991,-36"/>
<text text-anchor="middle" x="1455.6885" y="-15" font-family="sans" font-size="10.00" fill="#000000">rnaseq_analysis</text>
</g>
<!-- 26&#45;&gt;32 -->
<g id="edge50" class="edge">
<title>26&#45;&gt;32</title>
<path fill="none" stroke="#c0c0c0" stroke-width="2" d="M1455.6885,-71.8314C1455.6885,-64.131 1455.6885,-54.9743 1455.6885,-46.4166"/>
<polygon fill="#c0c0c0" stroke="#c0c0c0" stroke-width="2" points="1459.1886,-46.4132 1455.6885,-36.4133 1452.1886,-46.4133 1459.1886,-46.4132"/>
</g>
<!-- 27 -->
<g id="node28" class="node">
<title>27</title>
<path fill="none" stroke="#5682d8" stroke-width="2" d="M2648.5661,-404C2648.5661,-404 2554.8109,-404 2554.8109,-404 2548.8109,-404 2542.8109,-398 2542.8109,-392 2542.8109,-392 2542.8109,-372 2542.8109,-372 2542.8109,-366 2548.8109,-360 2554.8109,-360 2554.8109,-360 2648.5661,-360 2648.5661,-360 2654.5661,-360 2660.5661,-366 2660.5661,-372 2660.5661,-372 2660.5661,-392 2660.5661,-392 2660.5661,-398 2654.5661,-404 2648.5661,-404"/>
<text text-anchor="middle" x="2601.6885" y="-391" font-family="sans" font-size="10.00" fill="#000000">fastq_md5</text>
<text text-anchor="middle" x="2601.6885" y="-379" font-family="sans" font-size="10.00" fill="#000000">archive: B6CastF1_5_R1</text>
<text text-anchor="middle" x="2601.6885" y="-367" font-family="sans" font-size="10.00" fill="#000000">outdir: rna_seq</text>
</g>
<!-- 64 -->
<g id="node65" class="node">
<title>64</title>
<path fill="none" stroke="#d8b456" stroke-width="2" d="M2465.2973,-324C2465.2973,-324 2390.0797,-324 2390.0797,-324 2384.0797,-324 2378.0797,-318 2378.0797,-312 2378.0797,-312 2378.0797,-300 2378.0797,-300 2378.0797,-294 2384.0797,-288 2390.0797,-288 2390.0797,-288 2465.2973,-288 2465.2973,-288 2471.2973,-288 2477.2973,-294 2477.2973,-300 2477.2973,-300 2477.2973,-312 2477.2973,-312 2477.2973,-318 2471.2973,-324 2465.2973,-324"/>
<text text-anchor="middle" x="2427.6885" y="-309" font-family="sans" font-size="10.00" fill="#000000">trim_galore</text>
<text text-anchor="middle" x="2427.6885" y="-297" font-family="sans" font-size="10.00" fill="#000000">sample: B6CastF1_5</text>
</g>
<!-- 27&#45;&gt;64 -->
<g id="edge94" class="edge">
<title>27&#45;&gt;64</title>
<path fill="none" stroke="#c0c0c0" stroke-width="2" d="M2550.8927,-359.8133C2528.0586,-349.8398 2501.1747,-338.0974 2478.3558,-328.1305"/>
<polygon fill="#c0c0c0" stroke="#c0c0c0" stroke-width="2" points="2479.7416,-324.9166 2469.1767,-324.1213 2476.9397,-331.3314 2479.7416,-324.9166"/>
</g>
<!-- 28 -->
<g id="node29" class="node">
<title>28</title>
<path fill="none" stroke="#bed856" stroke-width="2" d="M2956.6665,-476C2956.6665,-476 2854.7105,-476 2854.7105,-476 2848.7105,-476 2842.7105,-470 2842.7105,-464 2842.7105,-464 2842.7105,-452 2842.7105,-452 2842.7105,-446 2848.7105,-440 2854.7105,-440 2854.7105,-440 2956.6665,-440 2956.6665,-440 2962.6665,-440 2968.6665,-446 2968.6665,-452 2968.6665,-452 2968.6665,-464 2968.6665,-464 2968.6665,-470 2962.6665,-476 2956.6665,-476"/>
<text text-anchor="middle" x="2905.6885" y="-461" font-family="sans" font-size="10.00" fill="#000000">download_rnaseq_CastB62</text>
<text text-anchor="middle" x="2905.6885" y="-449" font-family="sans" font-size="10.00" fill="#000000">file: 2</text>
</g>
<!-- 28&#45;&gt;39 -->
<g id="edge60" class="edge">
<title>28&#45;&gt;39</title>
<path fill="none" stroke="#c0c0c0" stroke-width="2" d="M2896.5649,-439.7709C2885.6952,-419.0955 2866.1567,-385.0123 2843.6885,-360 2833.9606,-349.1707 2821.8965,-338.8279 2810.6427,-330.1454"/>
<polygon fill="#c0c0c0" stroke="#c0c0c0" stroke-width="2" points="2812.7345,-327.3393 2802.6363,-324.1335 2808.5313,-332.9369 2812.7345,-327.3393"/>
</g>
<!-- 58 -->
<g id="node59" class="node">
<title>58</title>
<path fill="none" stroke="#5682d8" stroke-width="2" d="M2996.5661,-404C2996.5661,-404 2902.8109,-404 2902.8109,-404 2896.8109,-404 2890.8109,-398 2890.8109,-392 2890.8109,-392 2890.8109,-372 2890.8109,-372 2890.8109,-366 2896.8109,-360 2902.8109,-360 2902.8109,-360 2996.5661,-360 2996.5661,-360 3002.5661,-360 3008.5661,-366 3008.5661,-372 3008.5661,-372 3008.5661,-392 3008.5661,-392 3008.5661,-398 3002.5661,-404 2996.5661,-404"/>
<text text-anchor="middle" x="2949.6885" y="-391" font-family="sans" font-size="10.00" fill="#000000">fastq_md5</text>
<text text-anchor="middle" x="2949.6885" y="-379" font-family="sans" font-size="10.00" fill="#000000">archive: CastB6F1_2_R2</text>
<text text-anchor="middle" x="2949.6885" y="-367" font-family="sans" font-size="10.00" fill="#000000">outdir: rna_seq</text>
</g>
<!-- 28&#45;&gt;58 -->
<g id="edge87" class="edge">
<title>28&#45;&gt;58</title>
<path fill="none" stroke="#c0c0c0" stroke-width="2" d="M2916.1159,-439.9891C2920.7664,-431.9563 2926.3815,-422.2576 2931.6775,-413.11"/>
<polygon fill="#c0c0c0" stroke="#c0c0c0" stroke-width="2" points="2934.8381,-414.6361 2936.8195,-404.2282 2928.7801,-411.1288 2934.8381,-414.6361"/>
</g>
<!-- 29 -->
<g id="node30" class="node">
<title>29</title>
<path fill="none" stroke="#d86e56" stroke-width="2" d="M1442.0157,-620C1442.0157,-620 1379.3613,-620 1379.3613,-620 1373.3613,-620 1367.3613,-614 1367.3613,-608 1367.3613,-608 1367.3613,-596 1367.3613,-596 1367.3613,-590 1373.3613,-584 1379.3613,-584 1379.3613,-584 1442.0157,-584 1442.0157,-584 1448.0157,-584 1454.0157,-590 1454.0157,-596 1454.0157,-596 1454.0157,-608 1454.0157,-608 1454.0157,-614 1448.0157,-620 1442.0157,-620"/>
<text text-anchor="middle" x="1410.6885" y="-605" font-family="sans" font-size="10.00" fill="#000000">download_vcf</text>
<text text-anchor="middle" x="1410.6885" y="-593" font-family="sans" font-size="10.00" fill="#000000">strain: CAST_EiJ</text>
</g>
<!-- 46 -->
<g id="node47" class="node">
<title>46</title>
<path fill="none" stroke="#56c1d8" stroke-width="2" d="M1518.8927,-548C1518.8927,-548 1302.4843,-548 1302.4843,-548 1296.4843,-548 1290.4843,-542 1290.4843,-536 1290.4843,-536 1290.4843,-524 1290.4843,-524 1290.4843,-518 1296.4843,-512 1302.4843,-512 1302.4843,-512 1518.8927,-512 1518.8927,-512 1524.8927,-512 1530.8927,-518 1530.8927,-524 1530.8927,-524 1530.8927,-536 1530.8927,-536 1530.8927,-542 1524.8927,-548 1518.8927,-548"/>
<text text-anchor="middle" x="1410.6885" y="-533" font-family="sans" font-size="10.00" fill="#000000">gunzip_vcf</text>
<text text-anchor="middle" x="1410.6885" y="-521" font-family="sans" font-size="10.00" fill="#000000">file: ../genome_data/CAST_EiJ.mgp.v5.snps.dbSNP142</text>
</g>
<!-- 29&#45;&gt;46 -->
<g id="edge71" class="edge">
<title>29&#45;&gt;46</title>
<path fill="none" stroke="#c0c0c0" stroke-width="2" d="M1410.6885,-583.8314C1410.6885,-576.131 1410.6885,-566.9743 1410.6885,-558.4166"/>
<polygon fill="#c0c0c0" stroke="#c0c0c0" stroke-width="2" points="1414.1886,-558.4132 1410.6885,-548.4133 1407.1886,-558.4133 1414.1886,-558.4132"/>
</g>
<!-- 30 -->
<g id="node31" class="node">
<title>30</title>
<path fill="none" stroke="#56b1d8" stroke-width="2" d="M1910.1895,-180C1910.1895,-180 1853.1875,-180 1853.1875,-180 1847.1875,-180 1841.1875,-174 1841.1875,-168 1841.1875,-168 1841.1875,-156 1841.1875,-156 1841.1875,-150 1847.1875,-144 1853.1875,-144 1853.1875,-144 1910.1895,-144 1910.1895,-144 1916.1895,-144 1922.1895,-150 1922.1895,-156 1922.1895,-156 1922.1895,-168 1922.1895,-168 1922.1895,-174 1916.1895,-180 1910.1895,-180"/>
<text text-anchor="middle" x="1881.6885" y="-159" font-family="sans" font-size="10.00" fill="#000000">snp_split_hisat2</text>
</g>
<!-- 30&#45;&gt;26 -->
<g id="edge42" class="edge">
<title>30&#45;&gt;26</title>
<path fill="none" stroke="#c0c0c0" stroke-width="2" d="M1841.1197,-150.3117C1832.4415,-148.0334 1823.2952,-145.7974 1814.6885,-144 1715.3999,-123.2648 1599.0735,-107.2595 1526.3675,-98.2315"/>
<polygon fill="#c0c0c0" stroke="#c0c0c0" stroke-width="2" points="1526.7571,-94.7531 1516.4042,-97.0042 1525.9012,-101.7006 1526.7571,-94.7531"/>
</g>
<!-- 31 -->
<g id="node32" class="node">
<title>31</title>
<path fill="none" stroke="#afd856" stroke-width="2" d="M298.6665,-476C298.6665,-476 196.7105,-476 196.7105,-476 190.7105,-476 184.7105,-470 184.7105,-464 184.7105,-464 184.7105,-452 184.7105,-452 184.7105,-446 190.7105,-440 196.7105,-440 196.7105,-440 298.6665,-440 298.6665,-440 304.6665,-440 310.6665,-446 310.6665,-452 310.6665,-452 310.6665,-464 310.6665,-464 310.6665,-470 304.6665,-476 298.6665,-476"/>
<text text-anchor="middle" x="247.6885" y="-461" font-family="sans" font-size="10.00" fill="#000000">download_rnaseq_CastB64</text>
<text text-anchor="middle" x="247.6885" y="-449" font-family="sans" font-size="10.00" fill="#000000">file: 1</text>
</g>
<!-- 31&#45;&gt;24 -->
<g id="edge36" class="edge">
<title>31&#45;&gt;24</title>
<path fill="none" stroke="#c0c0c0" stroke-width="2" d="M272.7313,-439.8695C283.5005,-430.5148 294.9231,-418.105 300.6885,-404 308.0876,-385.8983 309.1914,-377.6102 300.6885,-360 294.9991,-348.2168 285.3507,-338.2163 275.082,-330.144"/>
<polygon fill="#c0c0c0" stroke="#c0c0c0" stroke-width="2" points="276.9192,-327.152 266.7775,-324.0865 272.794,-332.8073 276.9192,-327.152"/>
</g>
<!-- 31&#45;&gt;25 -->
<g id="edge37" class="edge">
<title>31&#45;&gt;25</title>
<path fill="none" stroke="#c0c0c0" stroke-width="2" d="M244.1337,-439.9891C242.6144,-432.291 240.793,-423.0629 239.0548,-414.2561"/>
<polygon fill="#c0c0c0" stroke="#c0c0c0" stroke-width="2" points="242.4458,-413.3612 237.0756,-404.2282 235.5783,-414.7167 242.4458,-413.3612"/>
</g>
<!-- 33&#45;&gt;59 -->
<g id="edge89" class="edge">
<title>33&#45;&gt;59</title>
<path fill="none" stroke="#c0c0c0" stroke-width="2" d="M2176.278,-359.8133C2159.1793,-350.1874 2139.1538,-338.9138 2121.8617,-329.179"/>
<polygon fill="#c0c0c0" stroke="#c0c0c0" stroke-width="2" points="2123.5292,-326.1012 2113.0981,-324.2454 2120.0952,-332.2011 2123.5292,-326.1012"/>
</g>
<!-- 34 -->
<g id="node35" class="node">
<title>34</title>
<path fill="none" stroke="#56d8a9" stroke-width="2" d="M2587.6665,-476C2587.6665,-476 2485.7105,-476 2485.7105,-476 2479.7105,-476 2473.7105,-470 2473.7105,-464 2473.7105,-464 2473.7105,-452 2473.7105,-452 2473.7105,-446 2479.7105,-440 2485.7105,-440 2485.7105,-440 2587.6665,-440 2587.6665,-440 2593.6665,-440 2599.6665,-446 2599.6665,-452 2599.6665,-452 2599.6665,-464 2599.6665,-464 2599.6665,-470 2593.6665,-476 2587.6665,-476"/>
<text text-anchor="middle" x="2536.6885" y="-461" font-family="sans" font-size="10.00" fill="#000000">download_rnaseq_B6Cast5</text>
<text text-anchor="middle" x="2536.6885" y="-449" font-family="sans" font-size="10.00" fill="#000000">file: 1</text>
</g>
<!-- 34&#45;&gt;27 -->
<g id="edge47" class="edge">
<title>34&#45;&gt;27</title>
<path fill="none" stroke="#c0c0c0" stroke-width="2" d="M2552.0926,-439.9891C2559.249,-431.6216 2567.9514,-421.4464 2576.0566,-411.9696"/>
<polygon fill="#c0c0c0" stroke="#c0c0c0" stroke-width="2" points="2578.8377,-414.1028 2582.6775,-404.2282 2573.5179,-409.553 2578.8377,-414.1028"/>
</g>
<!-- 34&#45;&gt;64 -->
<g id="edge96" class="edge">
<title>34&#45;&gt;64</title>
<path fill="none" stroke="#c0c0c0" stroke-width="2" d="M2532.1142,-439.9786C2526.2022,-419.1893 2514.3889,-384.7043 2495.6885,-360 2487.2054,-348.7934 2475.8819,-338.5871 2464.9121,-330.1389"/>
<polygon fill="#c0c0c0" stroke="#c0c0c0" stroke-width="2" points="2466.7687,-327.159 2456.6452,-324.0338 2462.6102,-332.7899 2466.7687,-327.159"/>
</g>
<!-- 35 -->
<g id="node36" class="node">
<title>35</title>
<path fill="none" stroke="#56d8a9" stroke-width="2" d="M2438.6665,-476C2438.6665,-476 2336.7105,-476 2336.7105,-476 2330.7105,-476 2324.7105,-470 2324.7105,-464 2324.7105,-464 2324.7105,-452 2324.7105,-452 2324.7105,-446 2330.7105,-440 2336.7105,-440 2336.7105,-440 2438.6665,-440 2438.6665,-440 2444.6665,-440 2450.6665,-446 2450.6665,-452 2450.6665,-452 2450.6665,-464 2450.6665,-464 2450.6665,-470 2444.6665,-476 2438.6665,-476"/>
<text text-anchor="middle" x="2387.6885" y="-461" font-family="sans" font-size="10.00" fill="#000000">download_rnaseq_B6Cast5</text>
<text text-anchor="middle" x="2387.6885" y="-449" font-family="sans" font-size="10.00" fill="#000000">file: 2</text>
</g>
<!-- 35&#45;&gt;64 -->
<g id="edge97" class="edge">
<title>35&#45;&gt;64</title>
<path fill="none" stroke="#c0c0c0" stroke-width="2" d="M2375.0041,-439.9871C2362.4816,-419.8047 2346.9168,-386.4513 2359.6885,-360 2365.3779,-348.2168 2375.0263,-338.2163 2385.295,-330.144"/>
<polygon fill="#c0c0c0" stroke="#c0c0c0" stroke-width="2" points="2387.583,-332.8073 2393.5995,-324.0865 2383.4578,-327.152 2387.583,-332.8073"/>
</g>
<!-- 66 -->
<g id="node67" class="node">
<title>66</title>
<path fill="none" stroke="#5682d8" stroke-width="2" d="M2474.5661,-404C2474.5661,-404 2380.8109,-404 2380.8109,-404 2374.8109,-404 2368.8109,-398 2368.8109,-392 2368.8109,-392 2368.8109,-372 2368.8109,-372 2368.8109,-366 2374.8109,-360 2380.8109,-360 2380.8109,-360 2474.5661,-360 2474.5661,-360 2480.5661,-360 2486.5661,-366 2486.5661,-372 2486.5661,-372 2486.5661,-392 2486.5661,-392 2486.5661,-398 2480.5661,-404 2474.5661,-404"/>
<text text-anchor="middle" x="2427.6885" y="-391" font-family="sans" font-size="10.00" fill="#000000">fastq_md5</text>
<text text-anchor="middle" x="2427.6885" y="-379" font-family="sans" font-size="10.00" fill="#000000">archive: B6CastF1_5_R2</text>
<text text-anchor="middle" x="2427.6885" y="-367" font-family="sans" font-size="10.00" fill="#000000">outdir: rna_seq</text>
</g>
<!-- 35&#45;&gt;66 -->
<g id="edge102" class="edge">
<title>35&#45;&gt;66</title>
<path fill="none" stroke="#c0c0c0" stroke-width="2" d="M2397.1679,-439.9891C2401.3957,-431.9563 2406.5003,-422.2576 2411.3148,-413.11"/>
<polygon fill="#c0c0c0" stroke="#c0c0c0" stroke-width="2" points="2414.4291,-414.7075 2415.9894,-404.2282 2408.2347,-411.4473 2414.4291,-414.7075"/>
</g>
<!-- 36 -->
<g id="node37" class="node">
<title>36</title>
<path fill="none" stroke="#56d89a" stroke-width="2" d="M1841.7926,-252C1841.7926,-252 1803.5844,-252 1803.5844,-252 1797.5844,-252 1791.5844,-246 1791.5844,-240 1791.5844,-240 1791.5844,-228 1791.5844,-228 1791.5844,-222 1797.5844,-216 1803.5844,-216 1803.5844,-216 1841.7926,-216 1841.7926,-216 1847.7926,-216 1853.7926,-222 1853.7926,-228 1853.7926,-228 1853.7926,-240 1853.7926,-240 1853.7926,-246 1847.7926,-252 1841.7926,-252"/>
<text text-anchor="middle" x="1822.6885" y="-231" font-family="sans" font-size="10.00" fill="#000000">map_hisat2</text>
</g>
<!-- 36&#45;&gt;2 -->
<g id="edge2" class="edge">
<title>36&#45;&gt;2</title>
<path fill="none" stroke="#c0c0c0" stroke-width="2" d="M1808.0527,-215.8314C1801.3724,-207.5386 1793.3317,-197.557 1785.9981,-188.4533"/>
<polygon fill="#c0c0c0" stroke="#c0c0c0" stroke-width="2" points="1788.5204,-186.0052 1779.5214,-180.4133 1783.0691,-190.3965 1788.5204,-186.0052"/>
</g>
<!-- 37 -->
<g id="node38" class="node">
<title>37</title>
<path fill="none" stroke="#56d89a" stroke-width="2" d="M1959.7926,-252C1959.7926,-252 1921.5844,-252 1921.5844,-252 1915.5844,-252 1909.5844,-246 1909.5844,-240 1909.5844,-240 1909.5844,-228 1909.5844,-228 1909.5844,-222 1915.5844,-216 1921.5844,-216 1921.5844,-216 1959.7926,-216 1959.7926,-216 1965.7926,-216 1971.7926,-222 1971.7926,-228 1971.7926,-228 1971.7926,-240 1971.7926,-240 1971.7926,-246 1965.7926,-252 1959.7926,-252"/>
<text text-anchor="middle" x="1940.6885" y="-231" font-family="sans" font-size="10.00" fill="#000000">map_hisat2</text>
</g>
<!-- 37&#45;&gt;30 -->
<g id="edge49" class="edge">
<title>37&#45;&gt;30</title>
<path fill="none" stroke="#c0c0c0" stroke-width="2" d="M1925.8003,-215.8314C1918.9355,-207.454 1910.6584,-197.3531 1903.1374,-188.1749"/>
<polygon fill="#c0c0c0" stroke="#c0c0c0" stroke-width="2" points="1905.8226,-185.9297 1896.7771,-180.4133 1900.4082,-190.3665 1905.8226,-185.9297"/>
</g>
<!-- 38 -->
<g id="node39" class="node">
<title>38</title>
<path fill="none" stroke="#b6d856" stroke-width="2" d="M1935.6665,-476C1935.6665,-476 1833.7105,-476 1833.7105,-476 1827.7105,-476 1821.7105,-470 1821.7105,-464 1821.7105,-464 1821.7105,-452 1821.7105,-452 1821.7105,-446 1827.7105,-440 1833.7105,-440 1833.7105,-440 1935.6665,-440 1935.6665,-440 1941.6665,-440 1947.6665,-446 1947.6665,-452 1947.6665,-452 1947.6665,-464 1947.6665,-464 1947.6665,-470 1941.6665,-476 1935.6665,-476"/>
<text text-anchor="middle" x="1884.6885" y="-461" font-family="sans" font-size="10.00" fill="#000000">download_rnaseq_B6Cast2</text>
<text text-anchor="middle" x="1884.6885" y="-449" font-family="sans" font-size="10.00" fill="#000000">file: 2</text>
</g>
<!-- 38&#45;&gt;20 -->
<g id="edge29" class="edge">
<title>38&#45;&gt;20</title>
<path fill="none" stroke="#c0c0c0" stroke-width="2" d="M1880.8967,-439.9891C1879.2761,-432.291 1877.3333,-423.0629 1875.4793,-414.2561"/>
<polygon fill="#c0c0c0" stroke="#c0c0c0" stroke-width="2" points="1878.8532,-413.2926 1873.3681,-404.2282 1872.0034,-414.7348 1878.8532,-413.2926"/>
</g>
<!-- 38&#45;&gt;67 -->
<g id="edge105" class="edge">
<title>38&#45;&gt;67</title>
<path fill="none" stroke="#c0c0c0" stroke-width="2" d="M1907.2929,-439.9662C1917.8119,-430.3794 1929.55,-417.7447 1936.6885,-404 1947.9283,-382.3585 1952.5523,-354.9001 1954.4377,-334.5576"/>
<polygon fill="#c0c0c0" stroke="#c0c0c0" stroke-width="2" points="1957.9451,-334.5902 1955.2113,-324.3541 1950.9652,-334.0609 1957.9451,-334.5902"/>
</g>
<!-- 39&#45;&gt;37 -->
<g id="edge57" class="edge">
<title>39&#45;&gt;37</title>
<path fill="none" stroke="#c0c0c0" stroke-width="2" d="M2725.956,-301.7117C2574.7128,-288.6704 2122.0871,-249.6416 1982.2861,-237.5869"/>
<polygon fill="#c0c0c0" stroke="#c0c0c0" stroke-width="2" points="1982.2713,-234.0727 1972.0075,-236.7006 1981.6699,-241.0468 1982.2713,-234.0727"/>
</g>
<!-- 40&#45;&gt;39 -->
<g id="edge58" class="edge">
<title>40&#45;&gt;39</title>
<path fill="none" stroke="#c0c0c0" stroke-width="2" d="M2775.6885,-359.6086C2775.6885,-351.7272 2775.6885,-342.7616 2775.6885,-334.4482"/>
<polygon fill="#c0c0c0" stroke="#c0c0c0" stroke-width="2" points="2779.1886,-334.3974 2775.6885,-324.3975 2772.1886,-334.3975 2779.1886,-334.3974"/>
</g>
<!-- 41 -->
<g id="node42" class="node">
<title>41</title>
<path fill="none" stroke="#56d89a" stroke-width="2" d="M1205.7926,-252C1205.7926,-252 1167.5844,-252 1167.5844,-252 1161.5844,-252 1155.5844,-246 1155.5844,-240 1155.5844,-240 1155.5844,-228 1155.5844,-228 1155.5844,-222 1161.5844,-216 1167.5844,-216 1167.5844,-216 1205.7926,-216 1205.7926,-216 1211.7926,-216 1217.7926,-222 1217.7926,-228 1217.7926,-228 1217.7926,-240 1217.7926,-240 1217.7926,-246 1211.7926,-252 1205.7926,-252"/>
<text text-anchor="middle" x="1186.6885" y="-231" font-family="sans" font-size="10.00" fill="#000000">map_hisat2</text>
</g>
<!-- 52 -->
<g id="node53" class="node">
<title>52</title>
<path fill="none" stroke="#56b1d8" stroke-width="2" d="M1274.1895,-180C1274.1895,-180 1217.1875,-180 1217.1875,-180 1211.1875,-180 1205.1875,-174 1205.1875,-168 1205.1875,-168 1205.1875,-156 1205.1875,-156 1205.1875,-150 1211.1875,-144 1217.1875,-144 1217.1875,-144 1274.1895,-144 1274.1895,-144 1280.1895,-144 1286.1895,-150 1286.1895,-156 1286.1895,-156 1286.1895,-168 1286.1895,-168 1286.1895,-174 1280.1895,-180 1274.1895,-180"/>
<text text-anchor="middle" x="1245.6885" y="-159" font-family="sans" font-size="10.00" fill="#000000">snp_split_hisat2</text>
</g>
<!-- 41&#45;&gt;52 -->
<g id="edge76" class="edge">
<title>41&#45;&gt;52</title>
<path fill="none" stroke="#c0c0c0" stroke-width="2" d="M1201.5767,-215.8314C1208.4415,-207.454 1216.7186,-197.3531 1224.2396,-188.1749"/>
<polygon fill="#c0c0c0" stroke="#c0c0c0" stroke-width="2" points="1226.9688,-190.3665 1230.5999,-180.4133 1221.5544,-185.9297 1226.9688,-190.3665"/>
</g>
<!-- 42 -->
<g id="node43" class="node">
<title>42</title>
<path fill="none" stroke="#5682d8" stroke-width="2" d="M801.5661,-404C801.5661,-404 707.8109,-404 707.8109,-404 701.8109,-404 695.8109,-398 695.8109,-392 695.8109,-392 695.8109,-372 695.8109,-372 695.8109,-366 701.8109,-360 707.8109,-360 707.8109,-360 801.5661,-360 801.5661,-360 807.5661,-360 813.5661,-366 813.5661,-372 813.5661,-372 813.5661,-392 813.5661,-392 813.5661,-398 807.5661,-404 801.5661,-404"/>
<text text-anchor="middle" x="754.6885" y="-391" font-family="sans" font-size="10.00" fill="#000000">fastq_md5</text>
<text text-anchor="middle" x="754.6885" y="-379" font-family="sans" font-size="10.00" fill="#000000">archive: B6CastF1_3_R1</text>
<text text-anchor="middle" x="754.6885" y="-367" font-family="sans" font-size="10.00" fill="#000000">outdir: rna_seq</text>
</g>
<!-- 42&#45;&gt;65 -->
<g id="edge100" class="edge">
<title>42&#45;&gt;65</title>
<path fill="none" stroke="#c0c0c0" stroke-width="2" d="M791.1797,-359.8133C806.8666,-350.2757 825.214,-339.1205 841.1239,-329.4473"/>
<polygon fill="#c0c0c0" stroke="#c0c0c0" stroke-width="2" points="842.9532,-332.4312 849.6796,-324.2454 839.3166,-326.45 842.9532,-332.4312"/>
</g>
<!-- 43&#45;&gt;2 -->
<g id="edge1" class="edge">
<title>43&#45;&gt;2</title>
<path fill="none" stroke="#c0c0c0" stroke-width="2" d="M1567.1348,-371.0677C1619.8729,-360.6684 1690.0198,-343.7134 1710.6885,-324 1747.9196,-288.4897 1759.4883,-226.6748 1763.0783,-190.5396"/>
<polygon fill="#c0c0c0" stroke="#c0c0c0" stroke-width="2" points="1766.5969,-190.4675 1763.9558,-180.2072 1759.622,-189.8751 1766.5969,-190.4675"/>
</g>
<!-- 43&#45;&gt;3 -->
<g id="edge3" class="edge">
<title>43&#45;&gt;3</title>
<path fill="none" stroke="#c0c0c0" stroke-width="2" d="M1450.3246,-363.9702C1430.4826,-354.8724 1409.5365,-341.8792 1395.6885,-324 1365.3185,-284.7892 1358.1347,-225.4395 1356.7024,-190.5117"/>
<polygon fill="#c0c0c0" stroke="#c0c0c0" stroke-width="2" points="1360.1894,-189.9867 1356.4173,-180.0861 1353.192,-190.1781 1360.1894,-189.9867"/>
</g>
<!-- 43&#45;&gt;7 -->
<g id="edge8" class="edge">
<title>43&#45;&gt;7</title>
<path fill="none" stroke="#c0c0c0" stroke-width="2" d="M1442.2106,-370.4936C1355.081,-354.3831 1207.0577,-326.7528 1201.6885,-324 1171.5258,-308.5356 1144.2537,-280.5279 1126.7477,-259.8497"/>
<polygon fill="#c0c0c0" stroke="#c0c0c0" stroke-width="2" points="1129.3738,-257.533 1120.3087,-252.049 1123.9753,-261.9891 1129.3738,-257.533"/>
</g>
<!-- 43&#45;&gt;10 -->
<g id="edge11" class="edge">
<title>43&#45;&gt;10</title>
<path fill="none" stroke="#c0c0c0" stroke-width="2" d="M1549.0585,-363.9601C1565.874,-354.681 1583.2313,-341.5597 1592.6885,-324 1604.1313,-302.7536 1590.245,-278.1 1575.1246,-259.9737"/>
<polygon fill="#c0c0c0" stroke="#c0c0c0" stroke-width="2" points="1577.4311,-257.2995 1568.1771,-252.1405 1572.1941,-261.9443 1577.4311,-257.2995"/>
</g>
<!-- 43&#45;&gt;13 -->
<g id="edge16" class="edge">
<title>43&#45;&gt;13</title>
<path fill="none" stroke="#c0c0c0" stroke-width="2" d="M1442.0493,-370.3929C1423.0043,-366.9479 1402.0049,-363.2334 1382.6885,-360 1279.342,-342.7008 1243.4643,-370.7531 1149.6885,-324 1129.1551,-313.7628 1129.9699,-303.0921 1112.6885,-288 1093.1345,-270.9232 1078.0595,-275.3383 1066.6885,-252 1059.6805,-237.6164 1060.1791,-230.616 1066.6885,-216 1071.7219,-204.6983 1080.419,-194.7696 1089.6544,-186.611"/>
<polygon fill="#c0c0c0" stroke="#c0c0c0" stroke-width="2" points="1091.97,-189.2382 1097.4701,-180.1828 1087.5235,-183.8319 1091.97,-189.2382"/>
</g>
<!-- 43&#45;&gt;15 -->
<g id="edge20" class="edge">
<title>43&#45;&gt;15</title>
<path fill="none" stroke="#c0c0c0" stroke-width="2" d="M1567.5006,-368.0939C1612.1502,-357.0471 1667.0341,-340.7237 1683.6885,-324 1718.3187,-289.2258 1722.3451,-262.512 1706.6885,-216 1703.3088,-205.9596 1697.238,-196.3047 1690.786,-188.0052"/>
<polygon fill="#c0c0c0" stroke="#c0c0c0" stroke-width="2" points="1693.3764,-185.6461 1684.2925,-180.1933 1687.9933,-190.1208 1693.3764,-185.6461"/>
</g>
<!-- 43&#45;&gt;23 -->
<g id="edge31" class="edge">
<title>43&#45;&gt;23</title>
<path fill="none" stroke="#c0c0c0" stroke-width="2" d="M1454.6289,-363.9838C1436.8613,-354.8877 1418.7828,-341.8922 1408.6885,-324 1383.8552,-279.9829 1413.8632,-221.6907 1436.0575,-188.374"/>
<polygon fill="#c0c0c0" stroke="#c0c0c0" stroke-width="2" points="1438.9876,-190.29 1441.7755,-180.0686 1433.2219,-186.3205 1438.9876,-190.29"/>
</g>
<!-- 43&#45;&gt;30 -->
<g id="edge48" class="edge">
<title>43&#45;&gt;30</title>
<path fill="none" stroke="#c0c0c0" stroke-width="2" d="M1567.1698,-370.5214C1653.8403,-354.5195 1800.5712,-327.1077 1805.6885,-324 1840.5736,-302.8149 1845.3468,-288.9465 1862.6885,-252 1871.8773,-232.4232 1876.6613,-208.3734 1879.1294,-190.0612"/>
<polygon fill="#c0c0c0" stroke="#c0c0c0" stroke-width="2" points="1882.618,-190.3645 1880.3308,-180.0195 1875.6676,-189.5329 1882.618,-190.3645"/>
</g>
<!-- 43&#45;&gt;36 -->
<g id="edge52" class="edge">
<title>43&#45;&gt;36</title>
<path fill="none" stroke="#c0c0c0" stroke-width="2" d="M1567.2018,-370.1378C1645.165,-355.1359 1769.3158,-330.4746 1777.6885,-324 1797.5495,-308.6415 1809.2933,-282.1622 1815.7742,-261.889"/>
<polygon fill="#c0c0c0" stroke="#c0c0c0" stroke-width="2" points="1819.1515,-262.8102 1818.6221,-252.2286 1812.4372,-260.8307 1819.1515,-262.8102"/>
</g>
<!-- 43&#45;&gt;37 -->
<g id="edge56" class="edge">
<title>43&#45;&gt;37</title>
<path fill="none" stroke="#c0c0c0" stroke-width="2" d="M1567.3358,-370.4409C1586.3811,-366.9975 1607.3786,-363.2719 1626.6885,-360 1727.4027,-342.935 1763.0734,-371.1537 1853.6885,-324 1868.9302,-316.0687 1898.5355,-283.5982 1918.9454,-259.9291"/>
<polygon fill="#c0c0c0" stroke="#c0c0c0" stroke-width="2" points="1921.6408,-262.1624 1925.4804,-252.2877 1916.3209,-257.6127 1921.6408,-262.1624"/>
</g>
<!-- 43&#45;&gt;41 -->
<g id="edge63" class="edge">
<title>43&#45;&gt;41</title>
<path fill="none" stroke="#c0c0c0" stroke-width="2" d="M1442.1752,-370.1378C1364.212,-355.1359 1240.0612,-330.4746 1231.6885,-324 1211.8275,-308.6415 1200.0837,-282.1622 1193.6028,-261.889"/>
<polygon fill="#c0c0c0" stroke="#c0c0c0" stroke-width="2" points="1196.9398,-260.8307 1190.7549,-252.2286 1190.2255,-262.8102 1196.9398,-260.8307"/>
</g>
<!-- 43&#45;&gt;44 -->
<g id="edge68" class="edge">
<title>43&#45;&gt;44</title>
<path fill="none" stroke="#c0c0c0" stroke-width="2" d="M1460.3185,-363.9601C1443.503,-354.681 1426.1457,-341.5597 1416.6885,-324 1405.2457,-302.7536 1419.132,-278.1 1434.2524,-259.9737"/>
<polygon fill="#c0c0c0" stroke="#c0c0c0" stroke-width="2" points="1437.1829,-261.9443 1441.1999,-252.1405 1431.9459,-257.2995 1437.1829,-261.9443"/>
</g>
<!-- 49 -->
<g id="node50" class="node">
<title>49</title>
<path fill="none" stroke="#d8c356" stroke-width="2" d="M1571.3309,-324C1571.3309,-324 1438.0461,-324 1438.0461,-324 1432.0461,-324 1426.0461,-318 1426.0461,-312 1426.0461,-312 1426.0461,-300 1426.0461,-300 1426.0461,-294 1432.0461,-288 1438.0461,-288 1438.0461,-288 1571.3309,-288 1571.3309,-288 1577.3309,-288 1583.3309,-294 1583.3309,-300 1583.3309,-300 1583.3309,-312 1583.3309,-312 1583.3309,-318 1577.3309,-324 1571.3309,-324"/>
<text text-anchor="middle" x="1504.6885" y="-309" font-family="sans" font-size="10.00" fill="#000000">build_hisat2</text>
<text text-anchor="middle" x="1504.6885" y="-297" font-family="sans" font-size="10.00" fill="#000000">genome: GRCm38.Cast_N&#45;masked</text>
</g>
<!-- 43&#45;&gt;49 -->
<g id="edge72" class="edge">
<title>43&#45;&gt;49</title>
<path fill="none" stroke="#c0c0c0" stroke-width="2" d="M1504.6885,-363.9891C1504.6885,-355.1566 1504.6885,-344.3099 1504.6885,-334.3965"/>
<polygon fill="#c0c0c0" stroke="#c0c0c0" stroke-width="2" points="1508.1886,-334.145 1504.6885,-324.145 1501.1886,-334.1451 1508.1886,-334.145"/>
</g>
<!-- 43&#45;&gt;50 -->
<g id="edge73" class="edge">
<title>43&#45;&gt;50</title>
<path fill="none" stroke="#c0c0c0" stroke-width="2" d="M1561.7982,-363.8831C1580.4013,-354.9645 1598.9998,-342.1153 1609.6885,-324 1635.7368,-279.8533 1601.67,-221.6063 1576.7015,-188.3327"/>
<polygon fill="#c0c0c0" stroke="#c0c0c0" stroke-width="2" points="1579.1667,-185.7998 1570.2751,-180.0387 1573.6333,-190.0872 1579.1667,-185.7998"/>
</g>
<!-- 43&#45;&gt;52 -->
<g id="edge75" class="edge">
<title>43&#45;&gt;52</title>
<path fill="none" stroke="#c0c0c0" stroke-width="2" d="M1442.2507,-371.3347C1387.9761,-360.939 1314.6919,-343.8295 1292.6885,-324 1254.8362,-289.8875 1246.7265,-227.3067 1245.4149,-190.7158"/>
<polygon fill="#c0c0c0" stroke="#c0c0c0" stroke-width="2" points="1248.9048,-190.181 1245.2007,-180.2547 1241.9063,-190.3243 1248.9048,-190.181"/>
</g>
<!-- 55 -->
<g id="node56" class="node">
<title>55</title>
<path fill="none" stroke="#56d89a" stroke-width="2" d="M1685.7926,-252C1685.7926,-252 1647.5844,-252 1647.5844,-252 1641.5844,-252 1635.5844,-246 1635.5844,-240 1635.5844,-240 1635.5844,-228 1635.5844,-228 1635.5844,-222 1641.5844,-216 1647.5844,-216 1647.5844,-216 1685.7926,-216 1685.7926,-216 1691.7926,-216 1697.7926,-222 1697.7926,-228 1697.7926,-228 1697.7926,-240 1697.7926,-240 1697.7926,-246 1691.7926,-252 1685.7926,-252"/>
<text text-anchor="middle" x="1666.6885" y="-231" font-family="sans" font-size="10.00" fill="#000000">map_hisat2</text>
</g>
<!-- 43&#45;&gt;55 -->
<g id="edge77" class="edge">
<title>43&#45;&gt;55</title>
<path fill="none" stroke="#c0c0c0" stroke-width="2" d="M1567.3073,-366.855C1606.5163,-355.9878 1651.7903,-340.4161 1663.6885,-324 1676.4614,-306.377 1676.2291,-281.3047 1673.3592,-262.0971"/>
<polygon fill="#c0c0c0" stroke="#c0c0c0" stroke-width="2" points="1676.7782,-261.3345 1671.5593,-252.1142 1669.8893,-262.5766 1676.7782,-261.3345"/>
</g>
<!-- 56 -->
<g id="node57" class="node">
<title>56</title>
<path fill="none" stroke="#56d89a" stroke-width="2" d="M1323.7926,-252C1323.7926,-252 1285.5844,-252 1285.5844,-252 1279.5844,-252 1273.5844,-246 1273.5844,-240 1273.5844,-240 1273.5844,-228 1273.5844,-228 1273.5844,-222 1279.5844,-216 1285.5844,-216 1285.5844,-216 1323.7926,-216 1323.7926,-216 1329.7926,-216 1335.7926,-222 1335.7926,-228 1335.7926,-228 1335.7926,-240 1335.7926,-240 1335.7926,-246 1329.7926,-252 1323.7926,-252"/>
<text text-anchor="middle" x="1304.6885" y="-231" font-family="sans" font-size="10.00" fill="#000000">map_hisat2</text>
</g>
<!-- 43&#45;&gt;56 -->
<g id="edge80" class="edge">
<title>43&#45;&gt;56</title>
<path fill="none" stroke="#c0c0c0" stroke-width="2" d="M1442.2851,-371.7648C1391.0546,-361.9624 1324.3326,-345.4946 1307.6885,-324 1294.363,-306.7911 1294.6437,-281.6824 1297.6728,-262.3556"/>
<polygon fill="#c0c0c0" stroke="#c0c0c0" stroke-width="2" points="1301.1552,-262.7757 1299.5694,-252.3002 1294.2765,-261.4782 1301.1552,-262.7757"/>
</g>
<!-- 44&#45;&gt;23 -->
<g id="edge32" class="edge">
<title>44&#45;&gt;23</title>
<path fill="none" stroke="#c0c0c0" stroke-width="2" d="M1459.4268,-215.8314C1458.892,-208.131 1458.2562,-198.9743 1457.6619,-190.4166"/>
<polygon fill="#c0c0c0" stroke="#c0c0c0" stroke-width="2" points="1461.1517,-190.1467 1456.9672,-180.4133 1454.1685,-190.6317 1461.1517,-190.1467"/>
</g>
<!-- 45 -->
<g id="node46" class="node">
<title>45</title>
<path fill="none" stroke="#b6d856" stroke-width="2" d="M1760.6665,-476C1760.6665,-476 1658.7105,-476 1658.7105,-476 1652.7105,-476 1646.7105,-470 1646.7105,-464 1646.7105,-464 1646.7105,-452 1646.7105,-452 1646.7105,-446 1652.7105,-440 1658.7105,-440 1658.7105,-440 1760.6665,-440 1760.6665,-440 1766.6665,-440 1772.6665,-446 1772.6665,-452 1772.6665,-452 1772.6665,-464 1772.6665,-464 1772.6665,-470 1766.6665,-476 1760.6665,-476"/>
<text text-anchor="middle" x="1709.6885" y="-461" font-family="sans" font-size="10.00" fill="#000000">download_rnaseq_B6Cast2</text>
<text text-anchor="middle" x="1709.6885" y="-449" font-family="sans" font-size="10.00" fill="#000000">file: 1</text>
</g>
<!-- 45&#45;&gt;5 -->
<g id="edge6" class="edge">
<title>45&#45;&gt;5</title>
<path fill="none" stroke="#c0c0c0" stroke-width="2" d="M1706.1337,-439.9891C1704.6144,-432.291 1702.793,-423.0629 1701.0548,-414.2561"/>
<polygon fill="#c0c0c0" stroke="#c0c0c0" stroke-width="2" points="1704.4458,-413.3612 1699.0756,-404.2282 1697.5783,-414.7167 1704.4458,-413.3612"/>
</g>
<!-- 45&#45;&gt;67 -->
<g id="edge103" class="edge">
<title>45&#45;&gt;67</title>
<path fill="none" stroke="#c0c0c0" stroke-width="2" d="M1728.1359,-439.7866C1738.4624,-429.4473 1751.4768,-416.1757 1762.6885,-404 1780.1915,-384.9921 1779.3166,-374.5223 1800.6885,-360 1816.7533,-349.0839 1859.6595,-334.4816 1896.2661,-323.2142"/>
<polygon fill="#c0c0c0" stroke="#c0c0c0" stroke-width="2" points="1897.3588,-326.5402 1905.9052,-320.2784 1895.3193,-319.8439 1897.3588,-326.5402"/>
</g>
<!-- 46&#45;&gt;17 -->
<g id="edge25" class="edge">
<title>46&#45;&gt;17</title>
<path fill="none" stroke="#c0c0c0" stroke-width="2" d="M1434.4087,-511.8314C1446.0979,-502.8779 1460.3573,-491.9558 1472.9694,-482.2955"/>
<polygon fill="#c0c0c0" stroke="#c0c0c0" stroke-width="2" points="1475.1654,-485.0222 1480.9759,-476.1628 1470.9088,-479.4651 1475.1654,-485.0222"/>
</g>
<!-- 47 -->
<g id="node48" class="node">
<title>47</title>
<path fill="none" stroke="#afd856" stroke-width="2" d="M139.6665,-476C139.6665,-476 37.7105,-476 37.7105,-476 31.7105,-476 25.7105,-470 25.7105,-464 25.7105,-464 25.7105,-452 25.7105,-452 25.7105,-446 31.7105,-440 37.7105,-440 37.7105,-440 139.6665,-440 139.6665,-440 145.6665,-440 151.6665,-446 151.6665,-452 151.6665,-452 151.6665,-464 151.6665,-464 151.6665,-470 145.6665,-476 139.6665,-476"/>
<text text-anchor="middle" x="88.6885" y="-461" font-family="sans" font-size="10.00" fill="#000000">download_rnaseq_CastB64</text>
<text text-anchor="middle" x="88.6885" y="-449" font-family="sans" font-size="10.00" fill="#000000">file: 2</text>
</g>
<!-- 47&#45;&gt;18 -->
<g id="edge27" class="edge">
<title>47&#45;&gt;18</title>
<path fill="none" stroke="#c0c0c0" stroke-width="2" d="M81.5789,-439.9891C78.4741,-432.1236 74.7389,-422.6609 71.1947,-413.6824"/>
<polygon fill="#c0c0c0" stroke="#c0c0c0" stroke-width="2" points="74.3901,-412.2447 67.4628,-404.2282 67.879,-414.8149 74.3901,-412.2447"/>
</g>
<!-- 47&#45;&gt;24 -->
<g id="edge35" class="edge">
<title>47&#45;&gt;24</title>
<path fill="none" stroke="#c0c0c0" stroke-width="2" d="M100.6931,-439.9733C114.7704,-419.4838 139.4105,-385.5707 164.6885,-360 175.093,-349.475 187.5176,-339.0811 198.883,-330.2656"/>
<polygon fill="#c0c0c0" stroke="#c0c0c0" stroke-width="2" points="201.0875,-332.9862 206.9274,-324.1461 196.8494,-327.4149 201.0875,-332.9862"/>
</g>
<!-- 48 -->
<g id="node49" class="node">
<title>48</title>
<path fill="none" stroke="#d8b456" stroke-width="2" d="M970.6665,-476C970.6665,-476 868.7105,-476 868.7105,-476 862.7105,-476 856.7105,-470 856.7105,-464 856.7105,-464 856.7105,-452 856.7105,-452 856.7105,-446 862.7105,-440 868.7105,-440 868.7105,-440 970.6665,-440 970.6665,-440 976.6665,-440 982.6665,-446 982.6665,-452 982.6665,-452 982.6665,-464 982.6665,-464 982.6665,-470 976.6665,-476 970.6665,-476"/>
<text text-anchor="middle" x="919.6885" y="-461" font-family="sans" font-size="10.00" fill="#000000">download_rnaseq_B6Cast3</text>
<text text-anchor="middle" x="919.6885" y="-449" font-family="sans" font-size="10.00" fill="#000000">file: 2</text>
</g>
<!-- 48&#45;&gt;6 -->
<g id="edge7" class="edge">
<title>48&#45;&gt;6</title>
<path fill="none" stroke="#c0c0c0" stroke-width="2" d="M930.8268,-439.9891C935.8462,-431.8726 941.9174,-422.0553 947.6261,-412.8243"/>
<polygon fill="#c0c0c0" stroke="#c0c0c0" stroke-width="2" points="950.6591,-414.5742 952.9421,-404.2282 944.7056,-410.8924 950.6591,-414.5742"/>
</g>
<!-- 48&#45;&gt;65 -->
<g id="edge98" class="edge">
<title>48&#45;&gt;65</title>
<path fill="none" stroke="#c0c0c0" stroke-width="2" d="M911.6634,-439.7872C907.3479,-429.4482 902.2057,-416.1765 898.6885,-404 892.0027,-380.8539 886.9754,-353.9474 883.7768,-334.19"/>
<polygon fill="#c0c0c0" stroke="#c0c0c0" stroke-width="2" points="887.2323,-333.6332 882.2304,-324.2934 880.3163,-334.7139 887.2323,-333.6332"/>
</g>
<!-- 49&#45;&gt;7 -->
<g id="edge9" class="edge">
<title>49&#45;&gt;7</title>
<path fill="none" stroke="#c0c0c0" stroke-width="2" d="M1425.838,-300.3286C1354.6902,-293.8053 1247.4102,-280.4683 1147.4704,-251.804"/>
<polygon fill="#c0c0c0" stroke="#c0c0c0" stroke-width="2" points="1148.4036,-248.4304 1137.8231,-248.9819 1146.4382,-255.1488 1148.4036,-248.4304"/>
</g>
<!-- 49&#45;&gt;10 -->
<g id="edge12" class="edge">
<title>49&#45;&gt;10</title>
<path fill="none" stroke="#c0c0c0" stroke-width="2" d="M1515.7916,-287.8314C1520.7559,-279.7079 1526.7107,-269.9637 1532.1813,-261.0118"/>
<polygon fill="#c0c0c0" stroke="#c0c0c0" stroke-width="2" points="1535.2079,-262.7712 1537.4359,-252.4133 1529.2349,-259.121 1535.2079,-262.7712"/>
</g>
<!-- 49&#45;&gt;36 -->
<g id="edge53" class="edge">
<title>49&#45;&gt;36</title>
<path fill="none" stroke="#c0c0c0" stroke-width="2" d="M1583.7038,-288.1097C1646.5163,-273.888 1731.8475,-254.5678 1781.7203,-243.2758"/>
<polygon fill="#c0c0c0" stroke="#c0c0c0" stroke-width="2" points="1782.5239,-246.6825 1791.5041,-241.0606 1780.9781,-239.8553 1782.5239,-246.6825"/>
</g>
<!-- 49&#45;&gt;37 -->
<g id="edge55" class="edge">
<title>49&#45;&gt;37</title>
<path fill="none" stroke="#c0c0c0" stroke-width="2" d="M1583.553,-295.8831C1656.2892,-286.1314 1767.1376,-270.2034 1862.6885,-252 1874.6202,-249.7269 1887.4961,-246.9079 1899.2809,-244.1807"/>
<polygon fill="#c0c0c0" stroke="#c0c0c0" stroke-width="2" points="1900.3717,-247.5197 1909.3051,-241.8237 1898.7695,-240.7055 1900.3717,-247.5197"/>
</g>
<!-- 49&#45;&gt;41 -->
<g id="edge64" class="edge">
<title>49&#45;&gt;41</title>
<path fill="none" stroke="#c0c0c0" stroke-width="2" d="M1426.0273,-288.4153C1379.1612,-277.91 1318.5092,-264.2648 1264.6885,-252 1252.741,-249.2774 1239.7707,-246.2949 1227.8993,-243.5546"/>
<polygon fill="#c0c0c0" stroke="#c0c0c0" stroke-width="2" points="1228.3344,-240.063 1217.8031,-241.2215 1226.7582,-246.8833 1228.3344,-240.063"/>
</g>
<!-- 49&#45;&gt;44 -->
<g id="edge69" class="edge">
<title>49&#45;&gt;44</title>
<path fill="none" stroke="#c0c0c0" stroke-width="2" d="M1493.5854,-287.8314C1488.6211,-279.7079 1482.6663,-269.9637 1477.1957,-261.0118"/>
<polygon fill="#c0c0c0" stroke="#c0c0c0" stroke-width="2" points="1480.1421,-259.121 1471.9411,-252.4133 1474.1691,-262.7712 1480.1421,-259.121"/>
</g>
<!-- 49&#45;&gt;55 -->
<g id="edge78" class="edge">
<title>49&#45;&gt;55</title>
<path fill="none" stroke="#c0c0c0" stroke-width="2" d="M1545.5679,-287.8314C1570.227,-276.8718 1601.5229,-262.9625 1626.1249,-252.0282"/>
<polygon fill="#c0c0c0" stroke="#c0c0c0" stroke-width="2" points="1627.8206,-255.1048 1635.5372,-247.845 1624.9776,-248.7081 1627.8206,-255.1048"/>
</g>
<!-- 49&#45;&gt;56 -->
<g id="edge81" class="edge">
<title>49&#45;&gt;56</title>
<path fill="none" stroke="#c0c0c0" stroke-width="2" d="M1454.4782,-287.9243C1420.8579,-275.821 1377.157,-260.0887 1345.644,-248.744"/>
<polygon fill="#c0c0c0" stroke="#c0c0c0" stroke-width="2" points="1346.4634,-245.3191 1335.869,-245.225 1344.0923,-251.9053 1346.4634,-245.3191"/>
</g>
<!-- 50&#45;&gt;26 -->
<g id="edge38" class="edge">
<title>50&#45;&gt;26</title>
<path fill="none" stroke="#c0c0c0" stroke-width="2" d="M1529.7066,-143.8314C1517.3957,-134.8779 1502.3778,-123.9558 1489.0948,-114.2955"/>
<polygon fill="#c0c0c0" stroke="#c0c0c0" stroke-width="2" points="1490.8084,-111.214 1480.6624,-108.1628 1486.6912,-116.8752 1490.8084,-111.214"/>
</g>
<!-- 51 -->
<g id="node52" class="node">
<title>51</title>
<path fill="none" stroke="#d8b456" stroke-width="2" d="M815.6665,-476C815.6665,-476 713.7105,-476 713.7105,-476 707.7105,-476 701.7105,-470 701.7105,-464 701.7105,-464 701.7105,-452 701.7105,-452 701.7105,-446 707.7105,-440 713.7105,-440 713.7105,-440 815.6665,-440 815.6665,-440 821.6665,-440 827.6665,-446 827.6665,-452 827.6665,-452 827.6665,-464 827.6665,-464 827.6665,-470 821.6665,-476 815.6665,-476"/>
<text text-anchor="middle" x="764.6885" y="-461" font-family="sans" font-size="10.00" fill="#000000">download_rnaseq_B6Cast3</text>
<text text-anchor="middle" x="764.6885" y="-449" font-family="sans" font-size="10.00" fill="#000000">file: 1</text>
</g>
<!-- 51&#45;&gt;42 -->
<g id="edge66" class="edge">
<title>51&#45;&gt;42</title>
<path fill="none" stroke="#c0c0c0" stroke-width="2" d="M762.3186,-439.9891C761.3057,-432.291 760.0915,-423.0629 758.9327,-414.2561"/>
<polygon fill="#c0c0c0" stroke="#c0c0c0" stroke-width="2" points="762.388,-413.6861 757.6133,-404.2282 755.4478,-414.5994 762.388,-413.6861"/>
</g>
<!-- 51&#45;&gt;65 -->
<g id="edge99" class="edge">
<title>51&#45;&gt;65</title>
<path fill="none" stroke="#c0c0c0" stroke-width="2" d="M787.116,-439.883C798.5499,-429.9938 812.2135,-417.115 822.6885,-404 840.2912,-381.961 856.0479,-353.887 866.5094,-333.4408"/>
<polygon fill="#c0c0c0" stroke="#c0c0c0" stroke-width="2" points="869.7118,-334.8625 871.0676,-324.3547 863.455,-331.7236 869.7118,-334.8625"/>
</g>
<!-- 52&#45;&gt;26 -->
<g id="edge41" class="edge">
<title>52&#45;&gt;26</title>
<path fill="none" stroke="#c0c0c0" stroke-width="2" d="M1286.4276,-148.0323C1316.8457,-137.6032 1358.9547,-123.1659 1393.5618,-111.3006"/>
<polygon fill="#c0c0c0" stroke="#c0c0c0" stroke-width="2" points="1394.7835,-114.5818 1403.1078,-108.0277 1392.5132,-107.9602 1394.7835,-114.5818"/>
</g>
<!-- 53 -->
<g id="node54" class="node">
<title>53</title>
<path fill="none" stroke="#5663d8" stroke-width="2" d="M656.6665,-476C656.6665,-476 554.7105,-476 554.7105,-476 548.7105,-476 542.7105,-470 542.7105,-464 542.7105,-464 542.7105,-452 542.7105,-452 542.7105,-446 548.7105,-440 554.7105,-440 554.7105,-440 656.6665,-440 656.6665,-440 662.6665,-440 668.6665,-446 668.6665,-452 668.6665,-452 668.6665,-464 668.6665,-464 668.6665,-470 662.6665,-476 656.6665,-476"/>
<text text-anchor="middle" x="605.6885" y="-461" font-family="sans" font-size="10.00" fill="#000000">download_rnaseq_CastB63</text>
<text text-anchor="middle" x="605.6885" y="-449" font-family="sans" font-size="10.00" fill="#000000">file: 1</text>
</g>
<!-- 53&#45;&gt;19 -->
<g id="edge28" class="edge">
<title>53&#45;&gt;19</title>
<path fill="none" stroke="#c0c0c0" stroke-width="2" d="M599.7638,-439.9891C597.2041,-432.2073 594.13,-422.8621 591.2047,-413.9691"/>
<polygon fill="#c0c0c0" stroke="#c0c0c0" stroke-width="2" points="594.45,-412.6338 588.0004,-404.2282 587.8005,-414.8212 594.45,-412.6338"/>
</g>
<!-- 53&#45;&gt;57 -->
<g id="edge85" class="edge">
<title>53&#45;&gt;57</title>
<path fill="none" stroke="#c0c0c0" stroke-width="2" d="M625.1841,-439.9663C634.1988,-430.2894 643.9436,-417.5757 648.6885,-404 655.1406,-385.5395 657.1914,-377.6102 648.6885,-360 642.9991,-348.2168 633.3507,-338.2163 623.082,-330.144"/>
<polygon fill="#c0c0c0" stroke="#c0c0c0" stroke-width="2" points="624.9192,-327.152 614.7775,-324.0865 620.794,-332.8073 624.9192,-327.152"/>
</g>
<!-- 54 -->
<g id="node55" class="node">
<title>54</title>
<path fill="none" stroke="#5663d8" stroke-width="2" d="M479.6665,-476C479.6665,-476 377.7105,-476 377.7105,-476 371.7105,-476 365.7105,-470 365.7105,-464 365.7105,-464 365.7105,-452 365.7105,-452 365.7105,-446 371.7105,-440 377.7105,-440 377.7105,-440 479.6665,-440 479.6665,-440 485.6665,-440 491.6665,-446 491.6665,-452 491.6665,-452 491.6665,-464 491.6665,-464 491.6665,-470 485.6665,-476 479.6665,-476"/>
<text text-anchor="middle" x="428.6885" y="-461" font-family="sans" font-size="10.00" fill="#000000">download_rnaseq_CastB63</text>
<text text-anchor="middle" x="428.6885" y="-449" font-family="sans" font-size="10.00" fill="#000000">file: 2</text>
</g>
<!-- 54&#45;&gt;11 -->
<g id="edge14" class="edge">
<title>54&#45;&gt;11</title>
<path fill="none" stroke="#c0c0c0" stroke-width="2" d="M423.4748,-439.9891C421.2222,-432.2073 418.517,-422.8621 415.9427,-413.9691"/>
<polygon fill="#c0c0c0" stroke="#c0c0c0" stroke-width="2" points="419.2656,-412.8606 413.123,-404.2282 412.5417,-414.8071 419.2656,-412.8606"/>
</g>
<!-- 54&#45;&gt;57 -->
<g id="edge86" class="edge">
<title>54&#45;&gt;57</title>
<path fill="none" stroke="#c0c0c0" stroke-width="2" d="M444.0576,-439.9817C467.7859,-412.1758 510.8224,-361.7975 512.6885,-360 523.4351,-349.6489 536.0365,-339.2299 547.4521,-330.3427"/>
<polygon fill="#c0c0c0" stroke="#c0c0c0" stroke-width="2" points="549.704,-333.0266 555.5113,-324.1651 545.4454,-327.4709 549.704,-333.0266"/>
</g>
<!-- 55&#45;&gt;15 -->
<g id="edge19" class="edge">
<title>55&#45;&gt;15</title>
<path fill="none" stroke="#c0c0c0" stroke-width="2" d="M1666.4362,-215.8314C1666.3292,-208.131 1666.202,-198.9743 1666.0832,-190.4166"/>
<polygon fill="#c0c0c0" stroke="#c0c0c0" stroke-width="2" points="1669.5829,-190.3637 1665.9442,-180.4133 1662.5836,-190.4609 1669.5829,-190.3637"/>
</g>
<!-- 56&#45;&gt;3 -->
<g id="edge4" class="edge">
<title>56&#45;&gt;3</title>
<path fill="none" stroke="#c0c0c0" stroke-width="2" d="M1317.8103,-215.8314C1323.7384,-207.6232 1330.8614,-197.7606 1337.3818,-188.7323"/>
<polygon fill="#c0c0c0" stroke="#c0c0c0" stroke-width="2" points="1340.3725,-190.5693 1343.39,-180.4133 1334.6977,-186.4708 1340.3725,-190.5693"/>
</g>
<!-- 57&#45;&gt;41 -->
<g id="edge65" class="edge">
<title>57&#45;&gt;41</title>
<path fill="none" stroke="#c0c0c0" stroke-width="2" d="M630.4644,-302.1877C753.3182,-292.652 1066.1946,-267.5567 1145.6265,-251.4596"/>
<polygon fill="#c0c0c0" stroke="#c0c0c0" stroke-width="2" points="1146.6474,-254.816 1155.6017,-249.1529 1145.0702,-247.996 1146.6474,-254.816"/>
</g>
<!-- 58&#45;&gt;39 -->
<g id="edge61" class="edge">
<title>58&#45;&gt;39</title>
<path fill="none" stroke="#c0c0c0" stroke-width="2" d="M2898.8927,-359.8133C2876.0586,-349.8398 2849.1747,-338.0974 2826.3558,-328.1305"/>
<polygon fill="#c0c0c0" stroke="#c0c0c0" stroke-width="2" points="2827.7416,-324.9166 2817.1767,-324.1213 2824.9397,-331.3314 2827.7416,-324.9166"/>
</g>
<!-- 59&#45;&gt;55 -->
<g id="edge79" class="edge">
<title>59&#45;&gt;55</title>
<path fill="none" stroke="#c0c0c0" stroke-width="2" d="M2030.7423,-291.7447C2025.3443,-290.3936 2019.9155,-289.1146 2014.6885,-288 2014.4538,-287.9499 1800.0487,-254.688 1707.938,-240.3989"/>
<polygon fill="#c0c0c0" stroke="#c0c0c0" stroke-width="2" points="1708.2709,-236.9088 1697.8525,-238.8343 1707.1978,-243.826 1708.2709,-236.9088"/>
</g>
<!-- 60 -->
<g id="node61" class="node">
<title>60</title>
<path fill="none" stroke="#56d8b9" stroke-width="2" d="M1639.9518,-692C1639.9518,-692 1555.4252,-692 1555.4252,-692 1549.4252,-692 1543.4252,-686 1543.4252,-680 1543.4252,-680 1543.4252,-668 1543.4252,-668 1543.4252,-662 1549.4252,-656 1555.4252,-656 1555.4252,-656 1639.9518,-656 1639.9518,-656 1645.9518,-656 1651.9518,-662 1651.9518,-668 1651.9518,-668 1651.9518,-680 1651.9518,-680 1651.9518,-686 1645.9518,-692 1639.9518,-692"/>
<text text-anchor="middle" x="1597.6885" y="-671" font-family="sans" font-size="10.00" fill="#000000">download_B6_genome</text>
</g>
<!-- 60&#45;&gt;14 -->
<g id="edge18" class="edge">
<title>60&#45;&gt;14</title>
<path fill="none" stroke="#c0c0c0" stroke-width="2" d="M1597.6885,-655.8314C1597.6885,-648.131 1597.6885,-638.9743 1597.6885,-630.4166"/>
<polygon fill="#c0c0c0" stroke="#c0c0c0" stroke-width="2" points="1601.1886,-630.4132 1597.6885,-620.4133 1594.1886,-630.4133 1601.1886,-630.4132"/>
</g>
<!-- 61&#45;&gt;17 -->
<g id="edge26" class="edge">
<title>61&#45;&gt;17</title>
<path fill="none" stroke="#c0c0c0" stroke-width="2" d="M1574.2207,-511.8314C1562.6558,-502.8779 1548.5481,-491.9558 1536.0702,-482.2955"/>
<polygon fill="#c0c0c0" stroke="#c0c0c0" stroke-width="2" points="1538.1987,-479.5171 1528.1488,-476.1628 1533.9135,-485.0521 1538.1987,-479.5171"/>
</g>
<!-- 62&#45;&gt;16 -->
<g id="edge24" class="edge">
<title>62&#45;&gt;16</title>
<path fill="none" stroke="#c0c0c0" stroke-width="2" d="M1255.7415,-364.1634C1250.9891,-362.7473 1246.2598,-361.3453 1241.6885,-360 1198.775,-347.3711 1150.247,-333.441 1113.2451,-322.8927"/>
<polygon fill="#c0c0c0" stroke="#c0c0c0" stroke-width="2" points="1114.1901,-319.5227 1103.6138,-320.1492 1112.2723,-326.2549 1114.1901,-319.5227"/>
</g>
<!-- 63 -->
<g id="node64" class="node">
<title>63</title>
<path fill="none" stroke="#61d856" stroke-width="2" d="M976.2349,-252C976.2349,-252 929.1421,-252 929.1421,-252 923.1421,-252 917.1421,-246 917.1421,-240 917.1421,-240 917.1421,-228 917.1421,-228 917.1421,-222 923.1421,-216 929.1421,-216 929.1421,-216 976.2349,-216 976.2349,-216 982.2349,-216 988.2349,-222 988.2349,-228 988.2349,-228 988.2349,-240 988.2349,-240 988.2349,-246 982.2349,-252 976.2349,-252"/>
<text text-anchor="middle" x="952.6885" y="-231" font-family="sans" font-size="10.00" fill="#000000">download_gtf</text>
</g>
<!-- 63&#45;&gt;4 -->
<g id="edge5" class="edge">
<title>63&#45;&gt;4</title>
<path fill="none" stroke="#c0c0c0" stroke-width="2" d="M952.6885,-215.8314C952.6885,-208.131 952.6885,-198.9743 952.6885,-190.4166"/>
<polygon fill="#c0c0c0" stroke="#c0c0c0" stroke-width="2" points="956.1886,-190.4132 952.6885,-180.4133 949.1886,-190.4133 956.1886,-190.4132"/>
</g>
<!-- 64&#45;&gt;36 -->
<g id="edge54" class="edge">
<title>64&#45;&gt;36</title>
<path fill="none" stroke="#c0c0c0" stroke-width="2" d="M2378.008,-302.9831C2284.228,-296.8299 2074.8924,-280.9097 1900.6885,-252 1888.7061,-250.0115 1875.8141,-247.2828 1864.0301,-244.551"/>
<polygon fill="#c0c0c0" stroke="#c0c0c0" stroke-width="2" points="1864.549,-241.0768 1854.0105,-242.1681 1862.9293,-247.8869 1864.549,-241.0768"/>
</g>
<!-- 65&#45;&gt;56 -->
<g id="edge82" class="edge">
<title>65&#45;&gt;56</title>
<path fill="none" stroke="#c0c0c0" stroke-width="2" d="M929.499,-298.1889C949.728,-295.0205 973.3235,-291.3297 994.6885,-288 1097.7891,-271.9321 1124.2285,-271.7446 1226.6885,-252 1238.6153,-249.7016 1251.4897,-246.8746 1263.2746,-244.1478"/>
<polygon fill="#c0c0c0" stroke="#c0c0c0" stroke-width="2" points="1264.3646,-247.4871 1273.2993,-241.7931 1262.7639,-240.6726 1264.3646,-247.4871"/>
</g>
<!-- 66&#45;&gt;64 -->
<g id="edge95" class="edge">
<title>66&#45;&gt;64</title>
<path fill="none" stroke="#c0c0c0" stroke-width="2" d="M2427.6885,-359.6086C2427.6885,-351.7272 2427.6885,-342.7616 2427.6885,-334.4482"/>
<polygon fill="#c0c0c0" stroke="#c0c0c0" stroke-width="2" points="2431.1886,-334.3974 2427.6885,-324.3975 2424.1886,-334.3975 2431.1886,-334.3974"/>
</g>
<!-- 67&#45;&gt;10 -->
<g id="edge13" class="edge">
<title>67&#45;&gt;10</title>
<path fill="none" stroke="#c0c0c0" stroke-width="2" d="M1905.9038,-298.845C1841.3101,-289.3291 1725.2161,-271.4336 1626.6885,-252 1614.7718,-249.6495 1601.9007,-246.806 1590.1156,-244.08"/>
<polygon fill="#c0c0c0" stroke="#c0c0c0" stroke-width="2" points="1590.6249,-240.6046 1580.09,-241.7301 1589.0274,-247.4199 1590.6249,-240.6046"/>
</g>
</g>
</svg>
