<?xml version="1.0" encoding="UTF-8" standalone="no"?>
<!DOCTYPE svg PUBLIC "-//W3C//DTD SVG 1.1//EN"
 "http://www.w3.org/Graphics/SVG/1.1/DTD/svg11.dtd">
<!-- Generated by graphviz version 2.40.1 (20161225.0304)
 -->
<!-- Title: snakemake_dag Pages: 1 -->
<svg width="2544pt" height="700pt"
 viewBox="0.00 0.00 2544.28 700.00" xmlns="http://www.w3.org/2000/svg" xmlns:xlink="http://www.w3.org/1999/xlink">
<g id="graph0" class="graph" transform="scale(1 1) rotate(0) translate(4 696)">
<title>snakemake_dag</title>
<polygon fill="#ffffff" stroke="transparent" points="-4,4 -4,-696 2540.277,-696 2540.277,4 -4,4"/>
<!-- 0 -->
<g id="node1" class="node">
<title>0</title>
<path fill="none" stroke="#567bd8" stroke-width="2" d="M855.2426,-252C855.2426,-252 817.0344,-252 817.0344,-252 811.0344,-252 805.0344,-246 805.0344,-240 805.0344,-240 805.0344,-228 805.0344,-228 805.0344,-222 811.0344,-216 817.0344,-216 817.0344,-216 855.2426,-216 855.2426,-216 861.2426,-216 867.2426,-222 867.2426,-228 867.2426,-228 867.2426,-240 867.2426,-240 867.2426,-246 861.2426,-252 855.2426,-252"/>
<text text-anchor="middle" x="836.1385" y="-231" font-family="sans" font-size="10.00" fill="#000000">map_hisat2</text>
</g>
<!-- 46 -->
<g id="node47" class="node">
<title>46</title>
<path fill="none" stroke="#d87556" stroke-width="2" d="M923.6395,-180C923.6395,-180 866.6375,-180 866.6375,-180 860.6375,-180 854.6375,-174 854.6375,-168 854.6375,-168 854.6375,-156 854.6375,-156 854.6375,-150 860.6375,-144 866.6375,-144 866.6375,-144 923.6395,-144 923.6395,-144 929.6395,-144 935.6395,-150 935.6395,-156 935.6395,-156 935.6395,-168 935.6395,-168 935.6395,-174 929.6395,-180 923.6395,-180"/>
<text text-anchor="middle" x="895.1385" y="-159" font-family="sans" font-size="10.00" fill="#000000">snp_split_hisat2</text>
</g>
<!-- 0&#45;&gt;46 -->
<g id="edge67" class="edge">
<title>0&#45;&gt;46</title>
<path fill="none" stroke="#c0c0c0" stroke-width="2" d="M851.0267,-215.8314C857.8915,-207.454 866.1686,-197.3531 873.6896,-188.1749"/>
<polygon fill="#c0c0c0" stroke="#c0c0c0" stroke-width="2" points="876.4188,-190.3665 880.0499,-180.4133 871.0044,-185.9297 876.4188,-190.3665"/>
</g>
<!-- 1 -->
<g id="node2" class="node">
<title>1</title>
<path fill="none" stroke="#567bd8" stroke-width="2" d="M1681.2426,-252C1681.2426,-252 1643.0344,-252 1643.0344,-252 1637.0344,-252 1631.0344,-246 1631.0344,-240 1631.0344,-240 1631.0344,-228 1631.0344,-228 1631.0344,-222 1637.0344,-216 1643.0344,-216 1643.0344,-216 1681.2426,-216 1681.2426,-216 1687.2426,-216 1693.2426,-222 1693.2426,-228 1693.2426,-228 1693.2426,-240 1693.2426,-240 1693.2426,-246 1687.2426,-252 1681.2426,-252"/>
<text text-anchor="middle" x="1662.1385" y="-231" font-family="sans" font-size="10.00" fill="#000000">map_hisat2</text>
</g>
<!-- 47 -->
<g id="node48" class="node">
<title>47</title>
<path fill="none" stroke="#d87556" stroke-width="2" d="M1690.6395,-180C1690.6395,-180 1633.6375,-180 1633.6375,-180 1627.6375,-180 1621.6375,-174 1621.6375,-168 1621.6375,-168 1621.6375,-156 1621.6375,-156 1621.6375,-150 1627.6375,-144 1633.6375,-144 1633.6375,-144 1690.6395,-144 1690.6395,-144 1696.6395,-144 1702.6395,-150 1702.6395,-156 1702.6395,-156 1702.6395,-168 1702.6395,-168 1702.6395,-174 1696.6395,-180 1690.6395,-180"/>
<text text-anchor="middle" x="1662.1385" y="-159" font-family="sans" font-size="10.00" fill="#000000">snp_split_hisat2</text>
</g>
<!-- 1&#45;&gt;47 -->
<g id="edge69" class="edge">
<title>1&#45;&gt;47</title>
<path fill="none" stroke="#c0c0c0" stroke-width="2" d="M1662.1385,-215.8314C1662.1385,-208.131 1662.1385,-198.9743 1662.1385,-190.4166"/>
<polygon fill="#c0c0c0" stroke="#c0c0c0" stroke-width="2" points="1665.6386,-190.4132 1662.1385,-180.4133 1658.6386,-190.4133 1665.6386,-190.4132"/>
</g>
<!-- 2 -->
<g id="node3" class="node">
<title>2</title>
<path fill="none" stroke="#5682d8" stroke-width="2" d="M104.4158,-404C104.4158,-404 11.8612,-404 11.8612,-404 5.8612,-404 -.1388,-398 -.1388,-392 -.1388,-392 -.1388,-380 -.1388,-380 -.1388,-374 5.8612,-368 11.8612,-368 11.8612,-368 104.4158,-368 104.4158,-368 110.4158,-368 116.4158,-374 116.4158,-380 116.4158,-380 116.4158,-392 116.4158,-392 116.4158,-398 110.4158,-404 104.4158,-404"/>
<text text-anchor="middle" x="58.1385" y="-389" font-family="sans" font-size="10.00" fill="#000000">download_rnaseq</text>
<text text-anchor="middle" x="58.1385" y="-377" font-family="sans" font-size="10.00" fill="#000000">sample: B6CastF1_3_R2</text>
</g>
<!-- 9 -->
<g id="node10" class="node">
<title>9</title>
<path fill="none" stroke="#d89556" stroke-width="2" d="M229.7473,-332C229.7473,-332 154.5297,-332 154.5297,-332 148.5297,-332 142.5297,-326 142.5297,-320 142.5297,-320 142.5297,-300 142.5297,-300 142.5297,-294 148.5297,-288 154.5297,-288 154.5297,-288 229.7473,-288 229.7473,-288 235.7473,-288 241.7473,-294 241.7473,-300 241.7473,-300 241.7473,-320 241.7473,-320 241.7473,-326 235.7473,-332 229.7473,-332"/>
<text text-anchor="middle" x="192.1385" y="-319" font-family="sans" font-size="10.00" fill="#000000">trim_galore</text>
<text text-anchor="middle" x="192.1385" y="-307" font-family="sans" font-size="10.00" fill="#000000">outdir: rna_seq</text>
<text text-anchor="middle" x="192.1385" y="-295" font-family="sans" font-size="10.00" fill="#000000">sample: B6CastF1_3</text>
</g>
<!-- 2&#45;&gt;9 -->
<g id="edge14" class="edge">
<title>2&#45;&gt;9</title>
<path fill="none" stroke="#c0c0c0" stroke-width="2" d="M89.8946,-367.9891C105.9756,-358.8685 125.8433,-347.6003 143.7758,-337.4296"/>
<polygon fill="#c0c0c0" stroke="#c0c0c0" stroke-width="2" points="145.975,-340.2061 152.9467,-332.2282 142.5216,-334.1172 145.975,-340.2061"/>
</g>
<!-- 3 -->
<g id="node4" class="node">
<title>3</title>
<path fill="none" stroke="#567bd8" stroke-width="2" d="M1129.2426,-252C1129.2426,-252 1091.0344,-252 1091.0344,-252 1085.0344,-252 1079.0344,-246 1079.0344,-240 1079.0344,-240 1079.0344,-228 1079.0344,-228 1079.0344,-222 1085.0344,-216 1091.0344,-216 1091.0344,-216 1129.2426,-216 1129.2426,-216 1135.2426,-216 1141.2426,-222 1141.2426,-228 1141.2426,-228 1141.2426,-240 1141.2426,-240 1141.2426,-246 1135.2426,-252 1129.2426,-252"/>
<text text-anchor="middle" x="1110.1385" y="-231" font-family="sans" font-size="10.00" fill="#000000">map_hisat2</text>
</g>
<!-- 50 -->
<g id="node51" class="node">
<title>50</title>
<path fill="none" stroke="#d87556" stroke-width="2" d="M1138.6395,-180C1138.6395,-180 1081.6375,-180 1081.6375,-180 1075.6375,-180 1069.6375,-174 1069.6375,-168 1069.6375,-168 1069.6375,-156 1069.6375,-156 1069.6375,-150 1075.6375,-144 1081.6375,-144 1081.6375,-144 1138.6395,-144 1138.6395,-144 1144.6395,-144 1150.6395,-150 1150.6395,-156 1150.6395,-156 1150.6395,-168 1150.6395,-168 1150.6395,-174 1144.6395,-180 1138.6395,-180"/>
<text text-anchor="middle" x="1110.1385" y="-159" font-family="sans" font-size="10.00" fill="#000000">snp_split_hisat2</text>
</g>
<!-- 3&#45;&gt;50 -->
<g id="edge74" class="edge">
<title>3&#45;&gt;50</title>
<path fill="none" stroke="#c0c0c0" stroke-width="2" d="M1110.1385,-215.8314C1110.1385,-208.131 1110.1385,-198.9743 1110.1385,-190.4166"/>
<polygon fill="#c0c0c0" stroke="#c0c0c0" stroke-width="2" points="1113.6386,-190.4132 1110.1385,-180.4133 1106.6386,-190.4133 1113.6386,-190.4132"/>
</g>
<!-- 4 -->
<g id="node5" class="node">
<title>4</title>
<path fill="none" stroke="#5682d8" stroke-width="2" d="M1988.4158,-404C1988.4158,-404 1895.8612,-404 1895.8612,-404 1889.8612,-404 1883.8612,-398 1883.8612,-392 1883.8612,-392 1883.8612,-380 1883.8612,-380 1883.8612,-374 1889.8612,-368 1895.8612,-368 1895.8612,-368 1988.4158,-368 1988.4158,-368 1994.4158,-368 2000.4158,-374 2000.4158,-380 2000.4158,-380 2000.4158,-392 2000.4158,-392 2000.4158,-398 1994.4158,-404 1988.4158,-404"/>
<text text-anchor="middle" x="1942.1385" y="-389" font-family="sans" font-size="10.00" fill="#000000">download_rnaseq</text>
<text text-anchor="middle" x="1942.1385" y="-377" font-family="sans" font-size="10.00" fill="#000000">sample: B6CastF1_2_R1</text>
</g>
<!-- 28 -->
<g id="node29" class="node">
<title>28</title>
<path fill="none" stroke="#d89556" stroke-width="2" d="M1912.7473,-332C1912.7473,-332 1837.5297,-332 1837.5297,-332 1831.5297,-332 1825.5297,-326 1825.5297,-320 1825.5297,-320 1825.5297,-300 1825.5297,-300 1825.5297,-294 1831.5297,-288 1837.5297,-288 1837.5297,-288 1912.7473,-288 1912.7473,-288 1918.7473,-288 1924.7473,-294 1924.7473,-300 1924.7473,-300 1924.7473,-320 1924.7473,-320 1924.7473,-326 1918.7473,-332 1912.7473,-332"/>
<text text-anchor="middle" x="1875.1385" y="-319" font-family="sans" font-size="10.00" fill="#000000">trim_galore</text>
<text text-anchor="middle" x="1875.1385" y="-307" font-family="sans" font-size="10.00" fill="#000000">outdir: rna_seq</text>
<text text-anchor="middle" x="1875.1385" y="-295" font-family="sans" font-size="10.00" fill="#000000">sample: B6CastF1_2</text>
</g>
<!-- 4&#45;&gt;28 -->
<g id="edge37" class="edge">
<title>4&#45;&gt;28</title>
<path fill="none" stroke="#c0c0c0" stroke-width="2" d="M1926.2604,-367.9891C1918.8838,-359.6216 1909.9136,-349.4464 1901.559,-339.9696"/>
<polygon fill="#c0c0c0" stroke="#c0c0c0" stroke-width="2" points="1903.9729,-337.4149 1894.7344,-332.2282 1898.722,-342.044 1903.9729,-337.4149"/>
</g>
<!-- 5 -->
<g id="node6" class="node">
<title>5</title>
<path fill="none" stroke="#5682d8" stroke-width="2" d="M640.4158,-404C640.4158,-404 547.8612,-404 547.8612,-404 541.8612,-404 535.8612,-398 535.8612,-392 535.8612,-392 535.8612,-380 535.8612,-380 535.8612,-374 541.8612,-368 547.8612,-368 547.8612,-368 640.4158,-368 640.4158,-368 646.4158,-368 652.4158,-374 652.4158,-380 652.4158,-380 652.4158,-392 652.4158,-392 652.4158,-398 646.4158,-404 640.4158,-404"/>
<text text-anchor="middle" x="594.1385" y="-389" font-family="sans" font-size="10.00" fill="#000000">download_rnaseq</text>
<text text-anchor="middle" x="594.1385" y="-377" font-family="sans" font-size="10.00" fill="#000000">sample: CastB6F1_4_R2</text>
</g>
<!-- 10 -->
<g id="node11" class="node">
<title>10</title>
<path fill="none" stroke="#d89556" stroke-width="2" d="M698.7473,-332C698.7473,-332 623.5297,-332 623.5297,-332 617.5297,-332 611.5297,-326 611.5297,-320 611.5297,-320 611.5297,-300 611.5297,-300 611.5297,-294 617.5297,-288 623.5297,-288 623.5297,-288 698.7473,-288 698.7473,-288 704.7473,-288 710.7473,-294 710.7473,-300 710.7473,-300 710.7473,-320 710.7473,-320 710.7473,-326 704.7473,-332 698.7473,-332"/>
<text text-anchor="middle" x="661.1385" y="-319" font-family="sans" font-size="10.00" fill="#000000">trim_galore</text>
<text text-anchor="middle" x="661.1385" y="-307" font-family="sans" font-size="10.00" fill="#000000">outdir: rna_seq</text>
<text text-anchor="middle" x="661.1385" y="-295" font-family="sans" font-size="10.00" fill="#000000">sample: CastB6F1_4</text>
</g>
<!-- 5&#45;&gt;10 -->
<g id="edge16" class="edge">
<title>5&#45;&gt;10</title>
<path fill="none" stroke="#c0c0c0" stroke-width="2" d="M610.0166,-367.9891C617.3932,-359.6216 626.3634,-349.4464 634.718,-339.9696"/>
<polygon fill="#c0c0c0" stroke="#c0c0c0" stroke-width="2" points="637.555,-342.044 641.5426,-332.2282 632.3041,-337.4149 637.555,-342.044"/>
</g>
<!-- 6 -->
<g id="node7" class="node">
<title>6</title>
<path fill="none" stroke="#56c9d8" stroke-width="2" d="M824.2725,-180C824.2725,-180 618.0045,-180 618.0045,-180 612.0045,-180 606.0045,-174 606.0045,-168 606.0045,-168 606.0045,-156 606.0045,-156 606.0045,-150 612.0045,-144 618.0045,-144 618.0045,-144 824.2725,-144 824.2725,-144 830.2725,-144 836.2725,-150 836.2725,-156 836.2725,-156 836.2725,-168 836.2725,-168 836.2725,-174 830.2725,-180 824.2725,-180"/>
<text text-anchor="middle" x="721.1385" y="-165" font-family="sans" font-size="10.00" fill="#000000">gunzip_gtf</text>
<text text-anchor="middle" x="721.1385" y="-153" font-family="sans" font-size="10.00" fill="#000000">file: ../genome_data/Mus_musculus.GRCm38_90.chr</text>
</g>
<!-- 33 -->
<g id="node34" class="node">
<title>33</title>
<path fill="none" stroke="#56d85b" stroke-width="2" d="M1257.6674,-108C1257.6674,-108 1160.6096,-108 1160.6096,-108 1154.6096,-108 1148.6096,-102 1148.6096,-96 1148.6096,-96 1148.6096,-84 1148.6096,-84 1148.6096,-78 1154.6096,-72 1160.6096,-72 1160.6096,-72 1257.6674,-72 1257.6674,-72 1263.6674,-72 1269.6674,-78 1269.6674,-84 1269.6674,-84 1269.6674,-96 1269.6674,-96 1269.6674,-102 1263.6674,-108 1257.6674,-108"/>
<text text-anchor="middle" x="1209.1385" y="-87" font-family="sans" font-size="10.00" fill="#000000">rnaseq_analysis_notebook</text>
</g>
<!-- 6&#45;&gt;33 -->
<g id="edge51" class="edge">
<title>6&#45;&gt;33</title>
<path fill="none" stroke="#c0c0c0" stroke-width="2" d="M836.4786,-144.9826C930.0679,-131.1744 1059.0283,-112.1474 1138.1026,-100.4807"/>
<polygon fill="#c0c0c0" stroke="#c0c0c0" stroke-width="2" points="1139.062,-103.8771 1148.444,-98.9549 1138.0402,-96.9521 1139.062,-103.8771"/>
</g>
<!-- 7 -->
<g id="node8" class="node">
<title>7</title>
<path fill="none" stroke="#d8ac56" stroke-width="2" d="M1349.5066,-404C1349.5066,-404 1248.7704,-404 1248.7704,-404 1242.7704,-404 1236.7704,-398 1236.7704,-392 1236.7704,-392 1236.7704,-380 1236.7704,-380 1236.7704,-374 1242.7704,-368 1248.7704,-368 1248.7704,-368 1349.5066,-368 1349.5066,-368 1355.5066,-368 1361.5066,-374 1361.5066,-380 1361.5066,-380 1361.5066,-392 1361.5066,-392 1361.5066,-398 1355.5066,-404 1349.5066,-404"/>
<text text-anchor="middle" x="1299.1385" y="-383" font-family="sans" font-size="10.00" fill="#000000">clean_up_snpsplit_genome</text>
</g>
<!-- 7&#45;&gt;0 -->
<g id="edge3" class="edge">
<title>7&#45;&gt;0</title>
<path fill="none" stroke="#c0c0c0" stroke-width="2" d="M1236.5616,-381.2602C1126.9668,-372.4716 909.2063,-352.6545 881.1385,-332 858.6183,-315.4278 847.0587,-284.8381 841.3358,-262.2264"/>
<polygon fill="#c0c0c0" stroke="#c0c0c0" stroke-width="2" points="844.6774,-261.1387 839.0355,-252.171 837.8537,-262.6997 844.6774,-261.1387"/>
</g>
<!-- 7&#45;&gt;1 -->
<g id="edge6" class="edge">
<title>7&#45;&gt;1</title>
<path fill="none" stroke="#c0c0c0" stroke-width="2" d="M1361.6531,-378.5578C1448.4657,-367.7456 1597.1707,-347.3145 1617.1385,-332 1639.3251,-314.9837 1650.9403,-284.4681 1656.7675,-261.9952"/>
<polygon fill="#c0c0c0" stroke="#c0c0c0" stroke-width="2" points="1660.2337,-262.5448 1659.1196,-252.0087 1653.4202,-260.94 1660.2337,-262.5448"/>
</g>
<!-- 7&#45;&gt;3 -->
<g id="edge9" class="edge">
<title>7&#45;&gt;3</title>
<path fill="none" stroke="#c0c0c0" stroke-width="2" d="M1236.6071,-378.2152C1182.052,-369.9867 1108.915,-354.9808 1091.1385,-332 1075.5982,-311.91 1084.0778,-282.7045 1094.1686,-261.4044"/>
<polygon fill="#c0c0c0" stroke="#c0c0c0" stroke-width="2" points="1097.4188,-262.7347 1098.8378,-252.2353 1091.181,-259.5582 1097.4188,-262.7347"/>
</g>
<!-- 13 -->
<g id="node14" class="node">
<title>13</title>
<path fill="none" stroke="#567bd8" stroke-width="2" d="M1209.2426,-252C1209.2426,-252 1171.0344,-252 1171.0344,-252 1165.0344,-252 1159.0344,-246 1159.0344,-240 1159.0344,-240 1159.0344,-228 1159.0344,-228 1159.0344,-222 1165.0344,-216 1171.0344,-216 1171.0344,-216 1209.2426,-216 1209.2426,-216 1215.2426,-216 1221.2426,-222 1221.2426,-228 1221.2426,-228 1221.2426,-240 1221.2426,-240 1221.2426,-246 1215.2426,-252 1209.2426,-252"/>
<text text-anchor="middle" x="1190.1385" y="-231" font-family="sans" font-size="10.00" fill="#000000">map_hisat2</text>
</g>
<!-- 7&#45;&gt;13 -->
<g id="edge20" class="edge">
<title>7&#45;&gt;13</title>
<path fill="none" stroke="#c0c0c0" stroke-width="2" d="M1236.742,-377.0251C1186.0167,-368.3013 1120.3023,-353.2482 1104.1385,-332 1092.2987,-316.4359 1094.6764,-305.114 1104.1385,-288 1109.4646,-278.3667 1130.0577,-265.2826 1149.7561,-254.4065"/>
<polygon fill="#c0c0c0" stroke="#c0c0c0" stroke-width="2" points="1151.5493,-257.4159 1158.6858,-249.585 1148.2236,-251.2564 1151.5493,-257.4159"/>
</g>
<!-- 15 -->
<g id="node16" class="node">
<title>15</title>
<path fill="none" stroke="#567bd8" stroke-width="2" d="M1327.2426,-252C1327.2426,-252 1289.0344,-252 1289.0344,-252 1283.0344,-252 1277.0344,-246 1277.0344,-240 1277.0344,-240 1277.0344,-228 1277.0344,-228 1277.0344,-222 1283.0344,-216 1289.0344,-216 1289.0344,-216 1327.2426,-216 1327.2426,-216 1333.2426,-216 1339.2426,-222 1339.2426,-228 1339.2426,-228 1339.2426,-240 1339.2426,-240 1339.2426,-246 1333.2426,-252 1327.2426,-252"/>
<text text-anchor="middle" x="1308.1385" y="-231" font-family="sans" font-size="10.00" fill="#000000">map_hisat2</text>
</g>
<!-- 7&#45;&gt;15 -->
<g id="edge23" class="edge">
<title>7&#45;&gt;15</title>
<path fill="none" stroke="#c0c0c0" stroke-width="2" d="M1305.1083,-367.7319C1308.1793,-357.3756 1311.5948,-344.105 1313.1385,-332 1316.1205,-308.6158 1314.4179,-281.8785 1312.2238,-262.2452"/>
<polygon fill="#c0c0c0" stroke="#c0c0c0" stroke-width="2" points="1315.6751,-261.6333 1310.981,-252.1351 1308.7274,-262.4875 1315.6751,-261.6333"/>
</g>
<!-- 18 -->
<g id="node19" class="node">
<title>18</title>
<path fill="none" stroke="#56d87b" stroke-width="2" d="M1258.7809,-328C1258.7809,-328 1125.4961,-328 1125.4961,-328 1119.4961,-328 1113.4961,-322 1113.4961,-316 1113.4961,-316 1113.4961,-304 1113.4961,-304 1113.4961,-298 1119.4961,-292 1125.4961,-292 1125.4961,-292 1258.7809,-292 1258.7809,-292 1264.7809,-292 1270.7809,-298 1270.7809,-304 1270.7809,-304 1270.7809,-316 1270.7809,-316 1270.7809,-322 1264.7809,-328 1258.7809,-328"/>
<text text-anchor="middle" x="1192.1385" y="-313" font-family="sans" font-size="10.00" fill="#000000">build_hisat2</text>
<text text-anchor="middle" x="1192.1385" y="-301" font-family="sans" font-size="10.00" fill="#000000">genome: GRCm38.Cast_N&#45;masked</text>
</g>
<!-- 7&#45;&gt;18 -->
<g id="edge25" class="edge">
<title>7&#45;&gt;18</title>
<path fill="none" stroke="#c0c0c0" stroke-width="2" d="M1273.781,-367.9891C1259.4937,-357.8411 1241.4631,-345.0343 1225.9827,-334.0389"/>
<polygon fill="#c0c0c0" stroke="#c0c0c0" stroke-width="2" points="1227.8643,-331.0823 1217.6848,-328.145 1223.8108,-336.7893 1227.8643,-331.0823"/>
</g>
<!-- 19 -->
<g id="node20" class="node">
<title>19</title>
<path fill="none" stroke="#567bd8" stroke-width="2" d="M1483.2426,-252C1483.2426,-252 1445.0344,-252 1445.0344,-252 1439.0344,-252 1433.0344,-246 1433.0344,-240 1433.0344,-240 1433.0344,-228 1433.0344,-228 1433.0344,-222 1439.0344,-216 1445.0344,-216 1445.0344,-216 1483.2426,-216 1483.2426,-216 1489.2426,-216 1495.2426,-222 1495.2426,-228 1495.2426,-228 1495.2426,-240 1495.2426,-240 1495.2426,-246 1489.2426,-252 1483.2426,-252"/>
<text text-anchor="middle" x="1464.1385" y="-231" font-family="sans" font-size="10.00" fill="#000000">map_hisat2</text>
</g>
<!-- 7&#45;&gt;19 -->
<g id="edge28" class="edge">
<title>7&#45;&gt;19</title>
<path fill="none" stroke="#c0c0c0" stroke-width="2" d="M1361.544,-370.9628C1384.6525,-362.7267 1409.493,-350.3331 1427.1385,-332 1445.5631,-312.8575 1455.0086,-283.6474 1459.7229,-262.0946"/>
<polygon fill="#c0c0c0" stroke="#c0c0c0" stroke-width="2" points="1463.1718,-262.6956 1461.6758,-252.2069 1456.3044,-261.3392 1463.1718,-262.6956"/>
</g>
<!-- 22 -->
<g id="node23" class="node">
<title>22</title>
<path fill="none" stroke="#d87556" stroke-width="2" d="M1572.6395,-180C1572.6395,-180 1515.6375,-180 1515.6375,-180 1509.6375,-180 1503.6375,-174 1503.6375,-168 1503.6375,-168 1503.6375,-156 1503.6375,-156 1503.6375,-150 1509.6375,-144 1515.6375,-144 1515.6375,-144 1572.6395,-144 1572.6395,-144 1578.6395,-144 1584.6395,-150 1584.6395,-156 1584.6395,-156 1584.6395,-168 1584.6395,-168 1584.6395,-174 1578.6395,-180 1572.6395,-180"/>
<text text-anchor="middle" x="1544.1385" y="-159" font-family="sans" font-size="10.00" fill="#000000">snp_split_hisat2</text>
</g>
<!-- 7&#45;&gt;22 -->
<g id="edge30" class="edge">
<title>7&#45;&gt;22</title>
<path fill="none" stroke="#c0c0c0" stroke-width="2" d="M1361.5269,-379.292C1433.0785,-367.6654 1545.4882,-336.2304 1584.1385,-252 1590.8114,-237.4579 1589.1529,-231.1939 1584.1385,-216 1580.8477,-206.0288 1574.9269,-196.3944 1568.6321,-188.0924"/>
<polygon fill="#c0c0c0" stroke="#c0c0c0" stroke-width="2" points="1571.3105,-185.8384 1562.2961,-180.2714 1565.8713,-190.2448 1571.3105,-185.8384"/>
</g>
<!-- 25 -->
<g id="node26" class="node">
<title>25</title>
<path fill="none" stroke="#d87556" stroke-width="2" d="M1022.6395,-180C1022.6395,-180 965.6375,-180 965.6375,-180 959.6375,-180 953.6375,-174 953.6375,-168 953.6375,-168 953.6375,-156 953.6375,-156 953.6375,-150 959.6375,-144 965.6375,-144 965.6375,-144 1022.6395,-144 1022.6395,-144 1028.6395,-144 1034.6395,-150 1034.6395,-156 1034.6395,-156 1034.6395,-168 1034.6395,-168 1034.6395,-174 1028.6395,-180 1022.6395,-180"/>
<text text-anchor="middle" x="994.1385" y="-159" font-family="sans" font-size="10.00" fill="#000000">snp_split_hisat2</text>
</g>
<!-- 7&#45;&gt;25 -->
<g id="edge35" class="edge">
<title>7&#45;&gt;25</title>
<path fill="none" stroke="#c0c0c0" stroke-width="2" d="M1236.5245,-383.1433C1154.0117,-378.1231 1014.8973,-364.9193 977.1385,-332 937.3858,-297.3423 935.0227,-265.8847 952.1385,-216 955.6075,-205.8894 961.8284,-196.2137 968.4375,-187.9166"/>
<polygon fill="#c0c0c0" stroke="#c0c0c0" stroke-width="2" points="971.265,-189.9949 975.0885,-180.1141 965.9377,-185.4539 971.265,-189.9949"/>
</g>
<!-- 32 -->
<g id="node33" class="node">
<title>32</title>
<path fill="none" stroke="#567bd8" stroke-width="2" d="M1563.2426,-252C1563.2426,-252 1525.0344,-252 1525.0344,-252 1519.0344,-252 1513.0344,-246 1513.0344,-240 1513.0344,-240 1513.0344,-228 1513.0344,-228 1513.0344,-222 1519.0344,-216 1525.0344,-216 1525.0344,-216 1563.2426,-216 1563.2426,-216 1569.2426,-216 1575.2426,-222 1575.2426,-228 1575.2426,-228 1575.2426,-240 1575.2426,-240 1575.2426,-246 1569.2426,-252 1563.2426,-252"/>
<text text-anchor="middle" x="1544.1385" y="-231" font-family="sans" font-size="10.00" fill="#000000">map_hisat2</text>
</g>
<!-- 7&#45;&gt;32 -->
<g id="edge42" class="edge">
<title>7&#45;&gt;32</title>
<path fill="none" stroke="#c0c0c0" stroke-width="2" d="M1361.5137,-371.5911C1390.8577,-363.0018 1425.4079,-350.1617 1453.1385,-332 1482.4596,-312.7966 1508.8438,-282.1633 1525.5589,-260.258"/>
<polygon fill="#c0c0c0" stroke="#c0c0c0" stroke-width="2" points="1528.5133,-262.151 1531.6885,-252.0431 1522.903,-257.9648 1528.5133,-262.151"/>
</g>
<!-- 34 -->
<g id="node35" class="node">
<title>34</title>
<path fill="none" stroke="#567bd8" stroke-width="2" d="M1011.2426,-252C1011.2426,-252 973.0344,-252 973.0344,-252 967.0344,-252 961.0344,-246 961.0344,-240 961.0344,-240 961.0344,-228 961.0344,-228 961.0344,-222 967.0344,-216 973.0344,-216 973.0344,-216 1011.2426,-216 1011.2426,-216 1017.2426,-216 1023.2426,-222 1023.2426,-228 1023.2426,-228 1023.2426,-240 1023.2426,-240 1023.2426,-246 1017.2426,-252 1011.2426,-252"/>
<text text-anchor="middle" x="992.1385" y="-231" font-family="sans" font-size="10.00" fill="#000000">map_hisat2</text>
</g>
<!-- 7&#45;&gt;34 -->
<g id="edge55" class="edge">
<title>7&#45;&gt;34</title>
<path fill="none" stroke="#c0c0c0" stroke-width="2" d="M1236.6482,-383.8778C1156.9818,-379.7238 1025.8551,-367.5347 995.1385,-332 978.876,-313.1866 980.1978,-283.93 984.3302,-262.2766"/>
<polygon fill="#c0c0c0" stroke="#c0c0c0" stroke-width="2" points="987.7866,-262.8554 986.5199,-252.3366 980.9505,-261.3494 987.7866,-262.8554"/>
</g>
<!-- 35 -->
<g id="node36" class="node">
<title>35</title>
<path fill="none" stroke="#d87556" stroke-width="2" d="M1336.6395,-180C1336.6395,-180 1279.6375,-180 1279.6375,-180 1273.6375,-180 1267.6375,-174 1267.6375,-168 1267.6375,-168 1267.6375,-156 1267.6375,-156 1267.6375,-150 1273.6375,-144 1279.6375,-144 1279.6375,-144 1336.6395,-144 1336.6395,-144 1342.6395,-144 1348.6395,-150 1348.6395,-156 1348.6395,-156 1348.6395,-168 1348.6395,-168 1348.6395,-174 1342.6395,-180 1336.6395,-180"/>
<text text-anchor="middle" x="1308.1385" y="-159" font-family="sans" font-size="10.00" fill="#000000">snp_split_hisat2</text>
</g>
<!-- 7&#45;&gt;35 -->
<g id="edge56" class="edge">
<title>7&#45;&gt;35</title>
<path fill="none" stroke="#c0c0c0" stroke-width="2" d="M1309.7679,-367.9736C1315.4998,-357.6929 1322.3575,-344.4174 1327.1385,-332 1340.3469,-297.6948 1343.4331,-288.4578 1348.1385,-252 1350.1865,-236.1316 1353.1529,-231.1939 1348.1385,-216 1344.8477,-206.0288 1338.9269,-196.3944 1332.6321,-188.0924"/>
<polygon fill="#c0c0c0" stroke="#c0c0c0" stroke-width="2" points="1335.3105,-185.8384 1326.2961,-180.2714 1329.8713,-190.2448 1335.3105,-185.8384"/>
</g>
<!-- 39 -->
<g id="node40" class="node">
<title>39</title>
<path fill="none" stroke="#d87556" stroke-width="2" d="M1435.6395,-180C1435.6395,-180 1378.6375,-180 1378.6375,-180 1372.6375,-180 1366.6375,-174 1366.6375,-168 1366.6375,-168 1366.6375,-156 1366.6375,-156 1366.6375,-150 1372.6375,-144 1378.6375,-144 1378.6375,-144 1435.6395,-144 1435.6395,-144 1441.6395,-144 1447.6395,-150 1447.6395,-156 1447.6395,-156 1447.6395,-168 1447.6395,-168 1447.6395,-174 1441.6395,-180 1435.6395,-180"/>
<text text-anchor="middle" x="1407.1385" y="-159" font-family="sans" font-size="10.00" fill="#000000">snp_split_hisat2</text>
</g>
<!-- 7&#45;&gt;39 -->
<g id="edge63" class="edge">
<title>7&#45;&gt;39</title>
<path fill="none" stroke="#c0c0c0" stroke-width="2" d="M1319.3695,-367.5338C1329.1362,-357.7466 1340.3872,-345.0649 1348.1385,-332 1375.5139,-285.8584 1392.7118,-225.12 1401.0675,-190.1336"/>
<polygon fill="#c0c0c0" stroke="#c0c0c0" stroke-width="2" points="1404.5337,-190.6789 1403.3782,-180.1473 1397.7139,-189.1008 1404.5337,-190.6789"/>
</g>
<!-- 42 -->
<g id="node43" class="node">
<title>42</title>
<path fill="none" stroke="#d87556" stroke-width="2" d="M1237.6395,-180C1237.6395,-180 1180.6375,-180 1180.6375,-180 1174.6375,-180 1168.6375,-174 1168.6375,-168 1168.6375,-168 1168.6375,-156 1168.6375,-156 1168.6375,-150 1174.6375,-144 1180.6375,-144 1180.6375,-144 1237.6395,-144 1237.6395,-144 1243.6395,-144 1249.6395,-150 1249.6395,-156 1249.6395,-156 1249.6395,-168 1249.6395,-168 1249.6395,-174 1243.6395,-180 1237.6395,-180"/>
<text text-anchor="middle" x="1209.1385" y="-159" font-family="sans" font-size="10.00" fill="#000000">snp_split_hisat2</text>
</g>
<!-- 7&#45;&gt;42 -->
<g id="edge65" class="edge">
<title>7&#45;&gt;42</title>
<path fill="none" stroke="#c0c0c0" stroke-width="2" d="M1297.3835,-367.8284C1295.0468,-347.7922 1290.0062,-314.8391 1280.1385,-288 1266.7884,-251.6891 1243.7889,-213.4441 1227.5913,-188.7466"/>
<polygon fill="#c0c0c0" stroke="#c0c0c0" stroke-width="2" points="1230.4165,-186.6744 1221.962,-180.2891 1224.5893,-190.553 1230.4165,-186.6744"/>
</g>
<!-- 7&#45;&gt;46 -->
<g id="edge68" class="edge">
<title>7&#45;&gt;46</title>
<path fill="none" stroke="#c0c0c0" stroke-width="2" d="M1236.4163,-380.2691C1139.655,-370.8784 962.8084,-351.3196 941.1385,-332 900.8414,-296.0734 894.249,-228.8328 894.0375,-190.5656"/>
<polygon fill="#c0c0c0" stroke="#c0c0c0" stroke-width="2" points="897.5413,-190.1706 894.1351,-180.1382 890.5416,-190.105 897.5413,-190.1706"/>
</g>
<!-- 7&#45;&gt;47 -->
<g id="edge70" class="edge">
<title>7&#45;&gt;47</title>
<path fill="none" stroke="#c0c0c0" stroke-width="2" d="M1361.5372,-378.9744C1454.8627,-368.0647 1622.4327,-346.7709 1646.1385,-332 1682.9741,-309.048 1689.0904,-293.3933 1702.1385,-252 1706.9487,-236.7402 1707.1529,-231.1939 1702.1385,-216 1698.8477,-206.0288 1692.9269,-196.3944 1686.6321,-188.0924"/>
<polygon fill="#c0c0c0" stroke="#c0c0c0" stroke-width="2" points="1689.3105,-185.8384 1680.2961,-180.2714 1683.8713,-190.2448 1689.3105,-185.8384"/>
</g>
<!-- 7&#45;&gt;50 -->
<g id="edge73" class="edge">
<title>7&#45;&gt;50</title>
<path fill="none" stroke="#c0c0c0" stroke-width="2" d="M1236.594,-378.7873C1178.7466,-370.7447 1098.7022,-355.6642 1078.1385,-332 1044.2416,-292.9921 1053.9425,-265.0745 1070.1385,-216 1073.4293,-206.0288 1079.3501,-196.3944 1085.6449,-188.0924"/>
<polygon fill="#c0c0c0" stroke="#c0c0c0" stroke-width="2" points="1088.4057,-190.2448 1091.9809,-180.2714 1082.9665,-185.8384 1088.4057,-190.2448"/>
</g>
<!-- 8 -->
<g id="node9" class="node">
<title>8</title>
<path fill="none" stroke="#d89556" stroke-width="2" d="M2381.7473,-332C2381.7473,-332 2306.5297,-332 2306.5297,-332 2300.5297,-332 2294.5297,-326 2294.5297,-320 2294.5297,-320 2294.5297,-300 2294.5297,-300 2294.5297,-294 2300.5297,-288 2306.5297,-288 2306.5297,-288 2381.7473,-288 2381.7473,-288 2387.7473,-288 2393.7473,-294 2393.7473,-300 2393.7473,-300 2393.7473,-320 2393.7473,-320 2393.7473,-326 2387.7473,-332 2381.7473,-332"/>
<text text-anchor="middle" x="2344.1385" y="-319" font-family="sans" font-size="10.00" fill="#000000">trim_galore</text>
<text text-anchor="middle" x="2344.1385" y="-307" font-family="sans" font-size="10.00" fill="#000000">outdir: rna_seq</text>
<text text-anchor="middle" x="2344.1385" y="-295" font-family="sans" font-size="10.00" fill="#000000">sample: B6CastF1_5</text>
</g>
<!-- 8&#45;&gt;1 -->
<g id="edge4" class="edge">
<title>8&#45;&gt;1</title>
<path fill="none" stroke="#c0c0c0" stroke-width="2" d="M2294.2657,-304.4423C2165.3485,-290.0762 1822.8298,-251.9069 1703.6863,-238.63"/>
<polygon fill="#c0c0c0" stroke="#c0c0c0" stroke-width="2" points="1703.8473,-235.1263 1693.5211,-237.4972 1703.072,-242.0833 1703.8473,-235.1263"/>
</g>
<!-- 9&#45;&gt;0 -->
<g id="edge1" class="edge">
<title>9&#45;&gt;0</title>
<path fill="none" stroke="#c0c0c0" stroke-width="2" d="M241.9587,-304.6629C284.2963,-300.1496 346.6929,-293.5505 401.1385,-288 563.3073,-271.4676 605.6189,-280.3814 766.1385,-252 775.5758,-250.3314 785.6125,-248.0563 795.051,-245.6851"/>
<polygon fill="#c0c0c0" stroke="#c0c0c0" stroke-width="2" points="796.2035,-249.0019 805.0013,-243.0985 794.4423,-242.2271 796.2035,-249.0019"/>
</g>
<!-- 10&#45;&gt;3 -->
<g id="edge8" class="edge">
<title>10&#45;&gt;3</title>
<path fill="none" stroke="#c0c0c0" stroke-width="2" d="M710.7677,-290.5307C713.9148,-289.5963 717.056,-288.7409 720.1385,-288 855.8594,-255.3768 894.5838,-275.7308 1032.1385,-252 1044.1079,-249.935 1056.9959,-247.1821 1068.78,-244.4515"/>
<polygon fill="#c0c0c0" stroke="#c0c0c0" stroke-width="2" points="1069.8781,-247.7883 1078.8009,-242.0756 1068.2631,-240.9771 1069.8781,-247.7883"/>
</g>
<!-- 11 -->
<g id="node12" class="node">
<title>11</title>
<path fill="none" stroke="#d6d856" stroke-width="2" d="M744.6849,-252C744.6849,-252 697.5921,-252 697.5921,-252 691.5921,-252 685.5921,-246 685.5921,-240 685.5921,-240 685.5921,-228 685.5921,-228 685.5921,-222 691.5921,-216 697.5921,-216 697.5921,-216 744.6849,-216 744.6849,-216 750.6849,-216 756.6849,-222 756.6849,-228 756.6849,-228 756.6849,-240 756.6849,-240 756.6849,-246 750.6849,-252 744.6849,-252"/>
<text text-anchor="middle" x="721.1385" y="-231" font-family="sans" font-size="10.00" fill="#000000">download_gtf</text>
</g>
<!-- 11&#45;&gt;6 -->
<g id="edge10" class="edge">
<title>11&#45;&gt;6</title>
<path fill="none" stroke="#c0c0c0" stroke-width="2" d="M721.1385,-215.8314C721.1385,-208.131 721.1385,-198.9743 721.1385,-190.4166"/>
<polygon fill="#c0c0c0" stroke="#c0c0c0" stroke-width="2" points="724.6386,-190.4132 721.1385,-180.4133 717.6386,-190.4133 724.6386,-190.4132"/>
</g>
<!-- 12 -->
<g id="node13" class="node">
<title>12</title>
<path fill="none" stroke="#5682d8" stroke-width="2" d="M908.4158,-404C908.4158,-404 815.8612,-404 815.8612,-404 809.8612,-404 803.8612,-398 803.8612,-392 803.8612,-392 803.8612,-380 803.8612,-380 803.8612,-374 809.8612,-368 815.8612,-368 815.8612,-368 908.4158,-368 908.4158,-368 914.4158,-368 920.4158,-374 920.4158,-380 920.4158,-380 920.4158,-392 920.4158,-392 920.4158,-398 914.4158,-404 908.4158,-404"/>
<text text-anchor="middle" x="862.1385" y="-389" font-family="sans" font-size="10.00" fill="#000000">download_rnaseq</text>
<text text-anchor="middle" x="862.1385" y="-377" font-family="sans" font-size="10.00" fill="#000000">sample: B6CastF1_4_R1</text>
</g>
<!-- 30 -->
<g id="node31" class="node">
<title>30</title>
<path fill="none" stroke="#d89556" stroke-width="2" d="M816.7473,-332C816.7473,-332 741.5297,-332 741.5297,-332 735.5297,-332 729.5297,-326 729.5297,-320 729.5297,-320 729.5297,-300 729.5297,-300 729.5297,-294 735.5297,-288 741.5297,-288 741.5297,-288 816.7473,-288 816.7473,-288 822.7473,-288 828.7473,-294 828.7473,-300 828.7473,-300 828.7473,-320 828.7473,-320 828.7473,-326 822.7473,-332 816.7473,-332"/>
<text text-anchor="middle" x="779.1385" y="-319" font-family="sans" font-size="10.00" fill="#000000">trim_galore</text>
<text text-anchor="middle" x="779.1385" y="-307" font-family="sans" font-size="10.00" fill="#000000">outdir: rna_seq</text>
<text text-anchor="middle" x="779.1385" y="-295" font-family="sans" font-size="10.00" fill="#000000">sample: B6CastF1_4</text>
</g>
<!-- 12&#45;&gt;30 -->
<g id="edge40" class="edge">
<title>12&#45;&gt;30</title>
<path fill="none" stroke="#c0c0c0" stroke-width="2" d="M842.4687,-367.9891C833.0563,-359.3706 821.5496,-348.8343 810.9391,-339.1186"/>
<polygon fill="#c0c0c0" stroke="#c0c0c0" stroke-width="2" points="813.1529,-336.4001 803.414,-332.2282 808.4257,-341.5628 813.1529,-336.4001"/>
</g>
<!-- 13&#45;&gt;42 -->
<g id="edge64" class="edge">
<title>13&#45;&gt;42</title>
<path fill="none" stroke="#c0c0c0" stroke-width="2" d="M1194.933,-215.8314C1196.9874,-208.0463 1199.4345,-198.7729 1201.7141,-190.1347"/>
<polygon fill="#c0c0c0" stroke="#c0c0c0" stroke-width="2" points="1205.112,-190.9753 1204.2794,-180.4133 1198.3437,-189.1892 1205.112,-190.9753"/>
</g>
<!-- 14 -->
<g id="node15" class="node">
<title>14</title>
<path fill="none" stroke="#5682d8" stroke-width="2" d="M1720.4158,-404C1720.4158,-404 1627.8612,-404 1627.8612,-404 1621.8612,-404 1615.8612,-398 1615.8612,-392 1615.8612,-392 1615.8612,-380 1615.8612,-380 1615.8612,-374 1621.8612,-368 1627.8612,-368 1627.8612,-368 1720.4158,-368 1720.4158,-368 1726.4158,-368 1732.4158,-374 1732.4158,-380 1732.4158,-380 1732.4158,-392 1732.4158,-392 1732.4158,-398 1726.4158,-404 1720.4158,-404"/>
<text text-anchor="middle" x="1674.1385" y="-389" font-family="sans" font-size="10.00" fill="#000000">download_rnaseq</text>
<text text-anchor="middle" x="1674.1385" y="-377" font-family="sans" font-size="10.00" fill="#000000">sample: CastB6F1_3_R2</text>
</g>
<!-- 24 -->
<g id="node25" class="node">
<title>24</title>
<path fill="none" stroke="#d89556" stroke-width="2" d="M1794.7473,-332C1794.7473,-332 1719.5297,-332 1719.5297,-332 1713.5297,-332 1707.5297,-326 1707.5297,-320 1707.5297,-320 1707.5297,-300 1707.5297,-300 1707.5297,-294 1713.5297,-288 1719.5297,-288 1719.5297,-288 1794.7473,-288 1794.7473,-288 1800.7473,-288 1806.7473,-294 1806.7473,-300 1806.7473,-300 1806.7473,-320 1806.7473,-320 1806.7473,-326 1800.7473,-332 1794.7473,-332"/>
<text text-anchor="middle" x="1757.1385" y="-319" font-family="sans" font-size="10.00" fill="#000000">trim_galore</text>
<text text-anchor="middle" x="1757.1385" y="-307" font-family="sans" font-size="10.00" fill="#000000">outdir: rna_seq</text>
<text text-anchor="middle" x="1757.1385" y="-295" font-family="sans" font-size="10.00" fill="#000000">sample: CastB6F1_3</text>
</g>
<!-- 14&#45;&gt;24 -->
<g id="edge32" class="edge">
<title>14&#45;&gt;24</title>
<path fill="none" stroke="#c0c0c0" stroke-width="2" d="M1693.8083,-367.9891C1703.2207,-359.3706 1714.7274,-348.8343 1725.3379,-339.1186"/>
<polygon fill="#c0c0c0" stroke="#c0c0c0" stroke-width="2" points="1727.8513,-341.5628 1732.863,-332.2282 1723.1241,-336.4001 1727.8513,-341.5628"/>
</g>
<!-- 15&#45;&gt;35 -->
<g id="edge57" class="edge">
<title>15&#45;&gt;35</title>
<path fill="none" stroke="#c0c0c0" stroke-width="2" d="M1308.1385,-215.8314C1308.1385,-208.131 1308.1385,-198.9743 1308.1385,-190.4166"/>
<polygon fill="#c0c0c0" stroke="#c0c0c0" stroke-width="2" points="1311.6386,-190.4132 1308.1385,-180.4133 1304.6386,-190.4133 1311.6386,-190.4132"/>
</g>
<!-- 16 -->
<g id="node17" class="node">
<title>16</title>
<path fill="none" stroke="#5682d8" stroke-width="2" d="M774.4158,-404C774.4158,-404 681.8612,-404 681.8612,-404 675.8612,-404 669.8612,-398 669.8612,-392 669.8612,-392 669.8612,-380 669.8612,-380 669.8612,-374 675.8612,-368 681.8612,-368 681.8612,-368 774.4158,-368 774.4158,-368 780.4158,-368 786.4158,-374 786.4158,-380 786.4158,-380 786.4158,-392 786.4158,-392 786.4158,-398 780.4158,-404 774.4158,-404"/>
<text text-anchor="middle" x="728.1385" y="-389" font-family="sans" font-size="10.00" fill="#000000">download_rnaseq</text>
<text text-anchor="middle" x="728.1385" y="-377" font-family="sans" font-size="10.00" fill="#000000">sample: CastB6F1_4_R1</text>
</g>
<!-- 16&#45;&gt;10 -->
<g id="edge17" class="edge">
<title>16&#45;&gt;10</title>
<path fill="none" stroke="#c0c0c0" stroke-width="2" d="M712.2604,-367.9891C704.8838,-359.6216 695.9136,-349.4464 687.559,-339.9696"/>
<polygon fill="#c0c0c0" stroke="#c0c0c0" stroke-width="2" points="689.9729,-337.4149 680.7344,-332.2282 684.722,-342.044 689.9729,-337.4149"/>
</g>
<!-- 17 -->
<g id="node18" class="node">
<title>17</title>
<path fill="none" stroke="#97d856" stroke-width="2" d="M1236.9491,-36C1236.9491,-36 1181.3279,-36 1181.3279,-36 1175.3279,-36 1169.3279,-30 1169.3279,-24 1169.3279,-24 1169.3279,-12 1169.3279,-12 1169.3279,-6 1175.3279,0 1181.3279,0 1181.3279,0 1236.9491,0 1236.9491,0 1242.9491,0 1248.9491,-6 1248.9491,-12 1248.9491,-12 1248.9491,-24 1248.9491,-24 1248.9491,-30 1242.9491,-36 1236.9491,-36"/>
<text text-anchor="middle" x="1209.1385" y="-15" font-family="sans" font-size="10.00" fill="#000000">rnaseq_analysis</text>
</g>
<!-- 18&#45;&gt;0 -->
<g id="edge2" class="edge">
<title>18&#45;&gt;0</title>
<path fill="none" stroke="#c0c0c0" stroke-width="2" d="M1113.1306,-293.1331C1040.085,-277.5391 934.4282,-254.9832 877.0169,-242.7269"/>
<polygon fill="#c0c0c0" stroke="#c0c0c0" stroke-width="2" points="877.7254,-239.2993 867.2151,-240.6343 876.2639,-246.1451 877.7254,-239.2993"/>
</g>
<!-- 18&#45;&gt;1 -->
<g id="edge5" class="edge">
<title>18&#45;&gt;1</title>
<path fill="none" stroke="#c0c0c0" stroke-width="2" d="M1270.9127,-300.2265C1350.2886,-289.937 1476.149,-272.4156 1584.1385,-252 1596.0734,-249.7437 1608.9503,-246.93 1620.735,-244.2025"/>
<polygon fill="#c0c0c0" stroke="#c0c0c0" stroke-width="2" points="1621.8265,-247.5414 1630.759,-241.844 1620.2232,-240.7275 1621.8265,-247.5414"/>
</g>
<!-- 18&#45;&gt;3 -->
<g id="edge7" class="edge">
<title>18&#45;&gt;3</title>
<path fill="none" stroke="#c0c0c0" stroke-width="2" d="M1172.7056,-291.9891C1162.0607,-282.123 1148.7041,-269.7438 1137.0682,-258.9593"/>
<polygon fill="#c0c0c0" stroke="#c0c0c0" stroke-width="2" points="1139.4296,-256.3757 1129.716,-252.145 1134.6712,-261.5097 1139.4296,-256.3757"/>
</g>
<!-- 18&#45;&gt;13 -->
<g id="edge19" class="edge">
<title>18&#45;&gt;13</title>
<path fill="none" stroke="#c0c0c0" stroke-width="2" d="M1191.6645,-291.9891C1191.4321,-283.1566 1191.1467,-272.3099 1190.8858,-262.3965"/>
<polygon fill="#c0c0c0" stroke="#c0c0c0" stroke-width="2" points="1194.378,-262.0495 1190.616,-252.145 1187.3804,-262.2337 1194.378,-262.0495"/>
</g>
<!-- 18&#45;&gt;15 -->
<g id="edge21" class="edge">
<title>18&#45;&gt;15</title>
<path fill="none" stroke="#c0c0c0" stroke-width="2" d="M1219.6289,-291.9891C1235.2613,-281.7471 1255.0274,-268.7969 1271.9131,-257.7339"/>
<polygon fill="#c0c0c0" stroke="#c0c0c0" stroke-width="2" points="1273.9969,-260.553 1280.4434,-252.145 1270.1607,-254.6977 1273.9969,-260.553"/>
</g>
<!-- 18&#45;&gt;19 -->
<g id="edge26" class="edge">
<title>18&#45;&gt;19</title>
<path fill="none" stroke="#c0c0c0" stroke-width="2" d="M1256.5987,-291.9891C1308.1925,-277.5732 1378.9891,-257.7917 1423.1255,-245.4595"/>
<polygon fill="#c0c0c0" stroke="#c0c0c0" stroke-width="2" points="1424.2433,-248.7813 1432.9325,-242.7193 1422.3595,-242.0396 1424.2433,-248.7813"/>
</g>
<!-- 18&#45;&gt;32 -->
<g id="edge41" class="edge">
<title>18&#45;&gt;32</title>
<path fill="none" stroke="#c0c0c0" stroke-width="2" d="M1270.9723,-300.6564C1332.4534,-292.1576 1419.8118,-277.4188 1503.3337,-251.8772"/>
<polygon fill="#c0c0c0" stroke="#c0c0c0" stroke-width="2" points="1504.4646,-255.1909 1512.9716,-248.8758 1502.3832,-248.5075 1504.4646,-255.1909"/>
</g>
<!-- 18&#45;&gt;34 -->
<g id="edge54" class="edge">
<title>18&#45;&gt;34</title>
<path fill="none" stroke="#c0c0c0" stroke-width="2" d="M1144.7413,-291.9891C1110.7191,-279.0606 1065.3406,-261.8168 1032.9299,-249.5007"/>
<polygon fill="#c0c0c0" stroke="#c0c0c0" stroke-width="2" points="1033.9058,-246.1275 1023.3147,-245.847 1031.4193,-252.6709 1033.9058,-246.1275"/>
</g>
<!-- 19&#45;&gt;39 -->
<g id="edge62" class="edge">
<title>19&#45;&gt;39</title>
<path fill="none" stroke="#c0c0c0" stroke-width="2" d="M1449.755,-215.8314C1443.1899,-207.5386 1435.2878,-197.557 1428.0807,-188.4533"/>
<polygon fill="#c0c0c0" stroke="#c0c0c0" stroke-width="2" points="1430.6669,-186.0813 1421.7157,-180.4133 1425.1786,-190.4262 1430.6669,-186.0813"/>
</g>
<!-- 20 -->
<g id="node21" class="node">
<title>20</title>
<path fill="none" stroke="#5682d8" stroke-width="2" d="M238.4158,-404C238.4158,-404 145.8612,-404 145.8612,-404 139.8612,-404 133.8612,-398 133.8612,-392 133.8612,-392 133.8612,-380 133.8612,-380 133.8612,-374 139.8612,-368 145.8612,-368 145.8612,-368 238.4158,-368 238.4158,-368 244.4158,-368 250.4158,-374 250.4158,-380 250.4158,-380 250.4158,-392 250.4158,-392 250.4158,-398 244.4158,-404 238.4158,-404"/>
<text text-anchor="middle" x="192.1385" y="-389" font-family="sans" font-size="10.00" fill="#000000">download_rnaseq</text>
<text text-anchor="middle" x="192.1385" y="-377" font-family="sans" font-size="10.00" fill="#000000">sample: B6CastF1_3_R1</text>
</g>
<!-- 20&#45;&gt;9 -->
<g id="edge15" class="edge">
<title>20&#45;&gt;9</title>
<path fill="none" stroke="#c0c0c0" stroke-width="2" d="M192.1385,-367.9891C192.1385,-360.291 192.1385,-351.0629 192.1385,-342.2561"/>
<polygon fill="#c0c0c0" stroke="#c0c0c0" stroke-width="2" points="195.6386,-342.2282 192.1385,-332.2282 188.6386,-342.2282 195.6386,-342.2282"/>
</g>
<!-- 21 -->
<g id="node22" class="node">
<title>21</title>
<path fill="none" stroke="#569ad8" stroke-width="2" d="M1435.4018,-692C1435.4018,-692 1350.8752,-692 1350.8752,-692 1344.8752,-692 1338.8752,-686 1338.8752,-680 1338.8752,-680 1338.8752,-668 1338.8752,-668 1338.8752,-662 1344.8752,-656 1350.8752,-656 1350.8752,-656 1435.4018,-656 1435.4018,-656 1441.4018,-656 1447.4018,-662 1447.4018,-668 1447.4018,-668 1447.4018,-680 1447.4018,-680 1447.4018,-686 1441.4018,-692 1435.4018,-692"/>
<text text-anchor="middle" x="1393.1385" y="-671" font-family="sans" font-size="10.00" fill="#000000">download_B6_genome</text>
</g>
<!-- 23 -->
<g id="node24" class="node">
<title>23</title>
<path fill="none" stroke="#56d8d8" stroke-width="2" d="M1456.9516,-620C1456.9516,-620 1329.3254,-620 1329.3254,-620 1323.3254,-620 1317.3254,-614 1317.3254,-608 1317.3254,-608 1317.3254,-596 1317.3254,-596 1317.3254,-590 1323.3254,-584 1329.3254,-584 1329.3254,-584 1456.9516,-584 1456.9516,-584 1462.9516,-584 1468.9516,-590 1468.9516,-596 1468.9516,-596 1468.9516,-608 1468.9516,-608 1468.9516,-614 1462.9516,-620 1456.9516,-620"/>
<text text-anchor="middle" x="1393.1385" y="-605" font-family="sans" font-size="10.00" fill="#000000">gunzip_fa</text>
<text text-anchor="middle" x="1393.1385" y="-593" font-family="sans" font-size="10.00" fill="#000000">file: ../genome_data/GRCm38_90</text>
</g>
<!-- 21&#45;&gt;23 -->
<g id="edge31" class="edge">
<title>21&#45;&gt;23</title>
<path fill="none" stroke="#c0c0c0" stroke-width="2" d="M1393.1385,-655.8314C1393.1385,-648.131 1393.1385,-638.9743 1393.1385,-630.4166"/>
<polygon fill="#c0c0c0" stroke="#c0c0c0" stroke-width="2" points="1396.6386,-630.4132 1393.1385,-620.4133 1389.6386,-630.4133 1396.6386,-630.4132"/>
</g>
<!-- 22&#45;&gt;33 -->
<g id="edge46" class="edge">
<title>22&#45;&gt;33</title>
<path fill="none" stroke="#c0c0c0" stroke-width="2" d="M1503.3958,-153.2434C1447.9167,-141.3195 1347.758,-119.7928 1279.8733,-105.2027"/>
<polygon fill="#c0c0c0" stroke="#c0c0c0" stroke-width="2" points="1280.1965,-101.6923 1269.6843,-103.0128 1278.7256,-108.536 1280.1965,-101.6923"/>
</g>
<!-- 45 -->
<g id="node46" class="node">
<title>45</title>
<path fill="none" stroke="#56a2d8" stroke-width="2" d="M1430.3357,-548C1430.3357,-548 1355.9413,-548 1355.9413,-548 1349.9413,-548 1343.9413,-542 1343.9413,-536 1343.9413,-536 1343.9413,-524 1343.9413,-524 1343.9413,-518 1349.9413,-512 1355.9413,-512 1355.9413,-512 1430.3357,-512 1430.3357,-512 1436.3357,-512 1442.3357,-518 1442.3357,-524 1442.3357,-524 1442.3357,-536 1442.3357,-536 1442.3357,-542 1436.3357,-548 1430.3357,-548"/>
<text text-anchor="middle" x="1393.1385" y="-527" font-family="sans" font-size="10.00" fill="#000000">snpsplit_create_path</text>
</g>
<!-- 23&#45;&gt;45 -->
<g id="edge66" class="edge">
<title>23&#45;&gt;45</title>
<path fill="none" stroke="#c0c0c0" stroke-width="2" d="M1393.1385,-583.8314C1393.1385,-576.131 1393.1385,-566.9743 1393.1385,-558.4166"/>
<polygon fill="#c0c0c0" stroke="#c0c0c0" stroke-width="2" points="1396.6386,-558.4132 1393.1385,-548.4133 1389.6386,-558.4133 1396.6386,-558.4132"/>
</g>
<!-- 24&#45;&gt;15 -->
<g id="edge22" class="edge">
<title>24&#45;&gt;15</title>
<path fill="none" stroke="#c0c0c0" stroke-width="2" d="M1707.3721,-301.5763C1618.0362,-286.4548 1432.0922,-254.981 1349.3652,-240.9782"/>
<polygon fill="#c0c0c0" stroke="#c0c0c0" stroke-width="2" points="1349.7765,-237.4982 1339.3326,-239.2801 1348.6082,-244.4 1349.7765,-237.4982"/>
</g>
<!-- 25&#45;&gt;33 -->
<g id="edge50" class="edge">
<title>25&#45;&gt;33</title>
<path fill="none" stroke="#c0c0c0" stroke-width="2" d="M1034.8311,-148.3727C1065.9889,-137.9385 1109.5521,-123.3499 1145.3326,-111.3675"/>
<polygon fill="#c0c0c0" stroke="#c0c0c0" stroke-width="2" points="1146.8305,-114.5571 1155.2014,-108.0626 1144.6076,-107.9194 1146.8305,-114.5571"/>
</g>
<!-- 26 -->
<g id="node27" class="node">
<title>26</title>
<path fill="none" stroke="#5682d8" stroke-width="2" d="M2256.4158,-404C2256.4158,-404 2163.8612,-404 2163.8612,-404 2157.8612,-404 2151.8612,-398 2151.8612,-392 2151.8612,-392 2151.8612,-380 2151.8612,-380 2151.8612,-374 2157.8612,-368 2163.8612,-368 2163.8612,-368 2256.4158,-368 2256.4158,-368 2262.4158,-368 2268.4158,-374 2268.4158,-380 2268.4158,-380 2268.4158,-392 2268.4158,-392 2268.4158,-398 2262.4158,-404 2256.4158,-404"/>
<text text-anchor="middle" x="2210.1385" y="-389" font-family="sans" font-size="10.00" fill="#000000">download_rnaseq</text>
<text text-anchor="middle" x="2210.1385" y="-377" font-family="sans" font-size="10.00" fill="#000000">sample: CastB6F1_2_R2</text>
</g>
<!-- 36 -->
<g id="node37" class="node">
<title>36</title>
<path fill="none" stroke="#d89556" stroke-width="2" d="M2113.7473,-332C2113.7473,-332 2038.5297,-332 2038.5297,-332 2032.5297,-332 2026.5297,-326 2026.5297,-320 2026.5297,-320 2026.5297,-300 2026.5297,-300 2026.5297,-294 2032.5297,-288 2038.5297,-288 2038.5297,-288 2113.7473,-288 2113.7473,-288 2119.7473,-288 2125.7473,-294 2125.7473,-300 2125.7473,-300 2125.7473,-320 2125.7473,-320 2125.7473,-326 2119.7473,-332 2113.7473,-332"/>
<text text-anchor="middle" x="2076.1385" y="-319" font-family="sans" font-size="10.00" fill="#000000">trim_galore</text>
<text text-anchor="middle" x="2076.1385" y="-307" font-family="sans" font-size="10.00" fill="#000000">outdir: rna_seq</text>
<text text-anchor="middle" x="2076.1385" y="-295" font-family="sans" font-size="10.00" fill="#000000">sample: CastB6F1_2</text>
</g>
<!-- 26&#45;&gt;36 -->
<g id="edge58" class="edge">
<title>26&#45;&gt;36</title>
<path fill="none" stroke="#c0c0c0" stroke-width="2" d="M2178.3824,-367.9891C2162.3014,-358.8685 2142.4337,-347.6003 2124.5012,-337.4296"/>
<polygon fill="#c0c0c0" stroke="#c0c0c0" stroke-width="2" points="2125.7554,-334.1172 2115.3303,-332.2282 2122.302,-340.2061 2125.7554,-334.1172"/>
</g>
<!-- 27 -->
<g id="node28" class="node">
<title>27</title>
<path fill="none" stroke="#568ad8" stroke-width="2" d="M1314.3427,-548C1314.3427,-548 1097.9343,-548 1097.9343,-548 1091.9343,-548 1085.9343,-542 1085.9343,-536 1085.9343,-536 1085.9343,-524 1085.9343,-524 1085.9343,-518 1091.9343,-512 1097.9343,-512 1097.9343,-512 1314.3427,-512 1314.3427,-512 1320.3427,-512 1326.3427,-518 1326.3427,-524 1326.3427,-524 1326.3427,-536 1326.3427,-536 1326.3427,-542 1320.3427,-548 1314.3427,-548"/>
<text text-anchor="middle" x="1206.1385" y="-533" font-family="sans" font-size="10.00" fill="#000000">gunzip_vcf</text>
<text text-anchor="middle" x="1206.1385" y="-521" font-family="sans" font-size="10.00" fill="#000000">file: ../genome_data/CAST_EiJ.mgp.v5.snps.dbSNP142</text>
</g>
<!-- 49 -->
<g id="node50" class="node">
<title>49</title>
<path fill="none" stroke="#78d856" stroke-width="2" d="M1346.3858,-476C1346.3858,-476 1251.8912,-476 1251.8912,-476 1245.8912,-476 1239.8912,-470 1239.8912,-464 1239.8912,-464 1239.8912,-452 1239.8912,-452 1239.8912,-446 1245.8912,-440 1251.8912,-440 1251.8912,-440 1346.3858,-440 1346.3858,-440 1352.3858,-440 1358.3858,-446 1358.3858,-452 1358.3858,-452 1358.3858,-464 1358.3858,-464 1358.3858,-470 1352.3858,-476 1346.3858,-476"/>
<text text-anchor="middle" x="1299.1385" y="-455" font-family="sans" font-size="10.00" fill="#000000">snpsplit_prepare_genome</text>
</g>
<!-- 27&#45;&gt;49 -->
<g id="edge71" class="edge">
<title>27&#45;&gt;49</title>
<path fill="none" stroke="#c0c0c0" stroke-width="2" d="M1229.6063,-511.8314C1241.1712,-502.8779 1255.2789,-491.9558 1267.7568,-482.2955"/>
<polygon fill="#c0c0c0" stroke="#c0c0c0" stroke-width="2" points="1269.9135,-485.0521 1275.6782,-476.1628 1265.6283,-479.5171 1269.9135,-485.0521"/>
</g>
<!-- 28&#45;&gt;19 -->
<g id="edge27" class="edge">
<title>28&#45;&gt;19</title>
<path fill="none" stroke="#c0c0c0" stroke-width="2" d="M1825.5093,-290.5307C1822.3622,-289.5963 1819.221,-288.7409 1816.1385,-288 1683.5985,-256.1414 1640.7169,-287.5361 1505.1645,-251.7829"/>
<polygon fill="#c0c0c0" stroke="#c0c0c0" stroke-width="2" points="1505.8097,-248.3315 1495.2421,-249.0908 1503.9767,-255.0872 1505.8097,-248.3315"/>
</g>
<!-- 29 -->
<g id="node30" class="node">
<title>29</title>
<path fill="none" stroke="#5682d8" stroke-width="2" d="M1042.4158,-404C1042.4158,-404 949.8612,-404 949.8612,-404 943.8612,-404 937.8612,-398 937.8612,-392 937.8612,-392 937.8612,-380 937.8612,-380 937.8612,-374 943.8612,-368 949.8612,-368 949.8612,-368 1042.4158,-368 1042.4158,-368 1048.4158,-368 1054.4158,-374 1054.4158,-380 1054.4158,-380 1054.4158,-392 1054.4158,-392 1054.4158,-398 1048.4158,-404 1042.4158,-404"/>
<text text-anchor="middle" x="996.1385" y="-389" font-family="sans" font-size="10.00" fill="#000000">download_rnaseq</text>
<text text-anchor="middle" x="996.1385" y="-377" font-family="sans" font-size="10.00" fill="#000000">sample: B6CastF1_4_R2</text>
</g>
<!-- 29&#45;&gt;30 -->
<g id="edge39" class="edge">
<title>29&#45;&gt;30</title>
<path fill="none" stroke="#c0c0c0" stroke-width="2" d="M944.7125,-367.9891C912.8866,-356.8427 871.9017,-342.4885 838.6715,-330.8503"/>
<polygon fill="#c0c0c0" stroke="#c0c0c0" stroke-width="2" points="839.6686,-327.4911 829.0738,-327.4888 837.3547,-334.0976 839.6686,-327.4911"/>
</g>
<!-- 30&#45;&gt;13 -->
<g id="edge18" class="edge">
<title>30&#45;&gt;13</title>
<path fill="none" stroke="#c0c0c0" stroke-width="2" d="M828.9794,-306.4655C899.1825,-300.5625 1030.945,-286.0899 1149.4055,-251.7952"/>
<polygon fill="#c0c0c0" stroke="#c0c0c0" stroke-width="2" points="1150.3979,-255.1516 1158.9989,-248.9651 1148.4172,-248.4377 1150.3979,-255.1516"/>
</g>
<!-- 31 -->
<g id="node32" class="node">
<title>31</title>
<path fill="none" stroke="#5682d8" stroke-width="2" d="M506.4158,-404C506.4158,-404 413.8612,-404 413.8612,-404 407.8612,-404 401.8612,-398 401.8612,-392 401.8612,-392 401.8612,-380 401.8612,-380 401.8612,-374 407.8612,-368 413.8612,-368 413.8612,-368 506.4158,-368 506.4158,-368 512.4158,-368 518.4158,-374 518.4158,-380 518.4158,-380 518.4158,-392 518.4158,-392 518.4158,-398 512.4158,-404 506.4158,-404"/>
<text text-anchor="middle" x="460.1385" y="-389" font-family="sans" font-size="10.00" fill="#000000">download_rnaseq</text>
<text text-anchor="middle" x="460.1385" y="-377" font-family="sans" font-size="10.00" fill="#000000">sample: CastB6F1_5_R2</text>
</g>
<!-- 37 -->
<g id="node38" class="node">
<title>37</title>
<path fill="none" stroke="#d89556" stroke-width="2" d="M497.7473,-332C497.7473,-332 422.5297,-332 422.5297,-332 416.5297,-332 410.5297,-326 410.5297,-320 410.5297,-320 410.5297,-300 410.5297,-300 410.5297,-294 416.5297,-288 422.5297,-288 422.5297,-288 497.7473,-288 497.7473,-288 503.7473,-288 509.7473,-294 509.7473,-300 509.7473,-300 509.7473,-320 509.7473,-320 509.7473,-326 503.7473,-332 497.7473,-332"/>
<text text-anchor="middle" x="460.1385" y="-319" font-family="sans" font-size="10.00" fill="#000000">trim_galore</text>
<text text-anchor="middle" x="460.1385" y="-307" font-family="sans" font-size="10.00" fill="#000000">outdir: rna_seq</text>
<text text-anchor="middle" x="460.1385" y="-295" font-family="sans" font-size="10.00" fill="#000000">sample: CastB6F1_5</text>
</g>
<!-- 31&#45;&gt;37 -->
<g id="edge60" class="edge">
<title>31&#45;&gt;37</title>
<path fill="none" stroke="#c0c0c0" stroke-width="2" d="M460.1385,-367.9891C460.1385,-360.291 460.1385,-351.0629 460.1385,-342.2561"/>
<polygon fill="#c0c0c0" stroke="#c0c0c0" stroke-width="2" points="463.6386,-342.2282 460.1385,-332.2282 456.6386,-342.2282 463.6386,-342.2282"/>
</g>
<!-- 32&#45;&gt;22 -->
<g id="edge29" class="edge">
<title>32&#45;&gt;22</title>
<path fill="none" stroke="#c0c0c0" stroke-width="2" d="M1544.1385,-215.8314C1544.1385,-208.131 1544.1385,-198.9743 1544.1385,-190.4166"/>
<polygon fill="#c0c0c0" stroke="#c0c0c0" stroke-width="2" points="1547.6386,-190.4132 1544.1385,-180.4133 1540.6386,-190.4133 1547.6386,-190.4132"/>
</g>
<!-- 33&#45;&gt;17 -->
<g id="edge24" class="edge">
<title>33&#45;&gt;17</title>
<path fill="none" stroke="#c0c0c0" stroke-width="2" d="M1209.1385,-71.8314C1209.1385,-64.131 1209.1385,-54.9743 1209.1385,-46.4166"/>
<polygon fill="#c0c0c0" stroke="#c0c0c0" stroke-width="2" points="1212.6386,-46.4132 1209.1385,-36.4133 1205.6386,-46.4133 1212.6386,-46.4132"/>
</g>
<!-- 34&#45;&gt;25 -->
<g id="edge34" class="edge">
<title>34&#45;&gt;25</title>
<path fill="none" stroke="#c0c0c0" stroke-width="2" d="M992.6432,-215.8314C992.8571,-208.131 993.1114,-198.9743 993.3491,-190.4166"/>
<polygon fill="#c0c0c0" stroke="#c0c0c0" stroke-width="2" points="996.8479,-190.5066 993.627,-180.4133 989.8506,-190.3122 996.8479,-190.5066"/>
</g>
<!-- 35&#45;&gt;33 -->
<g id="edge48" class="edge">
<title>35&#45;&gt;33</title>
<path fill="none" stroke="#c0c0c0" stroke-width="2" d="M1283.1566,-143.8314C1270.8457,-134.8779 1255.8278,-123.9558 1242.5448,-114.2955"/>
<polygon fill="#c0c0c0" stroke="#c0c0c0" stroke-width="2" points="1244.2584,-111.214 1234.1124,-108.1628 1240.1412,-116.8752 1244.2584,-111.214"/>
</g>
<!-- 36&#45;&gt;32 -->
<g id="edge43" class="edge">
<title>36&#45;&gt;32</title>
<path fill="none" stroke="#c0c0c0" stroke-width="2" d="M2026.2626,-301.788C1999.068,-297.4328 1964.7941,-292.1417 1934.1385,-288 1795.8086,-269.3109 1759.6932,-275.7308 1622.1385,-252 1610.1691,-249.935 1597.2811,-247.1821 1585.497,-244.4515"/>
<polygon fill="#c0c0c0" stroke="#c0c0c0" stroke-width="2" points="1586.0139,-240.9771 1575.4761,-242.0756 1584.3989,-247.7883 1586.0139,-240.9771"/>
</g>
<!-- 37&#45;&gt;34 -->
<g id="edge53" class="edge">
<title>37&#45;&gt;34</title>
<path fill="none" stroke="#c0c0c0" stroke-width="2" d="M510.0412,-301.9806C537.2436,-297.6818 571.5165,-292.3832 602.1385,-288 723.7236,-270.5965 754.5554,-269.418 876.1385,-252 900.8689,-248.4571 928.5136,-244.1799 950.6109,-240.684"/>
<polygon fill="#c0c0c0" stroke="#c0c0c0" stroke-width="2" points="951.3315,-244.1135 960.6586,-239.0878 950.2332,-237.2002 951.3315,-244.1135"/>
</g>
<!-- 38 -->
<g id="node39" class="node">
<title>38</title>
<path fill="none" stroke="#5682d8" stroke-width="2" d="M1854.4158,-404C1854.4158,-404 1761.8612,-404 1761.8612,-404 1755.8612,-404 1749.8612,-398 1749.8612,-392 1749.8612,-392 1749.8612,-380 1749.8612,-380 1749.8612,-374 1755.8612,-368 1761.8612,-368 1761.8612,-368 1854.4158,-368 1854.4158,-368 1860.4158,-368 1866.4158,-374 1866.4158,-380 1866.4158,-380 1866.4158,-392 1866.4158,-392 1866.4158,-398 1860.4158,-404 1854.4158,-404"/>
<text text-anchor="middle" x="1808.1385" y="-389" font-family="sans" font-size="10.00" fill="#000000">download_rnaseq</text>
<text text-anchor="middle" x="1808.1385" y="-377" font-family="sans" font-size="10.00" fill="#000000">sample: B6CastF1_2_R2</text>
</g>
<!-- 38&#45;&gt;28 -->
<g id="edge38" class="edge">
<title>38&#45;&gt;28</title>
<path fill="none" stroke="#c0c0c0" stroke-width="2" d="M1824.0166,-367.9891C1831.3932,-359.6216 1840.3634,-349.4464 1848.718,-339.9696"/>
<polygon fill="#c0c0c0" stroke="#c0c0c0" stroke-width="2" points="1851.555,-342.044 1855.5426,-332.2282 1846.3041,-337.4149 1851.555,-342.044"/>
</g>
<!-- 39&#45;&gt;33 -->
<g id="edge52" class="edge">
<title>39&#45;&gt;33</title>
<path fill="none" stroke="#c0c0c0" stroke-width="2" d="M1366.5016,-147.0567C1363.6718,-146.0209 1360.8629,-144.9941 1358.1385,-144 1328.6586,-133.2434 1295.8719,-121.353 1268.5762,-111.4742"/>
<polygon fill="#c0c0c0" stroke="#c0c0c0" stroke-width="2" points="1269.759,-108.1802 1259.1648,-108.069 1267.3774,-114.7626 1269.759,-108.1802"/>
</g>
<!-- 40 -->
<g id="node41" class="node">
<title>40</title>
<path fill="none" stroke="#5682d8" stroke-width="2" d="M1586.4158,-404C1586.4158,-404 1493.8612,-404 1493.8612,-404 1487.8612,-404 1481.8612,-398 1481.8612,-392 1481.8612,-392 1481.8612,-380 1481.8612,-380 1481.8612,-374 1487.8612,-368 1493.8612,-368 1493.8612,-368 1586.4158,-368 1586.4158,-368 1592.4158,-368 1598.4158,-374 1598.4158,-380 1598.4158,-380 1598.4158,-392 1598.4158,-392 1598.4158,-398 1592.4158,-404 1586.4158,-404"/>
<text text-anchor="middle" x="1540.1385" y="-389" font-family="sans" font-size="10.00" fill="#000000">download_rnaseq</text>
<text text-anchor="middle" x="1540.1385" y="-377" font-family="sans" font-size="10.00" fill="#000000">sample: CastB6F1_3_R1</text>
</g>
<!-- 40&#45;&gt;24 -->
<g id="edge33" class="edge">
<title>40&#45;&gt;24</title>
<path fill="none" stroke="#c0c0c0" stroke-width="2" d="M1591.5645,-367.9891C1623.3904,-356.8427 1664.3753,-342.4885 1697.6055,-330.8503"/>
<polygon fill="#c0c0c0" stroke="#c0c0c0" stroke-width="2" points="1698.9223,-334.0976 1707.2032,-327.4888 1696.6084,-327.4911 1698.9223,-334.0976"/>
</g>
<!-- 41 -->
<g id="node42" class="node">
<title>41</title>
<path fill="none" stroke="#56d882" stroke-width="2" d="M1237.4657,-620C1237.4657,-620 1174.8113,-620 1174.8113,-620 1168.8113,-620 1162.8113,-614 1162.8113,-608 1162.8113,-608 1162.8113,-596 1162.8113,-596 1162.8113,-590 1168.8113,-584 1174.8113,-584 1174.8113,-584 1237.4657,-584 1237.4657,-584 1243.4657,-584 1249.4657,-590 1249.4657,-596 1249.4657,-596 1249.4657,-608 1249.4657,-608 1249.4657,-614 1243.4657,-620 1237.4657,-620"/>
<text text-anchor="middle" x="1206.1385" y="-605" font-family="sans" font-size="10.00" fill="#000000">download_vcf</text>
<text text-anchor="middle" x="1206.1385" y="-593" font-family="sans" font-size="10.00" fill="#000000">strain: CAST_EiJ</text>
</g>
<!-- 41&#45;&gt;27 -->
<g id="edge36" class="edge">
<title>41&#45;&gt;27</title>
<path fill="none" stroke="#c0c0c0" stroke-width="2" d="M1206.1385,-583.8314C1206.1385,-576.131 1206.1385,-566.9743 1206.1385,-558.4166"/>
<polygon fill="#c0c0c0" stroke="#c0c0c0" stroke-width="2" points="1209.6386,-558.4132 1206.1385,-548.4133 1202.6386,-558.4133 1209.6386,-558.4132"/>
</g>
<!-- 42&#45;&gt;33 -->
<g id="edge49" class="edge">
<title>42&#45;&gt;33</title>
<path fill="none" stroke="#c0c0c0" stroke-width="2" d="M1209.1385,-143.8314C1209.1385,-136.131 1209.1385,-126.9743 1209.1385,-118.4166"/>
<polygon fill="#c0c0c0" stroke="#c0c0c0" stroke-width="2" points="1212.6386,-118.4132 1209.1385,-108.4133 1205.6386,-118.4133 1212.6386,-118.4132"/>
</g>
<!-- 43 -->
<g id="node44" class="node">
<title>43</title>
<path fill="none" stroke="#5682d8" stroke-width="2" d="M2390.4158,-404C2390.4158,-404 2297.8612,-404 2297.8612,-404 2291.8612,-404 2285.8612,-398 2285.8612,-392 2285.8612,-392 2285.8612,-380 2285.8612,-380 2285.8612,-374 2291.8612,-368 2297.8612,-368 2297.8612,-368 2390.4158,-368 2390.4158,-368 2396.4158,-368 2402.4158,-374 2402.4158,-380 2402.4158,-380 2402.4158,-392 2402.4158,-392 2402.4158,-398 2396.4158,-404 2390.4158,-404"/>
<text text-anchor="middle" x="2344.1385" y="-389" font-family="sans" font-size="10.00" fill="#000000">download_rnaseq</text>
<text text-anchor="middle" x="2344.1385" y="-377" font-family="sans" font-size="10.00" fill="#000000">sample: B6CastF1_5_R1</text>
</g>
<!-- 43&#45;&gt;8 -->
<g id="edge13" class="edge">
<title>43&#45;&gt;8</title>
<path fill="none" stroke="#c0c0c0" stroke-width="2" d="M2344.1385,-367.9891C2344.1385,-360.291 2344.1385,-351.0629 2344.1385,-342.2561"/>
<polygon fill="#c0c0c0" stroke="#c0c0c0" stroke-width="2" points="2347.6386,-342.2282 2344.1385,-332.2282 2340.6386,-342.2282 2347.6386,-342.2282"/>
</g>
<!-- 44 -->
<g id="node45" class="node">
<title>44</title>
<path fill="none" stroke="#5682d8" stroke-width="2" d="M372.4158,-404C372.4158,-404 279.8612,-404 279.8612,-404 273.8612,-404 267.8612,-398 267.8612,-392 267.8612,-392 267.8612,-380 267.8612,-380 267.8612,-374 273.8612,-368 279.8612,-368 279.8612,-368 372.4158,-368 372.4158,-368 378.4158,-368 384.4158,-374 384.4158,-380 384.4158,-380 384.4158,-392 384.4158,-392 384.4158,-398 378.4158,-404 372.4158,-404"/>
<text text-anchor="middle" x="326.1385" y="-389" font-family="sans" font-size="10.00" fill="#000000">download_rnaseq</text>
<text text-anchor="middle" x="326.1385" y="-377" font-family="sans" font-size="10.00" fill="#000000">sample: CastB6F1_5_R1</text>
</g>
<!-- 44&#45;&gt;37 -->
<g id="edge61" class="edge">
<title>44&#45;&gt;37</title>
<path fill="none" stroke="#c0c0c0" stroke-width="2" d="M357.8946,-367.9891C373.9756,-358.8685 393.8433,-347.6003 411.7758,-337.4296"/>
<polygon fill="#c0c0c0" stroke="#c0c0c0" stroke-width="2" points="413.975,-340.2061 420.9467,-332.2282 410.5216,-334.1172 413.975,-340.2061"/>
</g>
<!-- 45&#45;&gt;49 -->
<g id="edge72" class="edge">
<title>45&#45;&gt;49</title>
<path fill="none" stroke="#c0c0c0" stroke-width="2" d="M1369.4183,-511.8314C1357.7291,-502.8779 1343.4697,-491.9558 1330.8576,-482.2955"/>
<polygon fill="#c0c0c0" stroke="#c0c0c0" stroke-width="2" points="1332.9182,-479.4651 1322.8511,-476.1628 1328.6616,-485.0222 1332.9182,-479.4651"/>
</g>
<!-- 46&#45;&gt;33 -->
<g id="edge44" class="edge">
<title>46&#45;&gt;33</title>
<path fill="none" stroke="#c0c0c0" stroke-width="2" d="M935.8936,-146.5055C938.6691,-145.6123 941.4358,-144.767 944.1385,-144 1009.0622,-125.5744 1084.6213,-110.8162 1138.4059,-101.4158"/>
<polygon fill="#c0c0c0" stroke="#c0c0c0" stroke-width="2" points="1139.2678,-104.8188 1148.5249,-99.6655 1138.0747,-97.9212 1139.2678,-104.8188"/>
</g>
<!-- 47&#45;&gt;33 -->
<g id="edge45" class="edge">
<title>47&#45;&gt;33</title>
<path fill="none" stroke="#c0c0c0" stroke-width="2" d="M1621.3315,-150.3523C1612.4161,-148.045 1602.997,-145.7871 1594.1385,-144 1485.3884,-122.0616 1357.5707,-106.0334 1280.0037,-97.3702"/>
<polygon fill="#c0c0c0" stroke="#c0c0c0" stroke-width="2" points="1280.1904,-93.8695 1269.866,-96.2479 1279.4202,-100.827 1280.1904,-93.8695"/>
</g>
<!-- 48 -->
<g id="node49" class="node">
<title>48</title>
<path fill="none" stroke="#5682d8" stroke-width="2" d="M2524.4158,-404C2524.4158,-404 2431.8612,-404 2431.8612,-404 2425.8612,-404 2419.8612,-398 2419.8612,-392 2419.8612,-392 2419.8612,-380 2419.8612,-380 2419.8612,-374 2425.8612,-368 2431.8612,-368 2431.8612,-368 2524.4158,-368 2524.4158,-368 2530.4158,-368 2536.4158,-374 2536.4158,-380 2536.4158,-380 2536.4158,-392 2536.4158,-392 2536.4158,-398 2530.4158,-404 2524.4158,-404"/>
<text text-anchor="middle" x="2478.1385" y="-389" font-family="sans" font-size="10.00" fill="#000000">download_rnaseq</text>
<text text-anchor="middle" x="2478.1385" y="-377" font-family="sans" font-size="10.00" fill="#000000">sample: B6CastF1_5_R2</text>
</g>
<!-- 48&#45;&gt;8 -->
<g id="edge12" class="edge">
<title>48&#45;&gt;8</title>
<path fill="none" stroke="#c0c0c0" stroke-width="2" d="M2446.3824,-367.9891C2430.3014,-358.8685 2410.4337,-347.6003 2392.5012,-337.4296"/>
<polygon fill="#c0c0c0" stroke="#c0c0c0" stroke-width="2" points="2393.7554,-334.1172 2383.3303,-332.2282 2390.302,-340.2061 2393.7554,-334.1172"/>
</g>
<!-- 49&#45;&gt;7 -->
<g id="edge11" class="edge">
<title>49&#45;&gt;7</title>
<path fill="none" stroke="#c0c0c0" stroke-width="2" d="M1299.1385,-439.8314C1299.1385,-432.131 1299.1385,-422.9743 1299.1385,-414.4166"/>
<polygon fill="#c0c0c0" stroke="#c0c0c0" stroke-width="2" points="1302.6386,-414.4132 1299.1385,-404.4133 1295.6386,-414.4133 1302.6386,-414.4132"/>
</g>
<!-- 50&#45;&gt;33 -->
<g id="edge47" class="edge">
<title>50&#45;&gt;33</title>
<path fill="none" stroke="#c0c0c0" stroke-width="2" d="M1135.1204,-143.8314C1147.4313,-134.8779 1162.4492,-123.9558 1175.7322,-114.2955"/>
<polygon fill="#c0c0c0" stroke="#c0c0c0" stroke-width="2" points="1178.1358,-116.8752 1184.1646,-108.1628 1174.0186,-111.214 1178.1358,-116.8752"/>
</g>
<!-- 51 -->
<g id="node52" class="node">
<title>51</title>
<path fill="none" stroke="#5682d8" stroke-width="2" d="M2122.4158,-404C2122.4158,-404 2029.8612,-404 2029.8612,-404 2023.8612,-404 2017.8612,-398 2017.8612,-392 2017.8612,-392 2017.8612,-380 2017.8612,-380 2017.8612,-374 2023.8612,-368 2029.8612,-368 2029.8612,-368 2122.4158,-368 2122.4158,-368 2128.4158,-368 2134.4158,-374 2134.4158,-380 2134.4158,-380 2134.4158,-392 2134.4158,-392 2134.4158,-398 2128.4158,-404 2122.4158,-404"/>
<text text-anchor="middle" x="2076.1385" y="-389" font-family="sans" font-size="10.00" fill="#000000">download_rnaseq</text>
<text text-anchor="middle" x="2076.1385" y="-377" font-family="sans" font-size="10.00" fill="#000000">sample: CastB6F1_2_R1</text>
</g>
<!-- 51&#45;&gt;36 -->
<g id="edge59" class="edge">
<title>51&#45;&gt;36</title>
<path fill="none" stroke="#c0c0c0" stroke-width="2" d="M2076.1385,-367.9891C2076.1385,-360.291 2076.1385,-351.0629 2076.1385,-342.2561"/>
<polygon fill="#c0c0c0" stroke="#c0c0c0" stroke-width="2" points="2079.6386,-342.2282 2076.1385,-332.2282 2072.6386,-342.2282 2079.6386,-342.2282"/>
</g>
</g>
</svg>
