<?xml version="1.0" encoding="UTF-8" standalone="no"?>
<!DOCTYPE svg PUBLIC "-//W3C//DTD SVG 1.1//EN"
 "http://www.w3.org/Graphics/SVG/1.1/DTD/svg11.dtd">
<!-- Generated by graphviz version 2.40.1 (20161225.0304)
 -->
<!-- Title: snakemake_dag Pages: 1 -->
<svg width="3111pt" height="700pt"
 viewBox="0.00 0.00 3111.38 700.00" xmlns="http://www.w3.org/2000/svg" xmlns:xlink="http://www.w3.org/1999/xlink">
<g id="graph0" class="graph" transform="scale(1 1) rotate(0) translate(4 696)">
<title>snakemake_dag</title>
<polygon fill="#ffffff" stroke="transparent" points="-4,4 -4,-696 3107.377,-696 3107.377,4 -4,4"/>
<!-- 0 -->
<g id="node1" class="node">
<title>0</title>
<path fill="none" stroke="#d8c356" stroke-width="2" d="M1628.4991,-36C1628.4991,-36 1572.8779,-36 1572.8779,-36 1566.8779,-36 1560.8779,-30 1560.8779,-24 1560.8779,-24 1560.8779,-12 1560.8779,-12 1560.8779,-6 1566.8779,0 1572.8779,0 1572.8779,0 1628.4991,0 1628.4991,0 1634.4991,0 1640.4991,-6 1640.4991,-12 1640.4991,-12 1640.4991,-24 1640.4991,-24 1640.4991,-30 1634.4991,-36 1628.4991,-36"/>
<text text-anchor="middle" x="1600.6885" y="-15" font-family="sans" font-size="10.00" fill="#000000">rnaseq_analysis</text>
</g>
<!-- 1 -->
<g id="node2" class="node">
<title>1</title>
<path fill="none" stroke="#d86e56" stroke-width="2" d="M1649.2174,-108C1649.2174,-108 1552.1596,-108 1552.1596,-108 1546.1596,-108 1540.1596,-102 1540.1596,-96 1540.1596,-96 1540.1596,-84 1540.1596,-84 1540.1596,-78 1546.1596,-72 1552.1596,-72 1552.1596,-72 1649.2174,-72 1649.2174,-72 1655.2174,-72 1661.2174,-78 1661.2174,-84 1661.2174,-84 1661.2174,-96 1661.2174,-96 1661.2174,-102 1655.2174,-108 1649.2174,-108"/>
<text text-anchor="middle" x="1600.6885" y="-87" font-family="sans" font-size="10.00" fill="#000000">rnaseq_analysis_notebook</text>
</g>
<!-- 1&#45;&gt;0 -->
<g id="edge1" class="edge">
<title>1&#45;&gt;0</title>
<path fill="none" stroke="#c0c0c0" stroke-width="2" d="M1600.6885,-71.8314C1600.6885,-64.131 1600.6885,-54.9743 1600.6885,-46.4166"/>
<polygon fill="#c0c0c0" stroke="#c0c0c0" stroke-width="2" points="1604.1886,-46.4132 1600.6885,-36.4133 1597.1886,-46.4133 1604.1886,-46.4132"/>
</g>
<!-- 2 -->
<g id="node3" class="node">
<title>2</title>
<path fill="none" stroke="#d89556" stroke-width="2" d="M1728.1895,-180C1728.1895,-180 1671.1875,-180 1671.1875,-180 1665.1875,-180 1659.1875,-174 1659.1875,-168 1659.1875,-168 1659.1875,-156 1659.1875,-156 1659.1875,-150 1665.1875,-144 1671.1875,-144 1671.1875,-144 1728.1895,-144 1728.1895,-144 1734.1895,-144 1740.1895,-150 1740.1895,-156 1740.1895,-156 1740.1895,-168 1740.1895,-168 1740.1895,-174 1734.1895,-180 1728.1895,-180"/>
<text text-anchor="middle" x="1699.6885" y="-159" font-family="sans" font-size="10.00" fill="#000000">snp_split_hisat2</text>
</g>
<!-- 2&#45;&gt;1 -->
<g id="edge2" class="edge">
<title>2&#45;&gt;1</title>
<path fill="none" stroke="#c0c0c0" stroke-width="2" d="M1674.7066,-143.8314C1662.3957,-134.8779 1647.3778,-123.9558 1634.0948,-114.2955"/>
<polygon fill="#c0c0c0" stroke="#c0c0c0" stroke-width="2" points="1635.8084,-111.214 1625.6624,-108.1628 1631.6912,-116.8752 1635.8084,-111.214"/>
</g>
<!-- 3 -->
<g id="node4" class="node">
<title>3</title>
<path fill="none" stroke="#d89556" stroke-width="2" d="M1320.1895,-180C1320.1895,-180 1263.1875,-180 1263.1875,-180 1257.1875,-180 1251.1875,-174 1251.1875,-168 1251.1875,-168 1251.1875,-156 1251.1875,-156 1251.1875,-150 1257.1875,-144 1263.1875,-144 1263.1875,-144 1320.1895,-144 1320.1895,-144 1326.1895,-144 1332.1895,-150 1332.1895,-156 1332.1895,-156 1332.1895,-168 1332.1895,-168 1332.1895,-174 1326.1895,-180 1320.1895,-180"/>
<text text-anchor="middle" x="1291.6885" y="-159" font-family="sans" font-size="10.00" fill="#000000">snp_split_hisat2</text>
</g>
<!-- 3&#45;&gt;1 -->
<g id="edge3" class="edge">
<title>3&#45;&gt;1</title>
<path fill="none" stroke="#c0c0c0" stroke-width="2" d="M1332.4469,-146.5173C1335.2216,-145.6212 1337.9872,-144.7721 1340.6885,-144 1403.8818,-125.937 1477.3234,-111.2456 1530.0017,-101.7722"/>
<polygon fill="#c0c0c0" stroke="#c0c0c0" stroke-width="2" points="1530.6883,-105.2051 1539.9198,-100.0061 1529.4611,-98.3135 1530.6883,-105.2051"/>
</g>
<!-- 4 -->
<g id="node5" class="node">
<title>4</title>
<path fill="none" stroke="#d89556" stroke-width="2" d="M1419.1895,-180C1419.1895,-180 1362.1875,-180 1362.1875,-180 1356.1875,-180 1350.1875,-174 1350.1875,-168 1350.1875,-168 1350.1875,-156 1350.1875,-156 1350.1875,-150 1356.1875,-144 1362.1875,-144 1362.1875,-144 1419.1895,-144 1419.1895,-144 1425.1895,-144 1431.1895,-150 1431.1895,-156 1431.1895,-156 1431.1895,-168 1431.1895,-168 1431.1895,-174 1425.1895,-180 1419.1895,-180"/>
<text text-anchor="middle" x="1390.6885" y="-159" font-family="sans" font-size="10.00" fill="#000000">snp_split_hisat2</text>
</g>
<!-- 4&#45;&gt;1 -->
<g id="edge4" class="edge">
<title>4&#45;&gt;1</title>
<path fill="none" stroke="#c0c0c0" stroke-width="2" d="M1431.4276,-148.0323C1461.8457,-137.6032 1503.9547,-123.1659 1538.5618,-111.3006"/>
<polygon fill="#c0c0c0" stroke="#c0c0c0" stroke-width="2" points="1539.7835,-114.5818 1548.1078,-108.0277 1537.5132,-107.9602 1539.7835,-114.5818"/>
</g>
<!-- 5 -->
<g id="node6" class="node">
<title>5</title>
<path fill="none" stroke="#d89556" stroke-width="2" d="M1947.1895,-180C1947.1895,-180 1890.1875,-180 1890.1875,-180 1884.1875,-180 1878.1875,-174 1878.1875,-168 1878.1875,-168 1878.1875,-156 1878.1875,-156 1878.1875,-150 1884.1875,-144 1890.1875,-144 1890.1875,-144 1947.1895,-144 1947.1895,-144 1953.1895,-144 1959.1895,-150 1959.1895,-156 1959.1895,-156 1959.1895,-168 1959.1895,-168 1959.1895,-174 1953.1895,-180 1947.1895,-180"/>
<text text-anchor="middle" x="1918.6885" y="-159" font-family="sans" font-size="10.00" fill="#000000">snp_split_hisat2</text>
</g>
<!-- 5&#45;&gt;1 -->
<g id="edge5" class="edge">
<title>5&#45;&gt;1</title>
<path fill="none" stroke="#c0c0c0" stroke-width="2" d="M1877.9529,-148.8184C1872.182,-147.1088 1866.3029,-145.4506 1860.6885,-144 1797.0541,-127.5581 1723.6627,-112.6822 1671.1155,-102.7271"/>
<polygon fill="#c0c0c0" stroke="#c0c0c0" stroke-width="2" points="1671.6986,-99.2755 1661.2236,-100.8646 1670.4033,-106.1546 1671.6986,-99.2755"/>
</g>
<!-- 6 -->
<g id="node7" class="node">
<title>6</title>
<path fill="none" stroke="#d89556" stroke-width="2" d="M1530.1895,-180C1530.1895,-180 1473.1875,-180 1473.1875,-180 1467.1875,-180 1461.1875,-174 1461.1875,-168 1461.1875,-168 1461.1875,-156 1461.1875,-156 1461.1875,-150 1467.1875,-144 1473.1875,-144 1473.1875,-144 1530.1895,-144 1530.1895,-144 1536.1895,-144 1542.1895,-150 1542.1895,-156 1542.1895,-156 1542.1895,-168 1542.1895,-168 1542.1895,-174 1536.1895,-180 1530.1895,-180"/>
<text text-anchor="middle" x="1501.6885" y="-159" font-family="sans" font-size="10.00" fill="#000000">snp_split_hisat2</text>
</g>
<!-- 6&#45;&gt;1 -->
<g id="edge6" class="edge">
<title>6&#45;&gt;1</title>
<path fill="none" stroke="#c0c0c0" stroke-width="2" d="M1526.6704,-143.8314C1538.9813,-134.8779 1553.9992,-123.9558 1567.2822,-114.2955"/>
<polygon fill="#c0c0c0" stroke="#c0c0c0" stroke-width="2" points="1569.6858,-116.8752 1575.7146,-108.1628 1565.5686,-111.214 1569.6858,-116.8752"/>
</g>
<!-- 7 -->
<g id="node8" class="node">
<title>7</title>
<path fill="none" stroke="#d89556" stroke-width="2" d="M1839.1895,-180C1839.1895,-180 1782.1875,-180 1782.1875,-180 1776.1875,-180 1770.1875,-174 1770.1875,-168 1770.1875,-168 1770.1875,-156 1770.1875,-156 1770.1875,-150 1776.1875,-144 1782.1875,-144 1782.1875,-144 1839.1895,-144 1839.1895,-144 1845.1895,-144 1851.1895,-150 1851.1895,-156 1851.1895,-156 1851.1895,-168 1851.1895,-168 1851.1895,-174 1845.1895,-180 1839.1895,-180"/>
<text text-anchor="middle" x="1810.6885" y="-159" font-family="sans" font-size="10.00" fill="#000000">snp_split_hisat2</text>
</g>
<!-- 7&#45;&gt;1 -->
<g id="edge7" class="edge">
<title>7&#45;&gt;1</title>
<path fill="none" stroke="#c0c0c0" stroke-width="2" d="M1769.9494,-148.0323C1739.5313,-137.6032 1697.4223,-123.1659 1662.8152,-111.3006"/>
<polygon fill="#c0c0c0" stroke="#c0c0c0" stroke-width="2" points="1663.8638,-107.9602 1653.2692,-108.0277 1661.5935,-114.5818 1663.8638,-107.9602"/>
</g>
<!-- 8 -->
<g id="node9" class="node">
<title>8</title>
<path fill="none" stroke="#d89556" stroke-width="2" d="M1629.1895,-180C1629.1895,-180 1572.1875,-180 1572.1875,-180 1566.1875,-180 1560.1875,-174 1560.1875,-168 1560.1875,-168 1560.1875,-156 1560.1875,-156 1560.1875,-150 1566.1875,-144 1572.1875,-144 1572.1875,-144 1629.1895,-144 1629.1895,-144 1635.1895,-144 1641.1895,-150 1641.1895,-156 1641.1895,-156 1641.1895,-168 1641.1895,-168 1641.1895,-174 1635.1895,-180 1629.1895,-180"/>
<text text-anchor="middle" x="1600.6885" y="-159" font-family="sans" font-size="10.00" fill="#000000">snp_split_hisat2</text>
</g>
<!-- 8&#45;&gt;1 -->
<g id="edge8" class="edge">
<title>8&#45;&gt;1</title>
<path fill="none" stroke="#c0c0c0" stroke-width="2" d="M1600.6885,-143.8314C1600.6885,-136.131 1600.6885,-126.9743 1600.6885,-118.4166"/>
<polygon fill="#c0c0c0" stroke="#c0c0c0" stroke-width="2" points="1604.1886,-118.4132 1600.6885,-108.4133 1597.1886,-118.4133 1604.1886,-118.4132"/>
</g>
<!-- 9 -->
<g id="node10" class="node">
<title>9</title>
<path fill="none" stroke="#afd856" stroke-width="2" d="M2195.8225,-180C2195.8225,-180 1989.5545,-180 1989.5545,-180 1983.5545,-180 1977.5545,-174 1977.5545,-168 1977.5545,-168 1977.5545,-156 1977.5545,-156 1977.5545,-150 1983.5545,-144 1989.5545,-144 1989.5545,-144 2195.8225,-144 2195.8225,-144 2201.8225,-144 2207.8225,-150 2207.8225,-156 2207.8225,-156 2207.8225,-168 2207.8225,-168 2207.8225,-174 2201.8225,-180 2195.8225,-180"/>
<text text-anchor="middle" x="2092.6885" y="-165" font-family="sans" font-size="10.00" fill="#000000">gunzip_gtf</text>
<text text-anchor="middle" x="2092.6885" y="-153" font-family="sans" font-size="10.00" fill="#000000">file: ../genome_data/Mus_musculus.GRCm38_90.chr</text>
</g>
<!-- 9&#45;&gt;1 -->
<g id="edge9" class="edge">
<title>9&#45;&gt;1</title>
<path fill="none" stroke="#c0c0c0" stroke-width="2" d="M1977.3364,-145.1192C1882.5499,-131.248 1751.3079,-112.0419 1671.405,-100.3488"/>
<polygon fill="#c0c0c0" stroke="#c0c0c0" stroke-width="2" points="1671.8428,-96.8756 1661.4413,-98.8907 1670.8291,-103.8018 1671.8428,-96.8756"/>
</g>
<!-- 10 -->
<g id="node11" class="node">
<title>10</title>
<path fill="none" stroke="#d89556" stroke-width="2" d="M1182.1895,-180C1182.1895,-180 1125.1875,-180 1125.1875,-180 1119.1875,-180 1113.1875,-174 1113.1875,-168 1113.1875,-168 1113.1875,-156 1113.1875,-156 1113.1875,-150 1119.1875,-144 1125.1875,-144 1125.1875,-144 1182.1895,-144 1182.1895,-144 1188.1895,-144 1194.1895,-150 1194.1895,-156 1194.1895,-156 1194.1895,-168 1194.1895,-168 1194.1895,-174 1188.1895,-180 1182.1895,-180"/>
<text text-anchor="middle" x="1153.6885" y="-159" font-family="sans" font-size="10.00" fill="#000000">snp_split_hisat2</text>
</g>
<!-- 10&#45;&gt;1 -->
<g id="edge10" class="edge">
<title>10&#45;&gt;1</title>
<path fill="none" stroke="#c0c0c0" stroke-width="2" d="M1194.3485,-153.2194C1209.2116,-150.1324 1226.1805,-146.7504 1241.6885,-144 1341.4124,-126.3134 1457.3922,-109.5541 1529.9279,-99.5266"/>
<polygon fill="#c0c0c0" stroke="#c0c0c0" stroke-width="2" points="1530.4398,-102.9893 1539.8684,-98.157 1529.4843,-96.0548 1530.4398,-102.9893"/>
</g>
<!-- 11 -->
<g id="node12" class="node">
<title>11</title>
<path fill="none" stroke="#56d85b" stroke-width="2" d="M1602.0566,-400C1602.0566,-400 1501.3204,-400 1501.3204,-400 1495.3204,-400 1489.3204,-394 1489.3204,-388 1489.3204,-388 1489.3204,-376 1489.3204,-376 1489.3204,-370 1495.3204,-364 1501.3204,-364 1501.3204,-364 1602.0566,-364 1602.0566,-364 1608.0566,-364 1614.0566,-370 1614.0566,-376 1614.0566,-376 1614.0566,-388 1614.0566,-388 1614.0566,-394 1608.0566,-400 1602.0566,-400"/>
<text text-anchor="middle" x="1551.6885" y="-379" font-family="sans" font-size="10.00" fill="#000000">clean_up_snpsplit_genome</text>
</g>
<!-- 11&#45;&gt;2 -->
<g id="edge11" class="edge">
<title>11&#45;&gt;2</title>
<path fill="none" stroke="#c0c0c0" stroke-width="2" d="M1614.1751,-365.5825C1636.1855,-356.7505 1659.0626,-343.5185 1673.6885,-324 1703.1003,-284.7495 1704.7093,-225.0104 1702.6104,-190.1013"/>
<polygon fill="#c0c0c0" stroke="#c0c0c0" stroke-width="2" points="1706.0997,-189.8271 1701.8666,-180.1147 1699.1191,-190.3471 1706.0997,-189.8271"/>
</g>
<!-- 11&#45;&gt;3 -->
<g id="edge13" class="edge">
<title>11&#45;&gt;3</title>
<path fill="none" stroke="#c0c0c0" stroke-width="2" d="M1489.1736,-371.1819C1436.1344,-360.83 1365.4412,-343.879 1344.6885,-324 1307.6022,-288.475 1296.4415,-226.6653 1293.0994,-190.535"/>
<polygon fill="#c0c0c0" stroke="#c0c0c0" stroke-width="2" points="1296.5606,-189.9014 1292.2931,-180.2041 1289.5819,-190.4461 1296.5606,-189.9014"/>
</g>
<!-- 11&#45;&gt;4 -->
<g id="edge15" class="edge">
<title>11&#45;&gt;4</title>
<path fill="none" stroke="#c0c0c0" stroke-width="2" d="M1489.2987,-374.8935C1452.3669,-367.6856 1407.021,-353.1797 1376.6885,-324 1341.0318,-289.6984 1333.904,-262.8919 1349.6885,-216 1353.0682,-205.9596 1359.139,-196.3047 1365.591,-188.0052"/>
<polygon fill="#c0c0c0" stroke="#c0c0c0" stroke-width="2" points="1368.3837,-190.1208 1372.0845,-180.1933 1363.0006,-185.6461 1368.3837,-190.1208"/>
</g>
<!-- 11&#45;&gt;5 -->
<g id="edge17" class="edge">
<title>11&#45;&gt;5</title>
<path fill="none" stroke="#c0c0c0" stroke-width="2" d="M1614.106,-375.0445C1689.9031,-365.7268 1812.4882,-347.5953 1851.6885,-324 1886.8942,-302.8091 1894.1081,-290.023 1909.6885,-252 1917.7018,-232.4442 1919.7769,-208.5754 1919.9429,-190.3336"/>
<polygon fill="#c0c0c0" stroke="#c0c0c0" stroke-width="2" points="1923.4427,-190.2857 1919.8504,-180.3185 1916.443,-190.3504 1923.4427,-190.2857"/>
</g>
<!-- 11&#45;&gt;6 -->
<g id="edge20" class="edge">
<title>11&#45;&gt;6</title>
<path fill="none" stroke="#c0c0c0" stroke-width="2" d="M1500.8659,-363.972C1482.9973,-354.8976 1464.8528,-341.9203 1454.6885,-324 1429.7546,-280.0398 1459.7977,-221.7278 1482.0254,-188.3921"/>
<polygon fill="#c0c0c0" stroke="#c0c0c0" stroke-width="2" points="1484.9599,-190.3019 1487.7523,-180.0817 1479.196,-186.3298 1484.9599,-190.3019"/>
</g>
<!-- 11&#45;&gt;7 -->
<g id="edge21" class="edge">
<title>11&#45;&gt;7</title>
<path fill="none" stroke="#c0c0c0" stroke-width="2" d="M1614.1928,-371.9685C1669.7752,-361.873 1745.5756,-344.8365 1767.6885,-324 1804.5385,-289.277 1811.1605,-226.9156 1811.6218,-190.5279"/>
<polygon fill="#c0c0c0" stroke="#c0c0c0" stroke-width="2" points="1815.1209,-190.119 1811.5939,-180.1284 1808.1209,-190.1378 1815.1209,-190.119"/>
</g>
<!-- 11&#45;&gt;8 -->
<g id="edge23" class="edge">
<title>11&#45;&gt;8</title>
<path fill="none" stroke="#c0c0c0" stroke-width="2" d="M1607.9945,-363.8939C1626.513,-354.9575 1645.0618,-342.0939 1655.6885,-324 1681.6471,-279.8005 1647.6116,-221.5719 1622.6729,-188.3158"/>
<polygon fill="#c0c0c0" stroke="#c0c0c0" stroke-width="2" points="1625.1441,-185.7905 1616.2544,-180.0265 1619.6093,-190.0761 1625.1441,-185.7905"/>
</g>
<!-- 11&#45;&gt;10 -->
<g id="edge26" class="edge">
<title>11&#45;&gt;10</title>
<path fill="none" stroke="#c0c0c0" stroke-width="2" d="M1489.1319,-373.9338C1394.0194,-361.3508 1221.3253,-337.1341 1195.6885,-324 1175.5501,-313.6828 1176.6293,-303.0003 1159.6885,-288 1140.2519,-270.7897 1125.0595,-275.3383 1113.6885,-252 1103.2971,-230.6723 1115.9201,-206.0255 1129.6627,-187.9226"/>
<polygon fill="#c0c0c0" stroke="#c0c0c0" stroke-width="2" points="1132.4188,-190.0804 1135.977,-180.1009 1126.9722,-185.6834 1132.4188,-190.0804"/>
</g>
<!-- 12 -->
<g id="node13" class="node">
<title>12</title>
<path fill="none" stroke="#78d856" stroke-width="2" d="M1770.7926,-252C1770.7926,-252 1732.5844,-252 1732.5844,-252 1726.5844,-252 1720.5844,-246 1720.5844,-240 1720.5844,-240 1720.5844,-228 1720.5844,-228 1720.5844,-222 1726.5844,-216 1732.5844,-216 1732.5844,-216 1770.7926,-216 1770.7926,-216 1776.7926,-216 1782.7926,-222 1782.7926,-228 1782.7926,-228 1782.7926,-240 1782.7926,-240 1782.7926,-246 1776.7926,-252 1770.7926,-252"/>
<text text-anchor="middle" x="1751.6885" y="-231" font-family="sans" font-size="10.00" fill="#000000">map_hisat2</text>
</g>
<!-- 11&#45;&gt;12 -->
<g id="edge29" class="edge">
<title>11&#45;&gt;12</title>
<path fill="none" stroke="#c0c0c0" stroke-width="2" d="M1614.0919,-371.7648C1665.3224,-361.9624 1732.0444,-345.4946 1748.6885,-324 1762.014,-306.7911 1761.7333,-281.6824 1758.7042,-262.3556"/>
<polygon fill="#c0c0c0" stroke="#c0c0c0" stroke-width="2" points="1762.1005,-261.4782 1756.8076,-252.3002 1755.2218,-262.7757 1762.1005,-261.4782"/>
</g>
<!-- 13 -->
<g id="node14" class="node">
<title>13</title>
<path fill="none" stroke="#78d856" stroke-width="2" d="M1252.7926,-252C1252.7926,-252 1214.5844,-252 1214.5844,-252 1208.5844,-252 1202.5844,-246 1202.5844,-240 1202.5844,-240 1202.5844,-228 1202.5844,-228 1202.5844,-222 1208.5844,-216 1214.5844,-216 1214.5844,-216 1252.7926,-216 1252.7926,-216 1258.7926,-216 1264.7926,-222 1264.7926,-228 1264.7926,-228 1264.7926,-240 1264.7926,-240 1264.7926,-246 1258.7926,-252 1252.7926,-252"/>
<text text-anchor="middle" x="1233.6885" y="-231" font-family="sans" font-size="10.00" fill="#000000">map_hisat2</text>
</g>
<!-- 11&#45;&gt;13 -->
<g id="edge32" class="edge">
<title>11&#45;&gt;13</title>
<path fill="none" stroke="#c0c0c0" stroke-width="2" d="M1489.1287,-375.0565C1419.036,-366.1982 1310.9816,-348.9722 1278.6885,-324 1258.8275,-308.6415 1247.0837,-282.1622 1240.6028,-261.889"/>
<polygon fill="#c0c0c0" stroke="#c0c0c0" stroke-width="2" points="1243.9398,-260.8307 1237.7549,-252.2286 1237.2255,-262.8102 1243.9398,-260.8307"/>
</g>
<!-- 14 -->
<g id="node15" class="node">
<title>14</title>
<path fill="none" stroke="#78d856" stroke-width="2" d="M1408.7926,-252C1408.7926,-252 1370.5844,-252 1370.5844,-252 1364.5844,-252 1358.5844,-246 1358.5844,-240 1358.5844,-240 1358.5844,-228 1358.5844,-228 1358.5844,-222 1364.5844,-216 1370.5844,-216 1370.5844,-216 1408.7926,-216 1408.7926,-216 1414.7926,-216 1420.7926,-222 1420.7926,-228 1420.7926,-228 1420.7926,-240 1420.7926,-240 1420.7926,-246 1414.7926,-252 1408.7926,-252"/>
<text text-anchor="middle" x="1389.6885" y="-231" font-family="sans" font-size="10.00" fill="#000000">map_hisat2</text>
</g>
<!-- 11&#45;&gt;14 -->
<g id="edge35" class="edge">
<title>11&#45;&gt;14</title>
<path fill="none" stroke="#c0c0c0" stroke-width="2" d="M1489.0697,-366.855C1449.8607,-355.9878 1404.5867,-340.4161 1392.6885,-324 1379.9156,-306.377 1380.1479,-281.3047 1383.0178,-262.0971"/>
<polygon fill="#c0c0c0" stroke="#c0c0c0" stroke-width="2" points="1386.4877,-262.5766 1384.8177,-252.1142 1379.5988,-261.3345 1386.4877,-262.5766"/>
</g>
<!-- 15 -->
<g id="node16" class="node">
<title>15</title>
<path fill="none" stroke="#78d856" stroke-width="2" d="M2006.7926,-252C2006.7926,-252 1968.5844,-252 1968.5844,-252 1962.5844,-252 1956.5844,-246 1956.5844,-240 1956.5844,-240 1956.5844,-228 1956.5844,-228 1956.5844,-222 1962.5844,-216 1968.5844,-216 1968.5844,-216 2006.7926,-216 2006.7926,-216 2012.7926,-216 2018.7926,-222 2018.7926,-228 2018.7926,-228 2018.7926,-240 2018.7926,-240 2018.7926,-246 2012.7926,-252 2006.7926,-252"/>
<text text-anchor="middle" x="1987.6885" y="-231" font-family="sans" font-size="10.00" fill="#000000">map_hisat2</text>
</g>
<!-- 11&#45;&gt;15 -->
<g id="edge38" class="edge">
<title>11&#45;&gt;15</title>
<path fill="none" stroke="#c0c0c0" stroke-width="2" d="M1614.1875,-373.7796C1707.7018,-361.1541 1875.7755,-337.0815 1900.6885,-324 1915.9007,-316.0123 1945.513,-283.5551 1965.9324,-259.9043"/>
<polygon fill="#c0c0c0" stroke="#c0c0c0" stroke-width="2" points="1968.6247,-262.1414 1972.4708,-252.2693 1963.3078,-257.5883 1968.6247,-262.1414"/>
</g>
<!-- 16 -->
<g id="node17" class="node">
<title>16</title>
<path fill="none" stroke="#78d856" stroke-width="2" d="M1526.7926,-252C1526.7926,-252 1488.5844,-252 1488.5844,-252 1482.5844,-252 1476.5844,-246 1476.5844,-240 1476.5844,-240 1476.5844,-228 1476.5844,-228 1476.5844,-222 1482.5844,-216 1488.5844,-216 1488.5844,-216 1526.7926,-216 1526.7926,-216 1532.7926,-216 1538.7926,-222 1538.7926,-228 1538.7926,-228 1538.7926,-240 1538.7926,-240 1538.7926,-246 1532.7926,-252 1526.7926,-252"/>
<text text-anchor="middle" x="1507.6885" y="-231" font-family="sans" font-size="10.00" fill="#000000">map_hisat2</text>
</g>
<!-- 11&#45;&gt;16 -->
<g id="edge41" class="edge">
<title>11&#45;&gt;16</title>
<path fill="none" stroke="#c0c0c0" stroke-width="2" d="M1507.3185,-363.9601C1490.503,-354.681 1473.1457,-341.5597 1463.6885,-324 1452.2457,-302.7536 1466.132,-278.1 1481.2524,-259.9737"/>
<polygon fill="#c0c0c0" stroke="#c0c0c0" stroke-width="2" points="1484.1829,-261.9443 1488.1999,-252.1405 1478.9459,-257.2995 1484.1829,-261.9443"/>
</g>
<!-- 17 -->
<g id="node18" class="node">
<title>17</title>
<path fill="none" stroke="#78d856" stroke-width="2" d="M1888.7926,-252C1888.7926,-252 1850.5844,-252 1850.5844,-252 1844.5844,-252 1838.5844,-246 1838.5844,-240 1838.5844,-240 1838.5844,-228 1838.5844,-228 1838.5844,-222 1844.5844,-216 1850.5844,-216 1850.5844,-216 1888.7926,-216 1888.7926,-216 1894.7926,-216 1900.7926,-222 1900.7926,-228 1900.7926,-228 1900.7926,-240 1900.7926,-240 1900.7926,-246 1894.7926,-252 1888.7926,-252"/>
<text text-anchor="middle" x="1869.6885" y="-231" font-family="sans" font-size="10.00" fill="#000000">map_hisat2</text>
</g>
<!-- 11&#45;&gt;17 -->
<g id="edge44" class="edge">
<title>11&#45;&gt;17</title>
<path fill="none" stroke="#c0c0c0" stroke-width="2" d="M1614.2483,-375.0565C1684.341,-366.1982 1792.3954,-348.9722 1824.6885,-324 1844.5495,-308.6415 1856.2933,-282.1622 1862.7742,-261.889"/>
<polygon fill="#c0c0c0" stroke="#c0c0c0" stroke-width="2" points="1866.1515,-262.8102 1865.6221,-252.2286 1859.4372,-260.8307 1866.1515,-262.8102"/>
</g>
<!-- 18 -->
<g id="node19" class="node">
<title>18</title>
<path fill="none" stroke="#78d856" stroke-width="2" d="M1614.7926,-252C1614.7926,-252 1576.5844,-252 1576.5844,-252 1570.5844,-252 1564.5844,-246 1564.5844,-240 1564.5844,-240 1564.5844,-228 1564.5844,-228 1564.5844,-222 1570.5844,-216 1576.5844,-216 1576.5844,-216 1614.7926,-216 1614.7926,-216 1620.7926,-216 1626.7926,-222 1626.7926,-228 1626.7926,-228 1626.7926,-240 1626.7926,-240 1626.7926,-246 1620.7926,-252 1614.7926,-252"/>
<text text-anchor="middle" x="1595.6885" y="-231" font-family="sans" font-size="10.00" fill="#000000">map_hisat2</text>
</g>
<!-- 11&#45;&gt;18 -->
<g id="edge47" class="edge">
<title>11&#45;&gt;18</title>
<path fill="none" stroke="#c0c0c0" stroke-width="2" d="M1596.0585,-363.9601C1612.874,-354.681 1630.2313,-341.5597 1639.6885,-324 1651.1313,-302.7536 1637.245,-278.1 1622.1246,-259.9737"/>
<polygon fill="#c0c0c0" stroke="#c0c0c0" stroke-width="2" points="1624.4311,-257.2995 1615.1771,-252.1405 1619.1941,-261.9443 1624.4311,-257.2995"/>
</g>
<!-- 20 -->
<g id="node21" class="node">
<title>20</title>
<path fill="none" stroke="#78d856" stroke-width="2" d="M1172.7926,-252C1172.7926,-252 1134.5844,-252 1134.5844,-252 1128.5844,-252 1122.5844,-246 1122.5844,-240 1122.5844,-240 1122.5844,-228 1122.5844,-228 1122.5844,-222 1128.5844,-216 1134.5844,-216 1134.5844,-216 1172.7926,-216 1172.7926,-216 1178.7926,-216 1184.7926,-222 1184.7926,-228 1184.7926,-228 1184.7926,-240 1184.7926,-240 1184.7926,-246 1178.7926,-252 1172.7926,-252"/>
<text text-anchor="middle" x="1153.6885" y="-231" font-family="sans" font-size="10.00" fill="#000000">map_hisat2</text>
</g>
<!-- 11&#45;&gt;20 -->
<g id="edge50" class="edge">
<title>11&#45;&gt;20</title>
<path fill="none" stroke="#c0c0c0" stroke-width="2" d="M1489.238,-374.3364C1412.9457,-364.2446 1288.9365,-345.2698 1247.6885,-324 1217.7287,-308.5511 1190.7627,-280.5408 1173.4768,-259.8578"/>
<polygon fill="#c0c0c0" stroke="#c0c0c0" stroke-width="2" points="1176.1498,-257.5975 1167.1203,-252.055 1170.7227,-262.0187 1176.1498,-257.5975"/>
</g>
<!-- 22 -->
<g id="node23" class="node">
<title>22</title>
<path fill="none" stroke="#d8d356" stroke-width="2" d="M1618.3309,-324C1618.3309,-324 1485.0461,-324 1485.0461,-324 1479.0461,-324 1473.0461,-318 1473.0461,-312 1473.0461,-312 1473.0461,-300 1473.0461,-300 1473.0461,-294 1479.0461,-288 1485.0461,-288 1485.0461,-288 1618.3309,-288 1618.3309,-288 1624.3309,-288 1630.3309,-294 1630.3309,-300 1630.3309,-300 1630.3309,-312 1630.3309,-312 1630.3309,-318 1624.3309,-324 1618.3309,-324"/>
<text text-anchor="middle" x="1551.6885" y="-309" font-family="sans" font-size="10.00" fill="#000000">build_hisat2</text>
<text text-anchor="middle" x="1551.6885" y="-297" font-family="sans" font-size="10.00" fill="#000000">genome: GRCm38.Cast_N&#45;masked</text>
</g>
<!-- 11&#45;&gt;22 -->
<g id="edge55" class="edge">
<title>11&#45;&gt;22</title>
<path fill="none" stroke="#c0c0c0" stroke-width="2" d="M1551.6885,-363.9891C1551.6885,-355.1566 1551.6885,-344.3099 1551.6885,-334.3965"/>
<polygon fill="#c0c0c0" stroke="#c0c0c0" stroke-width="2" points="1555.1886,-334.145 1551.6885,-324.145 1548.1886,-334.1451 1555.1886,-334.145"/>
</g>
<!-- 12&#45;&gt;2 -->
<g id="edge12" class="edge">
<title>12&#45;&gt;2</title>
<path fill="none" stroke="#c0c0c0" stroke-width="2" d="M1738.5667,-215.8314C1732.6386,-207.6232 1725.5156,-197.7606 1718.9952,-188.7323"/>
<polygon fill="#c0c0c0" stroke="#c0c0c0" stroke-width="2" points="1721.6793,-186.4708 1712.987,-180.4133 1716.0045,-190.5693 1721.6793,-186.4708"/>
</g>
<!-- 13&#45;&gt;3 -->
<g id="edge14" class="edge">
<title>13&#45;&gt;3</title>
<path fill="none" stroke="#c0c0c0" stroke-width="2" d="M1248.3243,-215.8314C1255.0046,-207.5386 1263.0453,-197.557 1270.3789,-188.4533"/>
<polygon fill="#c0c0c0" stroke="#c0c0c0" stroke-width="2" points="1273.3079,-190.3965 1276.8556,-180.4133 1267.8566,-186.0052 1273.3079,-190.3965"/>
</g>
<!-- 14&#45;&gt;4 -->
<g id="edge16" class="edge">
<title>14&#45;&gt;4</title>
<path fill="none" stroke="#c0c0c0" stroke-width="2" d="M1389.9408,-215.8314C1390.0478,-208.131 1390.175,-198.9743 1390.2938,-190.4166"/>
<polygon fill="#c0c0c0" stroke="#c0c0c0" stroke-width="2" points="1393.7934,-190.4609 1390.4328,-180.4133 1386.7941,-190.3637 1393.7934,-190.4609"/>
</g>
<!-- 15&#45;&gt;5 -->
<g id="edge18" class="edge">
<title>15&#45;&gt;5</title>
<path fill="none" stroke="#c0c0c0" stroke-width="2" d="M1970.2769,-215.8314C1962.1675,-207.3694 1952.3729,-197.1489 1943.5065,-187.8971"/>
<polygon fill="#c0c0c0" stroke="#c0c0c0" stroke-width="2" points="1945.7806,-185.2115 1936.3345,-180.4133 1940.7267,-190.0549 1945.7806,-185.2115"/>
</g>
<!-- 16&#45;&gt;6 -->
<g id="edge19" class="edge">
<title>16&#45;&gt;6</title>
<path fill="none" stroke="#c0c0c0" stroke-width="2" d="M1506.1744,-215.8314C1505.5327,-208.131 1504.7697,-198.9743 1504.0566,-190.4166"/>
<polygon fill="#c0c0c0" stroke="#c0c0c0" stroke-width="2" points="1507.5414,-190.088 1503.2229,-180.4133 1500.5656,-190.6694 1507.5414,-190.088"/>
</g>
<!-- 17&#45;&gt;7 -->
<g id="edge22" class="edge">
<title>17&#45;&gt;7</title>
<path fill="none" stroke="#c0c0c0" stroke-width="2" d="M1854.8003,-215.8314C1847.9355,-207.454 1839.6584,-197.3531 1832.1374,-188.1749"/>
<polygon fill="#c0c0c0" stroke="#c0c0c0" stroke-width="2" points="1834.8226,-185.9297 1825.7771,-180.4133 1829.4082,-190.3665 1834.8226,-185.9297"/>
</g>
<!-- 18&#45;&gt;8 -->
<g id="edge24" class="edge">
<title>18&#45;&gt;8</title>
<path fill="none" stroke="#c0c0c0" stroke-width="2" d="M1596.9502,-215.8314C1597.485,-208.131 1598.1208,-198.9743 1598.7151,-190.4166"/>
<polygon fill="#c0c0c0" stroke="#c0c0c0" stroke-width="2" points="1602.2085,-190.6317 1599.4098,-180.4133 1595.2253,-190.1467 1602.2085,-190.6317"/>
</g>
<!-- 19 -->
<g id="node20" class="node">
<title>19</title>
<path fill="none" stroke="#568ad8" stroke-width="2" d="M2116.2349,-252C2116.2349,-252 2069.1421,-252 2069.1421,-252 2063.1421,-252 2057.1421,-246 2057.1421,-240 2057.1421,-240 2057.1421,-228 2057.1421,-228 2057.1421,-222 2063.1421,-216 2069.1421,-216 2069.1421,-216 2116.2349,-216 2116.2349,-216 2122.2349,-216 2128.2349,-222 2128.2349,-228 2128.2349,-228 2128.2349,-240 2128.2349,-240 2128.2349,-246 2122.2349,-252 2116.2349,-252"/>
<text text-anchor="middle" x="2092.6885" y="-231" font-family="sans" font-size="10.00" fill="#000000">download_gtf</text>
</g>
<!-- 19&#45;&gt;9 -->
<g id="edge25" class="edge">
<title>19&#45;&gt;9</title>
<path fill="none" stroke="#c0c0c0" stroke-width="2" d="M2092.6885,-215.8314C2092.6885,-208.131 2092.6885,-198.9743 2092.6885,-190.4166"/>
<polygon fill="#c0c0c0" stroke="#c0c0c0" stroke-width="2" points="2096.1886,-190.4132 2092.6885,-180.4133 2089.1886,-190.4133 2096.1886,-190.4132"/>
</g>
<!-- 20&#45;&gt;10 -->
<g id="edge27" class="edge">
<title>20&#45;&gt;10</title>
<path fill="none" stroke="#c0c0c0" stroke-width="2" d="M1153.6885,-215.8314C1153.6885,-208.131 1153.6885,-198.9743 1153.6885,-190.4166"/>
<polygon fill="#c0c0c0" stroke="#c0c0c0" stroke-width="2" points="1157.1886,-190.4132 1153.6885,-180.4133 1150.1886,-190.4133 1157.1886,-190.4132"/>
</g>
<!-- 21 -->
<g id="node22" class="node">
<title>21</title>
<path fill="none" stroke="#5663d8" stroke-width="2" d="M1598.9358,-476C1598.9358,-476 1504.4412,-476 1504.4412,-476 1498.4412,-476 1492.4412,-470 1492.4412,-464 1492.4412,-464 1492.4412,-452 1492.4412,-452 1492.4412,-446 1498.4412,-440 1504.4412,-440 1504.4412,-440 1598.9358,-440 1598.9358,-440 1604.9358,-440 1610.9358,-446 1610.9358,-452 1610.9358,-452 1610.9358,-464 1610.9358,-464 1610.9358,-470 1604.9358,-476 1598.9358,-476"/>
<text text-anchor="middle" x="1551.6885" y="-455" font-family="sans" font-size="10.00" fill="#000000">snpsplit_prepare_genome</text>
</g>
<!-- 21&#45;&gt;11 -->
<g id="edge28" class="edge">
<title>21&#45;&gt;11</title>
<path fill="none" stroke="#c0c0c0" stroke-width="2" d="M1551.6885,-439.9891C1551.6885,-431.1566 1551.6885,-420.3099 1551.6885,-410.3965"/>
<polygon fill="#c0c0c0" stroke="#c0c0c0" stroke-width="2" points="1555.1886,-410.145 1551.6885,-400.145 1548.1886,-410.1451 1555.1886,-410.145"/>
</g>
<!-- 22&#45;&gt;12 -->
<g id="edge30" class="edge">
<title>22&#45;&gt;12</title>
<path fill="none" stroke="#c0c0c0" stroke-width="2" d="M1601.8988,-287.9243C1635.5191,-275.821 1679.22,-260.0887 1710.733,-248.744"/>
<polygon fill="#c0c0c0" stroke="#c0c0c0" stroke-width="2" points="1712.2847,-251.9053 1720.508,-245.225 1709.9136,-245.3191 1712.2847,-251.9053"/>
</g>
<!-- 22&#45;&gt;13 -->
<g id="edge33" class="edge">
<title>22&#45;&gt;13</title>
<path fill="none" stroke="#c0c0c0" stroke-width="2" d="M1472.6732,-288.1097C1409.8607,-273.888 1324.5295,-254.5678 1274.6567,-243.2758"/>
<polygon fill="#c0c0c0" stroke="#c0c0c0" stroke-width="2" points="1275.3989,-239.8553 1264.8729,-241.0606 1273.8531,-246.6825 1275.3989,-239.8553"/>
</g>
<!-- 22&#45;&gt;14 -->
<g id="edge36" class="edge">
<title>22&#45;&gt;14</title>
<path fill="none" stroke="#c0c0c0" stroke-width="2" d="M1510.8091,-287.8314C1486.15,-276.8718 1454.8541,-262.9625 1430.2521,-252.0282"/>
<polygon fill="#c0c0c0" stroke="#c0c0c0" stroke-width="2" points="1431.3994,-248.7081 1420.8398,-247.845 1428.5564,-255.1048 1431.3994,-248.7081"/>
</g>
<!-- 22&#45;&gt;15 -->
<g id="edge39" class="edge">
<title>22&#45;&gt;15</title>
<path fill="none" stroke="#c0c0c0" stroke-width="2" d="M1630.553,-295.8831C1703.2892,-286.1314 1814.1376,-270.2034 1909.6885,-252 1921.6202,-249.7269 1934.4961,-246.9079 1946.2809,-244.1807"/>
<polygon fill="#c0c0c0" stroke="#c0c0c0" stroke-width="2" points="1947.3717,-247.5197 1956.3051,-241.8237 1945.7695,-240.7055 1947.3717,-247.5197"/>
</g>
<!-- 22&#45;&gt;16 -->
<g id="edge42" class="edge">
<title>22&#45;&gt;16</title>
<path fill="none" stroke="#c0c0c0" stroke-width="2" d="M1540.5854,-287.8314C1535.6211,-279.7079 1529.6663,-269.9637 1524.1957,-261.0118"/>
<polygon fill="#c0c0c0" stroke="#c0c0c0" stroke-width="2" points="1527.1421,-259.121 1518.9411,-252.4133 1521.1691,-262.7712 1527.1421,-259.121"/>
</g>
<!-- 22&#45;&gt;17 -->
<g id="edge45" class="edge">
<title>22&#45;&gt;17</title>
<path fill="none" stroke="#c0c0c0" stroke-width="2" d="M1630.3497,-288.4153C1677.2158,-277.91 1737.8678,-264.2648 1791.6885,-252 1803.636,-249.2774 1816.6063,-246.2949 1828.4777,-243.5546"/>
<polygon fill="#c0c0c0" stroke="#c0c0c0" stroke-width="2" points="1829.6188,-246.8833 1838.5739,-241.2215 1828.0426,-240.063 1829.6188,-246.8833"/>
</g>
<!-- 22&#45;&gt;18 -->
<g id="edge48" class="edge">
<title>22&#45;&gt;18</title>
<path fill="none" stroke="#c0c0c0" stroke-width="2" d="M1562.7916,-287.8314C1567.7559,-279.7079 1573.7107,-269.9637 1579.1813,-261.0118"/>
<polygon fill="#c0c0c0" stroke="#c0c0c0" stroke-width="2" points="1582.2079,-262.7712 1584.4359,-252.4133 1576.2349,-259.121 1582.2079,-262.7712"/>
</g>
<!-- 22&#45;&gt;20 -->
<g id="edge51" class="edge">
<title>22&#45;&gt;20</title>
<path fill="none" stroke="#c0c0c0" stroke-width="2" d="M1472.838,-300.3286C1401.6902,-293.8053 1294.4102,-280.4683 1194.4704,-251.804"/>
<polygon fill="#c0c0c0" stroke="#c0c0c0" stroke-width="2" points="1195.4036,-248.4304 1184.8231,-248.9819 1193.4382,-255.1488 1195.4036,-248.4304"/>
</g>
<!-- 23 -->
<g id="node24" class="node">
<title>23</title>
<path fill="none" stroke="#88d856" stroke-width="2" d="M2262.2973,-324C2262.2973,-324 2187.0797,-324 2187.0797,-324 2181.0797,-324 2175.0797,-318 2175.0797,-312 2175.0797,-312 2175.0797,-300 2175.0797,-300 2175.0797,-294 2181.0797,-288 2187.0797,-288 2187.0797,-288 2262.2973,-288 2262.2973,-288 2268.2973,-288 2274.2973,-294 2274.2973,-300 2274.2973,-300 2274.2973,-312 2274.2973,-312 2274.2973,-318 2268.2973,-324 2262.2973,-324"/>
<text text-anchor="middle" x="2224.6885" y="-309" font-family="sans" font-size="10.00" fill="#000000">trim_galore</text>
<text text-anchor="middle" x="2224.6885" y="-297" font-family="sans" font-size="10.00" fill="#000000">sample: B6CastF1_3</text>
</g>
<!-- 23&#45;&gt;12 -->
<g id="edge31" class="edge">
<title>23&#45;&gt;12</title>
<path fill="none" stroke="#c0c0c0" stroke-width="2" d="M2174.8847,-300.6633C2099.7523,-292.2808 1953.0825,-274.6239 1829.6885,-252 1817.7414,-249.8095 1804.8606,-247.0167 1793.076,-244.2882"/>
<polygon fill="#c0c0c0" stroke="#c0c0c0" stroke-width="2" points="1793.5897,-240.8134 1783.0532,-241.9237 1791.9823,-247.6264 1793.5897,-240.8134"/>
</g>
<!-- 24 -->
<g id="node25" class="node">
<title>24</title>
<path fill="none" stroke="#88d856" stroke-width="2" d="M617.2973,-324C617.2973,-324 542.0797,-324 542.0797,-324 536.0797,-324 530.0797,-318 530.0797,-312 530.0797,-312 530.0797,-300 530.0797,-300 530.0797,-294 536.0797,-288 542.0797,-288 542.0797,-288 617.2973,-288 617.2973,-288 623.2973,-288 629.2973,-294 629.2973,-300 629.2973,-300 629.2973,-312 629.2973,-312 629.2973,-318 623.2973,-324 617.2973,-324"/>
<text text-anchor="middle" x="579.6885" y="-309" font-family="sans" font-size="10.00" fill="#000000">trim_galore</text>
<text text-anchor="middle" x="579.6885" y="-297" font-family="sans" font-size="10.00" fill="#000000">sample: CastB6F1_5</text>
</g>
<!-- 24&#45;&gt;13 -->
<g id="edge34" class="edge">
<title>24&#45;&gt;13</title>
<path fill="none" stroke="#c0c0c0" stroke-width="2" d="M629.4051,-302.0831C762.4705,-291.5425 1121.0048,-262.7484 1192.6815,-251.1362"/>
<polygon fill="#c0c0c0" stroke="#c0c0c0" stroke-width="2" points="1193.4753,-254.5471 1202.6078,-249.1761 1192.1192,-247.6797 1193.4753,-254.5471"/>
</g>
<!-- 25 -->
<g id="node26" class="node">
<title>25</title>
<path fill="none" stroke="#88d856" stroke-width="2" d="M916.2973,-324C916.2973,-324 841.0797,-324 841.0797,-324 835.0797,-324 829.0797,-318 829.0797,-312 829.0797,-312 829.0797,-300 829.0797,-300 829.0797,-294 835.0797,-288 841.0797,-288 841.0797,-288 916.2973,-288 916.2973,-288 922.2973,-288 928.2973,-294 928.2973,-300 928.2973,-300 928.2973,-312 928.2973,-312 928.2973,-318 922.2973,-324 916.2973,-324"/>
<text text-anchor="middle" x="878.6885" y="-309" font-family="sans" font-size="10.00" fill="#000000">trim_galore</text>
<text text-anchor="middle" x="878.6885" y="-297" font-family="sans" font-size="10.00" fill="#000000">sample: B6CastF1_4</text>
</g>
<!-- 25&#45;&gt;14 -->
<g id="edge37" class="edge">
<title>25&#45;&gt;14</title>
<path fill="none" stroke="#c0c0c0" stroke-width="2" d="M928.3025,-299.5101C1003.1913,-289.6477 1149.5525,-270.115 1273.6885,-252 1298.4096,-248.3925 1326.0538,-244.1125 1348.1532,-240.6313"/>
<polygon fill="#c0c0c0" stroke="#c0c0c0" stroke-width="2" points="1348.871,-244.0614 1358.2021,-239.0433 1347.7783,-237.1472 1348.871,-244.0614"/>
</g>
<!-- 26 -->
<g id="node27" class="node">
<title>26</title>
<path fill="none" stroke="#88d856" stroke-width="2" d="M2908.2973,-324C2908.2973,-324 2833.0797,-324 2833.0797,-324 2827.0797,-324 2821.0797,-318 2821.0797,-312 2821.0797,-312 2821.0797,-300 2821.0797,-300 2821.0797,-294 2827.0797,-288 2833.0797,-288 2833.0797,-288 2908.2973,-288 2908.2973,-288 2914.2973,-288 2920.2973,-294 2920.2973,-300 2920.2973,-300 2920.2973,-312 2920.2973,-312 2920.2973,-318 2914.2973,-324 2908.2973,-324"/>
<text text-anchor="middle" x="2870.6885" y="-309" font-family="sans" font-size="10.00" fill="#000000">trim_galore</text>
<text text-anchor="middle" x="2870.6885" y="-297" font-family="sans" font-size="10.00" fill="#000000">sample: CastB6F1_2</text>
</g>
<!-- 26&#45;&gt;15 -->
<g id="edge40" class="edge">
<title>26&#45;&gt;15</title>
<path fill="none" stroke="#c0c0c0" stroke-width="2" d="M2820.84,-302.8811C2645.5206,-291.8926 2066.811,-255.4499 2047.6885,-252 2041.4375,-250.8723 2034.9158,-249.3222 2028.5721,-247.6012"/>
<polygon fill="#c0c0c0" stroke="#c0c0c0" stroke-width="2" points="2029.3927,-244.1953 2018.8147,-244.7921 2027.4561,-250.9221 2029.3927,-244.1953"/>
</g>
<!-- 27 -->
<g id="node28" class="node">
<title>27</title>
<path fill="none" stroke="#88d856" stroke-width="2" d="M1138.2973,-324C1138.2973,-324 1063.0797,-324 1063.0797,-324 1057.0797,-324 1051.0797,-318 1051.0797,-312 1051.0797,-312 1051.0797,-300 1051.0797,-300 1051.0797,-294 1057.0797,-288 1063.0797,-288 1063.0797,-288 1138.2973,-288 1138.2973,-288 1144.2973,-288 1150.2973,-294 1150.2973,-300 1150.2973,-300 1150.2973,-312 1150.2973,-312 1150.2973,-318 1144.2973,-324 1138.2973,-324"/>
<text text-anchor="middle" x="1100.6885" y="-309" font-family="sans" font-size="10.00" fill="#000000">trim_galore</text>
<text text-anchor="middle" x="1100.6885" y="-297" font-family="sans" font-size="10.00" fill="#000000">sample: B6CastF1_5</text>
</g>
<!-- 27&#45;&gt;16 -->
<g id="edge43" class="edge">
<title>27&#45;&gt;16</title>
<path fill="none" stroke="#c0c0c0" stroke-width="2" d="M1150.4732,-298.845C1215.0669,-289.3291 1331.1609,-271.4336 1429.6885,-252 1441.6052,-249.6495 1454.4763,-246.806 1466.2614,-244.08"/>
<polygon fill="#c0c0c0" stroke="#c0c0c0" stroke-width="2" points="1467.3496,-247.4199 1476.287,-241.7301 1465.7521,-240.6046 1467.3496,-247.4199"/>
</g>
<!-- 28 -->
<g id="node29" class="node">
<title>28</title>
<path fill="none" stroke="#88d856" stroke-width="2" d="M2561.2973,-324C2561.2973,-324 2486.0797,-324 2486.0797,-324 2480.0797,-324 2474.0797,-318 2474.0797,-312 2474.0797,-312 2474.0797,-300 2474.0797,-300 2474.0797,-294 2480.0797,-288 2486.0797,-288 2486.0797,-288 2561.2973,-288 2561.2973,-288 2567.2973,-288 2573.2973,-294 2573.2973,-300 2573.2973,-300 2573.2973,-312 2573.2973,-312 2573.2973,-318 2567.2973,-324 2561.2973,-324"/>
<text text-anchor="middle" x="2523.6885" y="-309" font-family="sans" font-size="10.00" fill="#000000">trim_galore</text>
<text text-anchor="middle" x="2523.6885" y="-297" font-family="sans" font-size="10.00" fill="#000000">sample: CastB6F1_4</text>
</g>
<!-- 28&#45;&gt;17 -->
<g id="edge46" class="edge">
<title>28&#45;&gt;17</title>
<path fill="none" stroke="#c0c0c0" stroke-width="2" d="M2473.6791,-302.1743C2353.0434,-292.8064 2048.5771,-268.2956 1947.6885,-252 1935.6977,-250.0632 1922.8029,-247.3509 1911.0191,-244.6183"/>
<polygon fill="#c0c0c0" stroke="#c0c0c0" stroke-width="2" points="1911.5392,-241.1443 1901.0002,-242.2307 1909.9164,-247.9536 1911.5392,-241.1443"/>
</g>
<!-- 29 -->
<g id="node30" class="node">
<title>29</title>
<path fill="none" stroke="#88d856" stroke-width="2" d="M2040.2973,-324C2040.2973,-324 1965.0797,-324 1965.0797,-324 1959.0797,-324 1953.0797,-318 1953.0797,-312 1953.0797,-312 1953.0797,-300 1953.0797,-300 1953.0797,-294 1959.0797,-288 1965.0797,-288 1965.0797,-288 2040.2973,-288 2040.2973,-288 2046.2973,-288 2052.2973,-294 2052.2973,-300 2052.2973,-300 2052.2973,-312 2052.2973,-312 2052.2973,-318 2046.2973,-324 2040.2973,-324"/>
<text text-anchor="middle" x="2002.6885" y="-309" font-family="sans" font-size="10.00" fill="#000000">trim_galore</text>
<text text-anchor="middle" x="2002.6885" y="-297" font-family="sans" font-size="10.00" fill="#000000">sample: CastB6F1_3</text>
</g>
<!-- 29&#45;&gt;18 -->
<g id="edge49" class="edge">
<title>29&#45;&gt;18</title>
<path fill="none" stroke="#c0c0c0" stroke-width="2" d="M1952.7823,-297.1714C1871.4869,-282.7899 1712.0065,-254.5771 1636.7966,-241.2722"/>
<polygon fill="#c0c0c0" stroke="#c0c0c0" stroke-width="2" points="1637.2172,-237.7923 1626.7603,-239.4967 1635.9977,-244.6853 1637.2172,-237.7923"/>
</g>
<!-- 30 -->
<g id="node31" class="node">
<title>30</title>
<path fill="none" stroke="#88d856" stroke-width="2" d="M221.2973,-324C221.2973,-324 146.0797,-324 146.0797,-324 140.0797,-324 134.0797,-318 134.0797,-312 134.0797,-312 134.0797,-300 134.0797,-300 134.0797,-294 140.0797,-288 146.0797,-288 146.0797,-288 221.2973,-288 221.2973,-288 227.2973,-288 233.2973,-294 233.2973,-300 233.2973,-300 233.2973,-312 233.2973,-312 233.2973,-318 227.2973,-324 221.2973,-324"/>
<text text-anchor="middle" x="183.6885" y="-309" font-family="sans" font-size="10.00" fill="#000000">trim_galore</text>
<text text-anchor="middle" x="183.6885" y="-297" font-family="sans" font-size="10.00" fill="#000000">sample: B6CastF1_2</text>
</g>
<!-- 30&#45;&gt;20 -->
<g id="edge52" class="edge">
<title>30&#45;&gt;20</title>
<path fill="none" stroke="#c0c0c0" stroke-width="2" d="M233.4604,-302.3056C402.9463,-289.7252 955.7492,-248.6924 1112.1323,-237.0846"/>
<polygon fill="#c0c0c0" stroke="#c0c0c0" stroke-width="2" points="1112.5612,-240.5625 1122.2746,-236.3318 1112.043,-233.5817 1112.5612,-240.5625"/>
</g>
<!-- 31 -->
<g id="node32" class="node">
<title>31</title>
<path fill="none" stroke="#56d863" stroke-width="2" d="M1565.8927,-548C1565.8927,-548 1349.4843,-548 1349.4843,-548 1343.4843,-548 1337.4843,-542 1337.4843,-536 1337.4843,-536 1337.4843,-524 1337.4843,-524 1337.4843,-518 1343.4843,-512 1349.4843,-512 1349.4843,-512 1565.8927,-512 1565.8927,-512 1571.8927,-512 1577.8927,-518 1577.8927,-524 1577.8927,-524 1577.8927,-536 1577.8927,-536 1577.8927,-542 1571.8927,-548 1565.8927,-548"/>
<text text-anchor="middle" x="1457.6885" y="-533" font-family="sans" font-size="10.00" fill="#000000">gunzip_vcf</text>
<text text-anchor="middle" x="1457.6885" y="-521" font-family="sans" font-size="10.00" fill="#000000">file: ../genome_data/CAST_EiJ.mgp.v5.snps.dbSNP142</text>
</g>
<!-- 31&#45;&gt;21 -->
<g id="edge53" class="edge">
<title>31&#45;&gt;21</title>
<path fill="none" stroke="#c0c0c0" stroke-width="2" d="M1481.4087,-511.8314C1493.0979,-502.8779 1507.3573,-491.9558 1519.9694,-482.2955"/>
<polygon fill="#c0c0c0" stroke="#c0c0c0" stroke-width="2" points="1522.1654,-485.0222 1527.9759,-476.1628 1517.9088,-479.4651 1522.1654,-485.0222"/>
</g>
<!-- 32 -->
<g id="node33" class="node">
<title>32</title>
<path fill="none" stroke="#56d8b1" stroke-width="2" d="M1681.8857,-548C1681.8857,-548 1607.4913,-548 1607.4913,-548 1601.4913,-548 1595.4913,-542 1595.4913,-536 1595.4913,-536 1595.4913,-524 1595.4913,-524 1595.4913,-518 1601.4913,-512 1607.4913,-512 1607.4913,-512 1681.8857,-512 1681.8857,-512 1687.8857,-512 1693.8857,-518 1693.8857,-524 1693.8857,-524 1693.8857,-536 1693.8857,-536 1693.8857,-542 1687.8857,-548 1681.8857,-548"/>
<text text-anchor="middle" x="1644.6885" y="-527" font-family="sans" font-size="10.00" fill="#000000">snpsplit_create_path</text>
</g>
<!-- 32&#45;&gt;21 -->
<g id="edge54" class="edge">
<title>32&#45;&gt;21</title>
<path fill="none" stroke="#c0c0c0" stroke-width="2" d="M1621.2207,-511.8314C1609.6558,-502.8779 1595.5481,-491.9558 1583.0702,-482.2955"/>
<polygon fill="#c0c0c0" stroke="#c0c0c0" stroke-width="2" points="1585.1987,-479.5171 1575.1488,-476.1628 1580.9135,-485.0521 1585.1987,-479.5171"/>
</g>
<!-- 33 -->
<g id="node34" class="node">
<title>33</title>
<path fill="none" stroke="#56b9d8" stroke-width="2" d="M2396.5661,-404C2396.5661,-404 2302.8109,-404 2302.8109,-404 2296.8109,-404 2290.8109,-398 2290.8109,-392 2290.8109,-392 2290.8109,-372 2290.8109,-372 2290.8109,-366 2296.8109,-360 2302.8109,-360 2302.8109,-360 2396.5661,-360 2396.5661,-360 2402.5661,-360 2408.5661,-366 2408.5661,-372 2408.5661,-372 2408.5661,-392 2408.5661,-392 2408.5661,-398 2402.5661,-404 2396.5661,-404"/>
<text text-anchor="middle" x="2349.6885" y="-391" font-family="sans" font-size="10.00" fill="#000000">fastq_md5</text>
<text text-anchor="middle" x="2349.6885" y="-379" font-family="sans" font-size="10.00" fill="#000000">archive: B6CastF1_3_R1</text>
<text text-anchor="middle" x="2349.6885" y="-367" font-family="sans" font-size="10.00" fill="#000000">outdir: rna_seq</text>
</g>
<!-- 33&#45;&gt;23 -->
<g id="edge56" class="edge">
<title>33&#45;&gt;23</title>
<path fill="none" stroke="#c0c0c0" stroke-width="2" d="M2313.1973,-359.8133C2297.5104,-350.2757 2279.163,-339.1205 2263.2531,-329.4473"/>
<polygon fill="#c0c0c0" stroke="#c0c0c0" stroke-width="2" points="2265.0604,-326.45 2254.6974,-324.2454 2261.4238,-332.4312 2265.0604,-326.45"/>
</g>
<!-- 34 -->
<g id="node35" class="node">
<title>34</title>
<path fill="none" stroke="#56b9d8" stroke-width="2" d="M2184.5661,-404C2184.5661,-404 2090.8109,-404 2090.8109,-404 2084.8109,-404 2078.8109,-398 2078.8109,-392 2078.8109,-392 2078.8109,-372 2078.8109,-372 2078.8109,-366 2084.8109,-360 2090.8109,-360 2090.8109,-360 2184.5661,-360 2184.5661,-360 2190.5661,-360 2196.5661,-366 2196.5661,-372 2196.5661,-372 2196.5661,-392 2196.5661,-392 2196.5661,-398 2190.5661,-404 2184.5661,-404"/>
<text text-anchor="middle" x="2137.6885" y="-391" font-family="sans" font-size="10.00" fill="#000000">fastq_md5</text>
<text text-anchor="middle" x="2137.6885" y="-379" font-family="sans" font-size="10.00" fill="#000000">archive: B6CastF1_3_R2</text>
<text text-anchor="middle" x="2137.6885" y="-367" font-family="sans" font-size="10.00" fill="#000000">outdir: rna_seq</text>
</g>
<!-- 34&#45;&gt;23 -->
<g id="edge57" class="edge">
<title>34&#45;&gt;23</title>
<path fill="none" stroke="#c0c0c0" stroke-width="2" d="M2163.3208,-359.6086C2173.6257,-350.6065 2185.5499,-340.1901 2196.1312,-330.9466"/>
<polygon fill="#c0c0c0" stroke="#c0c0c0" stroke-width="2" points="2198.6835,-333.3644 2203.912,-324.1496 2194.0782,-328.0926 2198.6835,-333.3644"/>
</g>
<!-- 35 -->
<g id="node36" class="node">
<title>35</title>
<path fill="none" stroke="#566bd8" stroke-width="2" d="M2208.6665,-476C2208.6665,-476 2106.7105,-476 2106.7105,-476 2100.7105,-476 2094.7105,-470 2094.7105,-464 2094.7105,-464 2094.7105,-452 2094.7105,-452 2094.7105,-446 2100.7105,-440 2106.7105,-440 2106.7105,-440 2208.6665,-440 2208.6665,-440 2214.6665,-440 2220.6665,-446 2220.6665,-452 2220.6665,-452 2220.6665,-464 2220.6665,-464 2220.6665,-470 2214.6665,-476 2208.6665,-476"/>
<text text-anchor="middle" x="2157.6885" y="-461" font-family="sans" font-size="10.00" fill="#000000">download_rnaseq_B6Cast3</text>
<text text-anchor="middle" x="2157.6885" y="-449" font-family="sans" font-size="10.00" fill="#000000">file: 2</text>
</g>
<!-- 35&#45;&gt;23 -->
<g id="edge58" class="edge">
<title>35&#45;&gt;23</title>
<path fill="none" stroke="#c0c0c0" stroke-width="2" d="M2178.2884,-439.8968C2188.055,-430.2022 2199.0187,-417.4936 2205.6885,-404 2216.4944,-382.1387 2221.1616,-354.7021 2223.1737,-334.4238"/>
<polygon fill="#c0c0c0" stroke="#c0c0c0" stroke-width="2" points="2226.6782,-334.5143 2224.0215,-324.258 2219.7024,-333.9325 2226.6782,-334.5143"/>
</g>
<!-- 35&#45;&gt;34 -->
<g id="edge91" class="edge">
<title>35&#45;&gt;34</title>
<path fill="none" stroke="#c0c0c0" stroke-width="2" d="M2152.9488,-439.9891C2150.9009,-432.2073 2148.4417,-422.8621 2146.1014,-413.9691"/>
<polygon fill="#c0c0c0" stroke="#c0c0c0" stroke-width="2" points="2149.4678,-413.0082 2143.538,-404.2282 2142.6983,-414.7897 2149.4678,-413.0082"/>
</g>
<!-- 36 -->
<g id="node37" class="node">
<title>36</title>
<path fill="none" stroke="#566bd8" stroke-width="2" d="M2381.6665,-476C2381.6665,-476 2279.7105,-476 2279.7105,-476 2273.7105,-476 2267.7105,-470 2267.7105,-464 2267.7105,-464 2267.7105,-452 2267.7105,-452 2267.7105,-446 2273.7105,-440 2279.7105,-440 2279.7105,-440 2381.6665,-440 2381.6665,-440 2387.6665,-440 2393.6665,-446 2393.6665,-452 2393.6665,-452 2393.6665,-464 2393.6665,-464 2393.6665,-470 2387.6665,-476 2381.6665,-476"/>
<text text-anchor="middle" x="2330.6885" y="-461" font-family="sans" font-size="10.00" fill="#000000">download_rnaseq_B6Cast3</text>
<text text-anchor="middle" x="2330.6885" y="-449" font-family="sans" font-size="10.00" fill="#000000">file: 1</text>
</g>
<!-- 36&#45;&gt;23 -->
<g id="edge59" class="edge">
<title>36&#45;&gt;23</title>
<path fill="none" stroke="#c0c0c0" stroke-width="2" d="M2312.4355,-439.838C2302.7461,-429.7322 2290.9601,-416.667 2281.6885,-404 2265.029,-381.2396 2249.1596,-353.2519 2238.416,-333.0214"/>
<polygon fill="#c0c0c0" stroke="#c0c0c0" stroke-width="2" points="2241.4547,-331.2795 2233.7145,-324.0449 2235.2538,-334.5273 2241.4547,-331.2795"/>
</g>
<!-- 36&#45;&gt;33 -->
<g id="edge90" class="edge">
<title>36&#45;&gt;33</title>
<path fill="none" stroke="#c0c0c0" stroke-width="2" d="M2335.1912,-439.9891C2337.1367,-432.2073 2339.473,-422.8621 2341.6962,-413.9691"/>
<polygon fill="#c0c0c0" stroke="#c0c0c0" stroke-width="2" points="2345.1015,-414.7785 2344.1314,-404.2282 2338.3105,-413.0807 2345.1015,-414.7785"/>
</g>
<!-- 37 -->
<g id="node38" class="node">
<title>37</title>
<path fill="none" stroke="#c6d856" stroke-width="2" d="M639.6665,-476C639.6665,-476 537.7105,-476 537.7105,-476 531.7105,-476 525.7105,-470 525.7105,-464 525.7105,-464 525.7105,-452 525.7105,-452 525.7105,-446 531.7105,-440 537.7105,-440 537.7105,-440 639.6665,-440 639.6665,-440 645.6665,-440 651.6665,-446 651.6665,-452 651.6665,-452 651.6665,-464 651.6665,-464 651.6665,-470 645.6665,-476 639.6665,-476"/>
<text text-anchor="middle" x="588.6885" y="-461" font-family="sans" font-size="10.00" fill="#000000">download_rnaseq_CastB65</text>
<text text-anchor="middle" x="588.6885" y="-449" font-family="sans" font-size="10.00" fill="#000000">file: 2</text>
</g>
<!-- 37&#45;&gt;24 -->
<g id="edge60" class="edge">
<title>37&#45;&gt;24</title>
<path fill="none" stroke="#c0c0c0" stroke-width="2" d="M617.1205,-439.9601C628.9113,-430.7801 641.3089,-418.4872 647.6885,-404 655.5697,-386.1029 656.1914,-377.6102 647.6885,-360 641.9991,-348.2168 632.3507,-338.2163 622.082,-330.144"/>
<polygon fill="#c0c0c0" stroke="#c0c0c0" stroke-width="2" points="623.9192,-327.152 613.7775,-324.0865 619.794,-332.8073 623.9192,-327.152"/>
</g>
<!-- 38 -->
<g id="node39" class="node">
<title>38</title>
<path fill="none" stroke="#56b9d8" stroke-width="2" d="M626.5661,-404C626.5661,-404 532.8109,-404 532.8109,-404 526.8109,-404 520.8109,-398 520.8109,-392 520.8109,-392 520.8109,-372 520.8109,-372 520.8109,-366 526.8109,-360 532.8109,-360 532.8109,-360 626.5661,-360 626.5661,-360 632.5661,-360 638.5661,-366 638.5661,-372 638.5661,-372 638.5661,-392 638.5661,-392 638.5661,-398 632.5661,-404 626.5661,-404"/>
<text text-anchor="middle" x="579.6885" y="-391" font-family="sans" font-size="10.00" fill="#000000">fastq_md5</text>
<text text-anchor="middle" x="579.6885" y="-379" font-family="sans" font-size="10.00" fill="#000000">archive: CastB6F1_5_R2</text>
<text text-anchor="middle" x="579.6885" y="-367" font-family="sans" font-size="10.00" fill="#000000">outdir: rna_seq</text>
</g>
<!-- 37&#45;&gt;38 -->
<g id="edge92" class="edge">
<title>37&#45;&gt;38</title>
<path fill="none" stroke="#c0c0c0" stroke-width="2" d="M586.5556,-439.9891C585.644,-432.291 584.5512,-423.0629 583.5083,-414.2561"/>
<polygon fill="#c0c0c0" stroke="#c0c0c0" stroke-width="2" points="586.9726,-413.7472 582.3208,-404.2282 580.0212,-414.5705 586.9726,-413.7472"/>
</g>
<!-- 38&#45;&gt;24 -->
<g id="edge61" class="edge">
<title>38&#45;&gt;24</title>
<path fill="none" stroke="#c0c0c0" stroke-width="2" d="M579.6885,-359.6086C579.6885,-351.7272 579.6885,-342.7616 579.6885,-334.4482"/>
<polygon fill="#c0c0c0" stroke="#c0c0c0" stroke-width="2" points="583.1886,-334.3974 579.6885,-324.3975 576.1886,-334.3975 583.1886,-334.3974"/>
</g>
<!-- 39 -->
<g id="node40" class="node">
<title>39</title>
<path fill="none" stroke="#c6d856" stroke-width="2" d="M485.6665,-476C485.6665,-476 383.7105,-476 383.7105,-476 377.7105,-476 371.7105,-470 371.7105,-464 371.7105,-464 371.7105,-452 371.7105,-452 371.7105,-446 377.7105,-440 383.7105,-440 383.7105,-440 485.6665,-440 485.6665,-440 491.6665,-440 497.6665,-446 497.6665,-452 497.6665,-452 497.6665,-464 497.6665,-464 497.6665,-470 491.6665,-476 485.6665,-476"/>
<text text-anchor="middle" x="434.6885" y="-461" font-family="sans" font-size="10.00" fill="#000000">download_rnaseq_CastB65</text>
<text text-anchor="middle" x="434.6885" y="-449" font-family="sans" font-size="10.00" fill="#000000">file: 1</text>
</g>
<!-- 39&#45;&gt;24 -->
<g id="edge62" class="edge">
<title>39&#45;&gt;24</title>
<path fill="none" stroke="#c0c0c0" stroke-width="2" d="M406.7276,-439.862C395.1345,-430.6621 382.9483,-418.3809 376.6885,-404 368.8836,-386.0695 364.7698,-375.5037 376.6885,-360 394.1242,-337.3198 466.432,-322.1572 519.807,-313.8162"/>
<polygon fill="#c0c0c0" stroke="#c0c0c0" stroke-width="2" points="520.5099,-317.2497 529.8712,-312.2883 519.4592,-310.329 520.5099,-317.2497"/>
</g>
<!-- 40 -->
<g id="node41" class="node">
<title>40</title>
<path fill="none" stroke="#56b9d8" stroke-width="2" d="M491.5661,-404C491.5661,-404 397.8109,-404 397.8109,-404 391.8109,-404 385.8109,-398 385.8109,-392 385.8109,-392 385.8109,-372 385.8109,-372 385.8109,-366 391.8109,-360 397.8109,-360 397.8109,-360 491.5661,-360 491.5661,-360 497.5661,-360 503.5661,-366 503.5661,-372 503.5661,-372 503.5661,-392 503.5661,-392 503.5661,-398 497.5661,-404 491.5661,-404"/>
<text text-anchor="middle" x="444.6885" y="-391" font-family="sans" font-size="10.00" fill="#000000">fastq_md5</text>
<text text-anchor="middle" x="444.6885" y="-379" font-family="sans" font-size="10.00" fill="#000000">archive: CastB6F1_5_R1</text>
<text text-anchor="middle" x="444.6885" y="-367" font-family="sans" font-size="10.00" fill="#000000">outdir: rna_seq</text>
</g>
<!-- 39&#45;&gt;40 -->
<g id="edge93" class="edge">
<title>39&#45;&gt;40</title>
<path fill="none" stroke="#c0c0c0" stroke-width="2" d="M437.0584,-439.9891C438.0713,-432.291 439.2855,-423.0629 440.4443,-414.2561"/>
<polygon fill="#c0c0c0" stroke="#c0c0c0" stroke-width="2" points="443.9292,-414.5994 441.7637,-404.2282 436.989,-413.6861 443.9292,-414.5994"/>
</g>
<!-- 40&#45;&gt;24 -->
<g id="edge63" class="edge">
<title>40&#45;&gt;24</title>
<path fill="none" stroke="#c0c0c0" stroke-width="2" d="M484.099,-359.8133C501.1977,-350.1874 521.2232,-338.9138 538.5153,-329.179"/>
<polygon fill="#c0c0c0" stroke="#c0c0c0" stroke-width="2" points="540.2818,-332.2011 547.2789,-324.2454 536.8478,-326.1012 540.2818,-332.2011"/>
</g>
<!-- 41 -->
<g id="node42" class="node">
<title>41</title>
<path fill="none" stroke="#56d8c1" stroke-width="2" d="M788.6665,-476C788.6665,-476 686.7105,-476 686.7105,-476 680.7105,-476 674.7105,-470 674.7105,-464 674.7105,-464 674.7105,-452 674.7105,-452 674.7105,-446 680.7105,-440 686.7105,-440 686.7105,-440 788.6665,-440 788.6665,-440 794.6665,-440 800.6665,-446 800.6665,-452 800.6665,-452 800.6665,-464 800.6665,-464 800.6665,-470 794.6665,-476 788.6665,-476"/>
<text text-anchor="middle" x="737.6885" y="-461" font-family="sans" font-size="10.00" fill="#000000">download_rnaseq_B6Cast4</text>
<text text-anchor="middle" x="737.6885" y="-449" font-family="sans" font-size="10.00" fill="#000000">file: 2</text>
</g>
<!-- 41&#45;&gt;25 -->
<g id="edge64" class="edge">
<title>41&#45;&gt;25</title>
<path fill="none" stroke="#c0c0c0" stroke-width="2" d="M728.1076,-439.9414C718.3548,-418.8019 706.8646,-383.6768 723.6885,-360 735.2038,-343.7941 780.2127,-329.2121 818.7834,-319.2982"/>
<polygon fill="#c0c0c0" stroke="#c0c0c0" stroke-width="2" points="820.0907,-322.579 828.9408,-316.7544 818.3901,-315.7887 820.0907,-322.579"/>
</g>
<!-- 43 -->
<g id="node44" class="node">
<title>43</title>
<path fill="none" stroke="#56b9d8" stroke-width="2" d="M838.5661,-404C838.5661,-404 744.8109,-404 744.8109,-404 738.8109,-404 732.8109,-398 732.8109,-392 732.8109,-392 732.8109,-372 732.8109,-372 732.8109,-366 738.8109,-360 744.8109,-360 744.8109,-360 838.5661,-360 838.5661,-360 844.5661,-360 850.5661,-366 850.5661,-372 850.5661,-372 850.5661,-392 850.5661,-392 850.5661,-398 844.5661,-404 838.5661,-404"/>
<text text-anchor="middle" x="791.6885" y="-391" font-family="sans" font-size="10.00" fill="#000000">fastq_md5</text>
<text text-anchor="middle" x="791.6885" y="-379" font-family="sans" font-size="10.00" fill="#000000">archive: B6CastF1_4_R2</text>
<text text-anchor="middle" x="791.6885" y="-367" font-family="sans" font-size="10.00" fill="#000000">outdir: rna_seq</text>
</g>
<!-- 41&#45;&gt;43 -->
<g id="edge94" class="edge">
<title>41&#45;&gt;43</title>
<path fill="none" stroke="#c0c0c0" stroke-width="2" d="M750.4857,-439.9891C756.3122,-431.7889 763.3721,-421.8527 769.9897,-412.539"/>
<polygon fill="#c0c0c0" stroke="#c0c0c0" stroke-width="2" points="772.9558,-414.4073 775.8948,-404.2282 767.2495,-410.3528 772.9558,-414.4073"/>
</g>
<!-- 42 -->
<g id="node43" class="node">
<title>42</title>
<path fill="none" stroke="#56d8c1" stroke-width="2" d="M968.6665,-476C968.6665,-476 866.7105,-476 866.7105,-476 860.7105,-476 854.7105,-470 854.7105,-464 854.7105,-464 854.7105,-452 854.7105,-452 854.7105,-446 860.7105,-440 866.7105,-440 866.7105,-440 968.6665,-440 968.6665,-440 974.6665,-440 980.6665,-446 980.6665,-452 980.6665,-452 980.6665,-464 980.6665,-464 980.6665,-470 974.6665,-476 968.6665,-476"/>
<text text-anchor="middle" x="917.6885" y="-461" font-family="sans" font-size="10.00" fill="#000000">download_rnaseq_B6Cast4</text>
<text text-anchor="middle" x="917.6885" y="-449" font-family="sans" font-size="10.00" fill="#000000">file: 1</text>
</g>
<!-- 42&#45;&gt;25 -->
<g id="edge65" class="edge">
<title>42&#45;&gt;25</title>
<path fill="none" stroke="#c0c0c0" stroke-width="2" d="M910.0826,-439.7511C905.9841,-429.4008 901.0861,-416.1298 897.6885,-404 891.1903,-380.8005 886.1468,-353.8987 882.8943,-334.1566"/>
<polygon fill="#c0c0c0" stroke="#c0c0c0" stroke-width="2" points="886.3486,-333.5924 881.3161,-324.269 879.4361,-334.6957 886.3486,-333.5924"/>
</g>
<!-- 44 -->
<g id="node45" class="node">
<title>44</title>
<path fill="none" stroke="#56b9d8" stroke-width="2" d="M1012.5661,-404C1012.5661,-404 918.8109,-404 918.8109,-404 912.8109,-404 906.8109,-398 906.8109,-392 906.8109,-392 906.8109,-372 906.8109,-372 906.8109,-366 912.8109,-360 918.8109,-360 918.8109,-360 1012.5661,-360 1012.5661,-360 1018.5661,-360 1024.5661,-366 1024.5661,-372 1024.5661,-372 1024.5661,-392 1024.5661,-392 1024.5661,-398 1018.5661,-404 1012.5661,-404"/>
<text text-anchor="middle" x="965.6885" y="-391" font-family="sans" font-size="10.00" fill="#000000">fastq_md5</text>
<text text-anchor="middle" x="965.6885" y="-379" font-family="sans" font-size="10.00" fill="#000000">archive: B6CastF1_4_R1</text>
<text text-anchor="middle" x="965.6885" y="-367" font-family="sans" font-size="10.00" fill="#000000">outdir: rna_seq</text>
</g>
<!-- 42&#45;&gt;44 -->
<g id="edge95" class="edge">
<title>42&#45;&gt;44</title>
<path fill="none" stroke="#c0c0c0" stroke-width="2" d="M929.0638,-439.9891C934.19,-431.8726 940.3904,-422.0553 946.2205,-412.8243"/>
<polygon fill="#c0c0c0" stroke="#c0c0c0" stroke-width="2" points="949.2689,-414.5521 951.6496,-404.2282 943.3504,-410.8141 949.2689,-414.5521"/>
</g>
<!-- 43&#45;&gt;25 -->
<g id="edge66" class="edge">
<title>43&#45;&gt;25</title>
<path fill="none" stroke="#c0c0c0" stroke-width="2" d="M817.3208,-359.6086C827.6257,-350.6065 839.5499,-340.1901 850.1312,-330.9466"/>
<polygon fill="#c0c0c0" stroke="#c0c0c0" stroke-width="2" points="852.6835,-333.3644 857.912,-324.1496 848.0782,-328.0926 852.6835,-333.3644"/>
</g>
<!-- 44&#45;&gt;25 -->
<g id="edge67" class="edge">
<title>44&#45;&gt;25</title>
<path fill="none" stroke="#c0c0c0" stroke-width="2" d="M940.0562,-359.6086C929.7513,-350.6065 917.8271,-340.1901 907.2458,-330.9466"/>
<polygon fill="#c0c0c0" stroke="#c0c0c0" stroke-width="2" points="909.2988,-328.0926 899.465,-324.1496 904.6935,-333.3644 909.2988,-328.0926"/>
</g>
<!-- 45 -->
<g id="node46" class="node">
<title>45</title>
<path fill="none" stroke="#56b9d8" stroke-width="2" d="M3091.5661,-404C3091.5661,-404 2997.8109,-404 2997.8109,-404 2991.8109,-404 2985.8109,-398 2985.8109,-392 2985.8109,-392 2985.8109,-372 2985.8109,-372 2985.8109,-366 2991.8109,-360 2997.8109,-360 2997.8109,-360 3091.5661,-360 3091.5661,-360 3097.5661,-360 3103.5661,-366 3103.5661,-372 3103.5661,-372 3103.5661,-392 3103.5661,-392 3103.5661,-398 3097.5661,-404 3091.5661,-404"/>
<text text-anchor="middle" x="3044.6885" y="-391" font-family="sans" font-size="10.00" fill="#000000">fastq_md5</text>
<text text-anchor="middle" x="3044.6885" y="-379" font-family="sans" font-size="10.00" fill="#000000">archive: CastB6F1_2_R2</text>
<text text-anchor="middle" x="3044.6885" y="-367" font-family="sans" font-size="10.00" fill="#000000">outdir: rna_seq</text>
</g>
<!-- 45&#45;&gt;26 -->
<g id="edge68" class="edge">
<title>45&#45;&gt;26</title>
<path fill="none" stroke="#c0c0c0" stroke-width="2" d="M2993.8927,-359.8133C2971.0586,-349.8398 2944.1747,-338.0974 2921.3558,-328.1305"/>
<polygon fill="#c0c0c0" stroke="#c0c0c0" stroke-width="2" points="2922.7416,-324.9166 2912.1767,-324.1213 2919.9397,-331.3314 2922.7416,-324.9166"/>
</g>
<!-- 46 -->
<g id="node47" class="node">
<title>46</title>
<path fill="none" stroke="#ced856" stroke-width="2" d="M2890.6665,-476C2890.6665,-476 2788.7105,-476 2788.7105,-476 2782.7105,-476 2776.7105,-470 2776.7105,-464 2776.7105,-464 2776.7105,-452 2776.7105,-452 2776.7105,-446 2782.7105,-440 2788.7105,-440 2788.7105,-440 2890.6665,-440 2890.6665,-440 2896.6665,-440 2902.6665,-446 2902.6665,-452 2902.6665,-452 2902.6665,-464 2902.6665,-464 2902.6665,-470 2896.6665,-476 2890.6665,-476"/>
<text text-anchor="middle" x="2839.6885" y="-461" font-family="sans" font-size="10.00" fill="#000000">download_rnaseq_CastB62</text>
<text text-anchor="middle" x="2839.6885" y="-449" font-family="sans" font-size="10.00" fill="#000000">file: 1</text>
</g>
<!-- 46&#45;&gt;26 -->
<g id="edge69" class="edge">
<title>46&#45;&gt;26</title>
<path fill="none" stroke="#c0c0c0" stroke-width="2" d="M2823.2604,-439.989C2815.386,-430.1289 2806.7905,-417.2441 2802.6885,-404 2796.9028,-385.3199 2794.1856,-377.6102 2802.6885,-360 2808.3779,-348.2168 2818.0263,-338.2163 2828.295,-330.144"/>
<polygon fill="#c0c0c0" stroke="#c0c0c0" stroke-width="2" points="2830.583,-332.8073 2836.5995,-324.0865 2826.4578,-327.152 2830.583,-332.8073"/>
</g>
<!-- 47 -->
<g id="node48" class="node">
<title>47</title>
<path fill="none" stroke="#56b9d8" stroke-width="2" d="M2917.5661,-404C2917.5661,-404 2823.8109,-404 2823.8109,-404 2817.8109,-404 2811.8109,-398 2811.8109,-392 2811.8109,-392 2811.8109,-372 2811.8109,-372 2811.8109,-366 2817.8109,-360 2823.8109,-360 2823.8109,-360 2917.5661,-360 2917.5661,-360 2923.5661,-360 2929.5661,-366 2929.5661,-372 2929.5661,-372 2929.5661,-392 2929.5661,-392 2929.5661,-398 2923.5661,-404 2917.5661,-404"/>
<text text-anchor="middle" x="2870.6885" y="-391" font-family="sans" font-size="10.00" fill="#000000">fastq_md5</text>
<text text-anchor="middle" x="2870.6885" y="-379" font-family="sans" font-size="10.00" fill="#000000">archive: CastB6F1_2_R1</text>
<text text-anchor="middle" x="2870.6885" y="-367" font-family="sans" font-size="10.00" fill="#000000">outdir: rna_seq</text>
</g>
<!-- 46&#45;&gt;47 -->
<g id="edge97" class="edge">
<title>46&#45;&gt;47</title>
<path fill="none" stroke="#c0c0c0" stroke-width="2" d="M2847.0351,-439.9891C2850.2433,-432.1236 2854.1031,-422.6609 2857.7654,-413.6824"/>
<polygon fill="#c0c0c0" stroke="#c0c0c0" stroke-width="2" points="2861.0856,-414.8095 2861.6217,-404.2282 2854.6041,-412.1656 2861.0856,-414.8095"/>
</g>
<!-- 47&#45;&gt;26 -->
<g id="edge70" class="edge">
<title>47&#45;&gt;26</title>
<path fill="none" stroke="#c0c0c0" stroke-width="2" d="M2870.6885,-359.6086C2870.6885,-351.7272 2870.6885,-342.7616 2870.6885,-334.4482"/>
<polygon fill="#c0c0c0" stroke="#c0c0c0" stroke-width="2" points="2874.1886,-334.3974 2870.6885,-324.3975 2867.1886,-334.3975 2874.1886,-334.3974"/>
</g>
<!-- 48 -->
<g id="node49" class="node">
<title>48</title>
<path fill="none" stroke="#ced856" stroke-width="2" d="M3039.6665,-476C3039.6665,-476 2937.7105,-476 2937.7105,-476 2931.7105,-476 2925.7105,-470 2925.7105,-464 2925.7105,-464 2925.7105,-452 2925.7105,-452 2925.7105,-446 2931.7105,-440 2937.7105,-440 2937.7105,-440 3039.6665,-440 3039.6665,-440 3045.6665,-440 3051.6665,-446 3051.6665,-452 3051.6665,-452 3051.6665,-464 3051.6665,-464 3051.6665,-470 3045.6665,-476 3039.6665,-476"/>
<text text-anchor="middle" x="2988.6885" y="-461" font-family="sans" font-size="10.00" fill="#000000">download_rnaseq_CastB62</text>
<text text-anchor="middle" x="2988.6885" y="-449" font-family="sans" font-size="10.00" fill="#000000">file: 2</text>
</g>
<!-- 48&#45;&gt;26 -->
<g id="edge71" class="edge">
<title>48&#45;&gt;26</title>
<path fill="none" stroke="#c0c0c0" stroke-width="2" d="M2982.0846,-439.6532C2974.0103,-418.8698 2958.8869,-384.6877 2938.6885,-360 2929.7123,-349.0287 2918.1558,-338.8317 2907.1257,-330.3203"/>
<polygon fill="#c0c0c0" stroke="#c0c0c0" stroke-width="2" points="2908.9562,-327.3196 2898.8449,-324.1553 2904.776,-332.9344 2908.9562,-327.3196"/>
</g>
<!-- 48&#45;&gt;45 -->
<g id="edge96" class="edge">
<title>48&#45;&gt;45</title>
<path fill="none" stroke="#c0c0c0" stroke-width="2" d="M3001.9597,-439.9891C3008.0019,-431.7889 3015.3233,-421.8527 3022.1861,-412.539"/>
<polygon fill="#c0c0c0" stroke="#c0c0c0" stroke-width="2" points="3025.1955,-414.355 3028.3098,-404.2282 3019.5601,-410.2026 3025.1955,-414.355"/>
</g>
<!-- 49 -->
<g id="node50" class="node">
<title>49</title>
<path fill="none" stroke="#56b9d8" stroke-width="2" d="M1147.5661,-404C1147.5661,-404 1053.8109,-404 1053.8109,-404 1047.8109,-404 1041.8109,-398 1041.8109,-392 1041.8109,-392 1041.8109,-372 1041.8109,-372 1041.8109,-366 1047.8109,-360 1053.8109,-360 1053.8109,-360 1147.5661,-360 1147.5661,-360 1153.5661,-360 1159.5661,-366 1159.5661,-372 1159.5661,-372 1159.5661,-392 1159.5661,-392 1159.5661,-398 1153.5661,-404 1147.5661,-404"/>
<text text-anchor="middle" x="1100.6885" y="-391" font-family="sans" font-size="10.00" fill="#000000">fastq_md5</text>
<text text-anchor="middle" x="1100.6885" y="-379" font-family="sans" font-size="10.00" fill="#000000">archive: B6CastF1_5_R2</text>
<text text-anchor="middle" x="1100.6885" y="-367" font-family="sans" font-size="10.00" fill="#000000">outdir: rna_seq</text>
</g>
<!-- 49&#45;&gt;27 -->
<g id="edge72" class="edge">
<title>49&#45;&gt;27</title>
<path fill="none" stroke="#c0c0c0" stroke-width="2" d="M1100.6885,-359.6086C1100.6885,-351.7272 1100.6885,-342.7616 1100.6885,-334.4482"/>
<polygon fill="#c0c0c0" stroke="#c0c0c0" stroke-width="2" points="1104.1886,-334.3974 1100.6885,-324.3975 1097.1886,-334.3975 1104.1886,-334.3974"/>
</g>
<!-- 50 -->
<g id="node51" class="node">
<title>50</title>
<path fill="none" stroke="#56b9d8" stroke-width="2" d="M1321.5661,-404C1321.5661,-404 1227.8109,-404 1227.8109,-404 1221.8109,-404 1215.8109,-398 1215.8109,-392 1215.8109,-392 1215.8109,-372 1215.8109,-372 1215.8109,-366 1221.8109,-360 1227.8109,-360 1227.8109,-360 1321.5661,-360 1321.5661,-360 1327.5661,-360 1333.5661,-366 1333.5661,-372 1333.5661,-372 1333.5661,-392 1333.5661,-392 1333.5661,-398 1327.5661,-404 1321.5661,-404"/>
<text text-anchor="middle" x="1274.6885" y="-391" font-family="sans" font-size="10.00" fill="#000000">fastq_md5</text>
<text text-anchor="middle" x="1274.6885" y="-379" font-family="sans" font-size="10.00" fill="#000000">archive: B6CastF1_5_R1</text>
<text text-anchor="middle" x="1274.6885" y="-367" font-family="sans" font-size="10.00" fill="#000000">outdir: rna_seq</text>
</g>
<!-- 50&#45;&gt;27 -->
<g id="edge73" class="edge">
<title>50&#45;&gt;27</title>
<path fill="none" stroke="#c0c0c0" stroke-width="2" d="M1223.8927,-359.8133C1201.0586,-349.8398 1174.1747,-338.0974 1151.3558,-328.1305"/>
<polygon fill="#c0c0c0" stroke="#c0c0c0" stroke-width="2" points="1152.7416,-324.9166 1142.1767,-324.1213 1149.9397,-331.3314 1152.7416,-324.9166"/>
</g>
<!-- 51 -->
<g id="node52" class="node">
<title>51</title>
<path fill="none" stroke="#97d856" stroke-width="2" d="M1166.6665,-476C1166.6665,-476 1064.7105,-476 1064.7105,-476 1058.7105,-476 1052.7105,-470 1052.7105,-464 1052.7105,-464 1052.7105,-452 1052.7105,-452 1052.7105,-446 1058.7105,-440 1064.7105,-440 1064.7105,-440 1166.6665,-440 1166.6665,-440 1172.6665,-440 1178.6665,-446 1178.6665,-452 1178.6665,-452 1178.6665,-464 1178.6665,-464 1178.6665,-470 1172.6665,-476 1166.6665,-476"/>
<text text-anchor="middle" x="1115.6885" y="-461" font-family="sans" font-size="10.00" fill="#000000">download_rnaseq_B6Cast5</text>
<text text-anchor="middle" x="1115.6885" y="-449" font-family="sans" font-size="10.00" fill="#000000">file: 2</text>
</g>
<!-- 51&#45;&gt;27 -->
<g id="edge74" class="edge">
<title>51&#45;&gt;27</title>
<path fill="none" stroke="#c0c0c0" stroke-width="2" d="M1140.7313,-439.8695C1151.5005,-430.5148 1162.9231,-418.105 1168.6885,-404 1176.0876,-385.8983 1177.1914,-377.6102 1168.6885,-360 1162.9991,-348.2168 1153.3507,-338.2163 1143.082,-330.144"/>
<polygon fill="#c0c0c0" stroke="#c0c0c0" stroke-width="2" points="1144.9192,-327.152 1134.7775,-324.0865 1140.794,-332.8073 1144.9192,-327.152"/>
</g>
<!-- 51&#45;&gt;49 -->
<g id="edge98" class="edge">
<title>51&#45;&gt;49</title>
<path fill="none" stroke="#c0c0c0" stroke-width="2" d="M1112.1337,-439.9891C1110.6144,-432.291 1108.793,-423.0629 1107.0548,-414.2561"/>
<polygon fill="#c0c0c0" stroke="#c0c0c0" stroke-width="2" points="1110.4458,-413.3612 1105.0756,-404.2282 1103.5783,-414.7167 1110.4458,-413.3612"/>
</g>
<!-- 52 -->
<g id="node53" class="node">
<title>52</title>
<path fill="none" stroke="#97d856" stroke-width="2" d="M1368.6665,-476C1368.6665,-476 1266.7105,-476 1266.7105,-476 1260.7105,-476 1254.7105,-470 1254.7105,-464 1254.7105,-464 1254.7105,-452 1254.7105,-452 1254.7105,-446 1260.7105,-440 1266.7105,-440 1266.7105,-440 1368.6665,-440 1368.6665,-440 1374.6665,-440 1380.6665,-446 1380.6665,-452 1380.6665,-452 1380.6665,-464 1380.6665,-464 1380.6665,-470 1374.6665,-476 1368.6665,-476"/>
<text text-anchor="middle" x="1317.6885" y="-461" font-family="sans" font-size="10.00" fill="#000000">download_rnaseq_B6Cast5</text>
<text text-anchor="middle" x="1317.6885" y="-449" font-family="sans" font-size="10.00" fill="#000000">file: 1</text>
</g>
<!-- 52&#45;&gt;27 -->
<g id="edge75" class="edge">
<title>52&#45;&gt;27</title>
<path fill="none" stroke="#c0c0c0" stroke-width="2" d="M1330.8979,-439.696C1344.5636,-418.3206 1361.4769,-382.9687 1342.6885,-360 1291.5849,-297.5261 1243.1478,-342.9395 1164.6885,-324 1163.2509,-323.653 1161.797,-323.2956 1160.3318,-322.9298"/>
<polygon fill="#c0c0c0" stroke="#c0c0c0" stroke-width="2" points="1161.1123,-319.5167 1150.5555,-320.4131 1159.3672,-326.2957 1161.1123,-319.5167"/>
</g>
<!-- 52&#45;&gt;50 -->
<g id="edge99" class="edge">
<title>52&#45;&gt;50</title>
<path fill="none" stroke="#c0c0c0" stroke-width="2" d="M1307.4981,-439.9891C1302.9532,-431.9563 1297.4658,-422.2576 1292.2902,-413.11"/>
<polygon fill="#c0c0c0" stroke="#c0c0c0" stroke-width="2" points="1295.2356,-411.2082 1287.265,-404.2282 1289.1432,-414.6553 1295.2356,-411.2082"/>
</g>
<!-- 53 -->
<g id="node54" class="node">
<title>53</title>
<path fill="none" stroke="#d6d856" stroke-width="2" d="M2564.6665,-476C2564.6665,-476 2462.7105,-476 2462.7105,-476 2456.7105,-476 2450.7105,-470 2450.7105,-464 2450.7105,-464 2450.7105,-452 2450.7105,-452 2450.7105,-446 2456.7105,-440 2462.7105,-440 2462.7105,-440 2564.6665,-440 2564.6665,-440 2570.6665,-440 2576.6665,-446 2576.6665,-452 2576.6665,-452 2576.6665,-464 2576.6665,-464 2576.6665,-470 2570.6665,-476 2564.6665,-476"/>
<text text-anchor="middle" x="2513.6885" y="-461" font-family="sans" font-size="10.00" fill="#000000">download_rnaseq_CastB64</text>
<text text-anchor="middle" x="2513.6885" y="-449" font-family="sans" font-size="10.00" fill="#000000">file: 1</text>
</g>
<!-- 53&#45;&gt;28 -->
<g id="edge76" class="edge">
<title>53&#45;&gt;28</title>
<path fill="none" stroke="#c0c0c0" stroke-width="2" d="M2485.7276,-439.862C2474.1345,-430.6621 2461.9483,-418.3809 2455.6885,-404 2447.8836,-386.0695 2447.1856,-377.6102 2455.6885,-360 2461.3779,-348.2168 2471.0263,-338.2163 2481.295,-330.144"/>
<polygon fill="#c0c0c0" stroke="#c0c0c0" stroke-width="2" points="2483.583,-332.8073 2489.5995,-324.0865 2479.4578,-327.152 2483.583,-332.8073"/>
</g>
<!-- 54 -->
<g id="node55" class="node">
<title>54</title>
<path fill="none" stroke="#56b9d8" stroke-width="2" d="M2570.5661,-404C2570.5661,-404 2476.8109,-404 2476.8109,-404 2470.8109,-404 2464.8109,-398 2464.8109,-392 2464.8109,-392 2464.8109,-372 2464.8109,-372 2464.8109,-366 2470.8109,-360 2476.8109,-360 2476.8109,-360 2570.5661,-360 2570.5661,-360 2576.5661,-360 2582.5661,-366 2582.5661,-372 2582.5661,-372 2582.5661,-392 2582.5661,-392 2582.5661,-398 2576.5661,-404 2570.5661,-404"/>
<text text-anchor="middle" x="2523.6885" y="-391" font-family="sans" font-size="10.00" fill="#000000">fastq_md5</text>
<text text-anchor="middle" x="2523.6885" y="-379" font-family="sans" font-size="10.00" fill="#000000">archive: CastB6F1_4_R1</text>
<text text-anchor="middle" x="2523.6885" y="-367" font-family="sans" font-size="10.00" fill="#000000">outdir: rna_seq</text>
</g>
<!-- 53&#45;&gt;54 -->
<g id="edge100" class="edge">
<title>53&#45;&gt;54</title>
<path fill="none" stroke="#c0c0c0" stroke-width="2" d="M2516.0584,-439.9891C2517.0713,-432.291 2518.2855,-423.0629 2519.4443,-414.2561"/>
<polygon fill="#c0c0c0" stroke="#c0c0c0" stroke-width="2" points="2522.9292,-414.5994 2520.7637,-404.2282 2515.989,-413.6861 2522.9292,-414.5994"/>
</g>
<!-- 54&#45;&gt;28 -->
<g id="edge77" class="edge">
<title>54&#45;&gt;28</title>
<path fill="none" stroke="#c0c0c0" stroke-width="2" d="M2523.6885,-359.6086C2523.6885,-351.7272 2523.6885,-342.7616 2523.6885,-334.4482"/>
<polygon fill="#c0c0c0" stroke="#c0c0c0" stroke-width="2" points="2527.1886,-334.3974 2523.6885,-324.3975 2520.1886,-334.3975 2527.1886,-334.3974"/>
</g>
<!-- 55 -->
<g id="node56" class="node">
<title>55</title>
<path fill="none" stroke="#56b9d8" stroke-width="2" d="M2705.5661,-404C2705.5661,-404 2611.8109,-404 2611.8109,-404 2605.8109,-404 2599.8109,-398 2599.8109,-392 2599.8109,-392 2599.8109,-372 2599.8109,-372 2599.8109,-366 2605.8109,-360 2611.8109,-360 2611.8109,-360 2705.5661,-360 2705.5661,-360 2711.5661,-360 2717.5661,-366 2717.5661,-372 2717.5661,-372 2717.5661,-392 2717.5661,-392 2717.5661,-398 2711.5661,-404 2705.5661,-404"/>
<text text-anchor="middle" x="2658.6885" y="-391" font-family="sans" font-size="10.00" fill="#000000">fastq_md5</text>
<text text-anchor="middle" x="2658.6885" y="-379" font-family="sans" font-size="10.00" fill="#000000">archive: CastB6F1_4_R2</text>
<text text-anchor="middle" x="2658.6885" y="-367" font-family="sans" font-size="10.00" fill="#000000">outdir: rna_seq</text>
</g>
<!-- 55&#45;&gt;28 -->
<g id="edge78" class="edge">
<title>55&#45;&gt;28</title>
<path fill="none" stroke="#c0c0c0" stroke-width="2" d="M2619.278,-359.8133C2602.1793,-350.1874 2582.1538,-338.9138 2564.8617,-329.179"/>
<polygon fill="#c0c0c0" stroke="#c0c0c0" stroke-width="2" points="2566.5292,-326.1012 2556.0981,-324.2454 2563.0952,-332.2011 2566.5292,-326.1012"/>
</g>
<!-- 56 -->
<g id="node57" class="node">
<title>56</title>
<path fill="none" stroke="#d6d856" stroke-width="2" d="M2718.6665,-476C2718.6665,-476 2616.7105,-476 2616.7105,-476 2610.7105,-476 2604.7105,-470 2604.7105,-464 2604.7105,-464 2604.7105,-452 2604.7105,-452 2604.7105,-446 2610.7105,-440 2616.7105,-440 2616.7105,-440 2718.6665,-440 2718.6665,-440 2724.6665,-440 2730.6665,-446 2730.6665,-452 2730.6665,-452 2730.6665,-464 2730.6665,-464 2730.6665,-470 2724.6665,-476 2718.6665,-476"/>
<text text-anchor="middle" x="2667.6885" y="-461" font-family="sans" font-size="10.00" fill="#000000">download_rnaseq_CastB64</text>
<text text-anchor="middle" x="2667.6885" y="-449" font-family="sans" font-size="10.00" fill="#000000">file: 2</text>
</g>
<!-- 56&#45;&gt;28 -->
<g id="edge79" class="edge">
<title>56&#45;&gt;28</title>
<path fill="none" stroke="#c0c0c0" stroke-width="2" d="M2696.1205,-439.9601C2707.9113,-430.7801 2720.3089,-418.4872 2726.6885,-404 2734.5697,-386.1029 2738.6072,-375.5037 2726.6885,-360 2709.2528,-337.3198 2636.945,-322.1572 2583.57,-313.8162"/>
<polygon fill="#c0c0c0" stroke="#c0c0c0" stroke-width="2" points="2583.9178,-310.329 2573.5058,-312.2883 2582.8671,-317.2497 2583.9178,-310.329"/>
</g>
<!-- 56&#45;&gt;55 -->
<g id="edge101" class="edge">
<title>56&#45;&gt;55</title>
<path fill="none" stroke="#c0c0c0" stroke-width="2" d="M2665.5556,-439.9891C2664.644,-432.291 2663.5512,-423.0629 2662.5083,-414.2561"/>
<polygon fill="#c0c0c0" stroke="#c0c0c0" stroke-width="2" points="2665.9726,-413.7472 2661.3208,-404.2282 2659.0212,-414.5705 2665.9726,-413.7472"/>
</g>
<!-- 57 -->
<g id="node58" class="node">
<title>57</title>
<path fill="none" stroke="#d8c356" stroke-width="2" d="M1836.6665,-476C1836.6665,-476 1734.7105,-476 1734.7105,-476 1728.7105,-476 1722.7105,-470 1722.7105,-464 1722.7105,-464 1722.7105,-452 1722.7105,-452 1722.7105,-446 1728.7105,-440 1734.7105,-440 1734.7105,-440 1836.6665,-440 1836.6665,-440 1842.6665,-440 1848.6665,-446 1848.6665,-452 1848.6665,-452 1848.6665,-464 1848.6665,-464 1848.6665,-470 1842.6665,-476 1836.6665,-476"/>
<text text-anchor="middle" x="1785.6885" y="-461" font-family="sans" font-size="10.00" fill="#000000">download_rnaseq_CastB63</text>
<text text-anchor="middle" x="1785.6885" y="-449" font-family="sans" font-size="10.00" fill="#000000">file: 1</text>
</g>
<!-- 57&#45;&gt;29 -->
<g id="edge80" class="edge">
<title>57&#45;&gt;29</title>
<path fill="none" stroke="#c0c0c0" stroke-width="2" d="M1772.4791,-439.696C1758.8134,-418.3206 1741.9001,-382.9687 1760.6885,-360 1811.7921,-297.5261 1860.2292,-342.9395 1938.6885,-324 1940.1261,-323.653 1941.58,-323.2956 1943.0452,-322.9298"/>
<polygon fill="#c0c0c0" stroke="#c0c0c0" stroke-width="2" points="1944.0098,-326.2957 1952.8215,-320.4131 1942.2647,-319.5167 1944.0098,-326.2957"/>
</g>
<!-- 59 -->
<g id="node60" class="node">
<title>59</title>
<path fill="none" stroke="#56b9d8" stroke-width="2" d="M1875.5661,-404C1875.5661,-404 1781.8109,-404 1781.8109,-404 1775.8109,-404 1769.8109,-398 1769.8109,-392 1769.8109,-392 1769.8109,-372 1769.8109,-372 1769.8109,-366 1775.8109,-360 1781.8109,-360 1781.8109,-360 1875.5661,-360 1875.5661,-360 1881.5661,-360 1887.5661,-366 1887.5661,-372 1887.5661,-372 1887.5661,-392 1887.5661,-392 1887.5661,-398 1881.5661,-404 1875.5661,-404"/>
<text text-anchor="middle" x="1828.6885" y="-391" font-family="sans" font-size="10.00" fill="#000000">fastq_md5</text>
<text text-anchor="middle" x="1828.6885" y="-379" font-family="sans" font-size="10.00" fill="#000000">archive: CastB6F1_3_R1</text>
<text text-anchor="middle" x="1828.6885" y="-367" font-family="sans" font-size="10.00" fill="#000000">outdir: rna_seq</text>
</g>
<!-- 57&#45;&gt;59 -->
<g id="edge102" class="edge">
<title>57&#45;&gt;59</title>
<path fill="none" stroke="#c0c0c0" stroke-width="2" d="M1795.8789,-439.9891C1800.4238,-431.9563 1805.9112,-422.2576 1811.0868,-413.11"/>
<polygon fill="#c0c0c0" stroke="#c0c0c0" stroke-width="2" points="1814.2338,-414.6553 1816.112,-404.2282 1808.1414,-411.2082 1814.2338,-414.6553"/>
</g>
<!-- 58 -->
<g id="node59" class="node">
<title>58</title>
<path fill="none" stroke="#d8c356" stroke-width="2" d="M2017.6665,-476C2017.6665,-476 1915.7105,-476 1915.7105,-476 1909.7105,-476 1903.7105,-470 1903.7105,-464 1903.7105,-464 1903.7105,-452 1903.7105,-452 1903.7105,-446 1909.7105,-440 1915.7105,-440 1915.7105,-440 2017.6665,-440 2017.6665,-440 2023.6665,-440 2029.6665,-446 2029.6665,-452 2029.6665,-452 2029.6665,-464 2029.6665,-464 2029.6665,-470 2023.6665,-476 2017.6665,-476"/>
<text text-anchor="middle" x="1966.6885" y="-461" font-family="sans" font-size="10.00" fill="#000000">download_rnaseq_CastB63</text>
<text text-anchor="middle" x="1966.6885" y="-449" font-family="sans" font-size="10.00" fill="#000000">file: 2</text>
</g>
<!-- 58&#45;&gt;29 -->
<g id="edge81" class="edge">
<title>58&#45;&gt;29</title>
<path fill="none" stroke="#c0c0c0" stroke-width="2" d="M1952.5652,-439.7354C1938.8531,-419.6178 1921.8479,-386.5939 1934.6885,-360 1940.3779,-348.2168 1950.0263,-338.2163 1960.295,-330.144"/>
<polygon fill="#c0c0c0" stroke="#c0c0c0" stroke-width="2" points="1962.583,-332.8073 1968.5995,-324.0865 1958.4578,-327.152 1962.583,-332.8073"/>
</g>
<!-- 60 -->
<g id="node61" class="node">
<title>60</title>
<path fill="none" stroke="#56b9d8" stroke-width="2" d="M2049.5661,-404C2049.5661,-404 1955.8109,-404 1955.8109,-404 1949.8109,-404 1943.8109,-398 1943.8109,-392 1943.8109,-392 1943.8109,-372 1943.8109,-372 1943.8109,-366 1949.8109,-360 1955.8109,-360 1955.8109,-360 2049.5661,-360 2049.5661,-360 2055.5661,-360 2061.5661,-366 2061.5661,-372 2061.5661,-372 2061.5661,-392 2061.5661,-392 2061.5661,-398 2055.5661,-404 2049.5661,-404"/>
<text text-anchor="middle" x="2002.6885" y="-391" font-family="sans" font-size="10.00" fill="#000000">fastq_md5</text>
<text text-anchor="middle" x="2002.6885" y="-379" font-family="sans" font-size="10.00" fill="#000000">archive: CastB6F1_3_R2</text>
<text text-anchor="middle" x="2002.6885" y="-367" font-family="sans" font-size="10.00" fill="#000000">outdir: rna_seq</text>
</g>
<!-- 58&#45;&gt;60 -->
<g id="edge103" class="edge">
<title>58&#45;&gt;60</title>
<path fill="none" stroke="#c0c0c0" stroke-width="2" d="M1975.22,-439.9891C1978.9854,-432.04 1983.5235,-422.4594 1987.8167,-413.396"/>
<polygon fill="#c0c0c0" stroke="#c0c0c0" stroke-width="2" points="1991.0415,-414.7639 1992.1593,-404.2282 1984.7153,-411.7673 1991.0415,-414.7639"/>
</g>
<!-- 59&#45;&gt;29 -->
<g id="edge82" class="edge">
<title>59&#45;&gt;29</title>
<path fill="none" stroke="#c0c0c0" stroke-width="2" d="M1879.4843,-359.8133C1902.3184,-349.8398 1929.2023,-338.0974 1952.0212,-328.1305"/>
<polygon fill="#c0c0c0" stroke="#c0c0c0" stroke-width="2" points="1953.4373,-331.3314 1961.2003,-324.1213 1950.6354,-324.9166 1953.4373,-331.3314"/>
</g>
<!-- 60&#45;&gt;29 -->
<g id="edge83" class="edge">
<title>60&#45;&gt;29</title>
<path fill="none" stroke="#c0c0c0" stroke-width="2" d="M2002.6885,-359.6086C2002.6885,-351.7272 2002.6885,-342.7616 2002.6885,-334.4482"/>
<polygon fill="#c0c0c0" stroke="#c0c0c0" stroke-width="2" points="2006.1886,-334.3974 2002.6885,-324.3975 1999.1886,-334.3975 2006.1886,-334.3974"/>
</g>
<!-- 61 -->
<g id="node62" class="node">
<title>61</title>
<path fill="none" stroke="#56b9d8" stroke-width="2" d="M105.5661,-404C105.5661,-404 11.8109,-404 11.8109,-404 5.8109,-404 -.1891,-398 -.1891,-392 -.1891,-392 -.1891,-372 -.1891,-372 -.1891,-366 5.8109,-360 11.8109,-360 11.8109,-360 105.5661,-360 105.5661,-360 111.5661,-360 117.5661,-366 117.5661,-372 117.5661,-372 117.5661,-392 117.5661,-392 117.5661,-398 111.5661,-404 105.5661,-404"/>
<text text-anchor="middle" x="58.6885" y="-391" font-family="sans" font-size="10.00" fill="#000000">fastq_md5</text>
<text text-anchor="middle" x="58.6885" y="-379" font-family="sans" font-size="10.00" fill="#000000">archive: B6CastF1_2_R2</text>
<text text-anchor="middle" x="58.6885" y="-367" font-family="sans" font-size="10.00" fill="#000000">outdir: rna_seq</text>
</g>
<!-- 61&#45;&gt;30 -->
<g id="edge84" class="edge">
<title>61&#45;&gt;30</title>
<path fill="none" stroke="#c0c0c0" stroke-width="2" d="M95.1797,-359.8133C110.8666,-350.2757 129.214,-339.1205 145.1239,-329.4473"/>
<polygon fill="#c0c0c0" stroke="#c0c0c0" stroke-width="2" points="146.9532,-332.4312 153.6796,-324.2454 143.3166,-326.45 146.9532,-332.4312"/>
</g>
<!-- 62 -->
<g id="node63" class="node">
<title>62</title>
<path fill="none" stroke="#80d856" stroke-width="2" d="M126.6665,-476C126.6665,-476 24.7105,-476 24.7105,-476 18.7105,-476 12.7105,-470 12.7105,-464 12.7105,-464 12.7105,-452 12.7105,-452 12.7105,-446 18.7105,-440 24.7105,-440 24.7105,-440 126.6665,-440 126.6665,-440 132.6665,-440 138.6665,-446 138.6665,-452 138.6665,-452 138.6665,-464 138.6665,-464 138.6665,-470 132.6665,-476 126.6665,-476"/>
<text text-anchor="middle" x="75.6885" y="-461" font-family="sans" font-size="10.00" fill="#000000">download_rnaseq_B6Cast2</text>
<text text-anchor="middle" x="75.6885" y="-449" font-family="sans" font-size="10.00" fill="#000000">file: 2</text>
</g>
<!-- 62&#45;&gt;30 -->
<g id="edge85" class="edge">
<title>62&#45;&gt;30</title>
<path fill="none" stroke="#c0c0c0" stroke-width="2" d="M94.7483,-439.9507C104.8513,-429.8779 117.116,-416.8082 126.6885,-404 143.5741,-381.4068 159.4165,-353.3992 170.0924,-333.1186"/>
<polygon fill="#c0c0c0" stroke="#c0c0c0" stroke-width="2" points="173.264,-334.6055 174.7596,-324.1167 167.0496,-331.3835 173.264,-334.6055"/>
</g>
<!-- 62&#45;&gt;61 -->
<g id="edge104" class="edge">
<title>62&#45;&gt;61</title>
<path fill="none" stroke="#c0c0c0" stroke-width="2" d="M71.6597,-439.9891C69.9378,-432.291 67.8736,-423.0629 65.9037,-414.2561"/>
<polygon fill="#c0c0c0" stroke="#c0c0c0" stroke-width="2" points="69.2592,-413.223 63.6606,-404.2282 62.428,-414.7511 69.2592,-413.223"/>
</g>
<!-- 63 -->
<g id="node64" class="node">
<title>63</title>
<path fill="none" stroke="#80d856" stroke-width="2" d="M304.6665,-476C304.6665,-476 202.7105,-476 202.7105,-476 196.7105,-476 190.7105,-470 190.7105,-464 190.7105,-464 190.7105,-452 190.7105,-452 190.7105,-446 196.7105,-440 202.7105,-440 202.7105,-440 304.6665,-440 304.6665,-440 310.6665,-440 316.6665,-446 316.6665,-452 316.6665,-452 316.6665,-464 316.6665,-464 316.6665,-470 310.6665,-476 304.6665,-476"/>
<text text-anchor="middle" x="253.6885" y="-461" font-family="sans" font-size="10.00" fill="#000000">download_rnaseq_B6Cast2</text>
<text text-anchor="middle" x="253.6885" y="-449" font-family="sans" font-size="10.00" fill="#000000">file: 1</text>
</g>
<!-- 63&#45;&gt;30 -->
<g id="edge86" class="edge">
<title>63&#45;&gt;30</title>
<path fill="none" stroke="#c0c0c0" stroke-width="2" d="M231.5234,-439.8868C221.2079,-430.2805 209.6952,-417.6523 202.6885,-404 191.5538,-382.3043 186.9193,-354.8512 185.0033,-334.5246"/>
<polygon fill="#c0c0c0" stroke="#c0c0c0" stroke-width="2" points="188.4755,-334.0294 184.2117,-324.3304 181.4965,-334.5714 188.4755,-334.0294"/>
</g>
<!-- 64 -->
<g id="node65" class="node">
<title>64</title>
<path fill="none" stroke="#56b9d8" stroke-width="2" d="M317.5661,-404C317.5661,-404 223.8109,-404 223.8109,-404 217.8109,-404 211.8109,-398 211.8109,-392 211.8109,-392 211.8109,-372 211.8109,-372 211.8109,-366 217.8109,-360 223.8109,-360 223.8109,-360 317.5661,-360 317.5661,-360 323.5661,-360 329.5661,-366 329.5661,-372 329.5661,-372 329.5661,-392 329.5661,-392 329.5661,-398 323.5661,-404 317.5661,-404"/>
<text text-anchor="middle" x="270.6885" y="-391" font-family="sans" font-size="10.00" fill="#000000">fastq_md5</text>
<text text-anchor="middle" x="270.6885" y="-379" font-family="sans" font-size="10.00" fill="#000000">archive: B6CastF1_2_R1</text>
<text text-anchor="middle" x="270.6885" y="-367" font-family="sans" font-size="10.00" fill="#000000">outdir: rna_seq</text>
</g>
<!-- 63&#45;&gt;64 -->
<g id="edge105" class="edge">
<title>63&#45;&gt;64</title>
<path fill="none" stroke="#c0c0c0" stroke-width="2" d="M257.7173,-439.9891C259.4392,-432.291 261.5034,-423.0629 263.4733,-414.2561"/>
<polygon fill="#c0c0c0" stroke="#c0c0c0" stroke-width="2" points="266.949,-414.7511 265.7164,-404.2282 260.1178,-413.223 266.949,-414.7511"/>
</g>
<!-- 64&#45;&gt;30 -->
<g id="edge87" class="edge">
<title>64&#45;&gt;30</title>
<path fill="none" stroke="#c0c0c0" stroke-width="2" d="M245.0562,-359.6086C234.7513,-350.6065 222.8271,-340.1901 212.2458,-330.9466"/>
<polygon fill="#c0c0c0" stroke="#c0c0c0" stroke-width="2" points="214.2988,-328.0926 204.465,-324.1496 209.6935,-333.3644 214.2988,-328.0926"/>
</g>
<!-- 65 -->
<g id="node66" class="node">
<title>65</title>
<path fill="none" stroke="#56c1d8" stroke-width="2" d="M1489.0157,-620C1489.0157,-620 1426.3613,-620 1426.3613,-620 1420.3613,-620 1414.3613,-614 1414.3613,-608 1414.3613,-608 1414.3613,-596 1414.3613,-596 1414.3613,-590 1420.3613,-584 1426.3613,-584 1426.3613,-584 1489.0157,-584 1489.0157,-584 1495.0157,-584 1501.0157,-590 1501.0157,-596 1501.0157,-596 1501.0157,-608 1501.0157,-608 1501.0157,-614 1495.0157,-620 1489.0157,-620"/>
<text text-anchor="middle" x="1457.6885" y="-605" font-family="sans" font-size="10.00" fill="#000000">download_vcf</text>
<text text-anchor="middle" x="1457.6885" y="-593" font-family="sans" font-size="10.00" fill="#000000">strain: CAST_EiJ</text>
</g>
<!-- 65&#45;&gt;31 -->
<g id="edge88" class="edge">
<title>65&#45;&gt;31</title>
<path fill="none" stroke="#c0c0c0" stroke-width="2" d="M1457.6885,-583.8314C1457.6885,-576.131 1457.6885,-566.9743 1457.6885,-558.4166"/>
<polygon fill="#c0c0c0" stroke="#c0c0c0" stroke-width="2" points="1461.1886,-558.4132 1457.6885,-548.4133 1454.1886,-558.4133 1461.1886,-558.4132"/>
</g>
<!-- 66 -->
<g id="node67" class="node">
<title>66</title>
<path fill="none" stroke="#5673d8" stroke-width="2" d="M1708.5016,-620C1708.5016,-620 1580.8754,-620 1580.8754,-620 1574.8754,-620 1568.8754,-614 1568.8754,-608 1568.8754,-608 1568.8754,-596 1568.8754,-596 1568.8754,-590 1574.8754,-584 1580.8754,-584 1580.8754,-584 1708.5016,-584 1708.5016,-584 1714.5016,-584 1720.5016,-590 1720.5016,-596 1720.5016,-596 1720.5016,-608 1720.5016,-608 1720.5016,-614 1714.5016,-620 1708.5016,-620"/>
<text text-anchor="middle" x="1644.6885" y="-605" font-family="sans" font-size="10.00" fill="#000000">gunzip_fa</text>
<text text-anchor="middle" x="1644.6885" y="-593" font-family="sans" font-size="10.00" fill="#000000">file: ../genome_data/GRCm38_90</text>
</g>
<!-- 66&#45;&gt;32 -->
<g id="edge89" class="edge">
<title>66&#45;&gt;32</title>
<path fill="none" stroke="#c0c0c0" stroke-width="2" d="M1644.6885,-583.8314C1644.6885,-576.131 1644.6885,-566.9743 1644.6885,-558.4166"/>
<polygon fill="#c0c0c0" stroke="#c0c0c0" stroke-width="2" points="1648.1886,-558.4132 1644.6885,-548.4133 1641.1886,-558.4133 1648.1886,-558.4132"/>
</g>
<!-- 67 -->
<g id="node68" class="node">
<title>67</title>
<path fill="none" stroke="#56c9d8" stroke-width="2" d="M1686.9518,-692C1686.9518,-692 1602.4252,-692 1602.4252,-692 1596.4252,-692 1590.4252,-686 1590.4252,-680 1590.4252,-680 1590.4252,-668 1590.4252,-668 1590.4252,-662 1596.4252,-656 1602.4252,-656 1602.4252,-656 1686.9518,-656 1686.9518,-656 1692.9518,-656 1698.9518,-662 1698.9518,-668 1698.9518,-668 1698.9518,-680 1698.9518,-680 1698.9518,-686 1692.9518,-692 1686.9518,-692"/>
<text text-anchor="middle" x="1644.6885" y="-671" font-family="sans" font-size="10.00" fill="#000000">download_B6_genome</text>
</g>
<!-- 67&#45;&gt;66 -->
<g id="edge106" class="edge">
<title>67&#45;&gt;66</title>
<path fill="none" stroke="#c0c0c0" stroke-width="2" d="M1644.6885,-655.8314C1644.6885,-648.131 1644.6885,-638.9743 1644.6885,-630.4166"/>
<polygon fill="#c0c0c0" stroke="#c0c0c0" stroke-width="2" points="1648.1886,-630.4132 1644.6885,-620.4133 1641.1886,-630.4133 1648.1886,-630.4132"/>
</g>
</g>
</svg>
