<?xml version="1.0" encoding="UTF-8" standalone="no"?>
<!DOCTYPE svg PUBLIC "-//W3C//DTD SVG 1.1//EN"
 "http://www.w3.org/Graphics/SVG/1.1/DTD/svg11.dtd">
<!-- Generated by graphviz version 2.40.1 (20161225.0304)
 -->
<!-- Title: snakemake_dag Pages: 1 -->
<svg width="2468pt" height="700pt"
 viewBox="0.00 0.00 2468.28 700.00" xmlns="http://www.w3.org/2000/svg" xmlns:xlink="http://www.w3.org/1999/xlink">
<g id="graph0" class="graph" transform="scale(1 1) rotate(0) translate(4 696)">
<title>snakemake_dag</title>
<polygon fill="#ffffff" stroke="transparent" points="-4,4 -4,-696 2464.277,-696 2464.277,4 -4,4"/>
<!-- 0 -->
<g id="node1" class="node">
<title>0</title>
<path fill="none" stroke="#56d87b" stroke-width="2" d="M1296.7809,-328C1296.7809,-328 1163.4961,-328 1163.4961,-328 1157.4961,-328 1151.4961,-322 1151.4961,-316 1151.4961,-316 1151.4961,-304 1151.4961,-304 1151.4961,-298 1157.4961,-292 1163.4961,-292 1163.4961,-292 1296.7809,-292 1296.7809,-292 1302.7809,-292 1308.7809,-298 1308.7809,-304 1308.7809,-304 1308.7809,-316 1308.7809,-316 1308.7809,-322 1302.7809,-328 1296.7809,-328"/>
<text text-anchor="middle" x="1230.1385" y="-313" font-family="sans" font-size="10.00" fill="#000000">build_hisat2</text>
<text text-anchor="middle" x="1230.1385" y="-301" font-family="sans" font-size="10.00" fill="#000000">genome: GRCm38.Cast_N&#45;masked</text>
</g>
<!-- 9 -->
<g id="node10" class="node">
<title>9</title>
<path fill="none" stroke="#68d856" stroke-width="2" d="M1205.2426,-252C1205.2426,-252 1167.0344,-252 1167.0344,-252 1161.0344,-252 1155.0344,-246 1155.0344,-240 1155.0344,-240 1155.0344,-228 1155.0344,-228 1155.0344,-222 1161.0344,-216 1167.0344,-216 1167.0344,-216 1205.2426,-216 1205.2426,-216 1211.2426,-216 1217.2426,-222 1217.2426,-228 1217.2426,-228 1217.2426,-240 1217.2426,-240 1217.2426,-246 1211.2426,-252 1205.2426,-252"/>
<text text-anchor="middle" x="1186.1385" y="-231" font-family="sans" font-size="10.00" fill="#000000">map_hisat2</text>
</g>
<!-- 0&#45;&gt;9 -->
<g id="edge10" class="edge">
<title>0&#45;&gt;9</title>
<path fill="none" stroke="#c0c0c0" stroke-width="2" d="M1219.7111,-291.9891C1214.3256,-282.6868 1207.6466,-271.1503 1201.6675,-260.8229"/>
<polygon fill="#c0c0c0" stroke="#c0c0c0" stroke-width="2" points="1204.6829,-259.0457 1196.6435,-252.145 1198.6249,-262.553 1204.6829,-259.0457"/>
</g>
<!-- 15 -->
<g id="node16" class="node">
<title>15</title>
<path fill="none" stroke="#68d856" stroke-width="2" d="M1293.2426,-252C1293.2426,-252 1255.0344,-252 1255.0344,-252 1249.0344,-252 1243.0344,-246 1243.0344,-240 1243.0344,-240 1243.0344,-228 1243.0344,-228 1243.0344,-222 1249.0344,-216 1255.0344,-216 1255.0344,-216 1293.2426,-216 1293.2426,-216 1299.2426,-216 1305.2426,-222 1305.2426,-228 1305.2426,-228 1305.2426,-240 1305.2426,-240 1305.2426,-246 1299.2426,-252 1293.2426,-252"/>
<text text-anchor="middle" x="1274.1385" y="-231" font-family="sans" font-size="10.00" fill="#000000">map_hisat2</text>
</g>
<!-- 0&#45;&gt;15 -->
<g id="edge16" class="edge">
<title>0&#45;&gt;15</title>
<path fill="none" stroke="#c0c0c0" stroke-width="2" d="M1240.5659,-291.9891C1245.9514,-282.6868 1252.6304,-271.1503 1258.6095,-260.8229"/>
<polygon fill="#c0c0c0" stroke="#c0c0c0" stroke-width="2" points="1261.6521,-262.553 1263.6335,-252.145 1255.5941,-259.0457 1261.6521,-262.553"/>
</g>
<!-- 19 -->
<g id="node20" class="node">
<title>19</title>
<path fill="none" stroke="#68d856" stroke-width="2" d="M851.2426,-252C851.2426,-252 813.0344,-252 813.0344,-252 807.0344,-252 801.0344,-246 801.0344,-240 801.0344,-240 801.0344,-228 801.0344,-228 801.0344,-222 807.0344,-216 813.0344,-216 813.0344,-216 851.2426,-216 851.2426,-216 857.2426,-216 863.2426,-222 863.2426,-228 863.2426,-228 863.2426,-240 863.2426,-240 863.2426,-246 857.2426,-252 851.2426,-252"/>
<text text-anchor="middle" x="832.1385" y="-231" font-family="sans" font-size="10.00" fill="#000000">map_hisat2</text>
</g>
<!-- 0&#45;&gt;19 -->
<g id="edge24" class="edge">
<title>0&#45;&gt;19</title>
<path fill="none" stroke="#c0c0c0" stroke-width="2" d="M1151.2917,-303.2216C1080.1464,-295.7505 972.8681,-281.1116 872.9303,-251.8277"/>
<polygon fill="#c0c0c0" stroke="#c0c0c0" stroke-width="2" points="873.8666,-248.4547 863.2833,-248.9479 871.8642,-255.1622 873.8666,-248.4547"/>
</g>
<!-- 30 -->
<g id="node31" class="node">
<title>30</title>
<path fill="none" stroke="#68d856" stroke-width="2" d="M1449.2426,-252C1449.2426,-252 1411.0344,-252 1411.0344,-252 1405.0344,-252 1399.0344,-246 1399.0344,-240 1399.0344,-240 1399.0344,-228 1399.0344,-228 1399.0344,-222 1405.0344,-216 1411.0344,-216 1411.0344,-216 1449.2426,-216 1449.2426,-216 1455.2426,-216 1461.2426,-222 1461.2426,-228 1461.2426,-228 1461.2426,-240 1461.2426,-240 1461.2426,-246 1455.2426,-252 1449.2426,-252"/>
<text text-anchor="middle" x="1430.1385" y="-231" font-family="sans" font-size="10.00" fill="#000000">map_hisat2</text>
</g>
<!-- 0&#45;&gt;30 -->
<g id="edge42" class="edge">
<title>0&#45;&gt;30</title>
<path fill="none" stroke="#c0c0c0" stroke-width="2" d="M1277.5357,-291.9891C1311.5579,-279.0606 1356.9364,-261.8168 1389.3471,-249.5007"/>
<polygon fill="#c0c0c0" stroke="#c0c0c0" stroke-width="2" points="1390.8577,-252.6709 1398.9623,-245.847 1388.3712,-246.1275 1390.8577,-252.6709"/>
</g>
<!-- 36 -->
<g id="node37" class="node">
<title>36</title>
<path fill="none" stroke="#68d856" stroke-width="2" d="M1087.2426,-252C1087.2426,-252 1049.0344,-252 1049.0344,-252 1043.0344,-252 1037.0344,-246 1037.0344,-240 1037.0344,-240 1037.0344,-228 1037.0344,-228 1037.0344,-222 1043.0344,-216 1049.0344,-216 1049.0344,-216 1087.2426,-216 1087.2426,-216 1093.2426,-216 1099.2426,-222 1099.2426,-228 1099.2426,-228 1099.2426,-240 1099.2426,-240 1099.2426,-246 1093.2426,-252 1087.2426,-252"/>
<text text-anchor="middle" x="1068.1385" y="-231" font-family="sans" font-size="10.00" fill="#000000">map_hisat2</text>
</g>
<!-- 0&#45;&gt;36 -->
<g id="edge49" class="edge">
<title>0&#45;&gt;36</title>
<path fill="none" stroke="#c0c0c0" stroke-width="2" d="M1191.7468,-291.9891C1166.6909,-280.2345 1134.031,-264.9125 1108.5755,-252.9704"/>
<polygon fill="#c0c0c0" stroke="#c0c0c0" stroke-width="2" points="1109.7428,-249.6521 1099.203,-248.5735 1106.7697,-255.9894 1109.7428,-249.6521"/>
</g>
<!-- 37 -->
<g id="node38" class="node">
<title>37</title>
<path fill="none" stroke="#68d856" stroke-width="2" d="M1567.2426,-252C1567.2426,-252 1529.0344,-252 1529.0344,-252 1523.0344,-252 1517.0344,-246 1517.0344,-240 1517.0344,-240 1517.0344,-228 1517.0344,-228 1517.0344,-222 1523.0344,-216 1529.0344,-216 1529.0344,-216 1567.2426,-216 1567.2426,-216 1573.2426,-216 1579.2426,-222 1579.2426,-228 1579.2426,-228 1579.2426,-240 1579.2426,-240 1579.2426,-246 1573.2426,-252 1567.2426,-252"/>
<text text-anchor="middle" x="1548.1385" y="-231" font-family="sans" font-size="10.00" fill="#000000">map_hisat2</text>
</g>
<!-- 0&#45;&gt;37 -->
<g id="edge52" class="edge">
<title>0&#45;&gt;37</title>
<path fill="none" stroke="#c0c0c0" stroke-width="2" d="M1305.5001,-291.9891C1368.5609,-276.9179 1456.1595,-255.9824 1507.0275,-243.8253"/>
<polygon fill="#c0c0c0" stroke="#c0c0c0" stroke-width="2" points="1508.0854,-247.1711 1516.9979,-241.4424 1506.4582,-240.3628 1508.0854,-247.1711"/>
</g>
<!-- 42 -->
<g id="node43" class="node">
<title>42</title>
<path fill="none" stroke="#68d856" stroke-width="2" d="M1647.2426,-252C1647.2426,-252 1609.0344,-252 1609.0344,-252 1603.0344,-252 1597.0344,-246 1597.0344,-240 1597.0344,-240 1597.0344,-228 1597.0344,-228 1597.0344,-222 1603.0344,-216 1609.0344,-216 1609.0344,-216 1647.2426,-216 1647.2426,-216 1653.2426,-216 1659.2426,-222 1659.2426,-228 1659.2426,-228 1659.2426,-240 1659.2426,-240 1659.2426,-246 1653.2426,-252 1647.2426,-252"/>
<text text-anchor="middle" x="1628.1385" y="-231" font-family="sans" font-size="10.00" fill="#000000">map_hisat2</text>
</g>
<!-- 0&#45;&gt;42 -->
<g id="edge61" class="edge">
<title>0&#45;&gt;42</title>
<path fill="none" stroke="#c0c0c0" stroke-width="2" d="M1308.9853,-303.2216C1380.1306,-295.7505 1487.4089,-281.1116 1587.3467,-251.8277"/>
<polygon fill="#c0c0c0" stroke="#c0c0c0" stroke-width="2" points="1588.4128,-255.1622 1596.9937,-248.9479 1586.4104,-248.4547 1588.4128,-255.1622"/>
</g>
<!-- 45 -->
<g id="node46" class="node">
<title>45</title>
<path fill="none" stroke="#68d856" stroke-width="2" d="M931.2426,-252C931.2426,-252 893.0344,-252 893.0344,-252 887.0344,-252 881.0344,-246 881.0344,-240 881.0344,-240 881.0344,-228 881.0344,-228 881.0344,-222 887.0344,-216 893.0344,-216 893.0344,-216 931.2426,-216 931.2426,-216 937.2426,-216 943.2426,-222 943.2426,-228 943.2426,-228 943.2426,-240 943.2426,-240 943.2426,-246 937.2426,-252 931.2426,-252"/>
<text text-anchor="middle" x="912.1385" y="-231" font-family="sans" font-size="10.00" fill="#000000">map_hisat2</text>
</g>
<!-- 0&#45;&gt;45 -->
<g id="edge66" class="edge">
<title>0&#45;&gt;45</title>
<path fill="none" stroke="#c0c0c0" stroke-width="2" d="M1154.7769,-291.9891C1091.7161,-276.9179 1004.1175,-255.9824 953.2495,-243.8253"/>
<polygon fill="#c0c0c0" stroke="#c0c0c0" stroke-width="2" points="953.8188,-240.3628 943.2791,-241.4424 952.1916,-247.1711 953.8188,-240.3628"/>
</g>
<!-- 1 -->
<g id="node2" class="node">
<title>1</title>
<path fill="none" stroke="#56d88a" stroke-width="2" d="M1517.6395,-180C1517.6395,-180 1460.6375,-180 1460.6375,-180 1454.6375,-180 1448.6375,-174 1448.6375,-168 1448.6375,-168 1448.6375,-156 1448.6375,-156 1448.6375,-150 1454.6375,-144 1460.6375,-144 1460.6375,-144 1517.6395,-144 1517.6395,-144 1523.6395,-144 1529.6395,-150 1529.6395,-156 1529.6395,-156 1529.6395,-168 1529.6395,-168 1529.6395,-174 1523.6395,-180 1517.6395,-180"/>
<text text-anchor="middle" x="1489.1385" y="-159" font-family="sans" font-size="10.00" fill="#000000">snp_split_hisat2</text>
</g>
<!-- 21 -->
<g id="node22" class="node">
<title>21</title>
<path fill="none" stroke="#afd856" stroke-width="2" d="M1327.6674,-108C1327.6674,-108 1230.6096,-108 1230.6096,-108 1224.6096,-108 1218.6096,-102 1218.6096,-96 1218.6096,-96 1218.6096,-84 1218.6096,-84 1218.6096,-78 1224.6096,-72 1230.6096,-72 1230.6096,-72 1327.6674,-72 1327.6674,-72 1333.6674,-72 1339.6674,-78 1339.6674,-84 1339.6674,-84 1339.6674,-96 1339.6674,-96 1339.6674,-102 1333.6674,-108 1327.6674,-108"/>
<text text-anchor="middle" x="1279.1385" y="-87" font-family="sans" font-size="10.00" fill="#000000">rnaseq_analysis_notebook</text>
</g>
<!-- 1&#45;&gt;21 -->
<g id="edge28" class="edge">
<title>1&#45;&gt;21</title>
<path fill="none" stroke="#c0c0c0" stroke-width="2" d="M1448.3994,-148.0323C1417.9813,-137.6032 1375.8723,-123.1659 1341.2652,-111.3006"/>
<polygon fill="#c0c0c0" stroke="#c0c0c0" stroke-width="2" points="1342.3138,-107.9602 1331.7192,-108.0277 1340.0435,-114.5818 1342.3138,-107.9602"/>
</g>
<!-- 2 -->
<g id="node3" class="node">
<title>2</title>
<path fill="none" stroke="#d87d56" stroke-width="2" d="M1510.4158,-404C1510.4158,-404 1417.8612,-404 1417.8612,-404 1411.8612,-404 1405.8612,-398 1405.8612,-392 1405.8612,-392 1405.8612,-380 1405.8612,-380 1405.8612,-374 1411.8612,-368 1417.8612,-368 1417.8612,-368 1510.4158,-368 1510.4158,-368 1516.4158,-368 1522.4158,-374 1522.4158,-380 1522.4158,-380 1522.4158,-392 1522.4158,-392 1522.4158,-398 1516.4158,-404 1510.4158,-404"/>
<text text-anchor="middle" x="1464.1385" y="-389" font-family="sans" font-size="10.00" fill="#000000">download_rnaseq</text>
<text text-anchor="middle" x="1464.1385" y="-377" font-family="sans" font-size="10.00" fill="#000000">sample: B6CastF1_3_R2</text>
</g>
<!-- 35 -->
<g id="node36" class="node">
<title>35</title>
<path fill="none" stroke="#d6d856" stroke-width="2" d="M1718.7473,-332C1718.7473,-332 1643.5297,-332 1643.5297,-332 1637.5297,-332 1631.5297,-326 1631.5297,-320 1631.5297,-320 1631.5297,-300 1631.5297,-300 1631.5297,-294 1637.5297,-288 1643.5297,-288 1643.5297,-288 1718.7473,-288 1718.7473,-288 1724.7473,-288 1730.7473,-294 1730.7473,-300 1730.7473,-300 1730.7473,-320 1730.7473,-320 1730.7473,-326 1724.7473,-332 1718.7473,-332"/>
<text text-anchor="middle" x="1681.1385" y="-319" font-family="sans" font-size="10.00" fill="#000000">trim_galore</text>
<text text-anchor="middle" x="1681.1385" y="-307" font-family="sans" font-size="10.00" fill="#000000">outdir: rna_seq</text>
<text text-anchor="middle" x="1681.1385" y="-295" font-family="sans" font-size="10.00" fill="#000000">sample: B6CastF1_3</text>
</g>
<!-- 2&#45;&gt;35 -->
<g id="edge47" class="edge">
<title>2&#45;&gt;35</title>
<path fill="none" stroke="#c0c0c0" stroke-width="2" d="M1515.5645,-367.9891C1547.3904,-356.8427 1588.3753,-342.4885 1621.6055,-330.8503"/>
<polygon fill="#c0c0c0" stroke="#c0c0c0" stroke-width="2" points="1622.9223,-334.0976 1631.2032,-327.4888 1620.6084,-327.4911 1622.9223,-334.0976"/>
</g>
<!-- 3 -->
<g id="node4" class="node">
<title>3</title>
<path fill="none" stroke="#56d88a" stroke-width="2" d="M1406.6395,-180C1406.6395,-180 1349.6375,-180 1349.6375,-180 1343.6375,-180 1337.6375,-174 1337.6375,-168 1337.6375,-168 1337.6375,-156 1337.6375,-156 1337.6375,-150 1343.6375,-144 1349.6375,-144 1349.6375,-144 1406.6395,-144 1406.6395,-144 1412.6395,-144 1418.6395,-150 1418.6395,-156 1418.6395,-156 1418.6395,-168 1418.6395,-168 1418.6395,-174 1412.6395,-180 1406.6395,-180"/>
<text text-anchor="middle" x="1378.1385" y="-159" font-family="sans" font-size="10.00" fill="#000000">snp_split_hisat2</text>
</g>
<!-- 3&#45;&gt;21 -->
<g id="edge29" class="edge">
<title>3&#45;&gt;21</title>
<path fill="none" stroke="#c0c0c0" stroke-width="2" d="M1353.1566,-143.8314C1340.8457,-134.8779 1325.8278,-123.9558 1312.5448,-114.2955"/>
<polygon fill="#c0c0c0" stroke="#c0c0c0" stroke-width="2" points="1314.2584,-111.214 1304.1124,-108.1628 1310.1412,-116.8752 1314.2584,-111.214"/>
</g>
<!-- 4 -->
<g id="node5" class="node">
<title>4</title>
<path fill="none" stroke="#d87d56" stroke-width="2" d="M640.4158,-404C640.4158,-404 547.8612,-404 547.8612,-404 541.8612,-404 535.8612,-398 535.8612,-392 535.8612,-392 535.8612,-380 535.8612,-380 535.8612,-374 541.8612,-368 547.8612,-368 547.8612,-368 640.4158,-368 640.4158,-368 646.4158,-368 652.4158,-374 652.4158,-380 652.4158,-380 652.4158,-392 652.4158,-392 652.4158,-398 646.4158,-404 640.4158,-404"/>
<text text-anchor="middle" x="594.1385" y="-389" font-family="sans" font-size="10.00" fill="#000000">download_rnaseq</text>
<text text-anchor="middle" x="594.1385" y="-377" font-family="sans" font-size="10.00" fill="#000000">sample: CastB6F1_5_R2</text>
</g>
<!-- 7 -->
<g id="node8" class="node">
<title>7</title>
<path fill="none" stroke="#d6d856" stroke-width="2" d="M698.7473,-332C698.7473,-332 623.5297,-332 623.5297,-332 617.5297,-332 611.5297,-326 611.5297,-320 611.5297,-320 611.5297,-300 611.5297,-300 611.5297,-294 617.5297,-288 623.5297,-288 623.5297,-288 698.7473,-288 698.7473,-288 704.7473,-288 710.7473,-294 710.7473,-300 710.7473,-300 710.7473,-320 710.7473,-320 710.7473,-326 704.7473,-332 698.7473,-332"/>
<text text-anchor="middle" x="661.1385" y="-319" font-family="sans" font-size="10.00" fill="#000000">trim_galore</text>
<text text-anchor="middle" x="661.1385" y="-307" font-family="sans" font-size="10.00" fill="#000000">outdir: rna_seq</text>
<text text-anchor="middle" x="661.1385" y="-295" font-family="sans" font-size="10.00" fill="#000000">sample: CastB6F1_5</text>
</g>
<!-- 4&#45;&gt;7 -->
<g id="edge6" class="edge">
<title>4&#45;&gt;7</title>
<path fill="none" stroke="#c0c0c0" stroke-width="2" d="M610.0166,-367.9891C617.3932,-359.6216 626.3634,-349.4464 634.718,-339.9696"/>
<polygon fill="#c0c0c0" stroke="#c0c0c0" stroke-width="2" points="637.555,-342.044 641.5426,-332.2282 632.3041,-337.4149 637.555,-342.044"/>
</g>
<!-- 5 -->
<g id="node6" class="node">
<title>5</title>
<path fill="none" stroke="#88d856" stroke-width="2" d="M1366.4018,-692C1366.4018,-692 1281.8752,-692 1281.8752,-692 1275.8752,-692 1269.8752,-686 1269.8752,-680 1269.8752,-680 1269.8752,-668 1269.8752,-668 1269.8752,-662 1275.8752,-656 1281.8752,-656 1281.8752,-656 1366.4018,-656 1366.4018,-656 1372.4018,-656 1378.4018,-662 1378.4018,-668 1378.4018,-668 1378.4018,-680 1378.4018,-680 1378.4018,-686 1372.4018,-692 1366.4018,-692"/>
<text text-anchor="middle" x="1324.1385" y="-671" font-family="sans" font-size="10.00" fill="#000000">download_B6_genome</text>
</g>
<!-- 48 -->
<g id="node49" class="node">
<title>48</title>
<path fill="none" stroke="#568ad8" stroke-width="2" d="M1387.9516,-620C1387.9516,-620 1260.3254,-620 1260.3254,-620 1254.3254,-620 1248.3254,-614 1248.3254,-608 1248.3254,-608 1248.3254,-596 1248.3254,-596 1248.3254,-590 1254.3254,-584 1260.3254,-584 1260.3254,-584 1387.9516,-584 1387.9516,-584 1393.9516,-584 1399.9516,-590 1399.9516,-596 1399.9516,-596 1399.9516,-608 1399.9516,-608 1399.9516,-614 1393.9516,-620 1387.9516,-620"/>
<text text-anchor="middle" x="1324.1385" y="-605" font-family="sans" font-size="10.00" fill="#000000">gunzip_fa</text>
<text text-anchor="middle" x="1324.1385" y="-593" font-family="sans" font-size="10.00" fill="#000000">file: ../genome_data/GRCm38_90</text>
</g>
<!-- 5&#45;&gt;48 -->
<g id="edge70" class="edge">
<title>5&#45;&gt;48</title>
<path fill="none" stroke="#c0c0c0" stroke-width="2" d="M1324.1385,-655.8314C1324.1385,-648.131 1324.1385,-638.9743 1324.1385,-630.4166"/>
<polygon fill="#c0c0c0" stroke="#c0c0c0" stroke-width="2" points="1327.6386,-630.4132 1324.1385,-620.4133 1320.6386,-630.4133 1327.6386,-630.4132"/>
</g>
<!-- 6 -->
<g id="node7" class="node">
<title>6</title>
<path fill="none" stroke="#d87d56" stroke-width="2" d="M2448.4158,-404C2448.4158,-404 2355.8612,-404 2355.8612,-404 2349.8612,-404 2343.8612,-398 2343.8612,-392 2343.8612,-392 2343.8612,-380 2343.8612,-380 2343.8612,-374 2349.8612,-368 2355.8612,-368 2355.8612,-368 2448.4158,-368 2448.4158,-368 2454.4158,-368 2460.4158,-374 2460.4158,-380 2460.4158,-380 2460.4158,-392 2460.4158,-392 2460.4158,-398 2454.4158,-404 2448.4158,-404"/>
<text text-anchor="middle" x="2402.1385" y="-389" font-family="sans" font-size="10.00" fill="#000000">download_rnaseq</text>
<text text-anchor="middle" x="2402.1385" y="-377" font-family="sans" font-size="10.00" fill="#000000">sample: B6CastF1_2_R1</text>
</g>
<!-- 8 -->
<g id="node9" class="node">
<title>8</title>
<path fill="none" stroke="#d6d856" stroke-width="2" d="M2305.7473,-332C2305.7473,-332 2230.5297,-332 2230.5297,-332 2224.5297,-332 2218.5297,-326 2218.5297,-320 2218.5297,-320 2218.5297,-300 2218.5297,-300 2218.5297,-294 2224.5297,-288 2230.5297,-288 2230.5297,-288 2305.7473,-288 2305.7473,-288 2311.7473,-288 2317.7473,-294 2317.7473,-300 2317.7473,-300 2317.7473,-320 2317.7473,-320 2317.7473,-326 2311.7473,-332 2305.7473,-332"/>
<text text-anchor="middle" x="2268.1385" y="-319" font-family="sans" font-size="10.00" fill="#000000">trim_galore</text>
<text text-anchor="middle" x="2268.1385" y="-307" font-family="sans" font-size="10.00" fill="#000000">outdir: rna_seq</text>
<text text-anchor="middle" x="2268.1385" y="-295" font-family="sans" font-size="10.00" fill="#000000">sample: B6CastF1_2</text>
</g>
<!-- 6&#45;&gt;8 -->
<g id="edge8" class="edge">
<title>6&#45;&gt;8</title>
<path fill="none" stroke="#c0c0c0" stroke-width="2" d="M2370.3824,-367.9891C2354.3014,-358.8685 2334.4337,-347.6003 2316.5012,-337.4296"/>
<polygon fill="#c0c0c0" stroke="#c0c0c0" stroke-width="2" points="2317.7554,-334.1172 2307.3303,-332.2282 2314.302,-340.2061 2317.7554,-334.1172"/>
</g>
<!-- 7&#45;&gt;36 -->
<g id="edge51" class="edge">
<title>7&#45;&gt;36</title>
<path fill="none" stroke="#c0c0c0" stroke-width="2" d="M710.8032,-290.6724C713.9415,-289.7028 717.0711,-288.801 720.1385,-288 720.1385,-288 934.6775,-254.7095 1026.8565,-240.4058"/>
<polygon fill="#c0c0c0" stroke="#c0c0c0" stroke-width="2" points="1027.6045,-243.8317 1036.9496,-238.8397 1026.5311,-236.9145 1027.6045,-243.8317"/>
</g>
<!-- 8&#45;&gt;42 -->
<g id="edge62" class="edge">
<title>8&#45;&gt;42</title>
<path fill="none" stroke="#c0c0c0" stroke-width="2" d="M2218.4695,-304.7322C2095.6427,-291.6831 1784.1678,-258.4467 1737.1385,-252 1714.7055,-248.9249 1689.7825,-244.8581 1669.4367,-241.3682"/>
<polygon fill="#c0c0c0" stroke="#c0c0c0" stroke-width="2" points="1670.001,-237.9139 1659.5505,-239.6563 1668.8066,-244.8113 1670.001,-237.9139"/>
</g>
<!-- 18 -->
<g id="node19" class="node">
<title>18</title>
<path fill="none" stroke="#56d88a" stroke-width="2" d="M1208.6395,-180C1208.6395,-180 1151.6375,-180 1151.6375,-180 1145.6375,-180 1139.6375,-174 1139.6375,-168 1139.6375,-168 1139.6375,-156 1139.6375,-156 1139.6375,-150 1145.6375,-144 1151.6375,-144 1151.6375,-144 1208.6395,-144 1208.6395,-144 1214.6395,-144 1220.6395,-150 1220.6395,-156 1220.6395,-156 1220.6395,-168 1220.6395,-168 1220.6395,-174 1214.6395,-180 1208.6395,-180"/>
<text text-anchor="middle" x="1180.1385" y="-159" font-family="sans" font-size="10.00" fill="#000000">snp_split_hisat2</text>
</g>
<!-- 9&#45;&gt;18 -->
<g id="edge22" class="edge">
<title>9&#45;&gt;18</title>
<path fill="none" stroke="#c0c0c0" stroke-width="2" d="M1184.6244,-215.8314C1183.9827,-208.131 1183.2197,-198.9743 1182.5066,-190.4166"/>
<polygon fill="#c0c0c0" stroke="#c0c0c0" stroke-width="2" points="1185.9914,-190.088 1181.6729,-180.4133 1179.0156,-190.6694 1185.9914,-190.088"/>
</g>
<!-- 10 -->
<g id="node11" class="node">
<title>10</title>
<path fill="none" stroke="#d87d56" stroke-width="2" d="M2314.4158,-404C2314.4158,-404 2221.8612,-404 2221.8612,-404 2215.8612,-404 2209.8612,-398 2209.8612,-392 2209.8612,-392 2209.8612,-380 2209.8612,-380 2209.8612,-374 2215.8612,-368 2221.8612,-368 2221.8612,-368 2314.4158,-368 2314.4158,-368 2320.4158,-368 2326.4158,-374 2326.4158,-380 2326.4158,-380 2326.4158,-392 2326.4158,-392 2326.4158,-398 2320.4158,-404 2314.4158,-404"/>
<text text-anchor="middle" x="2268.1385" y="-389" font-family="sans" font-size="10.00" fill="#000000">download_rnaseq</text>
<text text-anchor="middle" x="2268.1385" y="-377" font-family="sans" font-size="10.00" fill="#000000">sample: B6CastF1_2_R2</text>
</g>
<!-- 10&#45;&gt;8 -->
<g id="edge9" class="edge">
<title>10&#45;&gt;8</title>
<path fill="none" stroke="#c0c0c0" stroke-width="2" d="M2268.1385,-367.9891C2268.1385,-360.291 2268.1385,-351.0629 2268.1385,-342.2561"/>
<polygon fill="#c0c0c0" stroke="#c0c0c0" stroke-width="2" points="2271.6386,-342.2282 2268.1385,-332.2282 2264.6386,-342.2282 2271.6386,-342.2282"/>
</g>
<!-- 11 -->
<g id="node12" class="node">
<title>11</title>
<path fill="none" stroke="#d6d856" stroke-width="2" d="M1836.7473,-332C1836.7473,-332 1761.5297,-332 1761.5297,-332 1755.5297,-332 1749.5297,-326 1749.5297,-320 1749.5297,-320 1749.5297,-300 1749.5297,-300 1749.5297,-294 1755.5297,-288 1761.5297,-288 1761.5297,-288 1836.7473,-288 1836.7473,-288 1842.7473,-288 1848.7473,-294 1848.7473,-300 1848.7473,-300 1848.7473,-320 1848.7473,-320 1848.7473,-326 1842.7473,-332 1836.7473,-332"/>
<text text-anchor="middle" x="1799.1385" y="-319" font-family="sans" font-size="10.00" fill="#000000">trim_galore</text>
<text text-anchor="middle" x="1799.1385" y="-307" font-family="sans" font-size="10.00" fill="#000000">outdir: rna_seq</text>
<text text-anchor="middle" x="1799.1385" y="-295" font-family="sans" font-size="10.00" fill="#000000">sample: B6CastF1_5</text>
</g>
<!-- 11&#45;&gt;30 -->
<g id="edge44" class="edge">
<title>11&#45;&gt;30</title>
<path fill="none" stroke="#c0c0c0" stroke-width="2" d="M1749.4738,-290.6724C1746.3355,-289.7028 1743.2059,-288.801 1740.1385,-288 1639.1789,-261.6362 1610.5985,-271.7446 1508.1385,-252 1496.2117,-249.7016 1483.3373,-246.8746 1471.5524,-244.1478"/>
<polygon fill="#c0c0c0" stroke="#c0c0c0" stroke-width="2" points="1472.0631,-240.6726 1461.5277,-241.7931 1470.4624,-247.4871 1472.0631,-240.6726"/>
</g>
<!-- 12 -->
<g id="node13" class="node">
<title>12</title>
<path fill="none" stroke="#d87d56" stroke-width="2" d="M1042.4158,-404C1042.4158,-404 949.8612,-404 949.8612,-404 943.8612,-404 937.8612,-398 937.8612,-392 937.8612,-392 937.8612,-380 937.8612,-380 937.8612,-374 943.8612,-368 949.8612,-368 949.8612,-368 1042.4158,-368 1042.4158,-368 1048.4158,-368 1054.4158,-374 1054.4158,-380 1054.4158,-380 1054.4158,-392 1054.4158,-392 1054.4158,-398 1048.4158,-404 1042.4158,-404"/>
<text text-anchor="middle" x="996.1385" y="-389" font-family="sans" font-size="10.00" fill="#000000">download_rnaseq</text>
<text text-anchor="middle" x="996.1385" y="-377" font-family="sans" font-size="10.00" fill="#000000">sample: CastB6F1_3_R1</text>
</g>
<!-- 34 -->
<g id="node35" class="node">
<title>34</title>
<path fill="none" stroke="#d6d856" stroke-width="2" d="M816.7473,-332C816.7473,-332 741.5297,-332 741.5297,-332 735.5297,-332 729.5297,-326 729.5297,-320 729.5297,-320 729.5297,-300 729.5297,-300 729.5297,-294 735.5297,-288 741.5297,-288 741.5297,-288 816.7473,-288 816.7473,-288 822.7473,-288 828.7473,-294 828.7473,-300 828.7473,-300 828.7473,-320 828.7473,-320 828.7473,-326 822.7473,-332 816.7473,-332"/>
<text text-anchor="middle" x="779.1385" y="-319" font-family="sans" font-size="10.00" fill="#000000">trim_galore</text>
<text text-anchor="middle" x="779.1385" y="-307" font-family="sans" font-size="10.00" fill="#000000">outdir: rna_seq</text>
<text text-anchor="middle" x="779.1385" y="-295" font-family="sans" font-size="10.00" fill="#000000">sample: CastB6F1_3</text>
</g>
<!-- 12&#45;&gt;34 -->
<g id="edge46" class="edge">
<title>12&#45;&gt;34</title>
<path fill="none" stroke="#c0c0c0" stroke-width="2" d="M944.7125,-367.9891C912.8866,-356.8427 871.9017,-342.4885 838.6715,-330.8503"/>
<polygon fill="#c0c0c0" stroke="#c0c0c0" stroke-width="2" points="839.6686,-327.4911 829.0738,-327.4888 837.3547,-334.0976 839.6686,-327.4911"/>
</g>
<!-- 13 -->
<g id="node14" class="node">
<title>13</title>
<path fill="none" stroke="#bed856" stroke-width="2" d="M1245.3427,-548C1245.3427,-548 1028.9343,-548 1028.9343,-548 1022.9343,-548 1016.9343,-542 1016.9343,-536 1016.9343,-536 1016.9343,-524 1016.9343,-524 1016.9343,-518 1022.9343,-512 1028.9343,-512 1028.9343,-512 1245.3427,-512 1245.3427,-512 1251.3427,-512 1257.3427,-518 1257.3427,-524 1257.3427,-524 1257.3427,-536 1257.3427,-536 1257.3427,-542 1251.3427,-548 1245.3427,-548"/>
<text text-anchor="middle" x="1137.1385" y="-533" font-family="sans" font-size="10.00" fill="#000000">gunzip_vcf</text>
<text text-anchor="middle" x="1137.1385" y="-521" font-family="sans" font-size="10.00" fill="#000000">file: ../genome_data/CAST_EiJ.mgp.v5.snps.dbSNP142</text>
</g>
<!-- 50 -->
<g id="node51" class="node">
<title>50</title>
<path fill="none" stroke="#5673d8" stroke-width="2" d="M1277.3858,-476C1277.3858,-476 1182.8912,-476 1182.8912,-476 1176.8912,-476 1170.8912,-470 1170.8912,-464 1170.8912,-464 1170.8912,-452 1170.8912,-452 1170.8912,-446 1176.8912,-440 1182.8912,-440 1182.8912,-440 1277.3858,-440 1277.3858,-440 1283.3858,-440 1289.3858,-446 1289.3858,-452 1289.3858,-452 1289.3858,-464 1289.3858,-464 1289.3858,-470 1283.3858,-476 1277.3858,-476"/>
<text text-anchor="middle" x="1230.1385" y="-455" font-family="sans" font-size="10.00" fill="#000000">snpsplit_prepare_genome</text>
</g>
<!-- 13&#45;&gt;50 -->
<g id="edge73" class="edge">
<title>13&#45;&gt;50</title>
<path fill="none" stroke="#c0c0c0" stroke-width="2" d="M1160.6063,-511.8314C1172.1712,-502.8779 1186.2789,-491.9558 1198.7568,-482.2955"/>
<polygon fill="#c0c0c0" stroke="#c0c0c0" stroke-width="2" points="1200.9135,-485.0521 1206.6782,-476.1628 1196.6283,-479.5171 1200.9135,-485.0521"/>
</g>
<!-- 14 -->
<g id="node15" class="node">
<title>14</title>
<path fill="none" stroke="#d87d56" stroke-width="2" d="M2180.4158,-404C2180.4158,-404 2087.8612,-404 2087.8612,-404 2081.8612,-404 2075.8612,-398 2075.8612,-392 2075.8612,-392 2075.8612,-380 2075.8612,-380 2075.8612,-374 2081.8612,-368 2087.8612,-368 2087.8612,-368 2180.4158,-368 2180.4158,-368 2186.4158,-368 2192.4158,-374 2192.4158,-380 2192.4158,-380 2192.4158,-392 2192.4158,-392 2192.4158,-398 2186.4158,-404 2180.4158,-404"/>
<text text-anchor="middle" x="2134.1385" y="-389" font-family="sans" font-size="10.00" fill="#000000">download_rnaseq</text>
<text text-anchor="middle" x="2134.1385" y="-377" font-family="sans" font-size="10.00" fill="#000000">sample: CastB6F1_4_R2</text>
</g>
<!-- 41 -->
<g id="node42" class="node">
<title>41</title>
<path fill="none" stroke="#d6d856" stroke-width="2" d="M2037.7473,-332C2037.7473,-332 1962.5297,-332 1962.5297,-332 1956.5297,-332 1950.5297,-326 1950.5297,-320 1950.5297,-320 1950.5297,-300 1950.5297,-300 1950.5297,-294 1956.5297,-288 1962.5297,-288 1962.5297,-288 2037.7473,-288 2037.7473,-288 2043.7473,-288 2049.7473,-294 2049.7473,-300 2049.7473,-300 2049.7473,-320 2049.7473,-320 2049.7473,-326 2043.7473,-332 2037.7473,-332"/>
<text text-anchor="middle" x="2000.1385" y="-319" font-family="sans" font-size="10.00" fill="#000000">trim_galore</text>
<text text-anchor="middle" x="2000.1385" y="-307" font-family="sans" font-size="10.00" fill="#000000">outdir: rna_seq</text>
<text text-anchor="middle" x="2000.1385" y="-295" font-family="sans" font-size="10.00" fill="#000000">sample: CastB6F1_4</text>
</g>
<!-- 14&#45;&gt;41 -->
<g id="edge59" class="edge">
<title>14&#45;&gt;41</title>
<path fill="none" stroke="#c0c0c0" stroke-width="2" d="M2102.3824,-367.9891C2086.3014,-358.8685 2066.4337,-347.6003 2048.5012,-337.4296"/>
<polygon fill="#c0c0c0" stroke="#c0c0c0" stroke-width="2" points="2049.7554,-334.1172 2039.3303,-332.2282 2046.302,-340.2061 2049.7554,-334.1172"/>
</g>
<!-- 23 -->
<g id="node24" class="node">
<title>23</title>
<path fill="none" stroke="#56d88a" stroke-width="2" d="M1307.6395,-180C1307.6395,-180 1250.6375,-180 1250.6375,-180 1244.6375,-180 1238.6375,-174 1238.6375,-168 1238.6375,-168 1238.6375,-156 1238.6375,-156 1238.6375,-150 1244.6375,-144 1250.6375,-144 1250.6375,-144 1307.6395,-144 1307.6395,-144 1313.6395,-144 1319.6395,-150 1319.6395,-156 1319.6395,-156 1319.6395,-168 1319.6395,-168 1319.6395,-174 1313.6395,-180 1307.6395,-180"/>
<text text-anchor="middle" x="1279.1385" y="-159" font-family="sans" font-size="10.00" fill="#000000">snp_split_hisat2</text>
</g>
<!-- 15&#45;&gt;23 -->
<g id="edge36" class="edge">
<title>15&#45;&gt;23</title>
<path fill="none" stroke="#c0c0c0" stroke-width="2" d="M1275.4002,-215.8314C1275.935,-208.131 1276.5708,-198.9743 1277.1651,-190.4166"/>
<polygon fill="#c0c0c0" stroke="#c0c0c0" stroke-width="2" points="1280.6585,-190.6317 1277.8598,-180.4133 1273.6753,-190.1467 1280.6585,-190.6317"/>
</g>
<!-- 16 -->
<g id="node17" class="node">
<title>16</title>
<path fill="none" stroke="#56d88a" stroke-width="2" d="M1097.6395,-180C1097.6395,-180 1040.6375,-180 1040.6375,-180 1034.6375,-180 1028.6375,-174 1028.6375,-168 1028.6375,-168 1028.6375,-156 1028.6375,-156 1028.6375,-150 1034.6375,-144 1040.6375,-144 1040.6375,-144 1097.6395,-144 1097.6395,-144 1103.6395,-144 1109.6395,-150 1109.6395,-156 1109.6395,-156 1109.6395,-168 1109.6395,-168 1109.6395,-174 1103.6395,-180 1097.6395,-180"/>
<text text-anchor="middle" x="1069.1385" y="-159" font-family="sans" font-size="10.00" fill="#000000">snp_split_hisat2</text>
</g>
<!-- 16&#45;&gt;21 -->
<g id="edge27" class="edge">
<title>16&#45;&gt;21</title>
<path fill="none" stroke="#c0c0c0" stroke-width="2" d="M1109.8776,-148.0323C1140.2957,-137.6032 1182.4047,-123.1659 1217.0118,-111.3006"/>
<polygon fill="#c0c0c0" stroke="#c0c0c0" stroke-width="2" points="1218.2335,-114.5818 1226.5578,-108.0277 1215.9632,-107.9602 1218.2335,-114.5818"/>
</g>
<!-- 17 -->
<g id="node18" class="node">
<title>17</title>
<path fill="none" stroke="#ced856" stroke-width="2" d="M1280.5066,-404C1280.5066,-404 1179.7704,-404 1179.7704,-404 1173.7704,-404 1167.7704,-398 1167.7704,-392 1167.7704,-392 1167.7704,-380 1167.7704,-380 1167.7704,-374 1173.7704,-368 1179.7704,-368 1179.7704,-368 1280.5066,-368 1280.5066,-368 1286.5066,-368 1292.5066,-374 1292.5066,-380 1292.5066,-380 1292.5066,-392 1292.5066,-392 1292.5066,-398 1286.5066,-404 1280.5066,-404"/>
<text text-anchor="middle" x="1230.1385" y="-383" font-family="sans" font-size="10.00" fill="#000000">clean_up_snpsplit_genome</text>
</g>
<!-- 17&#45;&gt;0 -->
<g id="edge1" class="edge">
<title>17&#45;&gt;0</title>
<path fill="none" stroke="#c0c0c0" stroke-width="2" d="M1230.1385,-367.9891C1230.1385,-359.1566 1230.1385,-348.3099 1230.1385,-338.3965"/>
<polygon fill="#c0c0c0" stroke="#c0c0c0" stroke-width="2" points="1233.6386,-338.145 1230.1385,-328.145 1226.6386,-338.1451 1233.6386,-338.145"/>
</g>
<!-- 17&#45;&gt;1 -->
<g id="edge3" class="edge">
<title>17&#45;&gt;1</title>
<path fill="none" stroke="#c0c0c0" stroke-width="2" d="M1292.5553,-377.5112C1348.5568,-368.6742 1425.2039,-353.1576 1447.1385,-332 1485.6742,-294.8292 1491.0662,-228.3449 1490.6789,-190.4716"/>
<polygon fill="#c0c0c0" stroke="#c0c0c0" stroke-width="2" points="1494.1698,-190.0576 1490.4216,-180.148 1487.172,-190.2321 1494.1698,-190.0576"/>
</g>
<!-- 17&#45;&gt;3 -->
<g id="edge5" class="edge">
<title>17&#45;&gt;3</title>
<path fill="none" stroke="#c0c0c0" stroke-width="2" d="M1292.7704,-372.3988C1315.4483,-364.3552 1339.1436,-351.7181 1354.1385,-332 1385.6676,-290.5396 1385.3353,-226.4681 1381.9484,-189.9741"/>
<polygon fill="#c0c0c0" stroke="#c0c0c0" stroke-width="2" points="1385.4276,-189.5923 1380.8838,-180.0213 1378.4673,-190.3369 1385.4276,-189.5923"/>
</g>
<!-- 17&#45;&gt;9 -->
<g id="edge11" class="edge">
<title>17&#45;&gt;9</title>
<path fill="none" stroke="#c0c0c0" stroke-width="2" d="M1182.1465,-367.9585C1166.5423,-359.5363 1150.9798,-347.7985 1142.1385,-332 1132.5884,-314.935 1135.5828,-306.424 1142.1385,-288 1145.7263,-277.9169 1152.092,-268.3517 1158.8861,-260.1515"/>
<polygon fill="#c0c0c0" stroke="#c0c0c0" stroke-width="2" points="1161.7132,-262.2389 1165.7359,-252.4375 1156.4789,-257.591 1161.7132,-262.2389"/>
</g>
<!-- 17&#45;&gt;15 -->
<g id="edge18" class="edge">
<title>17&#45;&gt;15</title>
<path fill="none" stroke="#c0c0c0" stroke-width="2" d="M1278.1305,-367.9585C1293.7347,-359.5363 1309.2972,-347.7985 1318.1385,-332 1327.6886,-314.935 1324.6942,-306.424 1318.1385,-288 1314.5507,-277.9169 1308.185,-268.3517 1301.3909,-260.1515"/>
<polygon fill="#c0c0c0" stroke="#c0c0c0" stroke-width="2" points="1303.7981,-257.591 1294.5411,-252.4375 1298.5638,-262.2389 1303.7981,-257.591"/>
</g>
<!-- 17&#45;&gt;16 -->
<g id="edge20" class="edge">
<title>17&#45;&gt;16</title>
<path fill="none" stroke="#c0c0c0" stroke-width="2" d="M1167.5167,-373.197C1123.8093,-363.1012 1070.4876,-348.081 1054.1385,-332 1016.4712,-294.9503 1011.2829,-266.0739 1028.1385,-216 1031.5182,-205.9596 1037.589,-196.3047 1044.041,-188.0052"/>
<polygon fill="#c0c0c0" stroke="#c0c0c0" stroke-width="2" points="1046.8337,-190.1208 1050.5345,-180.1933 1041.4506,-185.6461 1046.8337,-190.1208"/>
</g>
<!-- 17&#45;&gt;18 -->
<g id="edge23" class="edge">
<title>17&#45;&gt;18</title>
<path fill="none" stroke="#c0c0c0" stroke-width="2" d="M1173.4457,-367.8966C1156.8832,-359.6746 1140.6827,-348.0776 1131.1385,-332 1103.6755,-285.7374 1136.7317,-223.198 1160.3486,-188.3122"/>
<polygon fill="#c0c0c0" stroke="#c0c0c0" stroke-width="2" points="1163.2515,-190.2683 1166.1069,-180.0654 1157.5122,-186.2607 1163.2515,-190.2683"/>
</g>
<!-- 17&#45;&gt;19 -->
<g id="edge26" class="edge">
<title>17&#45;&gt;19</title>
<path fill="none" stroke="#c0c0c0" stroke-width="2" d="M1167.5524,-379.7435C1090.3663,-371.2156 964.3173,-354.4035 923.1385,-332 906.5757,-322.9889 874.3986,-285.9633 853.0877,-260.0986"/>
<polygon fill="#c0c0c0" stroke="#c0c0c0" stroke-width="2" points="855.623,-257.6699 846.584,-252.1429 850.2034,-262.1003 855.623,-257.6699"/>
</g>
<!-- 17&#45;&gt;23 -->
<g id="edge37" class="edge">
<title>17&#45;&gt;23</title>
<path fill="none" stroke="#c0c0c0" stroke-width="2" d="M1291.5577,-367.9938C1308.636,-359.8495 1325.2084,-348.2732 1335.1385,-332 1363.4895,-285.539 1326.8292,-223.0726 1300.8475,-188.2528"/>
<polygon fill="#c0c0c0" stroke="#c0c0c0" stroke-width="2" points="1303.3887,-185.8158 1294.5181,-180.0225 1297.8398,-190.0832 1303.3887,-185.8158"/>
</g>
<!-- 17&#45;&gt;30 -->
<g id="edge43" class="edge">
<title>17&#45;&gt;30</title>
<path fill="none" stroke="#c0c0c0" stroke-width="2" d="M1292.7533,-377.0328C1343.9242,-368.2928 1410.4393,-353.2116 1427.1385,-332 1442.5212,-312.4607 1441.3237,-283.3067 1437.4603,-261.8752"/>
<polygon fill="#c0c0c0" stroke="#c0c0c0" stroke-width="2" points="1440.8792,-261.1249 1435.4105,-252.0506 1434.0268,-262.5547 1440.8792,-261.1249"/>
</g>
<!-- 17&#45;&gt;36 -->
<g id="edge50" class="edge">
<title>17&#45;&gt;36</title>
<path fill="none" stroke="#c0c0c0" stroke-width="2" d="M1167.5619,-372.4645C1128.3717,-362.5989 1083.1028,-348.1704 1071.1385,-332 1056.5013,-312.217 1057.4398,-283.5231 1061.0298,-262.2924"/>
<polygon fill="#c0c0c0" stroke="#c0c0c0" stroke-width="2" points="1064.5092,-262.7385 1063.0141,-252.2497 1057.642,-261.3816 1064.5092,-262.7385"/>
</g>
<!-- 17&#45;&gt;37 -->
<g id="edge53" class="edge">
<title>17&#45;&gt;37</title>
<path fill="none" stroke="#c0c0c0" stroke-width="2" d="M1292.8148,-380.2212C1363.0183,-372.6258 1471.1779,-357.207 1503.1385,-332 1524.9658,-314.785 1536.6116,-284.5709 1542.5436,-262.2285"/>
<polygon fill="#c0c0c0" stroke="#c0c0c0" stroke-width="2" points="1545.9987,-262.8313 1544.9498,-252.2885 1539.1952,-261.1843 1545.9987,-262.8313"/>
</g>
<!-- 38 -->
<g id="node39" class="node">
<title>38</title>
<path fill="none" stroke="#56d88a" stroke-width="2" d="M860.6395,-180C860.6395,-180 803.6375,-180 803.6375,-180 797.6375,-180 791.6375,-174 791.6375,-168 791.6375,-168 791.6375,-156 791.6375,-156 791.6375,-150 797.6375,-144 803.6375,-144 803.6375,-144 860.6395,-144 860.6395,-144 866.6395,-144 872.6395,-150 872.6395,-156 872.6395,-156 872.6395,-168 872.6395,-168 872.6395,-174 866.6395,-180 860.6395,-180"/>
<text text-anchor="middle" x="832.1385" y="-159" font-family="sans" font-size="10.00" fill="#000000">snp_split_hisat2</text>
</g>
<!-- 17&#45;&gt;38 -->
<g id="edge56" class="edge">
<title>17&#45;&gt;38</title>
<path fill="none" stroke="#c0c0c0" stroke-width="2" d="M1167.6175,-379.0595C1072.0764,-368.0772 898.1313,-346.4589 873.1385,-332 851.5093,-319.487 855.8774,-305.599 838.1385,-288 819.7088,-269.7156 803.5095,-275.3383 792.1385,-252 781.7471,-230.6723 794.3701,-206.0255 808.1127,-187.9226"/>
<polygon fill="#c0c0c0" stroke="#c0c0c0" stroke-width="2" points="810.8688,-190.0804 814.427,-180.1009 805.4222,-185.6834 810.8688,-190.0804"/>
</g>
<!-- 39 -->
<g id="node40" class="node">
<title>39</title>
<path fill="none" stroke="#56d88a" stroke-width="2" d="M998.6395,-180C998.6395,-180 941.6375,-180 941.6375,-180 935.6375,-180 929.6375,-174 929.6375,-168 929.6375,-168 929.6375,-156 929.6375,-156 929.6375,-150 935.6375,-144 941.6375,-144 941.6375,-144 998.6395,-144 998.6395,-144 1004.6395,-144 1010.6395,-150 1010.6395,-156 1010.6395,-156 1010.6395,-168 1010.6395,-168 1010.6395,-174 1004.6395,-180 998.6395,-180"/>
<text text-anchor="middle" x="970.1385" y="-159" font-family="sans" font-size="10.00" fill="#000000">snp_split_hisat2</text>
</g>
<!-- 17&#45;&gt;39 -->
<g id="edge58" class="edge">
<title>17&#45;&gt;39</title>
<path fill="none" stroke="#c0c0c0" stroke-width="2" d="M1167.6074,-376.9896C1113.3195,-367.9488 1040.2033,-352.4405 1019.1385,-332 980.3169,-294.329 971.7194,-228.0327 970.134,-190.3255"/>
<polygon fill="#c0c0c0" stroke="#c0c0c0" stroke-width="2" points="973.625,-189.9481 969.8472,-180.0497 966.6277,-190.1435 973.625,-189.9481"/>
</g>
<!-- 17&#45;&gt;42 -->
<g id="edge63" class="edge">
<title>17&#45;&gt;42</title>
<path fill="none" stroke="#c0c0c0" stroke-width="2" d="M1292.7102,-379.275C1368.386,-370.3693 1490.666,-353.2776 1531.1385,-332 1563.6429,-314.9114 1592.0224,-283.1135 1609.549,-260.3708"/>
<polygon fill="#c0c0c0" stroke="#c0c0c0" stroke-width="2" points="1612.5175,-262.2463 1615.7209,-252.1473 1606.9189,-258.0444 1612.5175,-262.2463"/>
</g>
<!-- 17&#45;&gt;45 -->
<g id="edge68" class="edge">
<title>17&#45;&gt;45</title>
<path fill="none" stroke="#c0c0c0" stroke-width="2" d="M1167.4622,-380.2212C1097.2587,-372.6258 989.0991,-357.207 957.1385,-332 935.3112,-314.785 923.6654,-284.5709 917.7334,-262.2285"/>
<polygon fill="#c0c0c0" stroke="#c0c0c0" stroke-width="2" points="921.0818,-261.1843 915.3272,-252.2885 914.2783,-262.8313 921.0818,-261.1843"/>
</g>
<!-- 49 -->
<g id="node50" class="node">
<title>49</title>
<path fill="none" stroke="#56d88a" stroke-width="2" d="M1636.6395,-180C1636.6395,-180 1579.6375,-180 1579.6375,-180 1573.6375,-180 1567.6375,-174 1567.6375,-168 1567.6375,-168 1567.6375,-156 1567.6375,-156 1567.6375,-150 1573.6375,-144 1579.6375,-144 1579.6375,-144 1636.6395,-144 1636.6395,-144 1642.6395,-144 1648.6395,-150 1648.6395,-156 1648.6395,-156 1648.6395,-168 1648.6395,-168 1648.6395,-174 1642.6395,-180 1636.6395,-180"/>
<text text-anchor="middle" x="1608.1385" y="-159" font-family="sans" font-size="10.00" fill="#000000">snp_split_hisat2</text>
</g>
<!-- 17&#45;&gt;49 -->
<g id="edge72" class="edge">
<title>17&#45;&gt;49</title>
<path fill="none" stroke="#c0c0c0" stroke-width="2" d="M1292.5668,-377.9993C1384.039,-365.9915 1546.3658,-343.495 1571.1385,-332 1598.294,-319.3993 1599.011,-307.0083 1622.1385,-288 1642.1947,-271.516 1656.7675,-275.3383 1668.1385,-252 1675.1465,-237.6164 1674.6479,-230.616 1668.1385,-216 1663.1051,-204.6983 1654.408,-194.7696 1645.1726,-186.611"/>
<polygon fill="#c0c0c0" stroke="#c0c0c0" stroke-width="2" points="1647.3035,-183.8319 1637.3569,-180.1828 1642.857,-189.2382 1647.3035,-183.8319"/>
</g>
<!-- 18&#45;&gt;21 -->
<g id="edge35" class="edge">
<title>18&#45;&gt;21</title>
<path fill="none" stroke="#c0c0c0" stroke-width="2" d="M1205.1204,-143.8314C1217.4313,-134.8779 1232.4492,-123.9558 1245.7322,-114.2955"/>
<polygon fill="#c0c0c0" stroke="#c0c0c0" stroke-width="2" points="1248.1358,-116.8752 1254.1646,-108.1628 1244.0186,-111.214 1248.1358,-116.8752"/>
</g>
<!-- 19&#45;&gt;38 -->
<g id="edge55" class="edge">
<title>19&#45;&gt;38</title>
<path fill="none" stroke="#c0c0c0" stroke-width="2" d="M832.1385,-215.8314C832.1385,-208.131 832.1385,-198.9743 832.1385,-190.4166"/>
<polygon fill="#c0c0c0" stroke="#c0c0c0" stroke-width="2" points="835.6386,-190.4132 832.1385,-180.4133 828.6386,-190.4133 835.6386,-190.4132"/>
</g>
<!-- 20 -->
<g id="node21" class="node">
<title>20</title>
<path fill="none" stroke="#d87d56" stroke-width="2" d="M372.4158,-404C372.4158,-404 279.8612,-404 279.8612,-404 273.8612,-404 267.8612,-398 267.8612,-392 267.8612,-392 267.8612,-380 267.8612,-380 267.8612,-374 273.8612,-368 279.8612,-368 279.8612,-368 372.4158,-368 372.4158,-368 378.4158,-368 384.4158,-374 384.4158,-380 384.4158,-380 384.4158,-392 384.4158,-392 384.4158,-398 378.4158,-404 372.4158,-404"/>
<text text-anchor="middle" x="326.1385" y="-389" font-family="sans" font-size="10.00" fill="#000000">download_rnaseq</text>
<text text-anchor="middle" x="326.1385" y="-377" font-family="sans" font-size="10.00" fill="#000000">sample: B6CastF1_4_R1</text>
</g>
<!-- 44 -->
<g id="node45" class="node">
<title>44</title>
<path fill="none" stroke="#d6d856" stroke-width="2" d="M497.7473,-332C497.7473,-332 422.5297,-332 422.5297,-332 416.5297,-332 410.5297,-326 410.5297,-320 410.5297,-320 410.5297,-300 410.5297,-300 410.5297,-294 416.5297,-288 422.5297,-288 422.5297,-288 497.7473,-288 497.7473,-288 503.7473,-288 509.7473,-294 509.7473,-300 509.7473,-300 509.7473,-320 509.7473,-320 509.7473,-326 503.7473,-332 497.7473,-332"/>
<text text-anchor="middle" x="460.1385" y="-319" font-family="sans" font-size="10.00" fill="#000000">trim_galore</text>
<text text-anchor="middle" x="460.1385" y="-307" font-family="sans" font-size="10.00" fill="#000000">outdir: rna_seq</text>
<text text-anchor="middle" x="460.1385" y="-295" font-family="sans" font-size="10.00" fill="#000000">sample: B6CastF1_4</text>
</g>
<!-- 20&#45;&gt;44 -->
<g id="edge64" class="edge">
<title>20&#45;&gt;44</title>
<path fill="none" stroke="#c0c0c0" stroke-width="2" d="M357.8946,-367.9891C373.9756,-358.8685 393.8433,-347.6003 411.7758,-337.4296"/>
<polygon fill="#c0c0c0" stroke="#c0c0c0" stroke-width="2" points="413.975,-340.2061 420.9467,-332.2282 410.5216,-334.1172 413.975,-340.2061"/>
</g>
<!-- 27 -->
<g id="node28" class="node">
<title>27</title>
<path fill="none" stroke="#80d856" stroke-width="2" d="M1306.9491,-36C1306.9491,-36 1251.3279,-36 1251.3279,-36 1245.3279,-36 1239.3279,-30 1239.3279,-24 1239.3279,-24 1239.3279,-12 1239.3279,-12 1239.3279,-6 1245.3279,0 1251.3279,0 1251.3279,0 1306.9491,0 1306.9491,0 1312.9491,0 1318.9491,-6 1318.9491,-12 1318.9491,-12 1318.9491,-24 1318.9491,-24 1318.9491,-30 1312.9491,-36 1306.9491,-36"/>
<text text-anchor="middle" x="1279.1385" y="-15" font-family="sans" font-size="10.00" fill="#000000">rnaseq_analysis</text>
</g>
<!-- 21&#45;&gt;27 -->
<g id="edge40" class="edge">
<title>21&#45;&gt;27</title>
<path fill="none" stroke="#c0c0c0" stroke-width="2" d="M1279.1385,-71.8314C1279.1385,-64.131 1279.1385,-54.9743 1279.1385,-46.4166"/>
<polygon fill="#c0c0c0" stroke="#c0c0c0" stroke-width="2" points="1282.6386,-46.4132 1279.1385,-36.4133 1275.6386,-46.4133 1282.6386,-46.4132"/>
</g>
<!-- 22 -->
<g id="node23" class="node">
<title>22</title>
<path fill="none" stroke="#d87d56" stroke-width="2" d="M774.4158,-404C774.4158,-404 681.8612,-404 681.8612,-404 675.8612,-404 669.8612,-398 669.8612,-392 669.8612,-392 669.8612,-380 669.8612,-380 669.8612,-374 675.8612,-368 681.8612,-368 681.8612,-368 774.4158,-368 774.4158,-368 780.4158,-368 786.4158,-374 786.4158,-380 786.4158,-380 786.4158,-392 786.4158,-392 786.4158,-398 780.4158,-404 774.4158,-404"/>
<text text-anchor="middle" x="728.1385" y="-389" font-family="sans" font-size="10.00" fill="#000000">download_rnaseq</text>
<text text-anchor="middle" x="728.1385" y="-377" font-family="sans" font-size="10.00" fill="#000000">sample: CastB6F1_5_R1</text>
</g>
<!-- 22&#45;&gt;7 -->
<g id="edge7" class="edge">
<title>22&#45;&gt;7</title>
<path fill="none" stroke="#c0c0c0" stroke-width="2" d="M712.2604,-367.9891C704.8838,-359.6216 695.9136,-349.4464 687.559,-339.9696"/>
<polygon fill="#c0c0c0" stroke="#c0c0c0" stroke-width="2" points="689.9729,-337.4149 680.7344,-332.2282 684.722,-342.044 689.9729,-337.4149"/>
</g>
<!-- 23&#45;&gt;21 -->
<g id="edge34" class="edge">
<title>23&#45;&gt;21</title>
<path fill="none" stroke="#c0c0c0" stroke-width="2" d="M1279.1385,-143.8314C1279.1385,-136.131 1279.1385,-126.9743 1279.1385,-118.4166"/>
<polygon fill="#c0c0c0" stroke="#c0c0c0" stroke-width="2" points="1282.6386,-118.4132 1279.1385,-108.4133 1275.6386,-118.4133 1282.6386,-118.4132"/>
</g>
<!-- 24 -->
<g id="node25" class="node">
<title>24</title>
<path fill="none" stroke="#d87d56" stroke-width="2" d="M1644.4158,-404C1644.4158,-404 1551.8612,-404 1551.8612,-404 1545.8612,-404 1539.8612,-398 1539.8612,-392 1539.8612,-392 1539.8612,-380 1539.8612,-380 1539.8612,-374 1545.8612,-368 1551.8612,-368 1551.8612,-368 1644.4158,-368 1644.4158,-368 1650.4158,-368 1656.4158,-374 1656.4158,-380 1656.4158,-380 1656.4158,-392 1656.4158,-392 1656.4158,-398 1650.4158,-404 1644.4158,-404"/>
<text text-anchor="middle" x="1598.1385" y="-389" font-family="sans" font-size="10.00" fill="#000000">download_rnaseq</text>
<text text-anchor="middle" x="1598.1385" y="-377" font-family="sans" font-size="10.00" fill="#000000">sample: B6CastF1_3_R1</text>
</g>
<!-- 24&#45;&gt;35 -->
<g id="edge48" class="edge">
<title>24&#45;&gt;35</title>
<path fill="none" stroke="#c0c0c0" stroke-width="2" d="M1617.8083,-367.9891C1627.2207,-359.3706 1638.7274,-348.8343 1649.3379,-339.1186"/>
<polygon fill="#c0c0c0" stroke="#c0c0c0" stroke-width="2" points="1651.8513,-341.5628 1656.863,-332.2282 1647.1241,-336.4001 1651.8513,-341.5628"/>
</g>
<!-- 25 -->
<g id="node26" class="node">
<title>25</title>
<path fill="none" stroke="#d6d856" stroke-width="2" d="M229.7473,-332C229.7473,-332 154.5297,-332 154.5297,-332 148.5297,-332 142.5297,-326 142.5297,-320 142.5297,-320 142.5297,-300 142.5297,-300 142.5297,-294 148.5297,-288 154.5297,-288 154.5297,-288 229.7473,-288 229.7473,-288 235.7473,-288 241.7473,-294 241.7473,-300 241.7473,-300 241.7473,-320 241.7473,-320 241.7473,-326 235.7473,-332 229.7473,-332"/>
<text text-anchor="middle" x="192.1385" y="-319" font-family="sans" font-size="10.00" fill="#000000">trim_galore</text>
<text text-anchor="middle" x="192.1385" y="-307" font-family="sans" font-size="10.00" fill="#000000">outdir: rna_seq</text>
<text text-anchor="middle" x="192.1385" y="-295" font-family="sans" font-size="10.00" fill="#000000">sample: CastB6F1_2</text>
</g>
<!-- 25&#45;&gt;19 -->
<g id="edge25" class="edge">
<title>25&#45;&gt;19</title>
<path fill="none" stroke="#c0c0c0" stroke-width="2" d="M241.8257,-304.0996C364.1481,-289.5739 678.0903,-252.2932 790.9525,-238.8908"/>
<polygon fill="#c0c0c0" stroke="#c0c0c0" stroke-width="2" points="791.4054,-242.3617 800.9228,-237.7069 790.5798,-235.4106 791.4054,-242.3617"/>
</g>
<!-- 26 -->
<g id="node27" class="node">
<title>26</title>
<path fill="none" stroke="#567bd8" stroke-width="2" d="M1168.4657,-620C1168.4657,-620 1105.8113,-620 1105.8113,-620 1099.8113,-620 1093.8113,-614 1093.8113,-608 1093.8113,-608 1093.8113,-596 1093.8113,-596 1093.8113,-590 1099.8113,-584 1105.8113,-584 1105.8113,-584 1168.4657,-584 1168.4657,-584 1174.4657,-584 1180.4657,-590 1180.4657,-596 1180.4657,-596 1180.4657,-608 1180.4657,-608 1180.4657,-614 1174.4657,-620 1168.4657,-620"/>
<text text-anchor="middle" x="1137.1385" y="-605" font-family="sans" font-size="10.00" fill="#000000">download_vcf</text>
<text text-anchor="middle" x="1137.1385" y="-593" font-family="sans" font-size="10.00" fill="#000000">strain: CAST_EiJ</text>
</g>
<!-- 26&#45;&gt;13 -->
<g id="edge15" class="edge">
<title>26&#45;&gt;13</title>
<path fill="none" stroke="#c0c0c0" stroke-width="2" d="M1137.1385,-583.8314C1137.1385,-576.131 1137.1385,-566.9743 1137.1385,-558.4166"/>
<polygon fill="#c0c0c0" stroke="#c0c0c0" stroke-width="2" points="1140.6386,-558.4132 1137.1385,-548.4133 1133.6386,-558.4133 1140.6386,-558.4132"/>
</g>
<!-- 28 -->
<g id="node29" class="node">
<title>28</title>
<path fill="none" stroke="#d87d56" stroke-width="2" d="M908.4158,-404C908.4158,-404 815.8612,-404 815.8612,-404 809.8612,-404 803.8612,-398 803.8612,-392 803.8612,-392 803.8612,-380 803.8612,-380 803.8612,-374 809.8612,-368 815.8612,-368 815.8612,-368 908.4158,-368 908.4158,-368 914.4158,-368 920.4158,-374 920.4158,-380 920.4158,-380 920.4158,-392 920.4158,-392 920.4158,-398 914.4158,-404 908.4158,-404"/>
<text text-anchor="middle" x="862.1385" y="-389" font-family="sans" font-size="10.00" fill="#000000">download_rnaseq</text>
<text text-anchor="middle" x="862.1385" y="-377" font-family="sans" font-size="10.00" fill="#000000">sample: CastB6F1_3_R2</text>
</g>
<!-- 28&#45;&gt;34 -->
<g id="edge45" class="edge">
<title>28&#45;&gt;34</title>
<path fill="none" stroke="#c0c0c0" stroke-width="2" d="M842.4687,-367.9891C833.0563,-359.3706 821.5496,-348.8343 810.9391,-339.1186"/>
<polygon fill="#c0c0c0" stroke="#c0c0c0" stroke-width="2" points="813.1529,-336.4001 803.414,-332.2282 808.4257,-341.5628 813.1529,-336.4001"/>
</g>
<!-- 29 -->
<g id="node30" class="node">
<title>29</title>
<path fill="none" stroke="#56d863" stroke-width="2" d="M1361.3357,-548C1361.3357,-548 1286.9413,-548 1286.9413,-548 1280.9413,-548 1274.9413,-542 1274.9413,-536 1274.9413,-536 1274.9413,-524 1274.9413,-524 1274.9413,-518 1280.9413,-512 1286.9413,-512 1286.9413,-512 1361.3357,-512 1361.3357,-512 1367.3357,-512 1373.3357,-518 1373.3357,-524 1373.3357,-524 1373.3357,-536 1373.3357,-536 1373.3357,-542 1367.3357,-548 1361.3357,-548"/>
<text text-anchor="middle" x="1324.1385" y="-527" font-family="sans" font-size="10.00" fill="#000000">snpsplit_create_path</text>
</g>
<!-- 29&#45;&gt;50 -->
<g id="edge74" class="edge">
<title>29&#45;&gt;50</title>
<path fill="none" stroke="#c0c0c0" stroke-width="2" d="M1300.4183,-511.8314C1288.7291,-502.8779 1274.4697,-491.9558 1261.8576,-482.2955"/>
<polygon fill="#c0c0c0" stroke="#c0c0c0" stroke-width="2" points="1263.9182,-479.4651 1253.8511,-476.1628 1259.6616,-485.0222 1263.9182,-479.4651"/>
</g>
<!-- 30&#45;&gt;3 -->
<g id="edge4" class="edge">
<title>30&#45;&gt;3</title>
<path fill="none" stroke="#c0c0c0" stroke-width="2" d="M1417.0167,-215.8314C1411.0886,-207.6232 1403.9656,-197.7606 1397.4452,-188.7323"/>
<polygon fill="#c0c0c0" stroke="#c0c0c0" stroke-width="2" points="1400.1293,-186.4708 1391.437,-180.4133 1394.4545,-190.5693 1400.1293,-186.4708"/>
</g>
<!-- 31 -->
<g id="node32" class="node">
<title>31</title>
<path fill="none" stroke="#d87d56" stroke-width="2" d="M1912.4158,-404C1912.4158,-404 1819.8612,-404 1819.8612,-404 1813.8612,-404 1807.8612,-398 1807.8612,-392 1807.8612,-392 1807.8612,-380 1807.8612,-380 1807.8612,-374 1813.8612,-368 1819.8612,-368 1819.8612,-368 1912.4158,-368 1912.4158,-368 1918.4158,-368 1924.4158,-374 1924.4158,-380 1924.4158,-380 1924.4158,-392 1924.4158,-392 1924.4158,-398 1918.4158,-404 1912.4158,-404"/>
<text text-anchor="middle" x="1866.1385" y="-389" font-family="sans" font-size="10.00" fill="#000000">download_rnaseq</text>
<text text-anchor="middle" x="1866.1385" y="-377" font-family="sans" font-size="10.00" fill="#000000">sample: B6CastF1_5_R2</text>
</g>
<!-- 31&#45;&gt;11 -->
<g id="edge13" class="edge">
<title>31&#45;&gt;11</title>
<path fill="none" stroke="#c0c0c0" stroke-width="2" d="M1850.2604,-367.9891C1842.8838,-359.6216 1833.9136,-349.4464 1825.559,-339.9696"/>
<polygon fill="#c0c0c0" stroke="#c0c0c0" stroke-width="2" points="1827.9729,-337.4149 1818.7344,-332.2282 1822.722,-342.044 1827.9729,-337.4149"/>
</g>
<!-- 32 -->
<g id="node33" class="node">
<title>32</title>
<path fill="none" stroke="#d87d56" stroke-width="2" d="M1778.4158,-404C1778.4158,-404 1685.8612,-404 1685.8612,-404 1679.8612,-404 1673.8612,-398 1673.8612,-392 1673.8612,-392 1673.8612,-380 1673.8612,-380 1673.8612,-374 1679.8612,-368 1685.8612,-368 1685.8612,-368 1778.4158,-368 1778.4158,-368 1784.4158,-368 1790.4158,-374 1790.4158,-380 1790.4158,-380 1790.4158,-392 1790.4158,-392 1790.4158,-398 1784.4158,-404 1778.4158,-404"/>
<text text-anchor="middle" x="1732.1385" y="-389" font-family="sans" font-size="10.00" fill="#000000">download_rnaseq</text>
<text text-anchor="middle" x="1732.1385" y="-377" font-family="sans" font-size="10.00" fill="#000000">sample: B6CastF1_5_R1</text>
</g>
<!-- 32&#45;&gt;11 -->
<g id="edge14" class="edge">
<title>32&#45;&gt;11</title>
<path fill="none" stroke="#c0c0c0" stroke-width="2" d="M1748.0166,-367.9891C1755.3932,-359.6216 1764.3634,-349.4464 1772.718,-339.9696"/>
<polygon fill="#c0c0c0" stroke="#c0c0c0" stroke-width="2" points="1775.555,-342.044 1779.5426,-332.2282 1770.3041,-337.4149 1775.555,-342.044"/>
</g>
<!-- 33 -->
<g id="node34" class="node">
<title>33</title>
<path fill="none" stroke="#56d882" stroke-width="2" d="M1805.6849,-252C1805.6849,-252 1758.5921,-252 1758.5921,-252 1752.5921,-252 1746.5921,-246 1746.5921,-240 1746.5921,-240 1746.5921,-228 1746.5921,-228 1746.5921,-222 1752.5921,-216 1758.5921,-216 1758.5921,-216 1805.6849,-216 1805.6849,-216 1811.6849,-216 1817.6849,-222 1817.6849,-228 1817.6849,-228 1817.6849,-240 1817.6849,-240 1817.6849,-246 1811.6849,-252 1805.6849,-252"/>
<text text-anchor="middle" x="1782.1385" y="-231" font-family="sans" font-size="10.00" fill="#000000">download_gtf</text>
</g>
<!-- 47 -->
<g id="node48" class="node">
<title>47</title>
<path fill="none" stroke="#70d856" stroke-width="2" d="M1885.2725,-180C1885.2725,-180 1679.0045,-180 1679.0045,-180 1673.0045,-180 1667.0045,-174 1667.0045,-168 1667.0045,-168 1667.0045,-156 1667.0045,-156 1667.0045,-150 1673.0045,-144 1679.0045,-144 1679.0045,-144 1885.2725,-144 1885.2725,-144 1891.2725,-144 1897.2725,-150 1897.2725,-156 1897.2725,-156 1897.2725,-168 1897.2725,-168 1897.2725,-174 1891.2725,-180 1885.2725,-180"/>
<text text-anchor="middle" x="1782.1385" y="-165" font-family="sans" font-size="10.00" fill="#000000">gunzip_gtf</text>
<text text-anchor="middle" x="1782.1385" y="-153" font-family="sans" font-size="10.00" fill="#000000">file: ../genome_data/Mus_musculus.GRCm38_90.chr</text>
</g>
<!-- 33&#45;&gt;47 -->
<g id="edge69" class="edge">
<title>33&#45;&gt;47</title>
<path fill="none" stroke="#c0c0c0" stroke-width="2" d="M1782.1385,-215.8314C1782.1385,-208.131 1782.1385,-198.9743 1782.1385,-190.4166"/>
<polygon fill="#c0c0c0" stroke="#c0c0c0" stroke-width="2" points="1785.6386,-190.4132 1782.1385,-180.4133 1778.6386,-190.4133 1785.6386,-190.4132"/>
</g>
<!-- 34&#45;&gt;9 -->
<g id="edge12" class="edge">
<title>34&#45;&gt;9</title>
<path fill="none" stroke="#c0c0c0" stroke-width="2" d="M828.8978,-302.0603C893.4643,-291.5673 1009.5294,-272.0557 1108.1385,-252 1120.0411,-249.5792 1132.9078,-246.7133 1144.693,-243.9885"/>
<polygon fill="#c0c0c0" stroke="#c0c0c0" stroke-width="2" points="1145.779,-247.3291 1154.7199,-241.6449 1144.1858,-240.5128 1145.779,-247.3291"/>
</g>
<!-- 35&#45;&gt;15 -->
<g id="edge17" class="edge">
<title>35&#45;&gt;15</title>
<path fill="none" stroke="#c0c0c0" stroke-width="2" d="M1631.2323,-300.6809C1549.9369,-285.5004 1390.4565,-255.7203 1315.2466,-241.6762"/>
<polygon fill="#c0c0c0" stroke="#c0c0c0" stroke-width="2" points="1315.6829,-238.1973 1305.2103,-239.8021 1314.3979,-245.0783 1315.6829,-238.1973"/>
</g>
<!-- 36&#45;&gt;16 -->
<g id="edge19" class="edge">
<title>36&#45;&gt;16</title>
<path fill="none" stroke="#c0c0c0" stroke-width="2" d="M1068.3908,-215.8314C1068.4978,-208.131 1068.625,-198.9743 1068.7438,-190.4166"/>
<polygon fill="#c0c0c0" stroke="#c0c0c0" stroke-width="2" points="1072.2434,-190.4609 1068.8828,-180.4133 1065.2441,-190.3637 1072.2434,-190.4609"/>
</g>
<!-- 37&#45;&gt;1 -->
<g id="edge2" class="edge">
<title>37&#45;&gt;1</title>
<path fill="none" stroke="#c0c0c0" stroke-width="2" d="M1533.2503,-215.8314C1526.3855,-207.454 1518.1084,-197.3531 1510.5874,-188.1749"/>
<polygon fill="#c0c0c0" stroke="#c0c0c0" stroke-width="2" points="1513.2726,-185.9297 1504.2271,-180.4133 1507.8582,-190.3665 1513.2726,-185.9297"/>
</g>
<!-- 38&#45;&gt;21 -->
<g id="edge30" class="edge">
<title>38&#45;&gt;21</title>
<path fill="none" stroke="#c0c0c0" stroke-width="2" d="M872.7985,-153.2194C887.6616,-150.1324 904.6305,-146.7504 920.1385,-144 1019.8624,-126.3134 1135.8422,-109.5541 1208.3779,-99.5266"/>
<polygon fill="#c0c0c0" stroke="#c0c0c0" stroke-width="2" points="1208.8898,-102.9893 1218.3184,-98.157 1207.9343,-96.0548 1208.8898,-102.9893"/>
</g>
<!-- 39&#45;&gt;21 -->
<g id="edge33" class="edge">
<title>39&#45;&gt;21</title>
<path fill="none" stroke="#c0c0c0" stroke-width="2" d="M1010.8969,-146.5173C1013.6716,-145.6212 1016.4372,-144.7721 1019.1385,-144 1082.3318,-125.937 1155.7734,-111.2456 1208.4517,-101.7722"/>
<polygon fill="#c0c0c0" stroke="#c0c0c0" stroke-width="2" points="1209.1383,-105.2051 1218.3698,-100.0061 1207.9111,-98.3135 1209.1383,-105.2051"/>
</g>
<!-- 40 -->
<g id="node41" class="node">
<title>40</title>
<path fill="none" stroke="#d87d56" stroke-width="2" d="M506.4158,-404C506.4158,-404 413.8612,-404 413.8612,-404 407.8612,-404 401.8612,-398 401.8612,-392 401.8612,-392 401.8612,-380 401.8612,-380 401.8612,-374 407.8612,-368 413.8612,-368 413.8612,-368 506.4158,-368 506.4158,-368 512.4158,-368 518.4158,-374 518.4158,-380 518.4158,-380 518.4158,-392 518.4158,-392 518.4158,-398 512.4158,-404 506.4158,-404"/>
<text text-anchor="middle" x="460.1385" y="-389" font-family="sans" font-size="10.00" fill="#000000">download_rnaseq</text>
<text text-anchor="middle" x="460.1385" y="-377" font-family="sans" font-size="10.00" fill="#000000">sample: B6CastF1_4_R2</text>
</g>
<!-- 40&#45;&gt;44 -->
<g id="edge65" class="edge">
<title>40&#45;&gt;44</title>
<path fill="none" stroke="#c0c0c0" stroke-width="2" d="M460.1385,-367.9891C460.1385,-360.291 460.1385,-351.0629 460.1385,-342.2561"/>
<polygon fill="#c0c0c0" stroke="#c0c0c0" stroke-width="2" points="463.6386,-342.2282 460.1385,-332.2282 456.6386,-342.2282 463.6386,-342.2282"/>
</g>
<!-- 41&#45;&gt;37 -->
<g id="edge54" class="edge">
<title>41&#45;&gt;37</title>
<path fill="none" stroke="#c0c0c0" stroke-width="2" d="M1950.2325,-302.004C1923.0291,-297.712 1888.7563,-292.4125 1858.1385,-288 1741.4739,-271.1869 1706.4021,-284.4485 1588.9817,-251.7912"/>
<polygon fill="#c0c0c0" stroke="#c0c0c0" stroke-width="2" points="1589.8331,-248.3947 1579.2576,-249.0355 1587.9244,-255.1295 1589.8331,-248.3947"/>
</g>
<!-- 42&#45;&gt;49 -->
<g id="edge71" class="edge">
<title>42&#45;&gt;49</title>
<path fill="none" stroke="#c0c0c0" stroke-width="2" d="M1623.0917,-215.8314C1620.9291,-208.0463 1618.3532,-198.7729 1615.9537,-190.1347"/>
<polygon fill="#c0c0c0" stroke="#c0c0c0" stroke-width="2" points="1619.3021,-189.1117 1613.2533,-180.4133 1612.5575,-190.9852 1619.3021,-189.1117"/>
</g>
<!-- 43 -->
<g id="node44" class="node">
<title>43</title>
<path fill="none" stroke="#d87d56" stroke-width="2" d="M238.4158,-404C238.4158,-404 145.8612,-404 145.8612,-404 139.8612,-404 133.8612,-398 133.8612,-392 133.8612,-392 133.8612,-380 133.8612,-380 133.8612,-374 139.8612,-368 145.8612,-368 145.8612,-368 238.4158,-368 238.4158,-368 244.4158,-368 250.4158,-374 250.4158,-380 250.4158,-380 250.4158,-392 250.4158,-392 250.4158,-398 244.4158,-404 238.4158,-404"/>
<text text-anchor="middle" x="192.1385" y="-389" font-family="sans" font-size="10.00" fill="#000000">download_rnaseq</text>
<text text-anchor="middle" x="192.1385" y="-377" font-family="sans" font-size="10.00" fill="#000000">sample: CastB6F1_2_R2</text>
</g>
<!-- 43&#45;&gt;25 -->
<g id="edge39" class="edge">
<title>43&#45;&gt;25</title>
<path fill="none" stroke="#c0c0c0" stroke-width="2" d="M192.1385,-367.9891C192.1385,-360.291 192.1385,-351.0629 192.1385,-342.2561"/>
<polygon fill="#c0c0c0" stroke="#c0c0c0" stroke-width="2" points="195.6386,-342.2282 192.1385,-332.2282 188.6386,-342.2282 195.6386,-342.2282"/>
</g>
<!-- 44&#45;&gt;45 -->
<g id="edge67" class="edge">
<title>44&#45;&gt;45</title>
<path fill="none" stroke="#c0c0c0" stroke-width="2" d="M510.0445,-302.004C537.2479,-297.712 571.5207,-292.4125 602.1385,-288 718.8031,-271.1869 753.8749,-284.4485 871.2953,-251.7912"/>
<polygon fill="#c0c0c0" stroke="#c0c0c0" stroke-width="2" points="872.3526,-255.1295 881.0194,-249.0355 870.4439,-248.3947 872.3526,-255.1295"/>
</g>
<!-- 45&#45;&gt;39 -->
<g id="edge57" class="edge">
<title>45&#45;&gt;39</title>
<path fill="none" stroke="#c0c0c0" stroke-width="2" d="M926.7743,-215.8314C933.4546,-207.5386 941.4953,-197.557 948.8289,-188.4533"/>
<polygon fill="#c0c0c0" stroke="#c0c0c0" stroke-width="2" points="951.7579,-190.3965 955.3056,-180.4133 946.3066,-186.0052 951.7579,-190.3965"/>
</g>
<!-- 46 -->
<g id="node47" class="node">
<title>46</title>
<path fill="none" stroke="#d87d56" stroke-width="2" d="M104.4158,-404C104.4158,-404 11.8612,-404 11.8612,-404 5.8612,-404 -.1388,-398 -.1388,-392 -.1388,-392 -.1388,-380 -.1388,-380 -.1388,-374 5.8612,-368 11.8612,-368 11.8612,-368 104.4158,-368 104.4158,-368 110.4158,-368 116.4158,-374 116.4158,-380 116.4158,-380 116.4158,-392 116.4158,-392 116.4158,-398 110.4158,-404 104.4158,-404"/>
<text text-anchor="middle" x="58.1385" y="-389" font-family="sans" font-size="10.00" fill="#000000">download_rnaseq</text>
<text text-anchor="middle" x="58.1385" y="-377" font-family="sans" font-size="10.00" fill="#000000">sample: CastB6F1_2_R1</text>
</g>
<!-- 46&#45;&gt;25 -->
<g id="edge38" class="edge">
<title>46&#45;&gt;25</title>
<path fill="none" stroke="#c0c0c0" stroke-width="2" d="M89.8946,-367.9891C105.9756,-358.8685 125.8433,-347.6003 143.7758,-337.4296"/>
<polygon fill="#c0c0c0" stroke="#c0c0c0" stroke-width="2" points="145.975,-340.2061 152.9467,-332.2282 142.5216,-334.1172 145.975,-340.2061"/>
</g>
<!-- 47&#45;&gt;21 -->
<g id="edge31" class="edge">
<title>47&#45;&gt;21</title>
<path fill="none" stroke="#c0c0c0" stroke-width="2" d="M1666.9616,-145.2703C1663.9904,-144.8421 1661.0453,-144.4181 1658.1385,-144 1550.6352,-128.5388 1425.9471,-110.8131 1349.8176,-100.0138"/>
<polygon fill="#c0c0c0" stroke="#c0c0c0" stroke-width="2" points="1350.2555,-96.541 1339.8631,-98.602 1349.2725,-103.4716 1350.2555,-96.541"/>
</g>
<!-- 48&#45;&gt;29 -->
<g id="edge41" class="edge">
<title>48&#45;&gt;29</title>
<path fill="none" stroke="#c0c0c0" stroke-width="2" d="M1324.1385,-583.8314C1324.1385,-576.131 1324.1385,-566.9743 1324.1385,-558.4166"/>
<polygon fill="#c0c0c0" stroke="#c0c0c0" stroke-width="2" points="1327.6386,-558.4132 1324.1385,-548.4133 1320.6386,-558.4133 1327.6386,-558.4132"/>
</g>
<!-- 49&#45;&gt;21 -->
<g id="edge32" class="edge">
<title>49&#45;&gt;21</title>
<path fill="none" stroke="#c0c0c0" stroke-width="2" d="M1567.359,-150.9985C1558.1026,-148.6026 1548.2996,-146.1448 1539.1385,-144 1475.2502,-129.0422 1402.0359,-114.0252 1349.6132,-103.6382"/>
<polygon fill="#c0c0c0" stroke="#c0c0c0" stroke-width="2" points="1350.2333,-100.1931 1339.7446,-101.6889 1348.8767,-107.0604 1350.2333,-100.1931"/>
</g>
<!-- 50&#45;&gt;17 -->
<g id="edge21" class="edge">
<title>50&#45;&gt;17</title>
<path fill="none" stroke="#c0c0c0" stroke-width="2" d="M1230.1385,-439.8314C1230.1385,-432.131 1230.1385,-422.9743 1230.1385,-414.4166"/>
<polygon fill="#c0c0c0" stroke="#c0c0c0" stroke-width="2" points="1233.6386,-414.4132 1230.1385,-404.4133 1226.6386,-414.4133 1233.6386,-414.4132"/>
</g>
<!-- 51 -->
<g id="node52" class="node">
<title>51</title>
<path fill="none" stroke="#d87d56" stroke-width="2" d="M2046.4158,-404C2046.4158,-404 1953.8612,-404 1953.8612,-404 1947.8612,-404 1941.8612,-398 1941.8612,-392 1941.8612,-392 1941.8612,-380 1941.8612,-380 1941.8612,-374 1947.8612,-368 1953.8612,-368 1953.8612,-368 2046.4158,-368 2046.4158,-368 2052.4158,-368 2058.4158,-374 2058.4158,-380 2058.4158,-380 2058.4158,-392 2058.4158,-392 2058.4158,-398 2052.4158,-404 2046.4158,-404"/>
<text text-anchor="middle" x="2000.1385" y="-389" font-family="sans" font-size="10.00" fill="#000000">download_rnaseq</text>
<text text-anchor="middle" x="2000.1385" y="-377" font-family="sans" font-size="10.00" fill="#000000">sample: CastB6F1_4_R1</text>
</g>
<!-- 51&#45;&gt;41 -->
<g id="edge60" class="edge">
<title>51&#45;&gt;41</title>
<path fill="none" stroke="#c0c0c0" stroke-width="2" d="M2000.1385,-367.9891C2000.1385,-360.291 2000.1385,-351.0629 2000.1385,-342.2561"/>
<polygon fill="#c0c0c0" stroke="#c0c0c0" stroke-width="2" points="2003.6386,-342.2282 2000.1385,-332.2282 1996.6386,-342.2282 2003.6386,-342.2282"/>
</g>
</g>
</svg>
