<?xml version="1.0" encoding="UTF-8" standalone="no"?>
<!DOCTYPE svg PUBLIC "-//W3C//DTD SVG 1.1//EN"
 "http://www.w3.org/Graphics/SVG/1.1/DTD/svg11.dtd">
<!-- Generated by graphviz version 2.40.1 (20161225.0304)
 -->
<!-- Title: snakemake_dag Pages: 1 -->
<svg width="2574pt" height="700pt"
 viewBox="0.00 0.00 2573.98 700.00" xmlns="http://www.w3.org/2000/svg" xmlns:xlink="http://www.w3.org/1999/xlink">
<g id="graph0" class="graph" transform="scale(1 1) rotate(0) translate(4 696)">
<title>snakemake_dag</title>
<polygon fill="#ffffff" stroke="transparent" points="-4,4 -4,-696 2569.978,-696 2569.978,4 -4,4"/>
<!-- 0 -->
<g id="node1" class="node">
<title>0</title>
<path fill="none" stroke="#68d856" stroke-width="2" d="M1121.967,-404C1121.967,-404 1020.011,-404 1020.011,-404 1014.011,-404 1008.011,-398 1008.011,-392 1008.011,-392 1008.011,-380 1008.011,-380 1008.011,-374 1014.011,-368 1020.011,-368 1020.011,-368 1121.967,-368 1121.967,-368 1127.967,-368 1133.967,-374 1133.967,-380 1133.967,-380 1133.967,-392 1133.967,-392 1133.967,-398 1127.967,-404 1121.967,-404"/>
<text text-anchor="middle" x="1070.989" y="-389" font-family="sans" font-size="10.00" fill="#000000">download_rnaseq_CastB63</text>
<text text-anchor="middle" x="1070.989" y="-377" font-family="sans" font-size="10.00" fill="#000000">file: 1</text>
</g>
<!-- 28 -->
<g id="node29" class="node">
<title>28</title>
<path fill="none" stroke="#5663d8" stroke-width="2" d="M869.5978,-332C869.5978,-332 794.3802,-332 794.3802,-332 788.3802,-332 782.3802,-326 782.3802,-320 782.3802,-320 782.3802,-300 782.3802,-300 782.3802,-294 788.3802,-288 794.3802,-288 794.3802,-288 869.5978,-288 869.5978,-288 875.5978,-288 881.5978,-294 881.5978,-300 881.5978,-300 881.5978,-320 881.5978,-320 881.5978,-326 875.5978,-332 869.5978,-332"/>
<text text-anchor="middle" x="831.989" y="-319" font-family="sans" font-size="10.00" fill="#000000">trim_galore</text>
<text text-anchor="middle" x="831.989" y="-307" font-family="sans" font-size="10.00" fill="#000000">outdir: rna_seq</text>
<text text-anchor="middle" x="831.989" y="-295" font-family="sans" font-size="10.00" fill="#000000">sample: CastB6F1_3</text>
</g>
<!-- 0&#45;&gt;28 -->
<g id="edge44" class="edge">
<title>0&#45;&gt;28</title>
<path fill="none" stroke="#c0c0c0" stroke-width="2" d="M1010.9045,-367.9753C977.0663,-357.695 934.0776,-344.4195 895.989,-332 894.5578,-331.5333 893.1095,-331.0583 891.6495,-330.5768"/>
<polygon fill="#c0c0c0" stroke="#c0c0c0" stroke-width="2" points="892.4926,-327.1686 881.899,-327.3279 890.2797,-333.8096 892.4926,-327.1686"/>
</g>
<!-- 1 -->
<g id="node2" class="node">
<title>1</title>
<path fill="none" stroke="#9fd856" stroke-width="2" d="M1620.0931,-252C1620.0931,-252 1581.8849,-252 1581.8849,-252 1575.8849,-252 1569.8849,-246 1569.8849,-240 1569.8849,-240 1569.8849,-228 1569.8849,-228 1569.8849,-222 1575.8849,-216 1581.8849,-216 1581.8849,-216 1620.0931,-216 1620.0931,-216 1626.0931,-216 1632.0931,-222 1632.0931,-228 1632.0931,-228 1632.0931,-240 1632.0931,-240 1632.0931,-246 1626.0931,-252 1620.0931,-252"/>
<text text-anchor="middle" x="1600.989" y="-231" font-family="sans" font-size="10.00" fill="#000000">map_hisat2</text>
</g>
<!-- 4 -->
<g id="node5" class="node">
<title>4</title>
<path fill="none" stroke="#d87d56" stroke-width="2" d="M1571.49,-180C1571.49,-180 1514.488,-180 1514.488,-180 1508.488,-180 1502.488,-174 1502.488,-168 1502.488,-168 1502.488,-156 1502.488,-156 1502.488,-150 1508.488,-144 1514.488,-144 1514.488,-144 1571.49,-144 1571.49,-144 1577.49,-144 1583.49,-150 1583.49,-156 1583.49,-156 1583.49,-168 1583.49,-168 1583.49,-174 1577.49,-180 1571.49,-180"/>
<text text-anchor="middle" x="1542.989" y="-159" font-family="sans" font-size="10.00" fill="#000000">snp_split_hisat2</text>
</g>
<!-- 1&#45;&gt;4 -->
<g id="edge4" class="edge">
<title>1&#45;&gt;4</title>
<path fill="none" stroke="#c0c0c0" stroke-width="2" d="M1586.3532,-215.8314C1579.6729,-207.5386 1571.6322,-197.557 1564.2986,-188.4533"/>
<polygon fill="#c0c0c0" stroke="#c0c0c0" stroke-width="2" points="1566.8209,-186.0052 1557.8219,-180.4133 1561.3696,-190.3965 1566.8209,-186.0052"/>
</g>
<!-- 2 -->
<g id="node3" class="node">
<title>2</title>
<path fill="none" stroke="#d8d356" stroke-width="2" d="M113.967,-404C113.967,-404 12.011,-404 12.011,-404 6.011,-404 .011,-398 .011,-392 .011,-392 .011,-380 .011,-380 .011,-374 6.011,-368 12.011,-368 12.011,-368 113.967,-368 113.967,-368 119.967,-368 125.967,-374 125.967,-380 125.967,-380 125.967,-392 125.967,-392 125.967,-398 119.967,-404 113.967,-404"/>
<text text-anchor="middle" x="62.989" y="-389" font-family="sans" font-size="10.00" fill="#000000">download_rnaseq_B6Cast2</text>
<text text-anchor="middle" x="62.989" y="-377" font-family="sans" font-size="10.00" fill="#000000">file: 1</text>
</g>
<!-- 44 -->
<g id="node45" class="node">
<title>44</title>
<path fill="none" stroke="#5663d8" stroke-width="2" d="M244.5978,-332C244.5978,-332 169.3802,-332 169.3802,-332 163.3802,-332 157.3802,-326 157.3802,-320 157.3802,-320 157.3802,-300 157.3802,-300 157.3802,-294 163.3802,-288 169.3802,-288 169.3802,-288 244.5978,-288 244.5978,-288 250.5978,-288 256.5978,-294 256.5978,-300 256.5978,-300 256.5978,-320 256.5978,-320 256.5978,-326 250.5978,-332 244.5978,-332"/>
<text text-anchor="middle" x="206.989" y="-319" font-family="sans" font-size="10.00" fill="#000000">trim_galore</text>
<text text-anchor="middle" x="206.989" y="-307" font-family="sans" font-size="10.00" fill="#000000">outdir: rna_seq</text>
<text text-anchor="middle" x="206.989" y="-295" font-family="sans" font-size="10.00" fill="#000000">sample: B6CastF1_2</text>
</g>
<!-- 2&#45;&gt;44 -->
<g id="edge67" class="edge">
<title>2&#45;&gt;44</title>
<path fill="none" stroke="#c0c0c0" stroke-width="2" d="M97.115,-367.9891C114.7057,-358.7051 136.5127,-347.1958 156.0509,-336.884"/>
<polygon fill="#c0c0c0" stroke="#c0c0c0" stroke-width="2" points="157.9271,-339.8514 165.1372,-332.0884 154.6597,-333.6607 157.9271,-339.8514"/>
</g>
<!-- 3 -->
<g id="node4" class="node">
<title>3</title>
<path fill="none" stroke="#56d8b9" stroke-width="2" d="M1545.967,-404C1545.967,-404 1444.011,-404 1444.011,-404 1438.011,-404 1432.011,-398 1432.011,-392 1432.011,-392 1432.011,-380 1432.011,-380 1432.011,-374 1438.011,-368 1444.011,-368 1444.011,-368 1545.967,-368 1545.967,-368 1551.967,-368 1557.967,-374 1557.967,-380 1557.967,-380 1557.967,-392 1557.967,-392 1557.967,-398 1551.967,-404 1545.967,-404"/>
<text text-anchor="middle" x="1494.989" y="-389" font-family="sans" font-size="10.00" fill="#000000">download_rnaseq_CastB65</text>
<text text-anchor="middle" x="1494.989" y="-377" font-family="sans" font-size="10.00" fill="#000000">file: 1</text>
</g>
<!-- 19 -->
<g id="node20" class="node">
<title>19</title>
<path fill="none" stroke="#5663d8" stroke-width="2" d="M1771.5978,-332C1771.5978,-332 1696.3802,-332 1696.3802,-332 1690.3802,-332 1684.3802,-326 1684.3802,-320 1684.3802,-320 1684.3802,-300 1684.3802,-300 1684.3802,-294 1690.3802,-288 1696.3802,-288 1696.3802,-288 1771.5978,-288 1771.5978,-288 1777.5978,-288 1783.5978,-294 1783.5978,-300 1783.5978,-300 1783.5978,-320 1783.5978,-320 1783.5978,-326 1777.5978,-332 1771.5978,-332"/>
<text text-anchor="middle" x="1733.989" y="-319" font-family="sans" font-size="10.00" fill="#000000">trim_galore</text>
<text text-anchor="middle" x="1733.989" y="-307" font-family="sans" font-size="10.00" fill="#000000">outdir: rna_seq</text>
<text text-anchor="middle" x="1733.989" y="-295" font-family="sans" font-size="10.00" fill="#000000">sample: CastB6F1_5</text>
</g>
<!-- 3&#45;&gt;19 -->
<g id="edge31" class="edge">
<title>3&#45;&gt;19</title>
<path fill="none" stroke="#c0c0c0" stroke-width="2" d="M1555.0735,-367.9753C1588.9117,-357.695 1631.9004,-344.4195 1669.989,-332 1671.4202,-331.5333 1672.8685,-331.0583 1674.3285,-330.5768"/>
<polygon fill="#c0c0c0" stroke="#c0c0c0" stroke-width="2" points="1675.6983,-333.8096 1684.079,-327.3279 1673.4854,-327.1686 1675.6983,-333.8096"/>
</g>
<!-- 12 -->
<g id="node13" class="node">
<title>12</title>
<path fill="none" stroke="#56d8a9" stroke-width="2" d="M1282.5179,-108C1282.5179,-108 1185.4601,-108 1185.4601,-108 1179.4601,-108 1173.4601,-102 1173.4601,-96 1173.4601,-96 1173.4601,-84 1173.4601,-84 1173.4601,-78 1179.4601,-72 1185.4601,-72 1185.4601,-72 1282.5179,-72 1282.5179,-72 1288.5179,-72 1294.5179,-78 1294.5179,-84 1294.5179,-84 1294.5179,-96 1294.5179,-96 1294.5179,-102 1288.5179,-108 1282.5179,-108"/>
<text text-anchor="middle" x="1233.989" y="-87" font-family="sans" font-size="10.00" fill="#000000">rnaseq_analysis_notebook</text>
</g>
<!-- 4&#45;&gt;12 -->
<g id="edge17" class="edge">
<title>4&#45;&gt;12</title>
<path fill="none" stroke="#c0c0c0" stroke-width="2" d="M1502.2306,-146.5173C1499.4559,-145.6212 1496.6903,-144.7721 1493.989,-144 1430.7957,-125.937 1357.3541,-111.2456 1304.6758,-101.7722"/>
<polygon fill="#c0c0c0" stroke="#c0c0c0" stroke-width="2" points="1305.2164,-98.3135 1294.7577,-100.0061 1303.9892,-105.2051 1305.2164,-98.3135"/>
</g>
<!-- 5 -->
<g id="node6" class="node">
<title>5</title>
<path fill="none" stroke="#80d856" stroke-width="2" d="M401.967,-404C401.967,-404 300.011,-404 300.011,-404 294.011,-404 288.011,-398 288.011,-392 288.011,-392 288.011,-380 288.011,-380 288.011,-374 294.011,-368 300.011,-368 300.011,-368 401.967,-368 401.967,-368 407.967,-368 413.967,-374 413.967,-380 413.967,-380 413.967,-392 413.967,-392 413.967,-398 407.967,-404 401.967,-404"/>
<text text-anchor="middle" x="350.989" y="-389" font-family="sans" font-size="10.00" fill="#000000">download_rnaseq_CastB64</text>
<text text-anchor="middle" x="350.989" y="-377" font-family="sans" font-size="10.00" fill="#000000">file: 2</text>
</g>
<!-- 7 -->
<g id="node8" class="node">
<title>7</title>
<path fill="none" stroke="#5663d8" stroke-width="2" d="M532.5978,-332C532.5978,-332 457.3802,-332 457.3802,-332 451.3802,-332 445.3802,-326 445.3802,-320 445.3802,-320 445.3802,-300 445.3802,-300 445.3802,-294 451.3802,-288 457.3802,-288 457.3802,-288 532.5978,-288 532.5978,-288 538.5978,-288 544.5978,-294 544.5978,-300 544.5978,-300 544.5978,-320 544.5978,-320 544.5978,-326 538.5978,-332 532.5978,-332"/>
<text text-anchor="middle" x="494.989" y="-319" font-family="sans" font-size="10.00" fill="#000000">trim_galore</text>
<text text-anchor="middle" x="494.989" y="-307" font-family="sans" font-size="10.00" fill="#000000">outdir: rna_seq</text>
<text text-anchor="middle" x="494.989" y="-295" font-family="sans" font-size="10.00" fill="#000000">sample: CastB6F1_4</text>
</g>
<!-- 5&#45;&gt;7 -->
<g id="edge8" class="edge">
<title>5&#45;&gt;7</title>
<path fill="none" stroke="#c0c0c0" stroke-width="2" d="M385.115,-367.9891C402.7057,-358.7051 424.5127,-347.1958 444.0509,-336.884"/>
<polygon fill="#c0c0c0" stroke="#c0c0c0" stroke-width="2" points="445.9271,-339.8514 453.1372,-332.0884 442.6597,-333.6607 445.9271,-339.8514"/>
</g>
<!-- 6 -->
<g id="node7" class="node">
<title>6</title>
<path fill="none" stroke="#d87d56" stroke-width="2" d="M933.49,-180C933.49,-180 876.488,-180 876.488,-180 870.488,-180 864.488,-174 864.488,-168 864.488,-168 864.488,-156 864.488,-156 864.488,-150 870.488,-144 876.488,-144 876.488,-144 933.49,-144 933.49,-144 939.49,-144 945.49,-150 945.49,-156 945.49,-156 945.49,-168 945.49,-168 945.49,-174 939.49,-180 933.49,-180"/>
<text text-anchor="middle" x="904.989" y="-159" font-family="sans" font-size="10.00" fill="#000000">snp_split_hisat2</text>
</g>
<!-- 6&#45;&gt;12 -->
<g id="edge14" class="edge">
<title>6&#45;&gt;12</title>
<path fill="none" stroke="#c0c0c0" stroke-width="2" d="M945.7685,-150.9985C955.0249,-148.6026 964.8279,-146.1448 973.989,-144 1037.8773,-129.0422 1111.0916,-114.0252 1163.5143,-103.6382"/>
<polygon fill="#c0c0c0" stroke="#c0c0c0" stroke-width="2" points="1164.2508,-107.0604 1173.3829,-101.6889 1162.8942,-100.1931 1164.2508,-107.0604"/>
</g>
<!-- 40 -->
<g id="node41" class="node">
<title>40</title>
<path fill="none" stroke="#9fd856" stroke-width="2" d="M984.0931,-252C984.0931,-252 945.8849,-252 945.8849,-252 939.8849,-252 933.8849,-246 933.8849,-240 933.8849,-240 933.8849,-228 933.8849,-228 933.8849,-222 939.8849,-216 945.8849,-216 945.8849,-216 984.0931,-216 984.0931,-216 990.0931,-216 996.0931,-222 996.0931,-228 996.0931,-228 996.0931,-240 996.0931,-240 996.0931,-246 990.0931,-252 984.0931,-252"/>
<text text-anchor="middle" x="964.989" y="-231" font-family="sans" font-size="10.00" fill="#000000">map_hisat2</text>
</g>
<!-- 7&#45;&gt;40 -->
<g id="edge59" class="edge">
<title>7&#45;&gt;40</title>
<path fill="none" stroke="#c0c0c0" stroke-width="2" d="M544.7108,-303.1099C576.2918,-298.7469 618.0342,-293.0043 654.989,-288 771.7928,-272.1829 806.7328,-284.501 924.1461,-251.7933"/>
<polygon fill="#c0c0c0" stroke="#c0c0c0" stroke-width="2" points="925.2043,-255.1313 933.8699,-249.0355 923.2943,-248.3969 925.2043,-255.1313"/>
</g>
<!-- 8 -->
<g id="node9" class="node">
<title>8</title>
<path fill="none" stroke="#56b9d8" stroke-width="2" d="M754.5354,-252C754.5354,-252 707.4426,-252 707.4426,-252 701.4426,-252 695.4426,-246 695.4426,-240 695.4426,-240 695.4426,-228 695.4426,-228 695.4426,-222 701.4426,-216 707.4426,-216 707.4426,-216 754.5354,-216 754.5354,-216 760.5354,-216 766.5354,-222 766.5354,-228 766.5354,-228 766.5354,-240 766.5354,-240 766.5354,-246 760.5354,-252 754.5354,-252"/>
<text text-anchor="middle" x="730.989" y="-231" font-family="sans" font-size="10.00" fill="#000000">download_gtf</text>
</g>
<!-- 24 -->
<g id="node25" class="node">
<title>24</title>
<path fill="none" stroke="#d6d856" stroke-width="2" d="M834.123,-180C834.123,-180 627.855,-180 627.855,-180 621.855,-180 615.855,-174 615.855,-168 615.855,-168 615.855,-156 615.855,-156 615.855,-150 621.855,-144 627.855,-144 627.855,-144 834.123,-144 834.123,-144 840.123,-144 846.123,-150 846.123,-156 846.123,-156 846.123,-168 846.123,-168 846.123,-174 840.123,-180 834.123,-180"/>
<text text-anchor="middle" x="730.989" y="-165" font-family="sans" font-size="10.00" fill="#000000">gunzip_gtf</text>
<text text-anchor="middle" x="730.989" y="-153" font-family="sans" font-size="10.00" fill="#000000">file: ../genome_data/Mus_musculus.GRCm38_90.chr</text>
</g>
<!-- 8&#45;&gt;24 -->
<g id="edge40" class="edge">
<title>8&#45;&gt;24</title>
<path fill="none" stroke="#c0c0c0" stroke-width="2" d="M730.989,-215.8314C730.989,-208.131 730.989,-198.9743 730.989,-190.4166"/>
<polygon fill="#c0c0c0" stroke="#c0c0c0" stroke-width="2" points="734.4891,-190.4132 730.989,-180.4133 727.4891,-190.4133 734.4891,-190.4132"/>
</g>
<!-- 9 -->
<g id="node10" class="node">
<title>9</title>
<path fill="none" stroke="#56d8d0" stroke-width="2" d="M689.967,-404C689.967,-404 588.011,-404 588.011,-404 582.011,-404 576.011,-398 576.011,-392 576.011,-392 576.011,-380 576.011,-380 576.011,-374 582.011,-368 588.011,-368 588.011,-368 689.967,-368 689.967,-368 695.967,-368 701.967,-374 701.967,-380 701.967,-380 701.967,-392 701.967,-392 701.967,-398 695.967,-404 689.967,-404"/>
<text text-anchor="middle" x="638.989" y="-389" font-family="sans" font-size="10.00" fill="#000000">download_rnaseq_CastB62</text>
<text text-anchor="middle" x="638.989" y="-377" font-family="sans" font-size="10.00" fill="#000000">file: 2</text>
</g>
<!-- 14 -->
<g id="node15" class="node">
<title>14</title>
<path fill="none" stroke="#5663d8" stroke-width="2" d="M751.5978,-332C751.5978,-332 676.3802,-332 676.3802,-332 670.3802,-332 664.3802,-326 664.3802,-320 664.3802,-320 664.3802,-300 664.3802,-300 664.3802,-294 670.3802,-288 676.3802,-288 676.3802,-288 751.5978,-288 751.5978,-288 757.5978,-288 763.5978,-294 763.5978,-300 763.5978,-300 763.5978,-320 763.5978,-320 763.5978,-326 757.5978,-332 751.5978,-332"/>
<text text-anchor="middle" x="713.989" y="-319" font-family="sans" font-size="10.00" fill="#000000">trim_galore</text>
<text text-anchor="middle" x="713.989" y="-307" font-family="sans" font-size="10.00" fill="#000000">outdir: rna_seq</text>
<text text-anchor="middle" x="713.989" y="-295" font-family="sans" font-size="10.00" fill="#000000">sample: CastB6F1_2</text>
</g>
<!-- 9&#45;&gt;14 -->
<g id="edge22" class="edge">
<title>9&#45;&gt;14</title>
<path fill="none" stroke="#c0c0c0" stroke-width="2" d="M656.763,-367.9891C665.1855,-359.4542 675.464,-349.0387 684.9741,-339.4018"/>
<polygon fill="#c0c0c0" stroke="#c0c0c0" stroke-width="2" points="687.5204,-341.8044 692.0533,-332.2282 682.5379,-336.8875 687.5204,-341.8044"/>
</g>
<!-- 10 -->
<g id="node11" class="node">
<title>10</title>
<path fill="none" stroke="#56d8d8" stroke-width="2" d="M2265.967,-404C2265.967,-404 2164.011,-404 2164.011,-404 2158.011,-404 2152.011,-398 2152.011,-392 2152.011,-392 2152.011,-380 2152.011,-380 2152.011,-374 2158.011,-368 2164.011,-368 2164.011,-368 2265.967,-368 2265.967,-368 2271.967,-368 2277.967,-374 2277.967,-380 2277.967,-380 2277.967,-392 2277.967,-392 2277.967,-398 2271.967,-404 2265.967,-404"/>
<text text-anchor="middle" x="2214.989" y="-389" font-family="sans" font-size="10.00" fill="#000000">download_rnaseq_B6Cast3</text>
<text text-anchor="middle" x="2214.989" y="-377" font-family="sans" font-size="10.00" fill="#000000">file: 2</text>
</g>
<!-- 49 -->
<g id="node50" class="node">
<title>49</title>
<path fill="none" stroke="#5663d8" stroke-width="2" d="M2108.5978,-332C2108.5978,-332 2033.3802,-332 2033.3802,-332 2027.3802,-332 2021.3802,-326 2021.3802,-320 2021.3802,-320 2021.3802,-300 2021.3802,-300 2021.3802,-294 2027.3802,-288 2033.3802,-288 2033.3802,-288 2108.5978,-288 2108.5978,-288 2114.5978,-288 2120.5978,-294 2120.5978,-300 2120.5978,-300 2120.5978,-320 2120.5978,-320 2120.5978,-326 2114.5978,-332 2108.5978,-332"/>
<text text-anchor="middle" x="2070.989" y="-319" font-family="sans" font-size="10.00" fill="#000000">trim_galore</text>
<text text-anchor="middle" x="2070.989" y="-307" font-family="sans" font-size="10.00" fill="#000000">outdir: rna_seq</text>
<text text-anchor="middle" x="2070.989" y="-295" font-family="sans" font-size="10.00" fill="#000000">sample: B6CastF1_3</text>
</g>
<!-- 10&#45;&gt;49 -->
<g id="edge74" class="edge">
<title>10&#45;&gt;49</title>
<path fill="none" stroke="#c0c0c0" stroke-width="2" d="M2180.863,-367.9891C2163.2723,-358.7051 2141.4653,-347.1958 2121.9271,-336.884"/>
<polygon fill="#c0c0c0" stroke="#c0c0c0" stroke-width="2" points="2123.3183,-333.6607 2112.8408,-332.0884 2120.0509,-339.8514 2123.3183,-333.6607"/>
</g>
<!-- 11 -->
<g id="node12" class="node">
<title>11</title>
<path fill="none" stroke="#9fd856" stroke-width="2" d="M904.0931,-252C904.0931,-252 865.8849,-252 865.8849,-252 859.8849,-252 853.8849,-246 853.8849,-240 853.8849,-240 853.8849,-228 853.8849,-228 853.8849,-222 859.8849,-216 865.8849,-216 865.8849,-216 904.0931,-216 904.0931,-216 910.0931,-216 916.0931,-222 916.0931,-228 916.0931,-228 916.0931,-240 916.0931,-240 916.0931,-246 910.0931,-252 904.0931,-252"/>
<text text-anchor="middle" x="884.989" y="-231" font-family="sans" font-size="10.00" fill="#000000">map_hisat2</text>
</g>
<!-- 11&#45;&gt;6 -->
<g id="edge6" class="edge">
<title>11&#45;&gt;6</title>
<path fill="none" stroke="#c0c0c0" stroke-width="2" d="M890.0358,-215.8314C892.1984,-208.0463 894.7743,-198.7729 897.1738,-190.1347"/>
<polygon fill="#c0c0c0" stroke="#c0c0c0" stroke-width="2" points="900.57,-190.9852 899.8742,-180.4133 893.8254,-189.1117 900.57,-190.9852"/>
</g>
<!-- 45 -->
<g id="node46" class="node">
<title>45</title>
<path fill="none" stroke="#d89c56" stroke-width="2" d="M1261.7996,-36C1261.7996,-36 1206.1784,-36 1206.1784,-36 1200.1784,-36 1194.1784,-30 1194.1784,-24 1194.1784,-24 1194.1784,-12 1194.1784,-12 1194.1784,-6 1200.1784,0 1206.1784,0 1206.1784,0 1261.7996,0 1261.7996,0 1267.7996,0 1273.7996,-6 1273.7996,-12 1273.7996,-12 1273.7996,-24 1273.7996,-24 1273.7996,-30 1267.7996,-36 1261.7996,-36"/>
<text text-anchor="middle" x="1233.989" y="-15" font-family="sans" font-size="10.00" fill="#000000">rnaseq_analysis</text>
</g>
<!-- 12&#45;&gt;45 -->
<g id="edge68" class="edge">
<title>12&#45;&gt;45</title>
<path fill="none" stroke="#c0c0c0" stroke-width="2" d="M1233.989,-71.8314C1233.989,-64.131 1233.989,-54.9743 1233.989,-46.4166"/>
<polygon fill="#c0c0c0" stroke="#c0c0c0" stroke-width="2" points="1237.4891,-46.4132 1233.989,-36.4133 1230.4891,-46.4133 1237.4891,-46.4132"/>
</g>
<!-- 13 -->
<g id="node14" class="node">
<title>13</title>
<path fill="none" stroke="#80d856" stroke-width="2" d="M545.967,-404C545.967,-404 444.011,-404 444.011,-404 438.011,-404 432.011,-398 432.011,-392 432.011,-392 432.011,-380 432.011,-380 432.011,-374 438.011,-368 444.011,-368 444.011,-368 545.967,-368 545.967,-368 551.967,-368 557.967,-374 557.967,-380 557.967,-380 557.967,-392 557.967,-392 557.967,-398 551.967,-404 545.967,-404"/>
<text text-anchor="middle" x="494.989" y="-389" font-family="sans" font-size="10.00" fill="#000000">download_rnaseq_CastB64</text>
<text text-anchor="middle" x="494.989" y="-377" font-family="sans" font-size="10.00" fill="#000000">file: 1</text>
</g>
<!-- 13&#45;&gt;7 -->
<g id="edge9" class="edge">
<title>13&#45;&gt;7</title>
<path fill="none" stroke="#c0c0c0" stroke-width="2" d="M494.989,-367.9891C494.989,-360.291 494.989,-351.0629 494.989,-342.2561"/>
<polygon fill="#c0c0c0" stroke="#c0c0c0" stroke-width="2" points="498.4891,-342.2282 494.989,-332.2282 491.4891,-342.2282 498.4891,-342.2282"/>
</g>
<!-- 46 -->
<g id="node47" class="node">
<title>46</title>
<path fill="none" stroke="#9fd856" stroke-width="2" d="M1102.0931,-252C1102.0931,-252 1063.8849,-252 1063.8849,-252 1057.8849,-252 1051.8849,-246 1051.8849,-240 1051.8849,-240 1051.8849,-228 1051.8849,-228 1051.8849,-222 1057.8849,-216 1063.8849,-216 1063.8849,-216 1102.0931,-216 1102.0931,-216 1108.0931,-216 1114.0931,-222 1114.0931,-228 1114.0931,-228 1114.0931,-240 1114.0931,-240 1114.0931,-246 1108.0931,-252 1102.0931,-252"/>
<text text-anchor="middle" x="1082.989" y="-231" font-family="sans" font-size="10.00" fill="#000000">map_hisat2</text>
</g>
<!-- 14&#45;&gt;46 -->
<g id="edge71" class="edge">
<title>14&#45;&gt;46</title>
<path fill="none" stroke="#c0c0c0" stroke-width="2" d="M763.6537,-290.6724C766.792,-289.7028 769.9216,-288.801 772.989,-288 873.9486,-261.6362 902.529,-271.7446 1004.989,-252 1016.9158,-249.7016 1029.7902,-246.8746 1041.5751,-244.1478"/>
<polygon fill="#c0c0c0" stroke="#c0c0c0" stroke-width="2" points="1042.6651,-247.4871 1051.5998,-241.7931 1041.0644,-240.6726 1042.6651,-247.4871"/>
</g>
<!-- 15 -->
<g id="node16" class="node">
<title>15</title>
<path fill="none" stroke="#70d856" stroke-width="2" d="M1330.2363,-476C1330.2363,-476 1235.7417,-476 1235.7417,-476 1229.7417,-476 1223.7417,-470 1223.7417,-464 1223.7417,-464 1223.7417,-452 1223.7417,-452 1223.7417,-446 1229.7417,-440 1235.7417,-440 1235.7417,-440 1330.2363,-440 1330.2363,-440 1336.2363,-440 1342.2363,-446 1342.2363,-452 1342.2363,-452 1342.2363,-464 1342.2363,-464 1342.2363,-470 1336.2363,-476 1330.2363,-476"/>
<text text-anchor="middle" x="1282.989" y="-455" font-family="sans" font-size="10.00" fill="#000000">snpsplit_prepare_genome</text>
</g>
<!-- 27 -->
<g id="node28" class="node">
<title>27</title>
<path fill="none" stroke="#5682d8" stroke-width="2" d="M1333.3571,-404C1333.3571,-404 1232.6209,-404 1232.6209,-404 1226.6209,-404 1220.6209,-398 1220.6209,-392 1220.6209,-392 1220.6209,-380 1220.6209,-380 1220.6209,-374 1226.6209,-368 1232.6209,-368 1232.6209,-368 1333.3571,-368 1333.3571,-368 1339.3571,-368 1345.3571,-374 1345.3571,-380 1345.3571,-380 1345.3571,-392 1345.3571,-392 1345.3571,-398 1339.3571,-404 1333.3571,-404"/>
<text text-anchor="middle" x="1282.989" y="-383" font-family="sans" font-size="10.00" fill="#000000">clean_up_snpsplit_genome</text>
</g>
<!-- 15&#45;&gt;27 -->
<g id="edge43" class="edge">
<title>15&#45;&gt;27</title>
<path fill="none" stroke="#c0c0c0" stroke-width="2" d="M1282.989,-439.8314C1282.989,-432.131 1282.989,-422.9743 1282.989,-414.4166"/>
<polygon fill="#c0c0c0" stroke="#c0c0c0" stroke-width="2" points="1286.4891,-414.4132 1282.989,-404.4133 1279.4891,-414.4133 1286.4891,-414.4132"/>
</g>
<!-- 16 -->
<g id="node17" class="node">
<title>16</title>
<path fill="none" stroke="#d87d56" stroke-width="2" d="M1472.49,-180C1472.49,-180 1415.488,-180 1415.488,-180 1409.488,-180 1403.488,-174 1403.488,-168 1403.488,-168 1403.488,-156 1403.488,-156 1403.488,-150 1409.488,-144 1415.488,-144 1415.488,-144 1472.49,-144 1472.49,-144 1478.49,-144 1484.49,-150 1484.49,-156 1484.49,-156 1484.49,-168 1484.49,-168 1484.49,-174 1478.49,-180 1472.49,-180"/>
<text text-anchor="middle" x="1443.989" y="-159" font-family="sans" font-size="10.00" fill="#000000">snp_split_hisat2</text>
</g>
<!-- 16&#45;&gt;12 -->
<g id="edge15" class="edge">
<title>16&#45;&gt;12</title>
<path fill="none" stroke="#c0c0c0" stroke-width="2" d="M1403.2499,-148.0323C1372.8318,-137.6032 1330.7228,-123.1659 1296.1157,-111.3006"/>
<polygon fill="#c0c0c0" stroke="#c0c0c0" stroke-width="2" points="1297.1643,-107.9602 1286.5697,-108.0277 1294.894,-114.5818 1297.1643,-107.9602"/>
</g>
<!-- 17 -->
<g id="node18" class="node">
<title>17</title>
<path fill="none" stroke="#5663d8" stroke-width="2" d="M2396.5978,-332C2396.5978,-332 2321.3802,-332 2321.3802,-332 2315.3802,-332 2309.3802,-326 2309.3802,-320 2309.3802,-320 2309.3802,-300 2309.3802,-300 2309.3802,-294 2315.3802,-288 2321.3802,-288 2321.3802,-288 2396.5978,-288 2396.5978,-288 2402.5978,-288 2408.5978,-294 2408.5978,-300 2408.5978,-300 2408.5978,-320 2408.5978,-320 2408.5978,-326 2402.5978,-332 2396.5978,-332"/>
<text text-anchor="middle" x="2358.989" y="-319" font-family="sans" font-size="10.00" fill="#000000">trim_galore</text>
<text text-anchor="middle" x="2358.989" y="-307" font-family="sans" font-size="10.00" fill="#000000">outdir: rna_seq</text>
<text text-anchor="middle" x="2358.989" y="-295" font-family="sans" font-size="10.00" fill="#000000">sample: B6CastF1_5</text>
</g>
<!-- 33 -->
<g id="node34" class="node">
<title>33</title>
<path fill="none" stroke="#9fd856" stroke-width="2" d="M1738.0931,-252C1738.0931,-252 1699.8849,-252 1699.8849,-252 1693.8849,-252 1687.8849,-246 1687.8849,-240 1687.8849,-240 1687.8849,-228 1687.8849,-228 1687.8849,-222 1693.8849,-216 1699.8849,-216 1699.8849,-216 1738.0931,-216 1738.0931,-216 1744.0931,-216 1750.0931,-222 1750.0931,-228 1750.0931,-228 1750.0931,-240 1750.0931,-240 1750.0931,-246 1744.0931,-252 1738.0931,-252"/>
<text text-anchor="middle" x="1718.989" y="-231" font-family="sans" font-size="10.00" fill="#000000">map_hisat2</text>
</g>
<!-- 17&#45;&gt;33 -->
<g id="edge49" class="edge">
<title>17&#45;&gt;33</title>
<path fill="none" stroke="#c0c0c0" stroke-width="2" d="M2309.3018,-304.0996C2186.9794,-289.5739 1873.0372,-252.2932 1760.175,-238.8908"/>
<polygon fill="#c0c0c0" stroke="#c0c0c0" stroke-width="2" points="1760.5477,-235.4106 1750.2047,-237.7069 1759.7221,-242.3617 1760.5477,-235.4106"/>
</g>
<!-- 18 -->
<g id="node19" class="node">
<title>18</title>
<path fill="none" stroke="#56c1d8" stroke-width="2" d="M1349.6314,-328C1349.6314,-328 1216.3466,-328 1216.3466,-328 1210.3466,-328 1204.3466,-322 1204.3466,-316 1204.3466,-316 1204.3466,-304 1204.3466,-304 1204.3466,-298 1210.3466,-292 1216.3466,-292 1216.3466,-292 1349.6314,-292 1349.6314,-292 1355.6314,-292 1361.6314,-298 1361.6314,-304 1361.6314,-304 1361.6314,-316 1361.6314,-316 1361.6314,-322 1355.6314,-328 1349.6314,-328"/>
<text text-anchor="middle" x="1282.989" y="-313" font-family="sans" font-size="10.00" fill="#000000">build_hisat2</text>
<text text-anchor="middle" x="1282.989" y="-301" font-family="sans" font-size="10.00" fill="#000000">genome: GRCm38.Cast_N&#45;masked</text>
</g>
<!-- 18&#45;&gt;1 -->
<g id="edge2" class="edge">
<title>18&#45;&gt;1</title>
<path fill="none" stroke="#c0c0c0" stroke-width="2" d="M1358.3506,-291.9891C1421.4114,-276.9179 1509.01,-255.9824 1559.878,-243.8253"/>
<polygon fill="#c0c0c0" stroke="#c0c0c0" stroke-width="2" points="1560.9359,-247.1711 1569.8484,-241.4424 1559.3087,-240.3628 1560.9359,-247.1711"/>
</g>
<!-- 18&#45;&gt;11 -->
<g id="edge11" class="edge">
<title>18&#45;&gt;11</title>
<path fill="none" stroke="#c0c0c0" stroke-width="2" d="M1204.1422,-303.2216C1132.9969,-295.7505 1025.7186,-281.1116 925.7808,-251.8277"/>
<polygon fill="#c0c0c0" stroke="#c0c0c0" stroke-width="2" points="926.7171,-248.4547 916.1338,-248.9479 924.7147,-255.1622 926.7171,-248.4547"/>
</g>
<!-- 21 -->
<g id="node22" class="node">
<title>21</title>
<path fill="none" stroke="#9fd856" stroke-width="2" d="M1464.0931,-252C1464.0931,-252 1425.8849,-252 1425.8849,-252 1419.8849,-252 1413.8849,-246 1413.8849,-240 1413.8849,-240 1413.8849,-228 1413.8849,-228 1413.8849,-222 1419.8849,-216 1425.8849,-216 1425.8849,-216 1464.0931,-216 1464.0931,-216 1470.0931,-216 1476.0931,-222 1476.0931,-228 1476.0931,-228 1476.0931,-240 1476.0931,-240 1476.0931,-246 1470.0931,-252 1464.0931,-252"/>
<text text-anchor="middle" x="1444.989" y="-231" font-family="sans" font-size="10.00" fill="#000000">map_hisat2</text>
</g>
<!-- 18&#45;&gt;21 -->
<g id="edge35" class="edge">
<title>18&#45;&gt;21</title>
<path fill="none" stroke="#c0c0c0" stroke-width="2" d="M1321.3807,-291.9891C1346.4366,-280.2345 1379.0965,-264.9125 1404.552,-252.9704"/>
<polygon fill="#c0c0c0" stroke="#c0c0c0" stroke-width="2" points="1406.3578,-255.9894 1413.9245,-248.5735 1403.3847,-249.6521 1406.3578,-255.9894"/>
</g>
<!-- 23 -->
<g id="node24" class="node">
<title>23</title>
<path fill="none" stroke="#9fd856" stroke-width="2" d="M1258.0931,-252C1258.0931,-252 1219.8849,-252 1219.8849,-252 1213.8849,-252 1207.8849,-246 1207.8849,-240 1207.8849,-240 1207.8849,-228 1207.8849,-228 1207.8849,-222 1213.8849,-216 1219.8849,-216 1219.8849,-216 1258.0931,-216 1258.0931,-216 1264.0931,-216 1270.0931,-222 1270.0931,-228 1270.0931,-228 1270.0931,-240 1270.0931,-240 1270.0931,-246 1264.0931,-252 1258.0931,-252"/>
<text text-anchor="middle" x="1238.989" y="-231" font-family="sans" font-size="10.00" fill="#000000">map_hisat2</text>
</g>
<!-- 18&#45;&gt;23 -->
<g id="edge38" class="edge">
<title>18&#45;&gt;23</title>
<path fill="none" stroke="#c0c0c0" stroke-width="2" d="M1272.5616,-291.9891C1267.1761,-282.6868 1260.4971,-271.1503 1254.518,-260.8229"/>
<polygon fill="#c0c0c0" stroke="#c0c0c0" stroke-width="2" points="1257.5334,-259.0457 1249.494,-252.145 1251.4754,-262.553 1257.5334,-259.0457"/>
</g>
<!-- 18&#45;&gt;33 -->
<g id="edge50" class="edge">
<title>18&#45;&gt;33</title>
<path fill="none" stroke="#c0c0c0" stroke-width="2" d="M1361.8243,-298.7603C1434.5404,-288.0302 1545.3758,-270.7562 1640.989,-252 1652.9081,-249.6619 1665.78,-246.8222 1677.565,-244.0961"/>
<polygon fill="#c0c0c0" stroke="#c0c0c0" stroke-width="2" points="1678.6537,-247.4358 1687.5904,-241.745 1677.0554,-240.6207 1678.6537,-247.4358"/>
</g>
<!-- 35 -->
<g id="node36" class="node">
<title>35</title>
<path fill="none" stroke="#9fd856" stroke-width="2" d="M1346.0931,-252C1346.0931,-252 1307.8849,-252 1307.8849,-252 1301.8849,-252 1295.8849,-246 1295.8849,-240 1295.8849,-240 1295.8849,-228 1295.8849,-228 1295.8849,-222 1301.8849,-216 1307.8849,-216 1307.8849,-216 1346.0931,-216 1346.0931,-216 1352.0931,-216 1358.0931,-222 1358.0931,-228 1358.0931,-228 1358.0931,-240 1358.0931,-240 1358.0931,-246 1352.0931,-252 1346.0931,-252"/>
<text text-anchor="middle" x="1326.989" y="-231" font-family="sans" font-size="10.00" fill="#000000">map_hisat2</text>
</g>
<!-- 18&#45;&gt;35 -->
<g id="edge54" class="edge">
<title>18&#45;&gt;35</title>
<path fill="none" stroke="#c0c0c0" stroke-width="2" d="M1293.4164,-291.9891C1298.8019,-282.6868 1305.4809,-271.1503 1311.46,-260.8229"/>
<polygon fill="#c0c0c0" stroke="#c0c0c0" stroke-width="2" points="1314.5026,-262.553 1316.484,-252.145 1308.4446,-259.0457 1314.5026,-262.553"/>
</g>
<!-- 18&#45;&gt;40 -->
<g id="edge60" class="edge">
<title>18&#45;&gt;40</title>
<path fill="none" stroke="#c0c0c0" stroke-width="2" d="M1207.6274,-291.9891C1144.5666,-276.9179 1056.968,-255.9824 1006.1,-243.8253"/>
<polygon fill="#c0c0c0" stroke="#c0c0c0" stroke-width="2" points="1006.6693,-240.3628 996.1296,-241.4424 1005.0421,-247.1711 1006.6693,-240.3628"/>
</g>
<!-- 18&#45;&gt;46 -->
<g id="edge70" class="edge">
<title>18&#45;&gt;46</title>
<path fill="none" stroke="#c0c0c0" stroke-width="2" d="M1235.5918,-291.9891C1201.5696,-279.0606 1156.1911,-261.8168 1123.7804,-249.5007"/>
<polygon fill="#c0c0c0" stroke="#c0c0c0" stroke-width="2" points="1124.7563,-246.1275 1114.1652,-245.847 1122.2698,-252.6709 1124.7563,-246.1275"/>
</g>
<!-- 19&#45;&gt;35 -->
<g id="edge52" class="edge">
<title>19&#45;&gt;35</title>
<path fill="none" stroke="#c0c0c0" stroke-width="2" d="M1684.2297,-302.0603C1619.6632,-291.5673 1503.5981,-272.0557 1404.989,-252 1393.0864,-249.5792 1380.2197,-246.7133 1368.4345,-243.9885"/>
<polygon fill="#c0c0c0" stroke="#c0c0c0" stroke-width="2" points="1368.9417,-240.5128 1358.4076,-241.6449 1367.3485,-247.3291 1368.9417,-240.5128"/>
</g>
<!-- 20 -->
<g id="node21" class="node">
<title>20</title>
<path fill="none" stroke="#d88556" stroke-width="2" d="M1298.1932,-548C1298.1932,-548 1081.7848,-548 1081.7848,-548 1075.7848,-548 1069.7848,-542 1069.7848,-536 1069.7848,-536 1069.7848,-524 1069.7848,-524 1069.7848,-518 1075.7848,-512 1081.7848,-512 1081.7848,-512 1298.1932,-512 1298.1932,-512 1304.1932,-512 1310.1932,-518 1310.1932,-524 1310.1932,-524 1310.1932,-536 1310.1932,-536 1310.1932,-542 1304.1932,-548 1298.1932,-548"/>
<text text-anchor="middle" x="1189.989" y="-533" font-family="sans" font-size="10.00" fill="#000000">gunzip_vcf</text>
<text text-anchor="middle" x="1189.989" y="-521" font-family="sans" font-size="10.00" fill="#000000">file: ../genome_data/CAST_EiJ.mgp.v5.snps.dbSNP142</text>
</g>
<!-- 20&#45;&gt;15 -->
<g id="edge24" class="edge">
<title>20&#45;&gt;15</title>
<path fill="none" stroke="#c0c0c0" stroke-width="2" d="M1213.4568,-511.8314C1225.0217,-502.8779 1239.1294,-491.9558 1251.6073,-482.2955"/>
<polygon fill="#c0c0c0" stroke="#c0c0c0" stroke-width="2" points="1253.764,-485.0521 1259.5287,-476.1628 1249.4788,-479.5171 1253.764,-485.0521"/>
</g>
<!-- 21&#45;&gt;16 -->
<g id="edge26" class="edge">
<title>21&#45;&gt;16</title>
<path fill="none" stroke="#c0c0c0" stroke-width="2" d="M1444.7367,-215.8314C1444.6297,-208.131 1444.5025,-198.9743 1444.3837,-190.4166"/>
<polygon fill="#c0c0c0" stroke="#c0c0c0" stroke-width="2" points="1447.8834,-190.3637 1444.2447,-180.4133 1440.8841,-190.4609 1447.8834,-190.3637"/>
</g>
<!-- 22 -->
<g id="node23" class="node">
<title>22</title>
<path fill="none" stroke="#d85e56" stroke-width="2" d="M1977.967,-404C1977.967,-404 1876.011,-404 1876.011,-404 1870.011,-404 1864.011,-398 1864.011,-392 1864.011,-392 1864.011,-380 1864.011,-380 1864.011,-374 1870.011,-368 1876.011,-368 1876.011,-368 1977.967,-368 1977.967,-368 1983.967,-368 1989.967,-374 1989.967,-380 1989.967,-380 1989.967,-392 1989.967,-392 1989.967,-398 1983.967,-404 1977.967,-404"/>
<text text-anchor="middle" x="1926.989" y="-389" font-family="sans" font-size="10.00" fill="#000000">download_rnaseq_B6Cast4</text>
<text text-anchor="middle" x="1926.989" y="-377" font-family="sans" font-size="10.00" fill="#000000">file: 1</text>
</g>
<!-- 37 -->
<g id="node38" class="node">
<title>37</title>
<path fill="none" stroke="#5663d8" stroke-width="2" d="M1889.5978,-332C1889.5978,-332 1814.3802,-332 1814.3802,-332 1808.3802,-332 1802.3802,-326 1802.3802,-320 1802.3802,-320 1802.3802,-300 1802.3802,-300 1802.3802,-294 1808.3802,-288 1814.3802,-288 1814.3802,-288 1889.5978,-288 1889.5978,-288 1895.5978,-288 1901.5978,-294 1901.5978,-300 1901.5978,-300 1901.5978,-320 1901.5978,-320 1901.5978,-326 1895.5978,-332 1889.5978,-332"/>
<text text-anchor="middle" x="1851.989" y="-319" font-family="sans" font-size="10.00" fill="#000000">trim_galore</text>
<text text-anchor="middle" x="1851.989" y="-307" font-family="sans" font-size="10.00" fill="#000000">outdir: rna_seq</text>
<text text-anchor="middle" x="1851.989" y="-295" font-family="sans" font-size="10.00" fill="#000000">sample: B6CastF1_4</text>
</g>
<!-- 22&#45;&gt;37 -->
<g id="edge58" class="edge">
<title>22&#45;&gt;37</title>
<path fill="none" stroke="#c0c0c0" stroke-width="2" d="M1909.215,-367.9891C1900.7925,-359.4542 1890.514,-349.0387 1881.0039,-339.4018"/>
<polygon fill="#c0c0c0" stroke="#c0c0c0" stroke-width="2" points="1883.4401,-336.8875 1873.9247,-332.2282 1878.4576,-341.8044 1883.4401,-336.8875"/>
</g>
<!-- 26 -->
<g id="node27" class="node">
<title>26</title>
<path fill="none" stroke="#d87d56" stroke-width="2" d="M1262.49,-180C1262.49,-180 1205.488,-180 1205.488,-180 1199.488,-180 1193.488,-174 1193.488,-168 1193.488,-168 1193.488,-156 1193.488,-156 1193.488,-150 1199.488,-144 1205.488,-144 1205.488,-144 1262.49,-144 1262.49,-144 1268.49,-144 1274.49,-150 1274.49,-156 1274.49,-156 1274.49,-168 1274.49,-168 1274.49,-174 1268.49,-180 1262.49,-180"/>
<text text-anchor="middle" x="1233.989" y="-159" font-family="sans" font-size="10.00" fill="#000000">snp_split_hisat2</text>
</g>
<!-- 23&#45;&gt;26 -->
<g id="edge42" class="edge">
<title>23&#45;&gt;26</title>
<path fill="none" stroke="#c0c0c0" stroke-width="2" d="M1237.7273,-215.8314C1237.1925,-208.131 1236.5567,-198.9743 1235.9624,-190.4166"/>
<polygon fill="#c0c0c0" stroke="#c0c0c0" stroke-width="2" points="1239.4522,-190.1467 1235.2677,-180.4133 1232.469,-190.6317 1239.4522,-190.1467"/>
</g>
<!-- 24&#45;&gt;12 -->
<g id="edge16" class="edge">
<title>24&#45;&gt;12</title>
<path fill="none" stroke="#c0c0c0" stroke-width="2" d="M846.1659,-145.2703C849.1371,-144.8421 852.0822,-144.4181 854.989,-144 962.4923,-128.5388 1087.1804,-110.8131 1163.3099,-100.0138"/>
<polygon fill="#c0c0c0" stroke="#c0c0c0" stroke-width="2" points="1163.855,-103.4716 1173.2644,-98.602 1162.872,-96.541 1163.855,-103.4716"/>
</g>
<!-- 25 -->
<g id="node26" class="node">
<title>25</title>
<path fill="none" stroke="#56d8c1" stroke-width="2" d="M2409.967,-404C2409.967,-404 2308.011,-404 2308.011,-404 2302.011,-404 2296.011,-398 2296.011,-392 2296.011,-392 2296.011,-380 2296.011,-380 2296.011,-374 2302.011,-368 2308.011,-368 2308.011,-368 2409.967,-368 2409.967,-368 2415.967,-368 2421.967,-374 2421.967,-380 2421.967,-380 2421.967,-392 2421.967,-392 2421.967,-398 2415.967,-404 2409.967,-404"/>
<text text-anchor="middle" x="2358.989" y="-389" font-family="sans" font-size="10.00" fill="#000000">download_rnaseq_B6Cast5</text>
<text text-anchor="middle" x="2358.989" y="-377" font-family="sans" font-size="10.00" fill="#000000">file: 2</text>
</g>
<!-- 25&#45;&gt;17 -->
<g id="edge29" class="edge">
<title>25&#45;&gt;17</title>
<path fill="none" stroke="#c0c0c0" stroke-width="2" d="M2358.989,-367.9891C2358.989,-360.291 2358.989,-351.0629 2358.989,-342.2561"/>
<polygon fill="#c0c0c0" stroke="#c0c0c0" stroke-width="2" points="2362.4891,-342.2282 2358.989,-332.2282 2355.4891,-342.2282 2362.4891,-342.2282"/>
</g>
<!-- 26&#45;&gt;12 -->
<g id="edge21" class="edge">
<title>26&#45;&gt;12</title>
<path fill="none" stroke="#c0c0c0" stroke-width="2" d="M1233.989,-143.8314C1233.989,-136.131 1233.989,-126.9743 1233.989,-118.4166"/>
<polygon fill="#c0c0c0" stroke="#c0c0c0" stroke-width="2" points="1237.4891,-118.4132 1233.989,-108.4133 1230.4891,-118.4133 1237.4891,-118.4132"/>
</g>
<!-- 27&#45;&gt;1 -->
<g id="edge3" class="edge">
<title>27&#45;&gt;1</title>
<path fill="none" stroke="#c0c0c0" stroke-width="2" d="M1345.6252,-376.6817C1421.0198,-364.9935 1539.6057,-344.9214 1555.989,-332 1577.8163,-314.785 1589.4621,-284.5709 1595.3941,-262.2285"/>
<polygon fill="#c0c0c0" stroke="#c0c0c0" stroke-width="2" points="1598.8492,-262.8313 1597.8003,-252.2885 1592.0457,-261.1843 1598.8492,-262.8313"/>
</g>
<!-- 27&#45;&gt;4 -->
<g id="edge5" class="edge">
<title>27&#45;&gt;4</title>
<path fill="none" stroke="#c0c0c0" stroke-width="2" d="M1345.533,-376.5151C1398.5917,-367.2723 1469.2973,-351.7407 1489.989,-332 1529.3827,-294.4168 1539.6582,-228.0875 1542.2352,-190.3511"/>
<polygon fill="#c0c0c0" stroke="#c0c0c0" stroke-width="2" points="1545.7462,-190.2421 1542.7939,-180.0669 1538.7565,-189.8623 1545.7462,-190.2421"/>
</g>
<!-- 27&#45;&gt;6 -->
<g id="edge7" class="edge">
<title>27&#45;&gt;6</title>
<path fill="none" stroke="#c0c0c0" stroke-width="2" d="M1220.3393,-377.7326C1121.3457,-364.4974 938.6041,-339.2981 925.989,-332 904.3598,-319.487 908.7279,-305.599 890.989,-288 872.5593,-269.7156 856.36,-275.3383 844.989,-252 837.981,-237.6164 838.4796,-230.616 844.989,-216 850.0224,-204.6983 858.7195,-194.7696 867.9549,-186.611"/>
<polygon fill="#c0c0c0" stroke="#c0c0c0" stroke-width="2" points="870.2705,-189.2382 875.7706,-180.1828 865.824,-183.8319 870.2705,-189.2382"/>
</g>
<!-- 27&#45;&gt;11 -->
<g id="edge12" class="edge">
<title>27&#45;&gt;11</title>
<path fill="none" stroke="#c0c0c0" stroke-width="2" d="M1220.3953,-377.1699C1136.9083,-365.0593 997.1132,-343.4927 975.989,-332 959.4262,-322.9889 927.2491,-285.9633 905.9382,-260.0986"/>
<polygon fill="#c0c0c0" stroke="#c0c0c0" stroke-width="2" points="908.4735,-257.6699 899.4345,-252.1429 903.0539,-262.1003 908.4735,-257.6699"/>
</g>
<!-- 27&#45;&gt;16 -->
<g id="edge27" class="edge">
<title>27&#45;&gt;16</title>
<path fill="none" stroke="#c0c0c0" stroke-width="2" d="M1345.4397,-373.7937C1390.2269,-363.8483 1445.4573,-348.7487 1461.989,-332 1498.9108,-294.5934 1501.7567,-265.8128 1484.989,-216 1481.6093,-205.9596 1475.5385,-196.3047 1469.0865,-188.0052"/>
<polygon fill="#c0c0c0" stroke="#c0c0c0" stroke-width="2" points="1471.6769,-185.6461 1462.593,-180.1933 1466.2938,-190.1208 1471.6769,-185.6461"/>
</g>
<!-- 27&#45;&gt;18 -->
<g id="edge30" class="edge">
<title>27&#45;&gt;18</title>
<path fill="none" stroke="#c0c0c0" stroke-width="2" d="M1282.989,-367.9891C1282.989,-359.1566 1282.989,-348.3099 1282.989,-338.3965"/>
<polygon fill="#c0c0c0" stroke="#c0c0c0" stroke-width="2" points="1286.4891,-338.145 1282.989,-328.145 1279.4891,-338.1451 1286.4891,-338.145"/>
</g>
<!-- 27&#45;&gt;21 -->
<g id="edge36" class="edge">
<title>27&#45;&gt;21</title>
<path fill="none" stroke="#c0c0c0" stroke-width="2" d="M1345.5656,-372.4645C1384.7558,-362.5989 1430.0247,-348.1704 1441.989,-332 1456.6262,-312.217 1455.6877,-283.5231 1452.0977,-262.2924"/>
<polygon fill="#c0c0c0" stroke="#c0c0c0" stroke-width="2" points="1455.4855,-261.3816 1450.1134,-252.2497 1448.6183,-262.7385 1455.4855,-261.3816"/>
</g>
<!-- 27&#45;&gt;23 -->
<g id="edge37" class="edge">
<title>27&#45;&gt;23</title>
<path fill="none" stroke="#c0c0c0" stroke-width="2" d="M1234.997,-367.9585C1219.3928,-359.5363 1203.8303,-347.7985 1194.989,-332 1185.4389,-314.935 1188.4333,-306.424 1194.989,-288 1198.5768,-277.9169 1204.9425,-268.3517 1211.7366,-260.1515"/>
<polygon fill="#c0c0c0" stroke="#c0c0c0" stroke-width="2" points="1214.5637,-262.2389 1218.5864,-252.4375 1209.3294,-257.591 1214.5637,-262.2389"/>
</g>
<!-- 27&#45;&gt;26 -->
<g id="edge41" class="edge">
<title>27&#45;&gt;26</title>
<path fill="none" stroke="#c0c0c0" stroke-width="2" d="M1226.2962,-367.8966C1209.7337,-359.6746 1193.5332,-348.0776 1183.989,-332 1156.4826,-285.6643 1190.023,-223.1518 1213.9499,-188.2903"/>
<polygon fill="#c0c0c0" stroke="#c0c0c0" stroke-width="2" points="1216.8622,-190.2339 1219.7829,-180.0496 1211.1486,-186.1897 1216.8622,-190.2339"/>
</g>
<!-- 32 -->
<g id="node33" class="node">
<title>32</title>
<path fill="none" stroke="#d87d56" stroke-width="2" d="M1361.49,-180C1361.49,-180 1304.488,-180 1304.488,-180 1298.488,-180 1292.488,-174 1292.488,-168 1292.488,-168 1292.488,-156 1292.488,-156 1292.488,-150 1298.488,-144 1304.488,-144 1304.488,-144 1361.49,-144 1361.49,-144 1367.49,-144 1373.49,-150 1373.49,-156 1373.49,-156 1373.49,-168 1373.49,-168 1373.49,-174 1367.49,-180 1361.49,-180"/>
<text text-anchor="middle" x="1332.989" y="-159" font-family="sans" font-size="10.00" fill="#000000">snp_split_hisat2</text>
</g>
<!-- 27&#45;&gt;32 -->
<g id="edge48" class="edge">
<title>27&#45;&gt;32</title>
<path fill="none" stroke="#c0c0c0" stroke-width="2" d="M1344.4082,-367.9938C1361.4865,-359.8495 1378.0589,-348.2732 1387.989,-332 1416.2908,-285.6195 1380.1168,-223.1235 1354.4471,-188.2769"/>
<polygon fill="#c0c0c0" stroke="#c0c0c0" stroke-width="2" points="1357.0276,-185.8877 1348.1928,-180.0399 1351.4526,-190.1208 1357.0276,-185.8877"/>
</g>
<!-- 27&#45;&gt;33 -->
<g id="edge51" class="edge">
<title>27&#45;&gt;33</title>
<path fill="none" stroke="#c0c0c0" stroke-width="2" d="M1345.3676,-377.4636C1442.3472,-364.0332 1619.5238,-338.796 1631.989,-332 1640.3066,-327.4653 1674.6286,-287.3473 1697.5962,-259.868"/>
<polygon fill="#c0c0c0" stroke="#c0c0c0" stroke-width="2" points="1700.3177,-262.0695 1704.0299,-252.1462 1694.9397,-257.5886 1700.3177,-262.0695"/>
</g>
<!-- 27&#45;&gt;35 -->
<g id="edge53" class="edge">
<title>27&#45;&gt;35</title>
<path fill="none" stroke="#c0c0c0" stroke-width="2" d="M1330.981,-367.9585C1346.5852,-359.5363 1362.1477,-347.7985 1370.989,-332 1380.5391,-314.935 1377.5447,-306.424 1370.989,-288 1367.4012,-277.9169 1361.0355,-268.3517 1354.2414,-260.1515"/>
<polygon fill="#c0c0c0" stroke="#c0c0c0" stroke-width="2" points="1356.6486,-257.591 1347.3916,-252.4375 1351.4143,-262.2389 1356.6486,-257.591"/>
</g>
<!-- 36 -->
<g id="node37" class="node">
<title>36</title>
<path fill="none" stroke="#d87d56" stroke-width="2" d="M1688.49,-180C1688.49,-180 1631.488,-180 1631.488,-180 1625.488,-180 1619.488,-174 1619.488,-168 1619.488,-168 1619.488,-156 1619.488,-156 1619.488,-150 1625.488,-144 1631.488,-144 1631.488,-144 1688.49,-144 1688.49,-144 1694.49,-144 1700.49,-150 1700.49,-156 1700.49,-156 1700.49,-168 1700.49,-168 1700.49,-174 1694.49,-180 1688.49,-180"/>
<text text-anchor="middle" x="1659.989" y="-159" font-family="sans" font-size="10.00" fill="#000000">snp_split_hisat2</text>
</g>
<!-- 27&#45;&gt;36 -->
<g id="edge56" class="edge">
<title>27&#45;&gt;36</title>
<path fill="none" stroke="#c0c0c0" stroke-width="2" d="M1345.6206,-377.338C1427.8491,-365.5729 1564.1424,-344.571 1583.989,-332 1633.0233,-300.9413 1650.6608,-229.8315 1656.8223,-190.1247"/>
<polygon fill="#c0c0c0" stroke="#c0c0c0" stroke-width="2" points="1660.3122,-190.441 1658.243,-180.0502 1653.3808,-189.4635 1660.3122,-190.441"/>
</g>
<!-- 27&#45;&gt;40 -->
<g id="edge61" class="edge">
<title>27&#45;&gt;40</title>
<path fill="none" stroke="#c0c0c0" stroke-width="2" d="M1220.3528,-376.6817C1144.9582,-364.9935 1026.3723,-344.9214 1009.989,-332 988.1617,-314.785 976.5159,-284.5709 970.5839,-262.2285"/>
<polygon fill="#c0c0c0" stroke="#c0c0c0" stroke-width="2" points="973.9323,-261.1843 968.1777,-252.2885 967.1288,-262.8313 973.9323,-261.1843"/>
</g>
<!-- 42 -->
<g id="node43" class="node">
<title>42</title>
<path fill="none" stroke="#d87d56" stroke-width="2" d="M1163.49,-180C1163.49,-180 1106.488,-180 1106.488,-180 1100.488,-180 1094.488,-174 1094.488,-168 1094.488,-168 1094.488,-156 1094.488,-156 1094.488,-150 1100.488,-144 1106.488,-144 1106.488,-144 1163.49,-144 1163.49,-144 1169.49,-144 1175.49,-150 1175.49,-156 1175.49,-156 1175.49,-168 1175.49,-168 1175.49,-174 1169.49,-180 1163.49,-180"/>
<text text-anchor="middle" x="1134.989" y="-159" font-family="sans" font-size="10.00" fill="#000000">snp_split_hisat2</text>
</g>
<!-- 27&#45;&gt;42 -->
<g id="edge62" class="edge">
<title>27&#45;&gt;42</title>
<path fill="none" stroke="#c0c0c0" stroke-width="2" d="M1220.5187,-368.633C1201.394,-360.4297 1181.9947,-348.6574 1168.989,-332 1136.7591,-290.7208 1132.6346,-227.0197 1133.2991,-190.4465"/>
<polygon fill="#c0c0c0" stroke="#c0c0c0" stroke-width="2" points="1136.811,-190.129 1133.6333,-180.022 1129.8146,-189.9047 1136.811,-190.129"/>
</g>
<!-- 43 -->
<g id="node44" class="node">
<title>43</title>
<path fill="none" stroke="#d87d56" stroke-width="2" d="M1052.49,-180C1052.49,-180 995.488,-180 995.488,-180 989.488,-180 983.488,-174 983.488,-168 983.488,-168 983.488,-156 983.488,-156 983.488,-150 989.488,-144 995.488,-144 995.488,-144 1052.49,-144 1052.49,-144 1058.49,-144 1064.49,-150 1064.49,-156 1064.49,-156 1064.49,-168 1064.49,-168 1064.49,-174 1058.49,-180 1052.49,-180"/>
<text text-anchor="middle" x="1023.989" y="-159" font-family="sans" font-size="10.00" fill="#000000">snp_split_hisat2</text>
</g>
<!-- 27&#45;&gt;43 -->
<g id="edge65" class="edge">
<title>27&#45;&gt;43</title>
<path fill="none" stroke="#c0c0c0" stroke-width="2" d="M1220.5314,-377.0626C1165.5102,-368.0002 1090.8192,-352.4134 1068.989,-332 1029.7157,-295.2757 1023.1811,-228.6235 1022.9272,-190.602"/>
<polygon fill="#c0c0c0" stroke="#c0c0c0" stroke-width="2" points="1026.4299,-190.2634 1023.0101,-180.2357 1019.4301,-190.2073 1026.4299,-190.2634"/>
</g>
<!-- 27&#45;&gt;46 -->
<g id="edge69" class="edge">
<title>27&#45;&gt;46</title>
<path fill="none" stroke="#c0c0c0" stroke-width="2" d="M1220.3742,-377.0328C1169.2033,-368.2928 1102.6882,-353.2116 1085.989,-332 1070.6063,-312.4607 1071.8038,-283.3067 1075.6672,-261.8752"/>
<polygon fill="#c0c0c0" stroke="#c0c0c0" stroke-width="2" points="1079.1007,-262.5547 1077.717,-252.0506 1072.2483,-261.1249 1079.1007,-262.5547"/>
</g>
<!-- 28&#45;&gt;23 -->
<g id="edge39" class="edge">
<title>28&#45;&gt;23</title>
<path fill="none" stroke="#c0c0c0" stroke-width="2" d="M881.8952,-300.6809C963.1906,-285.5004 1122.671,-255.7203 1197.8809,-241.6762"/>
<polygon fill="#c0c0c0" stroke="#c0c0c0" stroke-width="2" points="1198.7296,-245.0783 1207.9172,-239.8021 1197.4446,-238.1973 1198.7296,-245.0783"/>
</g>
<!-- 29 -->
<g id="node30" class="node">
<title>29</title>
<path fill="none" stroke="#d8d356" stroke-width="2" d="M257.967,-404C257.967,-404 156.011,-404 156.011,-404 150.011,-404 144.011,-398 144.011,-392 144.011,-392 144.011,-380 144.011,-380 144.011,-374 150.011,-368 156.011,-368 156.011,-368 257.967,-368 257.967,-368 263.967,-368 269.967,-374 269.967,-380 269.967,-380 269.967,-392 269.967,-392 269.967,-398 263.967,-404 257.967,-404"/>
<text text-anchor="middle" x="206.989" y="-389" font-family="sans" font-size="10.00" fill="#000000">download_rnaseq_B6Cast2</text>
<text text-anchor="middle" x="206.989" y="-377" font-family="sans" font-size="10.00" fill="#000000">file: 2</text>
</g>
<!-- 29&#45;&gt;44 -->
<g id="edge66" class="edge">
<title>29&#45;&gt;44</title>
<path fill="none" stroke="#c0c0c0" stroke-width="2" d="M206.989,-367.9891C206.989,-360.291 206.989,-351.0629 206.989,-342.2561"/>
<polygon fill="#c0c0c0" stroke="#c0c0c0" stroke-width="2" points="210.4891,-342.2282 206.989,-332.2282 203.4891,-342.2282 210.4891,-342.2282"/>
</g>
<!-- 30 -->
<g id="node31" class="node">
<title>30</title>
<path fill="none" stroke="#68d856" stroke-width="2" d="M977.967,-404C977.967,-404 876.011,-404 876.011,-404 870.011,-404 864.011,-398 864.011,-392 864.011,-392 864.011,-380 864.011,-380 864.011,-374 870.011,-368 876.011,-368 876.011,-368 977.967,-368 977.967,-368 983.967,-368 989.967,-374 989.967,-380 989.967,-380 989.967,-392 989.967,-392 989.967,-398 983.967,-404 977.967,-404"/>
<text text-anchor="middle" x="926.989" y="-389" font-family="sans" font-size="10.00" fill="#000000">download_rnaseq_CastB63</text>
<text text-anchor="middle" x="926.989" y="-377" font-family="sans" font-size="10.00" fill="#000000">file: 2</text>
</g>
<!-- 30&#45;&gt;28 -->
<g id="edge45" class="edge">
<title>30&#45;&gt;28</title>
<path fill="none" stroke="#c0c0c0" stroke-width="2" d="M904.4753,-367.9891C893.493,-359.2032 880.0195,-348.4244 867.681,-338.5536"/>
<polygon fill="#c0c0c0" stroke="#c0c0c0" stroke-width="2" points="869.7694,-335.7421 859.7743,-332.2282 865.3965,-341.2082 869.7694,-335.7421"/>
</g>
<!-- 31 -->
<g id="node32" class="node">
<title>31</title>
<path fill="none" stroke="#d89556" stroke-width="2" d="M1440.8021,-620C1440.8021,-620 1313.1759,-620 1313.1759,-620 1307.1759,-620 1301.1759,-614 1301.1759,-608 1301.1759,-608 1301.1759,-596 1301.1759,-596 1301.1759,-590 1307.1759,-584 1313.1759,-584 1313.1759,-584 1440.8021,-584 1440.8021,-584 1446.8021,-584 1452.8021,-590 1452.8021,-596 1452.8021,-596 1452.8021,-608 1452.8021,-608 1452.8021,-614 1446.8021,-620 1440.8021,-620"/>
<text text-anchor="middle" x="1376.989" y="-605" font-family="sans" font-size="10.00" fill="#000000">gunzip_fa</text>
<text text-anchor="middle" x="1376.989" y="-593" font-family="sans" font-size="10.00" fill="#000000">file: ../genome_data/GRCm38_90</text>
</g>
<!-- 48 -->
<g id="node49" class="node">
<title>48</title>
<path fill="none" stroke="#56d8b1" stroke-width="2" d="M1414.1862,-548C1414.1862,-548 1339.7918,-548 1339.7918,-548 1333.7918,-548 1327.7918,-542 1327.7918,-536 1327.7918,-536 1327.7918,-524 1327.7918,-524 1327.7918,-518 1333.7918,-512 1339.7918,-512 1339.7918,-512 1414.1862,-512 1414.1862,-512 1420.1862,-512 1426.1862,-518 1426.1862,-524 1426.1862,-524 1426.1862,-536 1426.1862,-536 1426.1862,-542 1420.1862,-548 1414.1862,-548"/>
<text text-anchor="middle" x="1376.989" y="-527" font-family="sans" font-size="10.00" fill="#000000">snpsplit_create_path</text>
</g>
<!-- 31&#45;&gt;48 -->
<g id="edge72" class="edge">
<title>31&#45;&gt;48</title>
<path fill="none" stroke="#c0c0c0" stroke-width="2" d="M1376.989,-583.8314C1376.989,-576.131 1376.989,-566.9743 1376.989,-558.4166"/>
<polygon fill="#c0c0c0" stroke="#c0c0c0" stroke-width="2" points="1380.4891,-558.4132 1376.989,-548.4133 1373.4891,-558.4133 1380.4891,-558.4132"/>
</g>
<!-- 32&#45;&gt;12 -->
<g id="edge13" class="edge">
<title>32&#45;&gt;12</title>
<path fill="none" stroke="#c0c0c0" stroke-width="2" d="M1308.0071,-143.8314C1295.6962,-134.8779 1280.6783,-123.9558 1267.3953,-114.2955"/>
<polygon fill="#c0c0c0" stroke="#c0c0c0" stroke-width="2" points="1269.1089,-111.214 1258.9629,-108.1628 1264.9917,-116.8752 1269.1089,-111.214"/>
</g>
<!-- 33&#45;&gt;36 -->
<g id="edge55" class="edge">
<title>33&#45;&gt;36</title>
<path fill="none" stroke="#c0c0c0" stroke-width="2" d="M1704.1008,-215.8314C1697.236,-207.454 1688.9589,-197.3531 1681.4379,-188.1749"/>
<polygon fill="#c0c0c0" stroke="#c0c0c0" stroke-width="2" points="1684.1231,-185.9297 1675.0776,-180.4133 1678.7087,-190.3665 1684.1231,-185.9297"/>
</g>
<!-- 34 -->
<g id="node35" class="node">
<title>34</title>
<path fill="none" stroke="#56d8c1" stroke-width="2" d="M2553.967,-404C2553.967,-404 2452.011,-404 2452.011,-404 2446.011,-404 2440.011,-398 2440.011,-392 2440.011,-392 2440.011,-380 2440.011,-380 2440.011,-374 2446.011,-368 2452.011,-368 2452.011,-368 2553.967,-368 2553.967,-368 2559.967,-368 2565.967,-374 2565.967,-380 2565.967,-380 2565.967,-392 2565.967,-392 2565.967,-398 2559.967,-404 2553.967,-404"/>
<text text-anchor="middle" x="2502.989" y="-389" font-family="sans" font-size="10.00" fill="#000000">download_rnaseq_B6Cast5</text>
<text text-anchor="middle" x="2502.989" y="-377" font-family="sans" font-size="10.00" fill="#000000">file: 1</text>
</g>
<!-- 34&#45;&gt;17 -->
<g id="edge28" class="edge">
<title>34&#45;&gt;17</title>
<path fill="none" stroke="#c0c0c0" stroke-width="2" d="M2468.863,-367.9891C2451.2723,-358.7051 2429.4653,-347.1958 2409.9271,-336.884"/>
<polygon fill="#c0c0c0" stroke="#c0c0c0" stroke-width="2" points="2411.3183,-333.6607 2400.8408,-332.0884 2408.0509,-339.8514 2411.3183,-333.6607"/>
</g>
<!-- 35&#45;&gt;32 -->
<g id="edge47" class="edge">
<title>35&#45;&gt;32</title>
<path fill="none" stroke="#c0c0c0" stroke-width="2" d="M1328.5031,-215.8314C1329.1448,-208.131 1329.9078,-198.9743 1330.6209,-190.4166"/>
<polygon fill="#c0c0c0" stroke="#c0c0c0" stroke-width="2" points="1334.1119,-190.6694 1331.4546,-180.4133 1327.1361,-190.088 1334.1119,-190.6694"/>
</g>
<!-- 36&#45;&gt;12 -->
<g id="edge18" class="edge">
<title>36&#45;&gt;12</title>
<path fill="none" stroke="#c0c0c0" stroke-width="2" d="M1619.4202,-150.3117C1610.742,-148.0334 1601.5957,-145.7974 1592.989,-144 1493.7004,-123.2648 1377.374,-107.2595 1304.668,-98.2315"/>
<polygon fill="#c0c0c0" stroke="#c0c0c0" stroke-width="2" points="1305.0576,-94.7531 1294.7047,-97.0042 1304.2017,-101.7006 1305.0576,-94.7531"/>
</g>
<!-- 37&#45;&gt;21 -->
<g id="edge34" class="edge">
<title>37&#45;&gt;21</title>
<path fill="none" stroke="#c0c0c0" stroke-width="2" d="M1802.3243,-290.6724C1799.186,-289.7028 1796.0564,-288.801 1792.989,-288 1792.989,-288 1578.45,-254.7095 1486.271,-240.4058"/>
<polygon fill="#c0c0c0" stroke="#c0c0c0" stroke-width="2" points="1486.5964,-236.9145 1476.1779,-238.8397 1485.523,-243.8317 1486.5964,-236.9145"/>
</g>
<!-- 38 -->
<g id="node39" class="node">
<title>38</title>
<path fill="none" stroke="#56d8d8" stroke-width="2" d="M2121.967,-404C2121.967,-404 2020.011,-404 2020.011,-404 2014.011,-404 2008.011,-398 2008.011,-392 2008.011,-392 2008.011,-380 2008.011,-380 2008.011,-374 2014.011,-368 2020.011,-368 2020.011,-368 2121.967,-368 2121.967,-368 2127.967,-368 2133.967,-374 2133.967,-380 2133.967,-380 2133.967,-392 2133.967,-392 2133.967,-398 2127.967,-404 2121.967,-404"/>
<text text-anchor="middle" x="2070.989" y="-389" font-family="sans" font-size="10.00" fill="#000000">download_rnaseq_B6Cast3</text>
<text text-anchor="middle" x="2070.989" y="-377" font-family="sans" font-size="10.00" fill="#000000">file: 1</text>
</g>
<!-- 38&#45;&gt;49 -->
<g id="edge73" class="edge">
<title>38&#45;&gt;49</title>
<path fill="none" stroke="#c0c0c0" stroke-width="2" d="M2070.989,-367.9891C2070.989,-360.291 2070.989,-351.0629 2070.989,-342.2561"/>
<polygon fill="#c0c0c0" stroke="#c0c0c0" stroke-width="2" points="2074.4891,-342.2282 2070.989,-332.2282 2067.4891,-342.2282 2074.4891,-342.2282"/>
</g>
<!-- 39 -->
<g id="node40" class="node">
<title>39</title>
<path fill="none" stroke="#56d8d0" stroke-width="2" d="M833.967,-404C833.967,-404 732.011,-404 732.011,-404 726.011,-404 720.011,-398 720.011,-392 720.011,-392 720.011,-380 720.011,-380 720.011,-374 726.011,-368 732.011,-368 732.011,-368 833.967,-368 833.967,-368 839.967,-368 845.967,-374 845.967,-380 845.967,-380 845.967,-392 845.967,-392 845.967,-398 839.967,-404 833.967,-404"/>
<text text-anchor="middle" x="782.989" y="-389" font-family="sans" font-size="10.00" fill="#000000">download_rnaseq_CastB62</text>
<text text-anchor="middle" x="782.989" y="-377" font-family="sans" font-size="10.00" fill="#000000">file: 1</text>
</g>
<!-- 39&#45;&gt;14 -->
<g id="edge23" class="edge">
<title>39&#45;&gt;14</title>
<path fill="none" stroke="#c0c0c0" stroke-width="2" d="M766.637,-367.9891C758.9642,-359.5379 749.6173,-349.2428 740.9403,-339.6855"/>
<polygon fill="#c0c0c0" stroke="#c0c0c0" stroke-width="2" points="743.4831,-337.2794 734.1699,-332.2282 738.3004,-341.9847 743.4831,-337.2794"/>
</g>
<!-- 40&#45;&gt;43 -->
<g id="edge64" class="edge">
<title>40&#45;&gt;43</title>
<path fill="none" stroke="#c0c0c0" stroke-width="2" d="M979.8772,-215.8314C986.742,-207.454 995.0191,-197.3531 1002.5401,-188.1749"/>
<polygon fill="#c0c0c0" stroke="#c0c0c0" stroke-width="2" points="1005.2693,-190.3665 1008.9004,-180.4133 999.8549,-185.9297 1005.2693,-190.3665"/>
</g>
<!-- 41 -->
<g id="node42" class="node">
<title>41</title>
<path fill="none" stroke="#566bd8" stroke-width="2" d="M1419.2523,-692C1419.2523,-692 1334.7257,-692 1334.7257,-692 1328.7257,-692 1322.7257,-686 1322.7257,-680 1322.7257,-680 1322.7257,-668 1322.7257,-668 1322.7257,-662 1328.7257,-656 1334.7257,-656 1334.7257,-656 1419.2523,-656 1419.2523,-656 1425.2523,-656 1431.2523,-662 1431.2523,-668 1431.2523,-668 1431.2523,-680 1431.2523,-680 1431.2523,-686 1425.2523,-692 1419.2523,-692"/>
<text text-anchor="middle" x="1376.989" y="-671" font-family="sans" font-size="10.00" fill="#000000">download_B6_genome</text>
</g>
<!-- 41&#45;&gt;31 -->
<g id="edge46" class="edge">
<title>41&#45;&gt;31</title>
<path fill="none" stroke="#c0c0c0" stroke-width="2" d="M1376.989,-655.8314C1376.989,-648.131 1376.989,-638.9743 1376.989,-630.4166"/>
<polygon fill="#c0c0c0" stroke="#c0c0c0" stroke-width="2" points="1380.4891,-630.4132 1376.989,-620.4133 1373.4891,-630.4133 1380.4891,-630.4132"/>
</g>
<!-- 42&#45;&gt;12 -->
<g id="edge19" class="edge">
<title>42&#45;&gt;12</title>
<path fill="none" stroke="#c0c0c0" stroke-width="2" d="M1159.9709,-143.8314C1172.2818,-134.8779 1187.2997,-123.9558 1200.5827,-114.2955"/>
<polygon fill="#c0c0c0" stroke="#c0c0c0" stroke-width="2" points="1202.9863,-116.8752 1209.0151,-108.1628 1198.8691,-111.214 1202.9863,-116.8752"/>
</g>
<!-- 43&#45;&gt;12 -->
<g id="edge20" class="edge">
<title>43&#45;&gt;12</title>
<path fill="none" stroke="#c0c0c0" stroke-width="2" d="M1064.7281,-148.0323C1095.1462,-137.6032 1137.2552,-123.1659 1171.8623,-111.3006"/>
<polygon fill="#c0c0c0" stroke="#c0c0c0" stroke-width="2" points="1173.084,-114.5818 1181.4083,-108.0277 1170.8137,-107.9602 1173.084,-114.5818"/>
</g>
<!-- 44&#45;&gt;11 -->
<g id="edge10" class="edge">
<title>44&#45;&gt;11</title>
<path fill="none" stroke="#c0c0c0" stroke-width="2" d="M256.8839,-305.0934C386.1084,-292.3602 725.1773,-258.7785 775.989,-252 798.4329,-249.0059 823.3568,-244.9454 843.7003,-241.4387"/>
<polygon fill="#c0c0c0" stroke="#c0c0c0" stroke-width="2" points="844.3343,-244.8811 853.5852,-239.7166 843.1328,-237.9849 844.3343,-244.8811"/>
</g>
<!-- 46&#45;&gt;42 -->
<g id="edge63" class="edge">
<title>46&#45;&gt;42</title>
<path fill="none" stroke="#c0c0c0" stroke-width="2" d="M1096.1108,-215.8314C1102.0389,-207.6232 1109.1619,-197.7606 1115.6823,-188.7323"/>
<polygon fill="#c0c0c0" stroke="#c0c0c0" stroke-width="2" points="1118.673,-190.5693 1121.6905,-180.4133 1112.9982,-186.4708 1118.673,-190.5693"/>
</g>
<!-- 47 -->
<g id="node48" class="node">
<title>47</title>
<path fill="none" stroke="#56d8b9" stroke-width="2" d="M1689.967,-404C1689.967,-404 1588.011,-404 1588.011,-404 1582.011,-404 1576.011,-398 1576.011,-392 1576.011,-392 1576.011,-380 1576.011,-380 1576.011,-374 1582.011,-368 1588.011,-368 1588.011,-368 1689.967,-368 1689.967,-368 1695.967,-368 1701.967,-374 1701.967,-380 1701.967,-380 1701.967,-392 1701.967,-392 1701.967,-398 1695.967,-404 1689.967,-404"/>
<text text-anchor="middle" x="1638.989" y="-389" font-family="sans" font-size="10.00" fill="#000000">download_rnaseq_CastB65</text>
<text text-anchor="middle" x="1638.989" y="-377" font-family="sans" font-size="10.00" fill="#000000">file: 2</text>
</g>
<!-- 47&#45;&gt;19 -->
<g id="edge32" class="edge">
<title>47&#45;&gt;19</title>
<path fill="none" stroke="#c0c0c0" stroke-width="2" d="M1661.5027,-367.9891C1672.485,-359.2032 1685.9585,-348.4244 1698.297,-338.5536"/>
<polygon fill="#c0c0c0" stroke="#c0c0c0" stroke-width="2" points="1700.5815,-341.2082 1706.2037,-332.2282 1696.2086,-335.7421 1700.5815,-341.2082"/>
</g>
<!-- 48&#45;&gt;15 -->
<g id="edge25" class="edge">
<title>48&#45;&gt;15</title>
<path fill="none" stroke="#c0c0c0" stroke-width="2" d="M1353.2688,-511.8314C1341.5796,-502.8779 1327.3202,-491.9558 1314.7081,-482.2955"/>
<polygon fill="#c0c0c0" stroke="#c0c0c0" stroke-width="2" points="1316.7687,-479.4651 1306.7016,-476.1628 1312.5121,-485.0222 1316.7687,-479.4651"/>
</g>
<!-- 49&#45;&gt;1 -->
<g id="edge1" class="edge">
<title>49&#45;&gt;1</title>
<path fill="none" stroke="#c0c0c0" stroke-width="2" d="M2021.2019,-303.1401C1930.9579,-290.6214 1743.7151,-264.2366 1678.989,-252 1667.0541,-249.7437 1654.1772,-246.93 1642.3925,-244.2025"/>
<polygon fill="#c0c0c0" stroke="#c0c0c0" stroke-width="2" points="1642.9043,-240.7275 1632.3685,-241.844 1641.301,-247.5414 1642.9043,-240.7275"/>
</g>
<!-- 50 -->
<g id="node51" class="node">
<title>50</title>
<path fill="none" stroke="#56d873" stroke-width="2" d="M1221.3162,-620C1221.3162,-620 1158.6618,-620 1158.6618,-620 1152.6618,-620 1146.6618,-614 1146.6618,-608 1146.6618,-608 1146.6618,-596 1146.6618,-596 1146.6618,-590 1152.6618,-584 1158.6618,-584 1158.6618,-584 1221.3162,-584 1221.3162,-584 1227.3162,-584 1233.3162,-590 1233.3162,-596 1233.3162,-596 1233.3162,-608 1233.3162,-608 1233.3162,-614 1227.3162,-620 1221.3162,-620"/>
<text text-anchor="middle" x="1189.989" y="-605" font-family="sans" font-size="10.00" fill="#000000">download_vcf</text>
<text text-anchor="middle" x="1189.989" y="-593" font-family="sans" font-size="10.00" fill="#000000">strain: CAST_EiJ</text>
</g>
<!-- 50&#45;&gt;20 -->
<g id="edge33" class="edge">
<title>50&#45;&gt;20</title>
<path fill="none" stroke="#c0c0c0" stroke-width="2" d="M1189.989,-583.8314C1189.989,-576.131 1189.989,-566.9743 1189.989,-558.4166"/>
<polygon fill="#c0c0c0" stroke="#c0c0c0" stroke-width="2" points="1193.4891,-558.4132 1189.989,-548.4133 1186.4891,-558.4133 1193.4891,-558.4132"/>
</g>
<!-- 51 -->
<g id="node52" class="node">
<title>51</title>
<path fill="none" stroke="#d85e56" stroke-width="2" d="M1833.967,-404C1833.967,-404 1732.011,-404 1732.011,-404 1726.011,-404 1720.011,-398 1720.011,-392 1720.011,-392 1720.011,-380 1720.011,-380 1720.011,-374 1726.011,-368 1732.011,-368 1732.011,-368 1833.967,-368 1833.967,-368 1839.967,-368 1845.967,-374 1845.967,-380 1845.967,-380 1845.967,-392 1845.967,-392 1845.967,-398 1839.967,-404 1833.967,-404"/>
<text text-anchor="middle" x="1782.989" y="-389" font-family="sans" font-size="10.00" fill="#000000">download_rnaseq_B6Cast4</text>
<text text-anchor="middle" x="1782.989" y="-377" font-family="sans" font-size="10.00" fill="#000000">file: 2</text>
</g>
<!-- 51&#45;&gt;37 -->
<g id="edge57" class="edge">
<title>51&#45;&gt;37</title>
<path fill="none" stroke="#c0c0c0" stroke-width="2" d="M1799.341,-367.9891C1807.0138,-359.5379 1816.3607,-349.2428 1825.0377,-339.6855"/>
<polygon fill="#c0c0c0" stroke="#c0c0c0" stroke-width="2" points="1827.6776,-341.9847 1831.8081,-332.2282 1822.4949,-337.2794 1827.6776,-341.9847"/>
</g>
</g>
</svg>
